<svg xmlns="http://www.w3.org/2000/svg" width="536.888" height="313.2" viewBox="0 0 536.888 313.2">
  <path id="Sustracción_8" data-name="Sustracción 8" d="M311.77,535.928v0h0L57.678,305.677a176.871,176.871,0,0,1-23.825-26.4A174.613,174.613,0,0,1,5.071,217.541,176.088,176.088,0,0,1,9.8,117.586,174.692,174.692,0,0,1,24.353,86.3,177.231,177.231,0,0,1,73.7,32.534a174.75,174.75,0,0,1,66.281-28.9,175.935,175.935,0,0,1,97.73,7.68,174.753,174.753,0,0,1,55.757,34.157l18.3,16.586V535.924h0v0Z" transform="translate(536.389 0.502) rotate(90)" fill="#0059d6" stroke="rgba(0,0,0,0)" stroke-miterlimit="10" stroke-width="1" opacity="0.1"/>
</svg>
