<svg xmlns="http://www.w3.org/2000/svg" width="278.728" height="270" viewBox="0 0 278.728 270">
  <g id="Grupo_124072" data-name="Grupo 124072" transform="translate(-894 -1516.547)">
    <g id="Web_search-pana" data-name="Web search-pana" transform="translate(875.93 1500.334)">
      <g id="freepik--background-complete--inject-47" transform="translate(18.07 25.484)">
        <path id="Trazado_227909" data-name="Trazado 227909" d="M61.673,53.649A21.8,21.8,0,1,0,21.112,64.666h0l.066.078c.835,1.414,1.879,2.386,2.941,3.9L36.776,85.406a3.931,3.931,0,0,0,6.281,0L55.463,68.919a47.506,47.506,0,0,0,3.161-4.175l.048-.06h0a21.658,21.658,0,0,0,3-11.035Zm-21.8,9.5a9.591,9.591,0,1,1,6.788-2.809A9.6,9.6,0,0,1,39.871,63.145Z" transform="translate(-18.07 -31.756)" fill="#f5f5f5"/>
        <path id="Trazado_227910" data-name="Trazado 227910" d="M472.358,283.611a9.609,9.609,0,1,0-17.894,4.855h0v.036c.37.6.835,1.068,1.3,1.718l5.577,7.39a1.736,1.736,0,0,0,2.774,0l5.482-7.265a20.6,20.6,0,0,0,1.4-1.849v-.03h0A9.508,9.508,0,0,0,472.358,283.611Zm-9.609,4.175a4.235,4.235,0,1,1,0,.012Z" transform="translate(-193.63 -129.502)" fill="#f5f5f5"/>
        <circle id="Elipse_5306" data-name="Elipse 5306" cx="24.062" cy="24.062" r="24.062" transform="translate(194.553 212.889) rotate(-45)" fill="#f5f5f5"/>
        <path id="Trazado_227911" data-name="Trazado 227911" d="M387.736,395.149a20.03,20.03,0,1,1,20.024-20.028,20.03,20.03,0,0,1-20.024,20.028Zm0-36.63a16.6,16.6,0,1,0,16.6,16.6A16.6,16.6,0,0,0,387.736,358.52Z" transform="translate(-159.153 -162.228)" fill="#fff"/>
        <path id="Trazado_227912" data-name="Trazado 227912" d="M396.068,390.167a7.378,7.378,0,1,1,7.378-7.372A7.378,7.378,0,0,1,396.068,390.167Zm0-11.333a3.943,3.943,0,1,1,0,.012Z" transform="translate(-167.623 -170.428)" fill="#fff"/>
        <path id="Trazado_227913" data-name="Trazado 227913" d="M381.009,387.79h-9.323l1.628,2.875L351.37,400.722l.74,1.235,22.016-9.943,1.509,2.857Z" transform="translate(-152.564 -175.424)" fill="#e0e0e0"/>
        <path id="Trazado_227914" data-name="Trazado 227914" d="M342.343,408.461l-.233-.227a4.45,4.45,0,0,0-4.36-1.086L329,409.7l4.873,2.141-1.956,5.207,8.214-2.9a4.462,4.462,0,0,0,2.953-4.42h0Z" transform="translate(-143.537 -183.162)" fill="#e0e0e0"/>
        <path id="Trazado_227915" data-name="Trazado 227915" d="M162.4,393.635l.179-.06.519-.149,1.992-.6,7.462-2.094-.072.125c-.382-1.282-.811-2.714-1.265-4.253v-.066l.06-.054a23.9,23.9,0,0,0,5.2-6.12,16.756,16.756,0,0,0,1.742-4.175,12.156,12.156,0,0,0,.28-4.772,15.031,15.031,0,0,0-4.9-8.947,18.056,18.056,0,0,0-10.14-4.372,14.912,14.912,0,0,0-8.154,1.634,16.277,16.277,0,0,0-6.078,5.112,14.727,14.727,0,0,0-2.613,6.943c-.036.6-.125,1.193-.113,1.789s.03,1.193.048,1.742a17.942,17.942,0,0,0,.6,3.31,15.507,15.507,0,0,0,1.193,2.935,14.382,14.382,0,0,0,1.718,2.44,16.213,16.213,0,0,0,4.175,3.352,21.437,21.437,0,0,0,7.4,2.553h.042v.036l.6,2.708c.06.3.107.531.137.7s.048.239.048.245a.936.936,0,0,1-.06-.215l-.167-.68-.644-2.732.054.048a21.168,21.168,0,0,1-7.486-2.5,16.29,16.29,0,0,1-4.235-3.37,14.631,14.631,0,0,1-1.789-2.475,15.7,15.7,0,0,1-1.253-2.982,19,19,0,0,1-.6-3.358l-.054-1.789c0-.6.078-1.193.113-1.789a14.942,14.942,0,0,1,2.648-7.086,16.594,16.594,0,0,1,6.185-5.225,15.2,15.2,0,0,1,8.351-1.664,18.306,18.306,0,0,1,10.337,4.456,14.983,14.983,0,0,1,3.346,4.241,9.5,9.5,0,0,1,.6,1.193,8.639,8.639,0,0,1,.465,1.193c.125.418.262.823.376,1.235s.149.841.227,1.259a12.49,12.49,0,0,1-.3,4.885,16.91,16.91,0,0,1-1.789,4.235,24.145,24.145,0,0,1-5.291,6.162l.042-.119,1.235,4.253.03.1-.1.03-7.545,2-1.986.519-.5.125Z" transform="translate(-69.781 -163.291)" fill="#e0e0e0"/>
        <path id="Trazado_227916" data-name="Trazado 227916" d="M184.926,417.94a44.669,44.669,0,0,1-5.183,1.593,44.793,44.793,0,0,1-5.273,1.271,46.9,46.9,0,0,1,5.183-1.587,45.6,45.6,0,0,1,5.273-1.276Z" transform="translate(-81.181 -187.59)" fill="#e0e0e0"/>
        <path id="Trazado_227917" data-name="Trazado 227917" d="M185.576,426.12a4.252,4.252,0,0,1-1.789.728,4.319,4.319,0,0,1-1.927.167,9.245,9.245,0,0,1,1.849-.489A9.658,9.658,0,0,1,185.576,426.12Z" transform="translate(-84.163 -190.89)" fill="#e0e0e0"/>
        <path id="Trazado_227918" data-name="Trazado 227918" d="M172.774,403.1a.644.644,0,0,1-.06-.167c-.036-.131-.078-.3-.137-.507q-.179-.71-.5-1.951c-.429-1.724-1.038-4.175-1.789-7.2-.376-1.521-.781-3.185-1.193-4.969a3.31,3.31,0,0,0-.519-1.229.877.877,0,0,0-1.092-.364,1.271,1.271,0,0,0-.561,1.139,1.957,1.957,0,0,0,.531,1.282,3.137,3.137,0,0,0,2.762.913,3.185,3.185,0,0,0,2.422-1.831,4.808,4.808,0,0,0,.346-3.233,2.881,2.881,0,0,0-.746-1.461,1.048,1.048,0,0,0-1.694,1.229,3.227,3.227,0,0,0,1.109,1.193,5.965,5.965,0,0,0,3.054,1.259,3.364,3.364,0,0,0,1.563-.233,3.245,3.245,0,0,0,1.193-.948,2.5,2.5,0,0,0,.549-1.384,1.789,1.789,0,0,0-.453-1.342,1.193,1.193,0,0,0-1.193-.418,1.485,1.485,0,0,0-.907.942,6.425,6.425,0,0,0,.072,2.756c.286,1.789.6,3.5.913,5.028.6,3.054,1.115,5.529,1.467,7.265.167.841.3,1.5.4,1.974.036.215.072.382.1.519a.913.913,0,0,1,0,.179.787.787,0,0,1-.054-.173c-.036-.131-.078-.3-.131-.507-.113-.471-.262-1.127-.459-1.962-.388-1.706-.942-4.175-1.569-7.247-.31-1.533-.65-3.215-.954-5.034-.066-.459-.143-.919-.191-1.4a3.454,3.454,0,0,1,.119-1.491,1.789,1.789,0,0,1,1.092-1.127,1.509,1.509,0,0,1,1.533.5,2.117,2.117,0,0,1,.531,1.557,2.78,2.78,0,0,1-.6,1.563,3.531,3.531,0,0,1-1.342,1.05,3.733,3.733,0,0,1-1.712.262,6.34,6.34,0,0,1-3.221-1.318,3.436,3.436,0,0,1-1.193-1.354,1.372,1.372,0,0,1,2.219-1.593,3.245,3.245,0,0,1,.835,1.622,5.13,5.13,0,0,1-.376,3.454,3.531,3.531,0,0,1-2.66,2,3.424,3.424,0,0,1-3.03-1.026,2.225,2.225,0,0,1-.6-1.485,1.527,1.527,0,0,1,.728-1.39,1.068,1.068,0,0,1,.823-.042,1.36,1.36,0,0,1,.6.489,3.847,3.847,0,0,1,.567,1.336c.424,1.789.817,3.46,1.193,4.987l1.67,7.211c.185.835.334,1.491.441,1.968.042.209.078.376.107.513a.549.549,0,0,1,0,.2Z" transform="translate(-78.024 -173.309)" fill="#e0e0e0"/>
        <path id="Trazado_227919" data-name="Trazado 227919" d="M185.588,421.68A28.9,28.9,0,0,1,181.413,423a30.545,30.545,0,0,1-4.283,1,28.89,28.89,0,0,1,4.175-1.318A30.753,30.753,0,0,1,185.588,421.68Z" transform="translate(-82.254 -189.099)" fill="#e0e0e0"/>
      </g>
      <g id="freepik--Floor--inject-47" transform="translate(29.278 285.455)">
        <path id="Trazado_227920" data-name="Trazado 227920" d="M291.127,467.755c0,.084-56.922.155-127.127.155s-127.139-.072-127.139-.155S93.77,467.6,164,467.6,291.127,467.666,291.127,467.755Z" transform="translate(-36.86 -467.6)" fill="#263238"/>
      </g>
      <g id="freepik--Window--inject-47" transform="translate(39.794 45.486)">
        <rect id="Rectángulo_36249" data-name="Rectángulo 36249" width="233.134" height="14.936" transform="translate(0.113 0.185)" fill="#e0e0e0"/>
        <rect id="Rectángulo_36250" data-name="Rectángulo 36250" width="233.134" height="130.748" transform="translate(0.078 28.84)" fill="#fff"/>
        <path id="Trazado_227921" data-name="Trazado 227921" d="M54.68,84.2H86.693L89.86,74.97h51.894l3.167,9.233H287.814V98.352H54.68Z" transform="translate(-54.567 -69.196)" fill="#ebebeb"/>
        <path id="Trazado_227922" data-name="Trazado 227922" d="M65.207,74.4a1.748,1.748,0,1,1-.512-1.242A1.754,1.754,0,0,1,65.207,74.4Z" transform="translate(-57.399 -68.26)" fill="#263238"/>
        <path id="Trazado_227923" data-name="Trazado 227923" d="M74.3,74.4a1.748,1.748,0,1,1-.512-1.242A1.754,1.754,0,0,1,74.3,74.4Z" transform="translate(-61.067 -68.26)" fill="#263238"/>
        <path id="Trazado_227924" data-name="Trazado 227924" d="M83.387,74.4a1.748,1.748,0,1,1-.512-1.242A1.754,1.754,0,0,1,83.387,74.4Z" transform="translate(-64.735 -68.26)" fill="#263238"/>
        <path id="Trazado_227925" data-name="Trazado 227925" d="M291.123,103.446H131.178a4.438,4.438,0,0,1-4.438-4.438h0a4.438,4.438,0,0,1,4.438-4.438H291.123a4.438,4.438,0,0,1,4.438,4.438h0a4.438,4.438,0,0,1-4.438,4.438Z" transform="translate(-83.644 -77.105)" fill="#fafafa"/>
        <path id="Trazado_227926" data-name="Trazado 227926" d="M138.788,101.572v1.5h-.758v-1.384c0-.424-.2-.6-.531-.6a.628.628,0,0,0-.632.7v1.3h-.758V99.46h.758v1.265a1.193,1.193,0,0,1,.835-.31,1.026,1.026,0,0,1,1.086,1.157Z" transform="translate(-87.425 -79.078)" fill="#e0e0e0"/>
        <path id="Trazado_227927" data-name="Trazado 227927" d="M143.24,103.214a1.062,1.062,0,0,1-.6.167.865.865,0,0,1-.978-.942v-1.074h-.406v-.6h.406v-.638h.758v.638h.65v.6h-.65v1.074a.3.3,0,0,0,.328.346.489.489,0,0,0,.3-.1Z" transform="translate(-89.504 -79.349)" fill="#e0e0e0"/>
        <path id="Trazado_227928" data-name="Trazado 227928" d="M146.66,103.214a1.086,1.086,0,0,1-.6.167.865.865,0,0,1-.978-.942v-1.074h-.406v-.6h.406v-.638h.758v.638h.656v.6h-.656v1.074a.31.31,0,0,0,.328.346.507.507,0,0,0,.31-.1Z" transform="translate(-90.884 -79.349)" fill="#e0e0e0"/>
        <path id="Trazado_227929" data-name="Trazado 227929" d="M151.611,102.379a1.27,1.27,0,0,1-1.306,1.348,1.02,1.02,0,0,1-.787-.316V104.6h-.758v-3.579h.74v.3a1.032,1.032,0,0,1,.823-.34,1.27,1.27,0,0,1,1.288,1.39Zm-.769,0a.662.662,0,1,0-.171.513A.668.668,0,0,0,150.842,102.379Z" transform="translate(-92.53 -79.695)" fill="#e0e0e0"/>
        <path id="Trazado_227930" data-name="Trazado 227930" d="M154.078,101.563a.477.477,0,1,1,.22.457.477.477,0,0,1-.22-.457Zm0,1.748a.477.477,0,1,1,.22.457A.477.477,0,0,1,154.078,103.311Z" transform="translate(-94.675 -79.756)" fill="#e0e0e0"/>
        <path id="Trazado_227931" data-name="Trazado 227931" d="M157.715,98.64h.68l-1.61,4.587h-.674Z" transform="translate(-95.496 -78.747)" fill="#e0e0e0"/>
        <path id="Trazado_227932" data-name="Trazado 227932" d="M160.32,98.64h.674l-1.6,4.587h-.68Z" transform="translate(-96.545 -78.747)" fill="#e0e0e0"/>
        <path id="Trazado_227933" data-name="Trazado 227933" d="M302.493,142.415H163.138a7.868,7.868,0,0,1-7.868-7.868h0a7.874,7.874,0,0,1,7.868-7.868H302.493a7.874,7.874,0,0,1,7.868,7.868h0A7.868,7.868,0,0,1,302.493,142.415Z" transform="translate(-95.157 -90.062)" fill="#fafafa"/>
        <path id="Trazado_227934" data-name="Trazado 227934" d="M302.394,142.209a8.285,8.285,0,0,0,3.221-.728,7.724,7.724,0,0,0,4.557-7.653,7.819,7.819,0,0,0-.883-3.114,7.9,7.9,0,0,0-2.344-2.672,7.754,7.754,0,0,0-3.609-1.408,18.335,18.335,0,0,0-2.082-.06H279.048l-116,.042a7.717,7.717,0,0,0-3.609,14.536,8,8,0,0,0,3.871.895h38.878l52.15.036,35.192.048h0l-35.192.054-52.15.03H163.313a8.213,8.213,0,0,1-4.014-.93,8.023,8.023,0,0,1,3.752-15.115l116.027.2h22.207a18.96,18.96,0,0,1,2.106.066,7.953,7.953,0,0,1,6.937,7.343,8.16,8.16,0,0,1-.346,2.923,8.011,8.011,0,0,1-1.193,2.3,7.909,7.909,0,0,1-3.132,2.523,8.112,8.112,0,0,1-2.386.638C302.681,142.209,302.394,142.209,302.394,142.209Z" transform="translate(-95.058 -89.856)" fill="#263238"/>
        <path id="Trazado_227935" data-name="Trazado 227935" d="M173.82,140.319l.292-.656a2.249,2.249,0,0,0,1.253.394c.519,0,.728-.173.728-.406,0-.71-2.2-.221-2.2-1.628,0-.644.519-1.193,1.6-1.193a2.553,2.553,0,0,1,1.312.334l-.268.668a2.118,2.118,0,0,0-1.05-.3c-.519,0-.722.2-.722.435,0,.7,2.2.215,2.2,1.6,0,.632-.525,1.193-1.6,1.193A2.66,2.66,0,0,1,173.82,140.319Z" transform="translate(-102.642 -94.158)" fill="#e0e0e0"/>
        <path id="Trazado_227936" data-name="Trazado 227936" d="M182.688,140.1h-2.2a.781.781,0,0,0,.835.6.99.99,0,0,0,.728-.286l.447.489a1.694,1.694,0,0,1-2.857-1.026,1.479,1.479,0,0,1,1.551-1.5,1.443,1.443,0,0,1,1.515,1.509C182.706,139.942,182.694,140.031,182.688,140.1Zm-2.213-.5h1.432a.728.728,0,0,0-1.432,0Z" transform="translate(-104.991 -94.782)" fill="#e0e0e0"/>
        <path id="Trazado_227937" data-name="Trazado 227937" d="M188.032,139.624v1.664h-.787v-.364a.96.96,0,0,1-.889.406c-.68,0-1.086-.382-1.086-.883s.364-.871,1.247-.871h.674c0-.358-.221-.6-.674-.6a1.4,1.4,0,0,0-.835.268l-.3-.6a2.243,2.243,0,0,1,1.253-.352C187.495,138.335,188.032,138.747,188.032,139.624Zm-.841.746v-.3h-.6c-.394,0-.519.143-.519.34s.179.352.471.352A.626.626,0,0,0,187.191,140.369Z" transform="translate(-107.263 -94.751)" fill="#e0e0e0"/>
        <path id="Trazado_227938" data-name="Trazado 227938" d="M192.987,138.358v.775H192.8a.716.716,0,0,0-.769.8v1.378h-.847V138.4h.805v.382A1.193,1.193,0,0,1,192.987,138.358Z" transform="translate(-109.647 -94.773)" fill="#e0e0e0"/>
        <path id="Trazado_227939" data-name="Trazado 227939" d="M194.65,139.854a1.5,1.5,0,0,1,1.622-1.5,1.33,1.33,0,0,1,1.3.74l-.656.352a.722.722,0,0,0-.65-.4.805.805,0,1,0,0,1.611.71.71,0,0,0,.65-.4l.656.358a1.342,1.342,0,0,1-1.3.734,1.5,1.5,0,0,1-1.622-1.5Z" transform="translate(-111.048 -94.772)" fill="#e0e0e0"/>
        <path id="Trazado_227940" data-name="Trazado 227940" d="M203.3,138.93v1.664h-.847v-1.539c0-.471-.215-.686-.6-.686a.691.691,0,0,0-.7.787v1.438h-.847V136.58h.847v1.408a1.277,1.277,0,0,1,.925-.346,1.139,1.139,0,0,1,1.217,1.288Z" transform="translate(-113.332 -94.057)" fill="#e0e0e0"/>
        <path id="Trazado_227941" data-name="Trazado 227941" d="M208.82,142.135a.525.525,0,1,1,.525.525A.525.525,0,0,1,208.82,142.135Z" transform="translate(-116.765 -96.087)" fill="#e0e0e0"/>
        <path id="Trazado_227942" data-name="Trazado 227942" d="M211.2,142.139a.525.525,0,1,1,.525.531.519.519,0,0,1-.525-.531Z" transform="translate(-117.726 -96.091)" fill="#e0e0e0"/>
        <path id="Trazado_227943" data-name="Trazado 227943" d="M213.57,142.135a.525.525,0,1,1,.525.525.525.525,0,0,1-.525-.525Z" transform="translate(-118.682 -96.087)" fill="#e0e0e0"/>
        <path id="Trazado_227944" data-name="Trazado 227944" d="M111.171,175.9c0,.089-5.595.155-12.49.155s-12.49-.066-12.49-.155,5.589-.155,12.49-.155S111.171,175.824,111.171,175.9Z" transform="translate(-67.282 -109.859)"/>
        <rect id="Rectángulo_36251" data-name="Rectángulo 36251" width="25.959" height="25.959" transform="translate(18.908 73.188)" fill="#feb62b"/>
        <path id="Trazado_227945" data-name="Trazado 227945" d="M296.784,198.145c0,.084-32.21.155-71.959.155s-71.965-.072-71.965-.155,32.21-.155,71.965-.155S296.784,198.056,296.784,198.145Z" transform="translate(-94.184 -118.837)"/>
        <path id="Trazado_227946" data-name="Trazado 227946" d="M193.2,214.525c0,.089-8.494.155-18.962.155s-18.968-.066-18.968-.155,8.488-.155,18.968-.155S193.2,214.442,193.2,214.525Z" transform="translate(-95.157 -125.447)"/>
        <path id="Trazado_227947" data-name="Trazado 227947" d="M274.757,229.721c0,.084-26.752.155-59.743.155s-59.743-.072-59.743-.155,26.746-.161,59.743-.161S274.757,229.632,274.757,229.721Z" transform="translate(-95.157 -131.577)" fill="#e0e0e0"/>
        <path id="Trazado_227948" data-name="Trazado 227948" d="M111.171,253.9c0,.084-5.595.155-12.49.155s-12.49-.072-12.49-.155,5.589-.155,12.49-.155S111.171,253.794,111.171,253.9Z" transform="translate(-67.282 -141.334)"/>
        <rect id="Rectángulo_36252" data-name="Rectángulo 36252" width="25.959" height="25.959" transform="translate(18.908 119.683)" fill="#feb62b"/>
        <path id="Trazado_227949" data-name="Trazado 227949" d="M305.338,276.085c0,.089-34.136.155-76.236.155s-76.242-.066-76.242-.155,34.131-.155,76.242-.155S305.338,276,305.338,276.085Z" transform="translate(-94.184 -150.288)"/>
        <path id="Trazado_227950" data-name="Trazado 227950" d="M193.2,292.475c0,.084-8.494.155-18.962.155s-18.968-.072-18.968-.155,8.488-.155,18.968-.155S193.2,292.392,193.2,292.475Z" transform="translate(-95.157 -156.902)"/>
        <path id="Trazado_227951" data-name="Trazado 227951" d="M295.562,307.665c0,.089-31.4.155-70.14.155s-70.152-.066-70.152-.155,31.4-.155,70.152-.155S295.562,307.582,295.562,307.665Z" transform="translate(-95.157 -163.031)" fill="#e0e0e0"/>
        <path id="Trazado_227952" data-name="Trazado 227952" d="M287.737,225.194c0-1.026-.048-62.511-.125-159.719l.125.125H54.621l.155-.155V225.164l-.143-.143,233.134.143L54.633,225.3H54.49V65.29H287.9v.125C287.791,162.683,287.737,224.168,287.737,225.194Z" transform="translate(-54.49 -65.29)" fill="#263238"/>
        <path id="Trazado_227953" data-name="Trazado 227953" d="M165.227,84.9c0,.089-8.231.155-18.383.155s-18.383-.066-18.383-.155,8.231-.155,18.383-.155S165.227,84.812,165.227,84.9Z" transform="translate(-84.338 -73.139)"/>
        <rect id="Rectángulo_36253" data-name="Rectángulo 36253" width="32.651" height="9.836" transform="translate(15.073 41.115)" fill="#455a64"/>
        <path id="Trazado_227954" data-name="Trazado 227954" d="M200.762,177.305c0,.089-10.14.155-22.666.155s-22.666-.066-22.666-.155,10.14-.155,22.666-.155S200.762,177.222,200.762,177.305Z" transform="translate(-95.221 -110.428)" fill="#feb62b"/>
        <path id="Trazado_227955" data-name="Trazado 227955" d="M200.762,253.9c0,.084-10.14.155-22.666.155s-22.666-.072-22.666-.155,10.14-.155,22.666-.155S200.762,253.794,200.762,253.9Z" transform="translate(-95.221 -141.334)" fill="#feb62b"/>
        <path id="Trazado_227956" data-name="Trazado 227956" d="M394.49,139.127a3.794,3.794,0,1,1,3.788-3.788A3.794,3.794,0,0,1,394.49,139.127Zm0-6.985a3.2,3.2,0,1,0,3.191,3.2,3.2,3.2,0,0,0-3.191-3.2Z" transform="translate(-190.154 -92.023)" fill="#feb62b"/>
        <path id="Trazado_227957" data-name="Trazado 227957" d="M402.995,145.015a.3.3,0,0,1-.215-.089l-2.469-2.452a.3.3,0,0,1,.423-.424L403.2,144.5a.3.3,0,0,1-.209.513Z" transform="translate(-194.001 -96.229)" fill="#feb62b"/>
        <path id="Trazado_227958" data-name="Trazado 227958" d="M270.362,213.405c0,.083-9.764.155-21.813.155s-21.819-.072-21.819-.155,9.77-.155,21.819-.155S270.362,213.316,270.362,213.405Z" transform="translate(-123.993 -124.995)"/>
        <path id="Trazado_227959" data-name="Trazado 227959" d="M331.707,212.275c0,.089-5.112.155-11.411.155s-11.417-.066-11.417-.155,5.112-.155,11.417-.155S331.707,212.192,331.707,212.275Z" transform="translate(-157.142 -124.539)"/>
        <path id="Trazado_227960" data-name="Trazado 227960" d="M270.016,292.475c0,.084-9.764.155-21.813.155s-21.813-.072-21.813-.155,9.764-.155,21.813-.155S270.016,292.392,270.016,292.475Z" transform="translate(-123.855 -156.902)"/>
      </g>
      <g id="freepik--Plant--inject-47" transform="translate(22.46 191.122)">
        <path id="Trazado_227961" data-name="Trazado 227961" d="M90.5,313.16c-4.843,2.505-8.553,6.824-11.22,11.578a83.772,83.772,0,0,0-6.09,15.168L71.7,366.61c5.631-9.579,10.14-20.841,11.369-31.888l-3.746-.334a8.961,8.961,0,0,0,5.965-4.36,26.537,26.537,0,0,0,2.7-7.1l-4.569.68A16.97,16.97,0,0,0,90.5,313.16Z" transform="translate(-44.101 -310.947)" fill="#455a64"/>
        <g id="Grupo_124069" data-name="Grupo 124069" transform="translate(27.599 2.213)" opacity="0.3">
          <path id="Trazado_227962" data-name="Trazado 227962" d="M90.5,313.16c-4.843,2.505-8.553,6.824-11.22,11.578a83.772,83.772,0,0,0-6.09,15.168L71.7,366.61c5.631-9.579,10.14-20.841,11.369-31.888l-3.746-.334a8.961,8.961,0,0,0,5.965-4.36,26.537,26.537,0,0,0,2.7-7.1l-4.569.68A16.97,16.97,0,0,0,90.5,313.16Z" transform="translate(-71.7 -313.16)"/>
        </g>
        <path id="Trazado_227963" data-name="Trazado 227963" d="M62.108,371.335s-12.222-14.626-12.079-28.589h4.933s-5.368-3.531-4.939-5.505.6-9.448.6-9.448l4.515,1.127s-3.388-1.694-3.811-4.372.99-15.1.99-15.1,5.5,5.786,7.194,11.709S65.615,334,64.315,352.051,62.108,371.335,62.108,371.335Z" transform="translate(-35.344 -309.45)" fill="#455a64"/>
        <path id="Trazado_227964" data-name="Trazado 227964" d="M80.687,383.48s13.242-8.822,16.182-20.077L92.9,362.293s5.088-1.658,5.177-3.34,1.61-7.724,1.61-7.724l-3.877-.078s3.1-.6,4.02-2.684,2.511-12.347,2.511-12.347-5.69,3.442-8.351,7.838-7.754,8.977-10.647,23.782S80.687,383.48,80.687,383.48Z" transform="translate(-47.725 -320.212)" fill="#455a64"/>
        <path id="Trazado_227965" data-name="Trazado 227965" d="M59.43,330.84a.752.752,0,0,1,.048.149l.107.447c.1.424.227,1,.4,1.736.34,1.509.793,3.7,1.306,6.412,1.044,5.422,2.279,12.961,3.251,21.336s1.485,16,1.706,21.521c.113,2.762.173,4.993.185,6.561v2.255a.453.453,0,0,1,0,.155.489.489,0,0,1,0-.155c0-.119,0-.274,0-.459,0-.435-.036-1.026-.066-1.789-.048-1.545-.143-3.776-.286-6.531-.274-5.517-.829-13.123-1.789-21.473s-2.165-15.9-3.155-21.336c-.489-2.714-.907-4.909-1.193-6.424-.143-.74-.256-1.324-.34-1.742-.03-.191-.06-.34-.078-.459a.513.513,0,0,1-.1-.2Z" transform="translate(-39.15 -318.081)" fill="#263238"/>
        <path id="Trazado_227966" data-name="Trazado 227966" d="M50.5,405.13s-11.184-12.657-14.661-20.364l2.625-1.115a6.8,6.8,0,0,1-5.321-1.748,19.929,19.929,0,0,1-3.615-4.48l3.454-.6A12.854,12.854,0,0,1,25.43,371a21.474,21.474,0,0,1,10.8,5.7,53.749,53.749,0,0,1,6.561,7.587,26.628,26.628,0,0,1,2.541,4.175C47.2,392.354,50.506,400.472,50.5,405.13Z" transform="translate(-25.43 -334.287)" fill="#455a64"/>
        <path id="Trazado_227967" data-name="Trazado 227967" d="M95.03,348.54a.459.459,0,0,1-.048.131l-.167.37-.674,1.414c-.6,1.193-1.438,2.982-2.463,5.2-2.052,4.4-4.772,10.54-7.432,17.447s-4.772,13.272-6.239,17.894c-.722,2.32-1.288,4.175-1.67,5.506l-.459,1.509-.125.388c0,.084-.048.131-.054.125a.835.835,0,0,1,0-.137l.1-.394.394-1.515c.346-1.312.883-3.2,1.581-5.529,1.39-4.658,3.483-11.041,6.156-17.96s5.422-13.051,7.528-17.429c1.05-2.189,1.927-3.949,2.553-5.154l.728-1.39.2-.352A.673.673,0,0,1,95.03,348.54Z" transform="translate(-45.713 -325.224)" fill="#263238"/>
        <path id="Trazado_227968" data-name="Trazado 227968" d="M63.51,422.664a5.136,5.136,0,0,1-.179-.907c-.089-.6-.239-1.426-.447-2.463a52.489,52.489,0,0,0-2.273-7.927,51.94,51.94,0,0,0-3.537-7.456c-.531-.913-.972-1.646-1.294-2.141a5.368,5.368,0,0,1-.459-.8,5.106,5.106,0,0,1,.561.728c.352.483.829,1.193,1.384,2.106A44.532,44.532,0,0,1,63.1,419.252c.179,1.05.3,1.9.352,2.493a5.518,5.518,0,0,1,.06.919Z" transform="translate(-37.491 -346.38)" fill="#263238"/>
        <rect id="Rectángulo_36254" data-name="Rectángulo 36254" width="24.479" height="4.993" transform="translate(16.296 73.295)" fill="#feb62b"/>
        <path id="Trazado_227969" data-name="Trazado 227969" d="M56.66,440.71,59.308,457.5H74.1L76.57,440.71Z" transform="translate(-38.032 -362.416)" fill="#feb62b"/>
        <path id="Trazado_227970" data-name="Trazado 227970" d="M77.28,440.605c0,.084-4.629.155-10.343.155s-10.337-.072-10.337-.155,4.629-.155,10.337-.155S77.28,440.516,77.28,440.605Z" transform="translate(-38.008 -362.311)" fill="#263238"/>
      </g>
      <g id="freepik--Character--inject-47" transform="translate(128.043 62.958)">
        <path id="Trazado_227971" data-name="Trazado 227971" d="M270,448.07v12.383l24.981-.119c-.179-2.511-13.892-7.522-13.892-7.522l.274-4.772Z" transform="translate(-229.702 -237.21)" fill="#455a64"/>
        <g id="Grupo_124070" data-name="Grupo 124070" transform="translate(43.644 214.473)" opacity="0.6">
          <path id="Trazado_227972" data-name="Trazado 227972" d="M276.314,454.155a1.074,1.074,0,0,0-.68,1.235.972.972,0,0,0,1.151.734,1.145,1.145,0,0,0,.716-1.318.99.99,0,0,0-1.276-.6" transform="translate(-275.609 -454.147)" fill="#fff"/>
        </g>
        <path id="Trazado_227973" data-name="Trazado 227973" d="M270,467.514V465.54l23.859.28s1.241.746,1.127,1.575Z" transform="translate(-229.702 -244.271)" fill="#263238"/>
        <path id="Trazado_227974" data-name="Trazado 227974" d="M287.1,456.358c0,.131-.6.2-1.193.6s-.9.966-1.014.919.06-.8.781-1.294S287.119,456.239,287.1,456.358Z" transform="translate(-235.697 -240.518)" fill="#263238"/>
        <path id="Trazado_227975" data-name="Trazado 227975" d="M293,458.327c0,.125-.5.352-.9.9s-.513,1.127-.632,1.121-.209-.728.3-1.4S292.995,458.208,293,458.327Z" transform="translate(-238.327 -241.341)" fill="#263238"/>
        <path id="Trazado_227976" data-name="Trazado 227976" d="M296.463,462.142c-.113.03-.292-.6,0-1.318s.865-1,.919-.889-.292.489-.531,1.074S296.582,462.13,296.463,462.142Z" transform="translate(-240.316 -242.001)" fill="#263238"/>
        <path id="Trazado_227977" data-name="Trazado 227977" d="M286.455,450.226c-.048.119-.6-.048-1.294,0s-1.193.3-1.276.185.441-.6,1.247-.632S286.515,450.124,286.455,450.226Z" transform="translate(-235.301 -237.91)" fill="#263238"/>
        <path id="Trazado_227978" data-name="Trazado 227978" d="M286.463,454.7a1.944,1.944,0,0,0,.054-.758,4.175,4.175,0,0,0-.662-1.95,3.883,3.883,0,0,0-.978-1.032.841.841,0,0,0-.841-.149.966.966,0,0,0-.5.817,3.275,3.275,0,0,0,2.2,2.9,3.137,3.137,0,0,0,3.376-1,2.386,2.386,0,0,0,.447-.763.824.824,0,0,0,0-.5.6.6,0,0,0-.34-.358,1.032,1.032,0,0,0-.775.078,4.537,4.537,0,0,0-.6.328,5.291,5.291,0,0,0-1.426,1.414,2.017,2.017,0,0,0-.346.662,7.38,7.38,0,0,1,1.9-1.849c.334-.191.775-.465,1.127-.34.155.06.215.245.143.459a2.016,2.016,0,0,1-.394.632,2.833,2.833,0,0,1-3.024.877,2.982,2.982,0,0,1-1.974-2.517.5.5,0,0,1,.853-.429,3.675,3.675,0,0,1,.925.924,4.349,4.349,0,0,1,.734,1.789C286.445,454.435,286.433,454.7,286.463,454.7Z" transform="translate(-235.166 -238.308)" fill="#263238"/>
        <path id="Trazado_227979" data-name="Trazado 227979" d="M248.246,450.267l.423,3.191-.28,7.188-9.365.227-.334-7.414,1.062-4.408Z" transform="translate(-217.068 -237.617)" fill="#455a64"/>
        <path id="Trazado_227980" data-name="Trazado 227980" d="M247.181,460.926c-.06,0,.078-2.2.3-4.909s.453-4.921.507-4.927-.078,2.2-.3,4.915S247.234,460.926,247.181,460.926Z" transform="translate(-220.488 -238.44)" fill="#263238"/>
        <path id="Trazado_227981" data-name="Trazado 227981" d="M248.61,466.48l-9.46.113v1.312l9.466-.006Z" transform="translate(-217.253 -244.651)" fill="#263238"/>
        <path id="Trazado_227982" data-name="Trazado 227982" d="M239.19,457.661a2.082,2.082,0,0,1,.239-.376,6.165,6.165,0,0,1,.835-.895,6.328,6.328,0,0,1,1.509-1.014,4.987,4.987,0,0,1,5.84,1.08,4.385,4.385,0,0,1,.686,1.02,1.194,1.194,0,0,1,.149.423,10.3,10.3,0,0,0-.978-1.306,5.016,5.016,0,0,0-3.513-1.443,5.726,5.726,0,0,0-3.579,1.4C239.608,457.184,239.226,457.7,239.19,457.661Z" transform="translate(-217.269 -239.965)" fill="#263238"/>
        <path id="Trazado_227983" data-name="Trazado 227983" d="M247.072,112.049,247,144.413l13.892.662.406-7.874s4.933.978,6.2-3.579c.817-2.929.6-25.553.6-25.553Z" transform="translate(-220.421 -100.024)" fill="#b78876"/>
        <path id="Trazado_227984" data-name="Trazado 227984" d="M266.755,107.272c-2.189.626-2.666,4.175-2.666,4.175l-3.43,7.581c-1.748-1.366-4.1-1.288-4.539,1.789-.322,2.219,2.44,2.666,2.44,2.666a40.135,40.135,0,0,1-5.04,7.551c-2.517,2.833-3.949,3.114-6.692,3.149H243.8s-1.485-4.814-4.229-16.845c-3.042-13.349,12.741-11.631,15.669-15.037C260,96.762,273.669,105.3,266.755,107.272Z" transform="translate(-217.266 -96.954)" fill="#263238"/>
        <path id="Trazado_227985" data-name="Trazado 227985" d="M269.255,101.989a3.03,3.03,0,0,0-3.024-2.523,1.879,1.879,0,0,0-.394-2.386,3.072,3.072,0,0,0-2.5-.6,9.174,9.174,0,0,0-2.493.895,4.229,4.229,0,0,0-1.61-2.129,4.861,4.861,0,0,0-2.678-.662c-4.265,0-6.508,2.917-8.8,5.893a3.579,3.579,0,0,1-1.384,1.312,3.71,3.71,0,0,1-1.282.143,9.269,9.269,0,0,0-7.885,4.9c-1.491,2.881-2.607,9.544,1.259,13.719l2.326,5.2,22.267-17.644a3.212,3.212,0,0,0,2.63.2,2.815,2.815,0,0,0,1.545-3.746C267.448,104.417,269.482,103.42,269.255,101.989Z" transform="translate(-215.912 -94.582)" fill="#263238"/>
        <path id="Trazado_227986" data-name="Trazado 227986" d="M256.593,136.11a4.843,4.843,0,0,1-.078,2.457,4.772,4.772,0,0,1-.984,2.255c-.1-.048.352-1.038.638-2.332S256.491,136.11,256.593,136.11Z" transform="translate(-223.858 -111.339)" fill="#455a64"/>
        <path id="Trazado_227987" data-name="Trazado 227987" d="M259.555,133.44a6.006,6.006,0,0,1-.131,2.386,5.875,5.875,0,0,1-.734,2.255,12.946,12.946,0,0,1,.388-2.32,12.525,12.525,0,0,1,.477-2.32Z" transform="translate(-225.138 -110.262)" fill="#455a64"/>
        <path id="Trazado_227988" data-name="Trazado 227988" d="M265.806,124.48c.036.048-.358.334-.859.919a9.085,9.085,0,0,0-1.5,2.589,22.217,22.217,0,0,0-.829,2.911,4.437,4.437,0,0,1-.346,1.193,4.61,4.61,0,0,1,.1-1.271,14.388,14.388,0,0,1,.746-2.982,7.612,7.612,0,0,1,1.646-2.625A2.708,2.708,0,0,1,265.806,124.48Z" transform="translate(-226.581 -106.646)" fill="#455a64"/>
        <path id="Trazado_227989" data-name="Trazado 227989" d="M270.486,118.39a1.835,1.835,0,0,1,.274.871,5.809,5.809,0,0,1-.125,2.213,5.554,5.554,0,0,1-.936,2c-.34.459-.6.68-.65.65a10.016,10.016,0,0,0,1.247-2.738A13.768,13.768,0,0,0,270.486,118.39Z" transform="translate(-229.317 -104.189)" fill="#455a64"/>
        <path id="Trazado_227990" data-name="Trazado 227990" d="M242.5,131.269c-.048.089-.471-.06-.948-.328s-.829-.549-.781-.638.471.066.948.334S242.545,131.186,242.5,131.269Z" transform="translate(-217.904 -108.986)" fill="#455a64"/>
        <path id="Trazado_227991" data-name="Trazado 227991" d="M253.928,126.15a1.968,1.968,0,0,1-.394,1.408c-.429.71-1.008,1.08-1.068,1.008s.376-.537.763-1.193S253.826,126.126,253.928,126.15Z" transform="translate(-222.624 -107.32)" fill="#455a64"/>
        <path id="Trazado_227992" data-name="Trazado 227992" d="M257.09,124.29a2.762,2.762,0,0,1-.6,1.682c-.555.847-1.253,1.3-1.306,1.193s.5-.6,1.014-1.414a14.72,14.72,0,0,1,.889-1.461Z" transform="translate(-223.723 -106.57)" fill="#455a64"/>
        <path id="Trazado_227993" data-name="Trazado 227993" d="M263.043,100.645a8.088,8.088,0,0,0-.763-.483,5.124,5.124,0,0,0-2.326-.6,6.239,6.239,0,0,0-3.418.913,8.488,8.488,0,0,0-2.9,3.245,14.231,14.231,0,0,0-1.193,3.036l-.06.2-.185-.1a6.973,6.973,0,0,0-3.1-.793,7.414,7.414,0,0,0-2.523.382,10.659,10.659,0,0,0-2.064,1.032,2.093,2.093,0,0,1,.465-.412,6.286,6.286,0,0,1,1.527-.817,7.2,7.2,0,0,1,2.595-.471,7.1,7.1,0,0,1,3.257.781l-.245.107a14.386,14.386,0,0,1,1.193-3.114,8.6,8.6,0,0,1,3.048-3.352,6.365,6.365,0,0,1,3.579-.889,4.939,4.939,0,0,1,2.386.734,3.121,3.121,0,0,1,.531.424C262.995,100.579,263.049,100.639,263.043,100.645Z" transform="translate(-219.416 -96.488)" fill="#455a64"/>
        <path id="Trazado_227994" data-name="Trazado 227994" d="M276.584,104.182a.844.844,0,0,1,.793.358,1.366,1.366,0,0,1,.322,1.014,1.581,1.581,0,0,1-.811,1.157,2.3,2.3,0,0,1-1.688.233,4.944,4.944,0,0,1-1.736-.847,16.492,16.492,0,0,0-1.706-1.193,6.932,6.932,0,0,0-2.052-.722,8.571,8.571,0,0,0-4.175.286,11.453,11.453,0,0,0-3.1,1.575c-1.622,1.163-2.422,2.141-2.475,2.088a4.222,4.222,0,0,1,.555-.686,13.123,13.123,0,0,1,1.789-1.6,11.166,11.166,0,0,1,3.143-1.682,8.72,8.72,0,0,1,4.354-.322,7.223,7.223,0,0,1,2.153.763,16.147,16.147,0,0,1,1.724,1.193,4.671,4.671,0,0,0,1.616.823,2.064,2.064,0,0,0,1.5-.161,1.4,1.4,0,0,0,.734-.966,1.235,1.235,0,0,0-.233-.9,1.193,1.193,0,0,0-.716-.406Z" transform="translate(-225.651 -98.259)" fill="#455a64"/>
        <path id="Trazado_227995" data-name="Trazado 227995" d="M351.321,146.126c-.525-.465-7.6,2.5-7.6,2.5a83.791,83.791,0,0,0-7.45,6.591l-1.342,1.115-20.077,15.61-24.694-10.271-5.368,13.773s27.724,11.041,31.947,9.15c4.587-2.052,21.676-19.94,21.718-20h0l2.469-2.386s1.306,0,2.3-.084,3.889-1.986,3.889-1.986a5.631,5.631,0,0,0,.561-1.688,1.08,1.08,0,0,0-.537-1.223,3.853,3.853,0,0,0,.048-1.4,3.813,3.813,0,0,0-1.193-1.7,2.487,2.487,0,0,0,.662-1.247c.239-.913-.936-1.789-.936-1.789s4.11-2.792,5.106-3.287S351.846,146.592,351.321,146.126Z" transform="translate(-235.67 -115.361)" fill="#b78876"/>
        <path id="Trazado_227996" data-name="Trazado 227996" d="M270.319,337.455c.083-.907.125-1.6.125-2.04l2.792-44.515s-2.344-13-3.454-16.451l-9.967-3.859-13.284,5.171c-.084-1.068-.137-1.73-.137-1.73L226.848,280.8s-.507,13.343,0,17.405c.167,1.306.674,4.676,1.294,8.649h0s.632,8.631.764,9.114c.471,1.76.6,6.072.6,10.391,0,5.488.3,12.019.644,15.121s.507,37.244.507,37.244h14.435l1.855-54.375c.31-5.828.775-14.739,1.074-21.187l3.388,20.077c0,.734,2.064,12.216,2.064,12.216a108.805,108.805,0,0,0-.883,10.892c-.239,10.14-1.426,32.377-1.426,32.377h14.125s4.247-32.138,5.07-41.264Z" transform="translate(-212.198 -165.605)" fill="#263238"/>
        <path id="Trazado_227997" data-name="Trazado 227997" d="M299.174,295.5a5.738,5.738,0,0,1-1.306-.7,17.849,17.849,0,0,1-2.792-2.213,18.2,18.2,0,0,1-2.3-2.714,5.148,5.148,0,0,1-.734-1.282,11.124,11.124,0,0,1,.907,1.151,25.262,25.262,0,0,0,2.344,2.63,24.592,24.592,0,0,0,2.69,2.249,10.348,10.348,0,0,1,1.193.877Z" transform="translate(-238.596 -172.868)" fill="#455a64"/>
        <path id="Trazado_227998" data-name="Trazado 227998" d="M260.029,305.042a1.724,1.724,0,0,1-.274-.441,13.239,13.239,0,0,1-.6-1.288,21.271,21.271,0,0,1-1.318-4.5,21.568,21.568,0,0,1-.286-4.682c.036-.6.083-1.08.137-1.414a1.67,1.67,0,0,1,.113-.513,16.578,16.578,0,0,1-.03,1.933,25.411,25.411,0,0,0,.37,4.623,26,26,0,0,0,1.193,4.48C259.76,304.35,260.07,305.018,260.029,305.042Z" transform="translate(-224.669 -174.325)" fill="#455a64"/>
        <path id="Trazado_227999" data-name="Trazado 227999" d="M262.964,328.352a3.87,3.87,0,0,1-.185-.775q-.155-.847-.394-2.129c-.31-1.867-.728-4.324-1.193-7.044-.8-4.993-1.342-8.392-1.593-9.973a14.519,14.519,0,0,1,.68,2.881c.346,1.789.775,4.289,1.229,7.038s.829,5.255,1.092,7.062c.113.859.215,1.575.292,2.147A3.58,3.58,0,0,1,262.964,328.352Z" transform="translate(-225.505 -180.874)" fill="#455a64"/>
        <path id="Trazado_228000" data-name="Trazado 228000" d="M206.593,217.35s-1.9,13.415-2.261,18.115c-.215,2.833,2.66,6.561,4.855,6.865s9.591.716,9.591.716l.6-8.416-.191-1.676-2.3-.429.692-13.349Z" transform="translate(-203.199 -144.121)" fill="#b78876"/>
        <path id="Trazado_228001" data-name="Trazado 228001" d="M225.491,221.17a3.035,3.035,0,0,1,.089.728c.036.471.06,1.151.078,2,.042,1.682,0,4.014-.143,6.561s-.352,4.891-.513,6.561c-.089.835-.161,1.515-.221,1.98a3.136,3.136,0,0,1-.125.722,3.311,3.311,0,0,1,0-.734c.03-.537.072-1.193.119-1.992.113-1.748.256-4.032.418-6.561s.221-4.879.239-6.561V221.88A3.406,3.406,0,0,1,225.491,221.17Z" transform="translate(-211.396 -145.663)" fill="#aa6550"/>
        <g id="Grupo_124071" data-name="Grupo 124071" transform="translate(14.709 110.149)" opacity="0.3">
          <path id="Trazado_228002" data-name="Trazado 228002" d="M227.213,284.534a27.3,27.3,0,0,0,11.864,1.163c3.99-.346,7.939-1.151,11.93-1.527a57.131,57.131,0,0,1,18.067,1.193,3.2,3.2,0,0,0,1.276.119,1.068,1.068,0,0,0,.9-.8c.107-.668-.626-1.133-1.247-1.39a53.3,53.3,0,0,0-42.9.954" transform="translate(-227.1 -279.248)"/>
        </g>
        <path id="Trazado_228003" data-name="Trazado 228003" d="M274.8,174.987l-21.187-10.546A69.108,69.108,0,0,0,243.543,164H229.52s-16.988,5.01-19.8,9.633l-7.283,21.831,14.4,2.171h0l1.789,15.687s-1.789,18.163-1.789,20.8a19.831,19.831,0,0,0,.221,3.65s28.81-4.378,35.9-2.07,9.007,2.07,9.007,2.07-.6-7.539-1.115-11.93l-1.634-21.891-1.193-16.7,13.331,4.08Z" transform="translate(-202.44 -122.582)" fill="#feb62b"/>
        <path id="Trazado_228004" data-name="Trazado 228004" d="M222.426,210.281c-.054,0-.2-.9-.513-2.356a40.008,40.008,0,0,0-1.67-5.565,44.588,44.588,0,0,0-2.469-5.321l-.871-1.563a2.523,2.523,0,0,1-.292-.6,2.822,2.822,0,0,1,.406.531,17.475,17.475,0,0,1,.96,1.527,35.028,35.028,0,0,1,2.577,5.315,32.358,32.358,0,0,1,1.587,5.631c.131.734.215,1.33.256,1.748A2.637,2.637,0,0,1,222.426,210.281Z" transform="translate(-208.158 -135.054)" fill="#263238"/>
        <path id="Trazado_228005" data-name="Trazado 228005" d="M260.745,231.09a1.021,1.021,0,0,1-.078.292l-.268.805c-.119.352-.268.775-.465,1.265s-.406,1.05-.68,1.646c-.519,1.193-1.193,2.636-2.04,4.175s-1.849,3.173-2.982,4.831a53.6,53.6,0,0,1-3.513,4.48,41.282,41.282,0,0,1-3.221,3.346c-.471.465-.93.853-1.318,1.193s-.74.644-1.026.877l-.668.525a1.421,1.421,0,0,1-.245.173,2.408,2.408,0,0,1,.209-.221l.626-.6c.274-.239.6-.543.99-.907s.823-.758,1.282-1.229c.942-.919,2.016-2.064,3.155-3.376s2.32-2.827,3.477-4.468a54.33,54.33,0,0,0,2.982-4.772c.835-1.491,1.545-2.923,2.088-4.122.286-.6.507-1.151.716-1.628s.382-.895.519-1.241.233-.6.322-.787A1.192,1.192,0,0,1,260.745,231.09Z" transform="translate(-219.307 -149.666)" fill="#263238"/>
        <path id="Trazado_228006" data-name="Trazado 228006" d="M287.3,167.18a6.812,6.812,0,0,0-1.115,2.66,9.2,9.2,0,0,0,0,3.132,36.7,36.7,0,0,0,.895,3.782c.734,2.672,1.5,5.052,2.094,6.77.28.811.513,1.491.7,2.034a4.272,4.272,0,0,1,.227.758,3.941,3.941,0,0,1-.346-.716c-.2-.465-.477-1.145-.8-2-.644-1.7-1.455-4.086-2.189-6.764a34,34,0,0,1-.853-3.8,9.1,9.1,0,0,1,.048-3.215,5.847,5.847,0,0,1,.823-2.01A2.249,2.249,0,0,1,287.3,167.18Z" transform="translate(-236.077 -123.877)" fill="#263238"/>
        <path id="Trazado_228007" data-name="Trazado 228007" d="M215.764,204.865a3.036,3.036,0,0,1-1.133.769,5.708,5.708,0,0,1-6.2-.948,2.982,2.982,0,0,1-.847-1.068c.042-.036.352.388.99.9a6.018,6.018,0,0,0,6.007.913C215.31,205.134,215.734,204.823,215.764,204.865Z" transform="translate(-204.514 -138.58)" fill="#fff"/>
        <path id="Trazado_228008" data-name="Trazado 228008" d="M261.265,189.2a2.387,2.387,0,0,1-.173.459c-.131.3-.334.728-.626,1.265a17.531,17.531,0,0,1-3.149,4.122,14.22,14.22,0,0,1-6.728,3.656,12.592,12.592,0,0,1-4.557.2,13.373,13.373,0,0,1-4.611-1.64c-2.929-1.634-5.4-3.7-8.112-4.694a12.711,12.711,0,0,0-7.48-.412,13.242,13.242,0,0,0-4.647,2.129c-.978.722-1.438,1.229-1.461,1.193a9.239,9.239,0,0,1,1.39-1.294,13.075,13.075,0,0,1,12.3-1.891c2.774,1,5.267,3.078,8.16,4.688a13.254,13.254,0,0,0,4.5,1.646,12.461,12.461,0,0,0,4.456-.179,14.119,14.119,0,0,0,6.633-3.537,17.965,17.965,0,0,0,3.2-4.02c.3-.525.531-.948.674-1.235A3.239,3.239,0,0,1,261.265,189.2Z" transform="translate(-209.413 -132.762)" fill="#fff"/>
        <path id="Trazado_228009" data-name="Trazado 228009" d="M307.291,176.37a3.213,3.213,0,0,1,.274.692,8.2,8.2,0,0,1,.346,1.986,9.264,9.264,0,0,1-2.01,6.251,23.367,23.367,0,0,1-2.66,2.517,7.081,7.081,0,0,0-1.789,2.273,3.842,3.842,0,0,0-.4,1.9c.036.465.137.716.107.722s-.042-.054-.089-.173a2.266,2.266,0,0,1-.137-.537,3.71,3.71,0,0,1,.316-2,7.045,7.045,0,0,1,1.789-2.386,26.011,26.011,0,0,0,2.607-2.5,9.406,9.406,0,0,0,2.034-6.048,14.736,14.736,0,0,0-.388-2.7Z" transform="translate(-242.173 -127.585)" fill="#fff"/>
        <path id="Trazado_228010" data-name="Trazado 228010" d="M243.712,258.031a2.332,2.332,0,0,1-.6.221,12.651,12.651,0,0,1-1.754.37,6.085,6.085,0,0,1-2.678-.155,3.967,3.967,0,0,1-1.4-.787,12.032,12.032,0,0,1-1.145-1.253,5.964,5.964,0,0,0-1.193-1.109,5.844,5.844,0,0,0-1.366-.656,6.048,6.048,0,0,0-2.559-.245,5.266,5.266,0,0,0-1.682.477,4.177,4.177,0,0,1-.6.274,1.963,1.963,0,0,1,.537-.382,4.832,4.832,0,0,1,1.712-.6,5.923,5.923,0,0,1,2.672.185,5.7,5.7,0,0,1,1.449.68,5.79,5.79,0,0,1,1.264,1.157,12.461,12.461,0,0,0,1.109,1.223,3.864,3.864,0,0,0,1.294.752,6.281,6.281,0,0,0,2.565.209C242.793,258.222,243.7,257.977,243.712,258.031Z" transform="translate(-213.053 -158.957)" fill="#fff"/>
        <path id="Trazado_228011" data-name="Trazado 228011" d="M285.275,254.495a1.01,1.01,0,0,1-.191.161,5.969,5.969,0,0,1-.6.394,8.77,8.77,0,0,1-2.386,1.008,10.1,10.1,0,0,1-3.871.227,9.544,9.544,0,0,1-4.4-1.789,44.318,44.318,0,0,1-3.519-3.167,11.255,11.255,0,0,0-3.126-2.147,5.922,5.922,0,0,0-2.475-.549c-.6,0-.942.1-.948.066a1.012,1.012,0,0,1,.239-.078,3.435,3.435,0,0,1,.7-.113,5.822,5.822,0,0,1,2.571.471,11.046,11.046,0,0,1,3.227,2.141c1.092.966,2.177,2.141,3.513,3.126a9.365,9.365,0,0,0,4.253,1.73,10.384,10.384,0,0,0,3.782-.149,10.031,10.031,0,0,0,2.386-.9,7.676,7.676,0,0,1,.841-.429Z" transform="translate(-227.184 -156.691)" fill="#fff"/>
      </g>
      <g id="freepik--magnifying-glass--inject-47" transform="translate(219.499 16.212)">
        <path id="Trazado_228012" data-name="Trazado 228012" d="M373.1,76.822A30.492,30.492,0,1,1,412.965,34.6h0A30.486,30.486,0,0,1,373.1,76.822Zm25.422-53.17a28.44,28.44,0,1,0,12.651,11.93,28.44,28.44,0,0,0-12.651-11.93Z" transform="translate(-355.767 -17.265)" fill="#263238"/>
        <path id="Trazado_228013" data-name="Trazado 228013" d="M454.023,146.852h0a3.8,3.8,0,0,1-5.219-1.235l-19.94-32.323a.65.65,0,0,1,.209-.895l4.253-2.625a.656.656,0,0,1,.889.2l20.972,31.512a3.794,3.794,0,0,1-1.163,5.368Z" transform="translate(-385.224 -53.928)" fill="#263238"/>
        <path id="Trazado_228014" data-name="Trazado 228014" d="M374.322,74.23A30.5,30.5,0,1,1,414.185,32h0A30.492,30.492,0,0,1,374.322,74.23Zm25.422-53.17A28.44,28.44,0,1,0,412.4,32.99a28.44,28.44,0,0,0-12.651-11.93Z" transform="translate(-356.253 -16.212)" fill="#455a64"/>
        <path id="Trazado_228015" data-name="Trazado 228015" d="M.048,0H6.329V40.388A2.982,2.982,0,0,1,3.346,43.37H2.982A2.982,2.982,0,0,1,0,40.388V0Z" transform="translate(43.993 57.257) rotate(-31.67)" fill="#455a64"/>
        <path id="Trazado_228016" data-name="Trazado 228016" d="M369.94,44.046a5.511,5.511,0,0,1,.167-.942,8.908,8.908,0,0,1,.28-1.086,14.656,14.656,0,0,1,.477-1.414l.3-.805c.113-.28.262-.555.4-.853a20.651,20.651,0,0,1,1-1.819,21.732,21.732,0,0,1,6.585-6.764,20.629,20.629,0,0,1,1.789-1.044c.286-.149.561-.3.835-.429l.8-.34a13.829,13.829,0,0,1,1.4-.513,8.532,8.532,0,0,1,1.08-.31,6.914,6.914,0,0,1,.936-.2,6.312,6.312,0,0,1-.907.3,9.622,9.622,0,0,0-1.056.358,13.884,13.884,0,0,0-1.366.549l-.781.352c-.274.125-.543.286-.823.435-.6.292-1.145.674-1.76,1.056a24.18,24.18,0,0,0-3.579,2.982,24.643,24.643,0,0,0-2.9,3.68,18.046,18.046,0,0,0-1.008,1.789c-.137.286-.292.555-.412.829l-.334.793c-.227.5-.364.972-.513,1.384a9.55,9.55,0,0,0-.322,1.068A6.107,6.107,0,0,1,369.94,44.046Z" transform="translate(-361.486 -20.779)" fill="#e0e0e0"/>
      </g>
    </g>
  </g>
</svg>
