<svg xmlns="http://www.w3.org/2000/svg" width="461.824" height="353.589" viewBox="0 0 461.824 353.589">
  <g id="Payment_Information-rafiki_2_" data-name="Payment Information-rafiki (2)" transform="translate(0)">
    <g id="freepik--background-complete--inject-149" transform="translate(0 0)">
      <rect id="Rectángulo_37708" data-name="Rectángulo 37708" width="30.591" height="0.231" transform="translate(384.958 317.264)" fill="#ebebeb"/>
      <rect id="Rectángulo_37709" data-name="Rectángulo 37709" width="8.027" height="0.231" transform="translate(297.904 319.776)" fill="#ebebeb"/>
      <rect id="Rectángulo_37710" data-name="Rectángulo 37710" width="17.725" height="0.231" transform="translate(366.31 308.692)" fill="#ebebeb"/>
      <rect id="Rectángulo_37711" data-name="Rectángulo 37711" width="39.892" height="0.231" transform="translate(48.455 310.244)" fill="#ebebeb"/>
      <rect id="Rectángulo_37712" data-name="Rectángulo 37712" width="5.847" height="0.231" transform="translate(96.577 310.244)" fill="#ebebeb"/>
      <rect id="Rectángulo_37713" data-name="Rectángulo 37713" width="86.527" height="0.231" transform="translate(121.432 314.142)" fill="#ebebeb"/>
      <path id="Trazado_230329" data-name="Trazado 230329" d="M221.822,316.208H43.484a5.274,5.274,0,0,1-5.274-5.274V60.228A5.274,5.274,0,0,1,43.484,55H221.822a5.274,5.274,0,0,1,5.274,5.274v250.66A5.274,5.274,0,0,1,221.822,316.208ZM43.484,55.185a5.052,5.052,0,0,0-5.043,5.043V310.934a5.052,5.052,0,0,0,5.043,5.043H221.822a5.053,5.053,0,0,0,5.043-5.043V60.228a5.052,5.052,0,0,0-5.043-5.043Z" transform="translate(-2.917 -55)" fill="#ebebeb"/>
      <path id="Trazado_230330" data-name="Trazado 230330" d="M438.13,316.208H259.774a5.283,5.283,0,0,1-5.274-5.274V60.228A5.283,5.283,0,0,1,259.774,55H438.13a5.274,5.274,0,0,1,5.256,5.228V310.934A5.274,5.274,0,0,1,438.13,316.208ZM259.774,55.185a5.052,5.052,0,0,0-5.043,5.043V310.934a5.052,5.052,0,0,0,5.043,5.043H438.13a5.052,5.052,0,0,0,5.043-5.043V60.228a5.052,5.052,0,0,0-5.043-5.043Z" transform="translate(-19.431 -55)" fill="#ebebeb"/>
      <rect id="Rectángulo_37714" data-name="Rectángulo 37714" width="461.824" height="0.231" transform="translate(0 302.402)" fill="#ebebeb"/>
      <rect id="Rectángulo_37715" data-name="Rectángulo 37715" width="39.486" height="48.602" transform="translate(205.613 129.828) rotate(180)" fill="#f5f5f5"/>
      <rect id="Rectángulo_37716" data-name="Rectángulo 37716" width="28.208" height="34.72" transform="translate(199.97 122.882) rotate(180)" fill="#ebebeb"/>
      <rect id="Rectángulo_37717" data-name="Rectángulo 37717" width="39.467" height="28.033" transform="translate(161.509 130.16) rotate(180)" fill="#f5f5f5"/>
      <rect id="Rectángulo_37718" data-name="Rectángulo 37718" width="33.455" height="22.214" transform="translate(158.507 127.242) rotate(180)" fill="#fafafa"/>
      <rect id="Rectángulo_37719" data-name="Rectángulo 37719" width="34.157" height="24.264" transform="translate(134.483 133.717)" fill="#f5f5f5"/>
      <rect id="Rectángulo_37720" data-name="Rectángulo 37720" width="21.743" height="14.437" transform="translate(140.69 138.63)" fill="#fafafa"/>
      <rect id="Rectángulo_37721" data-name="Rectángulo 37721" width="3.695" height="212.467" transform="translate(67.583 90.148)" fill="#f5f5f5"/>
      <path id="Trazado_230331" data-name="Trazado 230331" d="M59.527,124.84a4.387,4.387,0,0,0-8.664-1.321q-4.554,23.858-9.107,47.706c-.434,2.272,2.023,4.618,5.542,5.2s6.53-1.035,6.8-3.334Q56.756,148.957,59.527,124.84Z" transform="translate(-3.184 -59.963)" fill="#f5f5f5"/>
      <path id="Trazado_230332" data-name="Trazado 230332" d="M69.255,125.636a4.387,4.387,0,0,0-8.728-.656q-2.771,24.126-5.468,48.251c-.268,2.3,2.355,4.507,5.865,4.766s6.466-1.515,6.466-3.833Z" transform="translate(-4.202 -60.057)" fill="#fafafa"/>
      <path id="Trazado_230333" data-name="Trazado 230333" d="M79.024,125.655a4.378,4.378,0,0,0-8.747,0L68.43,174.183c-.083,2.318,2.688,4.313,6.207,4.313s6.281-2,6.2-4.313Z" transform="translate(-5.225 -60.076)" fill="#f5f5f5"/>
      <path id="Trazado_230334" data-name="Trazado 230334" d="M88.628,124.93a4.387,4.387,0,0,0-8.728.656l1.847,48.528c.083,2.318,3,4.1,6.512,3.833s6.124-2.466,5.865-4.766Q91.362,149.065,88.628,124.93Z" transform="translate(-6.1 -60.053)" fill="#fafafa"/>
      <path id="Trazado_230335" data-name="Trazado 230335" d="M98.022,123.525a4.4,4.4,0,0,0-8.673,1.321q2.771,24.126,5.477,48.251c.259,2.3,3.307,3.861,6.789,3.334s5.939-2.928,5.542-5.2Q102.566,147.374,98.022,123.525Z" transform="translate(-6.821 -59.969)" fill="#f5f5f5"/>
      <path id="Trazado_230336" data-name="Trazado 230336" d="M100.055,382.4c.1-2.854-1.681-5.773-5.348-5.773H51.138c-3.695,0-5.44,2.919-5.339,5.773Z" transform="translate(-3.497 -79.557)" fill="#ebebeb"/>
      <path id="Trazado_230337" data-name="Trazado 230337" d="M405.541,324.078c-.508-.924.268-2.069-.24-2.955s-1.848-.776-2.439-1.7c-.776-1.247.351-2.4-.369-3.639-.434-.748-1.644-.333-2.18-1.072s.3-1.847-.277-2.6-1.478-.425-2.115-1.191c-.859-1.053.12-3.39.12-3.39s2.494-.619,3.408.5c.665.822.148,1.644.748,2.42s1.847.231,2.485,1.09-.212,1.8.351,2.5c.924,1.164,2.448.61,3.3,1.967.619,1.007-.1,2.171.434,3.1s1.912.924,2.466,1.94-.083,1.93.342,2.771,1.561,1.025,1.986,1.977-.323,2.069.074,3.029,1.681,1.145,2.078,2.208-.573,2.161-.259,3.242c.249.868,1.376,1.118,1.653,2.06a3.029,3.029,0,0,1-1.912,3.907,3.085,3.085,0,0,1-3.593-2.281c-.268-.878.527-1.69.231-2.494-.379-1.007-1.764-1.136-2.161-2.2s.471-1.949.1-2.863-1.653-1.016-2.078-1.967.222-1.847-.175-2.642S405.993,324.919,405.541,324.078Z" transform="translate(-30.355 -74.269)" fill="#f0f0f0"/>
      <path id="Trazado_230338" data-name="Trazado 230338" d="M411.432,332.89c.582.231,1.154.471,1.727.721q-.924-2.66-2.051-5.237h0q-1.016-2.319-2.161-4.563c-.683-.185-1.358-.37-2.041-.536-.166,0-.092-.3.074-.249.6.139,1.2.3,1.847.462-.739-1.432-1.515-2.836-2.346-4.212h0q-1.395-2.337-2.965-4.618h0c-.462-.665-.924-1.321-1.422-1.977q-1.247-1.672-2.586-3.279c-.111-.139.092-.314.2-.176,1.358,1.635,2.641,3.325,3.861,5.052.139-.61.258-1.229.379-1.847a.139.139,0,0,1,.268.055c-.139.7-.277,1.4-.434,2.1.979,1.413,1.921,2.854,2.771,4.332.176-.6.342-1.21.508-1.847a.133.133,0,1,1,.259.065c-.185.693-.379,1.376-.573,2.06.859,1.45,1.681,2.928,2.448,4.434h0c.739,1.441,1.432,2.891,2.078,4.369.249-.573.5-1.146.73-1.727a.139.139,0,1,1,.259.1c-.277.665-.554,1.321-.841,1.967.776,1.792,1.478,3.621,2.124,5.468l.166.471c.444,1.321.859,2.651,1.238,4a.13.13,0,1,1-.249.074c-.425-1.487-.877-2.956-1.386-4.415-.646-.277-1.3-.554-1.949-.813A.121.121,0,1,1,411.432,332.89Z" transform="translate(-30.501 -74.407)" fill="#fff"/>
      <path id="Trazado_230339" data-name="Trazado 230339" d="M408.562,308.415c-.554-1.737,1.044-3.334.462-4.951s-2.845-1.8-3.528-3.491c-.924-2.291,1.275-3.87.453-6.115-.5-1.358-2.614-1.025-3.288-2.4s1.034-2.956.3-4.36-2.328-1.127-3.15-2.586c-1.108-1.986,1.182-5.542,1.182-5.542s4.286-.3,5.468,1.847c.868,1.543-.222,2.771.536,4.193s3,.924,3.778,2.522-.868,2.919-.148,4.239c1.182,2.18,3.861,1.718,4.858,4.2.748,1.847-.785,3.547-.166,5.246s2.891,2.032,3.491,3.907c.545,1.653-.693,3.159-.249,4.692s2.291,2.152,2.716,3.842c.471,1.847-1.136,3.316-.767,5.015s2.438,2.374,2.771,4.249c.369,2.023-1.561,3.39-1.367,5.265.157,1.506,1.949,2.235,2.134,3.879.342,3.039-1.635,5.69-4.277,5.884a5.163,5.163,0,0,1-5.274-4.8c-.175-1.524,1.367-2.632,1.1-4.046-.333-1.764-2.577-2.383-2.919-4.249s1.349-3.085,1-4.692-2.42-2.152-2.854-3.852c-.4-1.552.924-2.956.48-4.4S409.061,309.939,408.562,308.415Z" transform="translate(-30.503 -72.099)" fill="#f5f5f5"/>
      <path id="Trazado_230340" data-name="Trazado 230340" d="M415.77,324.615c.924.545,1.764,1.108,2.642,1.681q-.776-4.618-1.847-9.236a.128.128,0,0,1,0-.065c-.656-2.771-1.4-5.459-2.226-8.156-1.072-.508-2.152-1-3.224-1.469-.258-.12-.065-.517.194-.407.924.416,1.9.85,2.845,1.293q-1.21-3.852-2.642-7.62v-.065q-1.635-4.267-3.565-8.442v-.055q-.845-1.843-1.773-3.695-1.561-3.131-3.3-6.17a.222.222,0,1,1,.379-.222q2.651,4.618,4.9,9.449.591-1.45,1.164-2.937a.231.231,0,0,1,.425.166c-.434,1.118-.868,2.226-1.33,3.325,1.219,2.623,2.337,5.274,3.381,7.962.462-.924.924-1.847,1.358-2.845a.231.231,0,0,1,.416.194c-.508,1.09-1.025,2.161-1.561,3.224,1.007,2.642,1.93,5.32,2.771,8.017v.065q1.145,3.861,2.069,7.842c.582-.868,1.155-1.755,1.718-2.642.157-.249.545,0,.388.24-.637,1.016-1.293,2.014-1.958,3,.757,3.177,1.395,6.4,1.921,9.634a.192.192,0,0,1,0,.065c.046.277.083.545.129.813.351,2.318.647,4.618.924,6.973a.222.222,0,1,1-.443,0q-.388-3.851-1-7.676c-.988-.656-1.976-1.293-2.983-1.912C415.28,324.837,415.53,324.476,415.77,324.615Z" transform="translate(-30.757 -72.321)" fill="#fff"/>
      <path id="Trazado_230341" data-name="Trazado 230341" d="M431.311,306.595c.249-1.847-1.607-3.094-1.312-4.784s2.494-2.272,2.873-4.055c.508-2.42-1.921-3.593-1.5-5.948.258-1.422,2.392-1.469,2.817-2.937s-1.533-2.771-1.053-4.239,2.1-1.515,2.651-3.085c.757-2.152-2.124-5.255-2.124-5.255s-4.267.443-5.071,2.725c-.582,1.672.7,2.669.2,4.23s-2.771,1.432-3.288,3.131,1.358,2.771.924,4.147c-.785,2.355-3.5,2.364-4.064,4.988-.407,1.93,1.395,3.353,1.081,5.135s-2.494,2.494-2.771,4.452c-.24,1.727,1.238,2.993,1.062,4.618s-1.847,2.512-2.014,4.249c-.139,1.847,1.7,3.067,1.626,4.8s-1.995,2.771-2,4.674c0,2.06,2.124,3.067,2.254,4.951.111,1.506-1.524,2.531-1.422,4.184.185,3.057,2.586,5.32,5.228,5.052a5.163,5.163,0,0,0,4.369-5.634c-.092-1.533-1.847-2.364-1.792-3.8,0-1.8,2.134-2.771,2.143-4.692,0-1.755-1.847-2.771-1.847-4.452s2.023-2.54,2.152-4.286c.12-1.6-1.395-2.771-1.238-4.249S431.089,308.183,431.311,306.595Z" transform="translate(-32.018 -71.896)" fill="#f0f0f0"/>
      <path id="Trazado_230342" data-name="Trazado 230342" d="M427.449,323.788c-.767.683-1.543,1.395-2.3,2.106,0-3.14.046-6.272.231-9.4a.161.161,0,0,0,0-.065c.166-2.817.434-5.625.785-8.424.924-.684,1.93-1.348,2.909-2,.24-.157,0-.517-.259-.36-.868.573-1.727,1.164-2.577,1.764.351-2.669.776-5.33,1.284-7.962a.2.2,0,0,0,0-.074c.582-2.993,1.265-5.976,2.05-8.923a.22.22,0,0,0,0-.065c.351-1.312.721-2.623,1.118-3.926q1-3.353,2.189-6.65a.222.222,0,1,0-.416-.148q-1.8,5.015-3.2,10.16c-.554-.924-1.108-1.783-1.644-2.688a.231.231,0,0,0-.388.24c.61,1.025,1.238,2.041,1.847,3.048-.739,2.771-1.385,5.6-1.949,8.424-.619-.85-1.229-1.7-1.847-2.568a.225.225,0,1,0-.369.259c.683.988,1.376,1.958,2.087,2.91q-.8,4.165-1.339,8.377v.065c-.333,2.679-.591,5.357-.767,8.054-.72-.757-1.441-1.524-2.143-2.309a.232.232,0,0,0-.342.314c.8.924,1.626,1.755,2.448,2.614-.194,3.261-.268,6.539-.222,9.818a.1.1,0,0,0,0,.074v.822q.083,3.51.332,7.01a.222.222,0,1,0,.443,0q-.286-3.861-.342-7.731c.859-.822,1.727-1.625,2.6-2.4C427.975,323.917,427.661,323.594,427.449,323.788Z" transform="translate(-32.247 -72.14)" fill="#fff"/>
      <path id="Trazado_230343" data-name="Trazado 230343" d="M439.9,319.487c.8-1.192-.065-2.771.739-3.842s2.549-.748,3.436-1.847c1.2-1.533-.12-3.2,1-4.72.674-.924,2.2-.212,3.011-1.108s-.139-2.466.72-3.371,2.013-.342,2.946-1.265c1.284-1.265.323-4.461.323-4.461s-3.177-1.155-4.535.175c-1,.979-.434,2.134-1.33,3.066s-2.475,0-3.408,1.081,0,2.4-.813,3.242c-1.376,1.395-3.307.462-4.618,2.124-.924,1.219-.176,2.863-1.016,4.009s-2.632.924-3.5,2.2c-.767,1.136-.166,2.549-.831,3.611s-2.207,1.127-2.9,2.309.138,2.771-.517,3.972-2.365,1.265-3.039,2.614.443,2.909-.111,4.286c-.453,1.1-1.967,1.265-2.466,2.466a3.99,3.99,0,0,0,1.958,5.394,4.064,4.064,0,0,0,5.043-2.475c.462-1.118-.462-2.3.046-3.316.637-1.265,2.475-1.238,3.14-2.577s-.342-2.633.277-3.778,2.309-1.1,3-2.291,0-2.429.6-3.436S439.2,320.531,439.9,319.487Z" transform="translate(-32.265 -73.585)" fill="#f5f5f5"/>
      <path id="Trazado_230344" data-name="Trazado 230344" d="M431.4,330.249c-.785.222-1.57.453-2.355.7q1.589-3.353,3.417-6.586v-.046c1.1-1.93,2.254-3.833,3.473-5.69q1.385-.222,2.771-.416c.222,0,.157-.369-.065-.342-.8.111-1.616.222-2.429.351,1.164-1.764,2.392-3.5,3.695-5.191v-.046c1.45-1.921,2.965-3.787,4.544-5.616.7-.8,1.422-1.607,2.143-2.392,1.247-1.349,2.54-2.669,3.861-3.953a.176.176,0,0,0-.249-.249q-3,2.937-5.773,6.087c-.092-.822-.166-1.644-.231-2.475a.185.185,0,0,0-.36,0c.074.924.166,1.847.268,2.771q-2.235,2.577-4.295,5.292c-.148-.813-.277-1.635-.406-2.457a.178.178,0,1,0-.351.065q.208,1.386.471,2.771-2.014,2.669-3.852,5.468v.046c-1.164,1.773-2.281,3.593-3.334,5.44q-.369-1.182-.72-2.383c-.065-.212-.416-.12-.351.1.268.924.545,1.847.831,2.7-1.265,2.254-2.457,4.544-3.565,6.89a.073.073,0,0,0,0,.046l-.277.582c-.776,1.681-1.506,3.371-2.189,5.089a.175.175,0,1,0,.323.129q1.136-2.845,2.429-5.6c.923-.277,1.782-.545,2.678-.794C431.73,330.536,431.619,330.194,431.4,330.249Z" transform="translate(-32.529 -73.762)" fill="#fff"/>
      <path id="Trazado_230345" data-name="Trazado 230345" d="M408.806,337h24.181a19.581,19.581,0,0,1,6.936,14.972c0,6.854-6.345,27.432-6.345,27.432H408.215s-6.355-20.579-6.355-27.432A19.553,19.553,0,0,1,408.806,337Z" transform="translate(-30.683 -76.531)" fill="#f0f0f0"/>
    </g>
    <g id="freepik--Shadow--inject-149" transform="translate(47.374 319.647)">
      <ellipse id="freepik--path--inject-149" cx="179.086" cy="10.456" rx="179.086" ry="10.456" fill="#f5f5f5"/>
    </g>
    <g id="freepik--Screen--inject-149" transform="translate(249.08 27.367)">
      <path id="Trazado_230346" data-name="Trazado 230346" d="M297.574,270.284l-27.9-21.17,33.316-40.724Z" transform="translate(-269.67 -94.079)" fill="#0059d6"/>
      <path id="Trazado_230347" data-name="Trazado 230347" d="M302.986,208.39l-5.413,61.894-27.9-21.17Z" transform="translate(-269.67 -94.079)" fill="#fff" opacity="0.7"/>
      <path id="Trazado_230348" data-name="Trazado 230348" d="M375.53,89.578h14.483c.721,0,.813-1.108.1-1.108H375.631C374.911,88.47,374.818,89.578,375.53,89.578Z" transform="translate(-277.715 -84.923)" fill="#0059d6"/>
      <path id="Trazado_230349" data-name="Trazado 230349" d="M396.959,89.578h4.156c.721,0,.813-1.108.1-1.108h-4.166C396.34,88.47,396.239,89.578,396.959,89.578Z" transform="translate(-279.351 -84.923)" fill="#0059d6"/>
      <g id="Grupo_124232" data-name="Grupo 124232" transform="translate(97.326 3.547)" opacity="0.3">
        <path id="Trazado_230350" data-name="Trazado 230350" d="M375.53,89.578h14.483c.721,0,.813-1.108.1-1.108H375.631C374.911,88.47,374.818,89.578,375.53,89.578Z" transform="translate(-375.041 -88.47)" fill="#fff"/>
      </g>
      <g id="Grupo_124233" data-name="Grupo 124233" transform="translate(117.115 3.547)" opacity="0.3">
        <path id="Trazado_230351" data-name="Trazado 230351" d="M396.959,89.578h4.156c.721,0,.813-1.108.1-1.108h-4.166C396.34,88.47,396.239,89.578,396.959,89.578Z" transform="translate(-396.466 -88.47)" fill="#fff"/>
      </g>
      <path id="Trazado_230352" data-name="Trazado 230352" d="M413.627,291.629a6.373,6.373,0,0,1-6.207,5.708H293.368a5.154,5.154,0,0,1-5.2-5.708l17.6-201.3a6.373,6.373,0,0,1,6.253-5.7H426.1a5.154,5.154,0,0,1,5.2,5.7Z" transform="translate(-271.08 -84.629)" fill="#0059d6"/>
      <path id="Trazado_230353" data-name="Trazado 230353" d="M413.627,291.629a6.373,6.373,0,0,1-6.207,5.708H293.368a5.154,5.154,0,0,1-5.2-5.708l17.6-201.3a6.373,6.373,0,0,1,6.253-5.7H426.1a5.154,5.154,0,0,1,5.2,5.7Z" transform="translate(-271.08 -84.629)" fill="#fff" opacity="0.7"/>
      <path id="Trazado_230354" data-name="Trazado 230354" d="M413.627,291.629a6.373,6.373,0,0,1-6.207,5.708H293.368a5.154,5.154,0,0,1-5.2-5.708l17.6-201.3a6.373,6.373,0,0,1,6.253-5.7H426.1a5.154,5.154,0,0,1,5.2,5.7Z" transform="translate(-271.08 -84.629)" fill="#0059d6"/>
      <path id="Trazado_230355" data-name="Trazado 230355" d="M413.627,291.629a6.373,6.373,0,0,1-6.207,5.708H293.368a5.154,5.154,0,0,1-5.2-5.708l17.6-201.3a6.373,6.373,0,0,1,6.253-5.7H426.1a5.154,5.154,0,0,1,5.2,5.7Z" transform="translate(-271.08 -84.629)" fill="#fff" opacity="0.7"/>
      <path id="Trazado_230356" data-name="Trazado 230356" d="M438.191,84.63H435.91a5.154,5.154,0,0,1,5.2,5.7l-17.623,201.3a6.373,6.373,0,0,1-6.207,5.708h2.281a6.373,6.373,0,0,0,6.207-5.708l17.623-201.3a5.154,5.154,0,0,0-5.2-5.7Z" transform="translate(-280.94 -84.629)" fill="#0059d6"/>
      <path id="Trazado_230357" data-name="Trazado 230357" d="M438.191,84.63H435.91a5.154,5.154,0,0,1,5.2,5.7l-17.623,201.3a6.373,6.373,0,0,1-6.207,5.708h2.281a6.373,6.373,0,0,0,6.207-5.708l17.623-201.3a5.154,5.154,0,0,0-5.2-5.7Z" transform="translate(-280.94 -84.629)" fill="#fff" opacity="0.4"/>
      <path id="Trazado_230358" data-name="Trazado 230358" d="M349.136,259.715c-.563-.194-.924-.332-.868-.748a.813.813,0,0,1,.924-.7.924.924,0,0,1,.924.647v.074l.406-.212v-.055a1.385,1.385,0,0,0-2.651.258c-.065.739.545.924,1.191,1.164h0c.647.212.924.388.924.794s-.415.72-1,.72a.923.923,0,0,1-1.062-.748v-.092l-.406.231v.055a1.538,1.538,0,0,0,2.928-.175C350.466,260.168,349.811,259.937,349.136,259.715Z" transform="translate(-275.614 -97.854)" fill="#263238"/>
      <path id="Trazado_230359" data-name="Trazado 230359" d="M352.971,259.07a1.292,1.292,0,0,0-.988.425v-.37h-.425l-.268,2.993h.434l.129-1.57a1.025,1.025,0,0,1,1.025-1.062.646.646,0,0,1,.693.794l-.157,1.847h.434l.157-1.847a1.007,1.007,0,0,0-1.035-1.21Z" transform="translate(-275.902 -97.948)" fill="#263238"/>
      <path id="Trazado_230360" data-name="Trazado 230360" d="M356.66,259.07a1.662,1.662,0,0,0-1.681,1.552,1.367,1.367,0,0,0,1.432,1.561,1.625,1.625,0,0,0,1.358-.674l.046-.065-.36-.222v.065a1.118,1.118,0,0,1-.97.48.988.988,0,0,1-1.044-.923h2.577v-.074a.122.122,0,0,0,0-.055.233.233,0,0,0,0-.074,1.348,1.348,0,0,0-1.358-1.57Zm0,.416a.924.924,0,0,1,.924.924H355.45a1.192,1.192,0,0,1,1.173-.924Z" transform="translate(-276.182 -97.948)" fill="#263238"/>
      <path id="Trazado_230361" data-name="Trazado 230361" d="M361.618,259.606a1.321,1.321,0,0,0-1.108-.536,1.7,1.7,0,0,0-1.681,1.552,1.376,1.376,0,0,0,1.4,1.561,1.56,1.56,0,0,0,1.2-.545v.48h.434l.259-2.993h-.434Zm-1.321,2.171a1.025,1.025,0,0,1-1.044-1.145,1.256,1.256,0,0,1,1.238-1.136,1.016,1.016,0,0,1,1.035,1.136A1.247,1.247,0,0,1,360.3,261.776Z" transform="translate(-276.476 -97.948)" fill="#263238"/>
      <path id="Trazado_230362" data-name="Trazado 230362" d="M365.712,259.036H365.1l-1.45,1.21.2-2.346h-.425l-.36,4.129h.425l.111-1.311,1.284,1.293.018.019h.591l-1.524-1.552Z" transform="translate(-276.801 -97.859)" fill="#263238"/>
      <path id="Trazado_230363" data-name="Trazado 230363" d="M367.61,259.07a1.663,1.663,0,0,0-1.681,1.552,1.367,1.367,0,0,0,1.432,1.561,1.644,1.644,0,0,0,1.367-.674v-.065l-.351-.222-.046.065a1.117,1.117,0,0,1-.924.48.988.988,0,0,1-1.053-.924h2.577v-.074a.121.121,0,0,0,0-.055.237.237,0,0,0,0-.074,1.349,1.349,0,0,0-1.321-1.57Zm0,.416a.924.924,0,0,1,.924.924H366.4a1.192,1.192,0,0,1,1.173-.924Z" transform="translate(-277.018 -97.948)" fill="#263238"/>
      <path id="Trazado_230364" data-name="Trazado 230364" d="M370.493,259.5v-.369h-.425l-.268,2.993h.434l.139-1.653a.923.923,0,0,1,.97-.924h.065v-.416h-.065A1.117,1.117,0,0,0,370.493,259.5Z" transform="translate(-277.315 -97.953)" fill="#263238"/>
      <path id="Trazado_230365" data-name="Trazado 230365" d="M373.1,260.427c-.425-.111-.683-.2-.665-.48s.351-.462.656-.462a.6.6,0,0,1,.628.388v.074l.379-.212v-.055a.923.923,0,0,0-.979-.609,1.044,1.044,0,0,0-1.136.859c-.055.6.471.739.924.868s.7.2.674.49-.4.462-.7.462a.732.732,0,0,1-.73-.453v-.083l-.388.222v.055a1.026,1.026,0,0,0,1.09.674,1.062,1.062,0,0,0,1.164-.878C374.1,260.686,373.571,260.547,373.1,260.427Z" transform="translate(-277.465 -97.948)" fill="#263238"/>
      <path id="Trazado_230366" data-name="Trazado 230366" d="M350.506,273.661l-.065.8h-.6l.074-.794a2.06,2.06,0,0,1-2-1.478l1.321-.73a1.025,1.025,0,0,0,.8.767l.111-1.256-.12-.046c-.766-.323-1.672-.767-1.57-2a2.087,2.087,0,0,1,2.032-1.847l.065-.794h.637l-.065.813a1.931,1.931,0,0,1,1.681,1.321l-1.293.721a.794.794,0,0,0-.517-.591l-.111,1.228c.767.342,1.847.637,1.7,1.977A2.134,2.134,0,0,1,350.506,273.661Zm-.268-4.221.083-.924a.517.517,0,0,0-.443.453C349.841,269.116,349.934,269.264,350.238,269.44Zm.85,2.3c0-.231-.1-.369-.369-.508l-.083.979A.545.545,0,0,0,351.088,271.74Z" transform="translate(-275.645 -98.5)" fill="#263238"/>
      <path id="Trazado_230367" data-name="Trazado 230367" d="M359.563,267.23l-.554,6.392h-1.459l.425-4.849-1.164.314-.24-1.247,1.718-.61Z" transform="translate(-276.305 -98.571)" fill="#263238"/>
      <path id="Trazado_230368" data-name="Trazado 230368" d="M360.462,272.548l2.337-2.235a1.949,1.949,0,0,0,.748-1.127.573.573,0,0,0-.619-.674,1.145,1.145,0,0,0-1.007.693l-1.164-.72a2.512,2.512,0,0,1,2.272-1.395,1.848,1.848,0,0,1,1.986,2.032,3.168,3.168,0,0,1-1.173,2L362.7,272.2h2.143l-.129,1.4H360.37Z" transform="translate(-276.595 -98.56)" fill="#263238"/>
      <path id="Trazado_230369" data-name="Trazado 230369" d="M366.3,270.416c.175-1.967,1.247-3.316,2.891-3.316s2.485,1.348,2.318,3.316-1.247,3.325-2.9,3.325S366.132,272.392,366.3,270.416Zm3.741,0c.111-1.228-.2-1.893-.97-1.893s-1.2.665-1.312,1.893.212,1.9.979,1.9,1.2-.693,1.3-1.9Z" transform="translate(-277.046 -98.561)" fill="#263238"/>
      <path id="Trazado_230370" data-name="Trazado 230370" d="M356.267,112.306a2.134,2.134,0,0,1-2.125,1.921h-.84l-.148,1.755H351.87l.49-5.542h2.124a1.727,1.727,0,0,1,1.783,1.866Zm-1.275,0a.609.609,0,0,0-.619-.711h-.84l-.12,1.432h.841A.757.757,0,0,0,354.992,112.306Z" transform="translate(-275.946 -86.6)" fill="#263238"/>
      <path id="Trazado_230371" data-name="Trazado 230371" d="M360.113,115.108h-2.078l-.351.924h-1.4l2.392-5.542h1.635l1.4,5.542h-1.395Zm-.277-1.2-.48-2.05-.831,2.05Z" transform="translate(-276.283 -86.604)" fill="#263238"/>
      <path id="Trazado_230372" data-name="Trazado 230372" d="M365.2,113.835l-.185,2.143h-1.284l.194-2.143-1.579-3.445h1.45l.878,2.152,1.256-2.152h1.45Z" transform="translate(-276.746 -86.596)" fill="#263238"/>
      <path id="Trazado_230373" data-name="Trazado 230373" d="M373.588,115.982H372.3l.286-3.251-1.653,2.374h-.166l-1.247-2.374-.277,3.251H368l.489-5.542h1.284l1.293,2.485,1.736-2.485h1.284Z" transform="translate(-277.178 -86.6)" fill="#263238"/>
      <path id="Trazado_230374" data-name="Trazado 230374" d="M379.021,114.753l-.111,1.228H375.4l.49-5.542h3.473l-.111,1.228h-2.189l-.083.924h1.995l-.111,1.219h-1.986l-.083.988Z" transform="translate(-277.743 -86.6)" fill="#263238"/>
      <path id="Trazado_230375" data-name="Trazado 230375" d="M385.252,110.39l-.489,5.542h-.924l-1.847-3.03-.268,3.03H380.44l.489-5.542h.924l1.893,3.039.268-3.039Z" transform="translate(-278.127 -86.596)" fill="#263238"/>
      <path id="Trazado_230376" data-name="Trazado 230376" d="M390.456,111.618h-1.441l-.379,4.36h-1.284l.388-4.36H386.3l.111-1.228h4.156Z" transform="translate(-278.575 -86.596)" fill="#263238"/>
      <path id="Trazado_230377" data-name="Trazado 230377" d="M391,114.7l1.154-.637a1.053,1.053,0,0,0,1.108.767c.61,0,.776-.231.794-.453s-.277-.48-1.09-.711-1.589-.628-1.5-1.7a1.93,1.93,0,0,1,2.023-1.7,1.958,1.958,0,0,1,1.94,1.256l-1.136.637a.924.924,0,0,0-.924-.647c-.4,0-.609.194-.637.416s.1.434.924.7,1.746.545,1.644,1.727a2.309,2.309,0,0,1-4.341.342Z" transform="translate(-278.931 -86.587)" fill="#263238"/>
      <path id="Trazado_230378" data-name="Trazado 230378" d="M371.4,97.305V96.89a.656.656,0,0,0-.665-.73h-6.715a.813.813,0,0,0-.794.73v.416Z" transform="translate(-276.813 -85.51)" fill="#0059d6"/>
      <path id="Trazado_230379" data-name="Trazado 230379" d="M363.127,98.32l-.277,3.168a.656.656,0,0,0,.665.73h6.715a.813.813,0,0,0,.794-.73l.277-3.168Z" transform="translate(-276.784 -85.675)" fill="#0059d6"/>
      <path id="Trazado_230380" data-name="Trazado 230380" d="M385.736,102c-4.951,2.124-6.964-2.115-11.906,0l.508-5.893c4.951-2.124,6.964,2.124,11.906,0Z" transform="translate(-277.623 -85.459)" fill="#0059d6"/>
      <path id="Trazado_230381" data-name="Trazado 230381" d="M382.151,99.206a1.94,1.94,0,0,1-1.9,1.746,1.57,1.57,0,0,1-1.589-1.746,1.949,1.949,0,0,1,1.9-1.746,1.58,1.58,0,0,1,1.589,1.746Z" transform="translate(-277.991 -85.609)" fill="#fff"/>
      <path id="Trazado_230382" data-name="Trazado 230382" d="M420.022,146.342a6.355,6.355,0,0,1-6.2,5.708H317.968a5.154,5.154,0,0,1-5.2-5.708l.517-5.884a6.355,6.355,0,0,1,6.2-5.7h95.856a5.154,5.154,0,0,1,5.2,5.7Z" transform="translate(-272.958 -88.457)" fill="#fff"/>
      <path id="Trazado_230383" data-name="Trazado 230383" d="M416.658,184.822a6.373,6.373,0,0,1-6.207,5.708H314.567a5.163,5.163,0,0,1-5.209-5.708l.517-5.884a6.373,6.373,0,0,1,6.207-5.7h95.884a5.154,5.154,0,0,1,5.2,5.7Z" transform="translate(-272.698 -91.395)" fill="#fff"/>
      <path id="Trazado_230384" data-name="Trazado 230384" d="M413.9,216.292a6.355,6.355,0,0,1-6.2,5.7H311.857a5.154,5.154,0,0,1-5.21-5.7l.517-5.884a6.373,6.373,0,0,1,6.2-5.708h95.856a5.154,5.154,0,0,1,5.2,5.708Z" transform="translate(-272.491 -93.797)" fill="#fff"/>
      <path id="Trazado_230385" data-name="Trazado 230385" d="M315.572,127.078h2.189l.046-.49h-2.189l.148-1.718h2.365l.037-.48H315.3l-.434,4.932h2.9l.046-.489h-2.392Z" transform="translate(-273.121 -87.665)" fill="#263238"/>
      <path id="Trazado_230386" data-name="Trazado 230386" d="M322.863,125.79a1.459,1.459,0,0,0-1.192.61,1.053,1.053,0,0,0-1.025-.61,1.413,1.413,0,0,0-1.071.49v-.416h-.48l-.314,3.565h.48l.176-1.986c.083-.868.619-1.182,1.1-1.182s.767.333.72.924l-.194,2.244h.48l.176-1.986c.065-.748.452-1.182,1.053-1.182s.813.342.757.924l-.194,2.244h.489l.194-2.244a1.155,1.155,0,0,0-1.154-1.395Z" transform="translate(-273.42 -87.772)" fill="#263238"/>
      <path id="Trazado_230387" data-name="Trazado 230387" d="M328.653,126.464a1.543,1.543,0,0,0-1.339-.674,2.032,2.032,0,0,0-2,1.847,1.653,1.653,0,0,0,1.681,1.847,1.847,1.847,0,0,0,1.459-.684l-.055.61h.5l.3-3.565h-.48Zm-1.589,2.568a1.238,1.238,0,0,1-1.265-1.385,1.533,1.533,0,0,1,1.506-1.385,1.228,1.228,0,0,1,1.247,1.385A1.515,1.515,0,0,1,327.064,129.032Z" transform="translate(-273.917 -87.772)" fill="#263238"/>
      <path id="Trazado_230388" data-name="Trazado 230388" d="M330.34,129.435h.489l.3-3.565h-.48Z" transform="translate(-274.302 -87.778)" fill="#263238"/>
      <path id="Trazado_230389" data-name="Trazado 230389" d="M331.039,124.39a.379.379,0,0,0-.369.342.305.305,0,0,0,.314.342.379.379,0,0,0,.369-.342.314.314,0,0,0-.314-.342Z" transform="translate(-274.327 -87.665)" fill="#263238"/>
      <path id="Trazado_230390" data-name="Trazado 230390" d="M332.453,124.17l-.443,5.135h.48l.452-5.135Z" transform="translate(-274.43 -87.648)" fill="#263238"/>
      <path id="Trazado_230391" data-name="Trazado 230391" d="M313.763,161.44h-1.7l-.434,4.932h.508l.157-1.847h1.2a1.681,1.681,0,0,0,1.69-1.552,1.367,1.367,0,0,0-1.422-1.533Zm-.231,2.623h-1.191l.185-2.143h1.191a.924.924,0,0,1,.97,1.071A1.146,1.146,0,0,1,313.533,164.063Z" transform="translate(-272.874 -90.494)" fill="#263238"/>
      <path id="Trazado_230392" data-name="Trazado 230392" d="M319.183,163.514a1.542,1.542,0,0,0-1.339-.674,2.032,2.032,0,0,0-2,1.847,1.653,1.653,0,0,0,1.681,1.847,1.893,1.893,0,0,0,1.459-.683l-.056.61h.49l.314-3.565h-.489Zm-1.6,2.568a1.238,1.238,0,0,1-1.256-1.385,1.524,1.524,0,0,1,1.5-1.386,1.237,1.237,0,0,1,1.256,1.386A1.515,1.515,0,0,1,317.585,166.082Z" transform="translate(-273.194 -90.601)" fill="#263238"/>
      <path id="Trazado_230393" data-name="Trazado 230393" d="M322.25,164.465c-.453-.111-.84-.212-.813-.582a.859.859,0,0,1,1.57-.1v.083l.434-.24v-.055a1.136,1.136,0,0,0-1.164-.73,1.228,1.228,0,0,0-1.3,1.072c-.065.711.554.877,1.108,1.025s.85.222.822.6-.49.573-.859.573a.831.831,0,0,1-.924-.554v-.083l-.443.249v.055a1.238,1.238,0,0,0,1.293.8,1.256,1.256,0,0,0,1.385-1.044C323.432,164.779,322.823,164.613,322.25,164.465Z" transform="translate(-273.565 -90.601)" fill="#263238"/>
      <path id="Trazado_230394" data-name="Trazado 230394" d="M325.808,164.465c-.453-.111-.841-.212-.813-.582a.859.859,0,0,1,1.57-.1v.083l.434-.24v-.055a1.154,1.154,0,0,0-1.164-.73,1.238,1.238,0,0,0-1.33,1.044c-.065.711.563.877,1.108,1.025s.859.222.822.6-.489.573-.859.573a.831.831,0,0,1-.924-.554v-.083l-.443.249v.055a1.238,1.238,0,0,0,1.293.8,1.256,1.256,0,0,0,1.386-1.044C326.99,164.779,326.362,164.613,325.808,164.465Z" transform="translate(-273.834 -90.601)" fill="#263238"/>
      <path id="Trazado_230395" data-name="Trazado 230395" d="M331.26,165.728l-.656-2.808h-.462L329,165.728l-.6-2.762-.018-.046h-.508l.8,3.51.009.055h.48l1.136-2.762.646,2.706.018.055h.48l1.432-3.565h-.508Z" transform="translate(-274.114 -90.607)" fill="#263238"/>
      <path id="Trazado_230396" data-name="Trazado 230396" d="M335.571,162.84a2.051,2.051,0,0,0-2.032,1.847,1.663,1.663,0,0,0,1.709,1.847,2.041,2.041,0,0,0,2.023-1.847,1.662,1.662,0,0,0-1.7-1.847Zm-.286,3.242a1.237,1.237,0,0,1-1.256-1.385,1.524,1.524,0,0,1,1.5-1.386,1.237,1.237,0,0,1,1.256,1.386A1.524,1.524,0,0,1,335.285,166.082Z" transform="translate(-274.546 -90.601)" fill="#263238"/>
      <path id="Trazado_230397" data-name="Trazado 230397" d="M339.087,163.378l.046-.462h-.49l-.314,3.565h.49l.166-1.977a1.154,1.154,0,0,1,1.173-1.164h.074l.046-.471h-.074A1.368,1.368,0,0,0,339.087,163.378Z" transform="translate(-274.912 -90.603)" fill="#263238"/>
      <path id="Trazado_230398" data-name="Trazado 230398" d="M344.058,161.438l-.176,1.986a1.533,1.533,0,0,0-1.339-.693,2.032,2.032,0,0,0-2,1.847,1.654,1.654,0,0,0,1.681,1.847,1.847,1.847,0,0,0,1.459-.693l-.055.619h.49l.425-4.932Zm-1.774,4.535a1.229,1.229,0,0,1-1.256-1.385,1.515,1.515,0,0,1,1.5-1.385,1.238,1.238,0,0,1,1.256,1.385A1.524,1.524,0,0,1,342.285,165.974Z" transform="translate(-275.08 -90.492)" fill="#263238"/>
      <path id="Trazado_230399" data-name="Trazado 230399" d="M327.292,214.679a1.728,1.728,0,0,1-1.46.8,1.506,1.506,0,0,1-1.552-1.7,1.847,1.847,0,0,1,1.847-1.7,1.413,1.413,0,0,1,1.312.785v.065l.406-.222v-.065a1.848,1.848,0,0,0-1.681-1,2.337,2.337,0,0,0-2.337,2.134,1.847,1.847,0,0,0,1.958,2.124,2.245,2.245,0,0,0,1.847-1.007v-.065l-.37-.222Z" transform="translate(-273.803 -94.328)" fill="#263238"/>
      <path id="Trazado_230400" data-name="Trazado 230400" d="M331.4,213.435a1.311,1.311,0,0,0-1.108-.545,1.7,1.7,0,0,0-1.681,1.561A1.385,1.385,0,0,0,330.022,216a1.607,1.607,0,0,0,1.2-.536l-.046.48h.434l.259-2.993h-.434Zm-1.321,2.152a1.016,1.016,0,0,1-1.035-1.136,1.256,1.256,0,0,1,1.238-1.145,1.016,1.016,0,0,1,1.025,1.145A1.247,1.247,0,0,1,330.078,215.587Z" transform="translate(-274.169 -94.422)" fill="#263238"/>
      <path id="Trazado_230401" data-name="Trazado 230401" d="M333.5,213.319v-.36h-.425l-.259,2.993h.425l.148-1.663a.924.924,0,0,1,.924-.924h.074v-.416h-.074A1.136,1.136,0,0,0,333.5,213.319Z" transform="translate(-274.492 -94.427)" fill="#263238"/>
      <path id="Trazado_230402" data-name="Trazado 230402" d="M337.677,211.72l-.138,1.635a1.284,1.284,0,0,0-1.108-.554,1.7,1.7,0,0,0-1.681,1.561,1.376,1.376,0,0,0,1.4,1.552,1.57,1.57,0,0,0,1.21-.545l-.046.49h.434l.36-4.138Zm-1.469,3.778a1.016,1.016,0,0,1-1.034-1.136,1.256,1.256,0,0,1,1.238-1.145,1.016,1.016,0,0,1,1.034,1.145A1.256,1.256,0,0,1,336.208,215.5Z" transform="translate(-274.638 -94.333)" fill="#263238"/>
      <path id="Trazado_230403" data-name="Trazado 230403" d="M323.382,142.28a1.459,1.459,0,0,0-1.191.61,1.035,1.035,0,0,0-1.016-.61,1.367,1.367,0,0,0-1.071.49v-.416h-.49l-.314,3.565h.49l.175-1.986c.074-.878.61-1.182,1.09-1.182s.776.332.72.924l-.194,2.244h.49l.166-1.986c.064-.748.452-1.182,1.062-1.182s.8.342.757.924l-.194,2.244h.48l.194-2.244a1.145,1.145,0,0,0-1.155-1.395Z" transform="translate(-273.459 -89.031)" fill="#263238"/>
      <path id="Trazado_230404" data-name="Trazado 230404" d="M327.158,145.287l-1.071-2.928h-.527l1.293,3.556-.074.148c-.157.3-.5.8-1.016.757h-.074l-.046.462h.157a1.718,1.718,0,0,0,1.432-1.1l1.847-3.833h-.517Z" transform="translate(-273.937 -89.037)" fill="#263238"/>
      <path id="Trazado_230405" data-name="Trazado 230405" d="M331.473,142.28a2,2,0,0,0-2,1.847,1.635,1.635,0,0,0,1.709,1.847,1.912,1.912,0,0,0,1.626-.813l.046-.055-.406-.259-.046.065a1.349,1.349,0,0,1-1.173.591,1.182,1.182,0,0,1-1.265-1.136h3.085v-.148a.371.371,0,0,0,0-.092,1.607,1.607,0,0,0-1.57-1.847Zm0,.471a1.127,1.127,0,0,1,1.155,1.155h-2.669a1.45,1.45,0,0,1,1.478-1.155Z" transform="translate(-274.235 -89.031)" fill="#263238"/>
      <path id="Trazado_230406" data-name="Trazado 230406" d="M338.143,142.28a1.46,1.46,0,0,0-1.191.61,1.053,1.053,0,0,0-1.025-.61,1.386,1.386,0,0,0-1.071.489v-.416h-.48l-.314,3.565h.48l.176-1.986c.083-.878.619-1.182,1.1-1.182s.767.332.72.924l-.194,2.244h.48l.175-1.986c.065-.748.453-1.182,1.053-1.182s.813.342.757.924l-.194,2.244h.489l.194-2.244a1.155,1.155,0,0,0-1.155-1.395Z" transform="translate(-274.586 -89.031)" fill="#263238"/>
      <path id="Trazado_230407" data-name="Trazado 230407" d="M343.933,142.944a1.543,1.543,0,0,0-1.339-.674,2.032,2.032,0,0,0-2,1.847,1.653,1.653,0,0,0,1.681,1.847,1.894,1.894,0,0,0,1.459-.684l-.055.61h.489l.314-3.565h-.489Zm-1.6,2.568a1.237,1.237,0,0,1-1.256-1.385,1.533,1.533,0,0,1,1.505-1.385,1.228,1.228,0,0,1,1.247,1.385,1.515,1.515,0,0,1-1.5,1.395Z" transform="translate(-275.084 -89.03)" fill="#263238"/>
      <path id="Trazado_230408" data-name="Trazado 230408" d="M345.62,145.925h.489l.3-3.565h-.48Z" transform="translate(-275.469 -89.037)" fill="#263238"/>
      <path id="Trazado_230409" data-name="Trazado 230409" d="M346.319,140.88a.37.37,0,0,0-.37.333.314.314,0,0,0,.314.351.388.388,0,0,0,.369-.351.305.305,0,0,0-.314-.333Z" transform="translate(-275.494 -88.924)" fill="#263238"/>
      <path id="Trazado_230410" data-name="Trazado 230410" d="M347.29,145.8h.48l.453-5.135h-.489Z" transform="translate(-275.597 -88.907)" fill="#263238"/>
      <path id="Trazado_230411" data-name="Trazado 230411" d="M351.77,141.53A2.771,2.771,0,0,0,349,144.079a2.309,2.309,0,0,0,2.466,2.54,3.611,3.611,0,0,0,1.228-.185h.055v-.323h-.092a3.086,3.086,0,0,1-1.155.194,2.013,2.013,0,0,1-2.171-2.235,2.466,2.466,0,0,1,2.438-2.235,1.847,1.847,0,0,1,1.949,2.1c-.065.73-.342,1.164-.748,1.164s-.36-.3-.333-.545l.139-1.6h-.471v.24a.923.923,0,0,0-.7-.3,1.284,1.284,0,0,0-1.284,1.173,1.035,1.035,0,0,0,1.071,1.164,1.145,1.145,0,0,0,.822-.342.656.656,0,0,0,.7.536c.48,0,1.062-.388,1.164-1.5a2.18,2.18,0,0,0-2.309-2.4Zm.407,2.549a.767.767,0,0,1-.785.7.619.619,0,0,1-.656-.7.767.767,0,0,1,.785-.711.619.619,0,0,1,.628.711Z" transform="translate(-275.726 -88.973)" fill="#263238"/>
      <path id="Trazado_230412" data-name="Trazado 230412" d="M357.133,142.28a1.976,1.976,0,0,0-2,1.847,1.635,1.635,0,0,0,1.709,1.847,1.94,1.94,0,0,0,1.626-.813v-.055l-.406-.259v.065a1.358,1.358,0,0,1-1.173.591,1.182,1.182,0,0,1-1.266-1.136H358.7v-.074a.179.179,0,0,1,0-.074v-.092a1.607,1.607,0,0,0-1.57-1.847Zm0,.471a1.118,1.118,0,0,1,1.108,1.118h-2.586a1.45,1.45,0,0,1,1.441-1.118Z" transform="translate(-276.194 -89.031)" fill="#263238"/>
      <path id="Trazado_230413" data-name="Trazado 230413" d="M363.793,142.28a1.441,1.441,0,0,0-1.182.61,1.062,1.062,0,0,0-1.025-.61,1.367,1.367,0,0,0-1.071.49v-.416h-.49l-.3,3.565h.48l.175-1.986c.074-.878.61-1.182,1.09-1.182s.776.333.73.924l-.2,2.244h.49l.176-1.986c.065-.748.443-1.182,1.053-1.182s.813.342.757.924l-.194,2.244h.48l.2-2.244a1.154,1.154,0,0,0-1.164-1.395Z" transform="translate(-276.545 -89.031)" fill="#263238"/>
      <path id="Trazado_230414" data-name="Trazado 230414" d="M369.592,142.944a1.542,1.542,0,0,0-1.339-.674,2.032,2.032,0,0,0-2,1.847,1.653,1.653,0,0,0,1.681,1.847,1.894,1.894,0,0,0,1.459-.684l-.055.61h.49l.314-3.565h-.49Zm-1.6,2.568a1.238,1.238,0,0,1-1.256-1.385,1.524,1.524,0,0,1,1.5-1.385,1.238,1.238,0,0,1,1.256,1.385,1.524,1.524,0,0,1-1.5,1.395Z" transform="translate(-277.043 -89.03)" fill="#263238"/>
      <path id="Trazado_230415" data-name="Trazado 230415" d="M371.969,140.88a.388.388,0,0,0-.379.333.314.314,0,0,0,.314.351.388.388,0,0,0,.379-.351.3.3,0,0,0-.314-.333Z" transform="translate(-277.451 -88.924)" fill="#263238"/>
      <path id="Trazado_230416" data-name="Trazado 230416" d="M371.28,145.925h.48l.314-3.565h-.48Z" transform="translate(-277.428 -89.037)" fill="#263238"/>
      <path id="Trazado_230417" data-name="Trazado 230417" d="M372.94,145.8h.49l.443-5.135h-.48Z" transform="translate(-277.555 -88.907)" fill="#263238"/>
      <path id="Trazado_230418" data-name="Trazado 230418" d="M374.966,145.47a.416.416,0,0,0-.406.379.333.333,0,0,0,.342.379.425.425,0,0,0,.416-.379.341.341,0,0,0-.351-.379Z" transform="translate(-277.678 -89.275)" fill="#263238"/>
      <path id="Trazado_230419" data-name="Trazado 230419" d="M379.123,144.847a1.441,1.441,0,0,1-1.219.674,1.238,1.238,0,0,1-1.265-1.385,1.506,1.506,0,0,1,1.506-1.385,1.1,1.1,0,0,1,1.09.665v.074l.425-.24v-.055a1.506,1.506,0,0,0-1.478-.924,2.023,2.023,0,0,0-2.032,1.847,1.653,1.653,0,0,0,1.709,1.847,1.949,1.949,0,0,0,1.663-.924v-.055l-.388-.24Z" transform="translate(-277.799 -89.03)" fill="#263238"/>
      <path id="Trazado_230420" data-name="Trazado 230420" d="M382.481,142.28a2.051,2.051,0,0,0-2.032,1.847,1.663,1.663,0,0,0,1.709,1.847,2.051,2.051,0,0,0,2.023-1.847,1.663,1.663,0,0,0-1.7-1.847Zm-.286,3.242a1.238,1.238,0,0,1-1.256-1.386,1.524,1.524,0,0,1,1.5-1.385,1.238,1.238,0,0,1,1.256,1.385A1.524,1.524,0,0,1,382.195,145.522Z" transform="translate(-278.127 -89.031)" fill="#263238"/>
      <path id="Trazado_230421" data-name="Trazado 230421" d="M389.282,142.28a1.459,1.459,0,0,0-1.191.61,1.034,1.034,0,0,0-1.016-.61,1.357,1.357,0,0,0-1.071.49v-.416h-.49l-.314,3.565h.49l.176-1.986c.074-.878.61-1.182,1.09-1.182s.776.332.721.924l-.194,2.244h.48l.175-1.986c.065-.748.453-1.182,1.062-1.182s.8.342.757.924l-.194,2.244h.48l.194-2.244a1.145,1.145,0,0,0-1.155-1.395Z" transform="translate(-278.491 -89.031)" fill="#263238"/>
      <path id="Trazado_230422" data-name="Trazado 230422" d="M354.534,213.336h-.443l-.1,1.256h-1.626l1.755-2.873h-.49l-1.792,2.91-.037.388h2.143l-.065.841h.443l.074-.841h.508l.037-.425h-.508Z" transform="translate(-275.941 -94.333)" fill="#263238"/>
      <path id="Trazado_230423" data-name="Trazado 230423" d="M357.19,213.345h-.674l.185-1.191h1.847v-.434H356.3l-.323,2.106h1.145a.822.822,0,0,1,.924.85.924.924,0,0,1-1.025.859.813.813,0,0,1-.877-.619v-.083l-.406.222v.056a1.2,1.2,0,0,0,1.256.85,1.441,1.441,0,0,0,1.515-1.284,1.164,1.164,0,0,0-1.321-1.33Z" transform="translate(-276.242 -94.333)" fill="#263238"/>
      <path id="Trazado_230424" data-name="Trazado 230424" d="M360.732,213.345h-.674l.185-1.191h1.847v-.434h-2.254l-.323,2.06h1.145c.573,0,.924.332.877.85a.923.923,0,0,1-1.025.859.813.813,0,0,1-.924-.619v-.083l-.406.222v.055a1.2,1.2,0,0,0,1.247.85,1.423,1.423,0,0,0,1.515-1.284,1.164,1.164,0,0,0-1.21-1.284Z" transform="translate(-276.504 -94.333)" fill="#263238"/>
      <path id="Trazado_230425" data-name="Trazado 230425" d="M364.275,213.345H363.6l.185-1.191h1.847v-.434h-2.245l-.332,2.06H364.2c.582,0,.924.332.877.85a.923.923,0,0,1-1.025.859.813.813,0,0,1-.878-.619v-.083l-.406.222v.055a1.2,1.2,0,0,0,1.256.85,1.441,1.441,0,0,0,1.515-1.284,1.164,1.164,0,0,0-1.265-1.284Z" transform="translate(-276.778 -94.333)" fill="#263238"/>
      <path id="Trazado_230426" data-name="Trazado 230426" d="M370.015,211.65c-.924,0-1.635.822-1.746,2.134s.406,2.124,1.376,2.124,1.635-.813,1.755-2.124S370.984,211.65,370.015,211.65Zm-.333,3.833c-.693,0-1.062-.637-.97-1.7s.573-1.7,1.265-1.7,1.062.637.97,1.7S370.384,215.483,369.682,215.483Z" transform="translate(-277.197 -94.328)" fill="#263238"/>
      <path id="Trazado_230427" data-name="Trazado 230427" d="M374.164,211.65c-.924,0-1.635.822-1.746,2.134s.416,2.124,1.376,2.124,1.635-.813,1.755-2.124S375.134,211.65,374.164,211.65Zm-.286,3.833c-.693,0-1.053-.637-.924-1.7s.563-1.7,1.256-1.7,1.062.637.97,1.7S374.534,215.483,373.878,215.483Z" transform="translate(-277.514 -94.328)" fill="#263238"/>
      <path id="Trazado_230428" data-name="Trazado 230428" d="M378.324,211.65c-.97,0-1.635.822-1.755,2.134s.415,2.124,1.376,2.124,1.635-.813,1.755-2.124S379.284,211.65,378.324,211.65Zm-.342,3.833c-.693,0-1.053-.637-.924-1.7s.564-1.7,1.266-1.7,1.053.637.924,1.7S378.684,215.483,377.982,215.483Z" transform="translate(-277.831 -94.328)" fill="#263238"/>
      <path id="Trazado_230429" data-name="Trazado 230429" d="M382.474,211.65c-.97,0-1.635.822-1.755,2.134s.416,2.124,1.386,2.124,1.635-.813,1.746-2.124S383.434,211.65,382.474,211.65Zm-.333,3.833c-.7,0-1.062-.637-.97-1.7s.563-1.7,1.266-1.7,1.053.637.923,1.7S382.825,215.483,382.141,215.483Z" transform="translate(-278.148 -94.328)" fill="#263238"/>
      <path id="Trazado_230430" data-name="Trazado 230430" d="M388.664,213.708a1.163,1.163,0,0,0,.582-.924,1.053,1.053,0,0,0-1.164-1.155,1.293,1.293,0,0,0-1.367,1.155.924.924,0,0,0,.425.924,1.238,1.238,0,0,0-.72,1.007c-.065.711.453,1.191,1.293,1.191a1.367,1.367,0,0,0,1.5-1.191,1.007,1.007,0,0,0-.545-1.007Zm-.924,1.773c-.591,0-.923-.286-.877-.767s.416-.767,1.007-.767.924.286.878.767-.406.767-1,.767Zm.166-1.967c-.489,0-.794-.286-.748-.711a.8.8,0,0,1,.877-.72c.4,0,.8.194.757.72a.813.813,0,0,1-.915.711Z" transform="translate(-278.584 -94.326)" fill="#263238"/>
      <path id="Trazado_230431" data-name="Trazado 230431" d="M392.354,213.708a1.154,1.154,0,0,0,.573-.924,1.053,1.053,0,0,0-1.155-1.155,1.293,1.293,0,0,0-1.367,1.155.924.924,0,0,0,.416.924,1.229,1.229,0,0,0-.711,1.007c-.065.711.452,1.191,1.284,1.191a1.367,1.367,0,0,0,1.5-1.191A.988.988,0,0,0,392.354,213.708Zm-.924,1.773c-.591,0-.924-.286-.924-.767s.425-.767,1.016-.767.924.286.878.767S392.021,215.481,391.43,215.481Zm.176-1.967c-.49,0-.794-.286-.757-.711a.8.8,0,0,1,.877-.72c.4,0,.8.194.757.72a.8.8,0,0,1-.878.711Z" transform="translate(-278.865 -94.326)" fill="#263238"/>
      <path id="Trazado_230432" data-name="Trazado 230432" d="M396.043,213.708a1.173,1.173,0,0,0,.573-.924,1.053,1.053,0,0,0-1.164-1.155,1.284,1.284,0,0,0-1.358,1.155.924.924,0,0,0,.416.924,1.238,1.238,0,0,0-.72,1.007c-.065.711.453,1.191,1.293,1.191a1.367,1.367,0,0,0,1.5-1.191A1.016,1.016,0,0,0,396.043,213.708Zm-.924,1.773c-.591,0-.924-.286-.924-.767s.416-.767,1.007-.767.924.286.877.767S395.711,215.481,395.12,215.481Zm.176-1.967c-.489,0-.794-.286-.757-.711a.8.8,0,0,1,.877-.72c.4,0,.8.194.757.72A.813.813,0,0,1,395.3,213.514Z" transform="translate(-279.146 -94.326)" fill="#263238"/>
      <path id="Trazado_230433" data-name="Trazado 230433" d="M399.724,213.708a1.191,1.191,0,0,0,.582-.924,1.053,1.053,0,0,0-1.164-1.155,1.293,1.293,0,0,0-1.367,1.155.924.924,0,0,0,.415.924,1.247,1.247,0,0,0-.711,1.007c-.065.711.452,1.191,1.284,1.191a1.376,1.376,0,0,0,1.505-1.164A1.007,1.007,0,0,0,399.724,213.708Zm-.924,1.773c-.582,0-.924-.286-.868-.767s.416-.767,1.007-.767.924.286.878.767S399.391,215.481,398.8,215.481Zm.175-1.967c-.49,0-.794-.286-.757-.711a.8.8,0,0,1,.924-.72c.388,0,.794.194.748.72a.8.8,0,0,1-.914.711Z" transform="translate(-279.428 -94.326)" fill="#263238"/>
      <path id="Trazado_230434" data-name="Trazado 230434" d="M405.453,213.336h-.443l-.111,1.256h-1.626l1.764-2.873h-.49l-1.792,2.91-.046.388h2.152l-.074.841h.443l.074-.841h.508l.046-.425h-.517Z" transform="translate(-279.828 -94.333)" fill="#263238"/>
      <path id="Trazado_230435" data-name="Trazado 230435" d="M409.313,213.336h-.443l-.111,1.256h-1.626l1.764-2.873h-.489l-1.792,2.91-.046.388h2.152l-.074.841h.444l.074-.841h.517l.037-.425H409.2Z" transform="translate(-280.122 -94.333)" fill="#263238"/>
      <path id="Trazado_230436" data-name="Trazado 230436" d="M413.174,213.336h-.443l-.111,1.256h-1.626l1.764-2.873h-.49l-1.792,2.91-.037.388h2.143l-.074.841h.443l.074-.841h.517l.037-.425h-.517Z" transform="translate(-280.418 -94.333)" fill="#263238"/>
      <path id="Trazado_230437" data-name="Trazado 230437" d="M416.923,214.592l.111-1.256h-.443l-.111,1.256h-1.617l1.755-2.873h-.49l-1.792,2.91-.037.388h2.143l-.074.841h.443l.083-.841h.508l.037-.425Z" transform="translate(-280.713 -94.333)" fill="#263238"/>
      <path id="Trazado_230438" data-name="Trazado 230438" d="M371.7,229.79A6.373,6.373,0,0,0,365.5,235.5l-.508,5.884a5.154,5.154,0,0,0,5.2,5.708h39.939a6.373,6.373,0,0,0,6.207-5.708l.517-5.884a5.163,5.163,0,0,0-5.209-5.708Z" transform="translate(-276.945 -95.713)" fill="#fff"/>
      <path id="Trazado_230439" data-name="Trazado 230439" d="M356.31,235.528a5.154,5.154,0,0,0-5.2-5.708H311.172a6.373,6.373,0,0,0-6.216,5.708l-.508,5.884a5.154,5.154,0,0,0,5.2,5.708h39.939a6.373,6.373,0,0,0,6.207-5.708Z" transform="translate(-272.323 -95.715)" fill="#fff"/>
      <path id="Trazado_230440" data-name="Trazado 230440" d="M308.261,198.567H415.525a.259.259,0,1,0,0-.517H308.307C307.975,198.05,307.929,198.567,308.261,198.567Z" transform="translate(-272.599 -93.289)" fill="#0059d6"/>
      <path id="Trazado_230441" data-name="Trazado 230441" d="M303.311,255.128H410.574c.323,0,.37-.508.046-.508H303.357C303.025,254.62,302.979,255.128,303.311,255.128Z" transform="translate(-272.221 -97.609)" fill="#0059d6"/>
      <path id="Trazado_230442" data-name="Trazado 230442" d="M301.312,277.957H408.575c.333,0,.369-.517.046-.517H301.358C301.025,277.44,300.988,277.957,301.312,277.957Z" transform="translate(-272.069 -99.351)" fill="#0059d6"/>
      <path id="Trazado_230443" data-name="Trazado 230443" d="M319.614,212.015V211.6a.656.656,0,0,0-.665-.73h-6.715a.813.813,0,0,0-.794.73v.415Z" transform="translate(-272.859 -94.268)" fill="#0059d6"/>
      <path id="Trazado_230444" data-name="Trazado 230444" d="M311.337,213l-.277,3.168a.656.656,0,0,0,.665.73h6.715a.813.813,0,0,0,.794-.73l.277-3.168Z" transform="translate(-272.83 -94.431)" fill="#0059d6"/>
      <path id="Trazado_230445" data-name="Trazado 230445" d="M320.051,182.456a1.949,1.949,0,0,1-1.9,1.746,1.57,1.57,0,0,1-1.589-1.746,1.94,1.94,0,0,1,1.894-1.746,1.57,1.57,0,0,1,1.6,1.746Z" transform="translate(-273.249 -91.965)" fill="#263238"/>
      <path id="Trazado_230446" data-name="Trazado 230446" d="M327.971,182.456a1.94,1.94,0,0,1-1.893,1.746,1.58,1.58,0,0,1-1.6-1.746,1.94,1.94,0,0,1,1.9-1.746,1.57,1.57,0,0,1,1.588,1.746Z" transform="translate(-273.854 -91.965)" fill="#263238"/>
      <path id="Trazado_230447" data-name="Trazado 230447" d="M335.9,182.456A1.949,1.949,0,0,1,334,184.2a1.579,1.579,0,0,1-1.6-1.746,1.949,1.949,0,0,1,1.9-1.746,1.57,1.57,0,0,1,1.6,1.746Z" transform="translate(-274.459 -91.965)" fill="#263238"/>
      <path id="Trazado_230448" data-name="Trazado 230448" d="M343.821,182.456a1.94,1.94,0,0,1-1.893,1.746,1.579,1.579,0,0,1-1.6-1.746,1.939,1.939,0,0,1,1.9-1.746,1.57,1.57,0,0,1,1.589,1.746Z" transform="translate(-275.064 -91.965)" fill="#263238"/>
      <path id="Trazado_230449" data-name="Trazado 230449" d="M351.71,182.456a1.958,1.958,0,0,1-1.9,1.746,1.579,1.579,0,0,1-1.6-1.746,1.949,1.949,0,0,1,1.9-1.746,1.57,1.57,0,0,1,1.6,1.746Z" transform="translate(-275.666 -91.965)" fill="#263238"/>
      <path id="Trazado_230450" data-name="Trazado 230450" d="M359.711,182.456a1.949,1.949,0,0,1-1.9,1.746,1.579,1.579,0,0,1-1.589-1.746,1.94,1.94,0,0,1,1.9-1.746,1.57,1.57,0,0,1,1.589,1.746Z" transform="translate(-276.277 -91.965)" fill="#263238"/>
      <path id="Trazado_230451" data-name="Trazado 230451" d="M367.6,182.456a1.958,1.958,0,0,1-1.9,1.746,1.58,1.58,0,0,1-1.6-1.746,1.949,1.949,0,0,1,1.9-1.746,1.58,1.58,0,0,1,1.6,1.746Z" transform="translate(-276.879 -91.965)" fill="#263238"/>
      <path id="Trazado_230452" data-name="Trazado 230452" d="M313.8,236.814H311.8l.129-1.441h1.82l.037-.425h-1.82l.12-1.413h1.967l.037-.425H311.68l-.36,4.138h2.438Z" transform="translate(-272.85 -95.966)" fill="#263238"/>
      <path id="Trazado_230453" data-name="Trazado 230453" d="M314.937,237.342l1.035-1.2.822,1.2h.527l-1.053-1.552,1.247-1.45h-.526l-.961,1.118-.739-1.081-.018-.037h-.536l1.007,1.459-1.33,1.543Z" transform="translate(-273.086 -96.06)" fill="#263238"/>
      <path id="Trazado_230454" data-name="Trazado 230454" d="M321.362,235.872a1.385,1.385,0,0,0-1.413-1.552,1.543,1.543,0,0,0-1.2.554l.046-.49h-.434l-.36,4.129h.425l.148-1.626a1.284,1.284,0,0,0,1.108.545A1.7,1.7,0,0,0,321.362,235.872Zm-1.469-1.136a1.016,1.016,0,0,1,1.044,1.136,1.256,1.256,0,0,1-1.238,1.145,1.025,1.025,0,0,1-1.044-1.145,1.256,1.256,0,0,1,1.238-1.173Z" transform="translate(-273.36 -96.058)" fill="#263238"/>
      <path id="Trazado_230455" data-name="Trazado 230455" d="M322.973,234.34h-.434l-.259,3h.425Z" transform="translate(-273.687 -96.06)" fill="#263238"/>
      <path id="Trazado_230456" data-name="Trazado 230456" d="M322.873,233.11a.342.342,0,0,0-.323.3.268.268,0,0,0,.277.3.333.333,0,0,0,.323-.3.277.277,0,0,0-.277-.3Z" transform="translate(-273.707 -95.966)" fill="#263238"/>
      <path id="Trazado_230457" data-name="Trazado 230457" d="M324.292,235.679a.924.924,0,0,1,.97-.924h.065v-.416h-.065a1.146,1.146,0,0,0-.924.406v-.36h-.36l-.268,2.993h.434Z" transform="translate(-273.796 -96.06)" fill="#263238"/>
      <path id="Trazado_230458" data-name="Trazado 230458" d="M328.408,234.816a1.311,1.311,0,0,0-1.108-.536,1.7,1.7,0,0,0-1.681,1.552,1.385,1.385,0,0,0,1.413,1.561,1.561,1.561,0,0,0,1.2-.545l-.046.49h.434l.259-2.993h-.434Zm-1.321,2.161a1.016,1.016,0,0,1-1.035-1.145,1.256,1.256,0,0,1,1.238-1.136,1.007,1.007,0,0,1,1.025,1.136A1.247,1.247,0,0,1,327.088,236.977Z" transform="translate(-273.941 -96.055)" fill="#263238"/>
      <path id="Trazado_230459" data-name="Trazado 230459" d="M330.906,233.45l-.443.129-.065.7h-.628v.416h.628l-.157,1.783a.775.775,0,0,0,.185.646.813.813,0,0,0,.582.176,2.087,2.087,0,0,0,.388,0h.065v-.388h-.083a2.007,2.007,0,0,1-.674-.055.461.461,0,0,1-.065-.333l.157-1.783h.85v-.416h-.85Z" transform="translate(-274.259 -95.992)" fill="#263238"/>
      <path id="Trazado_230460" data-name="Trazado 230460" d="M332.852,233.11a.351.351,0,0,0-.332.3.268.268,0,0,0,.277.3.323.323,0,0,0,.323-.3.268.268,0,0,0-.268-.3Z" transform="translate(-274.469 -95.966)" fill="#263238"/>
      <path id="Trazado_230461" data-name="Trazado 230461" d="M332.25,237.342h.434l.259-3h-.425Z" transform="translate(-274.448 -96.06)" fill="#263238"/>
      <path id="Trazado_230462" data-name="Trazado 230462" d="M335.329,234.28a1.718,1.718,0,0,0-1.7,1.552,1.394,1.394,0,0,0,1.432,1.561,1.718,1.718,0,0,0,1.681-1.524,1.395,1.395,0,0,0-1.413-1.589Zm-.231,2.7a1.016,1.016,0,0,1-1.035-1.108,1.247,1.247,0,0,1,1.238-1.136,1.007,1.007,0,0,1,1.025,1.136,1.247,1.247,0,0,1-1.228,1.108Z" transform="translate(-274.553 -96.055)" fill="#263238"/>
      <path id="Trazado_230463" data-name="Trazado 230463" d="M339.317,234.279a1.293,1.293,0,0,0-.988.425v-.36h-.351l-.268,2.993h.434l.13-1.579A1.025,1.025,0,0,1,339.3,234.7a.646.646,0,0,1,.693.794l-.157,1.847h.434l.157-1.847a1.007,1.007,0,0,0-1.108-1.21Z" transform="translate(-274.865 -96.055)" fill="#263238"/>
      <path id="Trazado_230464" data-name="Trazado 230464" d="M345.11,233.11h-1.57l-.369,4.138h1.57a2.189,2.189,0,0,0,2.134-2.069,1.773,1.773,0,0,0-1.764-2.069Zm-.332,3.695h-1.118l.286-3.279h1.127a1.4,1.4,0,0,1,1.367,1.644,1.718,1.718,0,0,1-1.662,1.644Z" transform="translate(-275.282 -95.966)" fill="#263238"/>
      <path id="Trazado_230465" data-name="Trazado 230465" d="M350.548,234.816a1.321,1.321,0,0,0-1.108-.536,1.7,1.7,0,0,0-1.681,1.552,1.376,1.376,0,0,0,1.4,1.561,1.561,1.561,0,0,0,1.2-.545v.49h.388l.259-2.993h-.434Zm-1.321,2.161a1.025,1.025,0,0,1-1.044-1.145,1.256,1.256,0,0,1,1.238-1.136,1.016,1.016,0,0,1,1.035,1.136A1.247,1.247,0,0,1,349.227,236.977Z" transform="translate(-275.631 -96.055)" fill="#263238"/>
      <path id="Trazado_230466" data-name="Trazado 230466" d="M354.359,234.35,353.2,236.8l-.924-2.42h-.462l1.081,2.974-.065.12c-.129.249-.406.665-.831.628h-.009v.406h.139a1.431,1.431,0,0,0,1.21-.924l1.552-3.205Z" transform="translate(-275.942 -96.061)" fill="#263238"/>
      <path id="Trazado_230467" data-name="Trazado 230467" d="M310.57,240.908l.083.4.924-.286-.314,3.639h.443l.36-4.138h-.333Z" transform="translate(-272.793 -96.532)" fill="#263238"/>
      <path id="Trazado_230468" data-name="Trazado 230468" d="M314.506,243.064a2.375,2.375,0,0,0,.924-1.395,1.081,1.081,0,0,0-1.145-1.219,1.515,1.515,0,0,0-1.349.785v.055l.36.231v-.074a1.025,1.025,0,0,1,.924-.563.674.674,0,0,1,.73.785,2,2,0,0,1-.711,1.081l-1.6,1.505h0v.379h2.651V244.2h-1.976Z" transform="translate(-272.951 -96.526)" fill="#263238"/>
      <path id="Trazado_230469" data-name="Trazado 230469" d="M315.83,245.174h.388l2.8-5.274h-.379Z" transform="translate(-273.194 -96.485)" fill="#263238"/>
      <path id="Trazado_230470" data-name="Trazado 230470" d="M321.061,242.192l1.016-1.293v-.379h-2.438v.425h1.847l-1.081,1.358.157.277h.12a.822.822,0,0,1,.924.85.924.924,0,0,1-1.025.85.85.85,0,0,1-.923-.564v-.083l-.4.222v.055a1.219,1.219,0,0,0,1.265.8,1.422,1.422,0,0,0,1.506-1.284,1.108,1.108,0,0,0-.97-1.238Z" transform="translate(-273.456 -96.532)" fill="#263238"/>
      <path id="Trazado_230471" data-name="Trazado 230471" d="M324.754,240.45c-.924,0-1.635.822-1.755,2.134s.416,2.124,1.385,2.124,1.635-.813,1.746-2.124S325.77,240.45,324.754,240.45Zm-.333,3.824c-.7,0-1.062-.628-.97-1.69s.563-1.7,1.265-1.7,1.062.637.923,1.7S325.114,244.274,324.421,244.274Z" transform="translate(-273.741 -96.527)" fill="#263238"/>
      <path id="Trazado_230472" data-name="Trazado 230472" d="M372.74,237.392a1.626,1.626,0,0,0,1.395-.757v-.065l-.342-.212-.046.065a1.164,1.164,0,0,1-1.007.554,1,1,0,0,1-1.035-1.145,1.228,1.228,0,0,1,1.238-1.136.924.924,0,0,1,.924.545v.074l.379-.2v-.065a1.266,1.266,0,0,0-1.238-.767,1.7,1.7,0,0,0-1.709,1.552,1.376,1.376,0,0,0,1.441,1.561Z" transform="translate(-277.429 -96.055)" fill="#263238"/>
      <path id="Trazado_230473" data-name="Trazado 230473" d="M376.33,237.342l1.524-3h-.462l-1.238,2.448-.813-2.448h-.462l1.007,3Z" transform="translate(-277.703 -96.06)" fill="#263238"/>
      <path id="Trazado_230474" data-name="Trazado 230474" d="M381.384,234.34h-.453l-1.247,2.448-.813-2.448h-.462l1.007,3h.443Z" transform="translate(-277.972 -96.06)" fill="#263238"/>
      <path id="Trazado_230475" data-name="Trazado 230475" d="M372.524,240.45c-.924,0-1.635.822-1.755,2.134s.416,2.124,1.386,2.124,1.635-.813,1.746-2.124S373.493,240.45,372.524,240.45Zm-.332,3.824c-.7,0-1.062-.628-.97-1.69s.563-1.7,1.266-1.7,1.062.637.97,1.7S372.884,244.274,372.191,244.274Z" transform="translate(-277.388 -96.527)" fill="#263238"/>
      <path id="Trazado_230476" data-name="Trazado 230476" d="M376.674,240.45c-.924,0-1.635.822-1.746,2.134s.406,2.124,1.376,2.124,1.635-.813,1.746-2.124S377.644,240.45,376.674,240.45Zm-.333,3.824c-.7,0-1.062-.628-.924-1.69s.572-1.7,1.265-1.7,1.062.637.97,1.7S377.044,244.274,376.342,244.274Z" transform="translate(-277.706 -96.527)" fill="#263238"/>
      <path id="Trazado_230477" data-name="Trazado 230477" d="M380.854,240.45c-.924,0-1.635.822-1.746,2.134s.416,2.124,1.376,2.124,1.635-.813,1.755-2.124S381.778,240.45,380.854,240.45Zm-.332,3.824c-.693,0-1.053-.628-.924-1.69s.563-1.7,1.256-1.7,1.062.637.97,1.7-.628,1.69-1.33,1.69Z" transform="translate(-278.025 -96.527)" fill="#263238"/>
      <path id="Trazado_230478" data-name="Trazado 230478" d="M336.7,283.9a6.373,6.373,0,0,0-6.207,5.708l-.508,5.884a5.154,5.154,0,0,0,5.2,5.7h39.939a6.373,6.373,0,0,0,6.207-5.7l.517-5.884a5.163,5.163,0,0,0-5.209-5.708Z" transform="translate(-274.273 -99.844)" fill="#0059d6"/>
      <path id="Trazado_230479" data-name="Trazado 230479" d="M345.074,290.63h-1.7l-.434,4.932h.508l.157-1.847h1.238a1.7,1.7,0,0,0,1.7-1.552,1.376,1.376,0,0,0-1.468-1.533Zm-.231,2.614h-1.191l.185-2.134h1.2a.923.923,0,0,1,.924,1.071A1.136,1.136,0,0,1,344.843,293.244Z" transform="translate(-275.264 -100.358)" fill="#fff"/>
      <path id="Trazado_230480" data-name="Trazado 230480" d="M350.493,292.7a1.542,1.542,0,0,0-1.339-.674,2.032,2.032,0,0,0-2,1.847,1.653,1.653,0,0,0,1.681,1.847,1.894,1.894,0,0,0,1.459-.683l-.056.61h.471l.314-3.565h-.49Zm-1.635,2.568a1.238,1.238,0,0,1-1.256-1.386,1.533,1.533,0,0,1,1.506-1.385,1.228,1.228,0,0,1,1.247,1.385A1.515,1.515,0,0,1,348.858,295.272Z" transform="translate(-275.585 -100.465)" fill="#fff"/>
      <path id="Trazado_230481" data-name="Trazado 230481" d="M353.607,295.037l-1.08-2.928H352l1.293,3.556-.083.157c-.148.3-.49.8-1.007.748h-.083v.462h.157a1.718,1.718,0,0,0,1.432-1.1l1.847-3.833h-.517Z" transform="translate(-275.956 -100.47)" fill="#fff"/>
      <path id="Trazado_230482" data-name="Trazado 230482" d="M360.293,292.815l.157-1.8a.868.868,0,0,1,.711.619v.074l.453-.24V291.4a1.34,1.34,0,0,0-1.127-.924l.056-.619h-.471l-.046.619a1.5,1.5,0,0,0-1.422,1.3c-.065.822.471,1.1,1.182,1.367l-.166,1.9a1.007,1.007,0,0,1-1.007-.748v-.083l-.462.249v.055a1.459,1.459,0,0,0,1.441,1.016l-.056.619H360l.055-.628a1.533,1.533,0,0,0,1.441-1.358C361.567,293.379,360.976,293.074,360.293,292.815Zm.693,1.386a.924.924,0,0,1-.924.859l.148-1.727C360.782,293.527,361.023,293.748,360.986,294.2Zm-1.847-2.392a.923.923,0,0,1,.868-.813l-.148,1.653c-.527-.2-.776-.4-.739-.813Z" transform="translate(-276.426 -100.299)" fill="#fff"/>
      <path id="Trazado_230483" data-name="Trazado 230483" d="M362.56,291.083l.083.452,1.118-.342-.388,4.369h.508l.434-4.933h-.379Z" transform="translate(-276.762 -100.358)" fill="#fff"/>
      <path id="Trazado_230484" data-name="Trazado 230484" d="M367.176,293.653a2.845,2.845,0,0,0,1.062-1.663,1.284,1.284,0,0,0-1.367-1.441,1.848,1.848,0,0,0-1.6.924v.065l.406.259v-.074a1.238,1.238,0,0,1,1.136-.684.84.84,0,0,1,.924.924,2.419,2.419,0,0,1-.868,1.3l-1.921,1.847h0v.434h3.15v-.5h-2.393Z" transform="translate(-276.945 -100.352)" fill="#fff"/>
      <path id="Trazado_230485" data-name="Trazado 230485" d="M371.236,290.55c-1.145,0-1.949.97-2.087,2.54s.5,2.54,1.644,2.54,1.949-.979,2.087-2.54S372.391,290.55,371.236,290.55Zm-.4,4.618c-.85,0-1.284-.757-1.173-2.041s.684-2.05,1.533-2.05,1.284.767,1.164,2.05-.684,2-1.506,2Z" transform="translate(-277.264 -100.352)" fill="#fff"/>
    </g>
    <g id="freepik--Sofa--inject-149" transform="translate(57.174 194.89)">
      <path id="Trazado_230486" data-name="Trazado 230486" d="M90.88,266H148.4a4.618,4.618,0,0,1,4.443,4.018l9.163,87.2a3.547,3.547,0,0,1-3.593,4.027H100.892Z" transform="translate(-64.113 -266)" fill="#0059d6"/>
      <path id="Trazado_230487" data-name="Trazado 230487" d="M90.88,266H148.4a4.618,4.618,0,0,1,4.443,4.018l9.163,87.2a3.547,3.547,0,0,1-3.593,4.027H100.892Z" transform="translate(-64.113 -266)" fill="#fff" opacity="0.5"/>
      <path id="Trazado_230488" data-name="Trazado 230488" d="M228.137,353.323c-.286-2.771-8.045-76.589-8.313-79.36a9.033,9.033,0,0,0-8.775-7.943H161.57a3.556,3.556,0,0,0-3.6,4.018l9.163,87.2a4.618,4.618,0,0,0,4.452,4.027h49.452a7.011,7.011,0,0,0,7.1-7.943Z" transform="translate(-69.233 -266.001)" fill="#0059d6"/>
      <path id="Trazado_230489" data-name="Trazado 230489" d="M228.137,353.323c-.286-2.771-8.045-76.589-8.313-79.36a9.033,9.033,0,0,0-8.775-7.943H161.57a3.556,3.556,0,0,0-3.6,4.018l9.163,87.2a4.618,4.618,0,0,0,4.452,4.027h49.452a7.011,7.011,0,0,0,7.1-7.943Z" transform="translate(-69.233 -266.001)" fill="#fff" opacity="0.5"/>
      <path id="Trazado_230490" data-name="Trazado 230490" d="M99.071,273.963a9.042,9.042,0,0,0-8.784-7.943,7.02,7.02,0,0,0-7.112,7.943c.36,3.418,7.98,75.933,8.313,79.36a9.043,9.043,0,0,0,8.784,7.944,7.02,7.02,0,0,0,7.112-7.944C107.116,350.543,99.357,276.734,99.071,273.963Z" transform="translate(-63.52 -266.001)" fill="#0059d6"/>
      <path id="Trazado_230491" data-name="Trazado 230491" d="M99.071,273.963a9.042,9.042,0,0,0-8.784-7.943,7.02,7.02,0,0,0-7.112,7.943c.36,3.418,7.98,75.933,8.313,79.36a9.043,9.043,0,0,0,8.784,7.944,7.02,7.02,0,0,0,7.112-7.944C107.116,350.543,99.357,276.734,99.071,273.963Z" transform="translate(-63.52 -266.001)" fill="#fff" opacity="0.4"/>
      <path id="Trazado_230492" data-name="Trazado 230492" d="M130.77,305.16H77.818a15.9,15.9,0,0,0,0,31.783v58.984a4.461,4.461,0,0,0,4.461,4.461h59.908a4.471,4.471,0,0,0,4.47-4.461v-74.88A15.887,15.887,0,0,0,130.77,305.16Z" transform="translate(-61.931 -268.99)" fill="#0059d6"/>
      <path id="Trazado_230493" data-name="Trazado 230493" d="M130.77,305.16H77.818a15.9,15.9,0,0,0,0,31.783v58.984a4.461,4.461,0,0,0,4.461,4.461h59.908a4.471,4.471,0,0,0,4.47-4.461v-74.88A15.887,15.887,0,0,0,130.77,305.16Z" transform="translate(-61.931 -268.99)" fill="#fff" opacity="0.3"/>
      <path id="Trazado_230494" data-name="Trazado 230494" d="M245.456,305.16h52.953a15.9,15.9,0,0,1,0,31.783v58.984a4.471,4.471,0,0,1-4.471,4.461H234.03a4.47,4.47,0,0,1-4.47-4.461v-74.88A15.9,15.9,0,0,1,245.456,305.16Z" transform="translate(-74.701 -268.99)" fill="#0059d6"/>
      <path id="Trazado_230495" data-name="Trazado 230495" d="M245.456,305.16h52.953a15.9,15.9,0,0,1,0,31.783v58.984a4.471,4.471,0,0,1-4.471,4.461H234.03a4.47,4.47,0,0,1-4.47-4.461v-74.88A15.9,15.9,0,0,1,245.456,305.16Z" transform="translate(-74.701 -268.99)" fill="#fff" opacity="0.3"/>
      <path id="Trazado_230496" data-name="Trazado 230496" d="M135.148,305.16a15.9,15.9,0,0,0,0,31.783v58.984a4.461,4.461,0,0,0,4.461,4.461h6.955a4.47,4.47,0,0,0,4.47-4.461v-74.88A15.887,15.887,0,0,0,135.148,305.16Z" transform="translate(-66.308 -268.99)" fill="#0059d6"/>
      <path id="Trazado_230497" data-name="Trazado 230497" d="M135.148,305.16a15.9,15.9,0,0,0,0,31.783v58.984a4.461,4.461,0,0,0,4.461,4.461h6.955a4.47,4.47,0,0,0,4.47-4.461v-74.88A15.887,15.887,0,0,0,135.148,305.16Z" transform="translate(-66.308 -268.99)" fill="#fff" opacity="0.6"/>
      <path id="Trazado_230498" data-name="Trazado 230498" d="M302.786,305.16a15.9,15.9,0,0,1,0,31.783v58.984a4.471,4.471,0,0,1-4.471,4.461H291.36a4.471,4.471,0,0,1-4.471-4.461v-74.88A15.9,15.9,0,0,1,302.786,305.16Z" transform="translate(-79.078 -268.99)" fill="#0059d6"/>
      <path id="Trazado_230499" data-name="Trazado 230499" d="M302.786,305.16a15.9,15.9,0,0,1,0,31.783v58.984a4.471,4.471,0,0,1-4.471,4.461H291.36a4.471,4.471,0,0,1-4.471-4.461v-74.88A15.9,15.9,0,0,1,302.786,305.16Z" transform="translate(-79.078 -268.99)" fill="#fff" opacity="0.6"/>
      <rect id="Rectángulo_37722" data-name="Rectángulo 37722" width="113.23" height="44.88" rx="6.97" transform="translate(84.726 86.518)" fill="#0059d6"/>
      <rect id="Rectángulo_37723" data-name="Rectángulo 37723" width="113.23" height="44.88" rx="6.97" transform="translate(84.726 86.518)" fill="#fff" opacity="0.4"/>
      <rect id="Rectángulo_37724" data-name="Rectángulo 37724" width="17.485" height="61.543" rx="6.12" transform="translate(146.269 77.78) rotate(90)" fill="#0059d6"/>
      <rect id="Rectángulo_37725" data-name="Rectángulo 37725" width="17.485" height="61.543" rx="6.12" transform="translate(146.269 77.78) rotate(90)" fill="#fff" opacity="0.6"/>
      <rect id="Rectángulo_37726" data-name="Rectángulo 37726" width="17.485" height="61.543" rx="6.12" transform="translate(207.812 77.78) rotate(90)" fill="#0059d6"/>
      <rect id="Rectángulo_37727" data-name="Rectángulo 37727" width="17.485" height="61.543" rx="6.12" transform="translate(207.812 77.78) rotate(90)" fill="#fff" opacity="0.6"/>
      <path id="Trazado_230500" data-name="Trazado 230500" d="M160.82,302.373c.12,1.173.249,2.355.369,3.538,0,.259.443.259.416,0-.129-1.182-.249-2.365-.369-3.538C161.236,302.105,160.792,302.105,160.82,302.373Z" transform="translate(-69.453 -268.762)" fill="#0059d6"/>
      <path id="Trazado_230501" data-name="Trazado 230501" d="M158.6,281.323q.859,8.119,1.709,16.238c0,.259.443.268.416,0q-.859-8.119-1.709-16.238C159.015,281.055,158.572,281.055,158.6,281.323Z" transform="translate(-69.283 -267.155)" fill="#0059d6"/>
      <g id="Grupo_124234" data-name="Grupo 124234" transform="translate(91.366 33.411)" opacity="0.3">
        <path id="Trazado_230502" data-name="Trazado 230502" d="M160.82,302.373c.12,1.173.249,2.355.369,3.538,0,.259.443.259.416,0-.129-1.182-.249-2.365-.369-3.538C161.236,302.105,160.792,302.105,160.82,302.373Z" transform="translate(-160.819 -302.172)" fill="#fff"/>
      </g>
      <g id="Grupo_124235" data-name="Grupo 124235" transform="translate(89.316 13.968)" opacity="0.3">
        <path id="Trazado_230503" data-name="Trazado 230503" d="M158.6,281.323q.859,8.119,1.709,16.238c0,.259.443.268.416,0q-.859-8.119-1.709-16.238C159.015,281.055,158.572,281.055,158.6,281.323Z" transform="translate(-158.599 -281.122)" fill="#fff"/>
      </g>
      <path id="Trazado_230504" data-name="Trazado 230504" d="M220.07,395.075v3.011a.175.175,0,1,0,.351,0v-3.011a.175.175,0,1,0-.351,0Z" transform="translate(-73.977 -275.842)" fill="#0059d6"/>
      <path id="Trazado_230505" data-name="Trazado 230505" d="M220.07,379.115V390.6a.175.175,0,1,0,.351,0V379.115a.175.175,0,0,0-.351,0Z" transform="translate(-73.977 -274.623)" fill="#0059d6"/>
      <g id="Grupo_124236" data-name="Grupo 124236" transform="translate(146.093 119.058)" opacity="0.2">
        <path id="Trazado_230506" data-name="Trazado 230506" d="M220.07,395.075v3.011a.175.175,0,1,0,.351,0v-3.011a.175.175,0,1,0-.351,0Z" transform="translate(-220.07 -394.9)" fill="#fff"/>
      </g>
      <g id="Grupo_124237" data-name="Grupo 124237" transform="translate(146.093 104.317)" opacity="0.2">
        <path id="Trazado_230507" data-name="Trazado 230507" d="M220.07,379.115V390.6a.175.175,0,1,0,.351,0V379.115a.175.175,0,0,0-.351,0Z" transform="translate(-220.07 -378.94)" fill="#fff"/>
      </g>
      <path id="Trazado_230508" data-name="Trazado 230508" d="M114.853,322.36H61.9a15.9,15.9,0,0,0,15.887,15.9H130.74A15.9,15.9,0,0,1,114.853,322.36Z" transform="translate(-61.9 -270.303)" fill="#0059d6"/>
      <g id="Grupo_124238" data-name="Grupo 124238" transform="translate(0 52.057)" opacity="0.2">
        <path id="Trazado_230509" data-name="Trazado 230509" d="M114.853,322.36H61.9a15.9,15.9,0,0,0,15.887,15.9H130.74A15.9,15.9,0,0,1,114.853,322.36Z" transform="translate(-61.9 -322.36)" fill="#fff"/>
      </g>
    </g>
    <g id="freepik--Character--inject-149" transform="translate(120.153 137.226)">
      <path id="Trazado_230510" data-name="Trazado 230510" d="M258.417,260.62l-6.124.2a.841.841,0,0,1-.924-.924l.97-13.688a1.1,1.1,0,0,1,1.025-.988l6.133-.2a.841.841,0,0,1,.923.924l-.979,13.688a1.09,1.09,0,0,1-1.025.988Z" transform="translate(-139.345 -206.734)" fill="#0059d6"/>
      <path id="Trazado_230511" data-name="Trazado 230511" d="M259.637,260.58l-6.124.2a.841.841,0,0,1-.924-.924l.979-13.688a1.09,1.09,0,0,1,1.025-.988l6.124-.2a.841.841,0,0,1,.924.924l-.979,13.689A1.081,1.081,0,0,1,259.637,260.58Z" transform="translate(-139.439 -206.731)" fill="#0059d6"/>
      <path id="Trazado_230512" data-name="Trazado 230512" d="M252.535,259.877l.979-13.688a1.09,1.09,0,0,1,1.025-.988h-1.155a1.1,1.1,0,0,0-1.025.988l-.97,13.688a.84.84,0,0,0,.924.924h1.145a.841.841,0,0,1-.924-.924Z" transform="translate(-139.347 -206.748)" fill="#0059d6"/>
      <path id="Trazado_230513" data-name="Trazado 230513" d="M252.535,259.877l.979-13.688a1.09,1.09,0,0,1,1.025-.988h-1.155a1.1,1.1,0,0,0-1.025.988l-.97,13.688a.84.84,0,0,0,.924.924h1.145a.841.841,0,0,1-.924-.924Z" transform="translate(-139.347 -206.748)" fill="#fff" opacity="0.5"/>
      <path id="Trazado_230514" data-name="Trazado 230514" d="M256.349,246.853a.924.924,0,0,1-.924.868.739.739,0,0,1-.776-.813.924.924,0,0,1,.924-.868.748.748,0,0,1,.776.813Z" transform="translate(-139.596 -206.812)" fill="#263238"/>
      <path id="Trazado_230515" data-name="Trazado 230515" d="M255.5,416.2l2.762,8.913,8.183-1.515-2.281-9.92Z" transform="translate(-139.661 -219.612)" fill="#fab27b"/>
      <path id="Trazado_230516" data-name="Trazado 230516" d="M257.216,421.731l8.35-2.023-.647-2.808-8.35,2.752Z" transform="translate(-139.743 -219.857)" opacity="0.2"/>
      <path id="Trazado_230517" data-name="Trazado 230517" d="M269.52,424.235a.221.221,0,0,1-.222-.139.212.212,0,0,1,.056-.249c.12-.12,2.946-2.771,4.618-2.7a1.22,1.22,0,0,1,.822.36.841.841,0,0,1,.24.924c-.268.591-1.413,1.09-2.577,1.367A16.428,16.428,0,0,1,269.52,424.235Zm.647-.462c1.792-.194,4.147-.767,4.443-1.478.046-.093.065-.24-.166-.481a.629.629,0,0,0-.5-.2,1.453,1.453,0,0,0-.443.046,10.547,10.547,0,0,0-3.334,2.124Z" transform="translate(-140.713 -220.182)" fill="#0059d6"/>
      <path id="Trazado_230518" data-name="Trazado 230518" d="M269.392,424.111a.24.24,0,0,1-.148-.175c0-.12-.36-2.706.6-3.962a1.718,1.718,0,0,1,1.145-.674c.628-.083.924.185.97.434.453,1.007-1.321,3.565-2.318,4.323a.174.174,0,0,1-.092,0A.23.23,0,0,1,269.392,424.111Zm1.552-4.35a1.172,1.172,0,0,0-.7.452,5.375,5.375,0,0,0-.563,3.168c1-.924,2.1-2.9,1.847-3.519,0-.056-.092-.2-.5-.148l-.12.046Z" transform="translate(-140.706 -220.039)" fill="#0059d6"/>
      <path id="Trazado_230519" data-name="Trazado 230519" d="M267.273,423.31l-10.206,2.411a.841.841,0,0,0-.647.831l.111,8.747a1.413,1.413,0,0,0,1.413,1.395,1.518,1.518,0,0,0,.3,0c3.695-.924,6.89-1.912,11.472-2.983,5.412-1.275,4.193-.3,10.567-1.718,3.842-.85,3.519-5.375,1.847-5.2-7.648.822-8.95-1.247-12.451-3.223A3.344,3.344,0,0,0,267.273,423.31Z" transform="translate(-139.732 -220.338)" fill="#263238"/>
      <path id="Trazado_230520" data-name="Trazado 230520" d="M298.44,402.013l4.24,8.3,7.8-2.891-3.944-9.375Z" transform="translate(-142.94 -218.418)" fill="#fab27b"/>
      <path id="Trazado_230521" data-name="Trazado 230521" d="M301.078,407.167l7.888-3.417-1.118-2.66-7.759,4.138Z" transform="translate(-143.066 -218.65)" opacity="0.2"/>
      <path id="Trazado_230522" data-name="Trazado 230522" d="M313.637,407.585a.222.222,0,0,1-.24-.1.212.212,0,0,1,0-.259c.1-.139,2.429-3.214,4.073-3.436a1.2,1.2,0,0,1,.868.2.849.849,0,0,1,.407.924c-.157.628-1.21,1.312-2.309,1.783A17.457,17.457,0,0,1,313.637,407.585Zm.554-.573c1.736-.5,3.953-1.468,4.12-2.217a.5.5,0,0,0-.24-.434.619.619,0,0,0-.536-.12,1.343,1.343,0,0,0-.416.12A10.559,10.559,0,0,0,314.191,407.012Z" transform="translate(-144.078 -218.855)" fill="#0059d6"/>
      <path id="Trazado_230523" data-name="Trazado 230523" d="M313.483,407.519a.259.259,0,0,1-.176-.148c0-.12-.813-2.6-.083-4.009a1.69,1.69,0,0,1,1.007-.859c.61-.185.924,0,1.035.259.61.924-.693,3.695-1.552,4.618a.1.1,0,0,1-.083.046A.213.213,0,0,1,313.483,407.519Zm.785-4.554a1.155,1.155,0,0,0-.61.573,5.279,5.279,0,0,0,0,3.205c.813-1.118,1.57-3.205,1.256-3.787,0-.046-.129-.184-.517-.055l-.111.065Z" transform="translate(-144.045 -218.753)" fill="#0059d6"/>
      <path id="Trazado_230524" data-name="Trazado 230524" d="M311.27,406.972l-9.643,4.119a.84.84,0,0,0-.5.924l1.607,8.59a1.414,1.414,0,0,0,1.635,1.136l.277-.083c3.454-1.552,6.466-3.057,10.8-4.9,5.108-2.18,4.073-1.016,10.114-3.5,3.639-1.5,2.549-5.893.924-5.44-7.389,2.115-9.033.3-12.82-1.044A3.352,3.352,0,0,0,311.27,406.972Z" transform="translate(-143.144 -219.074)" fill="#263238"/>
      <path id="Trazado_230525" data-name="Trazado 230525" d="M214.991,320.173s46.958-4.239,58.051,6.466,28.735,66.835,28.735,66.835l-12.469,5.542s-19.655-31.238-29.224-54.828c0,0-58.356,8.165-62.494-3.99l1.986-21.078Z" transform="translate(-135.24 -212.392)" fill="#0059d6"/>
      <path id="Trazado_230526" data-name="Trazado 230526" d="M294.35,403.687l1.884,2.983,14.427-6.872-1.893-4.008Z" transform="translate(-142.627 -218.246)" fill="#0059d6"/>
      <path id="Trazado_230527" data-name="Trazado 230527" d="M294.35,403.687l1.884,2.983,14.427-6.872-1.893-4.008Z" transform="translate(-142.627 -218.246)" opacity="0.3"/>
      <path id="Trazado_230528" data-name="Trazado 230528" d="M177.767,319.177s-3.048,25.1,7.759,28.633,43.033-.277,43.033-.277.065,26.028,19.554,64.461l11.518-4.027s-6.789-65.071-12.174-73.892C243.6,327.776,232.53,318.475,177.767,319.177Z" transform="translate(-133.696 -212.393)" fill="#0059d6"/>
      <path id="Trazado_230529" data-name="Trazado 230529" d="M251.96,417.547l1.321,3.611,13.8-5.117-1.044-3.491Z" transform="translate(-139.391 -219.525)" fill="#0059d6"/>
      <path id="Trazado_230530" data-name="Trazado 230530" d="M251.96,417.547l1.321,3.611,13.8-5.117-1.044-3.491Z" transform="translate(-139.391 -219.525)" opacity="0.3"/>
      <path id="Trazado_230531" data-name="Trazado 230531" d="M250.869,332.691c-8.045-8.867-43.31-6.281-53.719-6.336v.083c23.147,2.66,47.466.3,51.817,8.174,1,1.8,2.208,5.773,3.334,11.084,1.422-.148,1.783-.3,2.863-.425C253.585,338.694,253.9,336.025,250.869,332.691Z" transform="translate(-135.206 -212.92)" opacity="0.1"/>
      <path id="Trazado_230532" data-name="Trazado 230532" d="M211.12,254.67s5.837-.2,12.608,16.367l7.6,14.926s10.345-7.011,16.025-15.942c0,0,.859-15.748,6.419-14.52a6.974,6.974,0,0,1,5.145,9.532,81.614,81.614,0,0,1-5.237,8.451S240.2,296.714,231.468,297s-17.337-16.672-17.337-16.672l-2.715-16.016Z" transform="translate(-136.273 -207.471)" fill="#fab27b"/>
      <path id="Trazado_230533" data-name="Trazado 230533" d="M212.1,254.322s6.087,1.293,10.844,14.215c0,0,1.783.379,1.653,2.937,0,0,2.965,10.382-5.348,18.085,0,0-1.746.1-2.457-2.771l-3.824-6.641-3.353-15.517-.185-5.671.277-4.978Z" transform="translate(-136.144 -207.418)" fill="#263238"/>
      <path id="Trazado_230534" data-name="Trazado 230534" d="M212.1,254.322s6.087,1.293,10.844,14.215c0,0,1.783.379,1.653,2.937,0,0,2.965,10.382-5.348,18.085,0,0-1.746.1-2.457-2.771l-3.824-6.641-3.353-15.517-.185-5.671.277-4.978Z" transform="translate(-136.144 -207.418)" fill="#263238"/>
      <path id="Trazado_230535" data-name="Trazado 230535" d="M248.48,273.363a15.812,15.812,0,0,1,5.071,3.879l1.662-1.746s-1.275-2.771-5.782-3.547Z" transform="translate(-139.125 -208.79)" fill="#0059d6"/>
      <path id="Trazado_230536" data-name="Trazado 230536" d="M248.48,273.363a15.812,15.812,0,0,1,5.071,3.879l1.662-1.746s-1.275-2.771-5.782-3.547Z" transform="translate(-139.125 -208.79)" fill="#fff" opacity="0.7"/>
      <path id="Trazado_230537" data-name="Trazado 230537" d="M256.7,277.776c-.739,1.154-2.032,1.653-2.891,1.108s-.924-1.93-.2-3.085,2.032-1.663,2.891-1.118S257.433,276.612,256.7,277.776Z" transform="translate(-139.479 -208.982)" fill="#0059d6"/>
      <path id="Trazado_230538" data-name="Trazado 230538" d="M256.406,277.592a1.5,1.5,0,1,1-.157-2.4A1.746,1.746,0,0,1,256.406,277.592Z" transform="translate(-139.542 -209.019)" fill="#263238"/>
      <path id="Trazado_230539" data-name="Trazado 230539" d="M212.27,277.73l.924,4.2,3.824,6.641c.711,2.9,2.457,2.771,2.457,2.771a18.194,18.194,0,0,0,3.759-4.868C220.333,281.748,215.032,278.9,212.27,277.73Z" transform="translate(-136.361 -209.232)" opacity="0.3"/>
      <path id="Trazado_230540" data-name="Trazado 230540" d="M212.383,256.5c-1.247-1.709-3.842-3.538-7.731-4.9l-2.355,5.856-3.768,1.45-3-.831-2.669-1.293-3.03-4.517-.406-2.679a70.566,70.566,0,0,0-11.213,1.247c-19.7,3.694-2.919,65.173-2.919,65.173,31.764,6.188,44.27-2.392,44.27-2.392C215.394,302.071,215.523,260.756,212.383,256.5Z" transform="translate(-133.028 -207.082)" fill="#263238"/>
      <path id="Trazado_230541" data-name="Trazado 230541" d="M180.058,260.45l-10.724,3.925a65.168,65.168,0,0,0-.554,13.19C183.3,275.164,180.058,260.45,180.058,260.45Z" transform="translate(-133.031 -207.912)" opacity="0.3"/>
      <path id="Trazado_230542" data-name="Trazado 230542" d="M216.646,214.49s3.307,2.494,2.328,5.043c0,0,2.143,5.542-2.152,5.348C216.821,224.881,212.083,220.928,216.646,214.49Z" transform="translate(-136.543 -204.403)" fill="#263238"/>
      <path id="Trazado_230543" data-name="Trazado 230543" d="M201.588,256.814l2.679-2.706,2.041-3.695c-.647-.231-1.33-.443-2.06-.637l.619-8.719-10.206-5.967s.323,11.084-2.152,13.31c-.527.471-.5,0-1.228,0l1.2,4.618,3.815,4.748Z" transform="translate(-134.758 -205.976)" fill="#fab27b"/>
      <path id="Trazado_230544" data-name="Trazado 230544" d="M191.837,249.26s2.836,7.112,7.269,8.627c0,0-2.226,6.4-5.542,2.854s-3.695-11.416-3.695-11.416Z" transform="translate(-134.65 -207.058)" fill="#0059d6"/>
      <path id="Trazado_230545" data-name="Trazado 230545" d="M191.837,249.26s2.836,7.112,7.269,8.627c0,0-2.226,6.4-5.542,2.854s-3.695-11.416-3.695-11.416Z" transform="translate(-134.65 -207.058)" fill="#fff" opacity="0.7"/>
      <path id="Trazado_230546" data-name="Trazado 230546" d="M198.85,258.4s4.951-1.007,6.927-7.251l2.207.924s-.868,9.8-4.35,9.634A5.68,5.68,0,0,1,198.85,258.4Z" transform="translate(-135.336 -207.202)" fill="#0059d6"/>
      <path id="Trazado_230547" data-name="Trazado 230547" d="M198.85,258.4s4.951-1.007,6.927-7.251l2.207.924s-.868,9.8-4.35,9.634A5.68,5.68,0,0,1,198.85,258.4Z" transform="translate(-135.336 -207.202)" fill="#fff" opacity="0.7"/>
      <path id="Trazado_230548" data-name="Trazado 230548" d="M194.87,236s.222,7.953,9.883,10.7l.314-4.554L194.907,236Z" transform="translate(-135.032 -206.045)" opacity="0.2"/>
      <path id="Trazado_230549" data-name="Trazado 230549" d="M216.271,225.155c1.071,9.043-1.385,16.755-8.867,17.651s-13.393-4.914-14.464-13.956,1.275-17.669,8.756-18.556S215.2,216.122,216.271,225.155Z" transform="translate(-134.866 -204.077)" fill="#fab27b"/>
      <path id="Trazado_230550" data-name="Trazado 230550" d="M194.229,227.2a16.627,16.627,0,0,0,2.577-8.562s2.965-.351,3.695-1.949c0,0,9.237,3.879,13.338.73,0,0,8.313-2.6,2.328-7.214,0,0,1.191-3.621-3.815-5.339s-7.934-.333-7.934-.333-4.193-2.863-8.913,1.293c0,0-8.313.868-6.974,6.613,0,0-4.618,1.358-2.771,5.653a4.665,4.665,0,0,0,.49,5.958s0,7.066,4.563,7.343C190.775,231.39,194.95,238.29,194.229,227.2Z" transform="translate(-134.271 -203.569)" fill="#263238"/>
      <path id="Trazado_230551" data-name="Trazado 230551" d="M195.812,228.749c1.062,1.672.924,3.695-.249,4.406s-3.03,0-4.092-1.653-.924-3.648.249-4.406S194.749,227.077,195.812,228.749Z" transform="translate(-134.718 -205.343)" fill="#fab27b"/>
      <path id="Trazado_230552" data-name="Trazado 230552" d="M189.563,208.16c.249-.2,0-.628-.259-.425-1.4,1.145-2.161,2.725-1.663,4.156a3.261,3.261,0,0,0-3.261.055c-.259.176,0,.6.268.425a2.688,2.688,0,0,1,2.651-.092c-1.2.111-2.3,1.33-2.909,2.54-.148.286.3.526.434.24.72-1.422,2.18-3,3.639-1.912a3.857,3.857,0,0,0,.351.314.252.252,0,0,0,.342-.369,3.857,3.857,0,0,0-.369-.333C187.337,211.292,187.993,209.426,189.563,208.16Z" transform="translate(-134.223 -203.883)" fill="#263238"/>
      <path id="Trazado_230553" data-name="Trazado 230553" d="M207.517,229.1c.092.582.49,1.007.868.924s.61-.563.517-1.145-.489-1.016-.924-.924S207.416,228.522,207.517,229.1Z" transform="translate(-135.995 -205.43)" fill="#263238"/>
      <path id="Trazado_230554" data-name="Trazado 230554" d="M214.688,229.144c.092.582.48,1.007.868.924s.61-.563.517-1.155-.489-1.007-.877-.924S214.586,228.553,214.688,229.144Z" transform="translate(-136.543 -205.433)" fill="#263238"/>
      <path id="Trazado_230555" data-name="Trazado 230555" d="M212.46,229.86a22.352,22.352,0,0,0,3.639,4.618,3.418,3.418,0,0,1-2.706.924Z" transform="translate(-136.375 -205.577)" fill="#ed893e"/>
      <path id="Trazado_230556" data-name="Trazado 230556" d="M210.861,238.725a5.034,5.034,0,0,1-3.695-1.469.194.194,0,0,1,0-.24.185.185,0,0,1,.249,0h0a4.821,4.821,0,0,0,4.092,1.3.175.175,0,0,1,.222.111.166.166,0,0,1-.111.222h-.065A3.38,3.38,0,0,1,210.861,238.725Z" transform="translate(-135.968 -206.119)" fill="#263238"/>
      <path id="Trazado_230557" data-name="Trazado 230557" d="M206.043,226.132a.388.388,0,0,1-.148-.083.342.342,0,0,1,.074-.471h0a3.353,3.353,0,0,1,3.131-.425.332.332,0,0,1,.175.443h0a.342.342,0,0,1-.453.185h0a2.67,2.67,0,0,0-2.438.323A.323.323,0,0,1,206.043,226.132Z" transform="translate(-135.869 -205.201)" fill="#263238"/>
      <path id="Trazado_230558" data-name="Trazado 230558" d="M216.875,225.986a.453.453,0,0,0,.138-.092.342.342,0,0,0-.129-.471h0a3.362,3.362,0,0,0-3.159-.12.333.333,0,0,0-.138.462h0a.351.351,0,0,0,.462.139h0a2.66,2.66,0,0,1,2.457.092.36.36,0,0,0,.369-.009Z" transform="translate(-136.458 -205.203)" fill="#263238"/>
      <path id="Trazado_230559" data-name="Trazado 230559" d="M174.231,252.776s-26.241-2.337-43.033,6.179c0,0-2.706,5.385.323,9.717s13.264,21.7,13.264,21.7l1.413,8.313s-.656,4.951,1.847,6.595,8.738-1.441,9.1-4.12-5.348-13.679-5.348-13.679-6.068-17.725-8.424-21.863c0,0,23.147,2.328,31.266-.157C174.656,265.457,179.172,261.2,174.231,252.776Z" transform="translate(-130.086 -207.304)" fill="#fab27b"/>
      <path id="Trazado_230560" data-name="Trazado 230560" d="M176.856,251.677s-7.759-.822-12.931-.065c0,0-.924-1.062-3.14.591a29.133,29.133,0,0,1-.185,14.4,4.776,4.776,0,0,0,3.381.222s9.514,2.771,13.993-.268C181.04,264.479,184.43,259.232,176.856,251.677Z" transform="translate(-132.415 -207.212)" fill="#263238"/>
    </g>
  </g>
</svg>
