<svg xmlns="http://www.w3.org/2000/svg" width="283.616" height="265" viewBox="0 0 283.616 265">
  <g id="Checklist-pana" transform="translate(-30.63 -43.53)">
    <g id="freepik--background-complete--inject-4" transform="translate(31.131 43.53)">
      <path id="Trazado_227783" data-name="Trazado 227783" d="M35.34,423.9v16.317H39.1a22.629,22.629,0,0,1,0-5.168c.358-1.918,4.446-6.871,4.323-11.123Z" transform="translate(-32.779 -176.635)" fill="#ebebeb"/>
      <path id="Trazado_227784" data-name="Trazado 227784" d="M81.66,423.9v16.317h3.764a22.628,22.628,0,0,1,0-5.168c.358-1.918,4.446-6.871,4.323-11.123Z" transform="translate(-48.988 -176.635)" fill="#e0e0e0"/>
      <path id="Trazado_227785" data-name="Trazado 227785" d="M122.638,423.9v16.317h-3.77a23.039,23.039,0,0,0,0-5.168c-.364-1.918-4.446-6.871-4.329-11.123Z" transform="translate(-60.492 -176.635)" fill="#ebebeb"/>
      <path id="Trazado_227786" data-name="Trazado 227786" d="M162.725,423.9v16.317h-3.764a23.038,23.038,0,0,0,0-5.168c-.358-1.918-4.446-6.871-4.323-11.123Z" transform="translate(-74.525 -176.635)" fill="#e0e0e0"/>
      <rect id="Rectángulo_36244" data-name="Rectángulo 36244" width="90.177" height="80.978" transform="translate(0 166.806)" fill="#f5f5f5"/>
      <path id="Trazado_227787" data-name="Trazado 227787" d="M132.75,300.13l.67,80.978h23.623V300.13Z" transform="translate(-66.866 -133.324)" fill="#e0e0e0"/>
      <rect id="Rectángulo_36245" data-name="Rectángulo 36245" width="57.895" height="20.607" transform="translate(4.056 172.767)" fill="#ebebeb"/>
      <rect id="Rectángulo_36246" data-name="Rectángulo 36246" width="57.895" height="20.607" transform="translate(4.056 197.476)" fill="#ebebeb"/>
      <rect id="Rectángulo_36247" data-name="Rectángulo 36247" width="57.895" height="20.607" transform="translate(4.056 222.192)" fill="#ebebeb"/>
      <path id="Trazado_227788" data-name="Trazado 227788" d="M70.436,264.34l-2.5,23.175h32l2.652-23.175Z" transform="translate(-44.187 -120.799)" fill="#e0e0e0"/>
      <path id="Trazado_227789" data-name="Trazado 227789" d="M72.5,266.9,70.07,287.175H98.946L101.28,266.9Z" transform="translate(-44.932 -121.695)" fill="#fff"/>
      <path id="Trazado_227790" data-name="Trazado 227790" d="M80.475,272.15l-1.5,13.456H97.2l.936-13.456Z" transform="translate(-48.05 -123.532)" fill="#ebebeb"/>
      <path id="Trazado_227791" data-name="Trazado 227791" d="M118.668,279.69l6.611,13.287-8.119-.091,1.508-13.2" transform="translate(-61.411 -126.171)" fill="#ebebeb"/>
      <path id="Trazado_227792" data-name="Trazado 227792" d="M83.148,325.663a2.119,2.119,0,1,1-2.119-2.113,2.119,2.119,0,0,1,2.119,2.113Z" transform="translate(-48.025 -141.519)" fill="#e0e0e0"/>
      <path id="Trazado_227793" data-name="Trazado 227793" d="M83.148,364.059a2.113,2.113,0,1,1-.619-1.5A2.119,2.119,0,0,1,83.148,364.059Z" transform="translate(-48.025 -154.953)" fill="#e0e0e0"/>
      <path id="Trazado_227794" data-name="Trazado 227794" d="M83.148,402.449a2.119,2.119,0,1,1-2.119-2.119,2.119,2.119,0,0,1,2.119,2.119Z" transform="translate(-48.025 -168.387)" fill="#e0e0e0"/>
      <path id="Trazado_227795" data-name="Trazado 227795" d="M99.037,97.364,47.91,96.87,49.334,163.5l51.127.189Z" transform="translate(-37.177 -62.196)" fill="#e0e0e0"/>
      <path id="Trazado_227796" data-name="Trazado 227796" d="M97.4,101.577,52.64,100.42l1.294,60.43,44.744.553Z" transform="translate(-38.833 -63.438)" fill="#fafafa"/>
      <path id="Trazado_227797" data-name="Trazado 227797" d="M93.751,115.824l-29.7-.494.91,42.241,29.669-.637Z" transform="translate(-42.825 -68.655)" fill="#ebebeb"/>
      <path id="Trazado_227798" data-name="Trazado 227798" d="M64.96,157.571l29.207-22.336L64.05,115.33Z" transform="translate(-42.825 -68.655)" fill="#f5f5f5"/>
      <path id="Trazado_227799" data-name="Trazado 227799" d="M440.861,43.966,396,43.53l1.255,58.46,44.848.163Z" transform="translate(-158.987 -43.53)" fill="#e0e0e0"/>
      <path id="Trazado_227800" data-name="Trazado 227800" d="M439.414,47.671,400.15,46.65l1.138,53.013,39.251.481Z" transform="translate(-160.439 -44.622)" fill="#fafafa"/>
      <path id="Trazado_227801" data-name="Trazado 227801" d="M436.218,60.166,410.17,59.73l.793,37.054,26.029-.553Z" transform="translate(-163.945 -49.199)" fill="#ebebeb"/>
      <path id="Trazado_227802" data-name="Trazado 227802" d="M410.963,96.784l25.626-19.593L410.17,59.73Z" transform="translate(-163.945 -49.199)" fill="#f5f5f5"/>
      <path id="Trazado_227803" data-name="Trazado 227803" d="M387.708,382.3c-.189.572,6.5,26,6.5,26l4.589-.956L392.486,382.3Z" transform="translate(-156.084 -162.078)" fill="#ebebeb"/>
      <path id="Trazado_227804" data-name="Trazado 227804" d="M437.479,376.71,428.3,406.346h5.357l8.8-27.53Z" transform="translate(-170.29 -160.122)" fill="#f5f5f5"/>
      <path id="Trazado_227805" data-name="Trazado 227805" d="M449.7,369.65,439.18,403.876h5.357l10.134-32.12Z" transform="translate(-174.097 -157.651)" fill="#ebebeb"/>
      <path id="Trazado_227806" data-name="Trazado 227806" d="M392.71,419.07l5.357,18.546h26.958L430,419.07Z" transform="translate(-157.835 -174.945)" fill="#e0e0e0"/>
      <path id="Trazado_227807" data-name="Trazado 227807" d="M406.877,398.473a1.678,1.678,0,0,1-.058-.2l-.143-.566c-.124-.52-.293-1.255-.514-2.191l-1.853-8.1-6.052-27.01.163.137H393.7l.163-.208c2.4,10.629,4.55,20.152,6.091,27.03.754,3.426,1.365,6.189,1.794,8.126.195.943.357,1.677.468,2.2.046.241.084.429.11.572a.65.65,0,0,1,0,.2,1.681,1.681,0,0,1-.058-.2c-.039-.143-.085-.332-.143-.566-.13-.52-.306-1.255-.533-2.191-.449-1.95-1.092-4.687-1.892-8.1-1.58-6.878-3.757-16.388-6.189-27.01l-.052-.2h5.07l.032.13c2.334,10.629,4.434,20.152,5.948,27.03.735,3.426,1.333,6.189,1.749,8.126.195.943.345,1.677.455,2.2l.111.572A.65.65,0,0,1,406.877,398.473Z" transform="translate(-158.098 -154.348)" fill="#e0e0e0"/>
    </g>
    <g id="freepik--Floor--inject-4" transform="translate(30.63 306.806)">
      <path id="Trazado_227808" data-name="Trazado 227808" d="M306.257,448.7c0,.091-61.717.169-137.813.169S30.63,448.79,30.63,448.7s61.7-.169,137.846-.169S306.257,448.608,306.257,448.7Z" transform="translate(-30.63 -448.53)" fill="#263238"/>
    </g>
    <g id="freepik--Checklist--inject-4" transform="translate(100.252 46.969)">
      <rect id="Rectángulo_36248" data-name="Rectángulo 36248" width="157.647" height="216.016" transform="translate(0 17.142)" fill="#455a64"/>
      <path id="Trazado_227809" data-name="Trazado 227809" d="M296.211,283.061H157.93V88.62H296.211V283.061Z" transform="translate(-144.799 -62.747)" fill="#e0e0e0"/>
      <path id="Trazado_227810" data-name="Trazado 227810" d="M293.52,278.07H156.48V84.67H293.52v193.4Z" transform="translate(-144.291 -61.365)" fill="#ebebeb"/>
      <path id="Trazado_227811" data-name="Trazado 227811" d="M277.421,263.284l-15.784,12.852H152.55V85.42H290.832V252.408Z" transform="translate(-142.916 -61.628)" fill="#fafafa"/>
      <path id="Trazado_227812" data-name="Trazado 227812" d="M277.33,263.17s.28-.241.845-.7L280.7,260.4l10-8.145v.039c0-27.433-.052-88.409-.1-166.988l.15.156H152.479l.169-.169c0,71.7,0,137.846-.039,190.716l-.13-.137,109.087.078h-.039l11.857-9.614,2.971-2.4c.65-.533.995-.793.995-.793l-.975.813L273.4,266.42l-11.818,9.66h0l-109.126.091h-.137v-.137c0-52.87,0-119.014-.033-190.716V85.15H290.9v.15c-.046,78.606-.084,139.556-.1,166.988h0l-10.043,8.106-2.542,2.126Z" transform="translate(-142.825 -61.533)" fill="#263238"/>
      <path id="Trazado_227813" data-name="Trazado 227813" d="M225.045,64.92h37.8a9.2,9.2,0,0,1,9.2,9.2v10.2H215.45V74.508a9.6,9.6,0,0,1,9.595-9.588Z" transform="translate(-164.927 -54.454)" fill="#feb62b"/>
      <path id="Trazado_227814" data-name="Trazado 227814" d="M235.667,59.286,233.6,48.82h32.588l-1.814,10.466Z" transform="translate(-171.278 -48.82)" fill="#feb62b"/>
      <path id="Trazado_227815" data-name="Trazado 227815" d="M198.092,155.458H174.8v-23.3h23.292Zm-22.642-.65h21.992v-22H175.45Z" transform="translate(-150.702 -77.984)" fill="#feb62b"/>
      <path id="Trazado_227816" data-name="Trazado 227816" d="M298.287,140.729c0,.091-16.219.169-36.215.169s-36.222-.078-36.222-.169,16.213-.169,36.222-.169S298.287,140.632,298.287,140.729Z" transform="translate(-168.566 -80.923)" fill="#263238"/>
      <path id="Trazado_227817" data-name="Trazado 227817" d="M298.287,148.169c0,.1-16.219.169-36.215.169s-36.222-.072-36.222-.169S242.063,148,262.072,148,298.287,148.078,298.287,148.169Z" transform="translate(-168.566 -83.527)" fill="#263238"/>
      <path id="Trazado_227818" data-name="Trazado 227818" d="M298.287,155.619c0,.091-16.219.169-36.215.169s-36.222-.078-36.222-.169,16.213-.169,36.222-.169S298.287,155.528,298.287,155.619Z" transform="translate(-168.566 -86.134)" fill="#263238"/>
      <path id="Trazado_227819" data-name="Trazado 227819" d="M298.287,163.069c0,.091-16.219.169-36.215.169s-36.222-.078-36.222-.169,16.213-.169,36.222-.169S298.287,162.965,298.287,163.069Z" transform="translate(-168.566 -88.741)" fill="#263238"/>
      <path id="Trazado_227820" data-name="Trazado 227820" d="M198.092,210.688H174.8v-23.3h23.292Zm-22.642-.65h21.992v-22H175.45Z" transform="translate(-150.702 -97.311)" fill="#feb62b"/>
      <path id="Trazado_227821" data-name="Trazado 227821" d="M181.92,200.315l3.094-3.322,5.155,4.121,11.8-11.454,2.828,3.335-14.854,14.652Z" transform="translate(-153.194 -98.105)" fill="#feb62b"/>
      <path id="Trazado_227822" data-name="Trazado 227822" d="M298.287,195.959c0,.091-16.219.169-36.215.169s-36.222-.078-36.222-.169,16.213-.169,36.222-.169S298.287,195.868,298.287,195.959Z" transform="translate(-168.566 -100.25)" fill="#263238"/>
      <path id="Trazado_227823" data-name="Trazado 227823" d="M298.287,203.409c0,.091-16.219.169-36.215.169s-36.222-.078-36.222-.169,16.213-.169,36.222-.169S298.287,203.311,298.287,203.409Z" transform="translate(-168.566 -102.857)" fill="#263238"/>
      <path id="Trazado_227824" data-name="Trazado 227824" d="M298.287,210.849c0,.1-16.219.169-36.215.169s-36.222-.071-36.222-.169,16.213-.169,36.222-.169S298.287,210.758,298.287,210.849Z" transform="translate(-168.566 -105.461)" fill="#263238"/>
      <path id="Trazado_227825" data-name="Trazado 227825" d="M298.287,218.3c0,.091-16.219.169-36.215.169s-36.222-.078-36.222-.169,16.213-.169,36.222-.169S298.287,218.208,298.287,218.3Z" transform="translate(-168.566 -108.068)" fill="#263238"/>
      <path id="Trazado_227826" data-name="Trazado 227826" d="M198.092,264.138H174.8v-23.3h23.292Zm-22.642-.65h21.992v-22H175.45Z" transform="translate(-150.702 -116.015)" fill="#feb62b"/>
      <path id="Trazado_227827" data-name="Trazado 227827" d="M181.92,253.765l3.094-3.322,5.155,4.121,11.8-11.454,2.828,3.335L189.942,261.1Z" transform="translate(-153.194 -116.809)" fill="#feb62b"/>
      <path id="Trazado_227828" data-name="Trazado 227828" d="M298.287,249.409c0,.091-16.219.169-36.215.169s-36.222-.078-36.222-.169,16.213-.169,36.222-.169S298.287,249.312,298.287,249.409Z" transform="translate(-168.566 -118.954)" fill="#263238"/>
      <path id="Trazado_227829" data-name="Trazado 227829" d="M298.287,256.849c0,.1-16.219.169-36.215.169s-36.222-.072-36.222-.169,16.213-.169,36.222-.169S298.287,256.758,298.287,256.849Z" transform="translate(-168.566 -121.558)" fill="#263238"/>
      <path id="Trazado_227830" data-name="Trazado 227830" d="M298.287,264.3c0,.1-16.219.169-36.215.169s-36.222-.072-36.222-.169,16.213-.169,36.222-.169S298.287,264.208,298.287,264.3Z" transform="translate(-168.566 -124.165)" fill="#263238"/>
      <path id="Trazado_227831" data-name="Trazado 227831" d="M298.287,271.749c0,.091-16.219.169-36.215.169s-36.222-.078-36.222-.169,16.213-.169,36.222-.169S298.287,271.658,298.287,271.749Z" transform="translate(-168.566 -126.772)" fill="#263238"/>
      <path id="Trazado_227832" data-name="Trazado 227832" d="M198.092,315.748H174.8v-23.3h23.292Zm-22.642-.65h21.992v-22H175.45Z" transform="translate(-150.702 -134.075)" fill="#feb62b"/>
      <path id="Trazado_227833" data-name="Trazado 227833" d="M181.92,305.375l3.094-3.322,5.155,4.121,11.8-11.454,2.828,3.328L189.942,312.7Z" transform="translate(-153.194 -134.869)" fill="#feb62b"/>
      <path id="Trazado_227834" data-name="Trazado 227834" d="M298.287,301.009c0,.1-16.219.169-36.215.169s-36.222-.071-36.222-.169,16.213-.169,36.222-.169S298.287,300.944,298.287,301.009Z" transform="translate(-168.566 -137.011)" fill="#263238"/>
      <path id="Trazado_227835" data-name="Trazado 227835" d="M298.287,308.459c0,.091-16.219.169-36.215.169s-36.222-.078-36.222-.169,16.213-.169,36.222-.169S298.287,308.368,298.287,308.459Z" transform="translate(-168.566 -139.618)" fill="#263238"/>
      <path id="Trazado_227836" data-name="Trazado 227836" d="M298.287,315.909c0,.091-16.219.169-36.215.169s-36.222-.078-36.222-.169,16.213-.169,36.222-.169S298.287,315.811,298.287,315.909Z" transform="translate(-168.566 -142.225)" fill="#263238"/>
      <path id="Trazado_227837" data-name="Trazado 227837" d="M298.287,323.349c0,.1-16.219.169-36.215.169s-36.222-.071-36.222-.169,16.213-.169,36.222-.169S298.287,323.258,298.287,323.349Z" transform="translate(-168.566 -144.829)" fill="#263238"/>
      <path id="Trazado_227838" data-name="Trazado 227838" d="M318.869,330.23l-15.159,31.4h10.824Z" transform="translate(-195.812 -147.296)" fill="#e0e0e0"/>
      <path id="Trazado_227839" data-name="Trazado 227839" d="M320.36,361.9l4.336-31.4,24.858,7.671Z" transform="translate(-201.639 -147.39)" fill="#fafafa"/>
      <path id="Trazado_227840" data-name="Trazado 227840" d="M320.36,361.772l8.36-6.884,20.731-16.973.059.286-9.6-2.951-15.231-4.726.2-.13c-1.3,9.1-2.412,16.934-3.2,22.486-.787,5.4-1.19,8.191-1.3,8.893a1.364,1.364,0,0,1,0-.143l.059-.429c.052-.41.124-.982.221-1.71.2-1.528.488-3.718.852-6.5.754-5.6,1.807-13.469,3.036-22.668v-.182l.176.052,15.27,4.706,9.595,2.964.3.091-.241.2c-8.392,6.767-15.732,12.683-20.984,16.9l-6.13,4.921-1.638,1.3-.416.332Z" transform="translate(-201.639 -147.264)" fill="#263238"/>
      <g id="Grupo_124062" data-name="Grupo 124062" transform="translate(90.859)" opacity="0.3">
        <path id="Trazado_227841" data-name="Trazado 227841" d="M279.294,48.82,277.5,59.286h2.236L281.55,48.82H278.7" transform="translate(-277.5 -48.82)"/>
      </g>
    </g>
    <g id="freepik--Character--inject-4" transform="translate(66.553 108.692)">
      <path id="Trazado_227842" data-name="Trazado 227842" d="M130.791,199.9h0a5.851,5.851,0,0,0,6.286-5.6c.124-3.185.234-6.4.234-6.4s4.823-.449,5.2-5.2.189-15.79.189-15.79h0a16.622,16.622,0,0,0-16.811,1.079l.293,16.8v9.042C126.189,196.823,127.769,199.671,130.791,199.9Z" transform="translate(-99.887 -151.241)" fill="#ffbe9d"/>
      <path id="Trazado_227843" data-name="Trazado 227843" d="M136.376,174.646a2.451,2.451,0,0,0-3.25-.715,2.776,2.776,0,0,0-.923,3.471,3.64,3.64,0,0,0,2.34,1.768,1.833,1.833,0,0,1,1.437,1.95,6.11,6.11,0,0,1-1.677,3.322,8.8,8.8,0,0,1-5.526,2.6c-2.035.241-4.362-.182-5.545-1.853a7.573,7.573,0,0,1-.956-4.3l-.221-10.557a15.394,15.394,0,0,1,.241-3.79,5.1,5.1,0,0,1,2-3.133c1.164-.767,2.633-.832,3.952-1.255a32.829,32.829,0,0,0,4.609-2.425c1.547-.793,3.439-1.268,4.992-.488,1.118.559,1.866,1.671,2.945,2.288,1.547.878,3.647.65,4.394,2.951a3.822,3.822,0,0,1,0,2.425,5.612,5.612,0,0,1-7.625,3,7.479,7.479,0,0,1-.091,3.335c-.176.533-.234,1.333-1.06,1.352" transform="translate(-98.536 -149.046)" fill="#263238"/>
      <path id="Trazado_227844" data-name="Trazado 227844" d="M119.477,162.322a16.252,16.252,0,0,0,1.534-4.8,5.5,5.5,0,0,0-1.5-4.635,4.55,4.55,0,0,0-3.146-1.112,5.318,5.318,0,0,0-4.8,3.8,5.721,5.721,0,0,0,1.95,5.851,6.221,6.221,0,0,0,6.189.806" transform="translate(-94.814 -146.571)" fill="#263238"/>
      <path id="Trazado_227845" data-name="Trazado 227845" d="M124.052,165.35a2.353,2.353,0,0,1-2.262,2.21,8.185,8.185,0,0,0,1.3-.91C123.688,166.026,123.961,165.324,124.052,165.35Z" transform="translate(-98.453 -151.321)" fill="#feb62b"/>
      <path id="Trazado_227846" data-name="Trazado 227846" d="M119.93,164.812a4.447,4.447,0,0,1-1.3.943,3.738,3.738,0,0,1-1.7.488,2.386,2.386,0,0,1-2-.9,2.633,2.633,0,0,1-.351-2.158,4.186,4.186,0,0,1,.8-1.58,4.849,4.849,0,0,1,1.131-1.138,15.429,15.429,0,0,1-.936,1.3,4.258,4.258,0,0,0-.689,1.508,2.379,2.379,0,0,0,.319,1.892,2.132,2.132,0,0,0,1.723.78,3.719,3.719,0,0,0,1.6-.39A13.95,13.95,0,0,1,119.93,164.812Z" transform="translate(-95.897 -149.614)" fill="#263238"/>
      <path id="Trazado_227847" data-name="Trazado 227847" d="M110.38,172.833a2.249,2.249,0,0,1,.228.527,5.3,5.3,0,0,0,.709,1.365,1.95,1.95,0,0,0,1.866.858,2.6,2.6,0,0,0,1.8-1.814A18.242,18.242,0,0,0,115.47,171a4.3,4.3,0,0,1,.91-2.191,2.418,2.418,0,0,1,1.391-.793.91.91,0,0,1,.585.052,2.805,2.805,0,0,0-.559.078,2.386,2.386,0,0,0-1.235.819,4.232,4.232,0,0,0-.787,2.08,16.414,16.414,0,0,1-.475,2.834,2.847,2.847,0,0,1-2.061,2.009,1.95,1.95,0,0,1-1.3-.247,2.685,2.685,0,0,1-.819-.774,4.739,4.739,0,0,1-.65-1.463,1.521,1.521,0,0,1-.091-.572Z" transform="translate(-94.459 -152.245)" fill="#263238"/>
      <path id="Trazado_227848" data-name="Trazado 227848" d="M106.187,237.116s-2.438,17.825,0,20.087a5.071,5.071,0,0,0,4.771,1.508l4.635-3.9.91-17.721Z" transform="translate(-92.613 -176.426)" fill="#ffbe9d"/>
      <path id="Trazado_227849" data-name="Trazado 227849" d="M184.22,154.425l3.094-3.322,5.155,4.121,11.8-11.454L207.1,147.1l-14.854,14.652Z" transform="translate(-120.299 -143.77)" fill="#feb62b"/>
      <path id="Trazado_227850" data-name="Trazado 227850" d="M192.38,161.55l-4.485,2.88c-.2-1.775-1.554-3.53-1.489-2.639s0,5.513,0,5.513l-7.989,16.83a7.975,7.975,0,0,1-4.934,4.739L166,191.1l2.919,9.874,10.4-3.445a8.951,8.951,0,0,0,5.688-5.7l7.151-21.79a33.861,33.861,0,0,0,1.144-4.29A8.173,8.173,0,0,0,192.38,161.55Z" transform="translate(-113.923 -149.992)" fill="#ffbe9d"/>
      <path id="Trazado_227851" data-name="Trazado 227851" d="M144.955,442.036l-.117-4.986-9.348.15.084,7.3.585.032c2.6.1,13.138.332,14.854-.214C152.925,443.7,144.955,442.036,144.955,442.036Z" transform="translate(-103.247 -246.399)" fill="#feb62b"/>
      <g id="Grupo_124063" data-name="Grupo 124063" transform="translate(32.295 195.365)" opacity="0.5">
        <path id="Trazado_227852" data-name="Trazado 227852" d="M139,446.914a3.25,3.25,0,0,0-1.229-1.95,3.14,3.14,0,0,0-2.2-.65l.039,2.6Z" transform="translate(-135.57 -444.302)" fill="#fff"/>
      </g>
      <g id="Grupo_124064" data-name="Grupo 124064" transform="translate(32.302 196.592)" opacity="0.4">
        <path id="Trazado_227853" data-name="Trazado 227853" d="M148.854,446.19s2.8.754,2.457,1.222-11.012.65-15.732.286v-.208l12.455-.085S148.341,446.222,148.854,446.19Z" transform="translate(-135.58 -446.19)" fill="#fff"/>
      </g>
      <path id="Trazado_227854" data-name="Trazado 227854" d="M135.4,448.04h.624l1.7.046c1.437.033,3.419.046,5.61,0s4.18-.1,5.61-.176l1.7-.1.462-.032h-.468l-1.7.065c-1.437.046-3.419.111-5.61.143s-4.173,0-5.61,0H135.38Z" transform="translate(-103.208 -250.154)" fill="#263238"/>
      <path id="Trazado_227855" data-name="Trazado 227855" d="M154.8,447.493a3.49,3.49,0,0,1,.306-.813,3.861,3.861,0,0,1,.566-.65,1.521,1.521,0,0,0-.871,1.476Z" transform="translate(-110.002 -249.542)" fill="#263238"/>
      <path id="Trazado_227856" data-name="Trazado 227856" d="M150.518,445.77a1.967,1.967,0,0,0,.293-.358c.137-.215.215-.41.189-.423s-.156.143-.286.358S150.492,445.757,150.518,445.77Z" transform="translate(-108.504 -249.177)" fill="#263238"/>
      <path id="Trazado_227857" data-name="Trazado 227857" d="M149.348,445.312a1.492,1.492,0,0,0,.325-.228c.163-.15.267-.286.247-.306s-.169.078-.325.221S149.322,445.286,149.348,445.312Z" transform="translate(-108.095 -249.103)" fill="#263238"/>
      <path id="Trazado_227858" data-name="Trazado 227858" d="M148.59,444.215a1.02,1.02,0,0,0,.488.052,1.053,1.053,0,0,0,.488-.059,1.228,1.228,0,0,0-.488-.052,1.072,1.072,0,0,0-.488.058Z" transform="translate(-107.831 -248.884)" fill="#263238"/>
      <path id="Trazado_227859" data-name="Trazado 227859" d="M148.32,443.3a1.015,1.015,0,0,0,.546.15,1,1,0,0,0,.566-.085,2.91,2.91,0,0,0-.559,0A3.028,3.028,0,0,0,148.32,443.3Z" transform="translate(-107.737 -248.586)" fill="#263238"/>
      <path id="Trazado_227860" data-name="Trazado 227860" d="M151,444.479a1.659,1.659,0,0,0,.6,0,3.543,3.543,0,0,0,.65-.15,1.952,1.952,0,0,0,.364-.156.3.3,0,0,0,.15-.189.247.247,0,0,0-.1-.241,1.112,1.112,0,0,0-1.359.345,1.2,1.2,0,0,0-.189.4.39.39,0,0,0,0,.163,1.9,1.9,0,0,1,.267-.514,1.131,1.131,0,0,1,.507-.345.955.955,0,0,1,.722.039c.091.072.059.182-.046.247a1.944,1.944,0,0,1-.338.15,4.268,4.268,0,0,1-.65.169C151.221,444.46,151,444.46,151,444.479Z" transform="translate(-108.674 -248.706)" fill="#263238"/>
      <path id="Trazado_227861" data-name="Trazado 227861" d="M150.8,444.381a.579.579,0,0,0,.065-.416,1.04,1.04,0,0,0-.176-.436.6.6,0,0,0-.5-.3.234.234,0,0,0-.182.28.65.65,0,0,0,.1.266,1.54,1.54,0,0,0,.293.358.846.846,0,0,0,.345.241,4,4,0,0,1-.286-.293,2.43,2.43,0,0,1-.26-.358c-.085-.124-.143-.351,0-.384s.306.13.4.247a1.047,1.047,0,0,1,.182.39,2.373,2.373,0,0,1,.02.4Z" transform="translate(-108.325 -248.562)" fill="#263238"/>
      <path id="Trazado_227862" data-name="Trazado 227862" d="M135.65,444.19h.689a2.932,2.932,0,0,1,2.477,1.911c.15.4.169.65.189.65a.469.469,0,0,0,0-.189,2.758,2.758,0,0,0-.111-.5,2.854,2.854,0,0,0-2.548-1.95,2.321,2.321,0,0,0-.514,0A.5.5,0,0,0,135.65,444.19Z" transform="translate(-103.303 -248.866)" fill="#263238"/>
      <path id="Trazado_227863" data-name="Trazado 227863" d="M137.017,438.24a15.035,15.035,0,0,0-.052,1.918,15.778,15.778,0,0,0,.058,1.95,15.174,15.174,0,0,0,.052-1.95A17.455,17.455,0,0,0,137.017,438.24Z" transform="translate(-103.759 -246.816)" fill="#263238"/>
      <path id="Trazado_227864" data-name="Trazado 227864" d="M142.62,446.872a5.63,5.63,0,0,0,1.372.111,5.006,5.006,0,0,0,1.365-.13c0-.033-.65,0-1.365,0A12.542,12.542,0,0,0,142.62,446.872Z" transform="translate(-105.742 -249.824)" fill="#263238"/>
      <path id="Trazado_227865" data-name="Trazado 227865" d="M139.81,446.918s.052.13.111.273.1.26.137.26.046-.15-.032-.312S139.829,446.9,139.81,446.918Z" transform="translate(-104.759 -249.852)" fill="#263238"/>
      <path id="Trazado_227866" data-name="Trazado 227866" d="M138.72,445.617a.58.58,0,0,0,.143.215c.1.1.2.156.215.137s-.039-.124-.137-.215S138.746,445.591,138.72,445.617Z" transform="translate(-104.377 -249.395)" fill="#263238"/>
      <path id="Trazado_227867" data-name="Trazado 227867" d="M137.19,444.973a.654.654,0,0,1,.273.072c.137.072.234.117.26.1s-.052-.149-.228-.2A.381.381,0,0,0,137.19,444.973Z" transform="translate(-103.842 -249.155)" fill="#263238"/>
      <path id="Trazado_227868" data-name="Trazado 227868" d="M136.11,444.758a.227.227,0,0,0,.117.1c.078.026.15.033.163,0s-.046-.078-.124-.1S136.116,444.726,136.11,444.758Z" transform="translate(-103.464 -249.089)" fill="#263238"/>
      <path id="Trazado_227869" data-name="Trazado 227869" d="M94.6,436.972l3.172-3.855-7.19-5.987-4.693,5.591.416.4c1.892,1.762,9.751,8.821,11.4,9.523C99.561,443.434,94.6,436.972,94.6,436.972Z" transform="translate(-85.89 -242.928)" fill="#feb62b"/>
      <g id="Grupo_124065" data-name="Grupo 124065" transform="translate(0.072 187.706)" opacity="0.5">
        <path id="Trazado_227870" data-name="Trazado 227870" d="M88.6,436.732a3.25,3.25,0,0,0,.358-2.295,3.133,3.133,0,0,0-1.248-1.918l-1.71,2Z" transform="translate(-86 -432.52)" fill="#fff"/>
      </g>
      <g id="Grupo_124066" data-name="Grupo 124066" transform="translate(0 189.643)" opacity="0.4">
        <path id="Trazado_227871" data-name="Trazado 227871" d="M96.935,443.164s1.625,2.4,1.066,2.529-8.789-6.709-12.111-10.043l.143-.15,9.5,8.061S96.5,442.833,96.935,443.164Z" transform="translate(-85.89 -435.5)" fill="#fff"/>
      </g>
      <path id="Trazado_227872" data-name="Trazado 227872" d="M85.94,435.35l.111.117.338.319,1.261,1.144c1.066.956,2.561,2.262,4.245,3.666s3.25,2.646,4.368,3.53l1.352,1.034.371.273.137.091L98,445.413l-.358-.293-1.3-1.06c-1.125-.9-2.665-2.145-4.349-3.549s-3.185-2.7-4.264-3.64l-1.3-1.118-.351-.306Z" transform="translate(-85.908 -245.804)" fill="#263238"/>
      <path id="Trazado_227873" data-name="Trazado 227873" d="M100.57,447.73a3.484,3.484,0,0,1,.767-.423,4.429,4.429,0,0,1,.858-.13,1.42,1.42,0,0,0-1.625.553Z" transform="translate(-91.027 -249.915)" fill="#263238"/>
      <path id="Trazado_227874" data-name="Trazado 227874" d="M98.69,443.533c0,.032.215,0,.455-.085s.436-.163.423-.195-.215,0-.455.084a1.092,1.092,0,0,0-.423.2Z" transform="translate(-90.369 -248.566)" fill="#263238"/>
      <path id="Trazado_227875" data-name="Trazado 227875" d="M98.19,442.431a1.4,1.4,0,0,0,.4.046c.221-.007.39-.039.39-.072s-.182-.052-.4-.046A.871.871,0,0,0,98.19,442.431Z" transform="translate(-90.194 -248.257)" fill="#263238"/>
      <path id="Trazado_227876" data-name="Trazado 227876" d="M98.49,440.994a2.2,2.2,0,0,0,.338.358,1.3,1.3,0,0,0,.41.28,2.086,2.086,0,0,0-.338-.364C98.692,441.092,98.516,440.942,98.49,440.994Z" transform="translate(-90.299 -247.776)" fill="#263238"/>
      <path id="Trazado_227877" data-name="Trazado 227877" d="M98.91,440.058a1.352,1.352,0,0,0,.8.774,4.3,4.3,0,0,0-.4-.384C99.092,440.24,98.969,440.019,98.91,440.058Z" transform="translate(-90.446 -247.45)" fill="#263238"/>
      <path id="Trazado_227878" data-name="Trazado 227878" d="M99.849,442.913a1.637,1.637,0,0,0,.462.384,3.247,3.247,0,0,0,.585.3,1.829,1.829,0,0,0,.377.124.318.318,0,0,0,.234-.052.234.234,0,0,0,.085-.24,1.105,1.105,0,0,0-1.255-.65,1.008,1.008,0,0,0-.41.182.437.437,0,0,0-.117.111,1.735,1.735,0,0,1,.54-.214,1.086,1.086,0,0,1,.611.071.942.942,0,0,1,.52.494.151.151,0,0,1-.2.163,2.192,2.192,0,0,1-.351-.111,3.733,3.733,0,0,1-.579-.273A2.2,2.2,0,0,1,99.849,442.913Z" transform="translate(-90.761 -248.394)" fill="#263238"/>
      <path id="Trazado_227879" data-name="Trazado 227879" d="M99.926,442.529a.705.705,0,0,0,.325-.273,1.079,1.079,0,0,0,.156-.442.65.65,0,0,0-.189-.559.241.241,0,0,0-.325.1.65.65,0,0,0-.091.267,1.878,1.878,0,0,0,0,.462.858.858,0,0,0,.1.41s0-.163,0-.41a2.222,2.222,0,0,1,.039-.442c0-.15.117-.358.254-.286s.143.3.143.449a1.014,1.014,0,0,1-.124.41,1.949,1.949,0,0,1-.293.319Z" transform="translate(-90.753 -247.861)" fill="#263238"/>
      <path id="Trazado_227880" data-name="Trazado 227880" d="M88.69,432.52a3.576,3.576,0,0,1,.514.455,3.029,3.029,0,0,1,.761,1.443,3,3,0,0,1-.13,1.625c-.15.4-.312.618-.293.65a.612.612,0,0,0,.124-.15,2.248,2.248,0,0,0,.241-.449,2.841,2.841,0,0,0,.169-1.677,2.873,2.873,0,0,0-.813-1.476,2.459,2.459,0,0,0-.4-.319A.52.52,0,0,0,88.69,432.52Z" transform="translate(-86.87 -244.814)" fill="#263238"/>
      <path id="Trazado_227881" data-name="Trazado 227881" d="M92.319,428.87a15.9,15.9,0,0,0-1.3,1.424,18.208,18.208,0,0,0-1.209,1.5,14.3,14.3,0,0,0,1.3-1.417A18.854,18.854,0,0,0,92.319,428.87Z" transform="translate(-87.262 -243.537)" fill="#263238"/>
      <path id="Trazado_227882" data-name="Trazado 227882" d="M92.25,439.068a5.376,5.376,0,0,0,.962.975,5.123,5.123,0,0,0,1.125.793s-.475-.39-1.047-.878A10.387,10.387,0,0,0,92.25,439.068Z" transform="translate(-88.116 -247.104)" fill="#263238"/>
      <path id="Trazado_227883" data-name="Trazado 227883" d="M90,437.26s-.046.13-.085.28-.1.26-.072.28.13-.078.182-.254S90.035,437.253,90,437.26Z" transform="translate(-87.272 -246.473)" fill="#263238"/>
      <path id="Trazado_227884" data-name="Trazado 227884" d="M90.1,435.56c-.033,0-.046.117-.033.254s.046.247.078.247.045-.117,0-.254S90.132,435.56,90.1,435.56Z" transform="translate(-87.35 -245.878)" fill="#263238"/>
      <path id="Trazado_227885" data-name="Trazado 227885" d="M89.34,434.116c0,.032.085.11.156.234s.1.247.137.247.052-.15-.039-.306S89.353,434.09,89.34,434.116Z" transform="translate(-87.097 -245.37)" fill="#263238"/>
      <path id="Trazado_227886" data-name="Trazado 227886" d="M88.69,433.209v.163a.12.12,0,0,0,.124.1c.026-.013,0-.091,0-.163A.12.12,0,0,0,88.69,433.209Z" transform="translate(-86.87 -245.054)" fill="#263238"/>
      <path id="Trazado_227887" data-name="Trazado 227887" d="M114.481,281.265s-3.114,13.17-2.23,15.777,6.585,4.108,6.585,4.108l-.2,36.072-31.541,39,11.636,9.517S132.89,346.68,135.9,339.588s-1.95-58.928-1.95-58.928Z" transform="translate(-86.313 -191.673)" fill="#263238"/>
      <path id="Trazado_227888" data-name="Trazado 227888" d="M139.814,273.33l1.541,109.549-16.037.1-8.054-89.241h0c-1.7-1.625-4.1-4.407-3.77-10.616l.39-7.209Z" transform="translate(-95.539 -189.108)" fill="#263238"/>
      <path id="Trazado_227889" data-name="Trazado 227889" d="M128,352.687a.747.747,0,0,1,.091-.163c.085-.117.182-.267.306-.449l1.19-1.684,4.355-6.033v.085c-.351-3.8-.774-8.412-1.229-13.385-.585-6.5-1.053-12.416-1.333-16.7-.143-2.139-.234-3.868-.286-5.064,0-.572-.039-1.034-.046-1.385a1.95,1.95,0,0,1,0-.481,3.252,3.252,0,0,1,.059.481c0,.345.065.806.111,1.378.1,1.229.228,2.945.4,5.057.338,4.271.845,10.167,1.43,16.681.436,4.992.878,9.595,1.17,13.417v.085l-4.453,5.955-1.255,1.645-.338.423C128.032,352.655,128,352.694,128,352.687Z" transform="translate(-100.626 -201.041)" fill="#455a64"/>
      <path id="Trazado_227890" data-name="Trazado 227890" d="M131.039,306.471a21.842,21.842,0,0,1-4.251-.65,21.81,21.81,0,0,1-4.147-1.131,35.905,35.905,0,0,1,4.219.8A37.591,37.591,0,0,1,131.039,306.471Z" transform="translate(-98.75 -200.082)" fill="#455a64"/>
      <path id="Trazado_227891" data-name="Trazado 227891" d="M147.729,364.192a12.754,12.754,0,0,0-8.789-.7,3.536,3.536,0,0,1,1.248-.488,9.821,9.821,0,0,1,6.4.5A3.738,3.738,0,0,1,147.729,364.192Z" transform="translate(-104.454 -220.379)" fill="#455a64"/>
      <path id="Trazado_227892" data-name="Trazado 227892" d="M150.171,372.78c.072.058-4.44,6.117-10.082,13.528s-10.277,13.385-10.349,13.333,4.44-6.117,10.082-13.534S150.1,372.721,150.171,372.78Z" transform="translate(-101.234 -223.909)" fill="#455a64"/>
      <path id="Trazado_227893" data-name="Trazado 227893" d="M153.473,285.382a2.756,2.756,0,0,1-.9,1.2,4.479,4.479,0,0,1-6.54-.689,2.639,2.639,0,0,1-.65-1.359,12.923,12.923,0,0,0,.819,1.2,4.453,4.453,0,0,0,6.208.65A13.969,13.969,0,0,0,153.473,285.382Z" transform="translate(-106.708 -193.027)" fill="#455a64"/>
      <path id="Trazado_227894" data-name="Trazado 227894" d="M121.756,188.632a13.989,13.989,0,0,1-.761-19.5" transform="translate(-96.918 -152.644)" fill="#263238"/>
      <path id="Trazado_227895" data-name="Trazado 227895" d="M107.966,214.85s-3.484,3.939-4.206,19c0,0,9.926,1.885,10.108,1.346S107.966,214.85,107.966,214.85Z" transform="translate(-92.143 -168.643)" fill="#feb62b"/>
      <g id="Grupo_124067" data-name="Grupo 124067" transform="translate(11.617 46.207)" opacity="0.3">
        <path id="Trazado_227896" data-name="Trazado 227896" d="M107.966,214.85s-3.484,3.939-4.206,19c0,0,9.926,1.885,10.108,1.346S107.966,214.85,107.966,214.85Z" transform="translate(-103.76 -214.85)"/>
      </g>
      <path id="Trazado_227897" data-name="Trazado 227897" d="M111.27,254.74h30.481l-.494-4.765s-3.484-18.111-3.458-18.351l.546-1.151a11.487,11.487,0,0,0,.137-9.588h0l14.951-5.1L149.78,203.47c-6.774,1.138-17.012,2.418-17.012,2.418l-1.521.124s-10.57.553-10.8.579c-4.42.54-9.562.878-11.441,5.61-1.008,2.529-.052,6.325,1.593,10.238l3.9,12.026c1.56,6.611-.93,6.293-2.3,12.949C111.979,248.415,111.251,253.817,111.27,254.74Z" transform="translate(-93.835 -164.661)" fill="#feb62b"/>
      <g id="Grupo_124068" data-name="Grupo 124068" transform="translate(14.76 38.809)" opacity="0.3">
        <path id="Trazado_227898" data-name="Trazado 227898" d="M111.27,254.74h30.481l-.494-4.765s-3.484-18.111-3.458-18.351l.546-1.151a11.487,11.487,0,0,0,.137-9.588h0l14.951-5.1L149.78,203.47c-6.774,1.138-17.012,2.418-17.012,2.418l-1.521.124s-10.57.553-10.8.579c-4.42.54-9.562.878-11.441,5.61-1.008,2.529-.052,6.325,1.593,10.238l3.9,12.026c1.56,6.611-.93,6.293-2.3,12.949C111.979,248.415,111.251,253.817,111.27,254.74Z" transform="translate(-108.595 -203.47)"/>
      </g>
      <path id="Trazado_227899" data-name="Trazado 227899" d="M168.1,222.72a3.329,3.329,0,0,1-.65.28c-.429.156-1.06.371-1.84.65-1.56.527-3.731,1.222-6.124,1.989s-4.55,1.528-6.046,2.152c-.767.312-1.372.585-1.794.767a2.8,2.8,0,0,1-.65.26,3.249,3.249,0,0,1,.611-.384c.41-.215,1-.527,1.755-.865a59.2,59.2,0,0,1,6.039-2.249c2.4-.767,4.55-1.43,6.156-1.9.787-.234,1.43-.416,1.872-.54A2.769,2.769,0,0,1,168.1,222.72Z" transform="translate(-108.674 -171.397)" fill="#263238"/>
      <path id="Trazado_227900" data-name="Trazado 227900" d="M152.894,212.539c0,.091-9.016.169-20.152.169s-20.152-.078-20.152-.169,9.01-.169,20.152-.169S152.894,212.448,152.894,212.539Z" transform="translate(-95.233 -167.776)" fill="#fafafa"/>
      <path id="Trazado_227901" data-name="Trazado 227901" d="M151.886,221.749c0,.091-10.03.169-22.4.169s-22.395-.078-22.395-.169,10.024-.169,22.395-.169S151.886,221.658,151.886,221.749Z" transform="translate(-93.309 -170.999)" fill="#fafafa"/>
      <path id="Trazado_227902" data-name="Trazado 227902" d="M108.988,232.219a10.417,10.417,0,0,1-3.738,0,10.418,10.418,0,0,1,3.738,0Z" transform="translate(-92.665 -174.655)" fill="#fafafa"/>
      <path id="Trazado_227903" data-name="Trazado 227903" d="M140.232,232.549c0,.091-6.559.169-14.646.169s-14.646-.078-14.646-.169,6.553-.169,14.646-.169S140.232,232.451,140.232,232.549Z" transform="translate(-94.656 -174.778)" fill="#fafafa"/>
      <path id="Trazado_227904" data-name="Trazado 227904" d="M140.845,243.339c0,.1-5.89.169-13.144.169s-13.151-.072-13.151-.169,5.883-.169,13.151-.169S140.845,243.248,140.845,243.339Z" transform="translate(-95.919 -178.554)" fill="#fafafa"/>
      <path id="Trazado_227905" data-name="Trazado 227905" d="M141.891,253.349c0,.091-5.331.169-11.909.169s-11.922-.078-11.922-.169,5.337-.169,11.922-.169S141.891,253.252,141.891,253.349Z" transform="translate(-97.147 -182.057)" fill="#fafafa"/>
      <path id="Trazado_227906" data-name="Trazado 227906" d="M142.605,261.439c0,.1-5.708.169-12.748.169s-12.748-.072-12.748-.169,5.708-.169,12.748-.169S142.605,261.348,142.605,261.439Z" transform="translate(-96.815 -184.888)" fill="#fafafa"/>
      <path id="Trazado_227907" data-name="Trazado 227907" d="M143.256,271.759c0,.1-6.5.169-14.5.169s-14.5-.072-14.5-.169,6.5-.169,14.5-.169S143.256,271.668,143.256,271.759Z" transform="translate(-95.814 -188.499)" fill="#fafafa"/>
      <path id="Trazado_227908" data-name="Trazado 227908" d="M114.462,241.808a2.041,2.041,0,0,1-.273-.6l-.65-1.664c-.54-1.4-1.3-3.341-2.08-5.506s-1.437-4.141-1.846-5.591c-.2-.728-.358-1.3-.442-1.729a2.776,2.776,0,0,1-.111-.65,22.9,22.9,0,0,1,.78,2.308c.468,1.43,1.151,3.393,1.95,5.552s1.5,4.108,1.95,5.539c.241.715.423,1.3.54,1.7a2.6,2.6,0,0,1,.182.637Z" transform="translate(-93.998 -172.57)" fill="#263238"/>
    </g>
  </g>
</svg>
