<svg xmlns="http://www.w3.org/2000/svg" width="474.783" height="353.77" viewBox="0 0 474.783 353.77">
  <g id="File_searching-rafiki" data-name="File searching-rafiki" transform="translate(0)">
    <g id="freepik--background-complete--inject-17" transform="translate(0 0)">
      <rect id="Rectángulo_37683" data-name="Rectángulo 37683" width="474.783" height="0.237" transform="translate(0 310.888)" fill="#ebebeb"/>
      <rect id="Rectángulo_37684" data-name="Rectángulo 37684" width="31.45" height="0.237" transform="translate(395.76 326.166)" fill="#ebebeb"/>
      <rect id="Rectángulo_37685" data-name="Rectángulo 37685" width="67.239" height="0.237" transform="translate(316.566 326.166)" fill="#ebebeb"/>
      <rect id="Rectángulo_37686" data-name="Rectángulo 37686" width="18.222" height="0.237" transform="translate(261.264 317.354)" fill="#ebebeb"/>
      <rect id="Rectángulo_37687" data-name="Rectángulo 37687" width="32.561" height="0.237" transform="translate(49.814 318.95)" fill="#ebebeb"/>
      <rect id="Rectángulo_37688" data-name="Rectángulo 37688" width="59.205" height="0.237" transform="translate(90.826 318.95)" fill="#ebebeb"/>
      <rect id="Rectángulo_37689" data-name="Rectángulo 37689" width="34.954" height="0.237" transform="translate(178.832 322.957)" fill="#ebebeb"/>
      <path id="Trazado_230249" data-name="Trazado 230249" d="M226.974,323.537H43.623a5.422,5.422,0,0,1-5.413-5.422V60.375A5.422,5.422,0,0,1,43.623,55H226.974a5.422,5.422,0,0,1,5.422,5.422V318.115A5.422,5.422,0,0,1,226.974,323.537ZM43.623,55.19a5.185,5.185,0,0,0-5.175,5.185V318.115a5.185,5.185,0,0,0,5.175,5.185H226.974a5.194,5.194,0,0,0,5.185-5.185V60.375a5.194,5.194,0,0,0-5.185-5.185Z" transform="translate(-1.927 -55)" fill="#ebebeb"/>
      <path id="Trazado_230250" data-name="Trazado 230250" d="M443.283,323.537H259.922a5.431,5.431,0,0,1-5.422-5.422V60.375A5.431,5.431,0,0,1,259.922,55H443.283a5.422,5.422,0,0,1,5.4,5.375V318.115A5.422,5.422,0,0,1,443.283,323.537ZM259.922,55.19a5.194,5.194,0,0,0-5.185,5.185V318.115a5.194,5.194,0,0,0,5.185,5.185H443.283a5.194,5.194,0,0,0,5.185-5.185V60.375a5.194,5.194,0,0,0-5.185-5.185Z" transform="translate(-12.836 -55)" fill="#ebebeb"/>
      <rect id="Rectángulo_37690" data-name="Rectángulo 37690" width="128.856" height="111.64" transform="translate(200.871 131.249) rotate(180)" fill="#e6e6e6"/>
      <rect id="Rectángulo_37691" data-name="Rectángulo 37691" width="128.856" height="111.64" transform="translate(197.994 131.249) rotate(180)" fill="#f5f5f5"/>
      <rect id="Rectángulo_37692" data-name="Rectángulo 37692" width="103.664" height="118.572" transform="translate(192.857 23.597) rotate(90)" fill="#fafafa"/>
      <path id="Trazado_230251" data-name="Trazado 230251" d="M150.633,183.514,172.122,79.85H127.169L105.69,183.514Z" transform="translate(-5.33 -56.253)" fill="#fff"/>
      <rect id="Rectángulo_37693" data-name="Rectángulo 37693" width="103.664" height="2.165" transform="translate(76.45 23.606) rotate(90)" fill="#e6e6e6"/>
      <rect id="Rectángulo_37694" data-name="Rectángulo 37694" width="124.602" height="5.356" transform="translate(195.867 108.678) rotate(180)" fill="#f5f5f5"/>
      <rect id="Rectángulo_37695" data-name="Rectángulo 37695" width="20.577" height="89.231" transform="translate(215.466 305.238) rotate(180)" fill="#f0f0f0"/>
      <rect id="Rectángulo_37696" data-name="Rectángulo 37696" width="151.009" height="5.65" transform="translate(211.525 310.888) rotate(180)" fill="#f0f0f0"/>
      <rect id="Rectángulo_37697" data-name="Rectángulo 37697" width="138.333" height="89.231" transform="translate(56.556 215.998)" fill="#f5f5f5"/>
      <rect id="Rectángulo_37698" data-name="Rectángulo 37698" width="122.162" height="29.266" transform="translate(64.646 226.984)" fill="#f0f0f0"/>
      <rect id="Rectángulo_37699" data-name="Rectángulo 37699" width="122.162" height="29.266" transform="translate(64.646 264.986)" fill="#f0f0f0"/>
      <path id="Trazado_230252" data-name="Trazado 230252" d="M97.624,311.347h65.852a2.013,2.013,0,0,0,2-2h0a2.022,2.022,0,0,0-2-2.013H97.624a2.023,2.023,0,0,0-2,2.013h0a2.013,2.013,0,0,0,2,2Z" transform="translate(-4.822 -67.726)" fill="#f5f5f5"/>
      <path id="Trazado_230253" data-name="Trazado 230253" d="M97.624,351.367h65.852a2.013,2.013,0,0,0,2-2h0a2.013,2.013,0,0,0-2-2.013H97.624a2.013,2.013,0,0,0-2,2.013h0A2.013,2.013,0,0,0,97.624,351.367Z" transform="translate(-4.822 -69.744)" fill="#f5f5f5"/>
      <path id="Trazado_230254" data-name="Trazado 230254" d="M430.883,135.338C442.6,132.11,446.608,110.849,417,102.17,423.533,123.554,410.458,140.941,430.883,135.338Z" transform="translate(-21.031 -57.379)" fill="#ebebeb"/>
      <path id="Trazado_230255" data-name="Trazado 230255" d="M432.61,145.466c9.239-9.98.5-32.561-32.77-23.331C418.66,138.6,416.514,162.871,432.61,145.466Z" transform="translate(-20.166 -58.276)" fill="#e0e0e0"/>
      <path id="Trazado_230256" data-name="Trazado 230256" d="M424.621,148.184c-7.729-7.654,3.343-34.289,28.867-21.944C439.026,140.093,438.153,161.525,424.621,148.184Z" transform="translate(-21.293 -58.431)" fill="#fafafa"/>
      <path id="Trazado_230257" data-name="Trazado 230257" d="M416.54,164.411h22.5l1.7-15.221H414.85Z" transform="translate(-20.923 -59.75)" fill="#e6e6e6"/>
      <path id="Trazado_230258" data-name="Trazado 230258" d="M414.491,151.881h26.4a1.681,1.681,0,0,0,1.681-1.681h0a1.681,1.681,0,0,0-1.681-1.681h-26.4a1.681,1.681,0,0,0-1.681,1.681h0A1.681,1.681,0,0,0,414.491,151.881Z" transform="translate(-20.82 -59.717)" fill="#e6e6e6"/>
      <rect id="Rectángulo_37700" data-name="Rectángulo 37700" width="119.379" height="7.729" transform="translate(183.608 285.107)" fill="#ebebeb"/>
      <rect id="Rectángulo_37701" data-name="Rectángulo 37701" width="119.379" height="7.729" transform="translate(205.087 259.326)" fill="#ebebeb"/>
      <rect id="Rectángulo_37702" data-name="Rectángulo 37702" width="119.379" height="7.729" transform="translate(226.557 233.555)" fill="#ebebeb"/>
      <rect id="Rectángulo_37703" data-name="Rectángulo 37703" width="119.379" height="7.729" transform="translate(248.036 207.774)" fill="#ebebeb"/>
      <rect id="Rectángulo_37704" data-name="Rectángulo 37704" width="119.379" height="7.729" transform="translate(269.506 181.994)" fill="#ebebeb"/>
      <rect id="Rectángulo_37705" data-name="Rectángulo 37705" width="119.379" height="7.729" transform="translate(290.985 156.223)" fill="#ebebeb"/>
      <rect id="Rectángulo_37706" data-name="Rectángulo 37706" width="119.379" height="7.729" transform="translate(312.455 130.442)" fill="#ebebeb"/>
      <rect id="Rectángulo_37707" data-name="Rectángulo 37707" width="119.379" height="7.729" transform="translate(333.934 104.661)" fill="#ebebeb"/>
    </g>
    <g id="freepik--Shadow--inject-17" transform="translate(53.28 332.272)">
      <ellipse id="freepik--path--inject-17" cx="184.111" cy="10.749" rx="184.111" ry="10.749" fill="#f5f5f5"/>
    </g>
    <g id="freepik--Character--inject-17" transform="translate(172.607 5.196)">
      <path id="Trazado_230261" data-name="Trazado 230261" d="M332.817,158.6c-.171,2.849-.5,5.46-.874,8.166s-.873,5.356-1.443,8.014a89.274,89.274,0,0,1-4.8,15.734l-.864,1.9-.209.475-.076.247-.152.3a7.6,7.6,0,0,1-1.092,1.652,6.559,6.559,0,0,1-1.823,1.434,6.438,6.438,0,0,1-2.165.684,8.282,8.282,0,0,1-3.447-.361,16.778,16.778,0,0,1-4.406-2.279,34.708,34.708,0,0,1-3.371-2.706,77.86,77.86,0,0,1-10.73-12.278l3.143-2.668c1.9,1.757,3.8,3.532,5.7,5.213a75.6,75.6,0,0,0,5.906,4.748,31.348,31.348,0,0,0,3,1.9,10.446,10.446,0,0,0,2.678,1.149c.323.067.551,0,.446,0a1.045,1.045,0,0,0-.6.275h0l.3-.788.665-1.728a100,100,0,0,0,3.846-14.585c.5-2.488.855-5.023,1.234-7.54s.646-5.109.864-7.511Z" transform="translate(-187.605 -65.393)" fill="#ffc3bd"/>
      <path id="Trazado_230262" data-name="Trazado 230262" d="M328.32,147.589c-3.542.9-6.02,15.468-6.02,15.468l9.752,6.647s9.353-14.69,6.647-18.583C335.85,147.048,333.486,146.279,328.32,147.589Z" transform="translate(-188.862 -64.836)" fill="#0059d6"/>
      <path id="Trazado_230263" data-name="Trazado 230263" d="M328.32,147.589c-3.542.9-6.02,15.468-6.02,15.468l9.752,6.647s9.353-14.69,6.647-18.583C335.85,147.048,333.486,146.279,328.32,147.589Z" transform="translate(-188.862 -64.836)" fill="#0059d6"/>
      <path id="Trazado_230264" data-name="Trazado 230264" d="M328.32,147.589c-3.542.9-6.02,15.468-6.02,15.468l9.752,6.647s9.353-14.69,6.647-18.583C335.85,147.048,333.486,146.279,328.32,147.589Z" transform="translate(-188.862 -64.836)" opacity="0.4"/>
      <path id="Trazado_230265" data-name="Trazado 230265" d="M328.826,151.05l-2.716,14.671,5.479,3.722Z" transform="translate(-189.055 -65.04)" opacity="0.3"/>
      <path id="Trazado_230266" data-name="Trazado 230266" d="M300.466,176.9l-4.605-7.331-2.63,8.328s3.8,3.988,7.245,3.039Z" transform="translate(-187.396 -65.974)" fill="#ffc3bd"/>
      <path id="Trazado_230267" data-name="Trazado 230267" d="M288.7,167.02,286.88,174.1l5.992,3.665,2.63-8.328Z" transform="translate(-187.076 -65.846)" fill="#ffc3bd"/>
      <path id="Trazado_230268" data-name="Trazado 230268" d="M348.313,404.694h-8.584l-.579-19.884h8.594Z" transform="translate(-189.712 -76.83)" fill="#ffc3bd"/>
      <path id="Trazado_230269" data-name="Trazado 230269" d="M427.447,363.04,420.9,368.6l-14.975-13.37,6.542-5.555Z" transform="translate(-193.08 -75.058)" fill="#ffc3bd"/>
      <path id="Trazado_230270" data-name="Trazado 230270" d="M419.637,368.511l6.353-7.274a.683.683,0,0,1,.893-.123l6.466,4.188a1.377,1.377,0,0,1,.247,2.042c-2.26,2.5-3.475,3.589-6.267,6.78-1.709,1.966-4.017,5.023-6.391,7.729s-5.185.522-4.434-.826c3.333-6.02,2.535-8.128,2.592-11.091A2.239,2.239,0,0,1,419.637,368.511Z" transform="translate(-193.607 -75.629)" fill="#263238"/>
      <path id="Trazado_230271" data-name="Trazado 230271" d="M338.706,404.71h9.648a.684.684,0,0,1,.684.589l1.1,7.6a1.377,1.377,0,0,1-1.415,1.586c-3.362-.057-4.985-.256-9.23-.256-2.611,0-8,.275-11.613.275s-3.8-3.571-2.289-3.884c6.723-1.453,9.372-3.447,11.642-5.356a2.241,2.241,0,0,1,1.472-.551Z" transform="translate(-188.984 -77.834)" fill="#263238"/>
      <path id="Trazado_230272" data-name="Trazado 230272" d="M339.16,384.82l.294,10.246h8.584l-.294-10.246Z" transform="translate(-189.713 -76.83)" opacity="0.2"/>
      <path id="Trazado_230273" data-name="Trazado 230273" d="M412.482,349.68l-6.552,5.555,7.729,6.894,6.542-5.565Z" transform="translate(-193.08 -75.058)" opacity="0.2"/>
      <path id="Trazado_230274" data-name="Trazado 230274" d="M328.586,147.488s-4.093,1.443,4.1,51.827h34.868c-.579-14.2-.6-22.951,6.182-52.074a103.837,103.837,0,0,0-14.8-1.956,111.437,111.437,0,0,0-15.839,0C336.3,145.95,328.586,147.488,328.586,147.488Z" transform="translate(-189.128 -64.735)" fill="#0059d6"/>
      <path id="Trazado_230275" data-name="Trazado 230275" d="M328.586,147.488s-4.093,1.443,4.1,51.827h34.868c-.579-14.2-.6-22.951,6.182-52.074a103.837,103.837,0,0,0-14.8-1.956,111.437,111.437,0,0,0-15.839,0C336.3,145.95,328.586,147.488,328.586,147.488Z" transform="translate(-189.128 -64.735)" opacity="0.4"/>
      <path id="Trazado_230276" data-name="Trazado 230276" d="M359.584,145.285a111.437,111.437,0,0,0-15.839,0c-.855.076-1.728.171-2.592.275a4.226,4.226,0,0,0-.475,3.7c1.111,2.763,5.118,3.086,8.043,3.086,10.8,0,12.62-6.305,12.7-6.571l.1-.38C360.913,145.361,360.229,145.314,359.584,145.285Z" transform="translate(-189.778 -64.735)" fill="#fff"/>
      <path id="Trazado_230277" data-name="Trazado 230277" d="M358.166,126.53c-1.007,5.09-1.994,14.424,1.567,17.823,0,0-1.4,5.175-10.863,5.175-10.445,0-4.976-5.166-4.976-5.166,5.7-1.358,5.536-5.574,4.548-9.5Z" transform="translate(-189.879 -63.804)" fill="#ffc3bd"/>
      <path id="Trazado_230278" data-name="Trazado 230278" d="M354.464,130.09,348.71,135a16.463,16.463,0,0,1,.494,2.849c2.165-.313,5.147-2.7,5.384-4.966A7.533,7.533,0,0,0,354.464,130.09Z" transform="translate(-190.194 -63.983)" opacity="0.2"/>
      <path id="Trazado_230279" data-name="Trazado 230279" d="M352.677,95.882c-.883-2.991-1.624-7.7,3.694-9.828-2.08-2.545-2.583-7.331,0-10.17s6.457-1.795,6.457-1.795,1.139-6.941,9.581-5.7,4.681,6.8,4.681,6.8,11.518-2.279,12.287,8.546-5.84,9.5-5.84,9.5,5.137,4.311,2.288,9.049-9.429,3.105-9.429,3.105-3.1,8.375-10.388,3.608S352.677,95.882,352.677,95.882Z" transform="translate(-190.363 -60.864)" fill="#263238"/>
      <path id="Trazado_230280" data-name="Trazado 230280" d="M334.613,103.7c-2.849,3.684-1.6,7.853.95,9.5,6.125,3.912,14.984-12.5,12.677-14.462S337.462,100.011,334.613,103.7Z" transform="translate(-189.401 -62.372)" fill="#263238"/>
      <path id="Trazado_230281" data-name="Trazado 230281" d="M361.268,94.726c-4.026-1.624-8.109.076-9.382,2.526-3.105,5.973,11,16.731,15.079,9.268C369.387,102.085,365.418,96.4,361.268,94.726Z" transform="translate(-190.332 -62.167)" fill="#0059d6"/>
      <path id="Trazado_230282" data-name="Trazado 230282" d="M358.728,113.4c.294,8.546.6,12.116-3.267,16.874-5.8,7.15-16.332,5.65-19.162-2.611-2.545-7.435-2.592-20.112,5.375-24.271A11.623,11.623,0,0,1,358.728,113.4Z" transform="translate(-189.492 -62.569)" fill="#ffc3bd"/>
      <path id="Trazado_230283" data-name="Trazado 230283" d="M357.5,117.54a6.83,6.83,0,0,1-4.14-7.6c-1.9-.076-6.049-.76-7.6-3.115-2.963,1.9-9.22,3.8-9.895.636s8.765-11.29,15.905-11.917c8.489-.741,16.864,7.6,14.709,15.582S357.5,117.54,357.5,117.54Z" transform="translate(-189.545 -62.239)" fill="#263238"/>
      <path id="Trazado_230284" data-name="Trazado 230284" d="M332.669,202.2s-6.771,66.137-6.21,92.326c.589,27.234,10.569,89.345,10.569,89.345h11.6s-1.833-60.525-.807-87.265C348.944,267.445,358.2,202.2,358.2,202.2Z" transform="translate(-189.071 -67.62)" fill="#263238"/>
      <path id="Trazado_230285" data-name="Trazado 230285" d="M350.053,393.7H336.437l-1.007-4.339,15.26-.532Z" transform="translate(-189.525 -77.033)" fill="#0059d6"/>
      <path id="Trazado_230286" data-name="Trazado 230286" d="M348.58,219.313c-8.546,17.225-1.719,48.656,1.31,60.354,1.548-17.567,4.169-39.037,6.21-54.8C354.809,215.961,352.568,211.365,348.58,219.313Z" transform="translate(-189.979 -68.277)" opacity="0.2"/>
      <path id="Trazado_230287" data-name="Trazado 230287" d="M342.66,202.2s7.9,68.758,13.864,90.835c7.084,26.208,51.077,61.484,51.077,61.484l8.926-7.6S384.64,308.6,379.218,294.791c-11.556-29.437-1.662-73.382-10.9-92.611Z" transform="translate(-189.889 -67.619)" fill="#263238"/>
      <path id="Trazado_230288" data-name="Trazado 230288" d="M421.142,353.949l-11.072,9.4-4.14-2.478,12.525-11.651Z" transform="translate(-193.08 -75.035)" fill="#0059d6"/>
      <path id="Trazado_230289" data-name="Trazado 230289" d="M346.6,117.7c.066.693-.247,1.282-.693,1.329s-.874-.484-.95-1.168.247-1.291.7-1.329S346.536,116.976,346.6,117.7Z" transform="translate(-190.005 -63.299)" fill="#263238"/>
      <path id="Trazado_230290" data-name="Trazado 230290" d="M338.4,118.488c.067.684-.247,1.282-.7,1.329s-.864-.484-.95-1.177.247-1.282.693-1.32S338.335,117.795,338.4,118.488Z" transform="translate(-189.59 -63.339)" fill="#263238"/>
      <path id="Trazado_230291" data-name="Trazado 230291" d="M337.62,117.323l-1.7-.323S336.945,118.215,337.62,117.323Z" transform="translate(-189.549 -63.323)" fill="#263238"/>
      <path id="Trazado_230292" data-name="Trazado 230292" d="M340.662,119.59a18.524,18.524,0,0,1-2.032,4.634,3.01,3.01,0,0,0,2.507.228Z" transform="translate(-189.686 -63.454)" fill="#ed847e"/>
      <path id="Trazado_230293" data-name="Trazado 230293" d="M345.227,126.948a6.691,6.691,0,0,1-1.149.209.2.2,0,0,1-.218-.18.209.209,0,0,1,.18-.228,5.507,5.507,0,0,0,4.254-2.554.19.19,0,0,1,.275-.085.209.209,0,0,1,.085.275A5.7,5.7,0,0,1,345.227,126.948Z" transform="translate(-189.95 -63.68)" fill="#263238"/>
      <path id="Trazado_230294" data-name="Trazado 230294" d="M361.782,120.034a6.228,6.228,0,0,1-2.355,4.131c-1.738,1.329-3.409,0-3.608-2.08-.171-1.9.513-4.748,2.583-5.3a2.849,2.849,0,0,1,3.38,3.248Z" transform="translate(-190.552 -63.309)" fill="#ffc3bd"/>
      <path id="Trazado_230295" data-name="Trazado 230295" d="M347.367,112.547a.408.408,0,0,1-.313-.048,3.238,3.238,0,0,0-2.925-.285.427.427,0,0,1-.551-.19.408.408,0,0,1,.19-.541,4.036,4.036,0,0,1,3.7.323.4.4,0,0,1,.133.551A.418.418,0,0,1,347.367,112.547Z" transform="translate(-189.934 -63.029)" fill="#263238"/>
      <path id="Trazado_230296" data-name="Trazado 230296" d="M334.443,114.965a.427.427,0,0,1-.3,0,.418.418,0,0,1-.161-.551,4.017,4.017,0,0,1,3.01-2.175.4.4,0,0,1,.437.37.408.408,0,0,1-.37.437,3.248,3.248,0,0,0-2.364,1.747A.37.37,0,0,1,334.443,114.965Z" transform="translate(-189.449 -63.083)" fill="#263238"/>
      <path id="Trazado_230297" data-name="Trazado 230297" d="M379.309,157.11a137.691,137.691,0,0,1,5,14.5,91.071,91.071,0,0,1,3.153,15.193c.161,1.311.209,2.687.266,4.045v.769a5.4,5.4,0,0,1-.085.807,11.9,11.9,0,0,1-.323,1.405,13.828,13.828,0,0,1-.95,2.288,33.408,33.408,0,0,1-4.8,6.732,82.49,82.49,0,0,1-11.395,10.379l-2.744-3.048a143.478,143.478,0,0,0,9.059-11.395,30.973,30.973,0,0,0,3.323-5.7,8.873,8.873,0,0,0,.38-1.2,2.931,2.931,0,0,0,.047-.418.517.517,0,0,0,0-.123h0v-.133c-.123-1.12-.209-2.241-.418-3.39a103.751,103.751,0,0,0-3.409-13.854c-1.453-4.6-3.077-9.258-4.748-13.7Z" transform="translate(-191.139 -65.346)" fill="#ffc3bd"/>
      <path id="Trazado_230298" data-name="Trazado 230298" d="M375.679,147.35c3.494,1.063,7.691,13.094,7.691,13.094L369.8,170.13s-4.947-10.037-3.476-14.557C367.9,150.873,371.7,146.134,375.679,147.35Z" transform="translate(-191.069 -64.844)" fill="#0059d6"/>
      <path id="Trazado_230299" data-name="Trazado 230299" d="M375.679,147.35c3.494,1.063,7.691,13.094,7.691,13.094L369.8,170.13s-4.947-10.037-3.476-14.557C367.9,150.873,371.7,146.134,375.679,147.35Z" transform="translate(-191.069 -64.844)" opacity="0.4"/>
      <path id="Trazado_230300" data-name="Trazado 230300" d="M417.281,373.1a1.169,1.169,0,0,1-.9-.465.7.7,0,0,1-.171-.684c.323-1.044,3.3-1.9,3.646-1.994a.18.18,0,0,1,.209.066.2.2,0,0,1,0,.218c-.532,1.016-1.586,2.725-2.668,2.849Zm2.2-2.611c-1.178.38-2.716,1.035-2.849,1.586a.294.294,0,0,0,.085.294.76.76,0,0,0,.684.323C417.956,372.628,418.725,371.811,419.485,370.491Z" transform="translate(-193.597 -76.08)" fill="#0059d6"/>
      <path id="Trazado_230301" data-name="Trazado 230301" d="M418.53,370.45a3.513,3.513,0,0,1-2.488-.7.712.712,0,0,1,0-.883,1.045,1.045,0,0,1,.769-.475c1.234-.152,3.105,1.462,3.181,1.529a.209.209,0,0,1-.066.352A4.75,4.75,0,0,1,418.53,370.45Zm-1.51-1.662h-.133a.674.674,0,0,0-.484.294c-.142.218-.095.332,0,.408.37.484,2.061.665,3.086.475A5.156,5.156,0,0,0,417.02,368.788Z" transform="translate(-193.582 -76.001)" fill="#0059d6"/>
      <path id="Trazado_230302" data-name="Trazado 230302" d="M335.92,406.176a3.21,3.21,0,0,1-2.08-.532,1.149,1.149,0,0,1-.37-.949.665.665,0,0,1,.351-.541c1.054-.579,4.472,1.168,4.862,1.377a.209.209,0,0,1,.1.209.2.2,0,0,1-.161.171A14.9,14.9,0,0,1,335.92,406.176Zm-1.529-1.776a.747.747,0,0,0-.38.076.237.237,0,0,0-.133.218.741.741,0,0,0,.237.646c.522.475,1.9.551,3.8.237A10.93,10.93,0,0,0,334.391,404.4Z" transform="translate(-189.426 -77.8)" fill="#0059d6"/>
      <path id="Trazado_230303" data-name="Trazado 230303" d="M338.7,405.794h-.086c-1.026-.465-3.048-2.317-2.849-3.286,0-.228.2-.522.76-.579a1.5,1.5,0,0,1,1.13.351c1.073.9,1.272,3.209,1.282,3.314a.2.2,0,0,1-.086.18A.18.18,0,0,1,338.7,405.794Zm-2.051-3.485h-.114c-.38,0-.4.19-.408.237-.095.579,1.282,2.042,2.327,2.668a4.749,4.749,0,0,0-1.1-2.649,1.083,1.083,0,0,0-.7-.285Z" transform="translate(-189.541 -77.693)" fill="#0059d6"/>
      <path id="Trazado_230304" data-name="Trazado 230304" d="M368.293,199.986l.893,3.124c.123.237-.161.484-.57.484H332.732c-.313,0-.579-.152-.6-.351l-.313-3.115c0-.218.247-.4.6-.4h35.314A.627.627,0,0,1,368.293,199.986Z" transform="translate(-189.343 -67.495)" fill="#0059d6"/>
      <path id="Trazado_230305" data-name="Trazado 230305" d="M368.293,199.986l.893,3.124c.123.237-.161.484-.57.484H332.732c-.313,0-.579-.152-.6-.351l-.313-3.115c0-.218.247-.4.6-.4h35.314A.627.627,0,0,1,368.293,199.986Z" transform="translate(-189.343 -67.495)" fill="#fff" opacity="0.3"/>
      <path id="Trazado_230306" data-name="Trazado 230306" d="M365.2,203.961h.95c.18,0,.323-.1.314-.218l-.446-4.055c0-.114-.171-.218-.361-.218h-.95c-.19,0-.332.1-.313.218l.437,4.055C364.846,203.866,364.969,203.961,365.2,203.961Z" transform="translate(-190.985 -67.482)" fill="#263238"/>
      <path id="Trazado_230307" data-name="Trazado 230307" d="M335.537,203.961h.95c.19,0,.332-.1.323-.218l-.446-4.055c0-.114-.18-.218-.361-.218h-.95c-.19,0-.332.1-.323.218l.447,4.055C335.186,203.866,335.347,203.961,335.537,203.961Z" transform="translate(-189.489 -67.482)" fill="#263238"/>
      <path id="Trazado_230308" data-name="Trazado 230308" d="M350.368,203.961h.95c.19,0,.332-.1.323-.218l-.446-4.055c0-.114-.171-.218-.361-.218h-.949c-.19,0-.332.1-.313.218l.408,4.083C349.978,203.866,350.178,203.961,350.368,203.961Z" transform="translate(-190.238 -67.482)" fill="#263238"/>
      <path id="Trazado_230309" data-name="Trazado 230309" d="M345.83,116.533l-1.7-.323S345.1,117.425,345.83,116.533Z" transform="translate(-189.963 -63.283)" fill="#263238"/>
      <path id="Trazado_230310" data-name="Trazado 230310" d="M306.506,234.934a87.265,87.265,0,1,1,49.738-112.951A87.265,87.265,0,0,1,306.506,234.934Z" transform="translate(-182.07 -60.766)" fill="#0059d6" opacity="0.2"/>
      <path id="Trazado_230311" data-name="Trazado 230311" d="M291.481,67.772,223.036,223.216c-1.054-.8-2.1-1.624-3.124-2.459A86.23,86.23,0,0,1,202.82,201.68h0L261.94,67.412A86.353,86.353,0,0,1,291.481,67.772Z" transform="translate(-182.837 -60.767)" fill="#fff" opacity="0.1"/>
      <path id="Trazado_230312" data-name="Trazado 230312" d="M341.965,95.061,277.612,241.208a87.152,87.152,0,0,1-38.552-8.945L309.328,72.67a87.36,87.36,0,0,1,32.637,22.391Z" transform="translate(-184.664 -61.087)" fill="#fff" opacity="0.1"/>
      <path id="Trazado_230313" data-name="Trazado 230313" d="M202.765,94.512a92.83,92.83,0,1,1,13.047,130.632A92.83,92.83,0,0,1,202.765,94.512Zm137.8,112.77a85.233,85.233,0,1,0-119.949,11.993,85.233,85.233,0,0,0,119.949-11.993Z" transform="translate(-181.775 -60.472)" fill="#0059d6"/>
      <path id="Trazado_230314" data-name="Trazado 230314" d="M357.186,214.7c9.144,5.46,17.842,11.461,26.389,17.652s16.874,12.639,25.068,19.257,16.238,13.427,24,20.577q5.83,5.356,11.395,11c3.722,3.8,7.378,7.6,10.825,11.718a5.346,5.346,0,0,1-6.647,8.128c-4.748-2.564-9.192-5.394-13.626-8.29s-8.764-5.916-13.038-9.021C413,279.525,404.731,273,396.631,266.269s-16.076-13.617-23.834-20.777S357.433,231,350.273,223.12a5.5,5.5,0,0,1,6.894-8.423Z" transform="translate(-190.2 -68.21)" fill="#0059d6"/>
      <path id="Trazado_230315" data-name="Trazado 230315" d="M367.9,212l-9.173,1.4,6.561,5.754s5.185-1.9,5.7-5.413Z" transform="translate(-190.7 -68.114)" fill="#ffc3bd"/>
      <path id="Trazado_230316" data-name="Trazado 230316" d="M353.51,218.741l5.764,4.52,7.036-4.6-7.843-5.175Z" transform="translate(-190.437 -68.189)" fill="#ffc3bd"/>
    </g>
    <g id="freepik--Folder--inject-17" transform="translate(77.591 155.729)">
      <path id="Trazado_230317" data-name="Trazado 230317" d="M297.992,229.129h0a12.059,12.059,0,0,1,11.119-7.91h76.013a8.983,8.983,0,0,1,9.23,10.236L374.717,396.215A11.946,11.946,0,0,1,363.066,406.4H121.876a8.964,8.964,0,0,1-9.22-10.189l16.465-138.428A11.946,11.946,0,0,1,140.772,247.6H272.021A28.174,28.174,0,0,0,297.992,229.129Z" transform="translate(-83.268 -219.112)" fill="#0059d6"/>
      <path id="Trazado_230318" data-name="Trazado 230318" d="M117.23,399.243H369.254L383.612,229.67H131.6Z" transform="translate(-83.503 -219.538)" fill="#f0f0f0"/>
      <path id="Trazado_230319" data-name="Trazado 230319" d="M117.23,399.243H369.254L379.643,229.67H131.6Z" transform="translate(-83.503 -219.538)" fill="#e0e0e0"/>
      <path id="Trazado_230320" data-name="Trazado 230320" d="M117.23,398.957H369.254L377.914,224H125.9Z" transform="translate(-83.503 -219.252)" fill="#f0f0f0"/>
      <path id="Trazado_230321" data-name="Trazado 230321" d="M117.23,398.957H369.254L372.682,224H125.9Z" transform="translate(-83.503 -219.252)" fill="#e0e0e0"/>
      <path id="Trazado_230322" data-name="Trazado 230322" d="M117.23,398.705H369.254L370.755,219H118.74Z" transform="translate(-83.503 -219)" fill="#f0f0f0"/>
      <path id="Trazado_230323" data-name="Trazado 230323" d="M117.042,398.886H369.066L363.891,222.58H113.5Z" transform="translate(-83.315 -219.181)" fill="#e0e0e0"/>
      <path id="Trazado_230324" data-name="Trazado 230324" d="M116.833,398.957H368.857L361.375,224H109.36Z" transform="translate(-83.106 -219.252)" fill="#f0f0f0"/>
      <path id="Trazado_230325" data-name="Trazado 230325" d="M116.6,399.1H368.622L356.7,226.78H104.69Z" transform="translate(-82.871 -219.392)" fill="#e0e0e0"/>
      <path id="Trazado_230326" data-name="Trazado 230326" d="M116.5,399.176H368.521L354.7,228.33H102.69Z" transform="translate(-82.77 -219.471)" fill="#f0f0f0"/>
      <path id="Trazado_230327" data-name="Trazado 230327" d="M241.646,240.389h0a8.214,8.214,0,0,1,8.594-8.1h76.013a13.294,13.294,0,0,1,12.477,10.445l30.035,153.83c1.121,5.764-2.64,10.445-8.4,10.445H119.171a13.29,13.29,0,0,1-12.487-10.445L81.91,269.75c-1.12-5.764,2.64-10.445,8.4-10.445H221.572C232.967,259.3,241.256,251.461,241.646,240.389Z" transform="translate(-81.712 -219.67)" fill="#0059d6"/>
      <path id="Trazado_230328" data-name="Trazado 230328" d="M241.646,240.389h0a8.214,8.214,0,0,1,8.594-8.1h76.013a13.294,13.294,0,0,1,12.477,10.445l30.035,153.83c1.121,5.764-2.64,10.445-8.4,10.445H119.171a13.29,13.29,0,0,1-12.487-10.445L81.91,269.75c-1.12-5.764,2.64-10.445,8.4-10.445H221.572C232.967,259.3,241.256,251.461,241.646,240.389Z" transform="translate(-81.712 -219.67)" opacity="0.2"/>
    </g>
  </g>
</svg>
