<svg xmlns="http://www.w3.org/2000/svg" width="447.604" height="769.323" viewBox="0 0 447.604 769.323">
  <path id="Sustracción_5" data-name="Sustracción 5" d="M251.579,767.7h-.023A252.133,252.133,0,0,1,151.262,746.93,250.128,250.128,0,0,1,105.569,721.1a253.939,253.939,0,0,1-70.683-77.013A250.13,250.13,0,0,1,2.541,552.031a252.235,252.235,0,0,1,20.81-141.824,250.235,250.235,0,0,1,25.143-42.56,253.35,253.35,0,0,1,34.128-37.822L446.6,0V678.8l-26.219,23.758a253.53,253.53,0,0,1-38.216,28.58,250.031,250.031,0,0,1-85.575,32.51A253.148,253.148,0,0,1,251.579,767.7Z" transform="translate(447.101 768.198) rotate(180)" fill="#e2f9fc" stroke="rgba(0,0,0,0)" stroke-miterlimit="10" stroke-width="1"/>
</svg>
