<svg xmlns="http://www.w3.org/2000/svg" width="469.26" height="425.13" viewBox="0 0 469.26 425.13">
  <g id="Tax-bro" transform="translate(-12.23 -39.35)">
    <g id="freepik--Floor--inject-193" transform="translate(0 43)">
      <line id="Línea_397" data-name="Línea 397" x2="434.98" transform="translate(46.01 420.98)" fill="none" stroke="#263238" stroke-linecap="round" stroke-miterlimit="10" stroke-width="1"/>
    </g>
    <g id="freepik--Calendar--inject-193">
      <rect id="Rectángulo_36371" data-name="Rectángulo 36371" width="151.91" height="157.84" transform="translate(300.58 70.73)" fill="#fff" stroke="#263238" stroke-linecap="round" stroke-miterlimit="10" stroke-width="1"/>
      <rect id="Rectángulo_36372" data-name="Rectángulo 36372" width="151.91" height="30.38" transform="translate(300.58 70.73)" fill="#61b3e0" stroke="#263238" stroke-linecap="round" stroke-miterlimit="10" stroke-width="1"/>
      <rect id="Rectángulo_36373" data-name="Rectángulo 36373" width="17.39" height="17.39" transform="translate(309.47 120.38)" fill="#fff" stroke="#263238" stroke-linecap="round" stroke-miterlimit="10" stroke-width="1"/>
      <rect id="Rectángulo_36374" data-name="Rectángulo 36374" width="17.39" height="17.39" transform="translate(333.12 120.38)" fill="#fff" stroke="#263238" stroke-linecap="round" stroke-miterlimit="10" stroke-width="1"/>
      <rect id="Rectángulo_36375" data-name="Rectángulo 36375" width="17.39" height="17.39" transform="translate(356.76 120.38)" fill="#fff" stroke="#263238" stroke-linecap="round" stroke-miterlimit="10" stroke-width="1"/>
      <rect id="Rectángulo_36376" data-name="Rectángulo 36376" width="17.39" height="17.39" transform="translate(380.4 120.38)" fill="#fff" stroke="#263238" stroke-linecap="round" stroke-miterlimit="10" stroke-width="1"/>
      <rect id="Rectángulo_36377" data-name="Rectángulo 36377" width="17.39" height="17.39" transform="translate(404.05 120.38)" fill="#fff" stroke="#263238" stroke-linecap="round" stroke-miterlimit="10" stroke-width="1"/>
      <rect id="Rectángulo_36378" data-name="Rectángulo 36378" width="17.39" height="17.39" transform="translate(427.69 120.38)" fill="#fff" stroke="#263238" stroke-linecap="round" stroke-miterlimit="10" stroke-width="1"/>
      <rect id="Rectángulo_36379" data-name="Rectángulo 36379" width="17.39" height="17.39" transform="translate(309.47 144.29)" fill="#fff" stroke="#263238" stroke-linecap="round" stroke-miterlimit="10" stroke-width="1"/>
      <rect id="Rectángulo_36380" data-name="Rectángulo 36380" width="17.39" height="17.39" transform="translate(333.12 144.29)" fill="#fff" stroke="#263238" stroke-linecap="round" stroke-miterlimit="10" stroke-width="1"/>
      <rect id="Rectángulo_36381" data-name="Rectángulo 36381" width="17.39" height="17.39" transform="translate(356.76 144.29)" fill="#fff" stroke="#263238" stroke-linecap="round" stroke-miterlimit="10" stroke-width="1"/>
      <rect id="Rectángulo_36382" data-name="Rectángulo 36382" width="17.39" height="17.39" transform="translate(380.4 144.29)" fill="#fff" stroke="#263238" stroke-linecap="round" stroke-miterlimit="10" stroke-width="1"/>
      <rect id="Rectángulo_36383" data-name="Rectángulo 36383" width="17.39" height="17.39" transform="translate(404.05 144.29)" fill="#fff" stroke="#263238" stroke-linecap="round" stroke-miterlimit="10" stroke-width="1"/>
      <rect id="Rectángulo_36384" data-name="Rectángulo 36384" width="17.39" height="17.39" transform="translate(427.69 144.29)" fill="#fff" stroke="#263238" stroke-linecap="round" stroke-miterlimit="10" stroke-width="1"/>
      <rect id="Rectángulo_36385" data-name="Rectángulo 36385" width="17.39" height="17.39" transform="translate(309.47 168.2)" fill="#fff" stroke="#263238" stroke-linecap="round" stroke-miterlimit="10" stroke-width="1"/>
      <rect id="Rectángulo_36386" data-name="Rectángulo 36386" width="17.39" height="17.39" transform="translate(333.12 168.2)" fill="#fff" stroke="#263238" stroke-linecap="round" stroke-miterlimit="10" stroke-width="1"/>
      <rect id="Rectángulo_36387" data-name="Rectángulo 36387" width="17.39" height="17.39" transform="translate(356.76 168.2)" fill="#fff" stroke="#263238" stroke-linecap="round" stroke-miterlimit="10" stroke-width="1"/>
      <rect id="Rectángulo_36388" data-name="Rectángulo 36388" width="17.39" height="17.39" transform="translate(380.4 168.2)" fill="#fff" stroke="#263238" stroke-linecap="round" stroke-miterlimit="10" stroke-width="1"/>
      <rect id="Rectángulo_36389" data-name="Rectángulo 36389" width="17.39" height="17.39" transform="translate(404.05 168.2)" fill="#fff" stroke="#263238" stroke-linecap="round" stroke-miterlimit="10" stroke-width="1"/>
      <rect id="Rectángulo_36390" data-name="Rectángulo 36390" width="17.39" height="17.39" transform="translate(427.69 168.2)" fill="#fff" stroke="#263238" stroke-linecap="round" stroke-miterlimit="10" stroke-width="1"/>
      <rect id="Rectángulo_36391" data-name="Rectángulo 36391" width="17.39" height="17.39" transform="translate(309.47 192.12)" fill="#fff" stroke="#263238" stroke-linecap="round" stroke-miterlimit="10" stroke-width="1"/>
      <rect id="Rectángulo_36392" data-name="Rectángulo 36392" width="17.39" height="17.39" transform="translate(333.12 192.12)" fill="#fff" stroke="#263238" stroke-linecap="round" stroke-miterlimit="10" stroke-width="1"/>
      <rect id="Rectángulo_36393" data-name="Rectángulo 36393" width="17.39" height="17.39" transform="translate(356.76 192.12)" fill="#fff" stroke="#263238" stroke-linecap="round" stroke-miterlimit="10" stroke-width="1"/>
      <rect id="Rectángulo_36394" data-name="Rectángulo 36394" width="17.39" height="17.39" transform="translate(380.4 192.12)" fill="#fff" stroke="#263238" stroke-linecap="round" stroke-miterlimit="10" stroke-width="1"/>
      <rect id="Rectángulo_36395" data-name="Rectángulo 36395" width="17.39" height="17.39" transform="translate(404.05 192.12)" fill="#fff" stroke="#263238" stroke-linecap="round" stroke-miterlimit="10" stroke-width="1"/>
      <rect id="Rectángulo_36396" data-name="Rectángulo 36396" width="17.39" height="17.39" transform="translate(427.69 192.12)" fill="#fff" stroke="#263238" stroke-linecap="round" stroke-miterlimit="10" stroke-width="1"/>
      <path id="Trazado_228435" data-name="Trazado 228435" d="M313.92,78.88h0a2.22,2.22,0,0,1-2.23-2.22V61.1a2.23,2.23,0,0,1,2.23-2.23h0a2.22,2.22,0,0,1,2.22,2.23V76.66a2.21,2.21,0,0,1-2.22,2.22Z" fill="#fff" stroke="#263238" stroke-linecap="round" stroke-miterlimit="10" stroke-width="1"/>
      <path id="Trazado_228436" data-name="Trazado 228436" d="M322.81,78.88h0a2.21,2.21,0,0,1-2.22-2.22V61.1a2.22,2.22,0,0,1,2.22-2.23h0A2.22,2.22,0,0,1,325,61.1V76.66A2.21,2.21,0,0,1,322.81,78.88Z" fill="#fff" stroke="#263238" stroke-linecap="round" stroke-miterlimit="10" stroke-width="1"/>
      <path id="Trazado_228437" data-name="Trazado 228437" d="M331.7,78.88h0a2.21,2.21,0,0,1-2.22-2.22V61.1a2.22,2.22,0,0,1,2.22-2.23h0a2.22,2.22,0,0,1,2.22,2.23V76.66a2.21,2.21,0,0,1-2.22,2.22Z" fill="#fff" stroke="#263238" stroke-linecap="round" stroke-miterlimit="10" stroke-width="1"/>
      <path id="Trazado_228438" data-name="Trazado 228438" d="M340.59,78.88h0a2.22,2.22,0,0,1-2.22-2.22V61.1a2.23,2.23,0,0,1,2.22-2.23h0a2.23,2.23,0,0,1,2.23,2.23V76.66a2.22,2.22,0,0,1-2.23,2.22Z" fill="#fff" stroke="#263238" stroke-linecap="round" stroke-miterlimit="10" stroke-width="1"/>
      <path id="Trazado_228439" data-name="Trazado 228439" d="M349.49,78.88h0a2.22,2.22,0,0,1-2.23-2.22V61.1a2.23,2.23,0,0,1,2.23-2.23h0a2.23,2.23,0,0,1,2.22,2.23V76.66a2.22,2.22,0,0,1-2.22,2.22Z" fill="#fff" stroke="#263238" stroke-linecap="round" stroke-miterlimit="10" stroke-width="1"/>
      <path id="Trazado_228440" data-name="Trazado 228440" d="M358.38,78.88h0a2.21,2.21,0,0,1-2.22-2.22V61.1a2.22,2.22,0,0,1,2.22-2.23h0a2.22,2.22,0,0,1,2.22,2.23V76.66a2.21,2.21,0,0,1-2.22,2.22Z" fill="#fff" stroke="#263238" stroke-linecap="round" stroke-miterlimit="10" stroke-width="1"/>
      <path id="Trazado_228441" data-name="Trazado 228441" d="M367.27,78.88h0a2.21,2.21,0,0,1-2.22-2.22V61.1a2.22,2.22,0,0,1,2.22-2.23h0a2.22,2.22,0,0,1,2.22,2.23V76.66a2.21,2.21,0,0,1-2.22,2.22Z" fill="#fff" stroke="#263238" stroke-linecap="round" stroke-miterlimit="10" stroke-width="1"/>
      <rect id="Rectángulo_36397" data-name="Rectángulo 36397" width="4.45" height="20.01" rx="2.22" transform="translate(373.94 58.87)" fill="#fff" stroke="#263238" stroke-linecap="round" stroke-miterlimit="10" stroke-width="1"/>
      <path id="Trazado_228442" data-name="Trazado 228442" d="M385.06,78.88h0a2.22,2.22,0,0,1-2.23-2.22V61.1a2.23,2.23,0,0,1,2.23-2.23h0a2.23,2.23,0,0,1,2.22,2.23V76.66a2.22,2.22,0,0,1-2.22,2.22Z" fill="#fff" stroke="#263238" stroke-linecap="round" stroke-miterlimit="10" stroke-width="1"/>
      <path id="Trazado_228443" data-name="Trazado 228443" d="M394,78.88h0a2.21,2.21,0,0,1-2.22-2.22V61.1A2.22,2.22,0,0,1,394,58.87h0a2.22,2.22,0,0,1,2.22,2.23V76.66A2.21,2.21,0,0,1,394,78.88Z" fill="#fff" stroke="#263238" stroke-linecap="round" stroke-miterlimit="10" stroke-width="1"/>
      <path id="Trazado_228444" data-name="Trazado 228444" d="M402.84,78.88h0a2.21,2.21,0,0,1-2.22-2.22V61.1a2.22,2.22,0,0,1,2.22-2.23h0a2.22,2.22,0,0,1,2.22,2.23V76.66a2.21,2.21,0,0,1-2.22,2.22Z" fill="#fff" stroke="#263238" stroke-linecap="round" stroke-miterlimit="10" stroke-width="1"/>
      <path id="Trazado_228445" data-name="Trazado 228445" d="M411.73,78.88h0a2.21,2.21,0,0,1-2.22-2.22V61.1a2.22,2.22,0,0,1,2.22-2.23h0A2.23,2.23,0,0,1,414,61.1V76.66a2.22,2.22,0,0,1-2.27,2.22Z" fill="#fff" stroke="#263238" stroke-linecap="round" stroke-miterlimit="10" stroke-width="1"/>
      <path id="Trazado_228446" data-name="Trazado 228446" d="M420.62,78.88h0a2.22,2.22,0,0,1-2.22-2.22V61.1a2.23,2.23,0,0,1,2.22-2.23h0a2.23,2.23,0,0,1,2.23,2.23V76.66a2.22,2.22,0,0,1-2.23,2.22Z" fill="#fff" stroke="#263238" stroke-linecap="round" stroke-miterlimit="10" stroke-width="1"/>
      <path id="Trazado_228447" data-name="Trazado 228447" d="M429.52,78.88h0a2.22,2.22,0,0,1-2.23-2.22V61.1a2.23,2.23,0,0,1,2.23-2.23h0a2.22,2.22,0,0,1,2.22,2.23V76.66a2.21,2.21,0,0,1-2.22,2.22Z" fill="#fff" stroke="#263238" stroke-linecap="round" stroke-miterlimit="10" stroke-width="1"/>
      <path id="Trazado_228448" data-name="Trazado 228448" d="M438.41,78.88h0a2.21,2.21,0,0,1-2.22-2.22V61.1a2.22,2.22,0,0,1,2.22-2.23h0a2.22,2.22,0,0,1,2.22,2.23V76.66a2.21,2.21,0,0,1-2.22,2.22Z" fill="#fff" stroke="#263238" stroke-linecap="round" stroke-miterlimit="10" stroke-width="1"/>
    </g>
    <g id="freepik--Money--inject-193">
      <rect id="Rectángulo_36398" data-name="Rectángulo 36398" width="119.46" height="223.68" transform="translate(127.63 39.85)" fill="#fff" stroke="#263238" stroke-linecap="round" stroke-miterlimit="10" stroke-width="1"/>
      <path id="Trazado_228449" data-name="Trazado 228449" d="M142,63.18a8.772,8.772,0,0,1-.9,0v174.7a6.6,6.6,0,0,1,.9,0A8.72,8.72,0,0,1,150.46,249h74.7a8.72,8.72,0,0,1,8.42-11.13V63.18a8.76,8.76,0,0,1-8.76-8.76h-74A8.76,8.76,0,0,1,142,63.18Zm45.32,56.25a32.323,32.323,0,1,0,.04,0Z" fill="#feb62b" stroke="#263238" stroke-linecap="round" stroke-miterlimit="10" stroke-width="1"/>
      <rect id="Rectángulo_36399" data-name="Rectángulo 36399" width="119.46" height="223.68" transform="translate(72.266 78.57) rotate(-15.77)" fill="#fff" stroke="#263238" stroke-linecap="round" stroke-miterlimit="10" stroke-width="1"/>
      <path id="Trazado_228450" data-name="Trazado 228450" d="M92.48,97.1c-.3.08-.59.14-.88.2l47.49,168.16a7.9,7.9,0,0,1,.86-.29,8.76,8.76,0,0,1,10.81,6,9,9,0,0,1,.32,2.38L223,253.29a8.561,8.561,0,0,1-1-2.2,8.76,8.76,0,0,1,6.05-10.81L180.58,72.21a8.75,8.75,0,0,1-10.81-6L98.52,86.29A8.76,8.76,0,0,1,92.48,97.1Zm58.9,41.81a32.26,32.26,0,1,1-22.28,39.81,32.26,32.26,0,0,1,22.28-39.81Z" fill="#feb62b" stroke="#263238" stroke-linecap="round" stroke-miterlimit="10" stroke-width="1"/>
      <rect id="Rectángulo_36400" data-name="Rectángulo 36400" width="119.46" height="223.68" transform="translate(42.446 111.736) rotate(-26.17)" fill="#fff" stroke="#263238" stroke-linecap="round" stroke-miterlimit="10" stroke-width="1"/>
      <path id="Trazado_228451" data-name="Trazado 228451" d="M65.66,126.32a8.669,8.669,0,0,1-.83.36L141.9,283.5c.25-.15.52-.3.79-.43a8.75,8.75,0,0,1,11.72,4,8.469,8.469,0,0,1,.75,2.28l67-32.94a9.289,9.289,0,0,1-1.35-2,8.76,8.76,0,0,1,4-11.72L147.83,86a8.77,8.77,0,0,1-11.73-4L69.66,114.6a8.74,8.74,0,0,1-4,11.72Zm65.49,30.5A32.26,32.26,0,1,1,116.42,200a32.26,32.26,0,0,1,14.73-43.18Z" fill="#feb62b" stroke="#263238" stroke-linecap="round" stroke-miterlimit="10" stroke-width="1"/>
      <rect id="Rectángulo_36401" data-name="Rectángulo 36401" width="119.46" height="223.68" transform="translate(13.213 162.553) rotate(-39.84)" fill="#fff" stroke="#263238" stroke-linecap="round" stroke-miterlimit="10" stroke-width="1"/>
      <path id="Trazado_228452" data-name="Trazado 228452" d="M39.22,171.22a6.139,6.139,0,0,1-.72.54l112,134.17a6.527,6.527,0,0,1,.66-.62,8.77,8.77,0,0,1,13.6,3.15l57.35-47.86a8.43,8.43,0,0,1-1.78-1.61,8.75,8.75,0,0,1,1.12-12.33L109.51,112.57a8.76,8.76,0,0,1-12.34-1.12L40.33,158.88a8.77,8.77,0,0,1-1.11,12.34Zm70.84,14.15a32.26,32.26,0,1,1-4.1,45.44,32.26,32.26,0,0,1,4.1-45.44Z" fill="#feb62b" stroke="#263238" stroke-linecap="round" stroke-miterlimit="10" stroke-width="1"/>
    </g>
    <g id="freepik--Calculator--inject-193">
      <path id="Trazado_228453" data-name="Trazado 228453" d="M102.86,189.64,63,224.39l-6,5.24L17.1,264.38a13.91,13.91,0,0,0-.9,19.31l36.21,37.89L144.6,427.37a11.53,11.53,0,0,0,16.26,1.11l36.88-32.14,10.16-8.85,36.88-32.14a12.77,12.77,0,0,0,1.18-17.2l-92.2-105.79-32.59-41a12.71,12.71,0,0,0-18.31-1.72Z" fill="#fff" stroke="#263238" stroke-miterlimit="10" stroke-width="1"/>
      <path id="Trazado_228454" data-name="Trazado 228454" d="M148.05,235.22,117.62,197a7.8,7.8,0,0,0-11.22-1L22.84,268.74A7.79,7.79,0,0,0,22.33,280l33.75,35.37Z" fill="#263238" stroke="#263238" stroke-miterlimit="10" stroke-width="1"/>
      <rect id="Rectángulo_36402" data-name="Rectángulo 36402" width="112.8" height="38.15" transform="matrix(0.754, -0.657, 0.657, 0.754, 30.238, 279.135)" fill="#696969"/>
      <rect id="Rectángulo_36403" data-name="Rectángulo 36403" width="101.67" height="27.02" transform="matrix(0.754, -0.657, 0.657, 0.754, 38.09, 279.668)" fill="#c2c2c2"/>
      <rect id="Rectángulo_36404" data-name="Rectángulo 36404" width="56.92" height="16.7" rx="4.97" transform="matrix(0.754, -0.657, 0.657, 0.754, 69.673, 324.082)" fill="#696969" stroke="#263238" stroke-miterlimit="10" stroke-width="1"/>
      <line id="Línea_398" data-name="Línea 398" x2="10.84" y2="12.44" transform="translate(78.84 316.36)" fill="none" stroke="#263238" stroke-miterlimit="10" stroke-width="1"/>
      <line id="Línea_399" data-name="Línea 399" x2="10.84" y2="12.44" transform="translate(87.49 308.82)" fill="none" stroke="#263238" stroke-miterlimit="10" stroke-width="1"/>
      <line id="Línea_400" data-name="Línea 400" x2="10.84" y2="12.44" transform="translate(96.15 301.28)" fill="none" stroke="#263238" stroke-miterlimit="10" stroke-width="1"/>
      <line id="Línea_401" data-name="Línea 401" x2="10.84" y2="12.44" transform="translate(104.8 293.74)" fill="none" stroke="#263238" stroke-miterlimit="10" stroke-width="1"/>
      <path id="Trazado_228455" data-name="Trazado 228455" d="M136,275.82h11a4.63,4.63,0,0,1,4.63,4.63v3.86a4.63,4.63,0,0,1-4.63,4.63H136a4.62,4.62,0,0,1-4.62-4.62v-3.86a4.63,4.63,0,0,1,4.63-4.63Z" transform="matrix(0.754, -0.657, 0.657, 0.754, -150.71, 162.45)" fill="#c2c2c2" stroke="#263238" stroke-miterlimit="10" stroke-width="1"/>
      <rect id="Rectángulo_36405" data-name="Rectángulo 36405" width="20.25" height="15.44" rx="4.62" transform="matrix(0.754, -0.657, 0.657, 0.754, 87.85, 344.423)" fill="#c2c2c2" stroke="#263238" stroke-miterlimit="10" stroke-width="1"/>
      <path id="Trazado_228456" data-name="Trazado 228456" d="M113,320.26h11a4.63,4.63,0,0,1,4.63,4.63v6.19a4.63,4.63,0,0,1-4.63,4.63H113a4.62,4.62,0,0,1-4.62-4.62V324.9a4.62,4.62,0,0,1,4.62-4.62Z" transform="matrix(0.754, -0.657, 0.657, 0.754, -186.33, 158.56)" fill="#c2c2c2" stroke="#263238" stroke-miterlimit="10" stroke-width="1"/>
      <path id="Trazado_228457" data-name="Trazado 228457" d="M130.86,304.66h11a4.63,4.63,0,0,1,4.63,4.63v6.19a4.63,4.63,0,0,1-4.63,4.63h-11a4.63,4.63,0,0,1-4.63-4.63v-6.19a4.62,4.62,0,0,1,4.62-4.62Z" transform="matrix(0.754, -0.657, 0.657, 0.754, -171.68, 166.48)" fill="#c2c2c2" stroke="#263238" stroke-miterlimit="10" stroke-width="1"/>
      <path id="Trazado_228458" data-name="Trazado 228458" d="M148.75,289.06h11a4.62,4.62,0,0,1,4.62,4.62v6.19a4.62,4.62,0,0,1-4.62,4.62h-11a4.63,4.63,0,0,1-4.63-4.63v-6.19a4.63,4.63,0,0,1,4.63-4.63Z" transform="matrix(0.754, -0.657, 0.657, 0.754, -157.03, 174.4)" fill="#c2c2c2" stroke="#263238" stroke-miterlimit="10" stroke-width="1"/>
      <path id="Trazado_228459" data-name="Trazado 228459" d="M166.65,273.47h11a4.62,4.62,0,0,1,4.62,4.62v6.19a4.63,4.63,0,0,1-4.63,4.63h-11a4.62,4.62,0,0,1-4.62-4.62V278.1A4.63,4.63,0,0,1,166.65,273.47Z" transform="matrix(0.754, -0.657, 0.657, 0.754, -142.38, 182.31)" fill="#c2c2c2" stroke="#263238" stroke-miterlimit="10" stroke-width="1"/>
      <path id="Trazado_228460" data-name="Trazado 228460" d="M108.7,351.49h11a4.62,4.62,0,0,1,4.62,4.62v6.19a4.63,4.63,0,0,1-4.63,4.63h-11a4.62,4.62,0,0,1-4.62-4.62v-6.19a4.63,4.63,0,0,1,4.63-4.63Z" transform="matrix(0.754, -0.657, 0.657, 0.754, -207.9, 163.45)" fill="#c2c2c2" stroke="#263238" stroke-miterlimit="10" stroke-width="1"/>
      <path id="Trazado_228461" data-name="Trazado 228461" d="M126.6,335.9h11a4.62,4.62,0,0,1,4.62,4.62v6.19a4.63,4.63,0,0,1-4.63,4.63h-11a4.62,4.62,0,0,1-4.62-4.62v-6.19a4.63,4.63,0,0,1,4.63-4.63Z" transform="matrix(0.754, -0.657, 0.657, 0.754, -193.25, 171.36)" fill="#696969" stroke="#263238" stroke-miterlimit="10" stroke-width="1"/>
      <path id="Trazado_228462" data-name="Trazado 228462" d="M144.49,320.3h11a4.63,4.63,0,0,1,4.63,4.63v6.19a4.62,4.62,0,0,1-4.62,4.62h-11a4.63,4.63,0,0,1-4.63-4.63v-6.19A4.62,4.62,0,0,1,144.49,320.3Z" transform="matrix(0.754, -0.657, 0.657, 0.754, -178.6, 179.28)" fill="#696969" stroke="#263238" stroke-miterlimit="10" stroke-width="1"/>
      <rect id="Rectángulo_36406" data-name="Rectángulo 36406" width="20.25" height="15.44" rx="4.62" transform="matrix(0.754, -0.657, 0.657, 0.754, 155.175, 313.279)" fill="#696969" stroke="#263238" stroke-miterlimit="10" stroke-width="1"/>
      <rect id="Rectángulo_36407" data-name="Rectángulo 36407" width="20.25" height="15.44" rx="4.63" transform="matrix(0.754, -0.657, 0.657, 0.754, 173.064, 297.684)" fill="#c2c2c2" stroke="#263238" stroke-miterlimit="10" stroke-width="1"/>
      <path id="Trazado_228463" data-name="Trazado 228463" d="M122.33,367.13h11a4.62,4.62,0,0,1,4.62,4.62v6.19a4.62,4.62,0,0,1-4.62,4.62h-11a4.63,4.63,0,0,1-4.63-4.63v-6.19a4.62,4.62,0,0,1,4.62-4.62Z" transform="matrix(0.754, -0.657, 0.657, 0.754, -214.82, 176.25)" fill="#c2c2c2" stroke="#263238" stroke-miterlimit="10" stroke-width="1"/>
      <path id="Trazado_228464" data-name="Trazado 228464" d="M140.23,351.54h11a4.62,4.62,0,0,1,4.62,4.62v6.19a4.62,4.62,0,0,1-4.62,4.62h-11a4.63,4.63,0,0,1-4.63-4.63v-6.19a4.62,4.62,0,0,1,4.62-4.62Z" transform="matrix(0.754, -0.657, 0.657, 0.754, -200.17, 184.17)" fill="#696969" stroke="#263238" stroke-miterlimit="10" stroke-width="1"/>
      <path id="Trazado_228465" data-name="Trazado 228465" d="M158.12,335.94h11a4.62,4.62,0,0,1,4.62,4.62v6.19a4.62,4.62,0,0,1-4.62,4.62h-11a4.63,4.63,0,0,1-4.63-4.63v-6.19a4.63,4.63,0,0,1,4.63-4.63Z" transform="matrix(0.754, -0.657, 0.657, 0.754, -185.52, 192.09)" fill="#696969" stroke="#263238" stroke-miterlimit="10" stroke-width="1"/>
      <path id="Trazado_228466" data-name="Trazado 228466" d="M176,320.35h11a4.63,4.63,0,0,1,4.63,4.63v6.19A4.63,4.63,0,0,1,187,335.8H176a4.62,4.62,0,0,1-4.62-4.62V325a4.62,4.62,0,0,1,4.62-4.65Z" transform="matrix(0.754, -0.657, 0.657, 0.754, -170.87, 200.01)" fill="#696969" stroke="#263238" stroke-miterlimit="10" stroke-width="1"/>
      <path id="Trazado_228467" data-name="Trazado 228467" d="M193.91,304.75h11a4.62,4.62,0,0,1,4.62,4.62v6.19a4.63,4.63,0,0,1-4.63,4.63h-11a4.63,4.63,0,0,1-4.63-4.63v-6.19a4.62,4.62,0,0,1,4.62-4.62Z" transform="matrix(0.754, -0.657, 0.657, 0.754, -156.22, 207.93)" fill="#c2c2c2" stroke="#263238" stroke-miterlimit="10" stroke-width="1"/>
      <path id="Trazado_228468" data-name="Trazado 228468" d="M136,382.78h11a4.62,4.62,0,0,1,4.62,4.62v6.19a4.63,4.63,0,0,1-4.63,4.63H136a4.63,4.63,0,0,1-4.63-4.63V387.4a4.62,4.62,0,0,1,4.63-4.62Z" transform="matrix(0.754, -0.657, 0.657, 0.754, -221.74, 189.06)" fill="#feb62b" stroke="#263238" stroke-linecap="round" stroke-miterlimit="10" stroke-width="1"/>
      <path id="Trazado_228469" data-name="Trazado 228469" d="M153.86,367.18h11a4.63,4.63,0,0,1,4.63,4.63V378a4.63,4.63,0,0,1-4.63,4.63h-11a4.62,4.62,0,0,1-4.62-4.62v-6.19a4.62,4.62,0,0,1,4.62-4.64Z" transform="matrix(0.754, -0.657, 0.657, 0.754, -207.09, 196.98)" fill="#696969" stroke="#263238" stroke-miterlimit="10" stroke-width="1"/>
      <rect id="Rectángulo_36408" data-name="Rectángulo 36408" width="20.25" height="15.44" rx="4.63" transform="matrix(0.75, -0.66, 0.66, 0.75, 164.957, 358.287)" fill="#696969" stroke="#263238" stroke-miterlimit="10" stroke-width="1"/>
      <rect id="Rectángulo_36409" data-name="Rectángulo 36409" width="20.25" height="15.44" rx="4.62" transform="matrix(0.754, -0.657, 0.657, 0.754, 182.437, 344.572)" fill="#696969" stroke="#263238" stroke-miterlimit="10" stroke-width="1"/>
      <path id="Trazado_228470" data-name="Trazado 228470" d="M149.6,398.42h11a4.62,4.62,0,0,1,4.62,4.62v6.19a4.62,4.62,0,0,1-4.62,4.62h-11a4.63,4.63,0,0,1-4.63-4.63V403a4.63,4.63,0,0,1,4.63-4.63Z" transform="matrix(0.754, -0.657, 0.657, 0.754, -228.67, 201.87)" fill="#feb62b" stroke="#263238" stroke-linecap="round" stroke-miterlimit="10" stroke-width="1"/>
      <path id="Trazado_228471" data-name="Trazado 228471" d="M167.49,382.82h11a4.63,4.63,0,0,1,4.63,4.63v6.19a4.63,4.63,0,0,1-4.63,4.63h-11a4.63,4.63,0,0,1-4.63-4.63v-6.19a4.62,4.62,0,0,1,4.63-4.63Z" transform="matrix(0.754, -0.657, 0.657, 0.754, -214.02, 209.78)" fill="#696969" stroke="#263238" stroke-miterlimit="10" stroke-width="1"/>
      <path id="Trazado_228472" data-name="Trazado 228472" d="M185.39,367.23h11a4.63,4.63,0,0,1,4.63,4.63V378a4.63,4.63,0,0,1-4.63,4.63h-11a4.63,4.63,0,0,1-4.63-4.63v-6.19a4.62,4.62,0,0,1,4.63-4.58Z" transform="matrix(0.754, -0.657, 0.657, 0.754, -199.37, 217.7)" fill="#696969" stroke="#263238" stroke-miterlimit="10" stroke-width="1"/>
      <path id="Trazado_228473" data-name="Trazado 228473" d="M203.28,351.63h11a4.62,4.62,0,0,1,4.62,4.62v6.19a4.63,4.63,0,0,1-4.63,4.63h-11a4.62,4.62,0,0,1-4.62-4.62v-6.19a4.62,4.62,0,0,1,4.62-4.62Z" transform="matrix(0.754, -0.657, 0.657, 0.754, -184.71, 225.62)" fill="#c2c2c2" stroke="#263238" stroke-miterlimit="10" stroke-width="1"/>
      <path id="Trazado_228474" data-name="Trazado 228474" d="M213.29,317.66l-10.64,9.27a3.07,3.07,0,0,0-.29,4.33l2.83,3.26,3.27,3.75,13.64,15.64a3.07,3.07,0,0,0,4.33.3l10.64-9.27a3.07,3.07,0,0,0,.29-4.33L223.73,325l-3.27-3.75L217.62,318a3.07,3.07,0,0,0-4.33-.34Z" fill="#c2c2c2" stroke="#263238" stroke-miterlimit="10" stroke-width="1"/>
      <path id="Trazado_228475" data-name="Trazado 228475" d="M154,260.12h11a4.63,4.63,0,0,1,4.63,4.63v3.86a4.62,4.62,0,0,1-4.62,4.62H154a4.62,4.62,0,0,1-4.62-4.62v-3.86a4.63,4.63,0,0,1,4.62-4.63Z" transform="matrix(0.754, -0.657, 0.657, 0.754, -135.95, 170.43)" fill="#feb62b" stroke="#263238" stroke-linecap="round" stroke-miterlimit="10" stroke-width="1"/>
      <path id="Trazado_228476" data-name="Trazado 228476" d="M156.94,273.2a4.55,4.55,0,0,1-3.63-4.15,3.681,3.681,0,0,1,3.84-3.35,4.56,4.56,0,0,1,3.62,4.16,3.66,3.66,0,0,1-3.83,3.34Zm2.84-3.27a4.06,4.06,0,0,0-2.84-3.26A2.35,2.35,0,0,0,154.3,269a3.45,3.45,0,0,0,.95,2,3.37,3.37,0,0,0,1.89,1.22,2.13,2.13,0,0,0,1.84-.56,2.09,2.09,0,0,0,.8-1.73Z" fill="#fff"/>
      <path id="Trazado_228477" data-name="Trazado 228477" d="M163.25,268.74a.4.4,0,0,1-.33-.16l-4.08-4.68a.72.72,0,0,1-.2-.48.6.6,0,0,1,.2-.41.76.76,0,0,1,.35-.16.86.86,0,0,1,.45,0L166,264.5l-3.54-4.06a.41.41,0,0,1-.11-.34.46.46,0,0,1,.17-.32.59.59,0,0,1,.33-.13.41.41,0,0,1,.33.16l4.09,4.69a.66.66,0,0,1,.18.48.64.64,0,0,1-.22.43.86.86,0,0,1-.33.17.81.81,0,0,1-.38,0l-6.4-1.64,3.5,4a.44.44,0,0,1,.11.35.55.55,0,0,1-.18.32.52.52,0,0,1-.3.13Z" fill="#fff"/>
      <path id="Trazado_228478" data-name="Trazado 228478" d="M100.46,349.26a.84.84,0,0,1-.43-.08L94.7,346.7l3.67,4.22a.31.31,0,0,1,.08.29.64.64,0,0,1-.19.3.67.67,0,0,1-.32.15.34.34,0,0,1-.29-.12l-4-4.58a.63.63,0,0,1-.15-.53.82.82,0,0,1,.28-.51.84.84,0,0,1,.47-.2,1,1,0,0,1,.57.1l5.16,2.37-1.64-5.43a.95.95,0,0,1,.23-1,.91.91,0,0,1,.55-.21.64.64,0,0,1,.51.22l4,4.59a.29.29,0,0,1,.07.3.55.55,0,0,1-.19.29.67.67,0,0,1-.32.15.32.32,0,0,1-.28-.12l-3.67-4.21,1.72,5.62a.71.71,0,0,1,0,.43.6.6,0,0,1-.18.32.65.65,0,0,1-.32.12Z" fill="#fff"/>
      <path id="Trazado_228479" data-name="Trazado 228479" d="M106,344.31a3.22,3.22,0,0,1-1.76-.25,4.39,4.39,0,0,1-1.55-1.18,4.62,4.62,0,0,1-.79-1.27,3.739,3.739,0,0,1-.29-1.36,3,3,0,0,1,.3-1.33,3.42,3.42,0,0,1,.91-1.19,3.66,3.66,0,0,1,1.71-.86.37.37,0,0,1,.4.12.38.38,0,0,1,.1.29.34.34,0,0,1-.12.27.529.529,0,0,1-.15.08h-.14l-.18.06-.21.07-.25.12-.28.17-.31.25a2.55,2.55,0,0,0-.58.71,1.85,1.85,0,0,0-.23.77,2.38,2.38,0,0,0,.07.79,3,3,0,0,0,.32.8,5.852,5.852,0,0,0,.54.75,4.917,4.917,0,0,0,.67.63,3.24,3.24,0,0,0,.74.43,2.368,2.368,0,0,0,.77.17,1.91,1.91,0,0,0,.8-.14,2.44,2.44,0,0,0,.8-.49,2.38,2.38,0,0,0,.52-.61,5.27,5.27,0,0,0,.33-.75.61.61,0,0,1,.11-.18.39.39,0,0,1,.55.05.45.45,0,0,1,.07.47,3.58,3.58,0,0,1-1.15,1.75,3.33,3.33,0,0,1-1.72.86Z" fill="#fff"/>
      <path id="Trazado_228480" data-name="Trazado 228480" d="M155.22,408.74l-2.66,2.32.57,1.57a.47.47,0,0,1-.14.57.57.57,0,0,1-.35.14.39.39,0,0,1-.33-.14.55.55,0,0,1-.1-.17l-2.14-6.17a1.28,1.28,0,0,1-.09-.68.81.81,0,0,1,.29-.44.9.9,0,0,1,.47-.23,1.37,1.37,0,0,1,.66.19l5.82,3a.741.741,0,0,1,.16.12.43.43,0,0,1,.09.35.61.61,0,0,1-.19.33.48.48,0,0,1-.58.06Zm-4.31-2.26,1.38,3.82,2.22-1.93Z" fill="#fff"/>
      <path id="Trazado_228481" data-name="Trazado 228481" d="M159.28,407.16a3.16,3.16,0,0,1-1.77-.24,4.48,4.48,0,0,1-1.54-1.18,4.349,4.349,0,0,1-.8-1.28,3.85,3.85,0,0,1-.29-1.35,3.22,3.22,0,0,1,.3-1.34,3.509,3.509,0,0,1,.91-1.19,3.73,3.73,0,0,1,1.71-.85.38.38,0,0,1,.4.11.41.41,0,0,1,.11.3.39.39,0,0,1-.13.27.53.53,0,0,1-.15.08h-.14l-.18.05-.21.08-.25.12a2.287,2.287,0,0,0-.27.17l-.32.25a2.419,2.419,0,0,0-.58.71,2,2,0,0,0-.23.77,2.4,2.4,0,0,0,.07.79,3.36,3.36,0,0,0,.32.79,5.3,5.3,0,0,0,.54.76,5.583,5.583,0,0,0,.67.63,3.051,3.051,0,0,0,.74.42,2.21,2.21,0,0,0,.77.18,2.08,2.08,0,0,0,.8-.14,2.62,2.62,0,0,0,.8-.49,2.42,2.42,0,0,0,.52-.62,5.35,5.35,0,0,0,.34-.75.34.34,0,0,1,.11-.17.35.35,0,0,1,.28-.09.4.4,0,0,1,.27.14.5.5,0,0,1,.07.47,3.65,3.65,0,0,1-1.16,1.75,3.32,3.32,0,0,1-1.71.85Z" fill="#fff"/>
      <path id="Trazado_228482" data-name="Trazado 228482" d="M142.46,394.05a3.18,3.18,0,0,1-1.77-.25,4.36,4.36,0,0,1-1.54-1.18,4.52,4.52,0,0,1-.8-1.27,3.94,3.94,0,0,1-.28-1.36,3,3,0,0,1,.29-1.33,3.54,3.54,0,0,1,.91-1.19,3.75,3.75,0,0,1,1.71-.86.38.38,0,0,1,.41.12.43.43,0,0,1,.1.29.34.34,0,0,1-.12.27.48.48,0,0,1-.16.08h-.13a.741.741,0,0,0-.19,0l-.2.07-.26.12-.27.18a2.337,2.337,0,0,0-.31.24,2.52,2.52,0,0,0-.58.71,1.91,1.91,0,0,0-.24.77,2.77,2.77,0,0,0,.07.8,3.16,3.16,0,0,0,.33.79,4.388,4.388,0,0,0,.54.75,4,4,0,0,0,.67.63,3.179,3.179,0,0,0,.73.43,2.43,2.43,0,0,0,.78.17,1.93,1.93,0,0,0,.8-.14,2.4,2.4,0,0,0,.79-.49,2.441,2.441,0,0,0,.53-.61,4.417,4.417,0,0,0,.33-.75.36.36,0,0,1,.11-.17.37.37,0,0,1,.28-.09.39.39,0,0,1,.27.13.48.48,0,0,1,.07.47,3.6,3.6,0,0,1-1.16,1.75,3.34,3.34,0,0,1-1.71.92Z" fill="#fff"/>
      <path id="Trazado_228483" data-name="Trazado 228483" d="M111.23,362.18a2.42,2.42,0,0,1-1.88-2.17,1.59,1.59,0,0,1,.58-1.27,1.85,1.85,0,0,1,.71-.39,1.6,1.6,0,0,1,.72,0,2.21,2.21,0,0,1,.65.28,2.34,2.34,0,0,1,.56.48,2.12,2.12,0,0,1,.58,1.39,1.55,1.55,0,0,1-.59,1.27,1.6,1.6,0,0,1-1.33.41Zm1.25-1.39a1,1,0,0,0-.1-.6,2.46,2.46,0,0,0-.39-.58,2.241,2.241,0,0,0-.52-.47,1.2,1.2,0,0,0-.58-.18.83.83,0,0,0-.57.22.82.82,0,0,0-.3.54,1.1,1.1,0,0,0,.1.59,2.46,2.46,0,0,0,.39.58,2.27,2.27,0,0,0,.53.47,1,1,0,0,0,.58.18.86.86,0,0,0,.86-.75Zm2.45,3.57a.26.26,0,0,1-.21-.09.38.38,0,0,1-.07-.18l-1.64-8a.35.35,0,0,1,.09-.35.32.32,0,0,1,.22-.07.31.31,0,0,1,.2.11.41.41,0,0,1,.09.2l1.62,7.95a.31.31,0,0,1-.08.33.33.33,0,0,1-.22.1Zm2.26-2.87a2.19,2.19,0,0,1-1.3-.78,2.13,2.13,0,0,1-.57-1.38,1.57,1.57,0,0,1,.58-1.27,1.81,1.81,0,0,1,.7-.39,1.47,1.47,0,0,1,.72,0,2.07,2.07,0,0,1,.65.28,2.3,2.3,0,0,1,.56.48,2.42,2.42,0,0,1,.51.89,1.77,1.77,0,0,1,0,.94,1.7,1.7,0,0,1-.53.83,1.59,1.59,0,0,1-1.32.4Zm1.25-1.39a1.1,1.1,0,0,0-.1-.59,2.731,2.731,0,0,0-.39-.59,3.2,3.2,0,0,0-.39-.36,1.759,1.759,0,0,0-.42-.24.82.82,0,0,0-.44,0,.93.93,0,0,0-.42.21.78.78,0,0,0-.3.54,1.16,1.16,0,0,0,.1.6,2.681,2.681,0,0,0,.39.58,2.461,2.461,0,0,0,.53.46,1.08,1.08,0,0,0,.57.19.84.84,0,0,0,.58-.23.79.79,0,0,0,.29-.57Z" fill="#fff"/>
      <path id="Trazado_228484" data-name="Trazado 228484" d="M134,347.22a.42.42,0,0,1-.35-.15.62.62,0,0,1-.1-.2l-1.9-6-2.55,2.23a.44.44,0,0,1-.31.11.41.41,0,0,1-.27-.15.39.39,0,0,1-.11-.29.38.38,0,0,1,.15-.29l3-2.59a.65.65,0,0,1,.41-.18.44.44,0,0,1,.34.17,1.091,1.091,0,0,1,.23.39l2,6.32a.44.44,0,0,1-.14.5.52.52,0,0,1-.4.13Z" fill="#fff"/>
      <path id="Trazado_228485" data-name="Trazado 228485" d="M151.76,331.74a2.06,2.06,0,0,1-1.15.06,2.038,2.038,0,0,1-1.49-1.78,1.73,1.73,0,0,1,.39-1.2,1.71,1.71,0,0,1-1.16.21,1.78,1.78,0,0,1-1-.6,1.76,1.76,0,0,1-.46-1,2,2,0,0,1,.21-1.08,3.44,3.44,0,0,1,.78-1,3.771,3.771,0,0,1,.79-.53,2.891,2.891,0,0,1,.82-.23,1.71,1.71,0,0,1,.8.13,1.941,1.941,0,0,1,.71.52,1.7,1.7,0,0,1,.45,1,1.73,1.73,0,0,1-.35,1.1,1.92,1.92,0,0,1,1.25-.21,1.9,1.9,0,0,1,1.05.64,2,2,0,0,1,.49,1.08,2.14,2.14,0,0,1-.22,1.13,3.39,3.39,0,0,1-.82,1A3.51,3.51,0,0,1,151.76,331.74Zm1.22-2.21a1.15,1.15,0,0,0-.32-1,1.26,1.26,0,0,0-1-.5,1.76,1.76,0,0,0-1.62,1.41,1.3,1.3,0,0,0,.35,1.07,1.26,1.26,0,0,0,.64.41,1.16,1.16,0,0,0,.69,0,2.331,2.331,0,0,0,.66-.4,1.75,1.75,0,0,0,.62-.99Zm-2.38-2.7a1.11,1.11,0,0,0-.32-.94,1,1,0,0,0-.9-.42,1.78,1.78,0,0,0-1,.46,2.249,2.249,0,0,0-.36.4,1.849,1.849,0,0,0-.21.45,1.06,1.06,0,0,0,0,.5,1.22,1.22,0,0,0,.28.49,1.09,1.09,0,0,0,.89.44,1.63,1.63,0,0,0,1-.45,1.67,1.67,0,0,0,.62-.93Z" fill="#fff"/>
      <path id="Trazado_228486" data-name="Trazado 228486" d="M168.55,316.91a.35.35,0,0,1-.35-.12.51.51,0,0,1-.13-.32.34.34,0,0,1,.1-.28l.12-.06a3.09,3.09,0,0,0,1.18-.62,2.58,2.58,0,0,0,.42-.47,1.75,1.75,0,0,0,.21-.47,1.38,1.38,0,0,0,0-.5,2.171,2.171,0,0,0-.13-.5,2.788,2.788,0,0,0-.26-.52c-.11-.18-.24-.36-.36-.53a6.372,6.372,0,0,0-.46-.54,1.36,1.36,0,0,1,0,1,2,2,0,0,1-.67,1,2.22,2.22,0,0,1-1.7.62,2.3,2.3,0,0,1-1.58-.85,2.37,2.37,0,0,1-.64-1.76,2.4,2.4,0,0,1,.91-1.69,2.72,2.72,0,0,1,.93-.57,2.13,2.13,0,0,1,.91-.14,2.37,2.37,0,0,1,.86.24,3.469,3.469,0,0,1,.8.5,6.051,6.051,0,0,1,.73.71c.19.22.37.44.52.65a6.527,6.527,0,0,1,.46.7,5,5,0,0,1,.36.74,3.13,3.13,0,0,1,.18.76,2.58,2.58,0,0,1,0,.79,2.47,2.47,0,0,1-.33.76,3.42,3.42,0,0,1-.65.75A3.54,3.54,0,0,1,168.55,316.91Zm-.08-4.7A1.68,1.68,0,0,0,168,311a1.66,1.66,0,0,0-1-.59,1.39,1.39,0,0,0-1.14.38,1.43,1.43,0,0,0-.56,1.07,1.67,1.67,0,0,0,.47,1.14,1.78,1.78,0,0,0,1,.64,1.28,1.28,0,0,0,1.1-.36,1.56,1.56,0,0,0,.6-1.07Z" fill="#fff"/>
      <path id="Trazado_228487" data-name="Trazado 228487" d="M148.88,361.15a.44.44,0,0,1-.34-.16l-.74-.85-2.21,1.92a.49.49,0,0,1-.39.13.56.56,0,0,1-.36-.19.6.6,0,0,1-.14-.3l-.78-5.16a1,1,0,0,1,.31-.92.75.75,0,0,1,.51-.2.69.69,0,0,1,.51.27l2.81,3.22.56-.49a.34.34,0,0,1,.28-.09.36.36,0,0,1,.25.13.39.39,0,0,1,.1.26.36.36,0,0,1-.14.27l-.56.49.74.86a.39.39,0,0,1,.11.35.52.52,0,0,1-.18.32A.58.58,0,0,1,148.88,361.15Zm-1.58-1.58-2.59-3,.74,4.58Z" fill="#fff"/>
      <path id="Trazado_228488" data-name="Trazado 228488" d="M165.25,346.92a3.55,3.55,0,0,1-1.15.18.27.27,0,0,1-.22-.1.47.47,0,0,1-.11-.33.39.39,0,0,1,.13-.31.21.21,0,0,1,.17-.07,2.38,2.38,0,0,0,1.64-.61,1.49,1.49,0,0,0,.59-1.07,1.83,1.83,0,0,0-1.48-1.71,1.32,1.32,0,0,0-1,.36,1.8,1.8,0,0,0-.49.68,1.74,1.74,0,0,0-.17.77.26.26,0,0,1-.11.18.89.89,0,0,1-.39.19.32.32,0,0,1-.34-.06l-2.2-2.52a.43.43,0,0,1,.07-.68l2.54-2.21a.37.37,0,0,1,.29-.1.45.45,0,0,1,.26.14.39.39,0,0,1,.1.27.36.36,0,0,1-.14.27l-2.29,2,1.62,1.88V344a.85.85,0,0,1,0-.24,3.426,3.426,0,0,1,.12-.33A2.151,2.151,0,0,1,163,343a2.689,2.689,0,0,1,.4-.43A2.15,2.15,0,0,1,165,342a2.39,2.39,0,0,1,1.58.87,2.28,2.28,0,0,1,.61,1.76,2.5,2.5,0,0,1-.93,1.67A3.29,3.29,0,0,1,165.25,346.92Z" fill="#fff"/>
      <path id="Trazado_228489" data-name="Trazado 228489" d="M182.8,331.64a2.07,2.07,0,0,1-.9.14,2.561,2.561,0,0,1-.86-.23,3.888,3.888,0,0,1-.8-.51,6.05,6.05,0,0,1-.73-.71c-.2-.22-.37-.44-.53-.65a7.091,7.091,0,0,1-.46-.7,4.08,4.08,0,0,1-.35-.74,3.13,3.13,0,0,1-.18-.76,2.581,2.581,0,0,1,0-.79,2.43,2.43,0,0,1,.32-.76,3.48,3.48,0,0,1,.66-.75,3.57,3.57,0,0,1,1.44-.76.36.36,0,0,1,.36.12.51.51,0,0,1,.13.32.31.31,0,0,1-.11.28.17.17,0,0,1-.11.06,3.15,3.15,0,0,0-1.18.62,2.58,2.58,0,0,0-.42.47,1.751,1.751,0,0,0-.21.47,1.38,1.38,0,0,0,0,.5,2.15,2.15,0,0,0,.12.5,2.9,2.9,0,0,0,.27.52,6.176,6.176,0,0,0,.36.53c.13.16.28.35.46.54a1.33,1.33,0,0,1,0-1,2.07,2.07,0,0,1,.67-1,2.26,2.26,0,0,1,1.7-.62,2.42,2.42,0,0,1,1.31,4.31,2.85,2.85,0,0,1-.96.6Zm-2.28-2.52a1.66,1.66,0,0,0,.47,1.17,1.61,1.61,0,0,0,1,.59,1.37,1.37,0,0,0,1.13-.38,1.46,1.46,0,0,0,.57-1.07,1.67,1.67,0,0,0-.47-1.14,1.78,1.78,0,0,0-1-.64,1.27,1.27,0,0,0-1.1.36,1.54,1.54,0,0,0-.6,1.11Z" fill="#fff"/>
      <path id="Trazado_228490" data-name="Trazado 228490" d="M162.13,377.79a.47.47,0,0,1-.35-.17L158,373.27l-.37,1.27a.369.369,0,0,1-.38.26.37.37,0,0,1-.33-.47l.61-2a.47.47,0,0,1,.16-.24A.44.44,0,0,1,158,372a.45.45,0,0,1,.35.18l4.17,4.78a.4.4,0,0,1,.12.38.51.51,0,0,1-.19.33.52.52,0,0,1-.32.12Z" fill="#fff"/>
      <path id="Trazado_228491" data-name="Trazado 228491" d="M178.89,357.78a4.65,4.65,0,0,1,0,1.47l-.27,3.27,2.33-2a.37.37,0,0,1,.56,0,.35.35,0,0,1,.1.27.38.38,0,0,1-.15.29l-2.66,2.32a.72.72,0,0,1-.47.2.45.45,0,0,1-.38-.16.67.67,0,0,1-.15-.54l.23-3.79a3.36,3.36,0,0,0,0-1,1.55,1.55,0,0,0-.32-.67,1.26,1.26,0,0,0-.94-.48,1.31,1.31,0,0,0-1,.35,3.138,3.138,0,0,0-.44.46,2.411,2.411,0,0,0-.23.36,2.45,2.45,0,0,0-.15.38c-.05.17-.09.28-.1.31a.27.27,0,0,1-.09.12.44.44,0,0,1-.59-.05.37.37,0,0,1-.06-.37,4.54,4.54,0,0,1,.43-1,3.23,3.23,0,0,1,.75-.87,2.2,2.2,0,0,1,1.61-.6,1.9,1.9,0,0,1,1.44.68A2.36,2.36,0,0,1,178.89,357.78Z" fill="#fff"/>
      <path id="Trazado_228492" data-name="Trazado 228492" d="M196,348.13a.44.44,0,0,1-.46-.12.39.39,0,0,1-.1-.3.35.35,0,0,1,.12-.28l.11-.06a3.309,3.309,0,0,0,1.29-.68,1.87,1.87,0,0,0,.63-1,1.08,1.08,0,0,0-.27-1,1.34,1.34,0,0,0-1.08-.49,2,2,0,0,0-1.2.52l-.28.24a.34.34,0,0,1-.27.1.38.38,0,0,1-.25-.14.37.37,0,0,1-.1-.26.31.31,0,0,1,.12-.26l.26-.22a1.85,1.85,0,0,0,.65-1,1.11,1.11,0,0,0-.29-1,1,1,0,0,0-.87-.39,1.55,1.55,0,0,0-.94.4,3.45,3.45,0,0,0-.9,1.25.23.23,0,0,1-.07.1.34.34,0,0,1-.3.07.49.49,0,0,1-.3-.16.33.33,0,0,1-.07-.34,2.921,2.921,0,0,1,.4-.74,4.3,4.3,0,0,1,.71-.81,3,3,0,0,1,1-.63,1.85,1.85,0,0,1,1.09-.06,1.81,1.81,0,0,1,1,.62,1.56,1.56,0,0,1,.42,1,1.92,1.92,0,0,1-.28,1,1.81,1.81,0,0,1,1.22-.18,2,2,0,0,1,1.09.67,2.15,2.15,0,0,1,.45.84,1.79,1.79,0,0,1,0,.86,2.829,2.829,0,0,1-.37.79,3.189,3.189,0,0,1-.63.71,3.68,3.68,0,0,1-1.53.95Z" fill="#fff"/>
      <path id="Trazado_228493" data-name="Trazado 228493" d="M174.47,393.55a2,2,0,0,1-.92.07,2.87,2.87,0,0,1-.91-.33,4.721,4.721,0,0,1-.86-.6,7.879,7.879,0,0,1-.81-.82q-2.49-2.85-.54-4.55c1.3-1.13,2.77-.74,4.43,1.16a8.9,8.9,0,0,1,.7.91,5.11,5.11,0,0,1,.48.93,3.11,3.11,0,0,1,.2.94,2.13,2.13,0,0,1-.19.91,2.69,2.69,0,0,1-1.58,1.38Zm.7-1.57a1.26,1.26,0,0,0,.12-.45,2.1,2.1,0,0,0-.06-.48,2.621,2.621,0,0,0-.19-.49,4.267,4.267,0,0,0-.28-.49c-.12-.17-.23-.33-.34-.46l-.36-.43-.39-.44-.43-.4a3.2,3.2,0,0,0-.44-.35,2.51,2.51,0,0,0-.46-.24,1.36,1.36,0,0,0-.46-.12,1.06,1.06,0,0,0-.46.06,1.34,1.34,0,0,0-.44.26,1.31,1.31,0,0,0-.32.4.94.94,0,0,0-.12.44,1.36,1.36,0,0,0,.05.48,2,2,0,0,0,.18.48,3.292,3.292,0,0,0,.29.49,5,5,0,0,0,.34.48l.37.45.39.42.41.39a4.434,4.434,0,0,0,.45.36,3.211,3.211,0,0,0,.45.24,1.521,1.521,0,0,0,.47.13,1.24,1.24,0,0,0,.46-.06,1.15,1.15,0,0,0,.45-.26,1.239,1.239,0,0,0,.32-.39Z" fill="#fff"/>
      <path id="Trazado_228494" data-name="Trazado 228494" d="M190.89,376.1a1.12,1.12,0,0,1-.83-.4,1.15,1.15,0,0,1-.28-.86,1.23,1.23,0,0,1,.48-.89,1.25,1.25,0,0,1,.93-.35,1.17,1.17,0,0,1,1.11,1.27,1.29,1.29,0,0,1-.47.89,1.25,1.25,0,0,1-.94.34Z" fill="#fff"/>
      <path id="Trazado_228495" data-name="Trazado 228495" d="M170.07,279.93a1.13,1.13,0,0,1-.8-.4,1.1,1.1,0,0,1-.27-.83,1.26,1.26,0,0,1,.46-.87,1.3,1.3,0,0,1,.91-.34,1.13,1.13,0,0,1,1.08,1.24,1.378,1.378,0,0,1-1.38,1.2Z" fill="#fff"/>
      <path id="Trazado_228496" data-name="Trazado 228496" d="M174.56,285.08a1.17,1.17,0,0,1-.81-.4,1.08,1.08,0,0,1-.26-.84A1.22,1.22,0,0,1,174,283a1.25,1.25,0,0,1,.91-.34,1.09,1.09,0,0,1,.8.38,1.14,1.14,0,0,1,.28.85,1.38,1.38,0,0,1-1.38,1.21Z" fill="#fff"/>
      <path id="Trazado_228497" data-name="Trazado 228497" d="M205.45,361.49a.6.6,0,0,1-.42-.2.53.53,0,0,1-.14-.46.65.65,0,0,1,.25-.44l5.49-4.79a.69.69,0,0,1,.47-.18.52.52,0,0,1,.44.2.54.54,0,0,1,.13.46.67.67,0,0,1-.24.44l-5.52,4.81a.61.61,0,0,1-.46.16Zm2.21,2.53a.59.59,0,0,1-.42-.19.6.6,0,0,1-.14-.46.67.67,0,0,1,.25-.45l5.51-4.8a.59.59,0,0,1,.45-.17.56.56,0,0,1,.44.21.53.53,0,0,1,.13.45.65.65,0,0,1-.24.43l-5.53,4.82a.58.58,0,0,1-.45.14Z" fill="#fff"/>
      <path id="Trazado_228498" data-name="Trazado 228498" d="M186.21,297.93l.26,3.42a.5.5,0,0,1-.15.45.47.47,0,0,1-.33.1.39.39,0,0,1-.3-.14.44.44,0,0,1-.11-.28l-.24-3.74-3.54-.8a.28.28,0,0,1-.2-.12.44.44,0,0,1-.11-.36.52.52,0,0,1,.18-.36.47.47,0,0,1,.44-.09l3.23.72-.25-3.3a.52.52,0,0,1,.17-.46.4.4,0,0,1,.3-.11.37.37,0,0,1,.28.13.46.46,0,0,1,.1.26l.28,3.68,3.62.82a.46.46,0,0,1,.25.13.45.45,0,0,1,.09.36.61.61,0,0,1-.19.34.43.43,0,0,1-.42.1Z" fill="#fff"/>
      <path id="Trazado_228499" data-name="Trazado 228499" d="M223.57,341.06a.73.73,0,0,1-.5-.28l-2.23-2.55-2.66,2.32a.85.85,0,0,1-.55.2A.69.69,0,0,1,217,340a.83.83,0,0,1,.29-.51l2.67-2.32-2.25-2.58a.74.74,0,0,1-.2-.54.63.63,0,0,1,.25-.51.67.67,0,0,1,.53-.18.76.76,0,0,1,.51.27l2.25,2.58,2.67-2.32a.86.86,0,0,1,.54-.22.66.66,0,0,1,.5.23.62.62,0,0,1,.16.53.77.77,0,0,1-.28.52l-2.67,2.32,2.23,2.56a.7.7,0,0,1,.19.53.69.69,0,0,1-.24.51.76.76,0,0,1-.58.19Z" fill="#fff"/>
      <path id="Trazado_228500" data-name="Trazado 228500" d="M126.86,379.37a.55.55,0,0,1-.37-.2l-1.62-1.86L122.93,379a.56.56,0,0,1-.39.15.48.48,0,0,1-.37-.17.45.45,0,0,1-.12-.38.61.61,0,0,1,.21-.37l1.94-1.69-1.64-1.88a.51.51,0,0,1-.14-.39.49.49,0,0,1,.18-.37.52.52,0,0,1,.39-.13.53.53,0,0,1,.37.2l1.64,1.88,1.94-1.7a.56.56,0,0,1,.39-.15.46.46,0,0,1,.37.17.48.48,0,0,1,.11.38.51.51,0,0,1-.2.37l-1.94,1.7,1.62,1.86a.54.54,0,0,1,.14.38.53.53,0,0,1-.18.37A.5.5,0,0,1,126.86,379.37Z" fill="#fff"/>
      <path id="Trazado_228501" data-name="Trazado 228501" d="M196.83,315.61a.34.34,0,0,1-.3-.11.36.36,0,0,1-.07-.31.75.75,0,0,1,.26-.38l5.31-4.63a.71.71,0,0,1,.41-.2.35.35,0,0,1,.31.11.33.33,0,0,1,.06.31.77.77,0,0,1-.26.37l-5.31,4.64A.75.75,0,0,1,196.83,315.61Z" fill="#fff"/>
      <path id="Trazado_228502" data-name="Trazado 228502" d="M131.68,377a.411.411,0,0,1-.37-.42.35.35,0,0,1,.15-.28l3.59-3.13a.36.36,0,0,1,.3-.11.39.39,0,0,1,.26.14.43.43,0,0,1,.11.28.41.41,0,0,1-.15.28L132,376.91a.38.38,0,0,1-.32.09Z" fill="#fff"/>
      <path id="Trazado_228503" data-name="Trazado 228503" d="M130.54,379.89a.275.275,0,0,1-.23.28c-.11.02-.21,0-.31-.17a1.57,1.57,0,0,1-.25-.62l-2-10.31a1.69,1.69,0,0,1,0-.67.293.293,0,0,1,.23-.28c.1-.02.21,0,.32.18a1.67,1.67,0,0,1,.24.62l2,10.3a1.52,1.52,0,0,1,0,.67Z" fill="#fff"/>
      <path id="Trazado_228504" data-name="Trazado 228504" d="M169.53,284.29a.34.34,0,0,1-.3-.11.33.33,0,0,1-.06-.31.72.72,0,0,1,.25-.38l5.32-4.63a.68.68,0,0,1,.41-.2.34.34,0,0,1,.3.11.33.33,0,0,1,.06.31.74.74,0,0,1-.25.37l-5.32,4.64A.75.75,0,0,1,169.53,284.29Z" fill="#fff"/>
      <path id="Trazado_228505" data-name="Trazado 228505" d="M118.54,333.5a.79.79,0,0,1-.42-.08l-5.33-2.48,3.67,4.22a.28.28,0,0,1,.07.29.61.61,0,0,1-.19.3.55.55,0,0,1-.31.14.29.29,0,0,1-.29-.11l-4-4.58a.63.63,0,0,1-.15-.53.84.84,0,0,1,.75-.71,1,1,0,0,1,.58.1l5.16,2.37L116.43,327a1.09,1.09,0,0,1,0-.59.88.88,0,0,1,.27-.43.81.81,0,0,1,.55-.21.63.63,0,0,1,.5.22l4,4.58a.33.33,0,0,1,.08.3.64.64,0,0,1-.19.3.61.61,0,0,1-.32.14.3.3,0,0,1-.29-.11l-3.71-4.2,1.73,5.62a.9.9,0,0,1,0,.43.69.69,0,0,1-.19.32.62.62,0,0,1-.32.13Z" fill="#fff"/>
      <path id="Trazado_228506" data-name="Trazado 228506" d="M123.41,329.48a.47.47,0,0,1-.35-.17l-4.16-4.78a.5.5,0,0,1-.12-.37.48.48,0,0,1,.18-.35l1.68-1.46a4.9,4.9,0,0,1,.61-.48,4.316,4.316,0,0,1,.64-.34,2.09,2.09,0,0,1,.66-.15,1.61,1.61,0,0,1,.65.15,1.74,1.74,0,0,1,.62.49,1.57,1.57,0,0,1,.42,1.07,2,2,0,0,1-.49,1.21h0a1.68,1.68,0,0,1,2.11.35l1.2,1.09v.05a.42.42,0,0,1,.11.35.53.53,0,0,1-.17.32.64.64,0,0,1-.37.15.43.43,0,0,1-.36-.13l-1.06-1a5,5,0,0,0-.57-.46,1.09,1.09,0,0,0-.47-.18.72.72,0,0,0-.45.09,2.33,2.33,0,0,0-.53.38l-1.3,1.13,1.88,2.15a.41.41,0,0,1,.12.38.51.51,0,0,1-.19.34.52.52,0,0,1-.29.17Zm-.84-4.59c.15-.14.28-.26.39-.38a2.47,2.47,0,0,0,.29-.39,1.17,1.17,0,0,0,.17-.43,1,1,0,0,0,0-.44,1.3,1.3,0,0,0-.27-.48,1.56,1.56,0,0,0-.35-.3.81.81,0,0,0-.36-.1,1.27,1.27,0,0,0-.34,0,1.421,1.421,0,0,0-.34.15l-.31.21-.29.25-1.23,1.07,1.55,1.78Z" fill="#fff"/>
      <path id="Trazado_228507" data-name="Trazado 228507" d="M136.63,317.74a1,1,0,0,1-.43-.08l-5.33-2.48,3.67,4.21a.33.33,0,0,1,.08.3.7.7,0,0,1-.19.3.58.58,0,0,1-.32.14.3.3,0,0,1-.29-.11l-4-4.58a.63.63,0,0,1-.15-.53.82.82,0,0,1,.28-.51.92.92,0,0,1,.47-.21,1.09,1.09,0,0,1,.57.11l5.16,2.37-1.64-5.43a1,1,0,0,1,0-.59.94.94,0,0,1,.26-.43.81.81,0,0,1,.55-.21.64.64,0,0,1,.51.22l4,4.58a.3.3,0,0,1,.07.3.61.61,0,0,1-.19.3.58.58,0,0,1-.32.14.29.29,0,0,1-.28-.11l-3.67-4.21,1.72,5.62a.71.71,0,0,1,0,.43.54.54,0,0,1-.18.31A.66.66,0,0,1,136.63,317.74Z" fill="#fff"/>
      <path id="Trazado_228508" data-name="Trazado 228508" d="M139.41,312.46a.34.34,0,0,1-.25-.11.38.38,0,0,1-.09-.28.48.48,0,0,1,.16-.27l1.72-1.5a.46.46,0,0,1,.29-.12.34.34,0,0,1,.26.12.3.3,0,0,1,.08.27.43.43,0,0,1-.16.27l-1.72,1.5a.44.44,0,0,1-.29.12Z" fill="#fff"/>
      <path id="Trazado_228509" data-name="Trazado 228509" d="M154.71,302a.71.71,0,0,1-.42-.08l-5.29-2.5,3.67,4.21a.3.3,0,0,1,.07.3.55.55,0,0,1-.19.29.5.5,0,0,1-.31.15.32.32,0,0,1-.29-.11l-4-4.58a.61.61,0,0,1-.16-.53.78.78,0,0,1,.29-.51.89.89,0,0,1,.46-.21,1.05,1.05,0,0,1,.58.11l5.16,2.37-1.65-5.44a1.16,1.16,0,0,1,0-.58.88.88,0,0,1,.27-.43.81.81,0,0,1,.55-.21.63.63,0,0,1,.5.22l4,4.58a.36.36,0,0,1,.07.3.61.61,0,0,1-.19.29.56.56,0,0,1-.32.15.33.33,0,0,1-.29-.11l-3.67-4.22,1.73,5.62a.91.91,0,0,1,0,.43.64.64,0,0,1-.19.32.55.55,0,0,1-.38.17Z" fill="#fff"/>
      <path id="Trazado_228510" data-name="Trazado 228510" d="M161.16,296.59a.45.45,0,0,1-.27-.14l-1.16-1.34-1.4,1.21a.37.37,0,0,1-.28.11.32.32,0,0,1-.26-.12.29.29,0,0,1-.09-.27.39.39,0,0,1,.15-.27l1.4-1.21-1.18-1.36a.41.41,0,0,1-.11-.28.39.39,0,0,1,.41-.36.37.37,0,0,1,.27.15l1.18,1.35,1.4-1.22a.41.41,0,0,1,.28-.11.28.28,0,0,1,.26.12.3.3,0,0,1,.08.27.4.4,0,0,1-.14.27l-1.4,1.22,1.17,1.34a.4.4,0,0,1,.1.28.38.38,0,0,1-.13.26A.35.35,0,0,1,161.16,296.59Z" fill="#fff"/>
      <path id="Trazado_228511" data-name="Trazado 228511" d="M138.64,284.3l4.8,1.02-1.4-6.59,2.47-2.15" fill="none" stroke="#fff" stroke-miterlimit="10" stroke-width="1"/>
    </g>
    <g id="freepik--Tax--inject-193">
      <rect id="Rectángulo_36410" data-name="Rectángulo 36410" width="210.59" height="289.83" transform="translate(173.27 158.57)" fill="#fff" stroke="#263238" stroke-linecap="round" stroke-miterlimit="10" stroke-width="1"/>
      <rect id="Rectángulo_36411" data-name="Rectángulo 36411" width="210.59" height="21.14" transform="translate(173.27 158.57)" fill="#263238" stroke="#263238" stroke-linecap="round" stroke-miterlimit="10" stroke-width="1"/>
      <line id="Línea_402" data-name="Línea 402" x2="18.34" transform="translate(353.87 276.05)" fill="none" stroke="#263238" stroke-linecap="round" stroke-miterlimit="10" stroke-width="1"/>
      <line id="Línea_403" data-name="Línea 403" x2="25.37" transform="translate(325.45 276.05)" fill="none" stroke="#263238" stroke-linecap="round" stroke-miterlimit="10" stroke-width="1"/>
      <line id="Línea_404" data-name="Línea 404" x2="48.28" transform="translate(272.89 276.05)" fill="none" stroke="#263238" stroke-linecap="round" stroke-miterlimit="10" stroke-width="1"/>
      <line id="Línea_405" data-name="Línea 405" x2="66.32" transform="translate(203.52 276.05)" fill="none" stroke="#263238" stroke-linecap="round" stroke-miterlimit="10" stroke-width="1"/>
      <line id="Línea_406" data-name="Línea 406" x2="13.85" transform="translate(186.01 276.05)" fill="none" stroke="#263238" stroke-linecap="round" stroke-miterlimit="10" stroke-width="1"/>
      <line id="Línea_407" data-name="Línea 407" x2="41.26" transform="translate(330.95 289.9)" fill="none" stroke="#263238" stroke-linecap="round" stroke-miterlimit="10" stroke-width="1"/>
      <line id="Línea_408" data-name="Línea 408" x2="72.73" transform="translate(254.56 289.9)" fill="none" stroke="#263238" stroke-linecap="round" stroke-miterlimit="10" stroke-width="1"/>
      <line id="Línea_409" data-name="Línea 409" x2="29.65" transform="translate(220.02 289.9)" fill="none" stroke="#263238" stroke-linecap="round" stroke-miterlimit="10" stroke-width="1"/>
      <line id="Línea_410" data-name="Línea 410" x2="29.13" transform="translate(186.01 289.9)" fill="none" stroke="#263238" stroke-linecap="round" stroke-miterlimit="10" stroke-width="1"/>
      <line id="Línea_411" data-name="Línea 411" x2="89.23" transform="translate(282.98 303.76)" fill="none" stroke="#263238" stroke-linecap="round" stroke-miterlimit="10" stroke-width="1"/>
      <line id="Línea_412" data-name="Línea 412" x2="29.81" transform="translate(248.75 303.76)" fill="none" stroke="#263238" stroke-linecap="round" stroke-miterlimit="10" stroke-width="1"/>
      <line id="Línea_413" data-name="Línea 413" x2="41.03" transform="translate(204.97 303.76)" fill="none" stroke="#263238" stroke-linecap="round" stroke-miterlimit="10" stroke-width="1"/>
      <line id="Línea_414" data-name="Línea 414" x2="16.29" transform="translate(186.01 303.76)" fill="none" stroke="#263238" stroke-linecap="round" stroke-miterlimit="10" stroke-width="1"/>
      <rect id="Rectángulo_36412" data-name="Rectángulo 36412" width="186.2" height="119.7" transform="translate(184.9 314.84)" fill="none" stroke="#263238" stroke-linecap="round" stroke-miterlimit="10" stroke-width="1"/>
      <line id="Línea_415" data-name="Línea 415" x2="135.55" transform="translate(235 337.56)" fill="none" stroke="#263238" stroke-linecap="round" stroke-miterlimit="10" stroke-width="1"/>
      <line id="Línea_416" data-name="Línea 416" x2="44.95" transform="translate(185.46 337.56)" fill="none" stroke="#263238" stroke-linecap="round" stroke-miterlimit="10" stroke-width="1"/>
      <line id="Línea_417" data-name="Línea 417" x2="185.09" transform="translate(185.46 353.63)" fill="none" stroke="#263238" stroke-linecap="round" stroke-miterlimit="10" stroke-width="1"/>
      <line id="Línea_418" data-name="Línea 418" x2="24.62" transform="translate(345.93 369.71)" fill="none" stroke="#263238" stroke-linecap="round" stroke-miterlimit="10" stroke-width="1"/>
      <line id="Línea_419" data-name="Línea 419" x2="158.33" transform="translate(185.46 369.71)" fill="none" stroke="#263238" stroke-linecap="round" stroke-miterlimit="10" stroke-width="1"/>
      <line id="Línea_420" data-name="Línea 420" x2="109.27" transform="translate(261.28 385.78)" fill="none" stroke="#263238" stroke-linecap="round" stroke-miterlimit="10" stroke-width="1"/>
      <line id="Línea_421" data-name="Línea 421" x2="73.07" transform="translate(185.46 385.78)" fill="none" stroke="#263238" stroke-linecap="round" stroke-miterlimit="10" stroke-width="1"/>
      <line id="Línea_422" data-name="Línea 422" x2="140.14" transform="translate(230.41 401.85)" fill="none" stroke="#263238" stroke-linecap="round" stroke-miterlimit="10" stroke-width="1"/>
      <line id="Línea_423" data-name="Línea 423" x2="39.15" transform="translate(185.46 401.85)" fill="none" stroke="#263238" stroke-linecap="round" stroke-miterlimit="10" stroke-width="1"/>
      <line id="Línea_424" data-name="Línea 424" x2="105.91" transform="translate(264.64 417.92)" fill="none" stroke="#263238" stroke-linecap="round" stroke-miterlimit="10" stroke-width="1"/>
      <line id="Línea_425" data-name="Línea 425" x2="75.51" transform="translate(185.46 417.92)" fill="none" stroke="#263238" stroke-linecap="round" stroke-miterlimit="10" stroke-width="1"/>
      <line id="Línea_426" data-name="Línea 426" y2="19.64" transform="translate(330.1 414.35)" fill="none" stroke="#263238" stroke-linecap="round" stroke-miterlimit="10" stroke-width="1"/>
      <line id="Línea_427" data-name="Línea 427" y2="81.59" transform="translate(330.1 329.4)" fill="none" stroke="#263238" stroke-linecap="round" stroke-miterlimit="10" stroke-width="1"/>
      <line id="Línea_428" data-name="Línea 428" y2="8.26" transform="translate(330.1 315.95)" fill="none" stroke="#263238" stroke-linecap="round" stroke-miterlimit="10" stroke-width="1"/>
    </g>
    <g id="freepik--Character--inject-193">
      <path id="Trazado_228515" data-name="Trazado 228515" d="M379.3,450.05l-3.6,2.66s-6.26,2.54-7.2,3.07-2.53.67-2.13,1.87,3.07,1.2,6.27,1.46,4.13,0,7.6-.53,6.13.4,7.46-.27,1.47,0,1.74-1.6a28.194,28.194,0,0,0,.26-3.73Z" fill="#fff" stroke="#263238" stroke-linecap="round" stroke-miterlimit="10" stroke-width="1"/>
      <path id="Trazado_228516" data-name="Trazado 228516" d="M387.7,458.31c1.34-.66,1.47,0,1.74-1.6.08-.49.13-1,.17-1.54a16.32,16.32,0,0,1-5.37,1.41c-2.54,0-3.6.67-9.47,1.07a36.14,36.14,0,0,1-8.45-.47,1,1,0,0,0,.05.47c.4,1.2,3.07,1.2,6.27,1.46s4.13,0,7.6-.53S386.37,459,387.7,458.31Z" fill="#fff" stroke="#263238" stroke-linecap="round" stroke-miterlimit="10" stroke-width="1"/>
      <path id="Trazado_228517" data-name="Trazado 228517" d="M442.63,450.05s-.8,1.86-1.46,3.46-3.2,4.94-3.6,5.87.26,1.87,2.13,2a30.429,30.429,0,0,0,5.6-.27c.53-.13,6.4-7.06,6.67-11.2s-3.44-4-3.44-4Z" fill="#fff" stroke="#263238" stroke-linecap="round" stroke-miterlimit="10" stroke-width="1"/>
      <path id="Trazado_228518" data-name="Trazado 228518" d="M452,449.91a5.13,5.13,0,0,0-.19-1.8,3.276,3.276,0,0,1-.14.56c-.22,1.17-3.27,6.94-4.44,8.88s-2.16,2.5-4.61,2.72a17.43,17.43,0,0,1-5.12-.53c-.11.8.61,1.52,2.23,1.64a30.429,30.429,0,0,0,5.6-.27C445.83,461,451.7,454.05,452,449.91Z" fill="#fff" stroke="#263238" stroke-linecap="round" stroke-miterlimit="10" stroke-width="1"/>
      <path id="Trazado_228519" data-name="Trazado 228519" d="M397.57,368.45l-.27,9.47S380.64,414.85,380.24,417s2.26,32,2.26,32h-4.13l-.13,1.6,11.46,3.2s2.14-12.93,2.27-13.73,2.4-23.6,2.4-23.6l16.13-21.73s8.13,25.86,8.53,26,22.8,27.46,22.8,27.46l-.66,1.2s-.27,1.07,1.2,1.87,2.66,1.33,4.13-.14,3-3.47,3.14-4.93-1.27-3.73-2.34-5.73-3.07-5.2-3.07-5.2l-12.4-21.6L430,378.18l-.54-6.66Z" fill="#263238" stroke="#263238" stroke-linecap="round" stroke-miterlimit="10" stroke-width="1"/>
      <path id="Trazado_228520" data-name="Trazado 228520" d="M384,322.42a6.07,6.07,0,0,0-2.58,2.95c-.74,2,.86,5,.86,5s4.42,11.91,6.62,15.34,6.51,6.75,10.32,6.26,3.8-3.43,3.8-3.43,4.05-6.51.86-11.3S387.29,320.33,384,322.42Z" fill="#fff" stroke="#263238" stroke-linecap="round" stroke-miterlimit="10" stroke-width="1"/>
      <path id="Trazado_228521" data-name="Trazado 228521" d="M409.12,321.05s-6,16.07-6.4,19.61-6.4,26.42-6.67,27.51,2.58,2.31,3.54,2.59,25.06,3.54,27.64,2.45,3.27-1,3.27-2.18,4.77-41.13,2.45-46.17-4.84-10.27-6.23-10.45S409.12,321.05,409.12,321.05Z" fill="#fff" stroke="#263238" stroke-linecap="round" stroke-miterlimit="10" stroke-width="1"/>
      <path id="Trazado_228522" data-name="Trazado 228522" d="M416.9,336.45c3.07-1.06,12.93-3.06,12.93-3.06s-9.86,6.26-14.93,8.93" fill="none" stroke="#263238" stroke-linecap="round" stroke-miterlimit="10" stroke-width="1"/>
      <line id="Línea_429" data-name="Línea 429" x1="8" y2="7.33" transform="translate(422.1 335.39)" fill="none" stroke="#263238" stroke-linecap="round" stroke-miterlimit="10" stroke-width="1"/>
      <path id="Trazado_228523" data-name="Trazado 228523" d="M408.2,287s-3.22,4.35-2.58,6.12a4.47,4.47,0,0,1,.32,2.74s-4,4.67-3.22,5.15a6.42,6.42,0,0,1,1.61,2.1s1,6.28,1.77,7.25,3.23.16,3.23.16l1.61-.16,1.12,7.89,12.24-6.44v-6s8.06-8.06,7.9-12.25.16-8.05-1.45-9.5-9-4.51-12.4-5-5.32-1-6.29-.32-2.57,1.77-2.57,1.77,0-3.87-1.94-2.26S405.94,285.74,408.2,287Z" fill="#fff" stroke="#263238" stroke-linecap="round" stroke-miterlimit="10" stroke-width="1"/>
      <path id="Trazado_228524" data-name="Trazado 228524" d="M430.75,284.13c-1.61-1.45-9-4.51-12.4-5s-5.32-1-6.29-.32-2.57,1.77-2.57,1.77,0-3.87-1.94-2.26-1.61,7.41.65,8.7l7.57.65a10.582,10.582,0,0,0-1.13,3.38c-.16,1.61,2.74,2.9,2.74,2.9s-.81,4.51-.81,5.31,1.78,1,2.1.32-.49-2.57,2.09-3.22,3.87,1.45,3.71,3.39a4.24,4.24,0,0,1-2.26,3.54l-1,.48a8.11,8.11,0,0,1,3.06,2.1s8.06-8.06,7.9-12.25S432.36,285.58,430.75,284.13Z" fill="#263238" stroke="#263238" stroke-linecap="round" stroke-miterlimit="10" stroke-width="1"/>
      <path id="Trazado_228525" data-name="Trazado 228525" d="M409.16,296.45c0,.76-.28,1.37-.64,1.37s-.64-.61-.64-1.37.28-1.37.64-1.37S409.16,295.7,409.16,296.45Z" fill="#263238"/>
      <path id="Trazado_228526" data-name="Trazado 228526" d="M408.04,319.4l.8,4.84,17.88-9.83-2.09-4.35Z" fill="#fff" stroke="#263238" stroke-linecap="round" stroke-miterlimit="10" stroke-width="1"/>
      <path id="Trazado_228527" data-name="Trazado 228527" d="M467,403.17h0a12.14,12.14,0,0,1-17.43-1.54L359.13,289.32l9.71-8.46,99,104.83a12.15,12.15,0,0,1-.84,17.48Z" fill="#263238" stroke="#263238" stroke-linecap="round" stroke-miterlimit="10" stroke-width="1"/>
      <path id="Trazado_228528" data-name="Trazado 228528" d="M380.21,290.3l-12.62,11a4.07,4.07,0,0,1-5.75-.39h0a4.09,4.09,0,0,1,.39-5.76l12.62-11a4.07,4.07,0,0,1,5.75.39h0a4.07,4.07,0,0,1-.39,5.76Z" fill="#0059d6" stroke="#263238" stroke-linecap="round" stroke-miterlimit="10" stroke-width="1"/>
      <path id="Trazado_228529" data-name="Trazado 228529" d="M288.75,201.46A57.53,57.53,0,1,0,369.92,207a57.53,57.53,0,0,0-81.17-5.54Zm70.66,81A50,50,0,1,1,364.22,212a50,50,0,0,1-4.81,70.46Z" fill="#0059d6" stroke="#263238" stroke-linecap="round" stroke-miterlimit="10" stroke-width="1"/>
      <path id="Trazado_228530" data-name="Trazado 228530" d="M418,327.17s3.82-8.3,4.91-9.26,3-.81,4.76-.68S443,329.35,443,329.35s10.9,8.17,10.76,9.94-14,26.15-14,26.15L434,361.9l3-19.9-16.48-9.26" fill="#fff" stroke="#263238" stroke-linecap="round" stroke-miterlimit="10" stroke-width="1"/>
      <path id="Trazado_228531" data-name="Trazado 228531" d="M434,361.9l-1.49,1.23s-2.18-.68-3.27-.14a18.261,18.261,0,0,0-2,1.23s-2.31,0-2.72.54-.82,1.23,0,1.77,5.31-.27,5.72,0-.54,1.64-1.36,3.82-2,3.81-1.36,4.49,1.77,1.09,2.31.55l.55-.55s3,2.45,4.08,2.18,3.54-2.32,4.36-5a31.2,31.2,0,0,0,.95-6.54Z" fill="#fff" stroke="#263238" stroke-linecap="round" stroke-miterlimit="10" stroke-width="1"/>
      <path id="Trazado_228532" data-name="Trazado 228532" d="M378.94,316.41a12.943,12.943,0,0,0-.7-2.58c-.69-2.16-1.7-2.89-.57-3.34s2.08.63,2.41,1.6a15.907,15.907,0,0,0,.76,1.82l-1.5,3.48Z" fill="#fff" stroke="#263238" stroke-linecap="round" stroke-miterlimit="10" stroke-width="1"/>
      <path id="Trazado_228533" data-name="Trazado 228533" d="M381.11,311s-2.77,6.5-2.59,7.1,5.56,5.92,5.56,5.92l-1,2.33a4.91,4.91,0,0,0,2.08,2.7c2.95,1.35,4.42-1.84,4.42-1.84l-1.83-2.64s1.89-4.55,2-5-6.1-7.77-6.1-7.77S383.17,309.58,381.11,311Z" fill="#fff" stroke="#263238" stroke-linecap="round" stroke-miterlimit="10" stroke-width="1"/>
      <line id="Línea_430" data-name="Línea 430" x1="3.54" y2="8.21" transform="translate(380.18 311.78)" fill="none" stroke="#263238" stroke-linecap="round" stroke-miterlimit="10" stroke-width="1"/>
      <line id="Línea_431" data-name="Línea 431" x1="3.01" y2="7.95" transform="translate(382.62 314.28)" fill="none" stroke="#263238" stroke-linecap="round" stroke-miterlimit="10" stroke-width="1"/>
      <line id="Línea_432" data-name="Línea 432" x1="2.97" y2="5.98" transform="translate(384.97 317.34)" fill="none" stroke="#263238" stroke-linecap="round" stroke-miterlimit="10" stroke-width="1"/>
      <line id="Línea_433" data-name="Línea 433" x2="3.36" y2="1.83" transform="translate(384.08 324.02)" fill="none" stroke="#263238" stroke-linecap="round" stroke-miterlimit="10" stroke-width="1"/>
    </g>
  </g>
</svg>
