<svg xmlns="http://www.w3.org/2000/svg" width="169.2" height="270.304" viewBox="0 0 169.2 270.304">
  <g id="factura" transform="translate(-581 -420.69)">
    <g id="OBJECTS" transform="translate(581 420.69)">
      <path id="Trazado_228534" data-name="Trazado 228534" d="M166.547,177.381l-2.653-2.331-2.645,2.331L158.6,175.05l-2.645,2.331-2.645-2.331-2.645,2.331-2.645-2.331-2.645,2.331-2.645-2.331-2.645,2.331-2.645-2.331-2.637,2.331-2.645-2.331-2.645,2.331-2.645-2.331-2.645,2.331-2.645-2.331-2.645,2.331-2.645-2.331-2.645,2.331-2.645-2.331-2.645,2.331-2.637-2.331-2.645,2.331-2.645-2.331-2.645,2.331-2.637-2.331-2.645,2.331-2.645-2.331L87.2,177.381l-2.637-2.331-2.645,2.331-2.637-2.331-2.645,2.331-2.645-2.331-2.637,2.331-2.645-2.331-2.637,2.331-2.645-2.331-2.637,2.331-2.645-2.331-2.637,2.331L52.86,175.05l-2.645,2.331-2.645-2.331-2.637,2.331-2.645-2.331-2.645,2.331L37,175.05l-2.645,2.331-2.645-2.331-2.645,2.331L26.43,175.05l-2.645,2.331-2.645-2.331L18.5,177.381l-2.645-2.331-2.645,2.331-2.637-2.331-2.645,2.331L5.291,175.05l-2.645,2.331L0,175.05V440.361l2.653-2.331L5.3,440.361l2.653-2.331,2.637,2.331,2.645-2.331,2.653,2.331,2.645-2.331,2.645,2.331,2.645-2.331,2.645,2.331,2.645-2.331,2.637,2.331L34.4,438.03l2.645,2.331,2.645-2.331,2.645,2.331,2.645-2.331,2.645,2.331,2.645-2.331,2.645,2.331,2.637-2.331,2.645,2.331,2.645-2.331,2.645,2.331,2.645-2.331,2.637,2.331,2.645-2.331,2.645,2.331,2.645-2.331,2.637,2.331,2.645-2.331,2.645,2.331,2.637-2.331,2.645,2.331,2.645-2.331,2.637,2.331,2.645-2.331,2.637,2.331,2.645-2.331,2.637,2.331,2.645-2.331,2.645,2.331,2.637-2.331,2.645,2.331,2.637-2.331,2.645,2.331,2.645-2.331,2.645,2.331,2.637-2.331,2.645,2.331,2.645-2.331,2.645,2.331,2.637-2.331,2.645,2.331,2.645-2.331,2.637,2.331,2.645-2.331,2.645,2.331,2.637-2.331,2.645,2.331,2.637-2.331,2.645,2.331,2.645-2.331,2.645,2.331V175.05Z" transform="translate(0 -170.058)" fill="#fcfeff"/>
      <g id="Grupo_124095" data-name="Grupo 124095" transform="translate(2.072 0)">
        <path id="Trazado_228535" data-name="Trazado 228535" d="M24.51,7.63" transform="translate(-24.51 -7.63)" fill="none" stroke="#ebebeb" stroke-miterlimit="10" stroke-width="0.74"/>
        <line id="Línea_434" data-name="Línea 434" x2="1.75" transform="translate(6.531 87.901)" fill="none" stroke="#4c4c4c" stroke-miterlimit="10" stroke-width="0.74"/>
        <line id="Línea_435" data-name="Línea 435" x2="145.863" transform="translate(10.032 87.901)" fill="none" stroke="#4c4c4c" stroke-miterlimit="10" stroke-width="0.74" stroke-dasharray="4.45 2.23"/>
        <line id="Línea_436" data-name="Línea 436" x2="1.75" transform="translate(156.766 87.901)" fill="none" stroke="#4c4c4c" stroke-miterlimit="10" stroke-width="0.74"/>
        <line id="Línea_437" data-name="Línea 437" x2="1.75" transform="translate(6.531 136.522)" fill="none" stroke="#4c4c4c" stroke-miterlimit="10" stroke-width="0.74"/>
        <line id="Línea_438" data-name="Línea 438" x2="145.863" transform="translate(10.032 136.522)" fill="none" stroke="#4c4c4c" stroke-miterlimit="10" stroke-width="0.74" stroke-dasharray="4.45 2.23"/>
        <line id="Línea_439" data-name="Línea 439" x2="1.75" transform="translate(156.766 136.522)" fill="none" stroke="#4c4c4c" stroke-miterlimit="10" stroke-width="0.74"/>
        <line id="Línea_440" data-name="Línea 440" x2="1.75" transform="translate(6.531 201.863)" fill="none" stroke="#4c4c4c" stroke-miterlimit="10" stroke-width="0.74"/>
        <line id="Línea_441" data-name="Línea 441" x2="145.863" transform="translate(10.032 201.863)" fill="none" stroke="#4c4c4c" stroke-miterlimit="10" stroke-width="0.74" stroke-dasharray="4.45 2.23"/>
        <line id="Línea_442" data-name="Línea 442" x2="1.75" transform="translate(156.766 201.863)" fill="none" stroke="#4c4c4c" stroke-miterlimit="10" stroke-width="0.74"/>
        <text id="Mon_05_04_2018_11:25AM" data-name="Mon   05/04/2018  11:25AM" transform="translate(43.165 75.723)" font-size="4" font-family="Roboto-Regular, Roboto"><tspan x="0" y="0" xml:space="preserve">Mon   05/04/2018  11:25AM</tspan></text>
        <rect id="Rectángulo_36417" data-name="Rectángulo 36417" width="85.216" height="25.19" transform="translate(39.916 42.412)" fill="none" stroke="#000" stroke-miterlimit="10" stroke-width="1.04"/>
        <rect id="Rectángulo_36418" data-name="Rectángulo 36418" width="21.045" height="81.079" transform="translate(123.067 44.476) rotate(90)" fill="none" stroke="#000" stroke-miterlimit="10" stroke-width="0.39"/>
        <text id="_13844_MAIN_ST" data-name="13844 MAIN ST" transform="translate(64.399 22.106)" font-size="3" font-family="Roboto-Regular, Roboto" letter-spacing="-0.02em"><tspan x="0" y="0">13844 MAIN S</tspan><tspan y="0">T</tspan></text>
        <text id="PORTCITY" transform="translate(70.702 27.986)" font-size="3" font-family="Roboto-Regular, Roboto"><tspan x="0" y="0">PO</tspan><tspan y="0" letter-spacing="-0.04em">R</tspan><tspan y="0">TCI</tspan><tspan y="0" letter-spacing="0.009em">T</tspan><tspan y="0">Y</tspan></text>
        <text id="CALIFORNIA_12346" data-name="CALIFORNIA 12346" transform="translate(59.956 33.865)" font-size="3" font-family="Roboto-Regular, Roboto"><tspan x="0" y="0">CALIFORNIA 12346</tspan></text>
        <g id="Grupo" transform="translate(26.61 208.904)">
          <text id="Lorem_" data-name="Lorem " transform="translate(0 4)" font-size="4" font-family="Roboto-Regular, Roboto"><tspan x="0" y="0">Lorem </tspan></text>
          <text id="ipsum_" data-name="ipsum " transform="translate(18.871 4)" font-size="4" font-family="Roboto-Regular, Roboto"><tspan x="0" y="0">ipsum </tspan></text>
          <text id="dolor_" data-name="dolor " transform="translate(37.121 4)" font-size="4" font-family="Roboto-Regular, Roboto"><tspan x="0" y="0">dolor </tspan></text>
          <text id="sit_" data-name="sit " transform="translate(52.679 5)" font-size="5" font-family="Roboto-Regular, Roboto"><tspan x="0" y="0">sit </tspan></text>
          <text id="amet_" data-name="amet, " transform="translate(61.235 4)" font-size="4" font-family="Roboto-Regular, Roboto"><tspan x="0" y="0">amet, </tspan></text>
          <text id="consectetuer_" data-name="consectetuer " transform="translate(77.885 4)" font-size="4" font-family="Roboto-Regular, Roboto"><tspan x="0" y="0">consectetuer </tspan></text>
          <text id="adipiscing_elit_sed_diam_nonummy_nibh" data-name="adipiscing elit, sed diam nonummy nibh" transform="translate(4.812 11.583)" font-size="4" font-family="Roboto-Regular, Roboto"><tspan x="0" y="0">adipiscing elit, sed diam nonummy nibh</tspan></text>
        </g>
        <rect id="Rectángulo_36419" data-name="Rectángulo 36419" width="5.558" height="5.558" transform="translate(67.138 229.721)" fill="none" stroke="#000" stroke-miterlimit="10" stroke-width="0.74"/>
        <rect id="Rectángulo_36420" data-name="Rectángulo 36420" width="2.331" height="2.331" transform="translate(68.748 231.33)"/>
        <rect id="Rectángulo_36421" data-name="Rectángulo 36421" width="5.558" height="5.558" transform="translate(67.138 254.958)" fill="none" stroke="#000" stroke-miterlimit="10" stroke-width="0.74"/>
        <rect id="Rectángulo_36422" data-name="Rectángulo 36422" width="2.331" height="2.331" transform="translate(68.748 256.567)"/>
        <rect id="Rectángulo_36423" data-name="Rectángulo 36423" width="5.558" height="5.558" transform="translate(92.359 229.721)" fill="none" stroke="#000" stroke-miterlimit="10" stroke-width="0.74"/>
        <rect id="Rectángulo_36424" data-name="Rectángulo 36424" width="2.331" height="2.331" transform="translate(93.969 231.33)"/>
        <rect id="Rectángulo_36425" data-name="Rectángulo 36425" width="1.382" height="1.382" transform="translate(92.375 259.11)"/>
        <rect id="Rectángulo_36426" data-name="Rectángulo 36426" width="1.382" height="1.382" transform="translate(89.604 259.11)"/>
        <rect id="Rectángulo_36427" data-name="Rectángulo 36427" width="1.382" height="1.382" transform="translate(88.223 259.11)"/>
        <rect id="Rectángulo_36428" data-name="Rectángulo 36428" width="1.382" height="1.382" transform="translate(86.833 259.11)"/>
        <rect id="Rectángulo_36429" data-name="Rectángulo 36429" width="1.382" height="1.382" transform="translate(82.681 259.11)"/>
        <rect id="Rectángulo_36430" data-name="Rectángulo 36430" width="1.382" height="1.382" transform="translate(79.91 259.11)"/>
        <rect id="Rectángulo_36431" data-name="Rectángulo 36431" width="1.382" height="1.382" transform="translate(77.139 259.11)"/>
        <rect id="Rectángulo_36432" data-name="Rectángulo 36432" width="1.382" height="1.382" transform="translate(96.528 257.729)"/>
        <rect id="Rectángulo_36433" data-name="Rectángulo 36433" width="1.382" height="1.382" transform="translate(95.146 257.729)"/>
        <rect id="Rectángulo_36434" data-name="Rectángulo 36434" width="1.382" height="1.382" transform="translate(92.375 257.729)"/>
        <rect id="Rectángulo_36435" data-name="Rectángulo 36435" width="1.382" height="1.382" transform="translate(90.994 257.729)"/>
        <rect id="Rectángulo_36436" data-name="Rectángulo 36436" width="1.382" height="1.382" transform="translate(88.223 257.729)"/>
        <rect id="Rectángulo_36437" data-name="Rectángulo 36437" width="1.382" height="1.382" transform="translate(84.062 257.729)"/>
        <rect id="Rectángulo_36438" data-name="Rectángulo 36438" width="1.382" height="1.382" transform="translate(81.291 257.729)"/>
        <rect id="Rectángulo_36439" data-name="Rectángulo 36439" width="1.382" height="1.382" transform="translate(77.139 257.729)"/>
        <rect id="Rectángulo_36440" data-name="Rectángulo 36440" width="1.382" height="1.382" transform="translate(75.757 257.729)"/>
        <rect id="Rectángulo_36441" data-name="Rectángulo 36441" width="1.382" height="1.382" transform="translate(74.368 257.729)"/>
        <rect id="Rectángulo_36442" data-name="Rectángulo 36442" width="1.382" height="1.382" transform="translate(93.757 256.339)"/>
        <rect id="Rectángulo_36443" data-name="Rectángulo 36443" width="1.382" height="1.382" transform="translate(92.375 256.339)"/>
        <rect id="Rectángulo_36444" data-name="Rectángulo 36444" width="1.382" height="1.382" transform="translate(90.994 256.339)"/>
        <rect id="Rectángulo_36445" data-name="Rectángulo 36445" width="1.382" height="1.382" transform="translate(81.291 256.339)"/>
        <rect id="Rectángulo_36446" data-name="Rectángulo 36446" width="1.382" height="1.382" transform="translate(77.139 256.339)"/>
        <rect id="Rectángulo_36447" data-name="Rectángulo 36447" width="1.382" height="1.382" transform="translate(96.528 254.958)"/>
        <rect id="Rectángulo_36448" data-name="Rectángulo 36448" width="1.382" height="1.382" transform="translate(92.375 254.958)"/>
        <rect id="Rectángulo_36449" data-name="Rectángulo 36449" width="1.382" height="1.382" transform="translate(89.604 254.958)"/>
        <rect id="Rectángulo_36450" data-name="Rectángulo 36450" width="1.382" height="1.382" transform="translate(81.291 254.958)"/>
        <rect id="Rectángulo_36451" data-name="Rectángulo 36451" width="1.382" height="1.382" transform="translate(79.91 254.958)"/>
        <rect id="Rectángulo_36452" data-name="Rectángulo 36452" width="1.382" height="1.382" transform="translate(78.528 254.958)"/>
        <rect id="Rectángulo_36453" data-name="Rectángulo 36453" width="1.382" height="1.382" transform="translate(75.757 254.958)"/>
        <rect id="Rectángulo_36454" data-name="Rectángulo 36454" width="1.382" height="1.382" transform="translate(92.375 253.568)"/>
        <rect id="Rectángulo_36455" data-name="Rectángulo 36455" width="1.382" height="1.382" transform="translate(90.994 253.568)"/>
        <rect id="Rectángulo_36456" data-name="Rectángulo 36456" width="1.382" height="1.382" transform="translate(86.833 253.568)"/>
        <rect id="Rectángulo_36457" data-name="Rectángulo 36457" width="1.382" height="1.382" transform="translate(85.452 253.568)"/>
        <rect id="Rectángulo_36458" data-name="Rectángulo 36458" width="1.382" height="1.382" transform="translate(84.062 253.568)"/>
        <rect id="Rectángulo_36459" data-name="Rectángulo 36459" width="1.382" height="1.382" transform="translate(78.528 253.568)"/>
        <rect id="Rectángulo_36460" data-name="Rectángulo 36460" width="1.382" height="1.382" transform="translate(77.139 253.568)"/>
        <rect id="Rectángulo_36461" data-name="Rectángulo 36461" width="1.382" height="1.382" transform="translate(75.757 253.568)"/>
        <rect id="Rectángulo_36462" data-name="Rectángulo 36462" width="1.382" height="1.382" transform="translate(72.986 253.568)"/>
        <rect id="Rectángulo_36463" data-name="Rectángulo 36463" width="1.382" height="1.382" transform="translate(92.375 252.187)"/>
        <rect id="Rectángulo_36464" data-name="Rectángulo 36464" width="1.382" height="1.382" transform="translate(88.223 252.187)"/>
        <rect id="Rectángulo_36465" data-name="Rectángulo 36465" width="1.382" height="1.382" transform="translate(86.833 252.187)"/>
        <rect id="Rectángulo_36466" data-name="Rectángulo 36466" width="1.382" height="1.382" transform="translate(84.062 252.187)"/>
        <rect id="Rectángulo_36467" data-name="Rectángulo 36467" width="1.382" height="1.382" transform="translate(81.291 252.187)"/>
        <rect id="Rectángulo_36468" data-name="Rectángulo 36468" width="1.382" height="1.382" transform="translate(79.91 252.187)"/>
        <rect id="Rectángulo_36469" data-name="Rectángulo 36469" width="1.382" height="1.382" transform="translate(78.528 252.187)"/>
        <rect id="Rectángulo_36470" data-name="Rectángulo 36470" width="1.382" height="1.382" transform="translate(75.757 252.187)"/>
        <rect id="Rectángulo_36471" data-name="Rectángulo 36471" width="1.382" height="1.382" transform="translate(74.368 252.187)"/>
        <rect id="Rectángulo_36472" data-name="Rectángulo 36472" width="1.382" height="1.382" transform="translate(96.528 250.805)"/>
        <rect id="Rectángulo_36473" data-name="Rectángulo 36473" width="1.382" height="1.382" transform="translate(95.146 250.805)"/>
        <rect id="Rectángulo_36474" data-name="Rectángulo 36474" width="1.382" height="1.382" transform="translate(93.757 250.805)"/>
        <rect id="Rectángulo_36475" data-name="Rectángulo 36475" width="1.382" height="1.382" transform="translate(92.375 250.805)"/>
        <rect id="Rectángulo_36476" data-name="Rectángulo 36476" width="1.382" height="1.382" transform="translate(90.994 250.805)"/>
        <rect id="Rectángulo_36477" data-name="Rectángulo 36477" width="1.382" height="1.382" transform="translate(89.604 250.805)"/>
        <rect id="Rectángulo_36478" data-name="Rectángulo 36478" width="1.382" height="1.382" transform="translate(88.223 250.805)"/>
        <rect id="Rectángulo_36479" data-name="Rectángulo 36479" width="1.382" height="1.382" transform="translate(85.452 250.805)"/>
        <rect id="Rectángulo_36480" data-name="Rectángulo 36480" width="1.382" height="1.382" transform="translate(74.368 250.805)"/>
        <rect id="Rectángulo_36481" data-name="Rectángulo 36481" width="1.382" height="1.382" transform="translate(93.757 249.416)"/>
        <rect id="Rectángulo_36482" data-name="Rectángulo 36482" width="1.382" height="1.382" transform="translate(90.994 249.416)"/>
        <rect id="Rectángulo_36483" data-name="Rectángulo 36483" width="1.382" height="1.382" transform="translate(88.223 249.416)"/>
        <rect id="Rectángulo_36484" data-name="Rectángulo 36484" width="1.382" height="1.382" transform="translate(86.833 249.416)"/>
        <rect id="Rectángulo_36485" data-name="Rectángulo 36485" width="1.382" height="1.382" transform="translate(77.139 249.416)"/>
        <rect id="Rectángulo_36486" data-name="Rectángulo 36486" width="1.382" height="1.382" transform="translate(75.757 249.416)"/>
        <rect id="Rectángulo_36487" data-name="Rectángulo 36487" width="1.382" height="1.382" transform="translate(74.368 249.416)"/>
        <rect id="Rectángulo_36488" data-name="Rectángulo 36488" width="1.382" height="1.382" transform="translate(96.528 248.034)"/>
        <rect id="Rectángulo_36489" data-name="Rectángulo 36489" width="1.382" height="1.382" transform="translate(95.146 248.034)"/>
        <rect id="Rectángulo_36490" data-name="Rectángulo 36490" width="1.382" height="1.382" transform="translate(93.757 248.034)"/>
        <rect id="Rectángulo_36491" data-name="Rectángulo 36491" width="1.382" height="1.382" transform="translate(86.833 248.034)"/>
        <rect id="Rectángulo_36492" data-name="Rectángulo 36492" width="1.382" height="1.382" transform="translate(85.452 248.034)"/>
        <rect id="Rectángulo_36493" data-name="Rectángulo 36493" width="1.382" height="1.382" transform="translate(84.062 248.034)"/>
        <rect id="Rectángulo_36494" data-name="Rectángulo 36494" width="1.382" height="1.382" transform="translate(82.681 248.034)"/>
        <rect id="Rectángulo_36495" data-name="Rectángulo 36495" width="1.382" height="1.382" transform="translate(77.139 248.034)"/>
        <rect id="Rectángulo_36496" data-name="Rectángulo 36496" width="1.382" height="1.382" transform="translate(75.757 248.034)"/>
        <rect id="Rectángulo_36497" data-name="Rectángulo 36497" width="1.382" height="1.382" transform="translate(74.368 248.034)"/>
        <rect id="Rectángulo_36498" data-name="Rectángulo 36498" width="1.382" height="1.382" transform="translate(72.986 248.034)"/>
        <rect id="Rectángulo_36499" data-name="Rectángulo 36499" width="1.382" height="1.382" transform="translate(95.146 246.645)"/>
        <rect id="Rectángulo_36500" data-name="Rectángulo 36500" width="1.382" height="1.382" transform="translate(92.375 246.645)"/>
        <rect id="Rectángulo_36501" data-name="Rectángulo 36501" width="1.382" height="1.382" transform="translate(90.994 246.645)"/>
        <rect id="Rectángulo_36502" data-name="Rectángulo 36502" width="1.382" height="1.382" transform="translate(88.223 246.645)"/>
        <rect id="Rectángulo_36503" data-name="Rectángulo 36503" width="1.382" height="1.382" transform="translate(85.452 246.645)"/>
        <rect id="Rectángulo_36504" data-name="Rectángulo 36504" width="1.382" height="1.382" transform="translate(84.062 246.645)"/>
        <rect id="Rectángulo_36505" data-name="Rectángulo 36505" width="1.382" height="1.382" transform="translate(82.681 246.645)"/>
        <rect id="Rectángulo_36506" data-name="Rectángulo 36506" width="1.382" height="1.382" transform="translate(81.291 246.645)"/>
        <rect id="Rectángulo_36507" data-name="Rectángulo 36507" width="1.382" height="1.382" transform="translate(78.528 246.645)"/>
        <rect id="Rectángulo_36508" data-name="Rectángulo 36508" width="1.382" height="1.382" transform="translate(77.139 246.645)"/>
        <rect id="Rectángulo_36509" data-name="Rectángulo 36509" width="1.382" height="1.382" transform="translate(96.528 245.263)"/>
        <rect id="Rectángulo_36510" data-name="Rectángulo 36510" width="1.382" height="1.382" transform="translate(95.146 245.263)"/>
        <rect id="Rectángulo_36511" data-name="Rectángulo 36511" width="1.382" height="1.382" transform="translate(93.757 245.263)"/>
        <rect id="Rectángulo_36512" data-name="Rectángulo 36512" width="1.382" height="1.382" transform="translate(89.604 245.263)"/>
        <rect id="Rectángulo_36513" data-name="Rectángulo 36513" width="1.382" height="1.382" transform="translate(88.223 245.263)"/>
        <rect id="Rectángulo_36514" data-name="Rectángulo 36514" width="1.382" height="1.382" transform="translate(86.833 245.263)"/>
        <rect id="Rectángulo_36515" data-name="Rectángulo 36515" width="1.382" height="1.382" transform="translate(85.452 245.263)"/>
        <path id="Trazado_228536" data-name="Trazado 228536" d="M109.352,482.522H107.97V481.14h1.382" transform="translate(-25.289 -235.877)"/>
        <rect id="Rectángulo_36516" data-name="Rectángulo 36516" width="1.382" height="1.382" transform="translate(81.291 245.263)"/>
        <rect id="Rectángulo_36517" data-name="Rectángulo 36517" width="1.382" height="1.382" transform="translate(79.91 245.263)"/>
        <rect id="Rectángulo_36518" data-name="Rectángulo 36518" width="1.382" height="1.382" transform="translate(75.757 245.263)"/>
        <rect id="Rectángulo_36519" data-name="Rectángulo 36519" width="1.382" height="1.382" transform="translate(74.368 245.263)"/>
        <rect id="Rectángulo_36520" data-name="Rectángulo 36520" width="1.382" height="1.382" transform="translate(72.986 245.263)"/>
        <rect id="Rectángulo_36521" data-name="Rectángulo 36521" width="1.382" height="1.382" transform="translate(93.757 243.874)"/>
        <rect id="Rectángulo_36522" data-name="Rectángulo 36522" width="1.382" height="1.382" transform="translate(92.375 243.874)"/>
        <rect id="Rectángulo_36523" data-name="Rectángulo 36523" width="1.382" height="1.382" transform="translate(90.994 243.874)"/>
        <rect id="Rectángulo_36524" data-name="Rectángulo 36524" width="1.382" height="1.382" transform="translate(89.604 243.874)"/>
        <rect id="Rectángulo_36525" data-name="Rectángulo 36525" width="1.382" height="1.382" transform="translate(86.833 243.874)"/>
        <path id="Trazado_228537" data-name="Trazado 228537" d="M112.882,480.759H111.5V479.37h1.382" transform="translate(-26.048 -235.496)"/>
        <rect id="Rectángulo_36526" data-name="Rectángulo 36526" width="1.382" height="1.382" transform="translate(82.681 243.874)"/>
        <rect id="Rectángulo_36527" data-name="Rectángulo 36527" width="1.382" height="1.382" transform="translate(79.91 243.874)"/>
        <rect id="Rectángulo_36528" data-name="Rectángulo 36528" width="1.382" height="1.382" transform="translate(78.528 243.874)"/>
        <rect id="Rectángulo_36529" data-name="Rectángulo 36529" width="1.382" height="1.382" transform="translate(75.757 243.874)"/>
        <rect id="Rectángulo_36530" data-name="Rectángulo 36530" width="1.382" height="1.382" transform="translate(72.986 243.874)"/>
        <rect id="Rectángulo_36531" data-name="Rectángulo 36531" width="1.382" height="1.382" transform="translate(96.528 242.492)"/>
        <rect id="Rectángulo_36532" data-name="Rectángulo 36532" width="1.382" height="1.382" transform="translate(95.146 242.492)"/>
        <rect id="Rectángulo_36533" data-name="Rectángulo 36533" width="1.382" height="1.382" transform="translate(93.757 242.492)"/>
        <path id="Trazado_228538" data-name="Trazado 228538" d="M140.42,318.32" transform="translate(-49.434 -74.438)"/>
        <rect id="Rectángulo_36534" data-name="Rectángulo 36534" width="1.382" height="1.382" transform="translate(85.452 242.492)"/>
        <rect id="Rectángulo_36535" data-name="Rectángulo 36535" width="1.382" height="1.382" transform="translate(82.681 242.492)"/>
        <rect id="Rectángulo_36536" data-name="Rectángulo 36536" width="1.382" height="1.382" transform="translate(79.91 242.492)"/>
        <rect id="Rectángulo_36537" data-name="Rectángulo 36537" width="1.382" height="1.382" transform="translate(78.528 242.492)"/>
        <rect id="Rectángulo_36538" data-name="Rectángulo 36538" width="1.382" height="1.382" transform="translate(77.139 242.492)"/>
        <rect id="Rectángulo_36539" data-name="Rectángulo 36539" width="1.382" height="1.382" transform="translate(75.757 242.492)"/>
        <rect id="Rectángulo_36540" data-name="Rectángulo 36540" width="1.382" height="1.382" transform="translate(74.368 242.492)"/>
        <rect id="Rectángulo_36541" data-name="Rectángulo 36541" width="1.382" height="1.382" transform="translate(93.757 241.111)"/>
        <rect id="Rectángulo_36542" data-name="Rectángulo 36542" width="1.382" height="1.382" transform="translate(92.375 241.111)"/>
        <rect id="Rectángulo_36543" data-name="Rectángulo 36543" width="1.382" height="1.382" transform="translate(89.604 241.111)"/>
        <rect id="Rectángulo_36544" data-name="Rectángulo 36544" width="1.382" height="1.382" transform="translate(84.062 241.111)"/>
        <rect id="Rectángulo_36545" data-name="Rectángulo 36545" width="1.382" height="1.382" transform="translate(79.91 241.111)"/>
        <rect id="Rectángulo_36546" data-name="Rectángulo 36546" width="1.382" height="1.382" transform="translate(75.757 241.111)"/>
        <rect id="Rectángulo_36547" data-name="Rectángulo 36547" width="1.382" height="1.382" transform="translate(74.368 241.111)"/>
        <rect id="Rectángulo_36548" data-name="Rectángulo 36548" width="1.382" height="1.382" transform="translate(72.986 241.111)"/>
        <rect id="Rectángulo_36549" data-name="Rectángulo 36549" width="1.382" height="1.382" transform="translate(96.528 239.722)"/>
        <rect id="Rectángulo_36550" data-name="Rectángulo 36550" width="1.382" height="1.382" transform="translate(95.146 239.722)"/>
        <rect id="Rectángulo_36551" data-name="Rectángulo 36551" width="1.382" height="1.382" transform="translate(93.757 239.722)"/>
        <rect id="Rectángulo_36552" data-name="Rectángulo 36552" width="1.382" height="1.382" transform="translate(85.452 239.722)"/>
        <rect id="Rectángulo_36553" data-name="Rectángulo 36553" width="1.382" height="1.382" transform="translate(84.062 239.722)"/>
        <rect id="Rectángulo_36554" data-name="Rectángulo 36554" width="1.382" height="1.382" transform="translate(82.681 239.722)"/>
        <rect id="Rectángulo_36555" data-name="Rectángulo 36555" width="1.382" height="1.382" transform="translate(81.291 239.722)"/>
        <rect id="Rectángulo_36556" data-name="Rectángulo 36556" width="1.382" height="1.382" transform="translate(78.528 239.722)"/>
        <rect id="Rectángulo_36557" data-name="Rectángulo 36557" width="1.382" height="1.382" transform="translate(77.139 239.722)"/>
        <rect id="Rectángulo_36558" data-name="Rectángulo 36558" width="1.382" height="1.382" transform="translate(74.368 239.722)"/>
        <rect id="Rectángulo_36559" data-name="Rectángulo 36559" width="1.382" height="1.382" transform="translate(96.528 238.34)"/>
        <rect id="Rectángulo_36560" data-name="Rectángulo 36560" width="1.382" height="1.382" transform="translate(95.146 238.34)"/>
        <rect id="Rectángulo_36561" data-name="Rectángulo 36561" width="1.382" height="1.382" transform="translate(92.375 238.34)"/>
        <rect id="Rectángulo_36562" data-name="Rectángulo 36562" width="1.382" height="1.382" transform="translate(90.994 238.34)"/>
        <rect id="Rectángulo_36563" data-name="Rectángulo 36563" width="1.382" height="1.382" transform="translate(88.223 238.34)"/>
        <rect id="Rectángulo_36564" data-name="Rectángulo 36564" width="1.382" height="1.382" transform="translate(86.833 238.34)"/>
        <rect id="Rectángulo_36565" data-name="Rectángulo 36565" width="1.382" height="1.382" transform="translate(84.062 238.34)"/>
        <rect id="Rectángulo_36566" data-name="Rectángulo 36566" width="1.382" height="1.382" transform="translate(81.291 238.34)"/>
        <rect id="Rectángulo_36567" data-name="Rectángulo 36567" width="1.382" height="1.382" transform="translate(79.91 238.34)"/>
        <rect id="Rectángulo_36568" data-name="Rectángulo 36568" width="1.382" height="1.382" transform="translate(92.375 236.951)"/>
        <rect id="Rectángulo_36569" data-name="Rectángulo 36569" width="1.382" height="1.382" transform="translate(88.223 236.951)"/>
        <rect id="Rectángulo_36570" data-name="Rectángulo 36570" width="1.382" height="1.382" transform="translate(85.452 236.951)"/>
        <rect id="Rectángulo_36571" data-name="Rectángulo 36571" width="1.382" height="1.382" transform="translate(82.681 236.951)"/>
        <rect id="Rectángulo_36572" data-name="Rectángulo 36572" width="1.382" height="1.382" transform="translate(81.291 236.951)"/>
        <rect id="Rectángulo_36573" data-name="Rectángulo 36573" width="1.382" height="1.382" transform="translate(77.139 236.951)"/>
        <rect id="Rectángulo_36574" data-name="Rectángulo 36574" width="1.382" height="1.382" transform="translate(75.757 236.951)"/>
        <rect id="Rectángulo_36575" data-name="Rectángulo 36575" width="1.382" height="1.382" transform="translate(74.368 236.951)"/>
        <rect id="Rectángulo_36576" data-name="Rectángulo 36576" width="1.382" height="1.382" transform="translate(90.994 235.569)"/>
        <rect id="Rectángulo_36577" data-name="Rectángulo 36577" width="1.382" height="1.382" transform="translate(88.223 235.569)"/>
        <rect id="Rectángulo_36578" data-name="Rectángulo 36578" width="1.382" height="1.382" transform="translate(85.452 235.569)"/>
        <rect id="Rectángulo_36579" data-name="Rectángulo 36579" width="1.382" height="1.382" transform="translate(79.91 235.569)"/>
        <rect id="Rectángulo_36580" data-name="Rectángulo 36580" width="1.382" height="1.382" transform="translate(77.139 235.569)"/>
        <rect id="Rectángulo_36581" data-name="Rectángulo 36581" width="1.382" height="1.382" transform="translate(71.597 235.569)"/>
        <rect id="Rectángulo_36582" data-name="Rectángulo 36582" width="1.382" height="1.382" transform="translate(70.215 235.569)"/>
        <rect id="Rectángulo_36583" data-name="Rectángulo 36583" width="1.382" height="1.382" transform="translate(68.834 235.569)"/>
        <rect id="Rectángulo_36584" data-name="Rectángulo 36584" width="1.382" height="1.382" transform="translate(70.215 236.951)"/>
        <rect id="Rectángulo_36585" data-name="Rectángulo 36585" width="1.382" height="1.382" transform="translate(71.597 238.34)"/>
        <rect id="Rectángulo_36586" data-name="Rectángulo 36586" width="1.382" height="1.382" transform="translate(70.215 238.34)"/>
        <rect id="Rectángulo_36587" data-name="Rectángulo 36587" width="1.382" height="1.382" transform="translate(68.834 238.34)"/>
        <rect id="Rectángulo_36588" data-name="Rectángulo 36588" width="1.382" height="1.382" transform="translate(68.834 239.722)"/>
        <rect id="Rectángulo_36589" data-name="Rectángulo 36589" width="1.382" height="1.382" transform="translate(71.597 241.111)"/>
        <rect id="Rectángulo_36590" data-name="Rectángulo 36590" width="1.382" height="1.382" transform="translate(70.215 241.111)"/>
        <rect id="Rectángulo_36591" data-name="Rectángulo 36591" width="1.382" height="1.382" transform="translate(71.597 242.492)"/>
        <rect id="Rectángulo_36592" data-name="Rectángulo 36592" width="1.382" height="1.382" transform="translate(68.834 242.492)"/>
        <rect id="Rectángulo_36593" data-name="Rectángulo 36593" width="1.382" height="1.382" transform="translate(71.597 243.874)"/>
        <rect id="Rectángulo_36594" data-name="Rectángulo 36594" width="1.382" height="1.382" transform="translate(71.597 245.263)"/>
        <rect id="Rectángulo_36595" data-name="Rectángulo 36595" width="1.382" height="1.382" transform="translate(71.597 246.645)"/>
        <rect id="Rectángulo_36596" data-name="Rectángulo 36596" width="1.382" height="1.382" transform="translate(70.215 246.645)"/>
        <rect id="Rectángulo_36597" data-name="Rectángulo 36597" width="1.382" height="1.382" transform="translate(71.597 248.034)"/>
        <rect id="Rectángulo_36598" data-name="Rectángulo 36598" width="1.382" height="1.382" transform="translate(68.834 248.034)"/>
        <rect id="Rectángulo_36599" data-name="Rectángulo 36599" width="1.382" height="1.382" transform="translate(71.597 249.416)"/>
        <rect id="Rectángulo_36600" data-name="Rectángulo 36600" width="1.382" height="1.382" transform="translate(70.215 249.416)"/>
        <rect id="Rectángulo_36601" data-name="Rectángulo 36601" width="1.382" height="1.382" transform="translate(68.834 249.416)"/>
        <rect id="Rectángulo_36602" data-name="Rectángulo 36602" width="1.382" height="1.382" transform="translate(67.444 249.416)"/>
        <rect id="Rectángulo_36603" data-name="Rectángulo 36603" width="1.382" height="1.382" transform="translate(71.597 253.568)"/>
        <rect id="Rectángulo_36604" data-name="Rectángulo 36604" width="1.382" height="1.382" transform="translate(90.994 234.18)"/>
        <rect id="Rectángulo_36605" data-name="Rectángulo 36605" width="1.382" height="1.382" transform="translate(89.604 234.18)"/>
        <rect id="Rectángulo_36606" data-name="Rectángulo 36606" width="1.382" height="1.382" transform="translate(86.833 234.18)"/>
        <rect id="Rectángulo_36607" data-name="Rectángulo 36607" width="1.382" height="1.382" transform="translate(82.681 234.18)"/>
        <rect id="Rectángulo_36608" data-name="Rectángulo 36608" width="1.382" height="1.382" transform="translate(77.139 234.18)"/>
        <rect id="Rectángulo_36609" data-name="Rectángulo 36609" width="1.382" height="1.382" transform="translate(89.604 232.798)"/>
        <rect id="Rectángulo_36610" data-name="Rectángulo 36610" width="1.382" height="1.382" transform="translate(86.833 232.798)"/>
        <rect id="Rectángulo_36611" data-name="Rectángulo 36611" width="1.382" height="1.382" transform="translate(85.452 232.798)"/>
        <rect id="Rectángulo_36612" data-name="Rectángulo 36612" width="1.382" height="1.382" transform="translate(84.062 232.798)"/>
        <rect id="Rectángulo_36613" data-name="Rectángulo 36613" width="1.382" height="1.382" transform="translate(82.681 232.798)"/>
        <rect id="Rectángulo_36614" data-name="Rectángulo 36614" width="1.382" height="1.382" transform="translate(79.91 232.798)"/>
        <rect id="Rectángulo_36615" data-name="Rectángulo 36615" width="1.382" height="1.382" transform="translate(77.139 232.798)"/>
        <rect id="Rectángulo_36616" data-name="Rectángulo 36616" width="1.382" height="1.382" transform="translate(74.368 232.798)"/>
        <rect id="Rectángulo_36617" data-name="Rectángulo 36617" width="1.382" height="1.382" transform="translate(88.223 231.409)"/>
        <rect id="Rectángulo_36618" data-name="Rectángulo 36618" width="1.382" height="1.382" transform="translate(78.528 231.409)"/>
        <rect id="Rectángulo_36619" data-name="Rectángulo 36619" width="1.382" height="1.382" transform="translate(74.368 231.409)"/>
        <rect id="Rectángulo_36620" data-name="Rectángulo 36620" width="1.382" height="1.382" transform="translate(74.368 230.027)"/>
        <rect id="Rectángulo_36621" data-name="Rectángulo 36621" width="1.382" height="1.382" transform="translate(75.757 230.027)"/>
        <rect id="Rectángulo_36622" data-name="Rectángulo 36622" width="1.382" height="1.382" transform="translate(79.91 230.027)"/>
        <rect id="Rectángulo_36623" data-name="Rectángulo 36623" width="1.382" height="1.382" transform="translate(88.223 230.027)"/>
        <rect id="Rectángulo_36624" data-name="Rectángulo 36624" width="1.382" height="1.382" transform="translate(86.833 230.027)"/>
        <path id="Trazado_228539" data-name="Trazado 228539" d="M40.2,138.427h-.557v-3.579H38.79v-.4l1.405-.157Z" transform="translate(-27.581 -34.866)"/>
        <path id="Trazado_228540" data-name="Trazado 228540" d="M44.325,134.2a1.829,1.829,0,0,1,.416.047,1.57,1.57,0,0,1,.353.118l-.126.432a1.874,1.874,0,0,0-.29-.118,1.568,1.568,0,0,0-.353-.039.871.871,0,0,0-.722.353,1.491,1.491,0,0,0-.267.926v.071a1.311,1.311,0,0,1,.416-.251,1.326,1.326,0,0,1,.5-.086,1.107,1.107,0,0,1,.887.385,1.437,1.437,0,0,1,.33.973,1.57,1.57,0,0,1-.353,1.044,1.146,1.146,0,0,1-.934.408,1.319,1.319,0,0,1-1.013-.44,1.79,1.79,0,0,1-.392-1.248v-.785a1.845,1.845,0,0,1,.44-1.287A1.436,1.436,0,0,1,44.325,134.2Zm-.2,1.868a.95.95,0,0,0-.487.118.785.785,0,0,0-.306.306v.338a1.366,1.366,0,0,0,.243.879.722.722,0,0,0,.6.314.6.6,0,0,0,.534-.29,1.256,1.256,0,0,0,.2-.722,1.036,1.036,0,0,0-.212-.675A.675.675,0,0,0,44.129,136.068Z" transform="translate(-28.437 -34.847)"/>
        <path id="Trazado_228541" data-name="Trazado 228541" d="M48.007,137.471h-1.4V137h1.4Z" transform="translate(-29.262 -35.449)"/>
        <path id="Trazado_228542" data-name="Trazado 228542" d="M49.144,136.546l.243-2.276H51.46v.5H49.89l-.133,1.162a1.145,1.145,0,0,1,.29-.157.934.934,0,0,1,.369-.071,1.107,1.107,0,0,1,.9.369,1.507,1.507,0,0,1,.33,1.02,1.476,1.476,0,0,1-.33,1,1.248,1.248,0,0,1-.981.377,1.358,1.358,0,0,1-.879-.283,1,1,0,0,1-.33-.848h.51a.675.675,0,0,0,.2.518.785.785,0,0,0,1.06-.063,1.107,1.107,0,0,0,.2-.683,1.052,1.052,0,0,0-.2-.659.667.667,0,0,0-.549-.251.934.934,0,0,0-.479.094.636.636,0,0,0-.212.306Z" transform="translate(-29.803 -34.862)"/>
        <path id="Trazado_228543" data-name="Trazado 228543" d="M55.66,135.338a.879.879,0,0,1-.188.565,1.052,1.052,0,0,1-.487.369,1.193,1.193,0,0,1,.573.392.973.973,0,0,1,.212.62,1.075,1.075,0,0,1-.377.879,1.507,1.507,0,0,1-.966.3,1.57,1.57,0,0,1-.989-.3,1.091,1.091,0,0,1-.369-.879.973.973,0,0,1,.212-.62,1.161,1.161,0,0,1,.573-.392.973.973,0,0,1-.487-.369.918.918,0,0,1-.181-.565,1.075,1.075,0,0,1,.338-.848,1.319,1.319,0,0,1,.895-.29,1.35,1.35,0,0,1,.895.29,1.083,1.083,0,0,1,.345.848Zm-.447,1.931a.738.738,0,0,0-.228-.557.785.785,0,0,0-1.35.557.714.714,0,0,0,.212.549.832.832,0,0,0,.581.2.785.785,0,0,0,.565-.2A.691.691,0,0,0,55.213,137.269Zm-.118-1.915a.706.706,0,0,0-.188-.51.691.691,0,0,0-.973,0,.7.7,0,0,0-.181.518.683.683,0,0,0,.181.5.667.667,0,0,0,.495.188.644.644,0,0,0,.479-.188A.691.691,0,0,0,55.095,135.353Z" transform="translate(-30.651 -34.846)"/>
        <path id="Trazado_228544" data-name="Trazado 228544" d="M58.913,134.2a1.828,1.828,0,0,1,.416.047,1.57,1.57,0,0,1,.353.118l-.126.432a1.874,1.874,0,0,0-.29-.118,1.569,1.569,0,0,0-.353-.039.871.871,0,0,0-.722.353,1.491,1.491,0,0,0-.267.926v.071a1.311,1.311,0,0,1,.416-.251,1.326,1.326,0,0,1,.5-.086,1.107,1.107,0,0,1,.887.385,1.436,1.436,0,0,1,.33.973,1.57,1.57,0,0,1-.353,1.044,1.162,1.162,0,0,1-.934.408,1.319,1.319,0,0,1-1.013-.44,1.79,1.79,0,0,1-.4-1.248v-.785a1.853,1.853,0,0,1,.447-1.287,1.437,1.437,0,0,1,1.107-.5Zm-.2,1.868a.95.95,0,0,0-.487.118.785.785,0,0,0-.306.306v.338a1.413,1.413,0,0,0,.235.879.785.785,0,0,0,.612.314.6.6,0,0,0,.534-.29,1.319,1.319,0,0,0,.2-.722,1.036,1.036,0,0,0-.212-.675A.675.675,0,0,0,58.717,136.068Z" transform="translate(-31.573 -34.847)"/>
        <path id="Trazado_228545" data-name="Trazado 228545" d="M80.487,137.985H82.45v.447H79.93V134.28h.557Z" transform="translate(-36.427 -34.864)"/>
        <path id="Trazado_228546" data-name="Trazado 228546" d="M83.64,137.13a1.735,1.735,0,0,1,.369-1.13,1.374,1.374,0,0,1,2.017,0,1.664,1.664,0,0,1,.377,1.13v.063a1.7,1.7,0,0,1-.369,1.122,1.389,1.389,0,0,1-2.025,0,1.7,1.7,0,0,1-.369-1.122Zm.565.055a1.421,1.421,0,0,0,.2.785.683.683,0,0,0,.612.322.691.691,0,0,0,.612-.322,1.484,1.484,0,0,0,.2-.785v-.063a1.476,1.476,0,0,0-.2-.785.7.7,0,0,0-.62-.322.675.675,0,0,0-.6.322,1.413,1.413,0,0,0-.2.785Z" transform="translate(-37.224 -35.139)"/>
        <path id="Trazado_228547" data-name="Trazado 228547" d="M89.484,136.114h-.29a.636.636,0,0,0-.369.1.691.691,0,0,0-.235.3v2.206H88v-3.085h.5l.055.447a1.06,1.06,0,0,1,.322-.369.738.738,0,0,1,.447-.133h.212Z" transform="translate(-38.162 -35.143)"/>
        <path id="Trazado_228548" data-name="Trazado 228548" d="M91.754,138.754a1.3,1.3,0,0,1-1.02-.424,1.57,1.57,0,0,1-.385-1.115v-.126a1.57,1.57,0,0,1,.392-1.1,1.2,1.2,0,0,1,.926-.432,1.162,1.162,0,0,1,.942.377,1.476,1.476,0,0,1,.322,1v.353h-2a1.225,1.225,0,0,0,.228.73.714.714,0,0,0,.6.283,1.57,1.57,0,0,0,.5-.079,1.17,1.17,0,0,0,.369-.228l.22.369a1.3,1.3,0,0,1-.432.267A1.657,1.657,0,0,1,91.754,138.754ZM91.645,136a.6.6,0,0,0-.479.236,1.107,1.107,0,0,0-.243.6h1.421v-.078a.856.856,0,0,0-.173-.549A.62.62,0,0,0,91.645,136Z" transform="translate(-38.667 -35.138)"/>
        <path id="Trazado_228549" data-name="Trazado 228549" d="M94.942,135.614v.4a1.06,1.06,0,0,1,.385-.338,1.193,1.193,0,0,1,.542-.118.958.958,0,0,1,.526.141.785.785,0,0,1,.33.424,1.224,1.224,0,0,1,.385-.416,1.02,1.02,0,0,1,.557-.149.911.911,0,0,1,.785.322,1.484,1.484,0,0,1,.275.973V138.7h-.557v-1.853a1.028,1.028,0,0,0-.157-.644.659.659,0,0,0-.934,0,.887.887,0,0,0-.212.5v1.986H96.3v-1.845a1.052,1.052,0,0,0-.157-.636.565.565,0,0,0-.463-.2.785.785,0,0,0-.424.1.667.667,0,0,0-.251.3V138.7H94.44v-3.085Z" transform="translate(-39.547 -35.138)"/>
        <path id="Trazado_228550" data-name="Trazado 228550" d="M103.405,134.463h-.565v-.573h.565Zm0,3.878h-.565v-3.085h.565Z" transform="translate(-41.353 -34.78)"/>
        <path id="Trazado_228551" data-name="Trazado 228551" d="M107.282,137.271a1.7,1.7,0,0,1-.314,1.075,1.052,1.052,0,0,1-.879.408,1.224,1.224,0,0,1-.5-.094.989.989,0,0,1-.369-.283v1.507h-.557v-4.27h.432l.086.4a.965.965,0,0,1,.377-.338,1.107,1.107,0,0,1,.526-.118,1.02,1.02,0,0,1,.887.455,2.025,2.025,0,0,1,.314,1.193Zm-.557-.063a1.641,1.641,0,0,0-.2-.856.675.675,0,0,0-.612-.338.691.691,0,0,0-.408.11.785.785,0,0,0-.283.3v1.484a.738.738,0,0,0,.283.3.785.785,0,0,0,.416.11.691.691,0,0,0,.6-.29,1.311,1.311,0,0,0,.2-.785Z" transform="translate(-41.745 -35.139)"/>
        <path id="Trazado_228552" data-name="Trazado 228552" d="M110.654,137.875a.408.408,0,0,0-.141-.306,1.311,1.311,0,0,0-.534-.2,2.441,2.441,0,0,1-.848-.33.675.675,0,0,1-.283-.573.785.785,0,0,1,.314-.644,1.3,1.3,0,0,1,.832-.259,1.217,1.217,0,0,1,.856.275.785.785,0,0,1,.306.667h-.534a.518.518,0,0,0-.165-.369.667.667,0,0,0-.455-.157.6.6,0,0,0-.44.133.392.392,0,0,0-.149.314.369.369,0,0,0,.133.29,1.5,1.5,0,0,0,.518.181,2.355,2.355,0,0,1,.871.345.683.683,0,0,1,.283.573.785.785,0,0,1-.33.667,1.421,1.421,0,0,1-.871.251,1.366,1.366,0,0,1-.926-.3.832.832,0,0,1-.322-.7h.534a.5.5,0,0,0,.22.432.848.848,0,0,0,.487.141.785.785,0,0,0,.471-.118.392.392,0,0,0,.173-.314Z" transform="translate(-42.628 -35.138)"/>
        <path id="Trazado_228553" data-name="Trazado 228553" d="M114.719,138.28a1,1,0,0,1-.369.377,1.122,1.122,0,0,1-1.319-.188,1.491,1.491,0,0,1-.283-1V135.65h.565v1.845a1.193,1.193,0,0,0,.141.683.565.565,0,0,0,.455.181.926.926,0,0,0,.495-.118.785.785,0,0,0,.3-.345v-2.221h.6v3.085h-.5Z" transform="translate(-43.483 -35.158)"/>
        <path id="Trazado_228554" data-name="Trazado 228554" d="M117.495,135.615l.039.4a1.059,1.059,0,0,1,.385-.338,1.193,1.193,0,0,1,.542-.118.958.958,0,0,1,.526.141.879.879,0,0,1,.338.424,1.091,1.091,0,0,1,.385-.416,1,1,0,0,1,.557-.149.9.9,0,0,1,.738.322,1.444,1.444,0,0,1,.275.973V138.7h-.557v-1.853a1.028,1.028,0,0,0-.157-.644.581.581,0,0,0-.471-.188.589.589,0,0,0-.463.2.887.887,0,0,0-.212.5V138.7h-.565v-1.853a1,1,0,0,0-.157-.636.565.565,0,0,0-.463-.2.785.785,0,0,0-.424.1.667.667,0,0,0-.251.3V138.7H117v-3.085Z" transform="translate(-44.398 -35.139)"/>
        <path id="Trazado_228555" data-name="Trazado 228555" d="M126.311,136.768l.652-1.138h.659l-1,1.523,1.036,1.57H127l-.683-1.17-.683,1.17H125l1.028-1.57L125,135.63h.652Z" transform="translate(-46.119 -35.154)"/>
        <path id="Trazado_228556" data-name="Trazado 228556" d="M133.507,138.411h-2.692v-.392l1.358-1.507a3.72,3.72,0,0,0,.495-.644,1.013,1.013,0,0,0,.133-.495.785.785,0,0,0-.181-.518.612.612,0,0,0-.479-.212.785.785,0,0,0-.636.22.9.9,0,0,0-.2.62h-.542a1.13,1.13,0,0,1,.353-.9,1.389,1.389,0,0,1,1.028-.361,1.2,1.2,0,0,1,.887.322,1.123,1.123,0,0,1,.33.832,1.287,1.287,0,0,1-.2.675,4.528,4.528,0,0,1-.565.738l-1.091,1.185h2Z" transform="translate(-47.356 -34.85)"/>
        <path id="Trazado_228557" data-name="Trazado 228557" d="M200.368,137.154a.573.573,0,0,0-.181-.432,1.491,1.491,0,0,0-.6-.33,2.064,2.064,0,0,1-.871-.463,1.052,1.052,0,0,1-.29-.785,1.075,1.075,0,0,1,.267-.785,1.185,1.185,0,0,1,.785-.361v-.628h.447v.636a1.107,1.107,0,0,1,.746.408,1.46,1.46,0,0,1,.259.911h-.557a1.044,1.044,0,0,0-.181-.628.581.581,0,0,0-.495-.235.652.652,0,0,0-.5.173.644.644,0,0,0-.173.479.612.612,0,0,0,.173.447,1.625,1.625,0,0,0,.628.33,2.167,2.167,0,0,1,.863.463,1.028,1.028,0,0,1,.283.785,1.083,1.083,0,0,1-.29.785,1.319,1.319,0,0,1-.785.338v.549h-.447v-.542a1.311,1.311,0,0,1-.785-.361,1.154,1.154,0,0,1-.306-.895h.5a.785.785,0,0,0,.22.628.966.966,0,0,0,1.115,0A.589.589,0,0,0,200.368,137.154Z" transform="translate(-61.892 -34.668)"/>
        <path id="Trazado_228558" data-name="Trazado 228558" d="M204.656,137.025h.573v.44h-.573v.958h-.565v-.958h-1.86v-.314l1.829-2.881h.6Zm-1.829,0h1.264v-1.947h0l-.055.141Z" transform="translate(-62.725 -34.862)"/>
        <path id="Trazado_228559" data-name="Trazado 228559" d="M209.276,136.822a1.845,1.845,0,0,1-.353,1.217,1.311,1.311,0,0,1-1.931,0,1.86,1.86,0,0,1-.353-1.217v-.981a1.86,1.86,0,0,1,.353-1.217,1.311,1.311,0,0,1,1.931,0,1.861,1.861,0,0,1,.353,1.217Zm-.557-1.1a1.452,1.452,0,0,0-.2-.785.659.659,0,0,0-.565-.267.644.644,0,0,0-.565.267,1.4,1.4,0,0,0-.2.785v1.209a1.374,1.374,0,0,0,.2.785.667.667,0,0,0,.565.275.644.644,0,0,0,.565-.275,1.437,1.437,0,0,0,.2-.785Z" transform="translate(-63.673 -34.846)"/>
        <path id="Trazado_228560" data-name="Trazado 228560" d="M211.549,139.4H211v-.581h.557Z" transform="translate(-64.611 -35.84)"/>
        <path id="Trazado_228561" data-name="Trazado 228561" d="M213,136.546l.235-2.276h2.119v.5h-1.57l-.141,1.162a1.35,1.35,0,0,1,.3-.157.888.888,0,0,1,.369-.071,1.107,1.107,0,0,1,.9.369,1.507,1.507,0,0,1,.33,1.02,1.444,1.444,0,0,1-.338,1,1.232,1.232,0,0,1-.973.377,1.358,1.358,0,0,1-.879-.283,1.013,1.013,0,0,1-.338-.848h.51a.652.652,0,0,0,.7.706.659.659,0,0,0,.549-.251,1.06,1.06,0,0,0,.2-.683,1.044,1.044,0,0,0-.2-.659.667.667,0,0,0-.549-.251.918.918,0,0,0-.479.094.6.6,0,0,0-.22.306Z" transform="translate(-65.041 -34.862)"/>
        <path id="Trazado_228562" data-name="Trazado 228562" d="M218.575,134.2a1.949,1.949,0,0,1,.424.047,1.61,1.61,0,0,1,.345.118l-.126.432a1.222,1.222,0,0,0-.644-.157.879.879,0,0,0-.722.353,1.491,1.491,0,0,0-.267.926v.071a1.311,1.311,0,0,1,.416-.251,1.327,1.327,0,0,1,.5-.086,1.091,1.091,0,0,1,.887.385,1.437,1.437,0,0,1,.33.973,1.57,1.57,0,0,1-.353,1.044,1.146,1.146,0,0,1-.934.408,1.319,1.319,0,0,1-1.013-.44,1.829,1.829,0,0,1-.392-1.248v-.785a1.884,1.884,0,0,1,.44-1.287A1.436,1.436,0,0,1,218.575,134.2Zm-.2,1.868a.95.95,0,0,0-.487.118.785.785,0,0,0-.306.306v.338a1.366,1.366,0,0,0,.243.879.722.722,0,0,0,.6.314.6.6,0,0,0,.534-.29,1.256,1.256,0,0,0,.2-.722,1.036,1.036,0,0,0-.212-.675.667.667,0,0,0-.549-.267Z" transform="translate(-65.907 -34.847)"/>
        <path id="Trazado_228563" data-name="Trazado 228563" d="M41.836,148.585a5.746,5.746,0,0,0-1.1,1.57,6.421,6.421,0,0,0-.416,1.672l-.047.447h-.612l.047-.447a5.636,5.636,0,0,1,.51-1.75,6.39,6.39,0,0,1,1.02-1.507H38.79v-.44h3.046Z" transform="translate(-27.581 -37.842)"/>
        <path id="Trazado_228564" data-name="Trazado 228564" d="M45.88,150.9h.62v.44h-.62v.958h-.6v-.958H43.25v-.314l1.986-2.873h.644Zm-1.978,0h1.374v-1.947h0l-.063.141Z" transform="translate(-28.54 -37.846)"/>
        <path id="Trazado_228565" data-name="Trazado 228565" d="M49.235,151.36H47.72v-.44h1.515Z" transform="translate(-29.501 -38.442)"/>
        <path id="Trazado_228566" data-name="Trazado 228566" d="M53.112,150.7a1.782,1.782,0,0,1-.385,1.217,1.515,1.515,0,0,1-2.1,0,1.758,1.758,0,0,1-.385-1.217v-.989a1.743,1.743,0,0,1,.385-1.217,1.35,1.35,0,0,1,1.052-.424,1.334,1.334,0,0,1,1.044.424,1.743,1.743,0,0,1,.392,1.217Zm-.612-1.115a1.3,1.3,0,0,0-.212-.785.832.832,0,0,0-1.232,0,1.35,1.35,0,0,0-.2.785V150.8a1.3,1.3,0,0,0,.212.785.824.824,0,0,0,1.225,0,1.335,1.335,0,0,0,.212-.785Z" transform="translate(-30.042 -37.829)"/>
        <path id="Trazado_228567" data-name="Trazado 228567" d="M56.581,152.29h-.6v-3.6H55.05v-.408l1.57-.149Z" transform="translate(-31.077 -37.842)"/>
        <path id="Trazado_228568" data-name="Trazado 228568" d="M60.187,149.954h.526a.628.628,0,0,0,.746-.706.73.73,0,0,0-.188-.542.938.938,0,0,0-1.138.008.636.636,0,0,0-.22.51h-.581a.95.95,0,0,1,.369-.785,1.491,1.491,0,0,1,1-.33,1.515,1.515,0,0,1,1,.306,1.06,1.06,0,0,1,.377.871.871.871,0,0,1-.173.51,1.02,1.02,0,0,1-.5.392.981.981,0,0,1,.573.385,1.162,1.162,0,0,1-.235,1.476,1.57,1.57,0,0,1-1.036.33,1.656,1.656,0,0,1-1.02-.306.966.966,0,0,1-.385-.832h.549a.683.683,0,0,0,.22.518.9.9,0,0,0,.6.188.918.918,0,0,0,.612-.188.883.883,0,0,0,.024-1.138.911.911,0,0,0-.62-.181h-.526Z" transform="translate(-31.99 -37.837)"/>
        <path id="Trazado_228569" data-name="Trazado 228569" d="M82.928,150.574a1.68,1.68,0,0,1-.51,1.264,1.829,1.829,0,0,1-1.327.5,1.75,1.75,0,0,1-1.287-.5,1.727,1.727,0,0,1-.495-1.264v-.738a1.743,1.743,0,0,1,.495-1.264,1.719,1.719,0,0,1,1.287-.5,1.8,1.8,0,0,1,1.327.5,1.68,1.68,0,0,1,.51,1.264Zm-.6-.746a1.311,1.311,0,0,0-.338-.934,1.146,1.146,0,0,0-.895-.361,1.083,1.083,0,0,0-.856.361,1.413,1.413,0,0,0-.314.934v.746a1.421,1.421,0,0,0,.314.942,1.083,1.083,0,0,0,.856.361,1.146,1.146,0,0,0,.895-.361,1.319,1.319,0,0,0,.338-.942Z" transform="translate(-36.294 -37.829)"/>
        <path id="Trazado_228570" data-name="Trazado 228570" d="M86.566,149.979h-.314a.738.738,0,0,0-.408.11.651.651,0,0,0-.251.29v2.206H84.98v-3.1h.542l.063.455a1.028,1.028,0,0,1,.353-.377.879.879,0,0,1,.479-.133h.228Z" transform="translate(-37.513 -38.121)"/>
        <path id="Trazado_228571" data-name="Trazado 228571" d="M92.254,151.237a.6.6,0,0,0-.236-.479,2.009,2.009,0,0,0-.785-.314,2.928,2.928,0,0,1-1.123-.463.934.934,0,0,1-.4-.785,1.013,1.013,0,0,1,.432-.785,1.845,1.845,0,0,1,1.123-.322,1.774,1.774,0,0,1,1.177.369,1.091,1.091,0,0,1,.424.871h-.612a.738.738,0,0,0-.259-.589,1.154,1.154,0,0,0-.785-.228,1.123,1.123,0,0,0-.7.188.589.589,0,0,0-.243.495.549.549,0,0,0,.259.455,2.653,2.653,0,0,0,.856.314,2.488,2.488,0,0,1,1.083.479.981.981,0,0,1,.377.785.934.934,0,0,1-.447.785,2.01,2.01,0,0,1-1.162.306,2.167,2.167,0,0,1-1.193-.337,1,1,0,0,1-.51-.9h.581a.691.691,0,0,0,.322.6,1.4,1.4,0,0,0,.785.2,1.326,1.326,0,0,0,.73-.173.557.557,0,0,0,.306-.479Z" transform="translate(-38.491 -37.833)"/>
        <path id="Trazado_228572" data-name="Trazado 228572" d="M95.424,148.343h-.6v-.573h.6Zm0,3.87h-.6v-3.085h.6Z" transform="translate(-39.629 -37.764)"/>
        <path id="Trazado_228573" data-name="Trazado 228573" d="M97.506,148.554v.738h.628v.392h-.628v1.876a.424.424,0,0,0,.094.306.384.384,0,0,0,.259.086h.228l.078.385a.463.463,0,0,1-.2.078,1.045,1.045,0,0,1-.267,0,.785.785,0,0,1-.589-.212.832.832,0,0,1-.22-.644v-1.876H96.36v-.416h.5v-.738Z" transform="translate(-39.96 -37.928)"/>
        <path id="Trazado_228574" data-name="Trazado 228574" d="M104.044,151.227h-1.892l-.424,1.068H101.1l1.75-4.145h.526l1.719,4.145h-.62Zm-1.7-.471h1.523l-.785-1.892h0Z" transform="translate(-40.979 -37.846)"/>
        <path id="Trazado_228575" data-name="Trazado 228575" d="M107.374,149.485v.408a1.185,1.185,0,0,1,.416-.345,1.381,1.381,0,0,1,.589-.118,1.107,1.107,0,0,1,.573.141.863.863,0,0,1,.361.432,1.115,1.115,0,0,1,.416-.416,1.186,1.186,0,0,1,.612-.157,1.068,1.068,0,0,1,.785.322,1.413,1.413,0,0,1,.29.973v1.845h-.526v-1.853a.989.989,0,0,0-.173-.644.644.644,0,0,0-.51-.188.667.667,0,0,0-.5.2.785.785,0,0,0-.228.5v1.978h-.612v-1.853a.934.934,0,0,0-.181-.628.62.62,0,0,0-.5-.2.887.887,0,0,0-.455.11.7.7,0,0,0-.275.29v2.284h-.612v-3.085Z" transform="translate(-42.214 -38.121)"/>
        <path id="Trazado_228576" data-name="Trazado 228576" d="M115.232,152.632a1.476,1.476,0,0,1-1.107-.432,1.507,1.507,0,0,1-.416-1.115v-.126a1.5,1.5,0,0,1,.424-1.091,1.366,1.366,0,0,1,1.013-.44,1.319,1.319,0,0,1,1.02.377,1.4,1.4,0,0,1,.345,1v.345h-2.174a1.146,1.146,0,0,0,.243.73.785.785,0,0,0,.659.283,1.656,1.656,0,0,0,.549-.079,1.311,1.311,0,0,0,.4-.22l.236.361a1.491,1.491,0,0,1-.471.275,2.1,2.1,0,0,1-.722.126Zm-.086-2.763a.683.683,0,0,0-.526.236,1.067,1.067,0,0,0-.267.6h1.57v-.039a.785.785,0,0,0-.2-.549.7.7,0,0,0-.581-.235Z" transform="translate(-43.69 -38.121)"/>
        <path id="Trazado_228577" data-name="Trazado 228577" d="M118.87,148.554v.738h.644v.392h-.636v1.876a.392.392,0,0,0,.1.306.377.377,0,0,0,.251.086h.235l.078.385a.5.5,0,0,1-.2.079.989.989,0,0,1-.259,0,.824.824,0,0,1-.6-.212.863.863,0,0,1-.22-.644v-1.876h-.526v-.416h.526v-.738Z" transform="translate(-44.557 -37.928)"/>
        <path id="Trazado_228578" data-name="Trazado 228578" d="M123.985,150.688l.714-1.138h.714l-1.091,1.523,1.123,1.57h-.7l-.785-1.162-.785,1.162h-.706l1.122-1.57L122.5,149.55h.706Z" transform="translate(-45.574 -38.147)"/>
        <path id="Trazado_228579" data-name="Trazado 228579" d="M130.731,152.29h-.612v-3.6H129.2v-.408l1.57-.149Z" transform="translate(-47.022 -37.842)"/>
        <path id="Trazado_228580" data-name="Trazado 228580" d="M203.362,151.034a.581.581,0,0,0-.2-.44,1.735,1.735,0,0,0-.644-.322,2.355,2.355,0,0,1-.95-.471.981.981,0,0,1-.314-.785,1.044,1.044,0,0,1,.29-.785,1.311,1.311,0,0,1,.785-.353v-.628h.487v.628a1.24,1.24,0,0,1,.785.408,1.4,1.4,0,0,1,.283.918h-.6a.942.942,0,0,0-.2-.628.636.636,0,0,0-.542-.243.785.785,0,0,0-.549.181.636.636,0,0,0-.181.479.589.589,0,0,0,.188.447,2,2,0,0,0,.675.322,2.355,2.355,0,0,1,.942.471.981.981,0,0,1,.306.785,1,1,0,0,1-.314.785,1.468,1.468,0,0,1-.879.345v.542h-.487v-.542a1.46,1.46,0,0,1-.871-.353,1.123,1.123,0,0,1-.33-.9h.589a.73.73,0,0,0,.243.628.911.911,0,0,0,.589.188.973.973,0,0,0,.62-.181.565.565,0,0,0,.283-.495Z" transform="translate(-62.468 -37.653)"/>
        <path id="Trazado_228581" data-name="Trazado 228581" d="M206.477,149.954h.534a.738.738,0,0,0,.573-.188.785.785,0,0,0,.173-.518.738.738,0,0,0-.2-.542.938.938,0,0,0-1.138.008.652.652,0,0,0-.212.51h-.589a.981.981,0,0,1,.377-.785,1.476,1.476,0,0,1,1-.33,1.57,1.57,0,0,1,1,.306,1.052,1.052,0,0,1,.369.871.918.918,0,0,1-.165.51,1.013,1.013,0,0,1-.51.392,1,1,0,0,1,.581.385,1.162,1.162,0,0,1-.235,1.476,1.57,1.57,0,0,1-1.036.33,1.641,1.641,0,0,1-1.02-.306.973.973,0,0,1-.392-.832h.581a.659.659,0,0,0,.22.518,1.052,1.052,0,0,0,1.2,0,.722.722,0,0,0,.22-.573.738.738,0,0,0-.2-.565.879.879,0,0,0-.612-.181h-.534Z" transform="translate(-63.448 -37.837)"/>
        <path id="Trazado_228582" data-name="Trazado 228582" d="M210.982,153.271h-.612v-.581h.612Z" transform="translate(-64.476 -38.822)"/>
        <path id="Trazado_228583" data-name="Trazado 228583" d="M213.553,151.892a.9.9,0,0,0,.714-.306,1.39,1.39,0,0,0,.267-.918v-.188a.981.981,0,0,1-.385.306,1.271,1.271,0,0,1-.5.1,1.429,1.429,0,0,1-1.036-.369,1.523,1.523,0,0,1,0-2.049,1.342,1.342,0,0,1,.989-.4,1.5,1.5,0,0,1,1.115.408,1.625,1.625,0,0,1,.4,1.193v.989a1.633,1.633,0,0,1-.44,1.24,1.57,1.57,0,0,1-1.146.44,2.56,2.56,0,0,1-.487-.047,1.7,1.7,0,0,1-.44-.126l.094-.432a1.256,1.256,0,0,0,.377.126A2.646,2.646,0,0,0,213.553,151.892Zm.094-1.444a1.083,1.083,0,0,0,.557-.133.785.785,0,0,0,.33-.345v-.385a1.264,1.264,0,0,0-.228-.785.785.785,0,0,0-.667-.283.714.714,0,0,0-.565.275,1.036,1.036,0,0,0-.235.706,1.083,1.083,0,0,0,.212.691.785.785,0,0,0,.565.259Z" transform="translate(-64.873 -37.828)"/>
        <path id="Trazado_228584" data-name="Trazado 228584" d="M218.1,151.892a.887.887,0,0,0,.706-.306,1.35,1.35,0,0,0,.275-.918v-.188a.981.981,0,0,1-.385.306,1.3,1.3,0,0,1-.5.1,1.429,1.429,0,0,1-1.036-.369,1.523,1.523,0,0,1,0-2.049,1.342,1.342,0,0,1,.989-.4,1.468,1.468,0,0,1,1.107.408,1.57,1.57,0,0,1,.408,1.193v.989a1.633,1.633,0,0,1-.44,1.24,1.57,1.57,0,0,1-1.146.44,2.559,2.559,0,0,1-.487-.047,1.7,1.7,0,0,1-.44-.126l.086-.432a1.382,1.382,0,0,0,.385.126A2.59,2.59,0,0,0,218.1,151.892Zm.094-1.444a1.107,1.107,0,0,0,.557-.133.864.864,0,0,0,.33-.345v-.385a1.264,1.264,0,0,0-.228-.785.827.827,0,0,0-1.24-.008,1.036,1.036,0,0,0-.235.706,1.083,1.083,0,0,0,.22.691A.785.785,0,0,0,218.2,150.448Z" transform="translate(-65.851 -37.828)"/>
        <path id="Trazado_228585" data-name="Trazado 228585" d="M40.2,166.162h-.557v-3.6H38.79v-.4l1.405-.157Z" transform="translate(-27.581 -40.827)"/>
        <path id="Trazado_228586" data-name="Trazado 228586" d="M45.292,163.086a.918.918,0,0,1-.181.565,1.13,1.13,0,0,1-.495.369,1.162,1.162,0,0,1,.573.392.918.918,0,0,1,.22.612,1.052,1.052,0,0,1-.377.879,1.711,1.711,0,0,1-1.955,0,1.052,1.052,0,0,1-.369-.879.95.95,0,0,1,.212-.612,1.138,1.138,0,0,1,.565-.392,1.107,1.107,0,0,1-.487-.369.911.911,0,0,1-.173-.565,1.091,1.091,0,0,1,.33-.848,1.491,1.491,0,0,1,1.79,0,1.075,1.075,0,0,1,.345.848Zm-.44,1.931a.793.793,0,1,0-1.586,0,.691.691,0,0,0,.22.549.785.785,0,0,0,.573.2.824.824,0,0,0,.573-.2.722.722,0,0,0,.188-.549Zm-.118-1.923a.738.738,0,0,0-.2-.51.636.636,0,0,0-.487-.2.612.612,0,0,0-.479.2.785.785,0,0,0,0,1.02.651.651,0,0,0,.487.188.659.659,0,0,0,.487-.188.691.691,0,0,0,.157-.51Z" transform="translate(-28.423 -40.812)"/>
        <path id="Trazado_228587" data-name="Trazado 228587" d="M48.007,165.23h-1.4v-.44h1.4Z" transform="translate(-29.262 -41.424)"/>
        <path id="Trazado_228588" data-name="Trazado 228588" d="M49.144,164.3l.243-2.276H51.46v.5H49.89l-.133,1.162a1.475,1.475,0,0,1,.29-.165,1.24,1.24,0,0,1,1.272.306,1.507,1.507,0,0,1,.33,1.02,1.476,1.476,0,0,1-.33,1,1.248,1.248,0,0,1-.981.377,1.319,1.319,0,0,1-.879-.29.981.981,0,0,1-.33-.84h.51a.714.714,0,0,0,1.256.463,1.107,1.107,0,0,0,.2-.683,1.052,1.052,0,0,0-.2-.659.667.667,0,0,0-.549-.251.934.934,0,0,0-.479.094.636.636,0,0,0-.212.306Z" transform="translate(-29.803 -40.829)"/>
        <path id="Trazado_228589" data-name="Trazado 228589" d="M55.794,162.455a6.06,6.06,0,0,0-1.02,1.57A7.332,7.332,0,0,0,54.4,165.7l-.047.447h-.565l.047-.447a6.154,6.154,0,0,1,.463-1.75,7.174,7.174,0,0,1,.95-1.507H53V162h2.81Z" transform="translate(-30.636 -40.824)"/>
        <path id="Trazado_228590" data-name="Trazado 228590" d="M59.842,163.086a.918.918,0,0,1-.181.565,1.178,1.178,0,0,1-.495.369,1.162,1.162,0,0,1,.573.392.958.958,0,0,1,.22.612,1.052,1.052,0,0,1-.377.879,1.711,1.711,0,0,1-1.955,0,1.052,1.052,0,0,1-.369-.879.989.989,0,0,1,.2-.612,1.193,1.193,0,0,1,.573-.392,1.107,1.107,0,0,1-.487-.369.918.918,0,0,1-.181-.565,1.091,1.091,0,0,1,.338-.848,1.491,1.491,0,0,1,1.79,0A1.075,1.075,0,0,1,59.842,163.086Zm-.432,1.931a.793.793,0,1,0-1.586,0,.691.691,0,0,0,.22.549.785.785,0,0,0,.573.2.824.824,0,0,0,.573-.2A.722.722,0,0,0,59.41,165.017Zm-.118-1.923a.738.738,0,0,0-.2-.51.636.636,0,0,0-.487-.2.612.612,0,0,0-.479.2.785.785,0,0,0,0,1.02.652.652,0,0,0,.487.188.66.66,0,0,0,.487-.188.691.691,0,0,0,.181-.51Z" transform="translate(-31.552 -40.812)"/>
        <path id="Trazado_228591" data-name="Trazado 228591" d="M82.806,164.816h0a1.248,1.248,0,0,1-.408.981,1.57,1.57,0,0,1-1.115.392,1.46,1.46,0,0,1-1.146-.495,1.853,1.853,0,0,1-.447-1.272v-.738a1.829,1.829,0,0,1,.447-1.264,1.46,1.46,0,0,1,1.146-.5,1.57,1.57,0,0,1,1.115.377,1.232,1.232,0,0,1,.408,1h-.518a.918.918,0,0,0-.259-.691.973.973,0,0,0-.722-.251.9.9,0,0,0-.785.377,1.57,1.57,0,0,0-.275.942v.738a1.617,1.617,0,0,0,.275.95.9.9,0,0,0,.785.377,1.013,1.013,0,0,0,.722-.251.934.934,0,0,0,.259-.7Z" transform="translate(-36.375 -40.806)"/>
        <path id="Trazado_228592" data-name="Trazado 228592" d="M84.33,164.87a1.672,1.672,0,0,1,.377-1.123,1.232,1.232,0,0,1,1-.447,1.256,1.256,0,0,1,1.013.447,1.7,1.7,0,0,1,.369,1.123v.063a1.7,1.7,0,0,1-.369,1.13,1.264,1.264,0,0,1-1.013.44,1.248,1.248,0,0,1-1-.44,1.664,1.664,0,0,1-.377-1.13Zm.565.063a1.484,1.484,0,0,0,.2.785.691.691,0,0,0,.612.322.683.683,0,0,0,.612-.322,1.421,1.421,0,0,0,.212-.785v-.063a1.413,1.413,0,0,0-.212-.785.746.746,0,0,0-1.225,0,1.476,1.476,0,0,0-.2.785Z" transform="translate(-37.373 -41.104)"/>
        <path id="Trazado_228593" data-name="Trazado 228593" d="M89.225,163.362l.047.455a1.036,1.036,0,0,1,.385-.377.974.974,0,0,1,.526-.141,1,1,0,0,1,.785.3,1.24,1.24,0,0,1,.275.9v1.939h-.573v-1.931a.832.832,0,0,0-.165-.581.644.644,0,0,0-.487-.165.863.863,0,0,0-.432.11.9.9,0,0,0-.3.322v2.245H88.73v-3.077Z" transform="translate(-38.319 -41.103)"/>
        <path id="Trazado_228594" data-name="Trazado 228594" d="M94.716,165.623a.377.377,0,0,0-.141-.306,1.264,1.264,0,0,0-.534-.2,2.3,2.3,0,0,1-.84-.338.659.659,0,0,1-.283-.565.785.785,0,0,1,.314-.644,1.287,1.287,0,0,1,.832-.267,1.24,1.24,0,0,1,.856.283.785.785,0,0,1,.306.667h-.534a.487.487,0,0,0-.173-.369.785.785,0,0,0-.887,0,.416.416,0,0,0-.149.322.369.369,0,0,0,.126.283,1.327,1.327,0,0,0,.526.188,2.284,2.284,0,0,1,.871.345.675.675,0,0,1,.283.573.785.785,0,0,1-.338.667,1.4,1.4,0,0,1-.863.251,1.35,1.35,0,0,1-.926-.3.832.832,0,0,1-.322-.7h.542a.494.494,0,0,0,.22.432.848.848,0,0,0,.487.141.785.785,0,0,0,.471-.126A.361.361,0,0,0,94.716,165.623Z" transform="translate(-39.203 -41.103)"/>
        <path id="Trazado_228595" data-name="Trazado 228595" d="M98.084,166.5a1.287,1.287,0,0,1-1.028-.432,1.57,1.57,0,0,1-.377-1.107v-.126a1.57,1.57,0,0,1,.392-1.1A1.2,1.2,0,0,1,98,163.3a1.162,1.162,0,0,1,.942.377,1.515,1.515,0,0,1,.322,1v.353h-2a1.178,1.178,0,0,0,.22.722.714.714,0,0,0,.612.29,1.358,1.358,0,0,0,.495-.086,1.06,1.06,0,0,0,.377-.22l.22.361a1.279,1.279,0,0,1-.44.275,1.8,1.8,0,0,1-.659.126ZM98,163.747a.62.62,0,0,0-.487.236,1.107,1.107,0,0,0-.243.6h1.421V164.5a.856.856,0,0,0-.173-.549A.636.636,0,0,0,98,163.747Z" transform="translate(-40.028 -41.103)"/>
        <path id="Trazado_228596" data-name="Trazado 228596" d="M101.979,166.058a.785.785,0,0,0,.495-.173.534.534,0,0,0,.212-.424h.5a.9.9,0,0,1-.353.714,1.3,1.3,0,0,1-.863.306,1.264,1.264,0,0,1-1.028-.44,1.7,1.7,0,0,1-.353-1.1v-.126a1.648,1.648,0,0,1,.361-1.091,1.232,1.232,0,0,1,1.02-.447,1.256,1.256,0,0,1,.887.322,1,1,0,0,1,.33.785h-.51a.644.644,0,0,0-.2-.479.691.691,0,0,0-.51-.2.675.675,0,0,0-.628.314,1.5,1.5,0,0,0-.188.785v.126a1.507,1.507,0,0,0,.188.785A.691.691,0,0,0,101.979,166.058Z" transform="translate(-40.869 -41.099)"/>
        <path id="Trazado_228597" data-name="Trazado 228597" d="M105.372,162.43v.746h.581v.416h-.581v1.868a.4.4,0,0,0,.086.306.314.314,0,0,0,.235.086h.212l.078.385a.471.471,0,0,1-.188.086.832.832,0,0,1-.243,0,.738.738,0,0,1-.542-.2.91.91,0,0,1-.2-.652V163.6h-.487v-.416h.487v-.746Z" transform="translate(-41.672 -40.917)"/>
        <path id="Trazado_228598" data-name="Trazado 228598" d="M108.525,166.5a1.272,1.272,0,0,1-1.02-.432,1.57,1.57,0,0,1-.385-1.107v-.126a1.57,1.57,0,0,1,.392-1.1,1.217,1.217,0,0,1,.926-.44,1.162,1.162,0,0,1,.942.377,1.515,1.515,0,0,1,.322,1v.353h-2a1.185,1.185,0,0,0,.228.722.7.7,0,0,0,.6.29,1.406,1.406,0,0,0,.5-.086,1.029,1.029,0,0,0,.369-.22l.22.361a1.241,1.241,0,0,1-.432.275A1.806,1.806,0,0,1,108.525,166.5Zm-.086-2.755a.6.6,0,0,0-.479.236,1.107,1.107,0,0,0-.243.6h1.429V164.5a.856.856,0,0,0-.181-.549A.62.62,0,0,0,108.438,163.747Z" transform="translate(-42.273 -41.103)"/>
        <path id="Trazado_228599" data-name="Trazado 228599" d="M111.872,162.43v.746h.581v.416h-.581v1.868a.4.4,0,0,0,.086.306.314.314,0,0,0,.236.086h.212l.078.385a.526.526,0,0,1-.188.086.832.832,0,0,1-.243,0,.738.738,0,0,1-.542-.2.911.911,0,0,1-.2-.652V163.6h-.487v-.416h.487v-.746Z" transform="translate(-43.069 -40.917)"/>
        <path id="Trazado_228600" data-name="Trazado 228600" d="M115.739,166a1.107,1.107,0,0,1-.377.385,1.044,1.044,0,0,1-.526.133,1,1,0,0,1-.785-.322,1.491,1.491,0,0,1-.283-1V163.38h.557V165.2a1.083,1.083,0,0,0,.149.675.526.526,0,0,0,.447.188.926.926,0,0,0,.495-.118.785.785,0,0,0,.3-.345V163.38h.589v3.077h-.5Z" transform="translate(-43.702 -41.121)"/>
        <path id="Trazado_228601" data-name="Trazado 228601" d="M119.254,166.5a1.287,1.287,0,0,1-1.028-.432,1.57,1.57,0,0,1-.377-1.107v-.126a1.57,1.57,0,0,1,.392-1.1,1.2,1.2,0,0,1,.926-.44,1.162,1.162,0,0,1,.942.377,1.507,1.507,0,0,1,.314,1v.353H118.43a1.177,1.177,0,0,0,.22.722.714.714,0,0,0,.612.29,1.358,1.358,0,0,0,.495-.086,1.06,1.06,0,0,0,.377-.22l.22.361a1.279,1.279,0,0,1-.44.275,1.8,1.8,0,0,1-.659.126Zm-.086-2.755a.62.62,0,0,0-.487.236,1.107,1.107,0,0,0-.243.6h1.421V164.5a.855.855,0,0,0-.181-.549A.62.62,0,0,0,119.168,163.747Z" transform="translate(-44.58 -41.103)"/>
        <path id="Trazado_228602" data-name="Trazado 228602" d="M123.392,163.852h-.283a.644.644,0,0,0-.377.1.691.691,0,0,0-.236.3v2.2h-.557v-3.077h.5l.047.447a1.083,1.083,0,0,1,.33-.369.714.714,0,0,1,.44-.141h.212Z" transform="translate(-45.461 -41.106)"/>
        <path id="Trazado_228603" data-name="Trazado 228603" d="M127.3,164.518l.659-1.138h.652l-1,1.523,1.028,1.57H128l-.683-1.162-.683,1.162H126l1.028-1.57L126,163.38h.644Z" transform="translate(-46.334 -41.121)"/>
        <path id="Trazado_228604" data-name="Trazado 228604" d="M133.483,166.162h-.565v-3.6h-.848v-.4l1.413-.157Z" transform="translate(-47.639 -40.827)"/>
        <path id="Trazado_228605" data-name="Trazado 228605" d="M200.57,164.9a.589.589,0,0,0-.181-.44,1.57,1.57,0,0,0-.6-.322,2.064,2.064,0,0,1-.871-.463,1.052,1.052,0,0,1-.29-.785,1.075,1.075,0,0,1,.267-.785,1.146,1.146,0,0,1,.746-.361v-.628h.447v.691a1.075,1.075,0,0,1,.785.408,1.46,1.46,0,0,1,.259.911h-.557a1.028,1.028,0,0,0-.181-.628.581.581,0,0,0-.495-.235.652.652,0,0,0-.5.173.644.644,0,0,0-.173.479.612.612,0,0,0,.173.447,1.633,1.633,0,0,0,.628.322,2.166,2.166,0,0,1,.863.471,1.028,1.028,0,0,1,.283.785,1.083,1.083,0,0,1-.29.785,1.319,1.319,0,0,1-.785.338v.549h-.447v-.542a1.35,1.35,0,0,1-.785-.361,1.177,1.177,0,0,1-.3-.895h.542a.712.712,0,0,0,.761.809.848.848,0,0,0,.573-.173A.6.6,0,0,0,200.57,164.9Z" transform="translate(-61.937 -40.635)"/>
        <path id="Trazado_228606" data-name="Trazado 228606" d="M204.317,166.162h-.549v-3.6h-.848v-.4l1.405-.157Z" transform="translate(-62.874 -40.827)"/>
        <path id="Trazado_228607" data-name="Trazado 228607" d="M207.044,164.3l.243-2.276h2.072v.5h-1.57l-.133,1.162a1.476,1.476,0,0,1,.29-.165,1.067,1.067,0,0,1,.369-.063,1.107,1.107,0,0,1,.9.369,1.507,1.507,0,0,1,.33,1.02,1.444,1.444,0,0,1-.338,1,1.217,1.217,0,0,1-.973.377,1.319,1.319,0,0,1-.879-.29.981.981,0,0,1-.33-.84h.51a.714.714,0,0,0,1.256.463,1.107,1.107,0,0,0,.2-.683,1.052,1.052,0,0,0-.2-.659.667.667,0,0,0-.549-.251.934.934,0,0,0-.479.094.589.589,0,0,0-.212.306Z" transform="translate(-63.756 -40.829)"/>
        <path id="Trazado_228608" data-name="Trazado 228608" d="M211.745,167.141h-.565v-.581h.565Z" transform="translate(-64.65 -41.805)"/>
        <path id="Trazado_228609" data-name="Trazado 228609" d="M214.106,165.768a.785.785,0,0,0,.659-.314,1.444,1.444,0,0,0,.243-.918v-.2a.918.918,0,0,1-.345.306,1.028,1.028,0,0,1-.463.1,1.24,1.24,0,0,1-.958-.369,1.429,1.429,0,0,1-.353-1.02,1.444,1.444,0,0,1,.377-1.028,1.193,1.193,0,0,1,.911-.4,1.334,1.334,0,0,1,1.02.408,1.7,1.7,0,0,1,.377,1.193v.989a1.743,1.743,0,0,1-.408,1.248,1.366,1.366,0,0,1-1.06.432,3.047,3.047,0,0,1-.447,0,1.844,1.844,0,0,1-.4-.126l.086-.44a1.146,1.146,0,0,0,.345.126,2.205,2.205,0,0,0,.416.008Zm.094-1.452a.926.926,0,0,0,.51-.133.722.722,0,0,0,.3-.338v-.361a1.421,1.421,0,0,0-.2-.785.714.714,0,0,0-.612-.275.636.636,0,0,0-.526.275,1.245,1.245,0,0,0-.016,1.389.636.636,0,0,0,.549.251Z" transform="translate(-65.017 -40.809)"/>
        <path id="Trazado_228610" data-name="Trazado 228610" d="M218.294,165.768a.785.785,0,0,0,.652-.314,1.436,1.436,0,0,0,.251-.918v-.2a.942.942,0,0,1-.353.306.981.981,0,0,1-.463.1,1.248,1.248,0,0,1-.958-.369,1.429,1.429,0,0,1-.353-1.02,1.444,1.444,0,0,1,.377-1.028,1.209,1.209,0,0,1,.911-.4,1.35,1.35,0,0,1,1.028.408,1.735,1.735,0,0,1,.369,1.193v.989a1.782,1.782,0,0,1-.4,1.248,1.389,1.389,0,0,1-1.06.432,2.872,2.872,0,0,1-.447,0,1.914,1.914,0,0,1-.408-.126l.086-.44a1.115,1.115,0,0,0,.353.126A2.142,2.142,0,0,0,218.294,165.768Zm.086-1.452a.974.974,0,0,0,.518-.133.785.785,0,0,0,.3-.338v-.361a1.358,1.358,0,0,0-.212-.785.714.714,0,0,0-.612-.275.62.62,0,0,0-.518.275,1.068,1.068,0,0,0-.22.7,1.091,1.091,0,0,0,.2.691.659.659,0,0,0,.549.251Z" transform="translate(-65.916 -40.809)"/>
        <path id="Trazado_228611" data-name="Trazado 228611" d="M41.7,195.218H40.69v3.407h-.895v-3.407h-1v-.738H41.7Z" transform="translate(-27.581 -47.809)"/>
        <path id="Trazado_228612" data-name="Trazado 228612" d="M46.027,196.894a1.813,1.813,0,0,1-.447,1.264,1.641,1.641,0,0,1-2.355,0,1.782,1.782,0,0,1-.455-1.264v-.785a1.829,1.829,0,0,1,.447-1.264,1.656,1.656,0,0,1,2.355,0,1.8,1.8,0,0,1,.455,1.264Zm-.887-.785a1.3,1.3,0,0,0-.2-.73.62.62,0,0,0-.549-.29.636.636,0,0,0-.557.283,1.334,1.334,0,0,0-.188.738v.785a1.24,1.24,0,0,0,.2.738.628.628,0,0,0,.557.283.62.62,0,0,0,.542-.283,1.3,1.3,0,0,0,.2-.738Z" transform="translate(-28.436 -47.782)"/>
        <path id="Trazado_228613" data-name="Trazado 228613" d="M50.11,195.218H49.09v3.407h-.895v-3.407h-1v-.738h2.92Z" transform="translate(-29.387 -47.809)"/>
        <path id="Trazado_228614" data-name="Trazado 228614" d="M52.964,197.81H51.755l-.22.785H50.64l1.24-4.145h.958l1.225,4.168h-.879Zm-1.013-.738h.785l-.4-1.484h0Z" transform="translate(-30.129 -47.802)"/>
        <path id="Trazado_228615" data-name="Trazado 228615" d="M56.265,197.887h1.656v.738H55.37V194.48h.895Z" transform="translate(-31.146 -47.809)"/>
        <path id="Trazado_228616" data-name="Trazado 228616" d="M60.067,196.645H59.18v-.785h.887Zm0,2.276H59.18v-.785h.887Z" transform="translate(-31.965 -48.105)"/>
        <path id="Trazado_228617" data-name="Trazado 228617" d="M199.015,197.354a.542.542,0,0,0-.1-.353,1.177,1.177,0,0,0-.353-.243,2.857,2.857,0,0,1-.911-.542,1.068,1.068,0,0,1-.283-.785,1.13,1.13,0,0,1,.3-.785,1.264,1.264,0,0,1,.785-.361v-.6h.424v.62a1.17,1.17,0,0,1,.785.416,1.358,1.358,0,0,1,.267.887h-.879a.785.785,0,0,0-.11-.463.345.345,0,0,0-.3-.149.322.322,0,0,0-.275.118.534.534,0,0,0-.086.322.518.518,0,0,0,.094.322.95.95,0,0,0,.361.243,3.329,3.329,0,0,1,.9.565,1.083,1.083,0,0,1,.283.785,1.107,1.107,0,0,1-.29.785,1.2,1.2,0,0,1-.785.353v.573h-.416v-.573a1.413,1.413,0,0,1-.856-.385,1.3,1.3,0,0,1-.322-.973h.863a.691.691,0,0,0,.149.5.471.471,0,0,0,.369.157.337.337,0,0,0,.283-.118A.455.455,0,0,0,199.015,197.354Z" transform="translate(-61.653 -47.637)"/>
        <path id="Trazado_228618" data-name="Trazado 228618" d="M204.1,197.924a.557.557,0,0,0,.44-.2.863.863,0,0,0,.173-.573v-.181a.934.934,0,0,1-.3.259.84.84,0,0,1-.361.086.973.973,0,0,1-.785-.385,1.664,1.664,0,0,1-.3-1.044,1.57,1.57,0,0,1,.377-1.052,1.217,1.217,0,0,1,.965-.432,1.185,1.185,0,0,1,.958.455,1.876,1.876,0,0,1,.377,1.24v.989a1.57,1.57,0,0,1-.432,1.146,1.444,1.444,0,0,1-1.075.44,1.86,1.86,0,0,1-.408-.047,2.259,2.259,0,0,1-.408-.133l.094-.691a1.633,1.633,0,0,0,.345.094A1.83,1.83,0,0,0,204.1,197.924Zm.149-1.3a.6.6,0,0,0,.267-.063.431.431,0,0,0,.2-.157v-.424a1.2,1.2,0,0,0-.126-.62.353.353,0,0,0-.314-.22.369.369,0,0,0-.33.228,1.1,1.1,0,0,0-.118.518,1.114,1.114,0,0,0,.1.534A.353.353,0,0,0,204.249,196.621Z" transform="translate(-62.884 -47.791)"/>
        <path id="Trazado_228619" data-name="Trazado 228619" d="M209.605,196.967a1.907,1.907,0,0,1-.361,1.272,1.319,1.319,0,0,1-1.955,0,1.907,1.907,0,0,1-.361-1.272V196.1a1.939,1.939,0,0,1,.353-1.264,1.334,1.334,0,0,1,1.962,0,1.939,1.939,0,0,1,.361,1.264Zm-.887-.934a1.476,1.476,0,0,0-.118-.683.377.377,0,0,0-.675,0,1.609,1.609,0,0,0-.11.683v1a1.491,1.491,0,0,0,.118.691.361.361,0,0,0,.338.2.369.369,0,0,0,.33-.2,1.491,1.491,0,0,0,.118-.691Z" transform="translate(-63.734 -47.792)"/>
        <path id="Trazado_228620" data-name="Trazado 228620" d="M211.977,199.545h-.887v-.785h.887Z" transform="translate(-64.631 -48.729)"/>
        <path id="Trazado_228621" data-name="Trazado 228621" d="M213.078,196.795l.22-2.355h2.261v.738h-1.531l-.1.871a.856.856,0,0,1,.251-.133,1.115,1.115,0,0,1,.33-.063,1.028,1.028,0,0,1,.871.361,1.57,1.57,0,0,1,.306,1.036,1.507,1.507,0,0,1-.345.989,1.256,1.256,0,0,1-.989.408,1.46,1.46,0,0,1-.958-.33,1.036,1.036,0,0,1-.393-.864h0l.871-.055a.526.526,0,0,0,.126.385.447.447,0,0,0,.345.141.353.353,0,0,0,.338-.181.942.942,0,0,0,.1-.463,1.052,1.052,0,0,0-.11-.542.385.385,0,0,0-.361-.2.487.487,0,0,0-.29.079.455.455,0,0,0-.149.212Z" transform="translate(-65.041 -47.8)"/>
        <path id="Trazado_228622" data-name="Trazado 228622" d="M219.342,197.02h.385v.785h-.385v.871h-.895v-.871h-1.46l-.047-.589,1.57-2.677h.832Zm-1.641,0h.785v-1.28h0l-.071.118Z" transform="translate(-65.889 -47.822)"/>
        <path id="Trazado_228623" data-name="Trazado 228623" d="M38.79,220.382v-4.152h1.35a1.656,1.656,0,0,1,1.02.283,1,1,0,0,1,.361.84.785.785,0,0,1-.173.495,1.028,1.028,0,0,1-.463.322.973.973,0,0,1,.589.369,1.115,1.115,0,0,1,.22.667,1.052,1.052,0,0,1-.369.871,1.57,1.57,0,0,1-1,.306Zm.557-2.355h.911a.73.73,0,0,0,.51-.173.692.692,0,0,0-.016-.981.981.981,0,0,0-.612-.173h-.785Zm0,.44v1.507h.973a.879.879,0,0,0,.6-.188.667.667,0,0,0,.212-.534.824.824,0,0,0-.181-.565.675.675,0,0,0-.549-.212Z" transform="translate(-27.581 -52.485)"/>
        <path id="Trazado_228624" data-name="Trazado 228624" d="M45.276,220.664a1.952,1.952,0,0,1-.047-.251,1.923,1.923,0,0,1,0-.212,1.311,1.311,0,0,1-.408.369,1.052,1.052,0,0,1-.549.149,1,1,0,0,1-.73-.243.926.926,0,0,1-.251-.683.785.785,0,0,1,.353-.691,1.7,1.7,0,0,1,.973-.243h.612v-.306a.581.581,0,0,0-.165-.432.667.667,0,0,0-.471-.157.659.659,0,0,0-.44.141.408.408,0,0,0-.173.33h-.534a.785.785,0,0,1,.322-.62,1.327,1.327,0,0,1,.863-.275,1.28,1.28,0,0,1,.848.267.926.926,0,0,1,.314.785V220.4a2.119,2.119,0,0,0,.063.306Zm-.934-.408a1.021,1.021,0,0,0,.549-.157.785.785,0,0,0,.322-.353v-.5h-.636a.785.785,0,0,0-.542.173.5.5,0,0,0-.2.4.416.416,0,0,0,.133.322A.542.542,0,0,0,44.342,220.256Z" transform="translate(-28.548 -52.767)"/>
        <path id="Trazado_228625" data-name="Trazado 228625" d="M48,217.574v.455a1.107,1.107,0,0,1,.385-.377.989.989,0,0,1,.526-.133,1,1,0,0,1,.785.29,1.3,1.3,0,0,1,.275.9v1.947h-.5V218.72a.848.848,0,0,0-.157-.573.644.644,0,0,0-.495-.173.785.785,0,0,0-.432.118.957.957,0,0,0-.3.314v2.253H47.53v-3.085Z" transform="translate(-29.46 -52.762)"/>
        <path id="Trazado_228626" data-name="Trazado 228626" d="M52.646,218.872h-.369V220.3H51.72V215.85h.557v2.583h.361l.871-1.217h.675l-1.052,1.4,1.162,1.688h-.659Z" transform="translate(-30.361 -52.404)"/>
        <path id="Trazado_228627" data-name="Trazado 228627" d="M58.619,220.24a.785.785,0,0,0,.495-.173.526.526,0,0,0,.212-.424h.5a.879.879,0,0,1-.361.714,1.287,1.287,0,0,1-.856.306,1.232,1.232,0,0,1-1.028-.44,1.7,1.7,0,0,1-.353-1.1v-.118a1.7,1.7,0,0,1,.353-1.1,1.232,1.232,0,0,1,1.028-.44,1.264,1.264,0,0,1,.887.314,1.013,1.013,0,0,1,.33.785h-.5a.651.651,0,0,0-.2-.479.675.675,0,0,0-.5-.2.667.667,0,0,0-.628.314,1.437,1.437,0,0,0-.2.785v.118a1.507,1.507,0,0,0,.188.785A.675.675,0,0,0,58.619,220.24Z" transform="translate(-31.546 -52.751)"/>
        <path id="Trazado_228628" data-name="Trazado 228628" d="M63.186,220.664a.439.439,0,0,0-.047-.251,1.922,1.922,0,0,1,0-.212,1.232,1.232,0,0,1-.408.369,1,1,0,0,1-.542.149,1.021,1.021,0,0,1-.738-.243.926.926,0,0,1-.251-.683.785.785,0,0,1,.361-.691,1.656,1.656,0,0,1,.966-.243h.612v-.306a.581.581,0,0,0-.165-.432.667.667,0,0,0-.471-.157.683.683,0,0,0-.44.141.4.4,0,0,0-.165.33h-.534a.785.785,0,0,1,.314-.62,1.334,1.334,0,0,1,.863-.275,1.264,1.264,0,0,1,.848.267.934.934,0,0,1,.322.785v1.491a2.049,2.049,0,0,0,0,.314,1.413,1.413,0,0,0,.063.306Zm-.934-.408a1,1,0,0,0,.549-.157.722.722,0,0,0,.322-.353v-.5h-.628a.785.785,0,0,0-.542.173.487.487,0,0,0-.2.4.416.416,0,0,0,.126.322A.542.542,0,0,0,62.252,220.255Z" transform="translate(-32.399 -52.767)"/>
        <path id="Trazado_228629" data-name="Trazado 228629" d="M66.86,218.074h-.283a.644.644,0,0,0-.377.1.691.691,0,0,0-.235.3v2.206H65.4v-3.085h.471l.055.447a1.06,1.06,0,0,1,.322-.369.738.738,0,0,1,.447-.133h.212Z" transform="translate(-33.303 -52.767)"/>
        <path id="Trazado_228630" data-name="Trazado 228630" d="M67.711,218.817a2.049,2.049,0,0,1,.314-1.2,1.02,1.02,0,0,1,.895-.455,1.162,1.162,0,0,1,.479.094.973.973,0,0,1,.353.29v-1.7h.534V220.3H69.83l-.071-.385a.926.926,0,0,1-.369.33,1.06,1.06,0,0,1-.51.11,1.044,1.044,0,0,1-.879-.408,1.656,1.656,0,0,1-.322-1.075Zm.557.055a1.24,1.24,0,0,0,.2.785.659.659,0,0,0,.589.283.785.785,0,0,0,.424-.11.926.926,0,0,0,.275-.322v-1.436a.942.942,0,0,0-.275-.306.785.785,0,0,0-.416-.11.644.644,0,0,0-.6.33,1.766,1.766,0,0,0-.2.871Z" transform="translate(-33.792 -52.404)"/>
        <path id="Trazado_228631" data-name="Trazado 228631" d="M73.669,219.183h-.722l-.2,1.193h-.432l.2-1.193H71.84v-.4h.785l.2-1h-.73v-.4h.785l.235-1.185h.424l-.228,1.185h.722l.235-1.185H74.7l-.235,1.185h.565v.4h-.644l-.2,1h.628v.4h-.706l-.228,1.17h-.432Zm-.644-.4h.722l.2-1h-.73Z" transform="translate(-34.687 -52.479)"/>
        <path id="Trazado_228632" data-name="Trazado 228632" d="M154.158,217.63l-.848-.251.141-.44.84.314v-.973h.455v1l.832-.314.133.44-.856.259.549.785-.377.267-.51-.785-.5.785-.377-.259Z" transform="translate(-52.206 -52.496)"/>
        <path id="Trazado_228633" data-name="Trazado 228633" d="M157.368,217.63l-.848-.251.141-.44.84.314v-.973h.455v1l.84-.314.133.44-.856.259.549.785-.377.267-.518-.785-.495.785-.377-.259Z" transform="translate(-52.896 -52.496)"/>
        <path id="Trazado_228634" data-name="Trazado 228634" d="M160.57,217.63l-.84-.251.141-.44.84.314v-.973h.463v1l.84-.314.133.44-.863.259.549.785-.369.267-.518-.785-.5.785-.377-.259Z" transform="translate(-53.587 -52.496)"/>
        <path id="Trazado_228635" data-name="Trazado 228635" d="M163.77,217.63l-.84-.251.141-.44.84.314v-.973h.463v1l.832-.314.141.44-.863.259.549.785-.369.267-.518-.785-.5.785-.377-.259Z" transform="translate(-54.275 -52.496)"/>
        <path id="Trazado_228636" data-name="Trazado 228636" d="M168.838,217.63l-.848-.251.141-.44.848.314v-.973h.455v1l.832-.314.133.44-.856.259.549.785-.377.267-.51-.785-.5.785-.377-.259Z" transform="translate(-55.363 -52.496)"/>
        <path id="Trazado_228637" data-name="Trazado 228637" d="M172.048,217.63l-.848-.251.141-.44.84.314v-.973h.432v1l.84-.314.133.44-.856.259.549.785-.377.267-.518-.785-.495.785-.377-.259Z" transform="translate(-56.053 -52.496)"/>
        <path id="Trazado_228638" data-name="Trazado 228638" d="M175.25,217.63l-.84-.251.141-.44.84.314v-.973h.455v1l.84-.314.133.44-.863.259.557.785-.377.267-.518-.785-.5.785-.377-.259Z" transform="translate(-56.743 -52.496)"/>
        <path id="Trazado_228639" data-name="Trazado 228639" d="M178.46,217.63l-.84-.251.141-.44.84.314v-.973h.463v1l.832-.314.141.44-.863.259.549.785-.369.267-.518-.785-.5.785-.416-.3Z" transform="translate(-57.433 -52.496)"/>
        <path id="Trazado_228640" data-name="Trazado 228640" d="M187.21,217.63l-.84-.251.141-.44.84.314v-.973h.463v1l.832-.314.141.44-.863.259.549.785-.369.267-.518-.785-.5.785-.377-.259Z" transform="translate(-59.315 -52.496)"/>
        <path id="Trazado_228641" data-name="Trazado 228641" d="M190.42,217.63l-.84-.251.133-.44.848.314v-.973h.463v1l.832-.314.141.44-.863.259.549.785-.369.267-.518-.785-.5.785-.377-.259Z" transform="translate(-60.005 -52.496)"/>
        <path id="Trazado_228642" data-name="Trazado 228642" d="M193.628,217.63l-.848-.251.141-.44.848.314v-.973h.455v1l.832-.314.141.44-.863.259.549.785-.377.267-.51-.785-.5.785-.377-.259Z" transform="translate(-60.693 -52.496)"/>
        <path id="Trazado_228643" data-name="Trazado 228643" d="M196.838,217.63l-.848-.251.141-.44.84.314v-.973h.455v1l.832-.314.133.44-.856.259.549.785-.377.267-.51-.785-.5.785-.377-.259Z" transform="translate(-61.384 -52.496)"/>
        <path id="Trazado_228644" data-name="Trazado 228644" d="M200.04,217.63l-.84-.251.141-.44.84.314v-.973h.432v1l.84-.314.133.44-.856.259.549.785-.377.267-.518-.785-.495.785-.377-.259Z" transform="translate(-62.074 -52.496)"/>
        <path id="Trazado_228645" data-name="Trazado 228645" d="M207.247,220.367h-2.692v-.408l1.358-1.507a3.719,3.719,0,0,0,.495-.644,1.012,1.012,0,0,0,.133-.487.785.785,0,0,0-.181-.526.612.612,0,0,0-.479-.212.785.785,0,0,0-.636.22.9.9,0,0,0-.2.62H204.5a1.154,1.154,0,0,1,.353-.9,1.389,1.389,0,0,1,1.028-.361,1.2,1.2,0,0,1,.887.322,1.123,1.123,0,0,1,.33.832,1.334,1.334,0,0,1-.2.683,4.506,4.506,0,0,1-.565.73l-1.091,1.185h2Z" transform="translate(-63.213 -52.47)"/>
        <path id="Trazado_228646" data-name="Trazado 228646" d="M209.53,218.04h.487a.636.636,0,0,0,.526-.181.95.95,0,0,0,0-1.068.714.714,0,0,0-.526-.181.73.73,0,0,0-.526.188.714.714,0,0,0-.2.518h-.534a1,1,0,0,1,.338-.785,1.5,1.5,0,0,1,1.845,0,1.115,1.115,0,0,1,.345.871,1.013,1.013,0,0,1-.62.9.879.879,0,0,1,.526.385,1.217,1.217,0,0,1-.22,1.476,1.57,1.57,0,0,1-1.884,0,.981.981,0,0,1-.361-.832h.542a.675.675,0,0,0,.2.518.879.879,0,0,0,1.107,0,.714.714,0,0,0,.2-.565.644.644,0,0,0-.746-.746h-.487Z" transform="translate(-64.122 -52.483)"/>
        <path id="Trazado_228647" data-name="Trazado 228647" d="M215.146,218.985h.573v.44h-.573v.958h-.557v-.958H212.72v-.314l1.829-2.881h.6Zm-1.821,0h1.264v-1.947h0l-.047.141Z" transform="translate(-64.981 -52.486)"/>
        <path id="Trazado_228648" data-name="Trazado 228648" d="M217.335,218.506l.243-2.276h2.072v.5h-1.57l-.133,1.162a1.146,1.146,0,0,1,.29-.157.949.949,0,0,1,.377-.071,1.1,1.1,0,0,1,.895.369,1.515,1.515,0,0,1,.33,1.02,1.476,1.476,0,0,1-.33,1,1.248,1.248,0,0,1-.981.377,1.334,1.334,0,0,1-.871-.283,1.013,1.013,0,0,1-.337-.848h.51a.667.667,0,0,0,.2.518.7.7,0,0,0,.5.188.675.675,0,0,0,.557-.251,1.107,1.107,0,0,0,.2-.683,1.013,1.013,0,0,0-.2-.652.651.651,0,0,0-.549-.259.848.848,0,0,0-.479.1.573.573,0,0,0-.212.3Z" transform="translate(-65.969 -52.486)"/>
        <path id="Trazado_228649" data-name="Trazado 228649" d="M39.347,232.876v1.8H38.79v-4.145h1.5a1.57,1.57,0,0,1,1.036.3,1.075,1.075,0,0,1,.361.879.95.95,0,0,1-.165.557,1.146,1.146,0,0,1-.487.377.824.824,0,0,1,.495.361,1.217,1.217,0,0,1,.149.612v.392a1.57,1.57,0,0,0,.039.345.541.541,0,0,0,.149.251v.071H41.31a.487.487,0,0,1-.141-.283,3.139,3.139,0,0,1,0-.393v-.377a.73.73,0,0,0-.2-.542.706.706,0,0,0-.526-.2Zm0-.44h.887a1.06,1.06,0,0,0,.683-.181.691.691,0,0,0,.212-.549.738.738,0,0,0-.2-.549.934.934,0,0,0-.636-.188h-.942Z" transform="translate(-27.581 -55.559)"/>
        <path id="Trazado_228650" data-name="Trazado 228650" d="M44.825,235a1.319,1.319,0,0,1-1.028-.424,1.641,1.641,0,0,1-.377-1.115v-.126a1.57,1.57,0,0,1,.392-1.091,1.178,1.178,0,0,1,.926-.44,1.162,1.162,0,0,1,.942.377,1.5,1.5,0,0,1,.322,1v.338H44a1.185,1.185,0,0,0,.22.73.738.738,0,0,0,.612.283,1.366,1.366,0,0,0,.495-.079,1.209,1.209,0,0,0,.377-.228l.22.369a1.4,1.4,0,0,1-.44.275,1.806,1.806,0,0,1-.659.126Zm-.086-2.755a.62.62,0,0,0-.487.236,1.232,1.232,0,0,0-.243.6h1.437V233a.864.864,0,0,0-.173-.549.659.659,0,0,0-.534-.2Z" transform="translate(-28.576 -55.835)"/>
        <path id="Trazado_228651" data-name="Trazado 228651" d="M49.274,234.125a.4.4,0,0,0-.141-.306,1.31,1.31,0,0,0-.534-.2,2.213,2.213,0,0,1-.848-.33.675.675,0,0,1-.283-.573.785.785,0,0,1,.322-.636,1.232,1.232,0,0,1,.832-.267,1.272,1.272,0,0,1,.856.275.832.832,0,0,1,.306.675H49.25a.471.471,0,0,0-.173-.361.6.6,0,0,0-.447-.165.675.675,0,0,0-.447.133.408.408,0,0,0-.141.314.345.345,0,0,0,.126.29,1.326,1.326,0,0,0,.526.188,2.19,2.19,0,0,1,.863.338.7.7,0,0,1,.29.581.785.785,0,0,1-.338.659,1.609,1.609,0,0,1-1.8-.047.879.879,0,0,1-.322-.7h.534a.534.534,0,0,0,.228.44.887.887,0,0,0,.487.133.785.785,0,0,0,.463-.118A.369.369,0,0,0,49.274,234.125Z" transform="translate(-29.43 -55.835)"/>
        <path id="Trazado_228652" data-name="Trazado 228652" d="M54.02,233.531a1.641,1.641,0,0,1-.322,1.075,1.044,1.044,0,0,1-.879.408,1.209,1.209,0,0,1-.495-.094.934.934,0,0,1-.369-.283v1.507H51.39v-4.27h.432l.094.4a.95.95,0,0,1,.369-.338,1.154,1.154,0,0,1,.526-.118,1.02,1.02,0,0,1,.895.455,2.033,2.033,0,0,1,.314,1.2Zm-.557-.055a1.57,1.57,0,0,0-.212-.863.651.651,0,0,0-.6-.338.785.785,0,0,0-.416.11.84.84,0,0,0-.275.3v1.491a.84.84,0,0,0,.275.3.785.785,0,0,0,.424.1.675.675,0,0,0,.6-.29,1.256,1.256,0,0,0,.212-.785Z" transform="translate(-30.29 -55.838)"/>
        <path id="Trazado_228653" data-name="Trazado 228653" d="M55.45,233.38a1.735,1.735,0,0,1,.369-1.13,1.389,1.389,0,0,1,2.025,0,1.735,1.735,0,0,1,.369,1.13v.063a1.735,1.735,0,0,1-.369,1.13,1.272,1.272,0,0,1-1.013.432,1.225,1.225,0,0,1-1-.44,1.656,1.656,0,0,1-.377-1.122Zm.565.063a1.507,1.507,0,0,0,.2.785.785.785,0,0,0,1.225,0,1.437,1.437,0,0,0,.2-.785v-.063a1.436,1.436,0,0,0-.2-.785.691.691,0,0,0-.612-.322.683.683,0,0,0-.612.322,1.507,1.507,0,0,0-.2.785Z" transform="translate(-31.163 -55.836)"/>
        <path id="Trazado_228654" data-name="Trazado 228654" d="M60.342,231.868l.039.463a1.2,1.2,0,0,1,.369-.369,1.1,1.1,0,0,1,.534-.133,1,1,0,0,1,.785.29,1.3,1.3,0,0,1,.275.9v1.947h-.557V233.03a.785.785,0,0,0-.165-.573.644.644,0,0,0-.495-.173.818.818,0,0,0-.722.432v2.253H59.84v-3.085Z" transform="translate(-32.107 -55.839)"/>
        <path id="Trazado_228655" data-name="Trazado 228655" d="M65.834,234.125a.4.4,0,0,0-.141-.306,1.31,1.31,0,0,0-.534-.2,2.213,2.213,0,0,1-.848-.33.675.675,0,0,1-.283-.573.785.785,0,0,1,.322-.636,1.232,1.232,0,0,1,.832-.267,1.272,1.272,0,0,1,.856.275.832.832,0,0,1,.306.659H65.81a.471.471,0,0,0-.173-.361.6.6,0,0,0-.447-.165.675.675,0,0,0-.447.133.408.408,0,0,0-.141.314.345.345,0,0,0,.126.29,1.327,1.327,0,0,0,.526.188,2.19,2.19,0,0,1,.863.338.7.7,0,0,1,.29.581.785.785,0,0,1-.338.659,1.609,1.609,0,0,1-1.8-.047.879.879,0,0,1-.322-.7h.534a.534.534,0,0,0,.228.44.887.887,0,0,0,.487.133.785.785,0,0,0,.463-.118A.369.369,0,0,0,65.834,234.125Z" transform="translate(-32.991 -55.835)"/>
        <path id="Trazado_228656" data-name="Trazado 228656" d="M69.2,235a1.3,1.3,0,0,1-1.02-.424,1.641,1.641,0,0,1-.377-1.115v-.126a1.57,1.57,0,0,1,.385-1.091,1.2,1.2,0,0,1,.934-.44,1.162,1.162,0,0,1,.942.377,1.5,1.5,0,0,1,.314,1v.338H68.381a1.24,1.24,0,0,0,.228.73.722.722,0,0,0,.6.283,1.381,1.381,0,0,0,.5-.078,1.171,1.171,0,0,0,.369-.228l.22.369a1.366,1.366,0,0,1-.432.275A1.821,1.821,0,0,1,69.2,235Zm-.078-2.755a.62.62,0,0,0-.487.236,1.162,1.162,0,0,0-.243.6h1.421V233a.871.871,0,0,0-.181-.549.644.644,0,0,0-.51-.2Z" transform="translate(-33.818 -55.835)"/>
        <path id="Trazado_228657" data-name="Trazado 228657" d="M72.526,232.471H72v-.581h.565Zm0,2.5H72v-.581h.565Z" transform="translate(-34.722 -55.853)"/>
        <path id="Trazado_228658" data-name="Trazado 228658" d="M185.41,233.6h-1.735l-.392,1.068h-.573l1.57-4.152h.479l1.57,4.152h-.573Zm-1.57-.471h1.4l-.691-1.892h0Z" transform="translate(-58.528 -55.558)"/>
        <path id="Trazado_228659" data-name="Trazado 228659" d="M188.657,233.008v1.664H188.1v-4.152h1.57a1.452,1.452,0,0,1,1.028.345,1.287,1.287,0,0,1,0,1.805,1.452,1.452,0,0,1-1.028.338Zm0-.44h1.028a.8.8,0,1,0,0-1.586h-1.028Z" transform="translate(-59.687 -55.558)"/>
        <path id="Trazado_228660" data-name="Trazado 228660" d="M193.425,233.008v1.664h-.565v-4.152h1.57a1.476,1.476,0,0,1,1.036.345,1.311,1.311,0,0,1,0,1.805,1.468,1.468,0,0,1-1.036.338Zm0-.44h1.02a.8.8,0,1,0,0-1.586h-1.02Z" transform="translate(-60.711 -55.558)"/>
        <path id="Trazado_228661" data-name="Trazado 228661" d="M198.185,232.876v1.8h-.565v-4.145h1.5a1.625,1.625,0,0,1,1.044.3,1.1,1.1,0,0,1,.361.879.9.9,0,0,1-.173.557,1.122,1.122,0,0,1-.479.377.785.785,0,0,1,.487.361,1.146,1.146,0,0,1,.149.612v.392a1.186,1.186,0,0,0,.047.345.479.479,0,0,0,.149.251v.071h-.581a.408.408,0,0,1-.141-.283,2.154,2.154,0,0,1,0-.393v-.377a.785.785,0,0,0-.2-.542.706.706,0,0,0-.526-.2Zm0-.44h.879a1.028,1.028,0,0,0,.683-.181.691.691,0,0,0,.212-.549.738.738,0,0,0-.2-.549.9.9,0,0,0-.636-.188h-.934Z" transform="translate(-61.734 -55.56)"/>
        <path id="Trazado_228662" data-name="Trazado 228662" d="M205.636,232.954a1.79,1.79,0,0,1-.471,1.264,1.617,1.617,0,0,1-1.225.495,1.57,1.57,0,0,1-1.185-.495,1.852,1.852,0,0,1-.455-1.264v-.738a1.837,1.837,0,0,1,.455-1.264,1.523,1.523,0,0,1,1.185-.5,1.57,1.57,0,0,1,1.225.5,1.774,1.774,0,0,1,.471,1.264Zm-.565-.746a1.405,1.405,0,0,0-.306-.934,1.02,1.02,0,0,0-.824-.361.95.95,0,0,0-.785.361,1.444,1.444,0,0,0-.29.934v.746a1.452,1.452,0,0,0,.29.942.95.95,0,0,0,.785.361,1.021,1.021,0,0,0,.824-.361,1.413,1.413,0,0,0,.306-.942Z" transform="translate(-62.74 -55.543)"/>
        <path id="Trazado_228663" data-name="Trazado 228663" d="M208.618,233.63l.094.33h0l.094-.33,1.075-3.14h.6l-1.57,4.152h-.487l-1.57-4.152h.612Z" transform="translate(-63.721 -55.552)"/>
        <path id="Trazado_228664" data-name="Trazado 228664" d="M214.706,232.749h-1.86v1.484h2.19v.44H212.28V230.52H215v.447h-2.159v1.342h1.9Z" transform="translate(-64.886 -55.558)"/>
        <path id="Trazado_228665" data-name="Trazado 228665" d="M216.58,234.672v-4.152h1.272a1.7,1.7,0,0,1,1.8,1.8v.565a1.805,1.805,0,0,1-.487,1.3,1.774,1.774,0,0,1-1.311.495Zm.557-3.705v3.265h.714a1.138,1.138,0,0,0,.911-.385,1.413,1.413,0,0,0,.33-.965v-.573a1.413,1.413,0,0,0-.33-.966,1.162,1.162,0,0,0-.911-.377Z" transform="translate(-65.811 -55.557)"/>
        <path id="Trazado_228666" data-name="Trazado 228666" d="M39.355,247.3H38.79V243.16h.565Z" transform="translate(-27.581 -58.276)"/>
        <path id="Trazado_228667" data-name="Trazado 228667" d="M43.994,247.3h-.565l-1.994-3.2h0v3.2H40.87V243.16h.565l1.994,3.2h0v-3.195h.565Z" transform="translate(-28.028 -58.276)"/>
        <path id="Trazado_228668" data-name="Trazado 228668" d="M47.238,246.27l.094.33h0l.094-.33,1.075-3.14h.6l-1.57,4.145H47.05l-1.57-4.145h.612Z" transform="translate(-29.019 -58.27)"/>
        <path id="Trazado_228669" data-name="Trazado 228669" d="M50.565,248.281H50V247.7h.565Z" transform="translate(-29.991 -59.253)"/>
        <path id="Trazado_228670" data-name="Trazado 228670" d="M53.884,245.436l.243-2.276H56.2v.495H54.63l-.133,1.17a1.474,1.474,0,0,1,.29-.165,1.24,1.24,0,0,1,1.272.306,1.507,1.507,0,0,1,.33,1.02,1.476,1.476,0,0,1-.33,1,1.248,1.248,0,0,1-.981.377,1.319,1.319,0,0,1-.879-.29.981.981,0,0,1-.33-.84h.51a.714.714,0,0,0,1.256.463,1.107,1.107,0,0,0,.2-.683,1.052,1.052,0,0,0-.2-.659.644.644,0,0,0-.549-.251.934.934,0,0,0-.479.094.589.589,0,0,0-.212.306Z" transform="translate(-30.822 -58.276)"/>
        <path id="Trazado_228671" data-name="Trazado 228671" d="M60.53,243.6a6.06,6.06,0,0,0-1.02,1.57,7.332,7.332,0,0,0-.377,1.672l-.047.447h-.565l.047-.447a6.154,6.154,0,0,1,.463-1.75,7.465,7.465,0,0,1,.942-1.507H57.72v-.44h2.81Z" transform="translate(-31.651 -58.272)"/>
        <path id="Trazado_228672" data-name="Trazado 228672" d="M64.71,243.6a5.8,5.8,0,0,0-1.013,1.57,6.916,6.916,0,0,0-.385,1.672l-.047.447h-.557l.047-.447a6.154,6.154,0,0,1,.463-1.75,6.822,6.822,0,0,1,.942-1.507H61.9v-.44h2.81Z" transform="translate(-32.55 -58.272)"/>
        <path id="Trazado_228673" data-name="Trazado 228673" d="M66.442,245.436l.235-2.276h2.08v.495h-1.57l-.141,1.17a1.742,1.742,0,0,1,.29-.165,1.256,1.256,0,0,1,1.279.306,1.507,1.507,0,0,1,.33,1.02,1.476,1.476,0,0,1-.338,1,1.24,1.24,0,0,1-.973.377,1.319,1.319,0,0,1-.879-.29.981.981,0,0,1-.338-.84h.455a.659.659,0,0,0,.706.714.667.667,0,0,0,.549-.251,1.06,1.06,0,0,0,.2-.683,1.044,1.044,0,0,0-.2-.659.66.66,0,0,0-.549-.251.919.919,0,0,0-.479.094.6.6,0,0,0-.22.306Z" transform="translate(-33.521 -58.276)"/>
        <path id="Trazado_228674" data-name="Trazado 228674" d="M72.02,243.08a1.491,1.491,0,0,1,.424.055,1.357,1.357,0,0,1,.345.118l-.118.432a1.88,1.88,0,0,0-.29-.118,1.241,1.241,0,0,0-.361,0,.863.863,0,0,0-.714.353,1.492,1.492,0,0,0-.275.926v.071a1.444,1.444,0,0,1,.424-.251,1.327,1.327,0,0,1,.5-.094,1.13,1.13,0,0,1,.887.385,1.452,1.452,0,0,1,.33.981,1.57,1.57,0,0,1-.353,1.044,1.17,1.17,0,0,1-.934.408,1.319,1.319,0,0,1-1-.447,1.805,1.805,0,0,1-.4-1.248v-.785a1.884,1.884,0,0,1,.447-1.3A1.429,1.429,0,0,1,72.02,243.08Zm-.188,1.876a.95.95,0,0,0-.487.118.84.84,0,0,0-.314.306v.338a1.429,1.429,0,0,0,.243.879.785.785,0,0,0,.612.314.612.612,0,0,0,.534-.29,1.327,1.327,0,0,0,.2-.73,1.068,1.068,0,0,0-.212-.675.691.691,0,0,0-.573-.259Z" transform="translate(-34.396 -58.259)"/>
        <path id="Trazado_228675" data-name="Trazado 228675" d="M77.134,244.223a.887.887,0,0,1-.181.565,1.083,1.083,0,0,1-.495.369,1.217,1.217,0,0,1,.581.392.95.95,0,0,1,.22.6,1.052,1.052,0,0,1-.377.879,1.491,1.491,0,0,1-.973.306,1.515,1.515,0,0,1-.981-.306,1.068,1.068,0,0,1-.369-.879.95.95,0,0,1,.212-.612,1.17,1.17,0,0,1,.565-.392,1.107,1.107,0,0,1-.487-.369.926.926,0,0,1-.173-.565,1.068,1.068,0,0,1,.338-.848,1.3,1.3,0,0,1,.895-.3,1.319,1.319,0,0,1,.887.3,1.044,1.044,0,0,1,.338.856Zm-.44,1.931a.793.793,0,1,0-1.586,0,.722.722,0,0,0,.22.549.785.785,0,0,0,.573.2.824.824,0,0,0,.573-.2A.706.706,0,0,0,76.694,246.154Zm-.118-1.923a.706.706,0,0,0-.2-.51.62.62,0,0,0-.479-.2.652.652,0,0,0-.487.188.722.722,0,0,0-.188.518.691.691,0,0,0,.188.51.722.722,0,0,0,.973,0,.691.691,0,0,0,.188-.51Z" transform="translate(-35.272 -58.257)"/>
        <path id="Trazado_228676" data-name="Trazado 228676" d="M80.385,243.08a1.569,1.569,0,0,1,.424.055,1.358,1.358,0,0,1,.345.118l-.118.432a1.88,1.88,0,0,0-.29-.118,1.241,1.241,0,0,0-.361,0,.863.863,0,0,0-.714.353,1.492,1.492,0,0,0-.275.926v.071a1.444,1.444,0,0,1,.424-.251,1.326,1.326,0,0,1,.5-.094,1.13,1.13,0,0,1,.887.385,1.452,1.452,0,0,1,.33.981,1.57,1.57,0,0,1-.353,1.044,1.17,1.17,0,0,1-.934.408,1.319,1.319,0,0,1-1.013-.44,1.805,1.805,0,0,1-.4-1.248v-.785a1.884,1.884,0,0,1,.447-1.3,1.421,1.421,0,0,1,1.1-.542Zm-.188,1.876a.95.95,0,0,0-.487.118.785.785,0,0,0-.314.306v.338a1.429,1.429,0,0,0,.243.879.785.785,0,0,0,.612.314.612.612,0,0,0,.534-.29,1.327,1.327,0,0,0,.188-.73,1.06,1.06,0,0,0-.2-.675.691.691,0,0,0-.573-.259Z" transform="translate(-36.192 -58.259)"/>
        <path id="Trazado_228677" data-name="Trazado 228677" d="M177.56,246.237h-1.735l-.393,1.068h-.573l1.57-4.145h.479l1.57,4.145h-.573Zm-1.57-.471h1.4l-.691-1.884h0Z" transform="translate(-56.84 -58.276)"/>
        <path id="Trazado_228678" data-name="Trazado 228678" d="M183.253,243.16v2.81a1.256,1.256,0,0,1-.44,1.036,1.727,1.727,0,0,1-1.146.361,1.641,1.641,0,0,1-1.115-.361,1.28,1.28,0,0,1-.424-1.036v-2.81h.557v2.81a.918.918,0,0,0,.275.714,1.013,1.013,0,0,0,.706.243,1.115,1.115,0,0,0,.738-.243.9.9,0,0,0,.29-.714v-2.81Z" transform="translate(-57.972 -58.276)"/>
        <path id="Trazado_228679" data-name="Trazado 228679" d="M187.976,243.6h-1.334V247.3h-.565V243.6H184.75v-.44h3.226Z" transform="translate(-58.967 -58.276)"/>
        <path id="Trazado_228680" data-name="Trazado 228680" d="M192.77,247.3H192.2v-1.829H190.2V247.3h-.565V243.16h.565v1.876h2.01V243.16h.565Z" transform="translate(-60.016 -58.276)"/>
        <path id="Trazado_228681" data-name="Trazado 228681" d="M195.427,248.281h-.557V247.7h.557Z" transform="translate(-61.143 -59.253)"/>
        <path id="Trazado_228682" data-name="Trazado 228682" d="M203.069,247.3h-2.692v-.345l1.366-1.507a4.042,4.042,0,0,0,.495-.644,1.052,1.052,0,0,0,.126-.495.785.785,0,0,0-.181-.518.6.6,0,0,0-.479-.212.785.785,0,0,0-.636.22.879.879,0,0,0-.2.62h-.534a1.178,1.178,0,0,1,.353-.895,1.405,1.405,0,0,1,1.028-.369,1.2,1.2,0,0,1,.887.33,1.13,1.13,0,0,1,.337.832,1.319,1.319,0,0,1-.2.675,4.184,4.184,0,0,1-.565.73l-1.091,1.185h1.994Z" transform="translate(-62.317 -58.276)"/>
        <path id="Trazado_228683" data-name="Trazado 228683" d="M205.336,244.968h.487a.667.667,0,0,0,.534-.188.954.954,0,0,0-.024-1.06.675.675,0,0,0-.518-.181.722.722,0,0,0-.526.188.675.675,0,0,0-.2.51h-.534a1.013,1.013,0,0,1,.338-.785,1.5,1.5,0,0,1,1.845,0,1.115,1.115,0,0,1,.345.879,1.013,1.013,0,0,1-.157.51.981.981,0,0,1-.463.385.95.95,0,0,1,.526.385,1.232,1.232,0,0,1-.212,1.484,1.57,1.57,0,0,1-1.892,0,.981.981,0,0,1-.361-.832h.542a.675.675,0,0,0,.2.518.805.805,0,1,0,.565-1.319h-.487Z" transform="translate(-63.217 -58.271)"/>
        <path id="Trazado_228684" data-name="Trazado 228684" d="M210.956,245.915h.573v.44h-.573v.95H210.4v-.95H208.53v-.314l1.829-2.881h.6Zm-1.821,0H210.4v-1.947h0l-.055.141Z" transform="translate(-64.08 -58.276)"/>
        <path id="Trazado_228685" data-name="Trazado 228685" d="M215.566,245.71a1.9,1.9,0,0,1-.345,1.217,1.193,1.193,0,0,1-.965.424,1.217,1.217,0,0,1-.973-.424,1.86,1.86,0,0,1-.353-1.217v-.981a1.845,1.845,0,0,1,.353-1.217,1.3,1.3,0,0,1,1.931,0,1.845,1.845,0,0,1,.353,1.217Zm-.557-1.107a1.366,1.366,0,0,0-.2-.785.73.73,0,0,0-1.13,0,1.428,1.428,0,0,0-.2.785v1.217a1.389,1.389,0,0,0,.2.785.714.714,0,0,0,1.122,0,1.374,1.374,0,0,0,.2-.785Z" transform="translate(-65.025 -58.259)"/>
        <path id="Trazado_228686" data-name="Trazado 228686" d="M217.334,245.436l.243-2.276h2.072v.495h-1.57l-.133,1.17a1.475,1.475,0,0,1,.29-.165,1.114,1.114,0,0,1,.377-.063,1.1,1.1,0,0,1,.895.369,1.507,1.507,0,0,1,.33,1.02,1.476,1.476,0,0,1-.33,1,1.248,1.248,0,0,1-.981.377,1.3,1.3,0,0,1-.871-.29.981.981,0,0,1-.338-.84h.51a.683.683,0,0,0,.2.526.7.7,0,0,0,.5.188.675.675,0,0,0,.557-.251,1.107,1.107,0,0,0,.2-.683,1.052,1.052,0,0,0-.2-.659.644.644,0,0,0-.549-.251.934.934,0,0,0-.479.094.636.636,0,0,0-.212.306Z" transform="translate(-65.969 -58.276)"/>
      </g>
    </g>
  </g>
</svg>
