<svg xmlns="http://www.w3.org/2000/svg" xmlns:xlink="http://www.w3.org/1999/xlink" width="205.211" height="249.047" viewBox="0 0 205.211 249.047">
  <defs>
    <linearGradient id="linear-gradient" y1="0.5" x2="1" y2="0.5" gradientUnits="objectBoundingBox">
      <stop offset="0" stop-color="#17237d"/>
      <stop offset="0.22" stop-color="#1a3c7f"/>
      <stop offset="0.68" stop-color="#237b85"/>
      <stop offset="1" stop-color="#29a989"/>
    </linearGradient>
    <linearGradient id="linear-gradient-2" x1="0.449" y1="1.034" x2="0.551" y2="-0.034" gradientUnits="objectBoundingBox">
      <stop offset="0" stop-color="#2538c9"/>
      <stop offset="0.16" stop-color="#2851c9"/>
      <stop offset="0.51" stop-color="#2f90c8"/>
      <stop offset="1" stop-color="#3bf5c6"/>
    </linearGradient>
    <clipPath id="clip-path">
      <path id="Trazado_228916" data-name="Trazado 228916" d="M50.593,245.986l-10.343,5.172c-1.266.639-2.3.125-2.3-1.147v-6.7a4.336,4.336,0,0,1,2.3-3.452l10.343-5.172c1.272-.633,2.3-.119,2.3,1.153v6.689A4.318,4.318,0,0,1,50.593,245.986Z" transform="translate(-37.95 -234.416)" fill="#fcaa37"/>
    </clipPath>
    <linearGradient id="linear-gradient-3" x1="1.292" y1="0.625" x2="-0.298" y2="0.373" gradientUnits="objectBoundingBox">
      <stop offset="0" stop-color="#4985ec"/>
      <stop offset="0.47" stop-color="#519ef4"/>
      <stop offset="1" stop-color="#5cbeff"/>
    </linearGradient>
    <linearGradient id="linear-gradient-4" y1="0.5" x2="1" y2="0.5" gradientUnits="objectBoundingBox">
      <stop offset="0" stop-color="#fff5f5"/>
      <stop offset="1" stop-color="#fef7ff"/>
    </linearGradient>
    <linearGradient id="linear-gradient-5" x1="0.398" y1="0.98" x2="0.601" y2="0.02" gradientUnits="objectBoundingBox">
      <stop offset="0" stop-color="#496aec"/>
      <stop offset="0.23" stop-color="#4d83f0"/>
      <stop offset="0.72" stop-color="#56c2f9"/>
      <stop offset="1" stop-color="#5ce9ff"/>
    </linearGradient>
    <linearGradient id="linear-gradient-6" x1="0.479" y1="0.923" x2="0.521" y2="0.077" gradientUnits="objectBoundingBox">
      <stop offset="0" stop-color="#5cbeff"/>
      <stop offset="0.53" stop-color="#519ef4"/>
      <stop offset="1" stop-color="#4985ec"/>
    </linearGradient>
    <linearGradient id="linear-gradient-7" y1="0.5" x2="1" y2="0.5" gradientUnits="objectBoundingBox">
      <stop offset="0" stop-color="#4985ec"/>
      <stop offset="0.4" stop-color="#53a3f6"/>
      <stop offset="0.76" stop-color="#5ab7fd"/>
      <stop offset="1" stop-color="#5cbeff"/>
    </linearGradient>
    <clipPath id="clip-path-2">
      <path id="Trazado_229014" data-name="Trazado 229014" d="M146.152,404.131a10.916,10.916,0,0,0-3.631-2.735c-6.456-3.231-16.924-3.231-23.38,0a10.946,10.946,0,0,0-3.637,2.735H114.31v3.105h0c0,2.114,1.618,4.234,4.843,5.847,6.456,3.225,16.924,3.225,23.38,0,3.225-1.612,4.837-3.732,4.837-5.847v-3.105Z" transform="translate(-114.31 -398.972)" fill="#f2a233"/>
    </clipPath>
    <clipPath id="clip-path-3">
      <path id="Trazado_229018" data-name="Trazado 229018" d="M146.152,397.46a10.928,10.928,0,0,0-3.631-2.741c-6.456-3.225-16.924-3.225-23.38,0a10.957,10.957,0,0,0-3.637,2.741H114.31v3.105h0c0,2.114,1.618,4.228,4.843,5.847,6.456,3.225,16.924,3.225,23.38,0,3.225-1.618,4.837-3.732,4.837-5.847V397.46Z" transform="translate(-114.31 -392.3)" fill="#f2a233"/>
    </clipPath>
    <clipPath id="clip-path-4">
      <path id="Trazado_229030" data-name="Trazado 229030" d="M281.232,371.01a10.893,10.893,0,0,0-3.637-2.741c-6.456-3.225-16.919-3.225-23.374,0a10.893,10.893,0,0,0-3.637,2.741H249.39v3.105h0c0,2.114,1.612,4.228,4.843,5.841,6.456,3.231,16.918,3.231,23.374,0,3.225-1.612,4.843-3.726,4.843-5.841V371.01Z" transform="translate(-249.39 -365.85)" fill="#f2a233"/>
    </clipPath>
    <clipPath id="clip-path-5">
      <path id="Trazado_229034" data-name="Trazado 229034" d="M281.232,364.337A10.815,10.815,0,0,0,277.6,361.6c-6.456-3.231-16.919-3.231-23.374,0a10.815,10.815,0,0,0-3.637,2.741H249.39v3.093h0c0,2.114,1.612,4.228,4.843,5.841,6.456,3.231,16.918,3.231,23.374,0,3.225-1.612,4.843-3.727,4.843-5.841v-3.105Z" transform="translate(-249.39 -359.172)" fill="#f2a233"/>
    </clipPath>
    <clipPath id="clip-path-6">
      <path id="Trazado_229038" data-name="Trazado 229038" d="M281.232,357.661a10.81,10.81,0,0,0-3.637-2.735c-6.456-3.231-16.919-3.231-23.374,0a10.81,10.81,0,0,0-3.637,2.735H249.39v3.105h0c0,2.114,1.612,4.234,4.843,5.847,6.456,3.225,16.918,3.225,23.374,0,3.225-1.612,4.843-3.732,4.843-5.847v-3.105Z" transform="translate(-249.39 -352.503)" fill="#f2a233"/>
    </clipPath>
    <clipPath id="clip-path-7">
      <path id="Trazado_229050" data-name="Trazado 229050" d="M335.662,313.46a10.816,10.816,0,0,0-3.637-2.741c-6.45-3.225-16.918-3.225-23.374,0a10.815,10.815,0,0,0-3.637,2.741H303.82v3.105h0c0,2.114,1.618,4.228,4.843,5.841,6.456,3.231,16.924,3.231,23.374,0,3.231-1.612,4.843-3.726,4.843-5.841V313.46Z" transform="translate(-303.82 -308.3)" fill="#f2a233"/>
    </clipPath>
    <clipPath id="clip-path-8">
      <path id="Trazado_229054" data-name="Trazado 229054" d="M335.662,306.781a10.887,10.887,0,0,0-3.637-2.735c-6.45-3.231-16.918-3.231-23.374,0a10.887,10.887,0,0,0-3.637,2.735H303.82v3.105h0c0,2.114,1.618,4.234,4.843,5.847,6.456,3.225,16.924,3.225,23.374,0,3.231-1.612,4.843-3.732,4.843-5.847v-3.105Z" transform="translate(-303.82 -301.622)" fill="#f2a233"/>
    </clipPath>
    <clipPath id="clip-path-9">
      <path id="Trazado_229058" data-name="Trazado 229058" d="M335.662,300.11a10.893,10.893,0,0,0-3.637-2.741c-6.45-3.225-16.918-3.225-23.374,0a10.893,10.893,0,0,0-3.637,2.741H303.82v3.105h0c0,2.114,1.618,4.228,4.843,5.847,6.456,3.225,16.924,3.225,23.374,0,3.231-1.618,4.843-3.732,4.843-5.847V300.11Z" transform="translate(-303.82 -294.95)" fill="#f2a233"/>
    </clipPath>
    <clipPath id="clip-path-10">
      <path id="Trazado_229062" data-name="Trazado 229062" d="M335.662,293.33a10.816,10.816,0,0,0-3.637-2.741c-6.45-3.225-16.918-3.225-23.374,0a10.816,10.816,0,0,0-3.637,2.741H303.82v3.1h0c0,2.114,1.618,4.228,4.843,5.841,6.456,3.231,16.924,3.231,23.374,0,3.231-1.612,4.843-3.726,4.843-5.841v-3.105Z" transform="translate(-303.82 -288.17)" fill="#f2a233"/>
    </clipPath>
    <clipPath id="clip-path-11">
      <path id="Trazado_229066" data-name="Trazado 229066" d="M335.662,286.657a10.815,10.815,0,0,0-3.637-2.741c-6.45-3.231-16.918-3.231-23.374,0a10.815,10.815,0,0,0-3.637,2.741H303.82v3.1h0c0,2.12,1.618,4.234,4.843,5.847,6.456,3.225,16.924,3.225,23.374,0,3.231-1.612,4.843-3.727,4.843-5.847v-3.1Z" transform="translate(-303.82 -281.492)" fill="#f2a233"/>
    </clipPath>
    <clipPath id="clip-path-12">
      <path id="Trazado_229070" data-name="Trazado 229070" d="M335.662,279.981a10.81,10.81,0,0,0-3.637-2.735c-6.45-3.231-16.919-3.231-23.374,0a10.81,10.81,0,0,0-3.637,2.735H303.82v3.105h0c0,2.114,1.618,4.228,4.843,5.847,6.456,3.225,16.924,3.225,23.374,0,3.231-1.618,4.843-3.732,4.843-5.847v-3.105Z" transform="translate(-303.82 -274.822)" fill="#f2a233"/>
    </clipPath>
  </defs>
  <g id="bank-01" transform="translate(-22.93 -17.561)">
    <g id="Layer_1" data-name="Layer 1" transform="translate(22.93 17.561)">
      <path id="Trazado_228897" data-name="Trazado 228897" d="M34.49,270.467,124.3,261.2l15,7.763,32.159,2.15,13.067,7.3s33.138-4.019,31.335-3.273S101.2,219.52,101.2,219.52Z" transform="translate(-27.586 -98.911)" opacity="0.14"/>
      <g id="Grupo_124100" data-name="Grupo 124100" transform="translate(7.226 54.84)" opacity="0.5">
        <path id="Trazado_228898" data-name="Trazado 228898" d="M51.255,167.18l-5.375,2.687v31.1l5.375-2.693Z" transform="translate(-39.4 -132.668)" fill="#336eff"/>
        <path id="Trazado_228899" data-name="Trazado 228899" d="M63.911,152.5l-5.381,2.693v36.082l5.381-2.693Z" transform="translate(-44.496 -126.755)" fill="#336eff"/>
        <path id="Trazado_228900" data-name="Trazado 228900" d="M76.565,165.05l-5.375,2.687v24.813l5.375-2.693Z" transform="translate(-49.595 -131.81)" fill="#336eff"/>
        <path id="Trazado_228901" data-name="Trazado 228901" d="M89.221,136.84l-5.381,2.693v37.874l5.381-2.687Z" transform="translate(-54.691 -120.447)" fill="#336eff"/>
        <path id="Trazado_228902" data-name="Trazado 228902" d="M101.875,141.86,96.5,144.553v31.1l5.375-2.687Z" transform="translate(-59.79 -122.469)" fill="#336eff"/>
        <path id="Trazado_228903" data-name="Trazado 228903" d="M114.531,109.39l-5.381,2.687V158.8l5.381-2.693Z" transform="translate(-64.886 -109.39)" fill="#336eff"/>
        <path id="Trazado_228904" data-name="Trazado 228904" d="M89.739,174.424l-50.982,25.5V154.95c0-.215-.173-.3-.388-.191a.729.729,0,0,0-.382.6V200.33l-2.568,1.284a.723.723,0,0,0-.388.6c0,.215.173.3.388.2l2.568-1.284v2.687c0,.209.173.3.382.191a.723.723,0,0,0,.388-.6v-2.717l50.982-25.5a.717.717,0,0,0,.382-.6C90.121,174.4,89.954,174.317,89.739,174.424Z" transform="translate(-35.03 -127.646)" fill="#336eff"/>
      </g>
      <path id="Trazado_228905" data-name="Trazado 228905" d="M29.6,242.505l73.455-38.316c2.908-1.457,5.261-4.987,5.261-7.895l1.618-42.771c0-2.908-3.989-4.592-6.9-3.141L28.191,187.82c-2.9,1.457-5.261,4.987-5.261,7.895v43.279C22.93,241.908,26.7,243.969,29.6,242.505Z" transform="translate(-22.93 -70.849)" fill="url(#linear-gradient)"/>
      <path id="Trazado_228906" data-name="Trazado 228906" d="M30.945,242.872l74.846-37.432c2.908-1.451,5.261-4.987,5.261-7.895V154.266c0-2.908-2.353-4.085-5.261-2.628L30.945,189.064c-2.9,1.457-5.255,4.987-5.255,7.895v43.279C25.69,243.146,28.043,244.323,30.945,242.872Z" transform="translate(-24.042 -71.316)" fill="url(#linear-gradient-2)"/>
      <path id="Trazado_228907" data-name="Trazado 228907" d="M50.593,245.986l-10.343,5.172c-1.266.639-2.3.125-2.3-1.147v-6.7a4.336,4.336,0,0,1,2.3-3.452l10.343-5.172c1.272-.633,2.3-.119,2.3,1.153v6.689A4.318,4.318,0,0,1,50.593,245.986Z" transform="translate(-28.98 -104.912)" fill="#fcaa37"/>
      <g id="Grupo_124101" data-name="Grupo 124101" transform="translate(8.97 129.505)" clip-path="url(#clip-path)">
        <path id="Trazado_228908" data-name="Trazado 228908" d="M43.565,255.486l-.215.107V239.857l.215-.107Z" transform="translate(-40.125 -236.565)" fill="#8c5e1f"/>
        <path id="Trazado_228909" data-name="Trazado 228909" d="M32.916,247.235,17.18,255.106v-.215l15.736-7.871Z" transform="translate(-29.584 -239.493)" fill="#8c5e1f"/>
        <path id="Trazado_228910" data-name="Trazado 228910" d="M32.916,255.865,17.18,263.736v-.215l15.736-7.871Z" transform="translate(-29.584 -242.969)" fill="#8c5e1f"/>
        <path id="Trazado_228911" data-name="Trazado 228911" d="M73.756,226.8,58.02,234.676v-.215l15.736-7.871Z" transform="translate(-46.034 -231.264)" fill="#8c5e1f"/>
        <path id="Trazado_228912" data-name="Trazado 228912" d="M51.534,241.355,46.87,243.69v-.215l4.664-2.335Z" transform="translate(-41.543 -237.125)" fill="#8c5e1f"/>
        <path id="Trazado_228913" data-name="Trazado 228913" d="M51.534,250.745l-4.664,2.329v-.215l4.664-2.329Z" transform="translate(-41.543 -240.907)" fill="#8c5e1f"/>
        <path id="Trazado_228914" data-name="Trazado 228914" d="M73.756,235.445,58.02,243.316V243.1l15.736-7.871Z" transform="translate(-46.034 -234.744)" fill="#8c5e1f"/>
        <path id="Trazado_228915" data-name="Trazado 228915" d="M58.055,248.242l-.215.108V232.613l.215-.113Z" transform="translate(-45.962 -233.644)" fill="#8c5e1f"/>
      </g>
      <path id="Trazado_228917" data-name="Trazado 228917" d="M94.481,197.564a6.163,6.163,0,0,1-1.535,1.057c-1.636.818-2.867.4-2.867-1.5a5.375,5.375,0,0,1,3.034-4.563,3.2,3.2,0,0,1,1.374-.43l-.179.7a2.83,2.83,0,0,0-1.194.346A3.953,3.953,0,0,0,90.85,196.7c0,1.421.818,1.923,2.228,1.194a5.374,5.374,0,0,0,1.194-.854Z" transform="translate(-49.978 -87.879)" fill="#fff"/>
      <path id="Trazado_228918" data-name="Trazado 228918" d="M98.91,194.4c0-.49,0-.908-.03-1.284l.663-.328v.806h.036a2.46,2.46,0,0,1,1.153-1.493.946.946,0,0,1,.215-.078v.711a1.4,1.4,0,0,0-.257.107,2.019,2.019,0,0,0-1.015,1.481,2.283,2.283,0,0,0-.036.364v2.222l-.752.376Z" transform="translate(-53.523 -87.834)" fill="#fff"/>
      <path id="Trazado_228919" data-name="Trazado 228919" d="M103.723,192.785c0,1.015.669,1.111,1.427.735a4.652,4.652,0,0,0,1.153-.794l.131.478a5.625,5.625,0,0,1-1.385.95c-1.284.645-2.048.185-2.048-1.075a3.7,3.7,0,0,1,1.953-3.219c1.362-.681,1.72.334,1.72,1.1v.364Zm2.222-1.648c0-.49-.2-1.135-1.051-.7a2.389,2.389,0,0,0-1.194,1.792Z" transform="translate(-55.183 -86.873)" fill="#fff"/>
      <path id="Trazado_228920" data-name="Trazado 228920" d="M114.124,181.67V186.7a9.46,9.46,0,0,0,.036,1.057l-.681.34-.036-.7h0a3.022,3.022,0,0,1-1.421,1.529c-1,.5-1.792.042-1.792-1.224a3.655,3.655,0,0,1,1.869-3.171c.633-.322,1.063-.233,1.254,0h0v-2.484Zm-.758,4.019a1.015,1.015,0,0,0-.036-.3c-.107-.424-.526-.6-1.093-.328a2.5,2.5,0,0,0-1.248,2.234c0,.842.412,1.332,1.23.926a2.234,2.234,0,0,0,1.111-1.463,1.3,1.3,0,0,0,.036-.34Z" transform="translate(-58.095 -83.665)" fill="#fff"/>
      <path id="Trazado_228921" data-name="Trazado 228921" d="M119.638,181.005a.842.842,0,0,1-.484.7c-.269.131-.454,0-.454-.239a.866.866,0,0,1,.472-.711C119.476,180.623,119.638,180.737,119.638,181.005Zm-.848,5.757v-4.18l.758-.376v4.18Z" transform="translate(-61.507 -83.275)" fill="#fff"/>
      <path id="Trazado_228922" data-name="Trazado 228922" d="M122.821,179.42v1.194l1.081-.543v.6l-1.081.543v2.245c0,.514.143.735.567.526a2.563,2.563,0,0,0,.436-.275l.036.555a3.148,3.148,0,0,1-.675.436c-.352.179-.633.209-.812.09s-.293-.448-.293-.938v-2.293l-.651.322v-.6l.651-.322v-1Z" transform="translate(-62.606 -82.759)" fill="#fff"/>
      <path id="Trazado_228923" data-name="Trazado 228923" d="M133.921,177.832a6.455,6.455,0,0,1-1.535,1.045c-1.636.818-2.867.4-2.867-1.5a5.375,5.375,0,0,1,3.028-4.563,3.44,3.44,0,0,1,1.38-.43l-.179.7a2.873,2.873,0,0,0-1.194.34,3.959,3.959,0,0,0-2.263,3.529c0,1.415.818,1.923,2.228,1.194a5.154,5.154,0,0,0,1.194-.848Z" transform="translate(-65.865 -79.923)" fill="#fff"/>
      <path id="Trazado_228924" data-name="Trazado 228924" d="M140.4,176.457l-.06-.5h-.03a3.064,3.064,0,0,1-1.272,1.254c-.842.424-1.272.042-1.272-.561,0-1,.89-2,2.5-2.8v-.084c0-.346-.1-.92-.95-.49a3.775,3.775,0,0,0-1.081.848l-.173-.412a4.683,4.683,0,0,1,1.368-1.051c1.272-.639,1.583.078,1.583.908v1.583a5.119,5.119,0,0,0,.072.967Zm-.113-2.066c-.83.394-1.792,1.009-1.792,1.821,0,.49.328.555.717.364a2.048,2.048,0,0,0,1.009-1.194,1.087,1.087,0,0,0,.042-.263Z" transform="translate(-69.188 -79.939)" fill="#fff"/>
      <path id="Trazado_228925" data-name="Trazado 228925" d="M145.236,171.237c0-.49,0-.908-.036-1.284l.663-.328.03.806h0a2.49,2.49,0,0,1,1.159-1.493.945.945,0,0,1,.215-.078v.681a1.629,1.629,0,0,0-.263.107,2.048,2.048,0,0,0-1.015,1.481,2.325,2.325,0,0,0,0,.37v2.222l-.752.376Z" transform="translate(-72.181 -78.505)" fill="#fff"/>
      <path id="Trazado_228926" data-name="Trazado 228926" d="M153.214,162.11V168.2l-.681.34-.03-.7h0a3.034,3.034,0,0,1-1.421,1.523c-1.009.508-1.792.042-1.792-1.224a3.637,3.637,0,0,1,1.863-3.171c.639-.317,1.069-.233,1.26,0h0V162.48Zm-.758,4.019a1.194,1.194,0,0,0-.036-.3c-.113-.43-.526-.6-1.093-.334a2.5,2.5,0,0,0-1.248,2.234c0,.842.412,1.338,1.23.926a2.239,2.239,0,0,0,1.111-1.457,1.707,1.707,0,0,0,.036-.346Z" transform="translate(-73.829 -75.786)" fill="#fff"/>
      <path id="Trazado_228927" data-name="Trazado 228927" d="M38.668,291.57a5.669,5.669,0,0,1-1.314.89c-1.4.7-2.454.34-2.454-1.284a4.592,4.592,0,0,1,2.6-3.912,2.717,2.717,0,0,1,1.194-.364l-.155.6a2.454,2.454,0,0,0-1,.3,3.38,3.38,0,0,0-1.977,3.016c0,1.194.7,1.648,1.905,1.045a4.592,4.592,0,0,0,1.081-.717Z" transform="translate(-27.752 -126.053)" fill="#fff"/>
      <path id="Trazado_228928" data-name="Trazado 228928" d="M44.229,290.4l-.054-.424h0a2.6,2.6,0,0,1-1.093,1.075c-.723.364-1.093.042-1.093-.478,0-.86.77-1.72,2.144-2.389v-.072c0-.3-.078-.788-.806-.424a3.248,3.248,0,0,0-.932.735l-.149-.358a4.1,4.1,0,0,1,1.194-.9c1.087-.543,1.356.066,1.356.782v1.338a4.228,4.228,0,0,0,.06.824Zm-.1-1.792c-.711.34-1.511.866-1.511,1.559,0,.424.281.484.6.317a1.792,1.792,0,0,0,.866-1.027,1.111,1.111,0,0,0,.036-.227Z" transform="translate(-30.607 -126.073)" fill="#fff"/>
      <path id="Trazado_228929" data-name="Trazado 228929" d="M48.36,285.916c0-.424,0-.776-.03-1.1l.6-.287v.693h0a2.1,2.1,0,0,1,1-1.272l.185-.072v.6l-.185.072a1.756,1.756,0,0,0-.866,1.272,1.725,1.725,0,0,0,0,.316v1.9l-.645.322Z" transform="translate(-33.161 -124.836)" fill="#fff"/>
      <path id="Trazado_228930" data-name="Trazado 228930" d="M55.19,278.1v5.219l-.6.293-.03-.6h0a2.61,2.61,0,0,1-1.194,1.308c-.866.43-1.529.03-1.529-1.051a3.129,3.129,0,0,1,1.6-2.717c.543-.275.914-.2,1.075,0h0v-2.132Zm-.645,3.44a.92.92,0,0,0,0-.257c-.1-.364-.448-.526-.938-.281a2.132,2.132,0,0,0-1.069,1.911c0,.723.352,1.141,1.057.794a1.929,1.929,0,0,0,.95-1.254,1.2,1.2,0,0,0,0-.293Z" transform="translate(-34.575 -122.508)" fill="#fff"/>
      <path id="Trazado_228931" data-name="Trazado 228931" d="M62.565,274.757v2.078l2.389-1.194v-2.078l.645-.322v4.969l-.645.328V276.2L62.565,277.4v2.329l-.645.317v-4.969Z" transform="translate(-38.635 -120.55)" fill="#fff"/>
      <path id="Trazado_228932" data-name="Trazado 228932" d="M72.97,274.08a3.225,3.225,0,0,1-1.792,2.783c-.961.484-1.708.149-1.708-.979a3.231,3.231,0,0,1,1.792-2.783C72.277,272.587,72.97,272.987,72.97,274.08Zm-2.831,1.451c0,.782.448,1.147,1.081.83a2.228,2.228,0,0,0,1.087-1.929c0-.6-.3-1.194-1.069-.836A2.168,2.168,0,0,0,70.139,275.531Z" transform="translate(-41.677 -120.405)" fill="#fff"/>
      <path id="Trazado_228933" data-name="Trazado 228933" d="M76.7,268.252l.645-.322v5.237l-.645.322Z" transform="translate(-44.589 -118.411)" fill="#fff"/>
      <path id="Trazado_228934" data-name="Trazado 228934" d="M82.534,264.44v5.219l-.6.293v-.6h0a2.592,2.592,0,0,1-1.194,1.308c-.86.43-1.523.03-1.523-1.051a3.129,3.129,0,0,1,1.6-2.717c.543-.275.914-.2,1.075,0h0v-2.12Zm-.651,3.44a1.2,1.2,0,0,0,0-.257c-.1-.364-.454-.526-.938-.287a2.138,2.138,0,0,0-1.069,1.917c0,.723.352,1.141,1.051.794a1.923,1.923,0,0,0,.956-1.254,1.57,1.57,0,0,0,0-.293Z" transform="translate(-45.604 -117.005)" fill="#fff"/>
      <path id="Trazado_228935" data-name="Trazado 228935" d="M86.737,267.381c0,.866.6.95,1.194.627a3.929,3.929,0,0,0,.985-.681l.113.412a5.029,5.029,0,0,1-1.194.812c-1.1.549-1.756.155-1.756-.92a3.171,3.171,0,0,1,1.672-2.765c1.194-.6,1.475.293,1.475.944v.316Zm1.9-1.415c0-.418-.167-.973-.9-.6a2.019,2.019,0,0,0-1,1.547Z" transform="translate(-48.367 -117.098)" fill="#fff"/>
      <path id="Trazado_228936" data-name="Trazado 228936" d="M92.74,263.722c0-.424,0-.782-.03-1.1l.6-.287v.687h0a2.114,2.114,0,0,1,.985-1.278.692.692,0,0,1,.185-.066v.6a1.427,1.427,0,0,0-.221.09,1.75,1.75,0,0,0-.848,1.3,2.582,2.582,0,0,0,0,.323v1.9l-.639.322Z" transform="translate(-51.038 -115.894)" fill="#fff"/>
      <path id="Trazado_228937" data-name="Trazado 228937" d="M41.61,268.064h0l-.8.812-.119-.394.991-1.009.52-.263v4.407l-.6.293Z" transform="translate(-30.084 -118.121)" fill="#333"/>
      <path id="Trazado_228938" data-name="Trazado 228938" d="M46,269.572v-.364l.478-.693c1.159-1.648,1.684-2.478,1.69-3.147,0-.448-.221-.752-.9-.412a3.022,3.022,0,0,0-.961.854l-.191-.323a3.81,3.81,0,0,1,1.278-1.087c.979-.49,1.391-.042,1.391.6,0,.812-.6,1.792-1.565,3.147l-.364.508h0l2.03-.991v.5Z" transform="translate(-32.223 -116.906)" fill="#333"/>
      <path id="Trazado_228939" data-name="Trazado 228939" d="M52.1,265.835a1.971,1.971,0,0,0,1-.221,1.63,1.63,0,0,0,1.027-1.368c0-.6-.6-.6-1.194-.3l-.34.173v-.448l.34-.167c.442-.227,1.009-.735,1.009-1.254,0-.352-.233-.549-.794-.269a3.23,3.23,0,0,0-.908.746l-.161-.352a4.056,4.056,0,0,1,1.194-.932c.89-.448,1.3-.131,1.3.4a2.06,2.06,0,0,1-.812,1.457h0c.555-.167,1.009,0,1.009.6a2.687,2.687,0,0,1-1.654,2.15,2.257,2.257,0,0,1-1.194.287Z" transform="translate(-34.607 -115.714)" fill="#333"/>
      <path id="Trazado_228940" data-name="Trazado 228940" d="M59.718,262.464V261.27l-2.108,1.051v-.388l2.024-3.834.663-.328v2.735l.633-.316v.466l-.633.322v1.194Zm0-1.666v-2.174h0c-.143.328-.251.6-.376.836l-1.111,2.054h0Z" transform="translate(-36.899 -114.319)" fill="#333"/>
      <path id="Trazado_228941" data-name="Trazado 228941" d="M74.059,251.356l-1.732.866-.179,1.194a4.185,4.185,0,0,1,.37-.215,2.054,2.054,0,0,1,.979-.251c.352,0,.645.257.645.812a2.926,2.926,0,0,1-1.684,2.347,2.245,2.245,0,0,1-1.129.293l.149-.532a2.09,2.09,0,0,0,.973-.239,1.875,1.875,0,0,0,1.069-1.493c0-.6-.394-.776-1.3-.322a3.9,3.9,0,0,0-.6.358l.293-2.257,2.168-1.087Z" transform="translate(-42.426 -111.523)" fill="#333"/>
      <path id="Trazado_228942" data-name="Trazado 228942" d="M79.881,248.342a3.177,3.177,0,0,0-.46.257,3.523,3.523,0,0,0-1.577,2.353h0a2.711,2.711,0,0,1,1.1-1.051c.8-.406,1.368-.125,1.368.735A2.771,2.771,0,0,1,78.8,252.94c-.967.49-1.6.072-1.6-1.075a4.336,4.336,0,0,1,.764-2.389,4.849,4.849,0,0,1,1.451-1.38c.185-.119.334-.2.448-.257Zm-.173,2.628c0-.627-.37-.824-.938-.543a2,2,0,0,0-.878.985.669.669,0,0,0-.066.3c0,.717.352,1.081.991.758a1.69,1.69,0,0,0,.89-1.5Z" transform="translate(-44.79 -110.319)" fill="#333"/>
      <path id="Trazado_228943" data-name="Trazado 228943" d="M86.357,244.68v.394l-1.953,5-.639.317,1.971-4.879h0l-2.216,1.111v-.5Z" transform="translate(-47.336 -109.046)" fill="#333"/>
      <path id="Trazado_228944" data-name="Trazado 228944" d="M89.24,246.776a2.329,2.329,0,0,1,.9-1.624h0c-.5,0-.717-.251-.717-.633a2.389,2.389,0,0,1,1.4-1.869c.878-.442,1.314-.125,1.314.424a2.024,2.024,0,0,1-.746,1.4h0c.6-.066.914.149.914.681a2.616,2.616,0,0,1-1.541,2.054C89.813,247.684,89.24,247.421,89.24,246.776Zm2.437-1.242c0-.537-.382-.6-1-.466a1.821,1.821,0,0,0-.812,1.314c0,.46.328.681.908.388a1.517,1.517,0,0,0,.9-1.236Zm-1.684-1.362c0,.442.34.508.866.382a1.66,1.66,0,0,0,.687-1.147c0-.352-.215-.6-.764-.334a1.332,1.332,0,0,0-.788,1.1Z" transform="translate(-49.64 -108.144)" fill="#333"/>
      <path id="Trazado_228945" data-name="Trazado 228945" d="M103.084,240.551a3.618,3.618,0,0,0,.5-.269,3.434,3.434,0,0,0,1.547-2.389h0a2.6,2.6,0,0,1-1.069,1.009c-.812.406-1.338.072-1.338-.681a2.867,2.867,0,0,1,1.547-2.341c.932-.46,1.5,0,1.5,1.1a4.354,4.354,0,0,1-.776,2.46,4.509,4.509,0,0,1-1.32,1.248,4.226,4.226,0,0,1-.6.317Zm.227-2.646c0,.549.34.764.872.5a2.007,2.007,0,0,0,.89-.908.525.525,0,0,0,.054-.245c0-.752-.281-1.194-.926-.866A1.756,1.756,0,0,0,103.311,237.905Z" transform="translate(-55.07 -105.43)" fill="#333"/>
      <path id="Trazado_228946" data-name="Trazado 228946" d="M111.7,234.433a3.286,3.286,0,0,1-1.577,3.111c-.884.442-1.481-.066-1.5-1.511a3.327,3.327,0,0,1,1.577-3.082C111.116,232.492,111.7,233.029,111.7,234.433Zm-2.46,1.3c0,1.147.364,1.618.92,1.338a2.58,2.58,0,0,0,.926-2.3c0-1.1-.287-1.654-.92-1.338A2.5,2.5,0,0,0,109.235,235.729Z" transform="translate(-57.446 -104.257)" fill="#333"/>
      <path id="Trazado_228947" data-name="Trazado 228947" d="M117.685,231.443a3.286,3.286,0,0,1-1.577,3.111c-.884.442-1.487-.066-1.5-1.517a3.322,3.322,0,0,1,1.577-3.076C117.106,229.5,117.685,230.039,117.685,231.443Zm-2.46,1.3c0,1.147.358,1.612.92,1.338a2.558,2.558,0,0,0,.926-2.3c0-1.1-.287-1.654-.92-1.338A2.493,2.493,0,0,0,115.225,232.739Z" transform="translate(-59.859 -103.053)" fill="#333"/>
      <path id="Trazado_228948" data-name="Trazado 228948" d="M123.669,228.443a3.24,3.24,0,0,1-1.571,3.111c-.89.448-1.487-.06-1.5-1.511a3.328,3.328,0,0,1,1.571-3.082C123.09,226.5,123.669,227.039,123.669,228.443Zm-2.46,1.3c0,1.141.364,1.612.92,1.332a2.582,2.582,0,0,0,.932-2.3c0-1.1-.287-1.654-.92-1.332A2.494,2.494,0,0,0,121.209,229.745Z" transform="translate(-62.272 -101.844)" fill="#333"/>
      <path id="Trazado_228949" data-name="Trazado 228949" d="M137.075,221.743a3.286,3.286,0,0,1-1.577,3.111c-.884.442-1.481-.066-1.5-1.517a3.31,3.31,0,0,1,1.577-3.076C136.5,219.8,137.075,220.339,137.075,221.743Zm-2.478,1.284c0,1.147.364,1.612.92,1.338a2.573,2.573,0,0,0,.926-2.3c0-1.1-.281-1.654-.92-1.338A2.556,2.556,0,0,0,134.6,223.027Z" transform="translate(-67.669 -99.145)" fill="#333"/>
      <path id="Trazado_228950" data-name="Trazado 228950" d="M143.065,218.746a3.286,3.286,0,0,1-1.577,3.111c-.884.448-1.487-.06-1.5-1.511a3.322,3.322,0,0,1,1.577-3.076C142.486,216.811,143.065,217.343,143.065,218.746Zm-2.472,1.284c0,1.141.358,1.612.92,1.332a2.566,2.566,0,0,0,.926-2.3c0-1.1-.287-1.654-.92-1.332A2.549,2.549,0,0,0,140.593,220.03Z" transform="translate(-70.082 -97.94)" fill="#333"/>
      <path id="Trazado_228951" data-name="Trazado 228951" d="M149.049,215.753a3.294,3.294,0,0,1-1.571,3.111c-.89.442-1.487-.066-1.5-1.517a3.31,3.31,0,0,1,1.577-3.076C148.482,213.812,149.049,214.349,149.049,215.753Zm-2.46,1.278c0,1.147.364,1.618.926,1.338a2.566,2.566,0,0,0,.926-2.3c0-1.1-.287-1.654-.92-1.338A2.522,2.522,0,0,0,146.589,217.031Z" transform="translate(-72.495 -96.733)" fill="#333"/>
      <path id="Trazado_228952" data-name="Trazado 228952" d="M155.035,212.757a3.3,3.3,0,0,1-1.577,3.117c-.884.442-1.481-.066-1.5-1.517a3.31,3.31,0,0,1,1.577-3.076C154.456,210.822,155.035,211.359,155.035,212.757Zm-2.454,1.278c0,1.147.364,1.612.92,1.332a2.58,2.58,0,0,0,.926-2.3c0-1.1-.281-1.648-.92-1.332A2.515,2.515,0,0,0,152.581,214.035Z" transform="translate(-74.904 -95.528)" fill="#333"/>
      <path id="Trazado_228953" data-name="Trazado 228953" d="M41.87,268.064h0l-.8.812-.119-.394.985-1.009.526-.263v4.407l-.6.293Z" transform="translate(-30.189 -118.121)" fill="#fff"/>
      <path id="Trazado_228954" data-name="Trazado 228954" d="M46.24,269.572v-.364l.484-.693c1.159-1.648,1.678-2.478,1.69-3.147,0-.448-.227-.752-.9-.412a3.022,3.022,0,0,0-.961.854l-.2-.323a3.834,3.834,0,0,1,1.284-1.087c.973-.49,1.385-.042,1.385.6,0,.812-.6,1.792-1.559,3.147l-.364.508h0l2.036-.991v.5Z" transform="translate(-32.319 -116.906)" fill="#fff"/>
      <path id="Trazado_228955" data-name="Trazado 228955" d="M52.347,265.835a1.971,1.971,0,0,0,1-.221,1.612,1.612,0,0,0,1.021-1.368c0-.6-.6-.6-1.194-.3l-.34.173v-.448l.34-.167c.448-.227,1.015-.735,1.015-1.254,0-.352-.233-.549-.8-.269a3.2,3.2,0,0,0-.9.746l-.161-.352a4.1,4.1,0,0,1,1.194-.932c.9-.448,1.3-.131,1.3.4a2.036,2.036,0,0,1-.836,1.457h0c.561-.167,1.015,0,1.015.6a2.687,2.687,0,0,1-1.654,2.15,2.257,2.257,0,0,1-1.194.287Z" transform="translate(-34.7 -115.714)" fill="#fff"/>
      <path id="Trazado_228956" data-name="Trazado 228956" d="M59.972,262.468v-1.194l-2.1,1.051v-.388l2.019-3.828.663-.328v2.735l.633-.316v.466l-.633.323v1.194Zm0-1.666v-2.174h0c-.137.328-.251.6-.376.836l-1.1,2.054h0Z" transform="translate(-37.004 -114.323)" fill="#fff"/>
      <path id="Trazado_228957" data-name="Trazado 228957" d="M74.319,251.356l-1.732.866-.173,1.194a3.453,3.453,0,0,1,.37-.215,2.031,2.031,0,0,1,.973-.251c.358,0,.651.257.651.812a2.92,2.92,0,0,1-1.69,2.347,2.245,2.245,0,0,1-1.129.293l.155-.532a2.084,2.084,0,0,0,.967-.239,1.869,1.869,0,0,0,1.075-1.493c0-.6-.4-.776-1.3-.322a6.467,6.467,0,0,0-.6.358l.293-2.257,2.168-1.087Z" transform="translate(-42.531 -111.523)" fill="#fff"/>
      <path id="Trazado_228958" data-name="Trazado 228958" d="M80.135,248.342a3.532,3.532,0,0,0-.46.257,3.488,3.488,0,0,0-1.571,2.353h0A2.658,2.658,0,0,1,79.2,249.9c.806-.406,1.368-.125,1.368.735a2.759,2.759,0,0,1-1.5,2.305c-.967.49-1.6.072-1.6-1.075a4.288,4.288,0,0,1,.764-2.389,4.849,4.849,0,0,1,1.451-1.38c.179-.119.334-.2.442-.257Zm-.173,2.628c0-.627-.37-.824-.932-.543a2,2,0,0,0-.878.985.669.669,0,0,0-.072.3c0,.717.358,1.081,1,.758A1.684,1.684,0,0,0,79.962,250.969Z" transform="translate(-44.895 -110.319)" fill="#fff"/>
      <path id="Trazado_228959" data-name="Trazado 228959" d="M86.6,244.68v.394l-1.977,5-.633.317,1.965-4.879h0l-2.216,1.111v-.5Z" transform="translate(-47.425 -109.046)" fill="#fff"/>
      <path id="Trazado_228960" data-name="Trazado 228960" d="M89.49,246.784a2.341,2.341,0,0,1,.9-1.612h0c-.5,0-.717-.251-.717-.633a2.389,2.389,0,0,1,1.4-1.869c.878-.442,1.32-.125,1.32.424a2.054,2.054,0,0,1-.746,1.4h0c.561-.066.914.149.914.681a2.616,2.616,0,0,1-1.571,2.042C90.063,247.692,89.49,247.429,89.49,246.784Zm2.443-1.242c0-.537-.382-.6-1-.466a1.792,1.792,0,0,0-.818,1.314c0,.46.328.681.908.388A1.523,1.523,0,0,0,91.933,245.542Zm-1.684-1.362c0,.442.34.508.86.382a1.648,1.648,0,0,0,.693-1.147c0-.352-.215-.6-.77-.334A1.326,1.326,0,0,0,90.248,244.18Z" transform="translate(-49.741 -108.152)" fill="#fff"/>
      <path id="Trazado_228961" data-name="Trazado 228961" d="M103.344,240.551a4.009,4.009,0,0,0,.5-.269,3.434,3.434,0,0,0,1.547-2.389h0a2.6,2.6,0,0,1-1.069,1.009c-.818.406-1.338.072-1.338-.681a2.867,2.867,0,0,1,1.547-2.341c.926-.46,1.5,0,1.5,1.1a4.312,4.312,0,0,1-.782,2.46,4.491,4.491,0,0,1-1.314,1.248,4.629,4.629,0,0,1-.6.316Zm.221-2.646c0,.549.346.764.872.5a2.019,2.019,0,0,0,.9-.908.525.525,0,0,0,.054-.245c0-.752-.287-1.194-.926-.866a1.75,1.75,0,0,0-.872,1.517Z" transform="translate(-55.175 -105.43)" fill="#fff"/>
      <path id="Trazado_228962" data-name="Trazado 228962" d="M111.929,234.433a3.294,3.294,0,0,1-1.571,3.111c-.884.442-1.487-.066-1.5-1.511a3.327,3.327,0,0,1,1.577-3.082C111.362,232.492,111.929,233.029,111.929,234.433Zm-2.454,1.3c0,1.147.358,1.618.92,1.338a2.566,2.566,0,0,0,.926-2.3c0-1.1-.287-1.654-.92-1.338a2.526,2.526,0,0,0-.914,2.3Z" transform="translate(-57.543 -104.257)" fill="#fff"/>
      <path id="Trazado_228963" data-name="Trazado 228963" d="M117.929,231.443a3.286,3.286,0,0,1-1.577,3.111c-.884.442-1.481-.066-1.493-1.517a3.318,3.318,0,0,1,1.571-3.076C117.35,229.5,117.929,230.039,117.929,231.443Zm-2.46,1.3c0,1.147.364,1.612.92,1.338a2.573,2.573,0,0,0,.926-2.3c0-1.1-.281-1.654-.92-1.338a2.519,2.519,0,0,0-.92,2.3Z" transform="translate(-59.96 -103.053)" fill="#fff"/>
      <path id="Trazado_228964" data-name="Trazado 228964" d="M123.925,228.443a3.286,3.286,0,0,1-1.577,3.111c-.884.448-1.481-.06-1.5-1.511a3.32,3.32,0,0,1,1.577-3.082C123.346,226.5,123.925,227.039,123.925,228.443Zm-2.46,1.3c0,1.141.364,1.612.92,1.332a2.58,2.58,0,0,0,.926-2.3c0-1.1-.287-1.654-.92-1.332A2.493,2.493,0,0,0,121.465,229.745Z" transform="translate(-62.372 -101.844)" fill="#fff"/>
      <path id="Trazado_228965" data-name="Trazado 228965" d="M137.335,221.743a3.286,3.286,0,0,1-1.577,3.111c-.884.442-1.487-.066-1.5-1.517a3.322,3.322,0,0,1,1.577-3.076C136.756,219.8,137.335,220.339,137.335,221.743Zm-2.46,1.284c0,1.147.358,1.612.92,1.338a2.558,2.558,0,0,0,.926-2.3c0-1.1-.287-1.654-.92-1.338A2.514,2.514,0,0,0,134.875,223.027Z" transform="translate(-67.774 -99.145)" fill="#fff"/>
      <path id="Trazado_228966" data-name="Trazado 228966" d="M143.319,218.746a3.24,3.24,0,0,1-1.571,3.111c-.89.448-1.487-.06-1.5-1.511a3.318,3.318,0,0,1,1.571-3.076C142.74,216.811,143.319,217.343,143.319,218.746Zm-2.46,1.284c0,1.141.364,1.612.92,1.332a2.582,2.582,0,0,0,.932-2.3c0-1.1-.287-1.654-.92-1.332A2.522,2.522,0,0,0,140.859,220.03Z" transform="translate(-70.187 -97.94)" fill="#fff"/>
      <path id="Trazado_228967" data-name="Trazado 228967" d="M149.305,215.753a3.286,3.286,0,0,1-1.577,3.111c-.884.442-1.481-.066-1.5-1.517a3.31,3.31,0,0,1,1.577-3.076C148.726,213.812,149.305,214.349,149.305,215.753Zm-2.46,1.278c0,1.147.364,1.618.92,1.338a2.58,2.58,0,0,0,.926-2.3c0-1.1-.281-1.654-.92-1.338A2.521,2.521,0,0,0,146.845,217.031Z" transform="translate(-72.596 -96.733)" fill="#fff"/>
      <path id="Trazado_228968" data-name="Trazado 228968" d="M155.3,212.757a3.3,3.3,0,0,1-1.577,3.117c-.884.442-1.487-.066-1.5-1.517a3.322,3.322,0,0,1,1.577-3.076C154.716,210.822,155.3,211.359,155.3,212.757Zm-2.46,1.278c0,1.147.358,1.612.92,1.332a2.566,2.566,0,0,0,.926-2.3c0-1.1-.287-1.648-.92-1.332A2.528,2.528,0,0,0,152.835,214.035Z" transform="translate(-75.009 -95.528)" fill="#fff"/>
      <path id="Trazado_228969" data-name="Trazado 228969" d="M35.526,222.112a11.276,11.276,0,0,1,1.368-.8,2.275,2.275,0,0,1,1.595-.376c.3.072.484.328.484.782a2.532,2.532,0,0,1-.985,1.792h0c.555-.137,1.194,0,1.194.86a2.526,2.526,0,0,1-.49,1.4,5.255,5.255,0,0,1-2.007,1.547,11.715,11.715,0,0,1-1.194.514Zm.752,2,.675-.34a2.007,2.007,0,0,0,1.26-1.612c0-.675-.52-.687-1.278-.3a4.18,4.18,0,0,0-.657.382Zm0,2.783a6.118,6.118,0,0,0,.6-.281,2.3,2.3,0,0,0,1.487-1.869c0-.842-.681-.782-1.5-.37l-.6.311Z" transform="translate(-27.989 -99.473)" fill="#fff"/>
      <path id="Trazado_228970" data-name="Trazado 228970" d="M45.4,223.98l-.06-.5h0a3.04,3.04,0,0,1-1.3,1.278c-.848.418-1.278.042-1.278-.561,0-1.009.9-2.007,2.508-2.8v-.09c0-.34-.1-.914-.95-.49a3.816,3.816,0,0,0-1.081.854l-.173-.412a4.622,4.622,0,0,1,1.368-1.057c1.272-.633,1.583.078,1.583.914v1.559a5.052,5.052,0,0,0,.072.961Zm-.107-2.072c-.83.4-1.792,1.015-1.792,1.821,0,.49.328.561.717.364a2.007,2.007,0,0,0,1-1.194.878.878,0,0,0,.048-.263Z" transform="translate(-30.922 -99.09)" fill="#fff"/>
      <path id="Trazado_228971" data-name="Trazado 228971" d="M50.246,218.424a10.55,10.55,0,0,0-.036-1.111l.675-.334.042.669h0a2.986,2.986,0,0,1,1.374-1.469c.6-.293,1.475-.394,1.475,1.033v2.49l-.758.376V217.69c0-.669-.251-1.1-.967-.746a2.144,2.144,0,0,0-1.015,1.278,1.559,1.559,0,0,0-.048.382v2.5l-.758.382Z" transform="translate(-33.919 -97.493)" fill="#fff"/>
      <path id="Trazado_228972" data-name="Trazado 228972" d="M58.984,214.142h0c.1-.2.251-.454.37-.657l1.194-2.048.914-.46L59.85,213.5l1.833,1.535-.92.46-1.439-1.278-.388.627v1.565l-.746.376V210.66l.746-.37Z" transform="translate(-37.133 -95.194)" fill="#fff"/>
      <path id="Trazado_228973" data-name="Trazado 228973" d="M70.72,239.185a.4.4,0,0,1-.346.03c-.191-.1-.191-.406,0-.693a4.18,4.18,0,0,0,.866-2.251,1.493,1.493,0,0,0-.848-1.344c-.2-.078-.215-.382-.036-.669s.49-.466.693-.382a2.019,2.019,0,0,1,1.194,1.869,5.632,5.632,0,0,1-1.153,3.123A.962.962,0,0,1,70.72,239.185Z" transform="translate(-41.983 -104.686)" fill="#fafafa"/>
      <path id="Trazado_228974" data-name="Trazado 228974" d="M73.459,238.224a.4.4,0,0,1-.346.03c-.191-.1-.191-.406,0-.693a7.077,7.077,0,0,0,1.451-3.822,2.538,2.538,0,0,0-1.433-2.275c-.2-.084-.215-.382-.036-.675s.49-.46.687-.382a3.034,3.034,0,0,1,1.756,2.807,8.425,8.425,0,0,1-1.732,4.694A.962.962,0,0,1,73.459,238.224Z" transform="translate(-43.086 -103.289)" fill="#fafafa"/>
      <path id="Trazado_228975" data-name="Trazado 228975" d="M76.5,237.048a.382.382,0,0,1-.346.03c-.191-.1-.191-.4,0-.687a9.472,9.472,0,0,0,1.953-5.166,3.41,3.41,0,0,0-1.935-3.082c-.2-.078-.215-.382-.036-.675s.49-.46.687-.382a3.918,3.918,0,0,1,2.263,3.613c.048,1.7-.711,3.732-2.239,6.032a.866.866,0,0,1-.346.316Z" transform="translate(-44.311 -101.952)" fill="#fafafa"/>
      <g id="Grupo_124102" data-name="Grupo 124102" transform="translate(60.251 123.808)">
        <ellipse id="Elipse_5308" data-name="Elipse 5308" cx="6.372" cy="3.888" rx="6.372" ry="3.888" transform="matrix(0.615, -0.788, 0.788, 0.615, 0, 13.172)" fill="#fff" opacity="0.51"/>
        <ellipse id="Elipse_5309" data-name="Elipse 5309" cx="6.372" cy="3.888" rx="6.372" ry="3.888" transform="matrix(0.615, -0.788, 0.788, 0.615, 4.978, 10.682)" fill="#fff" opacity="0.51"/>
        <path id="Trazado_228976" data-name="Trazado 228976" d="M152.476,232.015c-1.875,2.944-5.022,4.634-7.035,3.762s-2.12-3.959-.251-6.9,5.022-4.64,7.035-3.768S154.346,229.065,152.476,232.015Z" transform="translate(-131.891 -224.877)" fill="#fff" opacity="0.51"/>
      </g>
      <path id="Trazado_228977" data-name="Trazado 228977" d="M241.273,58.462l-63.541-31.8a3.214,3.214,0,0,0-3.129-.173h0l-5.022,2.5,2.6,1.194v130a7.951,7.951,0,0,0,4.228,6.342L239.4,198.056l-.466,2.49,5.172-2.574h0a2.421,2.421,0,0,0,1.4-2.437V64.81A8.023,8.023,0,0,0,241.273,58.462Z" transform="translate(-82.001 -21.025)" fill="url(#linear-gradient-3)"/>
      <path id="Trazado_228978" data-name="Trazado 228978" d="M234.93,202.093,171.388,170.3a8,8,0,0,1-4.228-6.348V33.236c0-2.335,1.893-3.285,4.228-2.114l63.541,31.8a8,8,0,0,1,4.228,6.342V199.978C239.158,202.319,237.265,203.263,234.93,202.093Z" transform="translate(-81.027 -22.822)" fill="url(#linear-gradient-4)"/>
      <path id="Trazado_228979" data-name="Trazado 228979" d="M233.453,198.868l-54.4-27.226a8,8,0,0,1-4.228-6.348V49.868c0-2.335,1.893-3.279,4.228-2.114l54.4,27.232a8,8,0,0,1,4.228,6.342V196.754C237.675,199.089,235.782,200.038,233.453,198.868Z" transform="translate(-84.112 -29.522)" fill="url(#linear-gradient-5)"/>
      <path id="Trazado_228980" data-name="Trazado 228980" d="M233.108,67.828l-24.27-12.135a2.46,2.46,0,0,1-1.308-1.959h0c0-.723.6-1.015,1.308-.657l24.27,12.141a2.448,2.448,0,0,1,1.308,1.959h0C234.416,67.9,233.83,68.192,233.108,67.828Z" transform="translate(-97.288 -31.806)" fill="url(#linear-gradient-6)"/>
      <path id="Trazado_228981" data-name="Trazado 228981" d="M235.219,178.4l-47.8-23.906V138.26l47.8,23.906Z" transform="translate(-89.188 -66.179)" fill="#496aec"/>
      <path id="Trazado_228982" data-name="Trazado 228982" d="M193.91,156.326V148.76l41.762,20.9v7.566Z" transform="translate(-91.802 -70.409)" fill="#415fd4"/>
      <path id="Trazado_228983" data-name="Trazado 228983" d="M175.653,156s-30.923,7.531-30.457,66.683l38.7,20.7.926-.83c.752-58.412,30.457-66.886,30.457-66.886l.03-1.081Z" transform="translate(-72.178 -73.325)" fill="#a4b0de"/>
      <path id="Trazado_228984" data-name="Trazado 228984" d="M175.266,153.66s-31.526,9.161-31.526,68.283l39.57,20.5c0-59.122,31.395-68.8,31.395-68.8Z" transform="translate(-71.593 -72.383)" fill="#fcfcfc"/>
      <path id="Trazado_228985" data-name="Trazado 228985" d="M193.91,152.289l39.5,19.97V173.3l2.263.848v-4.5l-41.762-20.9Z" transform="translate(-91.802 -70.409)" fill="#415fd4" opacity="0.3"/>
      <path id="Trazado_228986" data-name="Trazado 228986" d="M211.075,190.263,180.762,175.1a22.6,22.6,0,0,0-1.732,1.792l30.32,15.163C209.929,191.391,210.508,190.8,211.075,190.263Z" transform="translate(-85.808 -81.019)" fill="#a4b0de"/>
      <path id="Trazado_228987" data-name="Trazado 228987" d="M174,183.111l30.32,15.163c.472-.675.95-1.314,1.433-1.911L175.409,181.2C174.932,181.8,174.448,182.436,174,183.111Z" transform="translate(-83.782 -83.476)" fill="#a4b0de"/>
      <path id="Trazado_228988" data-name="Trazado 228988" d="M169.74,189.8l30.308,15.157c.394-.7.794-1.386,1.194-2.03L170.934,187.77C170.528,188.415,170.134,189.1,169.74,189.8Z" transform="translate(-82.066 -86.122)" fill="#a4b0de"/>
      <path id="Trazado_228989" data-name="Trazado 228989" d="M166.25,196.858l30.308,15.157c.322-.741.651-1.451.991-2.138L167.241,194.72C166.895,195.407,166.567,196.123,166.25,196.858Z" transform="translate(-80.66 -88.922)" fill="#a4b0de"/>
      <path id="Trazado_228990" data-name="Trazado 228990" d="M163.39,204.245l30.278,15.139c.263-.764.531-1.5.812-2.222L164.19,202C163.916,202.735,163.647,203.475,163.39,204.245Z" transform="translate(-79.508 -91.854)" fill="#a4b0de"/>
      <path id="Trazado_228991" data-name="Trazado 228991" d="M180.512,278.89,150.82,264.038V261.07l29.692,14.846Z" transform="translate(-74.445 -115.648)" fill="#a4b0de"/>
      <path id="Trazado_228992" data-name="Trazado 228992" d="M291.456,139.88l.245.215a1.1,1.1,0,0,1-1.63-.908V127.3a2.616,2.616,0,0,1,1.385-2.084h0c.764-.382,1.792,0,1.792.764l-.382,11.813a2.616,2.616,0,0,1-1.409,2.084Z" transform="translate(-130.536 -60.866)" fill="#3d6ec4"/>
      <path id="Trazado_228993" data-name="Trazado 228993" d="M292.266,140.275h0c-.764.382-1.385.072-1.385-.693V127.7a2.6,2.6,0,0,1,1.385-2.078h0c.764-.382,1.385-.072,1.385.693V138.2a2.616,2.616,0,0,1-1.385,2.078Z" transform="translate(-130.862 -61.022)" fill="#4985ec"/>
      <path id="Trazado_228994" data-name="Trazado 228994" d="M291.456,171.26l.245.215a1.1,1.1,0,0,1-1.63-.908V158.683a2.616,2.616,0,0,1,1.385-2.084h0c.764-.382,1.792,0,1.792.764l-.382,11.813A2.616,2.616,0,0,1,291.456,171.26Z" transform="translate(-130.536 -73.506)" fill="#3d6ec4"/>
      <path id="Trazado_228995" data-name="Trazado 228995" d="M292.266,171.655h0c-.764.382-1.385.072-1.385-.693V159.078A2.61,2.61,0,0,1,292.266,157h0c.764-.382,1.385-.072,1.385.693v11.884a2.61,2.61,0,0,1-1.386,2.078Z" transform="translate(-130.862 -73.662)" fill="#4985ec"/>
      <path id="Trazado_228996" data-name="Trazado 228996" d="M261.082,80.577c0,.836-.681,1.194-1.511.758a2.843,2.843,0,0,1-1.511-2.263c0-.836.675-1.194,1.511-.758A2.855,2.855,0,0,1,261.082,80.577Z" transform="translate(-117.642 -41.958)" fill="url(#linear-gradient-7)"/>
      <path id="Trazado_228997" data-name="Trazado 228997" d="M217.393,313.721c-13.735-7.262-36.387-10.5-50.439-3.858-7.334,3.464-2.556,7.077-2.347,11.83.125,2.9-6.569,9.651-3.655,12.3L119.543,351.8a2.658,2.658,0,0,0-.776.334h0a3.374,3.374,0,0,0-1.38,2.9c-.066,3.07,4.348,6.085,7.381,7.692a4.561,4.561,0,0,0,3.727.5h0l.066-.03a2.743,2.743,0,0,0,.436-.227l43.38-22.693a57.628,57.628,0,0,0,9.555,2.389,59.039,59.039,0,0,0,19.391.43,51.066,51.066,0,0,0,15.569-4.18c7.029-3.32,10.606-7.8,10.708-12.356S224.267,317.352,217.393,313.721Z" transform="translate(-60.976 -133.847)" opacity="0.14"/>
      <path id="Trazado_228998" data-name="Trazado 228998" d="M185,320.11c.179,4.049,3.3,8.128,9.412,11.347,12.762,6.736,33.682,7.2,46.73,1.039,6.521-3.082,9.842-7.238,9.937-11.466l-.2,8.815c-.1,4.228-3.416,8.361-9.937,11.466-13.049,6.163-33.968,5.7-46.73-1.039-6.653-3.517-9.77-8.038-9.388-12.44Z" transform="translate(-88.131 -139.43)" fill="#3964c7"/>
      <path id="Trazado_228999" data-name="Trazado 228999" d="M241.414,308.714c-10.54-5.566-27.817-5.972-38.591-.86-3.649,1.72-6.079,3.852-7.3,6.133-2.18-4.563.317-9.483,7.447-12.852,10.75-5.088,28.068-4.706,38.591.86,6.975,3.685,9.245,8.713,6.868,13.168C247.314,312.829,244.979,310.6,241.414,308.714Z" transform="translate(-92.145 -130.345)" fill="#2b4c96"/>
      <g id="Grupo_124103" data-name="Grupo 124103" transform="translate(101.973 169.649)" opacity="0.58">
        <path id="Trazado_229000" data-name="Trazado 229000" d="M202.084,305.294c11-5.2,28.629-4.807,39.385.872,5.112,2.7,7.764,6.109,7.931,9.5.2,3.75-2.6,7.471-8.361,10.2-11,5.2-28.629,4.778-39.415-.878-5.643-2.986-8.271-6.826-7.907-10.558C194.076,311.045,196.859,307.761,202.084,305.294Z" transform="translate(-193.684 -301.638)" fill="#fff"/>
      </g>
      <path id="Trazado_229001" data-name="Trazado 229001" d="M185.135,309.083c.179,4.049,3.3,8.128,9.412,11.347,12.762,6.736,33.682,7.2,46.73,1.039,6.521-3.082,9.842-7.238,9.937-11.466s-3.04-8.522-9.43-11.89c-12.762-6.742-33.682-7.208-46.73-1.039C188.264,300.286,184.944,304.67,185.135,309.083Zm5.781-.938c.322-3.308,3.052-6.533,8.176-8.958,10.749-5.088,28.068-4.706,38.591.86,5,2.646,7.59,5.972,7.764,9.3.2,3.673-2.544,7.322-8.2,9.991-10.749,5.094-28.068,4.706-38.591-.86-5.524-2.9-8.1-6.683-7.74-10.337Z" transform="translate(-88.264 -128.403)" fill="#3fb9f2"/>
      <path id="Trazado_229002" data-name="Trazado 229002" d="M114.506,372.026l-7.166-11.018,51.2-22.228a2.811,2.811,0,0,1,2.878.155,7.063,7.063,0,0,1,3.631,5.721,2.311,2.311,0,0,1-.824,1.887h0a1.792,1.792,0,0,1-.669.316Z" transform="translate(-56.931 -146.819)" fill="#2f52a6"/>
      <ellipse id="Elipse_5310" data-name="Elipse 5310" cx="4.031" cy="6.611" rx="4.031" ry="6.611" transform="matrix(0.802, -0.598, 0.598, 0.802, 47.058, 216.671)" fill="#4271e6"/>
      <path id="Trazado_229003" data-name="Trazado 229003" d="M201.9,130.8c0,1.529-1.236,2.15-2.765,1.385a5.2,5.2,0,0,1-2.765-4.15c0-1.529,1.236-2.144,2.765-1.38A5.2,5.2,0,0,1,201.9,130.8Z" transform="translate(-92.793 -61.374)" fill="#336eff" opacity="0.9"/>
      <path id="Trazado_229004" data-name="Trazado 229004" d="M215.12,137.419c0,1.523-1.236,2.144-2.765,1.38a5.2,5.2,0,0,1-2.765-4.15c0-1.529,1.236-2.144,2.765-1.38A5.2,5.2,0,0,1,215.12,137.419Z" transform="translate(-98.118 -64.037)" fill="#336eff" opacity="0.7"/>
      <path id="Trazado_229005" data-name="Trazado 229005" d="M228.34,144.031c0,1.523-1.236,2.144-2.765,1.38a5.2,5.2,0,0,1-2.765-4.145c0-1.523,1.236-2.15,2.765-1.385A5.2,5.2,0,0,1,228.34,144.031Z" transform="translate(-103.443 -66.701)" fill="#336eff" opacity="0.5"/>
      <path id="Trazado_229006" data-name="Trazado 229006" d="M241.548,150.627c0,1.529-1.236,2.144-2.765,1.38A5.215,5.215,0,0,1,236,147.844c0-1.547,1.242-2.144,2.765-1.385A5.256,5.256,0,0,1,241.548,150.627Z" transform="translate(-108.756 -69.35)" fill="#336eff" opacity="0.3"/>
      <path id="Trazado_229007" data-name="Trazado 229007" d="M254.78,157.229c0,1.529-1.236,2.144-2.765,1.385a5.2,5.2,0,0,1-2.765-4.18c0-1.559,1.242-2.144,2.765-1.38A5.253,5.253,0,0,1,254.78,157.229Z" transform="translate(-114.093 -72.004)" fill="#336eff" opacity="0.25"/>
      <path id="Trazado_229008" data-name="Trazado 229008" d="M92.24,28.36l-2.52,1.4,1.338.669Z" transform="translate(-49.833 -21.911)" fill="#d93dac"/>
      <ellipse id="Elipse_5311" data-name="Elipse 5311" cx="12.237" cy="21.457" rx="12.237" ry="21.457" transform="translate(30.252 18.537) rotate(-49.24)" fill="#69c1ff"/>
      <path id="Trazado_229009" data-name="Trazado 229009" d="M137.764,66.42l6.927,14.816-16.262-8.1Z" transform="translate(-65.426 -37.242)" fill="#69c1ff"/>
      <g id="Grupo_124104" data-name="Grupo 124104" transform="translate(148.009 6.765)" opacity="0.5">
        <path id="Trazado_229010" data-name="Trazado 229010" d="M293.7,50.2V45.164L291.4,44.011a15.263,15.263,0,0,0-.866-2.652l1.589-.794-3.583-5.339-1.5.764a18.23,18.23,0,0,0-2.287-2.12V31.745l-5.034-2.52v2.12a7.268,7.268,0,0,0-2.287-.173L275.9,28.89l-3.583,1.792,1.589,2.389a5.417,5.417,0,0,0-.872,1.792l-2.263-1.129v5.034l2.419,1.194a16.166,16.166,0,0,0,.908,2.52l-1.744.872,3.583,5.339,1.792-.908a18.252,18.252,0,0,0,1.995,1.792v2.586l5.034,2.52V52.091a7.555,7.555,0,0,0,1.995.185l1.792,2.729,3.583-1.792-1.756-2.64a5.212,5.212,0,0,0,.9-1.6ZM277.2,39.21c0-2.777,2.251-3.906,5.028-2.514s5.028,4.778,5.028,7.543-2.251,3.9-5.028,2.514S277.2,41.986,277.2,39.21Z" transform="translate(-270.77 -28.89)" fill="#336eff"/>
        <path id="Trazado_229011" data-name="Trazado 229011" d="M321.1,81.375V77.791l-1.648-.824a10.647,10.647,0,0,0-.6-1.9l1.135-.6-2.544-3.792-1.087.543a13.446,13.446,0,0,0-1.636-1.511V68.189L311.142,66.4V67.92a5.375,5.375,0,0,0-1.636-.125l-1.087-1.624-2.538,1.266,1.129,1.7a3.852,3.852,0,0,0-.6,1.278L304.77,69.6v3.583l1.732.866a11.226,11.226,0,0,0,.651,1.792l-1.248.627,2.538,3.81,1.242-.633a13.906,13.906,0,0,0,1.433,1.29V82.79l3.583,1.792V82.73a5.213,5.213,0,0,0,1.427.131l1.32,1.941,2.544-1.266-1.254-1.887a3.816,3.816,0,0,0,.645-1.147Zm-11.783-7.853c0-1.983,1.606-2.789,3.583-1.792a6.77,6.77,0,0,1,3.583,5.375c0,1.971-1.606,2.789-3.583,1.792A6.752,6.752,0,0,1,309.321,73.521Z" transform="translate(-284.465 -43.907)" fill="#336eff"/>
        <path id="Trazado_229012" data-name="Trazado 229012" d="M321.155,55.516l-.334-2.986-1.272-.478a9.1,9.1,0,0,0-.6-1.481l.77-.6-2.234-2.819-.735.6a10.388,10.388,0,0,0-1.326-1.045l-.143-1.242-2.771-1.045.143,1.242a3.38,3.38,0,0,0-1.194.1l-.944-1.194L308.8,45.9l.979,1.254a3.584,3.584,0,0,0-.322,1.123L308.19,47.8l.34,2.944,1.332.5a10.1,10.1,0,0,0,.639,1.4l-.842.657,2.2,2.813.878-.681a9.379,9.379,0,0,0,1.153.884l.179,1.511,2.771,1.045-.179-1.511a3.511,3.511,0,0,0,1.045-.06l1.123,1.427,1.72-1.338L319.459,56a3.349,3.349,0,0,0,.358-1.015Zm-9.268-5.034a1.657,1.657,0,0,1,2.431-1.893,5.315,5.315,0,0,1,3.105,3.983,1.656,1.656,0,0,1-2.431,1.893,5.327,5.327,0,0,1-3.105-4.007Z" transform="translate(-285.843 -35.146)" fill="#336eff"/>
      </g>
      <ellipse id="Elipse_5312" data-name="Elipse 5312" cx="9.071" cy="18.328" rx="9.071" ry="18.328" transform="translate(53.893 245.738) rotate(-84.82)" opacity="0.13"/>
      <path id="Trazado_229013" data-name="Trazado 229013" d="M146.152,404.131a10.916,10.916,0,0,0-3.631-2.735c-6.456-3.231-16.924-3.231-23.38,0a10.946,10.946,0,0,0-3.637,2.735H114.31v3.105h0c0,2.114,1.618,4.234,4.843,5.847,6.456,3.225,16.924,3.225,23.38,0,3.225-1.612,4.837-3.732,4.837-5.847v-3.105Z" transform="translate(-59.738 -171.196)" fill="#f2a233"/>
      <g id="Grupo_124105" data-name="Grupo 124105" transform="translate(54.572 227.777)" clip-path="url(#clip-path-2)">
        <rect id="Rectángulo_37197" data-name="Rectángulo 37197" width="0.609" height="27.023" transform="translate(1.463 -9.419)" fill="#e68f17"/>
        <rect id="Rectángulo_37198" data-name="Rectángulo 37198" width="0.609" height="27.023" transform="translate(3.512 -7.795)" fill="#e68f17"/>
        <rect id="Rectángulo_37199" data-name="Rectángulo 37199" width="0.603" height="27.023" transform="translate(5.56 -6.171)" fill="#e68f17"/>
        <rect id="Rectángulo_37200" data-name="Rectángulo 37200" width="0.609" height="27.023" transform="translate(7.608 -4.546)" fill="#e68f17"/>
        <rect id="Rectángulo_37201" data-name="Rectángulo 37201" width="0.603" height="27.023" transform="translate(9.979 -5.454)" fill="#e68f17"/>
        <rect id="Rectángulo_37202" data-name="Rectángulo 37202" width="0.609" height="27.023" transform="translate(12.344 -6.368)" fill="#e68f17"/>
        <rect id="Rectángulo_37203" data-name="Rectángulo 37203" width="0.603" height="27.023" transform="translate(14.709 -7.275)" fill="#e68f17"/>
        <rect id="Rectángulo_37204" data-name="Rectángulo 37204" width="0.609" height="27.023" transform="translate(17.074 -8.183)" fill="#e68f17"/>
        <rect id="Rectángulo_37205" data-name="Rectángulo 37205" width="0.609" height="27.023" transform="translate(19.271 -7.275)" fill="#e68f17"/>
        <rect id="Rectángulo_37206" data-name="Rectángulo 37206" width="0.603" height="27.023" transform="translate(21.469 -6.368)" fill="#e68f17"/>
        <rect id="Rectángulo_37207" data-name="Rectángulo 37207" width="0.603" height="27.023" transform="translate(23.661 -5.454)" fill="#e68f17"/>
        <rect id="Rectángulo_37208" data-name="Rectángulo 37208" width="0.609" height="27.023" transform="translate(25.859 -4.546)" fill="#e68f17"/>
        <rect id="Rectángulo_37209" data-name="Rectángulo 37209" width="0.609" height="27.023" transform="translate(28.05 -3.638)" fill="#e68f17"/>
        <rect id="Rectángulo_37210" data-name="Rectángulo 37210" width="0.609" height="27.023" transform="translate(30.248 -2.731)" fill="#e68f17"/>
      </g>
      <ellipse id="Elipse_5313" data-name="Elipse 5313" cx="16.53" cy="8.265" rx="16.53" ry="8.265" transform="translate(54.56 224.67)" fill="#fcc881"/>
      <path id="Trazado_229015" data-name="Trazado 229015" d="M121.578,398.522c5.763-2.884,15.115-2.884,20.9,0,2.6,1.3,4.019,2.986,4.27,4.67.311-2.072-1.1-4.18-4.27-5.781-5.769-2.884-15.121-2.884-20.9,0-3.165,1.583-4.586,3.709-4.276,5.781C117.559,401.49,118.974,399.824,121.578,398.522Z" transform="translate(-60.927 -169.695)" fill="#e68f17"/>
      <path id="Trazado_229016" data-name="Trazado 229016" d="M121.606,408.6c5.763,2.884,15.115,2.884,20.9,0,2.6-1.3,4.019-2.986,4.27-4.664-.251-1.7-1.672-3.368-4.27-4.67-5.769-2.884-15.121-2.884-20.9,0-2.6,1.3-4.019,2.986-4.276,4.67C117.587,405.637,119,407.3,121.606,408.6Z" transform="translate(-60.955 -170.445)" fill="#f2a233"/>
      <path id="Trazado_229017" data-name="Trazado 229017" d="M146.152,397.46a10.928,10.928,0,0,0-3.631-2.741c-6.456-3.225-16.924-3.225-23.38,0a10.957,10.957,0,0,0-3.637,2.741H114.31v3.105h0c0,2.114,1.618,4.228,4.843,5.847,6.456,3.225,16.924,3.225,23.38,0,3.225-1.618,4.837-3.732,4.837-5.847V397.46Z" transform="translate(-59.738 -168.508)" fill="#f2a233"/>
      <g id="Grupo_124106" data-name="Grupo 124106" transform="translate(54.572 223.792)" clip-path="url(#clip-path-3)">
        <rect id="Rectángulo_37211" data-name="Rectángulo 37211" width="0.609" height="27.023" transform="translate(1.463 -9.418)" fill="#e68f17"/>
        <rect id="Rectángulo_37212" data-name="Rectángulo 37212" width="0.609" height="27.023" transform="translate(3.512 -7.793)" fill="#e68f17"/>
        <rect id="Rectángulo_37213" data-name="Rectángulo 37213" width="0.603" height="27.023" transform="translate(5.56 -6.169)" fill="#e68f17"/>
        <rect id="Rectángulo_37214" data-name="Rectángulo 37214" width="0.609" height="27.023" transform="translate(7.608 -4.545)" fill="#e68f17"/>
        <rect id="Rectángulo_37215" data-name="Rectángulo 37215" width="0.603" height="27.023" transform="translate(9.979 -5.458)" fill="#e68f17"/>
        <rect id="Rectángulo_37216" data-name="Rectángulo 37216" width="0.609" height="27.023" transform="translate(12.344 -6.366)" fill="#e68f17"/>
        <rect id="Rectángulo_37217" data-name="Rectángulo 37217" width="0.603" height="27.023" transform="translate(14.709 -7.274)" fill="#e68f17"/>
        <rect id="Rectángulo_37218" data-name="Rectángulo 37218" width="0.609" height="27.023" transform="translate(17.074 -8.188)" fill="#e68f17"/>
        <rect id="Rectángulo_37219" data-name="Rectángulo 37219" width="0.609" height="27.023" transform="translate(19.271 -7.274)" fill="#e68f17"/>
        <rect id="Rectángulo_37220" data-name="Rectángulo 37220" width="0.603" height="27.023" transform="translate(21.469 -6.366)" fill="#e68f17"/>
        <rect id="Rectángulo_37221" data-name="Rectángulo 37221" width="0.603" height="27.023" transform="translate(23.661 -5.458)" fill="#e68f17"/>
        <rect id="Rectángulo_37222" data-name="Rectángulo 37222" width="0.609" height="27.023" transform="translate(25.859 -4.545)" fill="#e68f17"/>
        <rect id="Rectángulo_37223" data-name="Rectángulo 37223" width="0.609" height="27.023" transform="translate(28.05 -3.637)" fill="#e68f17"/>
        <rect id="Rectángulo_37224" data-name="Rectángulo 37224" width="0.609" height="27.023" transform="translate(30.248 -2.729)" fill="#e68f17"/>
      </g>
      <ellipse id="Elipse_5314" data-name="Elipse 5314" cx="16.53" cy="8.265" rx="16.53" ry="8.265" transform="translate(54.56 220.686)" fill="#fcc881"/>
      <path id="Trazado_229019" data-name="Trazado 229019" d="M121.578,391.852c5.763-2.884,15.115-2.884,20.9,0,2.6,1.3,4.019,2.986,4.27,4.664.311-2.066-1.1-4.18-4.27-5.775-5.769-2.884-15.121-2.884-20.9,0-3.165,1.583-4.586,3.709-4.276,5.775C117.559,394.8,118.974,393.153,121.578,391.852Z" transform="translate(-60.927 -167.009)" fill="#e68f17"/>
      <path id="Trazado_229020" data-name="Trazado 229020" d="M121.606,401.929c5.763,2.884,15.115,2.884,20.9,0,2.6-1.3,4.019-2.986,4.27-4.664-.251-1.7-1.672-3.362-4.27-4.664-5.769-2.884-15.121-2.884-20.9,0-2.6,1.3-4.019,2.986-4.276,4.664C117.587,398.967,119,400.633,121.606,401.929Z" transform="translate(-60.955 -167.758)" fill="#f2a233"/>
      <path id="Trazado_229021" data-name="Trazado 229021" d="M128.136,398.64a6.431,6.431,0,0,0,2.472,2.054,4.048,4.048,0,0,0,3.506.334c.854-.43.663-.956-.346-2.025-1.421-1.475-1.636-2.789.269-3.738,2.239-1.123,5.823-1.045,8.922.5a7.478,7.478,0,0,1,2.687,2.007l-3.058.866a5.411,5.411,0,0,0-2.126-1.684,3.788,3.788,0,0,0-3.171-.323c-.836.424-.466.979.6,2.144,1.457,1.589,1.344,2.735-.508,3.661-2.2,1.1-5.763,1.194-9.364-.6a7.65,7.65,0,0,1-2.926-2.257Z" transform="translate(-64.081 -169.396)" fill="#db8816"/>
      <path id="Trazado_229022" data-name="Trazado 229022" d="M129.459,403.293l-1.989-.991,16.483-8.241,1.989.991Z" transform="translate(-65.039 -169.217)" fill="#db8816"/>
      <path id="Trazado_229023" data-name="Trazado 229023" d="M157.248,394.75v.579l-1.021.514-.687-.239Z" transform="translate(-76.346 -169.495)" fill="#f09518"/>
      <path id="Trazado_229024" data-name="Trazado 229024" d="M125.07,402.589v-.579l1.254.293-.627.621Z" transform="translate(-64.073 -172.419)" fill="#db8816"/>
      <path id="Trazado_229025" data-name="Trazado 229025" d="M127.47,407.465v-.585l1.989,1v.579Z" transform="translate(-65.039 -174.381)" fill="#eb9217"/>
      <path id="Trazado_229026" data-name="Trazado 229026" d="M157.448,399.589v-.579l-3.058.866v.579Z" transform="translate(-75.883 -171.211)" fill="#eb9217"/>
      <path id="Trazado_229027" data-name="Trazado 229027" d="M128.136,397.669a6.432,6.432,0,0,0,2.472,2.054,4.044,4.044,0,0,0,3.506.328c.854-.43.663-.956-.346-2.025-1.421-1.469-1.636-2.783.269-3.738,2.239-1.117,5.823-1.039,8.922.508a7.411,7.411,0,0,1,2.687,2.007l-3.058.866a5.375,5.375,0,0,0-2.126-1.684,3.768,3.768,0,0,0-3.171-.322c-.836.418-.466.973.6,2.144,1.457,1.583,1.344,2.735-.508,3.661-2.2,1.1-5.763,1.194-9.364-.6a7.71,7.71,0,0,1-2.926-2.257Z" transform="translate(-64.081 -169.005)" fill="#fcc881"/>
      <path id="Trazado_229028" data-name="Trazado 229028" d="M129.459,402.319l-1.989-1,16.483-8.241,1.989,1Z" transform="translate(-65.039 -168.822)" fill="#fcc881"/>
      <ellipse id="Elipse_5315" data-name="Elipse 5315" cx="9.071" cy="18.328" rx="9.071" ry="18.328" transform="translate(134.562 225.959) rotate(-84.82)" opacity="0.13"/>
      <path id="Trazado_229029" data-name="Trazado 229029" d="M281.232,371.01a10.893,10.893,0,0,0-3.637-2.741c-6.456-3.225-16.919-3.225-23.374,0a10.893,10.893,0,0,0-3.637,2.741H249.39v3.105h0c0,2.114,1.612,4.228,4.843,5.841,6.456,3.231,16.918,3.231,23.374,0,3.225-1.612,4.843-3.726,4.843-5.841V371.01Z" transform="translate(-114.149 -157.854)" fill="#f2a233"/>
      <g id="Grupo_124107" data-name="Grupo 124107" transform="translate(135.241 207.996)" clip-path="url(#clip-path-4)">
        <rect id="Rectángulo_37225" data-name="Rectángulo 37225" width="0.603" height="27.023" transform="translate(1.457 -9.424)" fill="#e68f17"/>
        <rect id="Rectángulo_37226" data-name="Rectángulo 37226" width="0.609" height="27.023" transform="translate(3.506 -7.799)" fill="#e68f17"/>
        <rect id="Rectángulo_37227" data-name="Rectángulo 37227" width="0.609" height="27.023" transform="translate(5.554 -6.175)" fill="#e68f17"/>
        <rect id="Rectángulo_37228" data-name="Rectángulo 37228" width="0.603" height="27.023" transform="translate(7.608 -4.551)" fill="#e68f17"/>
        <rect id="Rectángulo_37229" data-name="Rectángulo 37229" width="0.609" height="27.023" transform="translate(9.973 -5.458)" fill="#e68f17"/>
        <rect id="Rectángulo_37230" data-name="Rectángulo 37230" width="0.603" height="27.023" transform="translate(12.338 -6.366)" fill="#e68f17"/>
        <rect id="Rectángulo_37231" data-name="Rectángulo 37231" width="0.609" height="27.023" transform="translate(14.703 -7.274)" fill="#e68f17"/>
        <rect id="Rectángulo_37232" data-name="Rectángulo 37232" width="0.603" height="27.023" transform="translate(17.074 -8.188)" fill="#e68f17"/>
        <rect id="Rectángulo_37233" data-name="Rectángulo 37233" width="0.603" height="27.023" transform="translate(19.265 -7.274)" fill="#e68f17"/>
        <rect id="Rectángulo_37234" data-name="Rectángulo 37234" width="0.603" height="27.023" transform="translate(21.463 -6.366)" fill="#e68f17"/>
        <rect id="Rectángulo_37235" data-name="Rectángulo 37235" width="0.609" height="27.023" transform="translate(23.661 -5.458)" fill="#e68f17"/>
        <rect id="Rectángulo_37236" data-name="Rectángulo 37236" width="0.609" height="27.023" transform="translate(25.853 -4.551)" fill="#e68f17"/>
        <rect id="Rectángulo_37237" data-name="Rectángulo 37237" width="0.603" height="27.023" transform="translate(28.05 -3.637)" fill="#e68f17"/>
        <rect id="Rectángulo_37238" data-name="Rectángulo 37238" width="0.603" height="27.023" transform="translate(30.248 -2.729)" fill="#e68f17"/>
      </g>
      <ellipse id="Elipse_5316" data-name="Elipse 5316" cx="16.53" cy="8.265" rx="16.53" ry="8.265" transform="translate(135.229 204.891)" fill="#fcc881"/>
      <path id="Trazado_229031" data-name="Trazado 229031" d="M256.652,365.4c5.769-2.884,15.121-2.884,20.9,0,2.6,1.3,4.019,2.986,4.276,4.664.311-2.072-1.1-4.18-4.276-5.775-5.763-2.884-15.115-2.884-20.9,0-3.165,1.583-4.58,3.7-4.27,5.775C252.639,368.364,254.054,366.7,256.652,365.4Z" transform="translate(-115.338 -156.355)" fill="#e68f17"/>
      <path id="Trazado_229032" data-name="Trazado 229032" d="M256.68,375.479c5.769,2.884,15.121,2.884,20.9,0,2.6-1.3,4.019-2.986,4.276-4.664-.257-1.7-1.672-3.362-4.276-4.664-5.763-2.884-15.115-2.884-20.9,0-2.6,1.3-4.013,2.986-4.27,4.664C252.667,372.517,254.082,374.183,256.68,375.479Z" transform="translate(-115.366 -157.104)" fill="#f2a233"/>
      <path id="Trazado_229033" data-name="Trazado 229033" d="M281.232,364.337A10.815,10.815,0,0,0,277.6,361.6c-6.456-3.231-16.919-3.231-23.374,0a10.815,10.815,0,0,0-3.637,2.741H249.39v3.093h0c0,2.114,1.612,4.228,4.843,5.841,6.456,3.231,16.918,3.231,23.374,0,3.225-1.612,4.843-3.727,4.843-5.841v-3.105Z" transform="translate(-114.149 -155.164)" fill="#f2a233"/>
      <g id="Grupo_124108" data-name="Grupo 124108" transform="translate(135.241 204.008)" clip-path="url(#clip-path-5)">
        <rect id="Rectángulo_37239" data-name="Rectángulo 37239" width="0.603" height="27.023" transform="translate(1.457 -9.419)" fill="#e68f17"/>
        <rect id="Rectángulo_37240" data-name="Rectángulo 37240" width="0.609" height="27.023" transform="translate(3.506 -7.795)" fill="#e68f17"/>
        <rect id="Rectángulo_37241" data-name="Rectángulo 37241" width="0.609" height="27.023" transform="translate(5.554 -6.171)" fill="#e68f17"/>
        <rect id="Rectángulo_37242" data-name="Rectángulo 37242" width="0.603" height="27.023" transform="translate(7.608 -4.546)" fill="#e68f17"/>
        <rect id="Rectángulo_37243" data-name="Rectángulo 37243" width="0.609" height="27.023" transform="translate(9.973 -5.454)" fill="#e68f17"/>
        <rect id="Rectángulo_37244" data-name="Rectángulo 37244" width="0.603" height="27.023" transform="translate(12.338 -6.362)" fill="#e68f17"/>
        <rect id="Rectángulo_37245" data-name="Rectángulo 37245" width="0.609" height="27.023" transform="translate(14.703 -7.275)" fill="#e68f17"/>
        <rect id="Rectángulo_37246" data-name="Rectángulo 37246" width="0.603" height="27.023" transform="translate(17.074 -8.183)" fill="#e68f17"/>
        <rect id="Rectángulo_37247" data-name="Rectángulo 37247" width="0.603" height="27.023" transform="translate(19.265 -7.275)" fill="#e68f17"/>
        <rect id="Rectángulo_37248" data-name="Rectángulo 37248" width="0.603" height="27.023" transform="translate(21.463 -6.362)" fill="#e68f17"/>
        <rect id="Rectángulo_37249" data-name="Rectángulo 37249" width="0.609" height="27.023" transform="translate(23.661 -5.454)" fill="#e68f17"/>
        <rect id="Rectángulo_37250" data-name="Rectángulo 37250" width="0.609" height="27.023" transform="translate(25.853 -4.546)" fill="#e68f17"/>
        <rect id="Rectángulo_37251" data-name="Rectángulo 37251" width="0.603" height="27.023" transform="translate(28.05 -3.638)" fill="#e68f17"/>
        <rect id="Rectángulo_37252" data-name="Rectángulo 37252" width="0.603" height="27.023" transform="translate(30.248 -2.725)" fill="#e68f17"/>
      </g>
      <ellipse id="Elipse_5317" data-name="Elipse 5317" cx="16.53" cy="8.265" rx="16.53" ry="8.265" transform="translate(135.229 200.907)" fill="#fcc881"/>
      <path id="Trazado_229035" data-name="Trazado 229035" d="M256.652,358.731c5.769-2.884,15.121-2.884,20.9,0,2.6,1.3,4.019,2.986,4.276,4.664.311-2.072-1.1-4.18-4.276-5.781-5.763-2.878-15.115-2.878-20.9,0-3.165,1.589-4.58,3.709-4.27,5.781C252.639,361.693,254.054,360.027,256.652,358.731Z" transform="translate(-115.338 -153.667)" fill="#e68f17"/>
      <path id="Trazado_229036" data-name="Trazado 229036" d="M256.68,368.809c5.769,2.884,15.121,2.884,20.9,0,2.6-1.3,4.019-2.986,4.276-4.664-.257-1.7-1.672-3.368-4.276-4.664-5.763-2.884-15.115-2.884-20.9,0-2.6,1.3-4.013,2.986-4.27,4.664C252.667,365.841,254.082,367.507,256.68,368.809Z" transform="translate(-115.366 -154.417)" fill="#f2a233"/>
      <path id="Trazado_229037" data-name="Trazado 229037" d="M281.232,357.661a10.81,10.81,0,0,0-3.637-2.735c-6.456-3.231-16.919-3.231-23.374,0a10.81,10.81,0,0,0-3.637,2.735H249.39v3.105h0c0,2.114,1.612,4.234,4.843,5.847,6.456,3.225,16.918,3.225,23.374,0,3.225-1.612,4.843-3.732,4.843-5.847v-3.105Z" transform="translate(-114.149 -152.478)" fill="#f2a233"/>
      <g id="Grupo_124109" data-name="Grupo 124109" transform="translate(135.241 200.025)" clip-path="url(#clip-path-6)">
        <rect id="Rectángulo_37253" data-name="Rectángulo 37253" width="0.603" height="27.023" transform="translate(1.457 -9.419)" fill="#e68f17"/>
        <rect id="Rectángulo_37254" data-name="Rectángulo 37254" width="0.609" height="27.023" transform="translate(3.506 -7.795)" fill="#e68f17"/>
        <rect id="Rectángulo_37255" data-name="Rectángulo 37255" width="0.609" height="27.023" transform="translate(5.554 -6.171)" fill="#e68f17"/>
        <rect id="Rectángulo_37256" data-name="Rectángulo 37256" width="0.603" height="27.023" transform="translate(7.608 -4.546)" fill="#e68f17"/>
        <rect id="Rectángulo_37257" data-name="Rectángulo 37257" width="0.609" height="27.023" transform="translate(9.973 -5.46)" fill="#e68f17"/>
        <rect id="Rectángulo_37258" data-name="Rectángulo 37258" width="0.603" height="27.023" transform="translate(12.338 -6.368)" fill="#e68f17"/>
        <rect id="Rectángulo_37259" data-name="Rectángulo 37259" width="0.609" height="27.023" transform="translate(14.703 -7.275)" fill="#e68f17"/>
        <rect id="Rectángulo_37260" data-name="Rectángulo 37260" width="0.603" height="27.023" transform="translate(17.074 -8.183)" fill="#e68f17"/>
        <rect id="Rectángulo_37261" data-name="Rectángulo 37261" width="0.603" height="27.023" transform="translate(19.265 -7.275)" fill="#e68f17"/>
        <rect id="Rectángulo_37262" data-name="Rectángulo 37262" width="0.603" height="27.023" transform="translate(21.463 -6.368)" fill="#e68f17"/>
        <rect id="Rectángulo_37263" data-name="Rectángulo 37263" width="0.609" height="27.023" transform="translate(23.661 -5.46)" fill="#e68f17"/>
        <rect id="Rectángulo_37264" data-name="Rectángulo 37264" width="0.609" height="27.023" transform="translate(25.853 -4.546)" fill="#e68f17"/>
        <rect id="Rectángulo_37265" data-name="Rectángulo 37265" width="0.603" height="27.023" transform="translate(28.05 -3.638)" fill="#e68f17"/>
        <rect id="Rectángulo_37266" data-name="Rectángulo 37266" width="0.603" height="27.023" transform="translate(30.248 -2.731)" fill="#e68f17"/>
      </g>
      <ellipse id="Elipse_5318" data-name="Elipse 5318" cx="16.53" cy="8.265" rx="16.53" ry="8.265" transform="translate(135.229 196.918)" fill="#fcc881"/>
      <path id="Trazado_229039" data-name="Trazado 229039" d="M256.652,352.052c5.769-2.884,15.121-2.884,20.9,0,2.6,1.3,4.019,2.986,4.276,4.664.311-2.066-1.1-4.18-4.276-5.775-5.763-2.884-15.115-2.884-20.9,0-3.165,1.583-4.58,3.709-4.27,5.775C252.639,355.02,254.054,353.353,256.652,352.052Z" transform="translate(-115.338 -150.977)" fill="#e68f17"/>
      <path id="Trazado_229040" data-name="Trazado 229040" d="M256.68,362.135c5.769,2.884,15.121,2.884,20.9,0,2.6-1.3,4.019-2.986,4.276-4.67-.257-1.7-1.672-3.362-4.276-4.664-5.763-2.884-15.115-2.884-20.9,0-2.6,1.3-4.013,2.986-4.27,4.664C252.667,359.167,254.082,360.833,256.68,362.135Z" transform="translate(-115.366 -151.726)" fill="#f2ac4b"/>
      <path id="Trazado_229041" data-name="Trazado 229041" d="M263.216,358.739a6.342,6.342,0,0,0,2.472,2.054,4.042,4.042,0,0,0,3.506.328c.86-.43.663-.95-.352-2.025-1.421-1.469-1.636-2.783.275-3.738,2.239-1.117,5.823-1.039,8.916.508a7.411,7.411,0,0,1,2.687,2.007l-3.058.866a5.375,5.375,0,0,0-2.12-1.684,3.78,3.78,0,0,0-3.177-.322c-.836.418-.466.973.6,2.144,1.463,1.589,1.344,2.735-.508,3.661-2.2,1.1-5.763,1.194-9.364-.6a7.619,7.619,0,0,1-2.92-2.257Z" transform="translate(-118.492 -153.323)" fill="#db8816"/>
      <path id="Trazado_229042" data-name="Trazado 229042" d="M264.529,363.393l-1.989-.991,16.483-8.241,1.995.991Z" transform="translate(-119.446 -153.145)" fill="#db8816"/>
      <path id="Trazado_229043" data-name="Trazado 229043" d="M292.324,354.85v.579l-1.027.514-.687-.239Z" transform="translate(-130.753 -153.423)" fill="#f09518"/>
      <path id="Trazado_229044" data-name="Trazado 229044" d="M260.15,362.689v-.579l1.248.287-.621.627Z" transform="translate(-118.484 -156.348)" fill="#db8816"/>
      <path id="Trazado_229045" data-name="Trazado 229045" d="M262.54,367.565v-.585l1.989,1v.579Z" transform="translate(-119.446 -158.309)" fill="#eb9217"/>
      <path id="Trazado_229046" data-name="Trazado 229046" d="M292.518,359.685V359.1l-3.058.872v.579Z" transform="translate(-130.29 -155.135)" fill="#eb9217"/>
      <path id="Trazado_229047" data-name="Trazado 229047" d="M263.216,357.766a6.342,6.342,0,0,0,2.472,2.054,4.042,4.042,0,0,0,3.506.328c.86-.43.663-.956-.352-2.025-1.421-1.469-1.636-2.783.275-3.738,2.239-1.123,5.823-1.045,8.916.508a7.411,7.411,0,0,1,2.687,2l-3.058.872a5.267,5.267,0,0,0-2.12-1.684,3.78,3.78,0,0,0-3.177-.322c-.836.418-.466.973.6,2.138,1.463,1.589,1.344,2.741-.508,3.661-2.2,1.1-5.763,1.194-9.364-.6a7.62,7.62,0,0,1-2.92-2.263Z" transform="translate(-118.492 -152.93)" fill="#fcc881"/>
      <path id="Trazado_229048" data-name="Trazado 229048" d="M264.529,362.419l-1.989-1,16.483-8.241,1.995,1Z" transform="translate(-119.446 -152.75)" fill="#fcc881"/>
      <ellipse id="Elipse_5319" data-name="Elipse 5319" cx="9.071" cy="18.328" rx="9.071" ry="18.328" transform="translate(167.067 191.582) rotate(-84.82)" opacity="0.13"/>
      <path id="Trazado_229049" data-name="Trazado 229049" d="M335.662,313.46a10.816,10.816,0,0,0-3.637-2.741c-6.45-3.225-16.918-3.225-23.374,0a10.815,10.815,0,0,0-3.637,2.741H303.82v3.105h0c0,2.114,1.618,4.228,4.843,5.841,6.456,3.231,16.924,3.231,23.374,0,3.231-1.612,4.843-3.726,4.843-5.841V313.46Z" transform="translate(-136.074 -134.673)" fill="#f2a233"/>
      <g id="Grupo_124110" data-name="Grupo 124110" transform="translate(167.746 173.627)" clip-path="url(#clip-path-7)">
        <rect id="Rectángulo_37267" data-name="Rectángulo 37267" width="0.603" height="27.023" transform="translate(1.463 -9.424)" fill="#e68f17"/>
        <rect id="Rectángulo_37268" data-name="Rectángulo 37268" width="0.609" height="27.023" transform="translate(3.511 -7.799)" fill="#e68f17"/>
        <rect id="Rectángulo_37269" data-name="Rectángulo 37269" width="0.609" height="27.023" transform="translate(5.56 -6.175)" fill="#e68f17"/>
        <rect id="Rectángulo_37270" data-name="Rectángulo 37270" width="0.603" height="27.023" transform="translate(7.608 -4.551)" fill="#e68f17"/>
        <rect id="Rectángulo_37271" data-name="Rectángulo 37271" width="0.609" height="27.023" transform="translate(9.973 -5.458)" fill="#e68f17"/>
        <rect id="Rectángulo_37272" data-name="Rectángulo 37272" width="0.609" height="27.023" transform="translate(12.344 -6.366)" fill="#e68f17"/>
        <rect id="Rectángulo_37273" data-name="Rectángulo 37273" width="0.603" height="27.023" transform="translate(14.709 -7.28)" fill="#e68f17"/>
        <rect id="Rectángulo_37274" data-name="Rectángulo 37274" width="0.609" height="27.023" transform="translate(17.074 -8.188)" fill="#e68f17"/>
        <rect id="Rectángulo_37275" data-name="Rectángulo 37275" width="0.603" height="27.023" transform="translate(19.271 -7.28)" fill="#e68f17"/>
        <rect id="Rectángulo_37276" data-name="Rectángulo 37276" width="0.603" height="27.023" transform="translate(21.469 -6.366)" fill="#e68f17"/>
        <rect id="Rectángulo_37277" data-name="Rectángulo 37277" width="0.603" height="27.023" transform="translate(23.661 -5.458)" fill="#e68f17"/>
        <rect id="Rectángulo_37278" data-name="Rectángulo 37278" width="0.609" height="27.023" transform="translate(25.858 -4.551)" fill="#e68f17"/>
        <rect id="Rectángulo_37279" data-name="Rectángulo 37279" width="0.609" height="27.023" transform="translate(28.05 -3.643)" fill="#e68f17"/>
        <rect id="Rectángulo_37280" data-name="Rectángulo 37280" width="0.603" height="27.023" transform="translate(30.248 -2.729)" fill="#e68f17"/>
      </g>
      <ellipse id="Elipse_5320" data-name="Elipse 5320" cx="16.53" cy="8.265" rx="16.53" ry="8.265" transform="translate(167.734 170.522)" fill="#fcc881"/>
      <path id="Trazado_229051" data-name="Trazado 229051" d="M311.088,307.851c5.763-2.884,15.115-2.884,20.9,0,2.6,1.3,4.019,2.986,4.27,4.664.311-2.072-1.1-4.18-4.27-5.781-5.769-2.878-15.121-2.878-20.9,0-3.171,1.589-4.586,3.709-4.276,5.781C307.069,310.8,308.484,309.147,311.088,307.851Z" transform="translate(-137.262 -133.172)" fill="#e68f17"/>
      <path id="Trazado_229052" data-name="Trazado 229052" d="M311.116,317.929c5.763,2.884,15.115,2.884,20.9,0,2.6-1.3,4.019-2.986,4.27-4.664-.251-1.7-1.672-3.368-4.27-4.664-5.769-2.884-15.121-2.884-20.9,0-2.6,1.3-4.019,2.986-4.276,4.664C307.1,314.967,308.512,316.627,311.116,317.929Z" transform="translate(-137.291 -133.922)" fill="#f2a233"/>
      <path id="Trazado_229053" data-name="Trazado 229053" d="M335.662,306.781a10.887,10.887,0,0,0-3.637-2.735c-6.45-3.231-16.918-3.231-23.374,0a10.887,10.887,0,0,0-3.637,2.735H303.82v3.105h0c0,2.114,1.618,4.234,4.843,5.847,6.456,3.225,16.924,3.225,23.374,0,3.231-1.612,4.843-3.732,4.843-5.847v-3.105Z" transform="translate(-136.074 -131.983)" fill="#f2a233"/>
      <g id="Grupo_124111" data-name="Grupo 124111" transform="translate(167.746 169.64)" clip-path="url(#clip-path-8)">
        <rect id="Rectángulo_37281" data-name="Rectángulo 37281" width="0.603" height="27.023" transform="translate(1.463 -9.419)" fill="#e68f17"/>
        <rect id="Rectángulo_37282" data-name="Rectángulo 37282" width="0.609" height="27.023" transform="translate(3.511 -7.795)" fill="#e68f17"/>
        <rect id="Rectángulo_37283" data-name="Rectángulo 37283" width="0.609" height="27.023" transform="translate(5.56 -6.171)" fill="#e68f17"/>
        <rect id="Rectángulo_37284" data-name="Rectángulo 37284" width="0.603" height="27.023" transform="translate(7.608 -4.546)" fill="#e68f17"/>
        <rect id="Rectángulo_37285" data-name="Rectángulo 37285" width="0.609" height="27.023" transform="translate(9.973 -5.454)" fill="#e68f17"/>
        <rect id="Rectángulo_37286" data-name="Rectángulo 37286" width="0.609" height="27.023" transform="translate(12.344 -6.368)" fill="#e68f17"/>
        <rect id="Rectángulo_37287" data-name="Rectángulo 37287" width="0.603" height="27.023" transform="translate(14.709 -7.275)" fill="#e68f17"/>
        <rect id="Rectángulo_37288" data-name="Rectángulo 37288" width="0.609" height="27.023" transform="translate(17.074 -8.183)" fill="#e68f17"/>
        <rect id="Rectángulo_37289" data-name="Rectángulo 37289" width="0.603" height="27.023" transform="translate(19.271 -7.275)" fill="#e68f17"/>
        <rect id="Rectángulo_37290" data-name="Rectángulo 37290" width="0.603" height="27.023" transform="translate(21.469 -6.368)" fill="#e68f17"/>
        <rect id="Rectángulo_37291" data-name="Rectángulo 37291" width="0.603" height="27.023" transform="translate(23.661 -5.454)" fill="#e68f17"/>
        <rect id="Rectángulo_37292" data-name="Rectángulo 37292" width="0.609" height="27.023" transform="translate(25.858 -4.546)" fill="#e68f17"/>
        <rect id="Rectángulo_37293" data-name="Rectángulo 37293" width="0.609" height="27.023" transform="translate(28.05 -3.638)" fill="#e68f17"/>
        <rect id="Rectángulo_37294" data-name="Rectángulo 37294" width="0.603" height="27.023" transform="translate(30.248 -2.731)" fill="#e68f17"/>
      </g>
      <ellipse id="Elipse_5321" data-name="Elipse 5321" cx="16.53" cy="8.265" rx="16.53" ry="8.265" transform="translate(167.734 166.539)" fill="#fcc881"/>
      <path id="Trazado_229055" data-name="Trazado 229055" d="M311.088,301.172c5.763-2.884,15.115-2.884,20.9,0,2.6,1.3,4.019,2.986,4.27,4.67.311-2.072-1.1-4.18-4.27-5.781-5.769-2.884-15.121-2.884-20.9,0-3.171,1.583-4.586,3.709-4.276,5.781C307.069,304.14,308.484,302.474,311.088,301.172Z" transform="translate(-137.262 -130.482)" fill="#e68f17"/>
      <path id="Trazado_229056" data-name="Trazado 229056" d="M311.116,311.245c5.763,2.884,15.115,2.884,20.9,0,2.6-1.3,4.019-2.986,4.27-4.664-.251-1.7-1.672-3.368-4.27-4.67-5.769-2.884-15.121-2.884-20.9,0-2.6,1.3-4.019,2.986-4.276,4.67C307.1,308.259,308.512,309.949,311.116,311.245Z" transform="translate(-137.291 -131.228)" fill="#f2a233"/>
      <path id="Trazado_229057" data-name="Trazado 229057" d="M335.662,300.11a10.893,10.893,0,0,0-3.637-2.741c-6.45-3.225-16.918-3.225-23.374,0a10.893,10.893,0,0,0-3.637,2.741H303.82v3.105h0c0,2.114,1.618,4.228,4.843,5.847,6.456,3.225,16.924,3.225,23.374,0,3.231-1.618,4.843-3.732,4.843-5.847V300.11Z" transform="translate(-136.074 -129.295)" fill="#f2a233"/>
      <g id="Grupo_124112" data-name="Grupo 124112" transform="translate(167.746 165.655)" clip-path="url(#clip-path-9)">
        <rect id="Rectángulo_37295" data-name="Rectángulo 37295" width="0.603" height="27.023" transform="translate(1.463 -9.418)" fill="#e68f17"/>
        <rect id="Rectángulo_37296" data-name="Rectángulo 37296" width="0.609" height="27.023" transform="translate(3.511 -7.793)" fill="#e68f17"/>
        <rect id="Rectángulo_37297" data-name="Rectángulo 37297" width="0.609" height="27.023" transform="translate(5.56 -6.169)" fill="#e68f17"/>
        <rect id="Rectángulo_37298" data-name="Rectángulo 37298" width="0.603" height="27.023" transform="translate(7.608 -4.545)" fill="#e68f17"/>
        <rect id="Rectángulo_37299" data-name="Rectángulo 37299" width="0.609" height="27.023" transform="translate(9.973 -5.458)" fill="#e68f17"/>
        <rect id="Rectángulo_37300" data-name="Rectángulo 37300" width="0.609" height="27.023" transform="translate(12.344 -6.366)" fill="#e68f17"/>
        <rect id="Rectángulo_37301" data-name="Rectángulo 37301" width="0.603" height="27.023" transform="translate(14.709 -7.274)" fill="#e68f17"/>
        <rect id="Rectángulo_37302" data-name="Rectángulo 37302" width="0.609" height="27.023" transform="translate(17.074 -8.188)" fill="#e68f17"/>
        <rect id="Rectángulo_37303" data-name="Rectángulo 37303" width="0.603" height="27.023" transform="translate(19.271 -7.274)" fill="#e68f17"/>
        <rect id="Rectángulo_37304" data-name="Rectángulo 37304" width="0.603" height="27.023" transform="translate(21.469 -6.366)" fill="#e68f17"/>
        <rect id="Rectángulo_37305" data-name="Rectángulo 37305" width="0.603" height="27.023" transform="translate(23.661 -5.458)" fill="#e68f17"/>
        <rect id="Rectángulo_37306" data-name="Rectángulo 37306" width="0.609" height="27.023" transform="translate(25.858 -4.545)" fill="#e68f17"/>
        <rect id="Rectángulo_37307" data-name="Rectángulo 37307" width="0.609" height="27.023" transform="translate(28.05 -3.637)" fill="#e68f17"/>
        <rect id="Rectángulo_37308" data-name="Rectángulo 37308" width="0.603" height="27.023" transform="translate(30.248 -2.729)" fill="#e68f17"/>
      </g>
      <ellipse id="Elipse_5322" data-name="Elipse 5322" cx="16.53" cy="8.265" rx="16.53" ry="8.265" transform="translate(167.734 162.55)" fill="#fcc881"/>
      <path id="Trazado_229059" data-name="Trazado 229059" d="M311.088,294.5c5.763-2.884,15.115-2.884,20.9,0,2.6,1.3,4.019,2.986,4.27,4.664.311-2.066-1.1-4.18-4.27-5.775-5.769-2.884-15.121-2.884-20.9,0-3.171,1.583-4.586,3.709-4.276,5.775C307.069,297.47,308.484,295.8,311.088,294.5Z" transform="translate(-137.262 -127.796)" fill="#e68f17"/>
      <path id="Trazado_229060" data-name="Trazado 229060" d="M311.116,304.585c5.763,2.879,15.115,2.879,20.9,0,2.6-1.3,4.019-2.986,4.27-4.67-.251-1.7-1.672-3.362-4.27-4.664-5.769-2.884-15.121-2.884-20.9,0-2.6,1.3-4.019,2.986-4.276,4.664C307.1,301.617,308.512,303.283,311.116,304.585Z" transform="translate(-137.291 -128.545)" fill="#f2ac4b"/>
      <path id="Trazado_229061" data-name="Trazado 229061" d="M335.662,293.33a10.816,10.816,0,0,0-3.637-2.741c-6.45-3.225-16.918-3.225-23.374,0a10.816,10.816,0,0,0-3.637,2.741H303.82v3.1h0c0,2.114,1.618,4.228,4.843,5.841,6.456,3.231,16.924,3.231,23.374,0,3.231-1.612,4.843-3.726,4.843-5.841v-3.105Z" transform="translate(-136.074 -126.564)" fill="#f2a233"/>
      <g id="Grupo_124113" data-name="Grupo 124113" transform="translate(167.746 161.606)" clip-path="url(#clip-path-10)">
        <rect id="Rectángulo_37309" data-name="Rectángulo 37309" width="0.603" height="27.023" transform="translate(1.463 -9.424)" fill="#e68f17"/>
        <rect id="Rectángulo_37310" data-name="Rectángulo 37310" width="0.609" height="27.023" transform="translate(3.511 -7.799)" fill="#e68f17"/>
        <rect id="Rectángulo_37311" data-name="Rectángulo 37311" width="0.609" height="27.023" transform="translate(5.56 -6.175)" fill="#e68f17"/>
        <rect id="Rectángulo_37312" data-name="Rectángulo 37312" width="0.603" height="27.023" transform="translate(7.608 -4.551)" fill="#e68f17"/>
        <rect id="Rectángulo_37313" data-name="Rectángulo 37313" width="0.609" height="27.023" transform="translate(9.973 -5.458)" fill="#e68f17"/>
        <rect id="Rectángulo_37314" data-name="Rectángulo 37314" width="0.609" height="27.023" transform="translate(12.344 -6.366)" fill="#e68f17"/>
        <rect id="Rectángulo_37315" data-name="Rectángulo 37315" width="0.603" height="27.023" transform="translate(14.709 -7.28)" fill="#e68f17"/>
        <rect id="Rectángulo_37316" data-name="Rectángulo 37316" width="0.609" height="27.023" transform="translate(17.074 -8.188)" fill="#e68f17"/>
        <rect id="Rectángulo_37317" data-name="Rectángulo 37317" width="0.603" height="27.023" transform="translate(19.271 -7.28)" fill="#e68f17"/>
        <rect id="Rectángulo_37318" data-name="Rectángulo 37318" width="0.603" height="27.023" transform="translate(21.469 -6.366)" fill="#e68f17"/>
        <rect id="Rectángulo_37319" data-name="Rectángulo 37319" width="0.603" height="27.023" transform="translate(23.661 -5.458)" fill="#e68f17"/>
        <rect id="Rectángulo_37320" data-name="Rectángulo 37320" width="0.609" height="27.023" transform="translate(25.858 -4.551)" fill="#e68f17"/>
        <rect id="Rectángulo_37321" data-name="Rectángulo 37321" width="0.609" height="27.023" transform="translate(28.05 -3.643)" fill="#e68f17"/>
        <rect id="Rectángulo_37322" data-name="Rectángulo 37322" width="0.603" height="27.023" transform="translate(30.248 -2.729)" fill="#e68f17"/>
      </g>
      <ellipse id="Elipse_5323" data-name="Elipse 5323" cx="16.53" cy="8.265" rx="16.53" ry="8.265" transform="translate(167.734 158.501)" fill="#fcc881"/>
      <path id="Trazado_229063" data-name="Trazado 229063" d="M311.088,287.722c5.763-2.884,15.115-2.884,20.9,0,2.6,1.3,4.019,2.986,4.27,4.664.311-2.072-1.1-4.18-4.27-5.775-5.769-2.884-15.121-2.884-20.9,0-3.171,1.583-4.586,3.7-4.276,5.775C307.069,290.684,308.484,289.018,311.088,287.722Z" transform="translate(-137.262 -125.065)" fill="#e68f17"/>
      <path id="Trazado_229064" data-name="Trazado 229064" d="M311.116,297.8c5.763,2.884,15.115,2.884,20.9,0,2.6-1.3,4.019-2.986,4.27-4.664-.251-1.7-1.672-3.368-4.27-4.664-5.769-2.884-15.121-2.884-20.9,0-2.6,1.3-4.019,2.986-4.276,4.664C307.1,294.837,308.512,296.5,311.116,297.8Z" transform="translate(-137.291 -125.814)" fill="#f2a233"/>
      <path id="Trazado_229065" data-name="Trazado 229065" d="M335.662,286.657a10.815,10.815,0,0,0-3.637-2.741c-6.45-3.231-16.918-3.231-23.374,0a10.815,10.815,0,0,0-3.637,2.741H303.82v3.1h0c0,2.12,1.618,4.234,4.843,5.847,6.456,3.225,16.924,3.225,23.374,0,3.231-1.612,4.843-3.727,4.843-5.847v-3.1Z" transform="translate(-136.074 -123.874)" fill="#f2a233"/>
      <g id="Grupo_124114" data-name="Grupo 124114" transform="translate(167.746 157.618)" clip-path="url(#clip-path-11)">
        <rect id="Rectángulo_37323" data-name="Rectángulo 37323" width="0.603" height="27.023" transform="translate(1.463 -9.419)" fill="#e68f17"/>
        <rect id="Rectángulo_37324" data-name="Rectángulo 37324" width="0.609" height="27.023" transform="translate(3.511 -7.795)" fill="#e68f17"/>
        <rect id="Rectángulo_37325" data-name="Rectángulo 37325" width="0.609" height="27.023" transform="translate(5.56 -6.171)" fill="#e68f17"/>
        <rect id="Rectángulo_37326" data-name="Rectángulo 37326" width="0.603" height="27.023" transform="translate(7.608 -4.546)" fill="#e68f17"/>
        <rect id="Rectángulo_37327" data-name="Rectángulo 37327" width="0.609" height="27.023" transform="translate(9.973 -5.454)" fill="#e68f17"/>
        <rect id="Rectángulo_37328" data-name="Rectángulo 37328" width="0.609" height="27.023" transform="translate(12.344 -6.368)" fill="#e68f17"/>
        <rect id="Rectángulo_37329" data-name="Rectángulo 37329" width="0.603" height="27.023" transform="translate(14.709 -7.275)" fill="#e68f17"/>
        <rect id="Rectángulo_37330" data-name="Rectángulo 37330" width="0.609" height="27.023" transform="translate(17.074 -8.183)" fill="#e68f17"/>
        <rect id="Rectángulo_37331" data-name="Rectángulo 37331" width="0.603" height="27.023" transform="translate(19.271 -7.275)" fill="#e68f17"/>
        <rect id="Rectángulo_37332" data-name="Rectángulo 37332" width="0.603" height="27.023" transform="translate(21.469 -6.368)" fill="#e68f17"/>
        <rect id="Rectángulo_37333" data-name="Rectángulo 37333" width="0.603" height="27.023" transform="translate(23.661 -5.454)" fill="#e68f17"/>
        <rect id="Rectángulo_37334" data-name="Rectángulo 37334" width="0.609" height="27.023" transform="translate(25.858 -4.546)" fill="#e68f17"/>
        <rect id="Rectángulo_37335" data-name="Rectángulo 37335" width="0.609" height="27.023" transform="translate(28.05 -3.638)" fill="#e68f17"/>
        <rect id="Rectángulo_37336" data-name="Rectángulo 37336" width="0.603" height="27.023" transform="translate(30.248 -2.731)" fill="#e68f17"/>
      </g>
      <ellipse id="Elipse_5324" data-name="Elipse 5324" cx="16.53" cy="8.265" rx="16.53" ry="8.265" transform="translate(167.734 154.517)" fill="#fcc881"/>
      <path id="Trazado_229067" data-name="Trazado 229067" d="M311.088,281.042c5.763-2.878,15.115-2.878,20.9,0,2.6,1.3,4.019,2.986,4.27,4.67.311-2.072-1.1-4.18-4.27-5.781-5.769-2.884-15.121-2.884-20.9,0-3.171,1.583-4.586,3.709-4.276,5.781C307.069,284.01,308.484,282.344,311.088,281.042Z" transform="translate(-137.262 -122.374)" fill="#e68f17"/>
      <path id="Trazado_229068" data-name="Trazado 229068" d="M311.116,291.128c5.763,2.884,15.115,2.884,20.9,0,2.6-1.3,4.019-2.986,4.27-4.664-.251-1.7-1.672-3.368-4.27-4.67-5.769-2.878-15.121-2.878-20.9,0-2.6,1.3-4.019,2.986-4.276,4.67C307.1,288.16,308.512,289.826,311.116,291.128Z" transform="translate(-137.291 -123.126)" fill="#f2a233"/>
      <path id="Trazado_229069" data-name="Trazado 229069" d="M335.662,279.981a10.81,10.81,0,0,0-3.637-2.735c-6.45-3.231-16.919-3.231-23.374,0a10.81,10.81,0,0,0-3.637,2.735H303.82v3.105h0c0,2.114,1.618,4.228,4.843,5.847,6.456,3.225,16.924,3.225,23.374,0,3.231-1.618,4.843-3.732,4.843-5.847v-3.105Z" transform="translate(-136.074 -121.188)" fill="#f2a233"/>
      <g id="Grupo_124115" data-name="Grupo 124115" transform="translate(167.746 153.635)" clip-path="url(#clip-path-12)">
        <rect id="Rectángulo_37337" data-name="Rectángulo 37337" width="0.603" height="27.023" transform="translate(1.463 -9.419)" fill="#e68f17"/>
        <rect id="Rectángulo_37338" data-name="Rectángulo 37338" width="0.609" height="27.023" transform="translate(3.511 -7.795)" fill="#e68f17"/>
        <rect id="Rectángulo_37339" data-name="Rectángulo 37339" width="0.609" height="27.023" transform="translate(5.56 -6.171)" fill="#e68f17"/>
        <rect id="Rectángulo_37340" data-name="Rectángulo 37340" width="0.603" height="27.023" transform="translate(7.608 -4.546)" fill="#e68f17"/>
        <rect id="Rectángulo_37341" data-name="Rectángulo 37341" width="0.609" height="27.023" transform="translate(9.973 -5.46)" fill="#e68f17"/>
        <rect id="Rectángulo_37342" data-name="Rectángulo 37342" width="0.609" height="27.023" transform="translate(12.344 -6.368)" fill="#e68f17"/>
        <rect id="Rectángulo_37343" data-name="Rectángulo 37343" width="0.603" height="27.023" transform="translate(14.709 -7.275)" fill="#e68f17"/>
        <rect id="Rectángulo_37344" data-name="Rectángulo 37344" width="0.609" height="27.023" transform="translate(17.074 -8.183)" fill="#e68f17"/>
        <rect id="Rectángulo_37345" data-name="Rectángulo 37345" width="0.603" height="27.023" transform="translate(19.271 -7.275)" fill="#e68f17"/>
        <rect id="Rectángulo_37346" data-name="Rectángulo 37346" width="0.603" height="27.023" transform="translate(21.469 -6.368)" fill="#e68f17"/>
        <rect id="Rectángulo_37347" data-name="Rectángulo 37347" width="0.603" height="27.023" transform="translate(23.661 -5.46)" fill="#e68f17"/>
        <rect id="Rectángulo_37348" data-name="Rectángulo 37348" width="0.609" height="27.023" transform="translate(25.858 -4.546)" fill="#e68f17"/>
        <rect id="Rectángulo_37349" data-name="Rectángulo 37349" width="0.609" height="27.023" transform="translate(28.05 -3.638)" fill="#e68f17"/>
        <rect id="Rectángulo_37350" data-name="Rectángulo 37350" width="0.603" height="27.023" transform="translate(30.248 -2.731)" fill="#e68f17"/>
      </g>
      <ellipse id="Elipse_5325" data-name="Elipse 5325" cx="16.53" cy="8.265" rx="16.53" ry="8.265" transform="translate(167.734 150.528)" fill="#fcc881"/>
      <path id="Trazado_229071" data-name="Trazado 229071" d="M311.088,274.372c5.763-2.884,15.115-2.884,20.9,0,2.6,1.3,4.019,2.986,4.27,4.664.311-2.066-1.1-4.18-4.27-5.775-5.769-2.884-15.121-2.884-20.9,0-3.171,1.583-4.586,3.709-4.276,5.775C307.069,277.34,308.484,275.673,311.088,274.372Z" transform="translate(-137.262 -119.687)" fill="#e68f17"/>
      <path id="Trazado_229072" data-name="Trazado 229072" d="M311.116,284.455c5.763,2.878,15.115,2.878,20.9,0,2.6-1.3,4.019-2.986,4.27-4.67-.251-1.7-1.672-3.362-4.27-4.664-5.769-2.884-15.121-2.884-20.9,0-2.6,1.3-4.019,2.986-4.276,4.664C307.1,281.487,308.512,283.135,311.116,284.455Z" transform="translate(-137.291 -120.436)" fill="#f2ac4b"/>
      <path id="Trazado_229073" data-name="Trazado 229073" d="M317.646,280.8a6.384,6.384,0,0,0,2.472,2.054,4.069,4.069,0,0,0,3.506.334c.854-.424.663-.955-.346-2.024-1.421-1.475-1.636-2.789.269-3.744,2.239-1.117,5.823-1.039,8.922.508a7.476,7.476,0,0,1,2.687,2.007l-3.058.866a5.41,5.41,0,0,0-2.126-1.684,3.788,3.788,0,0,0-3.171-.322c-.836.424-.466.973.6,2.144,1.457,1.589,1.344,2.735-.508,3.661-2.2,1.1-5.763,1.194-9.37-.6a7.668,7.668,0,0,1-2.92-2.257Z" transform="translate(-140.416 -121.929)" fill="#db8816"/>
      <path id="Trazado_229074" data-name="Trazado 229074" d="M318.969,285.453l-1.989-.991,16.483-8.241,1.989.991Z" transform="translate(-141.375 -121.751)" fill="#db8816"/>
      <path id="Trazado_229075" data-name="Trazado 229075" d="M346.758,276.91v.579l-1.027.514-.681-.239Z" transform="translate(-152.682 -122.028)" fill="#f09518"/>
      <path id="Trazado_229076" data-name="Trazado 229076" d="M314.58,284.749v-.579l1.254.287-.627.627Z" transform="translate(-140.408 -124.953)" fill="#db8816"/>
      <path id="Trazado_229077" data-name="Trazado 229077" d="M316.98,289.625v-.585l1.989,1v.579Z" transform="translate(-141.375 -126.914)" fill="#eb9217"/>
      <path id="Trazado_229078" data-name="Trazado 229078" d="M346.958,281.749v-.579l-3.058.866v.579Z" transform="translate(-152.219 -123.744)" fill="#eb9217"/>
      <path id="Trazado_229079" data-name="Trazado 229079" d="M317.646,279.828a6.385,6.385,0,0,0,2.472,2.054,4.044,4.044,0,0,0,3.506.328c.854-.43.663-.956-.346-2.024-1.421-1.469-1.636-2.783.269-3.738,2.239-1.123,5.823-1.039,8.922.508a7.411,7.411,0,0,1,2.687,2.007l-3.058.866a5.375,5.375,0,0,0-2.126-1.684,3.768,3.768,0,0,0-3.171-.322c-.836.418-.466.973.6,2.144,1.457,1.583,1.344,2.735-.508,3.661-2.2,1.1-5.763,1.194-9.37-.6a7.728,7.728,0,0,1-2.92-2.257Z" transform="translate(-140.416 -121.536)" fill="#fcc881"/>
      <path id="Trazado_229080" data-name="Trazado 229080" d="M318.969,284.479l-1.989-1,16.483-8.241,1.989,1Z" transform="translate(-141.375 -121.356)" fill="#fcc881"/>
    </g>
  </g>
</svg>
