<svg xmlns="http://www.w3.org/2000/svg" width="385.209" height="660.72" viewBox="0 0 385.209 660.72">
  <path id="Sustracción_13" data-name="Sustracción 13" d="M383.806,659.736v0h0L71.013,376.291a217.749,217.749,0,0,1-29.331-32.5,214.964,214.964,0,0,1-35.434-76,216.78,216.78,0,0,1,5.827-123.056,215.065,215.065,0,0,1,17.912-38.523,218.188,218.188,0,0,1,60.75-66.186,215.136,215.136,0,0,1,81.6-35.578A216.6,216.6,0,0,1,292.651,13.9a215.14,215.14,0,0,1,35.8,17.486A217.967,217.967,0,0,1,361.294,55.95l22.512,20.4V659.732h0v0Z" transform="translate(0.499 0.53)" fill="#e2f9fc" stroke="rgba(0,0,0,0)" stroke-miterlimit="10" stroke-width="1"/>
</svg>
