<svg xmlns="http://www.w3.org/2000/svg" width="474.783" height="350.115" viewBox="0 0 474.783 350.115">
  <g id="suelos_1" data-name="suelos 1" transform="translate(0 -1.481)">
    <g id="freepik--background-complete--inject-124" transform="translate(0 1.482)">
      <rect id="Rectángulo_37662" data-name="Rectángulo 37662" width="31.45" height="0.237" transform="translate(395.76 326.167)" fill="#ebebeb"/>
      <rect id="Rectángulo_37663" data-name="Rectángulo 37663" width="8.252" height="0.237" transform="translate(306.263 328.749)" fill="#ebebeb"/>
      <rect id="Rectángulo_37664" data-name="Rectángulo 37664" width="18.222" height="0.237" transform="translate(376.588 317.355)" fill="#ebebeb"/>
      <rect id="Rectángulo_37665" data-name="Rectángulo 37665" width="41.012" height="0.237" transform="translate(49.814 318.95)" fill="#ebebeb"/>
      <rect id="Rectángulo_37666" data-name="Rectángulo 37666" width="6.011" height="0.237" transform="translate(99.287 318.95)" fill="#ebebeb"/>
      <rect id="Rectángulo_37667" data-name="Rectángulo 37667" width="88.955" height="0.237" transform="translate(124.839 322.957)" fill="#ebebeb"/>
      <path id="Trazado_230094" data-name="Trazado 230094" d="M226.974,323.537H43.632a5.422,5.422,0,0,1-5.422-5.422V60.375A5.422,5.422,0,0,1,43.632,55H226.974a5.422,5.422,0,0,1,5.422,5.422V318.115A5.422,5.422,0,0,1,226.974,323.537ZM43.632,55.19a5.194,5.194,0,0,0-5.185,5.185V318.115a5.194,5.194,0,0,0,5.185,5.185H226.974a5.194,5.194,0,0,0,5.185-5.185V60.375a5.194,5.194,0,0,0-5.185-5.185Z" transform="translate(-1.927 -55)" fill="#ebebeb"/>
      <path id="Trazado_230095" data-name="Trazado 230095" d="M443.283,323.537H259.922a5.431,5.431,0,0,1-5.422-5.422V60.375A5.431,5.431,0,0,1,259.922,55H443.283a5.422,5.422,0,0,1,5.4,5.375V318.115A5.422,5.422,0,0,1,443.283,323.537ZM259.922,55.19a5.194,5.194,0,0,0-5.185,5.185V318.115a5.194,5.194,0,0,0,5.185,5.185H443.283a5.194,5.194,0,0,0,5.185-5.185V60.375a5.194,5.194,0,0,0-5.185-5.185Z" transform="translate(-12.835 -55)" fill="#ebebeb"/>
      <rect id="Rectángulo_37668" data-name="Rectángulo 37668" width="474.783" height="0.237" transform="translate(0 310.888)" fill="#ebebeb"/>
      <rect id="Rectángulo_37669" data-name="Rectángulo 37669" width="17.643" height="97.71" transform="translate(86.467 310.973) rotate(180)" fill="#e6e6e6"/>
      <rect id="Rectángulo_37670" data-name="Rectángulo 37670" width="95.194" height="97.71" transform="translate(176.838 310.973) rotate(180)" fill="#f5f5f5"/>
      <rect id="Rectángulo_37671" data-name="Rectángulo 37671" width="21.925" height="4.283" transform="translate(86.619 215.4) rotate(180)" fill="#e0e0e0"/>
      <rect id="Rectángulo_37672" data-name="Rectángulo 37672" width="100.113" height="4.283" transform="translate(180.104 215.4) rotate(180)" fill="#ebebeb"/>
      <path id="Trazado_230096" data-name="Trazado 230096" d="M143.052,346.189h0a1.652,1.652,0,0,0,1.662-1.652v-7.445a1.652,1.652,0,0,0-1.662-1.652h0a1.652,1.652,0,0,0-1.652,1.652v7.425a1.652,1.652,0,0,0,1.652,1.671Z" transform="translate(-7.131 -69.144)" fill="#e6e6e6"/>
      <path id="Trazado_230097" data-name="Trazado 230097" d="M131.292,346.189h0a1.652,1.652,0,0,0,1.652-1.652v-7.444a1.652,1.652,0,0,0-1.652-1.652h0a1.652,1.652,0,0,0-1.652,1.652v7.425a1.652,1.652,0,0,0,1.652,1.671Z" transform="translate(-6.538 -69.144)" fill="#e6e6e6"/>
      <path id="Trazado_230098" data-name="Trazado 230098" d="M181.184,301.01v1.662H135.5v75.709h-1.652V302.672H85.99V301.01Z" transform="translate(-4.337 -67.407)" fill="#e0e0e0"/>
      <path id="Trazado_230099" data-name="Trazado 230099" d="M384.56,232.1h24.11L389.27,122.08H365.16Z" transform="translate(-18.417 -58.383)" fill="#fafafa"/>
      <path id="Trazado_230100" data-name="Trazado 230100" d="M369.78,232.1h6.5l-19.4-110.017h-6.5Z" transform="translate(-17.671 -58.383)" fill="#fafafa"/>
      <path id="Trazado_230101" data-name="Trazado 230101" d="M295.481,233.945h6.676L282.225,120.88H275.54Z" transform="translate(-13.897 -58.323)" fill="#fafafa"/>
      <path id="Trazado_230102" data-name="Trazado 230102" d="M309.491,233.945h12.591L302.151,120.88H289.56Z" transform="translate(-14.604 -58.323)" fill="#fafafa"/>
      <path id="Trazado_230103" data-name="Trazado 230103" d="M346.06,120.28h78.757V233.962H346.06Zm72.528,6.229h-66.3V227.695h66.3Z" transform="translate(-17.453 -58.292)" fill="#e6e6e6"/>
      <path id="Trazado_230104" data-name="Trazado 230104" d="M259.83,117H423.583V236.873H259.83Zm157.524,6.229H266.059V230.644H417.354Z" transform="translate(-13.104 -58.127)" fill="#f5f5f5"/>
      <path id="Trazado_230105" data-name="Trazado 230105" d="M192.45,232.1h24.109l-19.4-110.017H173.05Z" transform="translate(-8.728 -58.383)" fill="#fafafa"/>
      <path id="Trazado_230106" data-name="Trazado 230106" d="M177.68,232.1h6.5l-19.4-110.017h-6.5Z" transform="translate(-7.983 -58.383)" fill="#fafafa"/>
      <path id="Trazado_230107" data-name="Trazado 230107" d="M103.371,233.945h6.675L90.115,120.88H83.43Z" transform="translate(-4.208 -58.323)" fill="#fafafa"/>
      <path id="Trazado_230108" data-name="Trazado 230108" d="M117.381,233.945h12.591L110.041,120.88H97.45Z" transform="translate(-4.915 -58.323)" fill="#fafafa"/>
      <path id="Trazado_230109" data-name="Trazado 230109" d="M153.94,120.28h78.766V233.962H153.94Zm72.537,6.229h-66.3V227.695h66.3Z" transform="translate(-7.764 -58.292)" fill="#e6e6e6"/>
      <path id="Trazado_230110" data-name="Trazado 230110" d="M67.72,117H231.473V236.873H67.72Zm157.524,6.229H73.949V230.644H225.244Z" transform="translate(-3.415 -58.127)" fill="#f5f5f5"/>
      <path id="Trazado_230111" data-name="Trazado 230111" d="M387.5,341.57a87.1,87.1,0,0,0-5.583-33.159c3.229-5.973,2.08-26.74-4.491-26.047-2.4.247-1.557,5.821-3.494,5.27-3.969-1.12-5.469-11.8-9.97-13.379-2.849-1.006-.95,7.169-3.248,7.843s-11.053-.949-12.867,2.526,6.533,4.149,7.815,5.071-4.51,2.336-1.757,4.539,8.793-3.21,9.439-1.443-5.7,3.8-3.751,6.533,10.853-2.317,11.8.247-7.52,4.1-4.187,8.043c2.345,2.763,9.344,2.326,13.38,1.738.266-.048.465-.086.636-.133a86.049,86.049,0,0,1,4.748,32.77Z" transform="translate(-17.53 -66.053)" fill="#e6e6e6"/>
      <path id="Trazado_230112" data-name="Trazado 230112" d="M392.183,336.557a78.568,78.568,0,0,1,2.421-30.206c-3.361-5.109-3.95-23.834,2-23.739,2.175,0,1.852,5.109,3.542,4.463,3.476-1.32,3.988-11.015,7.91-12.791,2.507-1.13,1.377,6.362,3.523,6.789s9.838-1.681,11.737,1.263-5.545,4.235-6.647,5.166,4.235,1.747,1.9,3.941-8.147-2.193-8.546-.57,5.422,2.991,3.874,5.574-9.923-1.234-10.578,1.149,7.074,3.1,4.387,6.894c-1.9,2.659-8.2,2.849-11.87,2.6a3.62,3.62,0,0,1-.579-.076,77.451,77.451,0,0,0-1.69,29.8Z" transform="translate(-19.754 -66.053)" fill="#ebebeb"/>
      <path id="Trazado_230113" data-name="Trazado 230113" d="M389.639,337.7a52.84,52.84,0,0,1,3.38-20.1c-1.956-3.627-1.254-16.209,2.725-15.791,1.462.152.95,3.523,2.118,3.19,2.412-.674,3.314-7.15,6.049-8.109,1.747-.608.551,4.349,1.966,4.748s6.7-.551,7.805,1.529-3.96,2.516-4.748,3.077,2.735,1.415,1.063,2.754-5.336-1.9-5.7-.883,3.466,2.326,2.279,3.959-6.58-1.405-7.16.152,4.568,2.488,2.535,4.881c-1.415,1.671-5.7,1.405-8.109,1.054l-.38-.085a52.223,52.223,0,0,0-2.849,19.874Z" transform="translate(-19.65 -67.197)" fill="#f5f5f5"/>
      <path id="Trazado_230114" data-name="Trazado 230114" d="M399.345,380.038H378.465l-3.3-46.158h27.481Z" transform="translate(-18.921 -69.065)" fill="#ebebeb"/>
    </g>
    <g id="freepik--Shadow--inject-124" transform="translate(48.703 330.098)">
      <ellipse id="freepik--path--inject-124" cx="184.111" cy="10.749" rx="184.111" ry="10.749" fill="#f5f5f5"/>
    </g>
    <g id="freepik--trash-bin--inject-124" transform="translate(117.831 276.22)">
      <rect id="Rectángulo_37673" data-name="Rectángulo 37673" width="36.454" height="5.612" transform="translate(8.708 6.903)" fill="#0059d6"/>
      <path id="Trazado_230115" data-name="Trazado 230115" d="M134.665,355h33.472a3.105,3.105,0,0,1,3.105,3.105v54.7H131.55v-54.7A3.105,3.105,0,0,1,134.665,355Z" transform="translate(-124.466 -344.868)" fill="#0059d6"/>
      <path id="Trazado_230116" data-name="Trazado 230116" d="M134.665,355h33.472a3.105,3.105,0,0,1,3.105,3.105v54.7H131.55v-54.7A3.105,3.105,0,0,1,134.665,355Z" transform="translate(-124.466 -344.868)" fill="#fff" opacity="0.5"/>
      <rect id="Rectángulo_37674" data-name="Rectángulo 37674" width="39.692" height="8.632" rx="3.61" transform="translate(7.084)" fill="#0059d6"/>
      <rect id="Rectángulo_37675" data-name="Rectángulo 37675" width="39.692" height="8.632" rx="3.61" transform="translate(7.084)" fill="#fff" opacity="0.7"/>
      <path id="Trazado_230117" data-name="Trazado 230117" d="M142.645,415.661H124.09v-2.583l18.555-1.728Z" transform="translate(-124.09 -347.71)" fill="#0059d6"/>
      <path id="Trazado_230118" data-name="Trazado 230118" d="M142.645,415.661H124.09v-2.583l18.555-1.728Z" transform="translate(-124.09 -347.71)" fill="#fff" opacity="0.7"/>
    </g>
    <g id="freepik--Map--inject-124" transform="translate(99.685 52.511)">
      <path id="Trazado_230119" data-name="Trazado 230119" d="M307.78,121.084q-21.536-6.011-42.987-12.344-20.89,6.3-41.781,12.344-20.321-6.049-40.556-12.344-22.068,6.334-44.212,12.344L105,255.989q28.781-6.068,57.515-12.344,26.9,6.286,53.869,12.344,27.537-6.039,55.075-12.344,28.117,6.315,56.3,12.344,26.35-6.068,52.644-12.344l-33.263-134.9Q327.493,115.036,307.78,121.084Z" transform="translate(-104.981 -108.74)" fill="#0059d6"/>
      <path id="Trazado_230120" data-name="Trazado 230120" d="M307.78,121.084q-21.536-6.011-42.987-12.344-20.89,6.3-41.781,12.344-20.321-6.049-40.556-12.344-22.068,6.334-44.212,12.344L105,255.989q28.781-6.068,57.515-12.344,26.9,6.286,53.869,12.344,27.537-6.039,55.075-12.344,28.117,6.315,56.3,12.344,26.35-6.068,52.644-12.344l-33.263-134.9Q327.493,115.036,307.78,121.084Z" transform="translate(-104.981 -108.74)" fill="#fff" opacity="0.8"/>
      <path id="Trazado_230121" data-name="Trazado 230121" d="M217.34,248.571q27.177-6.039,54.306-12.344,27.737,6.315,55.531,12.344,21.963-5.109,43.9-10.445Q357.288,178.5,343.538,118.889q-16.95,5.327-33.985,10.445-21.916-6.011-43.756-12.344-21.251,6.277-42.55,12.344-20.7-6.049-41.325-12.344-18.858,5.308-37.764,10.445Q130.37,187.049,116.62,246.663q23.863-5.147,47.678-10.445Q190.762,242.494,217.34,248.571Z" transform="translate(-105.567 -109.156)" fill="#0059d6"/>
      <path id="Trazado_230122" data-name="Trazado 230122" d="M217.34,248.571q27.177-6.039,54.306-12.344,27.737,6.315,55.531,12.344,21.963-5.109,43.9-10.445Q357.288,178.5,343.538,118.889q-16.95,5.327-33.985,10.445-21.916-6.011-43.756-12.344-21.251,6.277-42.55,12.344-20.7-6.049-41.325-12.344-18.858,5.308-37.764,10.445Q130.37,187.049,116.62,246.663q23.863-5.147,47.678-10.445Q190.762,242.494,217.34,248.571Z" transform="translate(-105.567 -109.156)" fill="#fff" opacity="0.4"/>
      <path id="Trazado_230123" data-name="Trazado 230123" d="M260.556,213.305c-.712-7.6-1.291-14.5-4.273-18.488-6.647-8.822-22.552-6.941-32.542-5.118-1.111-1.9-3.96-7.188-7.084-19.941-2.982-12.173-16.769-18.042-27.4-21.47-3-.95-6.713-2.222-7.331-3.1-.883-4.017-4.748-4.206-8.546-4.377-3.048-.142-6.523-.3-9.3-2.146-2.478-1.652.37-9.448,4.083-16.959l-3.124.855c-.266.579-.541,1.159-.807,1.747-4.415,9.857-6.694,16.143-2.991,18.536s7.8,2.554,11.176,2.716,4.995.342,5.2,1.405c.551,2.849,4.074,4.112,9.828,5.878,9.809,3.01,21.736,7.6,24.746,18.412,5.033,18.042,8.138,22.315,8.727,22.856l.883.816,1.225-.256c8.935-1.7,23.454-3.732,29.237,2.773,2.269,2.554,2.849,9.391,3.295,16.19.5,8.461.2,18.042,2.773,26.436l7.5-1.728C262.1,229.771,261.269,220.864,260.556,213.305Z" transform="translate(-107.724 -109.394)" fill="#0059d6"/>
      <path id="Trazado_230124" data-name="Trazado 230124" d="M260.556,213.305c-.712-7.6-1.291-14.5-4.273-18.488-6.647-8.822-22.552-6.941-32.542-5.118-1.111-1.9-3.96-7.188-7.084-19.941-2.982-12.173-16.769-18.042-27.4-21.47-3-.95-6.713-2.222-7.331-3.1-.883-4.017-4.748-4.206-8.546-4.377-3.048-.142-6.523-.3-9.3-2.146-2.478-1.652.37-9.448,4.083-16.959l-3.124.855c-.266.579-.541,1.159-.807,1.747-4.415,9.857-6.694,16.143-2.991,18.536s7.8,2.554,11.176,2.716,4.995.342,5.2,1.405c.551,2.849,4.074,4.112,9.828,5.878,9.809,3.01,21.736,7.6,24.746,18.412,5.033,18.042,8.138,22.315,8.727,22.856l.883.816,1.225-.256c8.935-1.7,23.454-3.732,29.237,2.773,2.269,2.554,2.849,9.391,3.295,16.19.5,8.461.2,18.042,2.773,26.436l7.5-1.728C262.1,229.771,261.269,220.864,260.556,213.305Z" transform="translate(-107.724 -109.394)" fill="#fff" opacity="0.2"/>
      <g id="Grupo_124222" data-name="Grupo 124222" transform="translate(166.193 56.661)" opacity="0.5">
        <path id="Trazado_230125" data-name="Trazado 230125" d="M281.28,168.41l31.592,2.659c.9,7.179,1.348,10.778,2.251,17.956l-21.166-2.013-.807-9.648-11.395-1.434C281.546,172.93,281.451,171.42,281.28,168.41Z" transform="translate(-280.065 -168.41)" fill="#fff"/>
        <path id="Trazado_230126" data-name="Trazado 230126" d="M280,179.26l10.616,1.443.807,10.445-10.806-.836Z" transform="translate(-280 -168.957)" fill="#fff"/>
      </g>
      <path id="Trazado_230127" data-name="Trazado 230127" d="M333.546,145.91c-3.38,1.339-5.08,2-8.546,3.342l1.472,9.629c3.542-1.111,5.3-1.662,8.8-2.782C334.61,152.025,334.258,149.984,333.546,145.91Z" transform="translate(-116.077 -110.615)" fill="#fff" opacity="0.5"/>
      <path id="Trazado_230128" data-name="Trazado 230128" d="M166.319,209.57c-6.647,2.08-10.018,3.115-16.807,5.185-1.111,5.963-1.671,8.954-2.792,14.918,6.913-1.728,10.341-2.583,17.14-4.311C164.838,219.047,165.331,215.885,166.319,209.57Z" transform="translate(-107.085 -113.825)" fill="#fff" opacity="0.5"/>
      <path id="Trazado_230129" data-name="Trazado 230129" d="M268.383,162.188l46.529,3.8h.3q18.63-5.033,37.2-10.246l-.95-3.922q-18.555,5.28-37.175,10.331l-16.912-1.377q-6.941-19.172-13.294-38.5l-4.748-1.348q6.343,19.827,13.237,39.454l-24.888-2.042c-6.647,2.412-10.018,3.627-16.836,6.039h-28.8q-21.669-3.419-43.319-6.922,8.29-18.146,15.991-36.53l-3.105-.95q-8,18.792-16.6,37.3-19.314,2.849-38.647,5.593c-.351,1.538-.532,2.307-.883,3.8l39.378-5.7c5.023,12.116,10.578,23.948,16.342,35.732l-21.033-1.69q-21.887,5.821-43.851,11.395c-.551,2.364-.826,3.551-1.367,5.916q22.5-5.621,44.924-11.471l23.929,1.9c4.33,14.718,9.04,29.323,14.244,43.747l5,1.139C207.61,233,202.682,218.1,198.115,203.115l21.584,1.747q25.895,6.865,51.913,13.455,18.46-5.935,36.834-12.154c5,7.492,7.6,11.233,12.9,18.725Q337.084,234,353.065,242.73l7.843-1.9q-17.8-9.733-35.39-19.836c-4.748-6.647-7.084-10.008-11.6-16.684l6.846-2.345q20.311-3.675,40.613-7.435c-.541-2.317-.807-3.475-1.339-5.792q-20.777,3.893-41.563,7.692-23.616,8.157-47.345,15.934-14.358-3.665-28.686-7.435,5.5-18.488,10.265-37.175C259.029,165.578,262.163,164.42,268.383,162.188Zm-29.712,41.733c-7.093-1.9-10.616-2.849-17.576-4.691l-25.135-2.061c-5.859-11.765-11.528-23.587-16.655-35.694q21.1,3.38,42.2,6.647h27.319q-4.776,18.013-10.2,35.8Z" transform="translate(-105.988 -109.307)" fill="#fff"/>
      <path id="Trazado_230130" data-name="Trazado 230130" d="M162.5,243.645q-28.734,6.286-57.515,12.344l33.235-134.9q22.144-6.02,44.212-12.344Z" transform="translate(-104.98 -108.74)" opacity="0.1"/>
      <path id="Trazado_230131" data-name="Trazado 230131" d="M277.365,243.645q-27.537,6.315-55.075,12.344,3.324-67.419,6.647-134.9,20.891-6.049,41.781-12.344Q274.032,176.2,277.365,243.645Z" transform="translate(-110.896 -108.74)" opacity="0.1"/>
      <path id="Trazado_230132" data-name="Trazado 230132" d="M391.145,243.645q-26.293,6.286-52.644,12.344l-19.941-134.9q19.713-6.049,39.341-12.344Z" transform="translate(-115.752 -108.74)" opacity="0.1"/>
      <path id="Trazado_230133" data-name="Trazado 230133" d="M336.815,157.469c0,1.054-2.64,1.9-5.887,1.9s-5.878-.845-5.878-1.9,2.63-1.9,5.878-1.9S336.815,156.425,336.815,157.469Z" transform="translate(-116.079 -111.102)" opacity="0.1"/>
      <path id="Trazado_230134" data-name="Trazado 230134" d="M331.423,156.145c2.972,0,5.394-5.83,5.394-8.8a5.4,5.4,0,0,0-5.394-5.4h-.949a5.393,5.393,0,0,0-5.393,5.4c0,2.972,2.412,8.8,5.393,8.8Zm-2.155-8.8a1.709,1.709,0,1,1,1.662,2.089A2.155,2.155,0,0,1,329.268,147.343Z" transform="translate(-116.081 -110.414)" fill="#263238"/>
      <path id="Trazado_230135" data-name="Trazado 230135" d="M330.444,141.94a5.394,5.394,0,0,0-5.393,5.4c0,2.972,2.412,8.8,5.393,8.8s5.394-5.83,5.394-8.8a5.393,5.393,0,0,0-5.394-5.4Zm0,7.549a2.146,2.146,0,1,1,1.524-.625A2.156,2.156,0,0,1,330.444,149.489Z" transform="translate(-116.079 -110.414)" fill="#0059d6"/>
      <path id="Trazado_230136" data-name="Trazado 230136" d="M330.444,141.94a5.394,5.394,0,0,0-5.393,5.4c0,2.972,2.412,8.8,5.393,8.8s5.394-5.83,5.394-8.8a5.393,5.393,0,0,0-5.394-5.4Zm0,7.549a2.146,2.146,0,1,1,1.524-.625A2.156,2.156,0,0,1,330.444,149.489Z" transform="translate(-116.079 -110.414)" opacity="0.3"/>
      <path id="Trazado_230137" data-name="Trazado 230137" d="M291.545,209.1c0,1.044-2.63,1.9-5.878,1.9s-5.887-.855-5.887-1.9,2.64-1.9,5.887-1.9S291.545,208.045,291.545,209.1Z" transform="translate(-113.796 -113.706)" opacity="0.1"/>
      <path id="Trazado_230138" data-name="Trazado 230138" d="M286.153,207.766c2.982,0,5.394-5.821,5.394-8.8a5.394,5.394,0,0,0-5.394-5.393h-.95a5.393,5.393,0,0,0-5.4,5.393c0,2.982,2.421,8.8,5.4,8.8Zm-2.146-8.8a1.709,1.709,0,1,1,1.662,2.089A2.137,2.137,0,0,1,284.007,198.963Z" transform="translate(-113.797 -113.018)" fill="#263238"/>
      <path id="Trazado_230139" data-name="Trazado 230139" d="M285.183,193.57a5.394,5.394,0,0,0-5.4,5.393c0,2.982,2.421,8.8,5.4,8.8s5.393-5.821,5.393-8.8A5.393,5.393,0,0,0,285.183,193.57Zm0,7.6a2.132,2.132,0,1,0,0-.048Z" transform="translate(-113.796 -113.018)" fill="#0059d6"/>
      <path id="Trazado_230140" data-name="Trazado 230140" d="M285.183,193.57a5.394,5.394,0,0,0-5.4,5.393c0,2.982,2.421,8.8,5.4,8.8s5.393-5.821,5.393-8.8A5.393,5.393,0,0,0,285.183,193.57Zm0,7.6a2.132,2.132,0,1,0,0-.048Z" transform="translate(-113.796 -113.018)" opacity="0.3"/>
      <path id="Trazado_230141" data-name="Trazado 230141" d="M196.855,213.9c0,1.054-2.64,1.9-5.887,1.9s-5.878-.845-5.878-1.9,2.63-1.9,5.878-1.9S196.855,212.864,196.855,213.9Z" transform="translate(-109.02 -113.948)" opacity="0.1"/>
      <path id="Trazado_230142" data-name="Trazado 230142" d="M191.463,212.586c2.972,0,5.393-5.83,5.393-8.8a5.4,5.4,0,0,0-5.393-5.4h-.95a5.394,5.394,0,0,0-5.394,5.4c0,2.972,2.412,8.8,5.394,8.8Zm-2.156-8.8a1.709,1.709,0,1,1,1.662,2.089A2.155,2.155,0,0,1,189.308,203.783Z" transform="translate(-109.022 -113.261)" fill="#263238"/>
      <path id="Trazado_230143" data-name="Trazado 230143" d="M190.484,198.38a5.393,5.393,0,0,0-5.394,5.4c0,2.972,2.412,8.8,5.394,8.8s5.394-5.83,5.394-8.8a5.394,5.394,0,0,0-5.394-5.4Zm0,7.6a2.122,2.122,0,1,0,0-.048Z" transform="translate(-109.02 -113.261)" fill="#0059d6"/>
      <path id="Trazado_230144" data-name="Trazado 230144" d="M190.484,198.38a5.393,5.393,0,0,0-5.394,5.4c0,2.972,2.412,8.8,5.394,8.8s5.394-5.83,5.394-8.8a5.394,5.394,0,0,0-5.394-5.4Zm0,7.6a2.122,2.122,0,1,0,0-.048Z" transform="translate(-109.02 -113.261)" opacity="0.3"/>
      <path id="Trazado_230145" data-name="Trazado 230145" d="M176.515,156.129c0,1.054-2.63,1.9-5.878,1.9s-5.887-.845-5.887-1.9,2.64-1.9,5.887-1.9S176.515,155.085,176.515,156.129Z" transform="translate(-107.994 -111.034)" opacity="0.1"/>
      <path id="Trazado_230146" data-name="Trazado 230146" d="M171.123,154.805c2.982,0,5.394-5.83,5.394-8.8a5.394,5.394,0,0,0-5.394-5.4h-.95a5.4,5.4,0,0,0-5.4,5.4c0,2.972,2.421,8.8,5.4,8.8Zm-2.146-8.8a1.709,1.709,0,1,1,1.662,2.089A2.136,2.136,0,0,1,168.977,146Z" transform="translate(-107.995 -110.347)" fill="#263238"/>
      <path id="Trazado_230147" data-name="Trazado 230147" d="M170.153,140.6a5.4,5.4,0,0,0-5.4,5.4c0,2.972,2.421,8.8,5.4,8.8s5.394-5.83,5.394-8.8A5.4,5.4,0,0,0,170.153,140.6Zm0,7.6a2.123,2.123,0,1,0,0-.047Z" transform="translate(-107.994 -110.347)" fill="#0059d6"/>
      <path id="Trazado_230148" data-name="Trazado 230148" d="M170.153,140.6a5.4,5.4,0,0,0-5.4,5.4c0,2.972,2.421,8.8,5.4,8.8s5.394-5.83,5.394-8.8A5.4,5.4,0,0,0,170.153,140.6Zm0,7.6a2.123,2.123,0,1,0,0-.047Z" transform="translate(-107.994 -110.347)" opacity="0.3"/>
      <path id="Trazado_230149" data-name="Trazado 230149" d="M273.515,159.459c0,1.044-2.63,1.9-5.878,1.9s-5.887-.855-5.887-1.9,2.64-1.9,5.887-1.9S273.515,158.405,273.515,159.459Z" transform="translate(-112.887 -111.202)" opacity="0.1"/>
      <path id="Trazado_230150" data-name="Trazado 230150" d="M268.122,158.126c2.982,0,5.394-5.821,5.394-8.8a5.393,5.393,0,0,0-5.394-5.4h-.949a5.4,5.4,0,0,0-5.4,5.4c0,2.982,2.421,8.8,5.4,8.8Zm-2.146-8.8a1.709,1.709,0,1,1,1.662,2.089,2.137,2.137,0,0,1-1.662-2.089Z" transform="translate(-112.888 -110.514)" fill="#263238"/>
      <path id="Trazado_230151" data-name="Trazado 230151" d="M267.153,143.92a5.4,5.4,0,0,0-5.4,5.4c0,2.982,2.421,8.8,5.4,8.8s5.393-5.821,5.393-8.8A5.4,5.4,0,0,0,267.153,143.92Zm0,7.6a2.122,2.122,0,1,0,0-.047Z" transform="translate(-112.887 -110.514)" fill="#0059d6"/>
      <path id="Trazado_230152" data-name="Trazado 230152" d="M267.153,143.92a5.4,5.4,0,0,0-5.4,5.4c0,2.982,2.421,8.8,5.4,8.8s5.393-5.821,5.393-8.8A5.4,5.4,0,0,0,267.153,143.92Zm0,7.6a2.122,2.122,0,1,0,0-.047Z" transform="translate(-112.887 -110.514)" opacity="0.3"/>
    </g>
    <g id="freepik--search-bar--inject-124" transform="translate(129.321 14.588)">
      <path id="Trazado_230153" data-name="Trazado 230153" d="M167.637,117.558a12.17,12.17,0,0,0,8.317,3.024H363.642a13.01,13.01,0,0,0,13.009-13.022v-5.569a11.413,11.413,0,0,0-2.1-7.081,52.606,52.606,0,0,0-5.893-6,11.4,11.4,0,0,0-7.417-2.328H173.553A13.021,13.021,0,0,0,160.532,99.6v5.569a11.161,11.161,0,0,0,1.9,6.757A56.4,56.4,0,0,0,167.637,117.558Z" transform="translate(-160.52 -86.57)" fill="#0059d6"/>
      <rect id="Rectángulo_37676" data-name="Rectángulo 37676" width="213.719" height="31.612" rx="10.85" transform="translate(0.012 0)" fill="#fff" opacity="0.8"/>
    </g>
    <g id="freepik--Icon--inject-124" transform="translate(305.152 18.596)">
      <path id="Trazado_230154" data-name="Trazado 230154" d="M309.022,113.5h0a1.992,1.992,0,0,1-1.992-1.992V91.9a1.992,1.992,0,0,1,1.992-1.992h0a1.992,1.992,0,0,1,1.992,1.992v19.61A1.992,1.992,0,0,1,309.022,113.5Z" transform="translate(-307.03 -89.91)" fill="#0059d6"/>
      <path id="Trazado_230155" data-name="Trazado 230155" d="M327.749,93.771a7.2,7.2,0,1,0-1,11.017,1.378,1.378,0,0,0,.36.66l5.16,5.161a1.5,1.5,0,0,0,2.124-2.124l-5.161-5.161a1.379,1.379,0,0,0-.66-.36,7.2,7.2,0,0,0-.828-9.193Zm-1.812,8.4a4.644,4.644,0,1,1,0-6.565,4.644,4.644,0,0,1,0,6.541Z" transform="translate(-305.343 -89.559)" fill="#0059d6"/>
      <g id="Grupo_124223" data-name="Grupo 124223" transform="translate(0 0)" opacity="0.3">
        <path id="Trazado_230156" data-name="Trazado 230156" d="M309.022,113.5h0a1.992,1.992,0,0,1-1.992-1.992V91.9a1.992,1.992,0,0,1,1.992-1.992h0a1.992,1.992,0,0,1,1.992,1.992v19.61A1.992,1.992,0,0,1,309.022,113.5Z" transform="translate(-307.03 -89.91)" fill="#fff"/>
        <path id="Trazado_230157" data-name="Trazado 230157" d="M327.749,93.771a7.2,7.2,0,1,0-1,11.017,1.378,1.378,0,0,0,.36.66l5.16,5.161a1.5,1.5,0,0,0,2.124-2.124l-5.161-5.161a1.379,1.379,0,0,0-.66-.36,7.2,7.2,0,0,0-.828-9.193Zm-1.812,8.4a4.644,4.644,0,1,1,0-6.565,4.644,4.644,0,0,1,0,6.541Z" transform="translate(-305.343 -89.559)" fill="#fff"/>
      </g>
    </g>
    <g id="freepik--Character--inject-124" transform="translate(220.234 150.497)">
      <path id="Trazado_230168" data-name="Trazado 230168" d="M333.952,315.207a91.353,91.353,0,0,1-22.657,0c-7.6-.8-12.515-7-11.157-12.79.114-.447.161-.674.266-1.13,1.367-5.792,7.255-9.287,13.246-8.66a72.75,72.75,0,0,0,17.947,0c5.992-.627,11.879,2.849,13.237,8.66.114.456.161.684.266,1.13C346.467,308.171,341.52,314.409,333.952,315.207Z" transform="translate(-235.36 -215.996)" fill="#0059d6"/>
      <path id="Trazado_230169" data-name="Trazado 230169" d="M326.545,313.49l-.854,20.833h3.418l.855-20.833Z" transform="translate(-236.66 -217.052)" fill="#263238"/>
      <path id="Trazado_230170" data-name="Trazado 230170" d="M313.07,334.323h3.418l.855-20.833h-3.418Z" transform="translate(-236.024 -217.052)" fill="#263238"/>
      <g id="Grupo_124224" data-name="Grupo 124224" transform="translate(77.046 96.438)" opacity="0.6">
        <path id="Trazado_230171" data-name="Trazado 230171" d="M326.545,313.49l-.854,20.833h3.418l.855-20.833Z" transform="translate(-313.707 -313.49)" fill="#fff"/>
        <path id="Trazado_230172" data-name="Trazado 230172" d="M313.07,334.323h3.418l.855-20.833h-3.418Z" transform="translate(-313.07 -313.49)" fill="#fff"/>
      </g>
      <path id="Trazado_230173" data-name="Trazado 230173" d="M325.009,342.12H286.048l-3.418,70.249h2.811l5.128-64.637H302.78l1.662,64.637h2.174l1.662-64.637h12.211l5.128,64.637h2.811Z" transform="translate(-234.489 -218.496)" fill="#263238"/>
      <path id="Trazado_230174" data-name="Trazado 230174" d="M325.009,342.12H286.048l-3.418,70.249h2.811l5.128-64.637H302.78l1.662,64.637h2.174l1.662-64.637h12.211l5.128,64.637h2.811Z" transform="translate(-234.489 -218.496)" fill="#fff" opacity="0.6"/>
      <path id="Trazado_230175" data-name="Trazado 230175" d="M325.176,342.12H286.215l-.275,5.612h39.511Z" transform="translate(-234.656 -218.496)" opacity="0.2"/>
      <path id="Trazado_230176" data-name="Trazado 230176" d="M332.192,315.207a91.429,91.429,0,0,1-22.666,0c-7.6-.8-12.506-7-11.148-12.79.1-.447.162-.674.266-1.13,1.358-5.792,7.245-9.287,13.237-8.66a72.748,72.748,0,0,0,17.947,0c6-.627,11.888,2.849,13.247,8.66.1.456.161.684.266,1.13C344.7,308.171,339.789,314.409,332.192,315.207Z" transform="translate(-235.271 -215.996)" fill="#0059d6"/>
      <g id="Grupo_124225" data-name="Grupo 124225" transform="translate(62.881 76.558)" opacity="0.5">
        <path id="Trazado_230177" data-name="Trazado 230177" d="M332.192,315.207a91.429,91.429,0,0,1-22.666,0c-7.6-.8-12.506-7-11.148-12.79.1-.447.162-.674.266-1.13,1.358-5.792,7.245-9.287,13.237-8.66a72.748,72.748,0,0,0,17.947,0c6-.627,11.888,2.849,13.247,8.66.1.456.161.684.266,1.13C344.7,308.171,339.789,314.409,332.192,315.207Z" transform="translate(-298.153 -292.554)" fill="#fff"/>
      </g>
      <g id="Grupo_124226" data-name="Grupo 124226" transform="translate(75.232 86.135)" opacity="0.7">
        <path id="Trazado_230178" data-name="Trazado 230178" d="M332.844,304.112a1.472,1.472,0,1,1-1.472-1.472A1.472,1.472,0,0,1,332.844,304.112Z" transform="translate(-312.105 -302.64)" fill="#fff"/>
        <path id="Trazado_230179" data-name="Trazado 230179" d="M314.123,304.112a1.481,1.481,0,1,1-1.472-1.472A1.482,1.482,0,0,1,314.123,304.112Z" transform="translate(-311.16 -302.64)" fill="#fff"/>
      </g>
      <path id="Trazado_230180" data-name="Trazado 230180" d="M329.735,342.943H280.651a4.671,4.671,0,0,1-4.681-4.681h0a4.681,4.681,0,0,1,4.681-4.681h49.083a4.681,4.681,0,0,1,4.681,4.681h0a4.672,4.672,0,0,1-4.681,4.681Z" transform="translate(-234.153 -218.065)" fill="#0059d6"/>
      <path id="Trazado_230181" data-name="Trazado 230181" d="M329.735,342.943H280.651a4.671,4.671,0,0,1-4.681-4.681h0a4.681,4.681,0,0,1,4.681-4.681h49.083a4.681,4.681,0,0,1,4.681,4.681h0a4.672,4.672,0,0,1-4.681,4.681Z" transform="translate(-234.153 -218.065)" fill="#fff" opacity="0.5"/>
      <path id="Trazado_230182" data-name="Trazado 230182" d="M268.093,237.046s-11.727-9.087-1.234-18.042c0,0,11.651-13.18,18.9-3.561,1.263,1.671,6.761-.076,7.6,6.647.779,6.134,5.052,2.849,4.624,9.752-.361,5.868,4.064,4.463,3.988,8.119-.095,4.748-11.395,2.421-16.874,5.412-6.125,3.352-11.452,9.116-12.762,2.849A36.2,36.2,0,0,0,268.093,237.046Z" transform="translate(-233.473 -211.93)" fill="#263238"/>
      <path id="Trazado_230183" data-name="Trazado 230183" d="M279.607,272.095s-.37,15.079-5.745,18.612-19.627-19.58-19.627-19.58l-.855-11.746,5.982-2.07,2.421,8.9-2.137,4.349s8.451,11.537,9.562,10.255,1.9-11.319,1.9-11.319Z" transform="translate(-233.013 -214.218)" fill="#ff8b7b"/>
      <path id="Trazado_230184" data-name="Trazado 230184" d="M275.407,254.568c-4.852,3.162-4.216,10.54-5.7,19.286l11.67,1.51S284.058,248.937,275.407,254.568Z" transform="translate(-233.837 -214.04)" fill="#0059d6"/>
      <path id="Trazado_230185" data-name="Trazado 230185" d="M274.815,259.027s-3.6,6.979,0,20.007a48.084,48.084,0,0,1,1.9,9.686c2.336-3.5,3.257-9.572,3.618-13.294l1.168.152s1-9.676-.133-16.067l-3.456-2.041Z" transform="translate(-234.014 -214.226)" opacity="0.1"/>
      <path id="Trazado_230186" data-name="Trazado 230186" d="M236.44,342.27l4.719,51.59,6.343.74,3.267-51.447Z" transform="translate(-232.159 -218.503)" fill="#ff8b7b"/>
      <path id="Trazado_230187" data-name="Trazado 230187" d="M236.44,342.27l4.719,51.59,6.343.74,3.267-51.447Z" transform="translate(-232.159 -218.503)" opacity="0.1"/>
      <path id="Trazado_230188" data-name="Trazado 230188" d="M240.9,395.7l6.1-1.975a.608.608,0,0,1,.7.256l3.143,5.318a.949.949,0,0,1-.342,1.358.676.676,0,0,1-.19.086c-2.545.788-4.852,1.386-8,2.421-3.732,1.225-2.64,1.358-7,2.849-2.63.9-4.093-1.9-3.029-2.46,4.919-2.317,5.887-4.368,7.264-6.846A2.336,2.336,0,0,1,240.9,395.7Z" transform="translate(-231.932 -221.097)" fill="#263238"/>
      <path id="Trazado_230189" data-name="Trazado 230189" d="M253.369,346.44l-6.789,56.091,4.995,1.282A283.349,283.349,0,0,0,267.3,351.719Z" transform="translate(-232.67 -218.713)" fill="#ff8b7b"/>
      <path id="Trazado_230190" data-name="Trazado 230190" d="M245.888,404.514l6.134,1.9a.608.608,0,0,1,.427.617l-.437,6.106a.95.95,0,0,1-1.054.949.787.787,0,0,1-.209,0c-2.545-.817-4.748-1.633-7.957-2.583-3.8-1.12-2.944-.389-7.378-1.652-2.668-.76-2.25-3.931-1.082-3.741,5.365.9,7.321-.237,9.866-1.491a2.442,2.442,0,0,1,1.69-.1Z" transform="translate(-232.007 -221.637)" fill="#263238"/>
      <path id="Trazado_230191" data-name="Trazado 230191" d="M313.166,301.54a14.072,14.072,0,0,0,1.168,3.979c4.235,9.847,10.445,34.184-43.148,28.9l-3.4,18.2-32.693-9.591s-1.31-25.287,4.254-30.177c6.856-6.02,43.148-5.783,43.148-5.783l-.19-4.359Z" transform="translate(-232.084 -216.449)" fill="#0059d6"/>
      <path id="Trazado_230192" data-name="Trazado 230192" d="M253.117,318.855c-6.476,4.653-7.407,17.206-6.913,27.689l4.985,1.462c-.085-4.539,0-16.076,2.849-21.84,3.618-7.331,13.949-14.614,27.11-16.247C281.139,309.872,265,310.309,253.117,318.855Z" transform="translate(-232.646 -216.871)" opacity="0.1"/>
      <path id="Trazado_230193" data-name="Trazado 230193" d="M294.966,300.839c5.555.209,23.008,1.728,22.049-2.849a153.053,153.053,0,0,1-3.228-21.156c-.9-12.724-.124-25.448-4.292-29.636-4.349-4.358-30.547,1.3-33.871,7.786-3.893,7.6,0,16.143,3.115,27.86,1.852,7.008,3.067,13.531,4.226,17.092C283.894,302.843,291.965,300.735,294.966,300.839Z" transform="translate(-234.053 -213.631)" fill="#263238"/>
      <path id="Trazado_230194" data-name="Trazado 230194" d="M316.849,305.519a14.073,14.073,0,0,1-1.168-3.979l-30.861,1.168.18,4.15a20.332,20.332,0,0,0,8.7,0c7.207-1.3,15.544,2.137,23.53-.408Z" transform="translate(-234.599 -216.449)" opacity="0.1"/>
      <path id="Trazado_230195" data-name="Trazado 230195" d="M298,294.108s13.076-1.975,18.526-4.558c-.6-3.58-1.2-7.891-1.51-12.344-.693-9.7-.408-19.39-2.079-25.306l-9.059,1.814s-.712,6.343,8.261,27.708l-2.744,6.381Z" transform="translate(-235.264 -213.945)" opacity="0.6"/>
      <path id="Trazado_230196" data-name="Trazado 230196" d="M305.993,334.09c-20.254,1.044-31.981-4.14-31.981-4.14l-.9,5.9C288.54,337.357,299,336.426,305.993,334.09Z" transform="translate(-234.009 -217.882)" opacity="0.1"/>
      <path id="Trazado_230197" data-name="Trazado 230197" d="M308.051,266s5.014,11.547,4.159,13.246-15.592,11.537-15.592,11.537-8.783-5.982-11.119-3.419a40.627,40.627,0,0,0-4.159,5.555l1.9.855,4.8-1.51s6.362,4.017,9.135,2.336c0,0,22.79-7.881,23.359-13.854S315.7,261.76,315.7,261.76Z" transform="translate(-234.424 -214.443)" fill="#ff8b7b"/>
      <path id="Trazado_230198" data-name="Trazado 230198" d="M307.768,246c-2.4.1-9.325,3.02,1.671,21.84l9.942-4.8S314.415,245.667,307.768,246Z" transform="translate(-235.536 -213.648)" fill="#0059d6"/>
      <path id="Trazado_230199" data-name="Trazado 230199" d="M285.38,235.71c1.424,4.2,3.855,9.923,7.948,10.929,0,0,2.07,4.159-6.229,14.443-7.017-3.3-5.536-10.654-5.536-10.654,1.481-.95,2.2-2.184.123-4.406Z" transform="translate(-234.428 -213.129)" fill="#ff8b7b"/>
      <path id="Trazado_230200" data-name="Trazado 230200" d="M283.77,240.425l-2.07,5.792a4.292,4.292,0,0,1,1.272,2.194c4.026-1.453,3.8-8.831,3.8-8.831Z" transform="translate(-234.442 -213.324)" opacity="0.1"/>
      <path id="Trazado_230201" data-name="Trazado 230201" d="M285.81,225.5c1.9,7.16,2.792,10.141.418,14.9-3.57,7.16-12.781,7.862-16.741,1.405-3.551-5.821-6-16.6,0-21.584a10.075,10.075,0,0,1,16.333,5.28Z" transform="translate(-233.642 -212.226)" fill="#ff8b7b"/>
      <path id="Trazado_230202" data-name="Trazado 230202" d="M275.1,232.96c.237.56.133,1.13-.228,1.291s-.845-.18-1.083-.731-.123-1.13.228-1.282S274.857,232.485,275.1,232.96Z" transform="translate(-234.037 -212.952)" fill="#263238"/>
      <path id="Trazado_230203" data-name="Trazado 230203" d="M268.533,235.81c.228.56.123,1.13-.228,1.282s-.855-.171-1.092-.722-.123-1.13.237-1.282S268.3,235.259,268.533,235.81Z" transform="translate(-233.705 -213.096)" fill="#263238"/>
      <path id="Trazado_230204" data-name="Trazado 230204" d="M267.571,235.05l-1.491.18S267.2,235.952,267.571,235.05Z" transform="translate(-233.654 -213.096)" fill="#263238"/>
      <path id="Trazado_230205" data-name="Trazado 230205" d="M271.064,236a16.144,16.144,0,0,1-.484,4.378,2.65,2.65,0,0,0,2.137-.465Z" transform="translate(-233.881 -213.144)" fill="#ff5652"/>
      <path id="Trazado_230206" data-name="Trazado 230206" d="M276.945,240.916a4.758,4.758,0,0,1-.788.408.171.171,0,0,1-.228-.085h0a.171.171,0,0,1,.1-.228,4.748,4.748,0,0,0,2.848-3.229.181.181,0,0,1,.209-.142.171.171,0,0,1,.143.2A4.919,4.919,0,0,1,276.945,240.916Z" transform="translate(-234.15 -213.226)" fill="#263238"/>
      <path id="Trazado_230207" data-name="Trazado 230207" d="M277.049,230.527a.361.361,0,0,1-.418,0,4.149,4.149,0,0,0-3.3-.532.361.361,0,0,1-.437-.247.342.342,0,0,1,.237-.427h0a4.8,4.8,0,0,1,3.941.684.342.342,0,0,1,0,.484h0A.172.172,0,0,1,277.049,230.527Z" transform="translate(-233.997 -212.799)" fill="#263238"/>
      <path id="Trazado_230208" data-name="Trazado 230208" d="M265.311,233.524a.351.351,0,0,1-.361,0,.342.342,0,0,1-.142-.475,3.428,3.428,0,0,1,2.621-1.9.332.332,0,0,1,.38.294h0a.351.351,0,0,1-.313.38h0a2.85,2.85,0,0,0-2.032,1.548A.388.388,0,0,1,265.311,233.524Z" transform="translate(-233.588 -212.899)" fill="#263238"/>
      <path id="Trazado_230209" data-name="Trazado 230209" d="M274.181,232.3l-1.491.171S273.782,233.193,274.181,232.3Z" transform="translate(-233.987 -212.957)" fill="#263238"/>
      <path id="Trazado_230210" data-name="Trazado 230210" d="M290.475,230.8a5.318,5.318,0,0,1-1.633,3.7c-1.358,1.272-2.849.266-3.248-1.472-.3-1.567,0-4.112,1.728-4.748a2.393,2.393,0,0,1,3.153,2.526Z" transform="translate(-234.633 -212.748)" fill="#ff8b7b"/>
      <path id="Trazado_230211" data-name="Trazado 230211" d="M269.067,222.02a5.222,5.222,0,0,0,4.368,4.919c4.32.855,4.3,5.469,7.369,5.583s2.136,3.6,4.567,2.963,1.121-4.159,2.431-5.507c1.852-1.9-1.719-10.16-6.058-11.87S268.212,216.465,269.067,222.02Z" transform="translate(-233.802 -212.192)" fill="#263238"/>
      <path id="Trazado_230212" data-name="Trazado 230212" d="M269.4,221.226s-3.409,2.963-2.678,6.495-1.814,4.112-.95,7.492,3.371,3.8,3.637,6.647,3,3.542,1.9,5.109-3.067-1.994-3.21-4.748-3.495-2.906-3.922-6.543,1.5-5.346.95-8.546-.95-7.767,5.137-7.483S269.4,221.226,269.4,221.226Z" transform="translate(-233.555 -212.318)" fill="#263238"/>
      <path id="Trazado_230213" data-name="Trazado 230213" d="M269.378,218.74s-3.9,6.96,0,9.79S267.707,224.95,269.378,218.74Z" transform="translate(-233.733 -212.273)" fill="#263238"/>
      <path id="Trazado_230214" data-name="Trazado 230214" d="M267.88,219.54s-7.321.655-7.511,6.144S261.813,221.658,267.88,219.54Z" transform="translate(-233.365 -212.313)" fill="#263238"/>
      <path id="Trazado_230215" data-name="Trazado 230215" d="M257,259.5a4.254,4.254,0,0,0,4.112,4.4h.219c.408,1.9,2.089,2.08,4.093,2.08h.864c2.317,0,4.188-.655,4.188-2.972v-7.369a1.2,1.2,0,0,0-1.187-1.2h-6.865a1.2,1.2,0,0,0-1.187,1.2v.475h-.124C258.6,256.092,257,257.346,257,259.5Zm1.519.171c0-1.405,1.016-2.222,2.678-2.222h0v5.118h0a2.763,2.763,0,0,1-2.649-2.849Z" transform="translate(-233.196 -214.074)" fill="#0059d6"/>
      <path id="Trazado_230216" data-name="Trazado 230216" d="M257,259.5a4.254,4.254,0,0,0,4.112,4.4h.219c.408,1.9,2.089,2.08,4.093,2.08h.864c2.317,0,4.188-.655,4.188-2.972v-7.369a1.2,1.2,0,0,0-1.187-1.2h-6.865a1.2,1.2,0,0,0-1.187,1.2v.475h-.124C258.6,256.092,257,257.346,257,259.5Zm1.519.171c0-1.405,1.016-2.222,2.678-2.222h0v5.118h0a2.763,2.763,0,0,1-2.649-2.849Z" transform="translate(-233.196 -214.074)" opacity="0.2"/>
      <path id="Trazado_230217" data-name="Trazado 230217" d="M261.388,262.986h0v.456a4.586,4.586,0,0,0,.095.893h-.218a3.807,3.807,0,0,1-1.045-.142V262.73A2.7,2.7,0,0,0,261.388,262.986Z" transform="translate(-233.358 -214.492)" opacity="0.1"/>
      <path id="Trazado_230218" data-name="Trazado 230218" d="M261.306,256.18h.124v1.349h0a4.126,4.126,0,0,0-1.13.152v-1.424A6.13,6.13,0,0,1,261.306,256.18Z" transform="translate(-233.363 -214.161)" opacity="0.1"/>
      <path id="Trazado_230219" data-name="Trazado 230219" d="M261.388,262.986h0v.456a4.586,4.586,0,0,0,.095.893h-.218a3.807,3.807,0,0,1-1.045-.142V262.73A2.7,2.7,0,0,0,261.388,262.986Z" transform="translate(-233.358 -214.492)" opacity="0.1"/>
      <path id="Trazado_230220" data-name="Trazado 230220" d="M261.306,256.18h.124v1.349h0a4.126,4.126,0,0,0-1.13.152v-1.424A6.13,6.13,0,0,1,261.306,256.18Z" transform="translate(-233.363 -214.161)" opacity="0.1"/>
      <path id="Trazado_230221" data-name="Trazado 230221" d="M254.185,271.126l-.854-11.746,5.982-2.07,2.421,8.907-2.137,4.34Z" transform="translate(-233.011 -214.218)" fill="#ff8b7b"/>
    </g>
    <g id="freepik--Desk--inject-124" transform="translate(146.708 194.794)">
      <path id="Trazado_230222" data-name="Trazado 230222" d="M199.635,273.118s-5.422,6.182-7.188-1.035S189,258.58,189,258.58,218.323,267.012,199.635,273.118Z" transform="translate(-156.24 -258.58)" fill="#0059d6"/>
      <path id="Trazado_230223" data-name="Trazado 230223" d="M199.635,273.118s-5.422,6.182-7.188-1.035S189,258.58,189,258.58,218.323,267.012,199.635,273.118Z" transform="translate(-156.24 -258.58)" opacity="0.3"/>
      <path id="Trazado_230224" data-name="Trazado 230224" d="M200.678,282.693s1.9-14.519-6.068-19.333c0,0,6.846,6.381,4.748,19.153Z" transform="translate(-156.523 -258.821)" fill="#0059d6"/>
      <path id="Trazado_230225" data-name="Trazado 230225" d="M200.678,282.693s1.9-14.519-6.068-19.333c0,0,6.846,6.381,4.748,19.153Z" transform="translate(-156.523 -258.821)" fill="#fff" opacity="0.5"/>
      <path id="Trazado_230226" data-name="Trazado 230226" d="M204.4,274.113s-6.267-6.087.893-9.5,14.851,3.162,14.851,3.162S204.889,284.8,204.4,274.113Z" transform="translate(-156.888 -258.835)" fill="#0059d6"/>
      <path id="Trazado_230227" data-name="Trazado 230227" d="M201.87,282.243s.124-13.778,10.569-14.243c0,0-8.764,1.823-9.619,14.243Z" transform="translate(-156.889 -259.055)" fill="#0059d6"/>
      <path id="Trazado_230228" data-name="Trazado 230228" d="M201.87,282.243s.124-13.778,10.569-14.243c0,0-8.764,1.823-9.619,14.243Z" transform="translate(-156.889 -259.055)" fill="#fff" opacity="0.5"/>
      <path id="Trazado_230229" data-name="Trazado 230229" d="M195.193,276.217s4.624-5.7-1.576-7.065-11.547,7.065-11.547,7.065S197.624,282.759,195.193,276.217Z" transform="translate(-155.891 -259.106)" fill="#0059d6"/>
      <path id="Trazado_230230" data-name="Trazado 230230" d="M195.193,276.217s4.624-5.7-1.576-7.065-11.547,7.065-11.547,7.065S197.624,282.759,195.193,276.217Z" transform="translate(-155.891 -259.106)" fill="#fff" opacity="0.2"/>
      <path id="Trazado_230231" data-name="Trazado 230231" d="M198.594,282.479s-2.564-14.851-12.924-8.014c0,0,8.973-4.378,11.642,8.014Z" transform="translate(-156.072 -259.29)" fill="#0059d6"/>
      <path id="Trazado_230232" data-name="Trazado 230232" d="M198.594,282.479s-2.564-14.851-12.924-8.014c0,0,8.973-4.378,11.642,8.014Z" transform="translate(-156.072 -259.29)" fill="#fff" opacity="0.5"/>
      <path id="Trazado_230233" data-name="Trazado 230233" d="M209.151,281.96h-17.5l.437,3.551h1.139l1.415,11.623h11.518l1.424-11.623h1.13Z" transform="translate(-156.374 -259.759)" fill="#263238"/>
      <path id="Trazado_230234" data-name="Trazado 230234" d="M207.365,288.2l.285-2.336H193.33l.285,2.336Z" transform="translate(-156.458 -259.956)" opacity="0.4"/>
      <path id="Trazado_230235" data-name="Trazado 230235" d="M327.991,306.85h-45.94l-9.4,103.74h6.856L290.768,312.4h28.506l11.262,98.185h6.856Z" transform="translate(-160.459 -261.014)" fill="#263238"/>
      <path id="Trazado_230236" data-name="Trazado 230236" d="M327.991,306.85h-45.94l-9.4,103.74h6.856L290.768,312.4h28.506l11.262,98.185h6.856Z" transform="translate(-160.459 -261.014)" fill="#fff" opacity="0.2"/>
      <path id="Trazado_230237" data-name="Trazado 230237" d="M290.92,312.4h31.374l11.271,98.185h3.979l-9.4-103.74H285.081l-9.4,103.74h3.979Z" transform="translate(-160.612 -261.014)" fill="#fff" opacity="0.1"/>
      <path id="Trazado_230238" data-name="Trazado 230238" d="M213.441,306.85H167.5l-9.4,103.74h6.856L176.218,312.4h28.506l11.262,98.185h6.856Z" transform="translate(-154.682 -261.014)" fill="#263238"/>
      <path id="Trazado_230239" data-name="Trazado 230239" d="M213.441,306.85H167.5l-9.4,103.74h6.856L176.218,312.4h28.506l11.262,98.185h6.856Z" transform="translate(-154.682 -261.014)" fill="#fff" opacity="0.2"/>
      <path id="Trazado_230240" data-name="Trazado 230240" d="M176.37,312.4h31.374l11.271,98.185h3.979l-9.4-103.74H170.531l-9.4,103.74h3.979Z" transform="translate(-154.834 -261.014)" fill="#fff" opacity="0.1"/>
      <rect id="Rectángulo_37677" data-name="Rectángulo 37677" width="179.81" height="4.226" transform="translate(0 37.726)" fill="#0059d6"/>
      <rect id="Rectángulo_37678" data-name="Rectángulo 37678" width="179.81" height="4.226" transform="translate(0 37.726)" fill="#fff" opacity="0.5"/>
      <rect id="Rectángulo_37679" data-name="Rectángulo 37679" width="65.605" height="4.226" transform="translate(114.204 37.726)" opacity="0.2"/>
      <rect id="Rectángulo_37680" data-name="Rectángulo 37680" width="172.973" height="4.226" transform="translate(3.418 41.724)" fill="#0059d6"/>
      <rect id="Rectángulo_37681" data-name="Rectángulo 37681" width="172.973" height="4.226" transform="translate(3.418 41.724)" fill="#fff" opacity="0.2"/>
      <rect id="Rectángulo_37682" data-name="Rectángulo 37682" width="62.187" height="4.226" transform="translate(114.204 41.724)" opacity="0.2"/>
      <path id="Trazado_230241" data-name="Trazado 230241" d="M285.343,295.51H230.819a1.329,1.329,0,1,0,0,2.659h54.524a1.329,1.329,0,1,0,0-2.659Z" transform="translate(-158.282 -260.443)" fill="#1a2e35"/>
      <path id="Trazado_230242" data-name="Trazado 230242" d="M285.343,295.51H230.819a1.329,1.329,0,1,0,0,2.659h54.524a1.329,1.329,0,1,0,0-2.659Z" transform="translate(-158.282 -260.443)" fill="#fff" opacity="0.3"/>
      <path id="Trazado_230243" data-name="Trazado 230243" d="M231.075,295.962h22.581a.627.627,0,0,0,.589-.836l-9.1-25.99a1.785,1.785,0,0,0-1.69-1.2H220.886a.627.627,0,0,0-.6.836l9.106,25.99A1.766,1.766,0,0,0,231.075,295.962Z" transform="translate(-157.816 -259.052)" fill="#1a2e35"/>
      <path id="Trazado_230244" data-name="Trazado 230244" d="M231.075,295.962h22.581a.627.627,0,0,0,.589-.836l-9.1-25.99a1.785,1.785,0,0,0-1.69-1.2H220.886a.627.627,0,0,0-.6.836l9.106,25.99A1.766,1.766,0,0,0,231.075,295.962Z" transform="translate(-157.816 -259.052)" fill="#fff" opacity="0.5"/>
      <path id="Trazado_230245" data-name="Trazado 230245" d="M230.235,295.962h22.571a.627.627,0,0,0,.6-.836l-9.106-25.99a1.766,1.766,0,0,0-1.681-1.2H220.037a.627.627,0,0,0-.589.836l9.068,25.99A1.785,1.785,0,0,0,230.235,295.962Z" transform="translate(-157.774 -259.052)" fill="#1a2e35"/>
      <path id="Trazado_230246" data-name="Trazado 230246" d="M230.235,295.962h22.571a.627.627,0,0,0,.6-.836l-9.106-25.99a1.766,1.766,0,0,0-1.681-1.2H220.037a.627.627,0,0,0-.589.836l9.068,25.99A1.785,1.785,0,0,0,230.235,295.962Z" transform="translate(-157.774 -259.052)" fill="#fff" opacity="0.7"/>
      <path id="Trazado_230247" data-name="Trazado 230247" d="M238.756,282.572c.294,1.234-.152,2.232-.95,2.232s-1.747-1-2.042-2.232.161-2.222,1-2.222S238.472,281.347,238.756,282.572Z" transform="translate(-158.594 -259.678)" fill="#fff"/>
      <path id="Trazado_230248" data-name="Trazado 230248" d="M257.6,298.169a1.329,1.329,0,0,1,0-2.659h29.095a1.329,1.329,0,1,1,0,2.659Z" transform="translate(-159.633 -260.443)" fill="#fff" opacity="0.2"/>
    </g>
  </g>
</svg>
