<svg xmlns="http://www.w3.org/2000/svg" width="332.551" height="196.332" viewBox="0 0 332.551 196.332">
  <g id="freepik--Device--inject-32" transform="translate(-106.46 -161.34)">
    <rect id="Rectángulo_37799" data-name="Rectángulo 37799" width="331.551" height="195.332" transform="translate(106.96 161.84)" fill="#fff" stroke="#263238" stroke-linecap="round" stroke-linejoin="round" stroke-width="1"/>
    <rect id="Rectángulo_37800" data-name="Rectángulo 37800" width="281.451" height="12.355" transform="translate(123.579 274.295)" fill="#698695"/>
    <rect id="Rectángulo_37801" data-name="Rectángulo 37801" width="281.451" height="12.355" transform="translate(123.579 297.641)" fill="#698695"/>
    <line id="Línea_447" data-name="Línea 447" x2="49.517" transform="translate(123.557 200.607)" fill="none" stroke="#263238" stroke-miterlimit="10" stroke-width="1"/>
    <line id="Línea_448" data-name="Línea 448" x2="49.517" transform="translate(123.557 207.884)" fill="none" stroke="#263238" stroke-miterlimit="10" stroke-width="1"/>
    <line id="Línea_449" data-name="Línea 449" x2="49.517" transform="translate(284.112 207.884)" fill="none" stroke="#263238" stroke-miterlimit="10" stroke-width="1"/>
    <line id="Línea_450" data-name="Línea 450" x2="49.517" transform="translate(284.112 215.127)" fill="none" stroke="#263238" stroke-miterlimit="10" stroke-width="1"/>
    <line id="Línea_451" data-name="Línea 451" x2="49.517" transform="translate(284.112 222.371)" fill="none" stroke="#263238" stroke-miterlimit="10" stroke-width="1"/>
    <line id="Línea_452" data-name="Línea 452" x2="49.517" transform="translate(123.557 215.171)" fill="none" stroke="#263238" stroke-miterlimit="10" stroke-width="1"/>
    <line id="Línea_453" data-name="Línea 453" x2="49.517" transform="translate(123.557 337.387)" fill="none" stroke="#263238" stroke-miterlimit="10" stroke-width="1"/>
    <line id="Línea_454" data-name="Línea 454" x2="49.517" transform="translate(123.557 344.136)" fill="none" stroke="#263238" stroke-miterlimit="10" stroke-width="1"/>
    <line id="Línea_455" data-name="Línea 455" x2="49.517" transform="translate(123.557 222.448)" fill="none" stroke="#263238" stroke-miterlimit="10" stroke-width="1"/>
    <rect id="Rectángulo_37802" data-name="Rectángulo 37802" width="118.688" height="13.102" transform="translate(123.557 229.735)" fill="#698695"/>
    <rect id="Rectángulo_37803" data-name="Rectángulo 37803" width="62.619" height="6.551" transform="translate(341.994 216.622)" fill="#698695"/>
    <rect id="Rectángulo_37804" data-name="Rectángulo 37804" width="62.619" height="23.302" transform="translate(341.994 199.882)" fill="none" stroke="#263238" stroke-miterlimit="10" stroke-width="1"/>
    <rect id="Rectángulo_37805" data-name="Rectángulo 37805" width="62.619" height="10.189" transform="translate(341.994 206.433)" fill="none" stroke="#263238" stroke-miterlimit="10" stroke-width="1"/>
    <line id="Línea_456" data-name="Línea 456" y2="22.819" transform="translate(351.524 200.08)" fill="none" stroke="#263238" stroke-miterlimit="10" stroke-width="1"/>
    <rect id="Rectángulo_37806" data-name="Rectángulo 37806" width="281.451" height="78.942" transform="translate(123.579 251.642)" fill="none" stroke="#263238" stroke-miterlimit="10" stroke-width="1"/>
    <rect id="Rectángulo_37807" data-name="Rectángulo 37807" width="281.451" height="12.355" transform="translate(123.579 251.642)" fill="#698695" stroke="#263238" stroke-miterlimit="10" stroke-width="1"/>
    <line id="Línea_457" data-name="Línea 457" y2="78.513" transform="translate(322.275 251.938)" fill="none" stroke="#263238" stroke-miterlimit="10" stroke-width="1"/>
    <line id="Línea_458" data-name="Línea 458" y2="78.513" transform="translate(352.865 251.938)" fill="none" stroke="#263238" stroke-miterlimit="10" stroke-width="1"/>
    <rect id="Rectángulo_37808" data-name="Rectángulo 37808" width="30.744" height="18.279" transform="translate(322.022 335.277)" fill="#698695"/>
    <path id="Trazado_231076" data-name="Trazado 231076" d="M313.632,326.17v1.407c0,1.726-.824,2.66-2.528,2.66h-.791v4.056H308.62V323.51H311.1C312.808,323.51,313.632,324.444,313.632,326.17Zm-3.3-1.1v3.649h.791c.55,0,.835-.242.835-1.011v-1.627c0-.769-.286-1.011-.835-1.011Z" transform="translate(19.997 16.032)" fill="#263238"/>
    <path id="Trazado_231077" data-name="Trazado 231077" d="M319.794,334.293H318.08l-.286-1.956h-2.077l-.3,1.956h-1.55l1.715-10.783h2.484Zm-3.869-3.418h1.638l-.813-5.5Z" transform="translate(20.518 16.032)" fill="#263238"/>
    <path id="Trazado_231078" data-name="Trazado 231078" d="M321.488,330.721l-2.2-7.211h1.88l1.3,4.913,1.286-4.913h1.627l-2.143,7.211v3.572h-1.693Z" transform="translate(21.055 16.032)" fill="#263238"/>
    <rect id="Rectángulo_37809" data-name="Rectángulo 37809" width="331.551" height="9.024" transform="translate(106.96 161.84)" fill="#698695" stroke="#263238" stroke-linecap="round" stroke-linejoin="round" stroke-width="1"/>
  </g>
</svg>
