<svg xmlns="http://www.w3.org/2000/svg" xmlns:xlink="http://www.w3.org/1999/xlink" width="354.322" height="270" viewBox="0 0 354.322 270">
  <defs>
    <linearGradient id="linear-gradient" x1="0.5" x2="0.5" y2="1" gradientUnits="objectBoundingBox">
      <stop offset="0" stop-color="#56ffc6"/>
      <stop offset="1" stop-color="#0059d6"/>
    </linearGradient>
  </defs>
  <g id="Grupo_124075" data-name="Grupo 124075" transform="translate(-857 -2261)">
    <g id="Search-rafiki" transform="translate(857 2214.45)">
      <g id="freepik--background-complete--inject-29" transform="translate(0 52.538)">
        <rect id="Rectángulo_36255" data-name="Rectángulo 36255" width="354.322" height="0.177" transform="translate(0 232.01)" fill="#e0e0e0"/>
        <rect id="Rectángulo_36256" data-name="Rectángulo 36256" width="24.377" height="0.177" transform="translate(244.433 238.544)" fill="#e0e0e0"/>
        <rect id="Rectángulo_36257" data-name="Rectángulo 36257" width="13.719" height="0.177" transform="translate(283.769 238.041)" fill="#e0e0e0"/>
        <rect id="Rectángulo_36258" data-name="Rectángulo 36258" width="18.198" height="0.177" transform="translate(157.078 238.459)" fill="#e0e0e0"/>
        <rect id="Rectángulo_36259" data-name="Rectángulo 36259" width="12.43" height="0.177" transform="translate(175.992 240.974)" fill="#e0e0e0"/>
        <rect id="Rectángulo_36260" data-name="Rectángulo 36260" width="37.551" height="0.177" transform="translate(64.968 236.666)" fill="#e0e0e0"/>
        <path id="Trazado_228017" data-name="Trazado 228017" d="M179.081,255.4H42.249a4.046,4.046,0,0,1-4.039-4.046V59.011A4.046,4.046,0,0,1,42.249,55H179.081a4.046,4.046,0,0,1,4.046,4.046V251.358A4.046,4.046,0,0,1,179.081,255.4ZM42.249,55.142a3.869,3.869,0,0,0-3.862,3.869V251.358a3.869,3.869,0,0,0,3.862,3.869H179.081a3.876,3.876,0,0,0,3.869-3.869V59.011a3.876,3.876,0,0,0-3.869-3.869Z" transform="translate(-11.133 -55)" fill="#e0e0e0"/>
        <path id="Trazado_228018" data-name="Trazado 228018" d="M395.385,255.4H258.546a4.053,4.053,0,0,1-4.046-4.046V59.011A4.053,4.053,0,0,1,258.546,55H395.385a4.046,4.046,0,0,1,4.032,4.011V251.358A4.046,4.046,0,0,1,395.385,255.4ZM258.546,55.142a3.876,3.876,0,0,0-3.869,3.869V251.358a3.876,3.876,0,0,0,3.869,3.869H395.385a3.876,3.876,0,0,0,3.869-3.869V59.011a3.876,3.876,0,0,0-3.869-3.869Z" transform="translate(-74.15 -55)" fill="#e0e0e0"/>
        <rect id="Rectángulo_36261" data-name="Rectángulo 36261" width="106.793" height="91.812" transform="translate(200.78 17.199)" fill="#e0e0e0"/>
        <rect id="Rectángulo_36262" data-name="Rectángulo 36262" width="106.793" height="91.812" transform="translate(203.154 17.199)" fill="#f0f0f0"/>
        <rect id="Rectángulo_36263" data-name="Rectángulo 36263" width="83.195" height="98.275" transform="translate(305.688 21.507) rotate(90)" fill="#fafafa"/>
        <rect id="Rectángulo_36264" data-name="Rectángulo 36264" width="83.195" height="6.42" transform="translate(274.281 21.507) rotate(90)" fill="#e0e0e0"/>
        <rect id="Rectángulo_36265" data-name="Rectángulo 36265" width="83.195" height="6.42" transform="translate(240.507 21.507) rotate(90)" fill="#e0e0e0"/>
        <rect id="Rectángulo_36266" data-name="Rectángulo 36266" width="89.133" height="6.42" transform="translate(276.541 18.297) rotate(90)" fill="#f0f0f0"/>
        <rect id="Rectángulo_36267" data-name="Rectángulo 36267" width="89.133" height="6.42" transform="translate(242.76 18.304) rotate(90)" fill="#f0f0f0"/>
        <rect id="Rectángulo_36268" data-name="Rectángulo 36268" width="83.195" height="1.793" transform="translate(305.688 21.5) rotate(90)" fill="#e0e0e0"/>
        <path id="Trazado_228019" data-name="Trazado 228019" d="M175.478,165.047s-13-22.386,5.038-40.237c0,0,4.705,3.068,4.635,7.193s-5.046,5.166-3.975,8.61,5.754,6.81,2.679,9.659.5,5.372.291,8.858S175.478,165.047,175.478,165.047Z" transform="translate(-49.807 -75.34)" fill="#e0e0e0"/>
        <path id="Trazado_228020" data-name="Trazado 228020" d="M172.035,171.714s5.272-25.355-17.461-36.594c0,0-3.5,4.394-2.126,8.284s6.413,3.309,6.484,6.916-3.309,8.284.5,10.013,1.226,5.258,2.523,8.5S172.035,171.714,172.035,171.714Z" transform="translate(-44.324 -78.343)" fill="#e6e6e6"/>
        <path id="Trazado_228021" data-name="Trazado 228021" d="M163.89,177.67s.227,21.89,8.979,21.89,8.971-21.89,8.971-21.89Z" transform="translate(-47.75 -90.741)" fill="#f0f0f0"/>
        <path id="Trazado_228022" data-name="Trazado 228022" d="M89.69,196.94s.489,8.234,19.176,8.234,19.183-8.234,19.183-8.234Z" transform="translate(-26.132 -96.355)" fill="#e6e6e6"/>
        <rect id="Rectángulo_36269" data-name="Rectángulo 36269" width="14.315" height="20.763" rx="3.14" transform="translate(248.479 150.233)" fill="#f0f0f0"/>
        <rect id="Rectángulo_36270" data-name="Rectángulo 36270" width="9.63" height="13.974" rx="2.11" transform="translate(278.596 157.021)" fill="#e6e6e6"/>
        <rect id="Rectángulo_36271" data-name="Rectángulo 36271" width="9.63" height="1.573" rx="0.71" transform="translate(278.596 155.668)" fill="#f0f0f0"/>
        <path id="Trazado_228023" data-name="Trazado 228023" d="M318.42,280s.354,11.551,13.882,11.551S346.192,280,346.192,280Z" transform="translate(-92.774 -120.555)" fill="#e6e6e6"/>
        <rect id="Rectángulo_36272" data-name="Rectángulo 36272" width="20.473" height="4.039" transform="translate(212.473 144.188) rotate(180)" fill="#e0e0e0"/>
        <rect id="Rectángulo_36273" data-name="Rectángulo 36273" width="101.783" height="4.039" transform="translate(212.473 140.156)" fill="#f0f0f0"/>
        <rect id="Rectángulo_36274" data-name="Rectángulo 36274" width="20.473" height="4.039" transform="translate(212.473 175.035) rotate(180)" fill="#e0e0e0"/>
        <rect id="Rectángulo_36275" data-name="Rectángulo 36275" width="101.783" height="4.039" transform="translate(212.473 170.996)" fill="#f0f0f0"/>
        <rect id="Rectángulo_36276" data-name="Rectángulo 36276" width="3.777" height="87.815" transform="translate(195.6 144.188)" fill="#e0e0e0"/>
        <rect id="Rectángulo_36277" data-name="Rectángulo 36277" width="3.777" height="87.815" transform="translate(212.473 144.188)" fill="#f0f0f0"/>
        <rect id="Rectángulo_36278" data-name="Rectángulo 36278" width="3.777" height="87.815" transform="translate(297.382 144.188)" fill="#e0e0e0"/>
        <rect id="Rectángulo_36279" data-name="Rectángulo 36279" width="3.777" height="87.815" transform="translate(310.478 144.188)" fill="#f0f0f0"/>
        <rect id="Rectángulo_36280" data-name="Rectángulo 36280" width="19.36" height="112.738" transform="translate(44.198 113.957)" fill="#e6e6e6"/>
        <rect id="Rectángulo_36281" data-name="Rectángulo 36281" width="95.469" height="5.322" transform="translate(47.919 226.688)" fill="#e6e6e6"/>
        <rect id="Rectángulo_36282" data-name="Rectángulo 36282" width="83.542" height="112.738" transform="translate(147.1 226.688) rotate(180)" fill="#f0f0f0"/>
        <rect id="Rectángulo_36283" data-name="Rectángulo 36283" width="68.32" height="27.538" transform="translate(139.489 184.092) rotate(180)" fill="#e6e6e6"/>
        <rect id="Rectángulo_36284" data-name="Rectángulo 36284" width="68.32" height="27.538" transform="translate(139.489 216.647) rotate(180)" fill="#e6e6e6"/>
        <path id="Trazado_228024" data-name="Trazado 228024" d="M152.377,278.627H137.035a1.892,1.892,0,0,1-1.885-1.885h0a1.892,1.892,0,0,1,1.885-1.892h15.342a1.892,1.892,0,0,1,1.885,1.892h0a1.892,1.892,0,0,1-1.885,1.885Z" transform="translate(-39.377 -119.055)" fill="#f0f0f0"/>
        <rect id="Rectángulo_36285" data-name="Rectángulo 36285" width="68.32" height="27.538" transform="translate(139.489 151.529) rotate(180)" fill="#e6e6e6"/>
        <path id="Trazado_228025" data-name="Trazado 228025" d="M152.377,232.687H137.035a1.892,1.892,0,0,1-1.885-1.892h0a1.892,1.892,0,0,1,1.885-1.885h15.342a1.892,1.892,0,0,1,1.885,1.885h0a1.892,1.892,0,0,1-1.885,1.892Z" transform="translate(-39.377 -105.67)" fill="#f0f0f0"/>
        <path id="Trazado_228026" data-name="Trazado 228026" d="M152.377,324.567H137.035a1.892,1.892,0,0,1-1.885-1.885h0a1.892,1.892,0,0,1,1.885-1.892h15.342a1.892,1.892,0,0,1,1.885,1.892h0a1.892,1.892,0,0,1-1.885,1.885Z" transform="translate(-39.377 -132.44)" fill="#f0f0f0"/>
        <rect id="Rectángulo_36286" data-name="Rectángulo 36286" width="86.121" height="5.138" transform="translate(63.558 108.819)" fill="#e6e6e6"/>
        <rect id="Rectángulo_36287" data-name="Rectángulo 36287" width="22.067" height="5.138" transform="translate(63.558 113.95) rotate(180)" fill="#e0e0e0"/>
        <rect id="Rectángulo_36288" data-name="Rectángulo 36288" width="31.322" height="34.398" transform="translate(53.814 21.507)" fill="#e6e6e6"/>
        <rect id="Rectángulo_36289" data-name="Rectángulo 36289" width="32.357" height="34.398" transform="translate(56.174 21.507)" fill="#f0f0f0"/>
        <rect id="Rectángulo_36290" data-name="Rectángulo 36290" width="28.976" height="26.936" transform="translate(85.817 24.214) rotate(90)" fill="#fafafa"/>
        <rect id="Rectángulo_36291" data-name="Rectángulo 36291" width="14.931" height="13.875" transform="translate(79.29 31.237) rotate(90)" fill="#f0f0f0"/>
        <rect id="Rectángulo_36292" data-name="Rectángulo 36292" width="23.754" height="25.518" transform="translate(94.406 11.352)" fill="#e6e6e6"/>
        <rect id="Rectángulo_36293" data-name="Rectángulo 36293" width="24.002" height="25.518" transform="translate(96.68 11.352)" fill="#f0f0f0"/>
        <rect id="Rectángulo_36294" data-name="Rectángulo 36294" width="21.493" height="19.977" transform="translate(118.67 13.365) rotate(90)" fill="#fafafa"/>
        <path id="Trazado_228027" data-name="Trazado 228027" d="M151.114,81.35l-5.464,9.467h10.927Z" transform="translate(-42.436 -62.677)" fill="#f0f0f0"/>
      </g>
      <g id="freepik--Shadow--inject-29" transform="translate(39.762 300.507)">
        <ellipse id="Elipse_5307" data-name="Elipse 5307" cx="137.399" cy="8.022" rx="137.399" ry="8.022" fill="#f5f5f5"/>
      </g>
      <g id="freepik--speech-bubbles--inject-29" transform="translate(76.505 46.55)">
        <rect id="Rectángulo_36295" data-name="Rectángulo 36295" width="82.798" height="32.187" rx="9.37" transform="translate(144.826 70.347)" fill="#feb62b"/>
        <rect id="Rectángulo_36296" data-name="Rectángulo 36296" width="56.628" height="3.6" rx="1.64" transform="translate(151.728 75.775)" fill="#feb62b"/>
        <rect id="Rectángulo_36297" data-name="Rectángulo 36297" width="39.429" height="3.6" rx="1.64" transform="translate(151.728 84.449)" fill="#feb62b"/>
        <rect id="Rectángulo_36298" data-name="Rectángulo 36298" width="29.48" height="3.6" rx="1.64" transform="translate(151.728 93.123)" fill="#feb62b"/>
        <rect id="Rectángulo_36299" data-name="Rectángulo 36299" width="29.48" height="3.6" rx="1.64" transform="translate(185.381 93.123)" fill="#feb62b"/>
        <g id="Grupo_124073" data-name="Grupo 124073" transform="translate(151.728 75.775)" opacity="0.5">
          <rect id="Rectángulo_36300" data-name="Rectángulo 36300" width="56.628" height="3.6" rx="1.64" fill="#fff"/>
          <rect id="Rectángulo_36301" data-name="Rectángulo 36301" width="39.429" height="3.6" rx="1.64" transform="translate(0 8.674)" fill="#fff"/>
          <rect id="Rectángulo_36302" data-name="Rectángulo 36302" width="29.48" height="3.6" rx="1.64" transform="translate(0 17.348)" fill="#fff"/>
          <rect id="Rectángulo_36303" data-name="Rectángulo 36303" width="29.48" height="3.6" rx="1.64" transform="translate(33.653 17.348)" fill="#fff"/>
        </g>
        <rect id="Rectángulo_36304" data-name="Rectángulo 36304" width="98.381" height="47.196" rx="13.74" transform="translate(76.654 62.843)" fill="#feb62b"/>
        <rect id="Rectángulo_36305" data-name="Rectángulo 36305" width="83.025" height="5.279" rx="2.41" transform="translate(86.773 70.801)" fill="#feb62b"/>
        <rect id="Rectángulo_36306" data-name="Rectángulo 36306" width="57.804" height="5.279" rx="2.41" transform="translate(86.773 83.521)" fill="#feb62b"/>
        <rect id="Rectángulo_36307" data-name="Rectángulo 36307" width="43.22" height="5.279" rx="2.41" transform="translate(86.773 96.241)" fill="#feb62b"/>
        <rect id="Rectángulo_36308" data-name="Rectángulo 36308" width="36.58" height="5.279" rx="2.41" transform="translate(136.116 96.241)" fill="#feb62b"/>
        <g id="Grupo_124074" data-name="Grupo 124074" transform="translate(86.773 70.801)" opacity="0.5">
          <rect id="Rectángulo_36309" data-name="Rectángulo 36309" width="83.025" height="5.279" rx="2.41" fill="#fff"/>
          <rect id="Rectángulo_36310" data-name="Rectángulo 36310" width="57.804" height="5.279" rx="2.41" transform="translate(0 12.72)" fill="#fff"/>
          <rect id="Rectángulo_36311" data-name="Rectángulo 36311" width="43.22" height="5.279" rx="2.41" transform="translate(0 25.44)" fill="#fff"/>
          <rect id="Rectángulo_36312" data-name="Rectángulo 36312" width="36.58" height="5.279" rx="2.41" transform="translate(49.343 25.44)" fill="#fff"/>
        </g>
        <rect id="Rectángulo_36313" data-name="Rectángulo 36313" width="47.104" height="66.031" rx="6.42" transform="translate(73.685 118.592)" fill="#feb62b"/>
        <rect id="Rectángulo_36314" data-name="Rectángulo 36314" width="47.104" height="66.031" rx="6.42" transform="translate(73.685 118.592)" opacity="0.4"/>
        <rect id="Rectángulo_36315" data-name="Rectángulo 36315" width="36.198" height="2.927" rx="1.18" transform="translate(79.134 125.48)" fill="#fafafa"/>
        <rect id="Rectángulo_36316" data-name="Rectángulo 36316" width="25.206" height="2.927" rx="1.18" transform="translate(79.134 132.524)" fill="#fafafa"/>
        <rect id="Rectángulo_36317" data-name="Rectángulo 36317" width="36.198" height="2.927" rx="1.18" transform="translate(79.134 139.575)" fill="#fafafa"/>
        <rect id="Rectángulo_36318" data-name="Rectángulo 36318" width="14.506" height="2.927" rx="1.18" transform="translate(79.134 146.618)" fill="#fafafa"/>
        <rect id="Rectángulo_36319" data-name="Rectángulo 36319" width="14.506" height="2.927" rx="1.18" transform="translate(97.091 146.618)" fill="#fafafa"/>
        <rect id="Rectángulo_36320" data-name="Rectángulo 36320" width="36.198" height="2.927" rx="1.18" transform="translate(79.134 153.669)" fill="#fafafa"/>
        <rect id="Rectángulo_36321" data-name="Rectángulo 36321" width="36.198" height="2.927" rx="1.18" transform="translate(79.134 160.713)" fill="#fafafa"/>
        <rect id="Rectángulo_36322" data-name="Rectángulo 36322" width="30.075" height="2.927" rx="1.18" transform="translate(79.134 167.764)" fill="#fafafa"/>
        <rect id="Rectángulo_36323" data-name="Rectángulo 36323" width="14.924" height="2.927" rx="1.18" transform="translate(79.134 174.808)" fill="#fafafa"/>
        <path id="Trazado_228028" data-name="Trazado 228028" d="M264.826,213.33H212.11l23.307,18.545,35.737,13.464v-25.7a6.328,6.328,0,0,0-6.328-6.314Z" transform="translate(-138.305 -95.142)" fill="#feb62b"/>
        <path id="Trazado_228029" data-name="Trazado 228029" d="M264.826,213.33H212.11l23.307,18.545,35.737,13.464v-25.7a6.328,6.328,0,0,0-6.328-6.314Z" transform="translate(-138.305 -95.142)" opacity="0.4"/>
        <rect id="Rectángulo_36324" data-name="Rectángulo 36324" width="40.669" height="4.053" rx="1.48" transform="translate(84.598 127.74)" fill="#fafafa"/>
        <rect id="Rectángulo_36325" data-name="Rectángulo 36325" width="47.366" height="74.67" rx="7.26" transform="translate(217.688 126.167) rotate(90)" fill="#feb62b"/>
        <rect id="Rectángulo_36326" data-name="Rectángulo 36326" width="47.366" height="74.67" rx="7.26" transform="translate(229.445 114.418) rotate(90)" fill="#feb62b"/>
        <rect id="Rectángulo_36327" data-name="Rectángulo 36327" width="47.366" height="74.67" rx="7.26" transform="translate(229.445 114.418) rotate(90)" fill="#fff" opacity="0.5"/>
        <rect id="Rectángulo_36328" data-name="Rectángulo 36328" width="27.403" height="25.617" rx="3.23" transform="translate(222.911 118.818) rotate(90)" fill="#feb62b"/>
        <rect id="Rectángulo_36329" data-name="Rectángulo 36329" width="27.403" height="25.617" rx="3.23" transform="translate(222.911 118.818) rotate(90)" fill="#fff" opacity="0.7"/>
        <rect id="Rectángulo_36330" data-name="Rectángulo 36330" width="21.004" height="19.637" rx="2.48" transform="translate(193.283 135.727) rotate(90)" fill="#feb62b"/>
        <rect id="Rectángulo_36331" data-name="Rectángulo 36331" width="21.004" height="19.637" rx="2.48" transform="translate(193.283 135.727) rotate(90)" fill="#fff" opacity="0.3"/>
        <rect id="Rectángulo_36332" data-name="Rectángulo 36332" width="19.906" height="183.461" rx="7.38" transform="translate(183.461 29.409) rotate(90)" fill="#feb62b"/>
        <rect id="Rectángulo_36333" data-name="Rectángulo 36333" width="19.906" height="183.461" rx="7.38" transform="translate(183.461 29.409) rotate(90)" fill="#fff" opacity="0.5"/>
        <rect id="Rectángulo_36334" data-name="Rectángulo 36334" width="6.853" height="49.782" transform="translate(150.729 45.793) rotate(90)" fill="#feb62b"/>
        <rect id="Rectángulo_36335" data-name="Rectángulo 36335" width="6.853" height="49.782" transform="translate(150.729 45.793) rotate(90)" fill="#fff" opacity="0.5"/>
        <rect id="Rectángulo_36336" data-name="Rectángulo 36336" width="19.906" height="183.461" rx="7.38" transform="translate(201.312) rotate(90)" fill="#feb62b"/>
      </g>
      <g id="freepik--Character--inject-29" transform="translate(61.611 80.721)">
        <path id="Trazado_228030" data-name="Trazado 228030" d="M124.743,192.821c-.624,1.417-1.311,2.948-1.913,4.443s-1.226,3.033-1.772,4.564a64.735,64.735,0,0,0-2.686,9.163l-.206,1.134-.071.425a1.471,1.471,0,0,1-.043.418,17.384,17.384,0,0,0,.043,2.069,41.744,41.744,0,0,0,.709,4.7c.6,3.21,1.354,6.52,2.126,9.779l-3.635,1.417a65.654,65.654,0,0,1-4.316-9.63,40.392,40.392,0,0,1-1.5-5.294,19,19,0,0,1-.4-3.019c0-.283,0-.553,0-.857a4.241,4.241,0,0,1,.05-.843l.142-1.417a44.644,44.644,0,0,1,.971-5.421c.4-1.772.907-3.494,1.417-5.194s1.148-3.373,1.821-5.017c.333-.822.709-1.637,1.035-2.452a27.157,27.157,0,0,1,1.162-2.466Z" transform="translate(-93.975 -122.318)" fill="#e4897b"/>
        <path id="Trazado_228031" data-name="Trazado 228031" d="M123.036,244.69l2.764,2.7-6.031,2.835s-1.46-2.558-.446-4.868Z" transform="translate(-96.272 -138.45)" fill="#e4897b"/>
        <path id="Trazado_228032" data-name="Trazado 228032" d="M128.366,252.518l-5.1,2.083-3.161-3.3,6.023-2.806Z" transform="translate(-96.606 -139.56)" fill="#e4897b"/>
        <path id="Trazado_228033" data-name="Trazado 228033" d="M258.771,208.244a51.022,51.022,0,1,1,56.4-45.049A51.022,51.022,0,0,1,258.771,208.244Z" transform="translate(-123.798 -98.192)" fill="#fafafa" opacity="0.4"/>
        <path id="Trazado_228034" data-name="Trazado 228034" d="M295.981,118.422l-77.6,62c-.326-.709-.645-1.417-.943-2.126a50.483,50.483,0,0,1-3.692-14.513h0l67.024-53.552a50.42,50.42,0,0,1,15.208,8.192Z" transform="translate(-123.889 -99.275)" fill="#fafafa" opacity="0.4"/>
        <path id="Trazado_228035" data-name="Trazado 228035" d="M317.848,151.714,244.893,210a50.924,50.924,0,0,1-17.553-15.08L307,131.27a51.022,51.022,0,0,1,10.849,20.444Z" transform="translate(-127.848 -105.405)" fill="#fafafa" opacity="0.4"/>
        <path id="Trazado_228036" data-name="Trazado 228036" d="M204.113,135.442l-.673-.227a62.134,62.134,0,0,1,4.379-9.956l.616.34a61.6,61.6,0,0,0-4.323,9.843Zm8.6-16.54-.574-.418a61.44,61.44,0,0,1,22.23-18.574l.319.638a60.759,60.759,0,0,0-21.975,18.375Zm77.66-17.383a59.244,59.244,0,0,0-7.171-3.253l.255-.666a60.677,60.677,0,0,1,7.242,3.316Z" transform="translate(-120.885 -95.595)" fill="#feb62b"/>
        <path id="Trazado_228037" data-name="Trazado 228037" d="M204.113,135.442l-.673-.227a62.134,62.134,0,0,1,4.379-9.956l.616.34a61.6,61.6,0,0,0-4.323,9.843Zm8.6-16.54-.574-.418a61.44,61.44,0,0,1,22.23-18.574l.319.638a60.759,60.759,0,0,0-21.975,18.375Zm77.66-17.383a59.244,59.244,0,0,0-7.171-3.253l.255-.666a60.677,60.677,0,0,1,7.242,3.316Z" transform="translate(-120.885 -95.595)" opacity="0.3"/>
        <path id="Trazado_228038" data-name="Trazado 228038" d="M286.076,128.055A58.817,58.817,0,0,0,177.9,173.926c-4.734,1.658-9.411,3.437-14.059,5.272q-10.056,3.99-19.927,8.334c-6.576,2.913-13.124,5.882-19.608,8.986-3.253,1.524-6.463,3.132-9.7,4.691a14.024,14.024,0,0,0-4.493,3.083,13.571,13.571,0,0,0-1.821,2.388,12.224,12.224,0,0,0-1.417,3.281,9.014,9.014,0,0,0,5.194,10.523,12.444,12.444,0,0,0,3.444.893,13.379,13.379,0,0,0,3.012,0,14,14,0,0,0,5.173-1.694c3.21-1.623,6.442-3.189,9.63-4.854,6.378-3.253,12.756-6.647,19.055-10.091s12.607-7.051,18.758-10.75c4.252-2.572,8.546-5.2,12.756-7.951A58.817,58.817,0,0,0,286.09,128.055Zm-32.215,67.7a46.437,46.437,0,1,1,21.082-62.2,46.437,46.437,0,0,1-21.082,62.2Z" transform="translate(-92.667 -94.77)" fill="url(#linear-gradient)"/>
        <path id="Trazado_228039" data-name="Trazado 228039" d="M286.076,128.055A58.817,58.817,0,0,0,177.9,173.926c-4.734,1.658-9.411,3.437-14.059,5.272q-10.056,3.99-19.927,8.334c-6.576,2.913-13.124,5.882-19.608,8.986-3.253,1.524-6.463,3.132-9.7,4.691a14.024,14.024,0,0,0-4.493,3.083,13.571,13.571,0,0,0-1.821,2.388,12.224,12.224,0,0,0-1.417,3.281,9.014,9.014,0,0,0,5.194,10.523,12.444,12.444,0,0,0,3.444.893,13.379,13.379,0,0,0,3.012,0,14,14,0,0,0,5.173-1.694c3.21-1.623,6.442-3.189,9.63-4.854,6.378-3.253,12.756-6.647,19.055-10.091s12.607-7.051,18.758-10.75c4.252-2.572,8.546-5.2,12.756-7.951A58.817,58.817,0,0,0,286.09,128.055Zm-32.215,67.7a46.437,46.437,0,1,1,21.082-62.2,46.437,46.437,0,0,1-21.082,62.2Z" transform="translate(-92.667 -94.431)" opacity="0.3"/>
        <path id="Trazado_228040" data-name="Trazado 228040" d="M158,158.238c0,.418.22.758.5.758s.5-.34.5-.758-.22-.758-.5-.758S158,157.848,158,158.238Z" transform="translate(-107.646 -113.041)" fill="#263238"/>
        <path id="Trazado_228041" data-name="Trazado 228041" d="M158.28,159.62a15.116,15.116,0,0,0,2.005,3.593,2.416,2.416,0,0,1-2.005.376Z" transform="translate(-107.727 -113.665)" fill="#de5753"/>
        <path id="Trazado_228042" data-name="Trazado 228042" d="M155.827,154.873a.262.262,0,0,1-.206-.1.255.255,0,0,1,.057-.347,2.431,2.431,0,0,1,2.218-.376.248.248,0,1,1-.177.461,1.935,1.935,0,0,0-1.75.319A.255.255,0,0,1,155.827,154.873Z" transform="translate(-106.94 -112.008)" fill="#263238"/>
        <path id="Trazado_228043" data-name="Trazado 228043" d="M137.316,163c.709,3.805,1.488,10.786-1.176,13.33,0,0,1.042,3.862,8.121,3.862,7.8,0,3.713-3.862,3.713-3.862-4.252-1.02-4.131-4.167-3.394-7.129Z" transform="translate(-101.277 -114.65)" fill="#e4897b"/>
        <path id="Trazado_228044" data-name="Trazado 228044" d="M131.414,182.378c.843-1.311-.574-4.493-.574-4.493s12.529-3.153,17.652,1.687c1.063,1-.113,2.473-.113,2.473Z" transform="translate(-99.732 -118.692)" fill="#feb62b"/>
        <path id="Trazado_228045" data-name="Trazado 228045" d="M131.414,182.378c.843-1.311-.574-4.493-.574-4.493s12.529-3.153,17.652,1.687c1.063,1-.113,2.473-.113,2.473Z" transform="translate(-99.732 -118.692)" opacity="0.1"/>
        <path id="Trazado_228046" data-name="Trazado 228046" d="M101.558,387.968c-.659,0-1.715-1.1-2.027-1.509a.121.121,0,0,1,0-.135.128.128,0,0,1,.113-.064c.078,0,1.814.156,2.289.772a.574.574,0,0,1,.113.468.51.51,0,0,1-.368.461Zm-1.644-1.417c.517.6,1.346,1.268,1.7,1.183,0,0,.142-.035.184-.262a.319.319,0,0,0-.071-.269,3.31,3.31,0,0,0-1.814-.666Z" transform="translate(-90.604 -179.698)" fill="#feb62b"/>
        <path id="Trazado_228047" data-name="Trazado 228047" d="M99.986,386.1a1.9,1.9,0,0,1-.383,0,.113.113,0,0,1-.1-.078.142.142,0,0,1,0-.128c.05-.043,1.091-1.127,1.878-1.127h0a.666.666,0,0,1,.5.213.4.4,0,0,1,.1.5C101.779,385.875,100.694,386.1,99.986,386.1Zm-.092-.248c.709,0,1.736-.22,1.906-.531,0,0,.05-.092-.064-.206a.418.418,0,0,0-.326-.135h0a3,3,0,0,0-1.517.872Z" transform="translate(-90.598 -179.263)" fill="#feb62b"/>
        <path id="Trazado_228048" data-name="Trazado 228048" d="M167.693,410.848a9.393,9.393,0,0,1-1.6-.149.113.113,0,0,1-.092-.113.128.128,0,0,1,.057-.128c.078-.043,1.892-1.084,2.764-.843a.609.609,0,0,1,.39.283.468.468,0,0,1,0,.539C169,410.756,168.359,410.848,167.693,410.848Zm-1.2-.333c.964.142,2.282.135,2.523-.206.035-.043.064-.12,0-.269a.4.4,0,0,0-.241-.177A4.446,4.446,0,0,0,166.5,410.515Z" transform="translate(-109.976 -186.492)" fill="#feb62b"/>
        <path id="Trazado_228049" data-name="Trazado 228049" d="M166.119,410.208a.128.128,0,0,1-.071,0,.113.113,0,0,1-.05-.12,3.458,3.458,0,0,1,.808-2.005.886.886,0,0,1,.709-.205.409.409,0,0,1,.461.34c.092.588-1.148,1.715-1.779,2Zm1.268-2.126a.645.645,0,0,0-.425.156,2.835,2.835,0,0,0-.709,1.609c.638-.39,1.488-1.268,1.417-1.623,0,0,0-.12-.241-.142Z" transform="translate(-109.975 -185.993)" fill="#feb62b"/>
        <path id="Trazado_228050" data-name="Trazado 228050" d="M158.09,406.034H163.3l.517-12.054h-5.209Z" transform="translate(-107.672 -181.947)" fill="#e4897b"/>
        <path id="Trazado_228051" data-name="Trazado 228051" d="M92.64,378.451l4.351,2.849,9.609-8.114-4.358-2.856Z" transform="translate(-88.603 -175.056)" fill="#e4897b"/>
        <path id="Trazado_228052" data-name="Trazado 228052" d="M96.047,383.864l-4.521-3.706a.446.446,0,0,0-.567,0l-3.727,2.927a.765.765,0,0,0,0,1.2c1.6,1.268,2.445,1.807,4.436,3.437,1.226,1,4.252,4.061,5.96,5.442s3.274-.106,2.707-.822a17.854,17.854,0,0,1-3.834-7.689,1.283,1.283,0,0,0-.454-.787Z" transform="translate(-86.943 -177.89)" fill="#263238"/>
        <path id="Trazado_228053" data-name="Trazado 228053" d="M162.445,410.14h-5.669a.461.461,0,0,0-.446.354l-1.028,4.627a.758.758,0,0,0,.751.928c2.048-.035,5.01-.156,7.59-.156,3.012,0,5.62.163,9.149.163,2.126,0,2.735-2.161,1.835-2.353-4.068-.893-7.4-.985-10.913-3.161A2.438,2.438,0,0,0,162.445,410.14Z" transform="translate(-106.854 -186.655)" fill="#263238"/>
        <path id="Trazado_228054" data-name="Trazado 228054" d="M118.746,183.76c-4.514,2.126-7.086,16.37-7.086,16.37l11.034,4.4a82.082,82.082,0,0,0,3.9-12.153C128.115,185.815,123.367,181.563,118.746,183.76Z" transform="translate(-94.144 -120.528)" fill="#0059d6"/>
        <path id="Trazado_228055" data-name="Trazado 228055" d="M128.061,195.084c-2.728,2.764-3.976,8.178-4.521,11.7l2.643,1.056a82.7,82.7,0,0,0,3.827-11.8C129.776,194.538,129.195,193.936,128.061,195.084Z" transform="translate(-97.605 -123.823)" fill="#203048"/>
        <path id="Trazado_228056" data-name="Trazado 228056" d="M152.151,183.2s5.542,6.264.312,45H124.62c-.191-4.252,2.494-25.121-1.63-45.261a71.264,71.264,0,0,1,9.319-1.176,99.823,99.823,0,0,1,11.834,0,52.575,52.575,0,0,1,8.008,1.439Z" transform="translate(-97.445 -120.064)" fill="#0059d6"/>
        <path id="Trazado_228057" data-name="Trazado 228057" d="M165.332,201.756l-4.691-8.086a41.321,41.321,0,0,0-1.1,11.53c.128,2.778,2.672,13.067,4.961,14.57A163.586,163.586,0,0,0,165.332,201.756Z" transform="translate(-108.082 -123.585)" fill="#203048"/>
        <path id="Trazado_228058" data-name="Trazado 228058" d="M165.468,191.67c.709,3.444,1.417,6.973,2.176,10.431s1.545,6.931,2.459,10.282c.234.829.454,1.679.709,2.473l.191.609.092.3v-.035c-.05-.064-.106-.071-.064,0a2.374,2.374,0,0,0,1.077.673,12.642,12.642,0,0,0,2.062.574,55.126,55.126,0,0,0,10.134.659l.673,3.855c-.95.3-1.835.524-2.771.744s-1.857.4-2.8.546a30.28,30.28,0,0,1-5.9.4,16.023,16.023,0,0,1-3.26-.425,9.489,9.489,0,0,1-3.742-1.736,6.838,6.838,0,0,1-1.75-2.126c-.113-.213-.213-.454-.3-.659l-.128-.333-.262-.709c-.361-.9-.659-1.786-.985-2.672-1.2-3.543-2.2-7.122-3.076-10.693s-1.637-7.136-2.268-10.8Z" transform="translate(-107.567 -123.003)" fill="#e4897b"/>
        <path id="Trazado_228059" data-name="Trazado 228059" d="M154.234,187.53c-1.467,4.755,4.479,18.935,4.479,18.935l11.841-2.976a42.9,42.9,0,0,0-3.153-13.216C163.333,181.457,155.992,181.825,154.234,187.53Z" transform="translate(-106.481 -120.599)" fill="#0059d6"/>
        <path id="Trazado_228060" data-name="Trazado 228060" d="M193.7,228.259l5.9-.149-2.835,6.137s-2.4.319-4.372-2.92l-2.076-2.48,2.388-.475a5.332,5.332,0,0,1,1-.113Z" transform="translate(-117.059 -133.62)" fill="#e4897b"/>
        <path id="Trazado_228061" data-name="Trazado 228061" d="M205.965,229.251l-3.373,5.088-3.182-.092,2.835-6.137Z" transform="translate(-119.711 -133.62)" fill="#e4897b"/>
        <path id="Trazado_228062" data-name="Trazado 228062" d="M163.918,393.98l-.269,6.215H158.44l.269-6.215Z" transform="translate(-107.774 -181.947)" fill="#ce6f64"/>
        <path id="Trazado_228063" data-name="Trazado 228063" d="M104.153,370.33l4.358,2.856-4.961,4.181L99.2,374.518Z" transform="translate(-90.514 -175.056)" fill="#ce6f64"/>
        <path id="Trazado_228064" data-name="Trazado 228064" d="M138.253,154.169c.312,5.152.234,8.192,2.835,10.835,3.912,3.99,10.282,1.63,11.515-3.543,1.113-4.635.418-12.288-4.627-14.343a7.086,7.086,0,0,0-9.723,7.051Z" transform="translate(-101.888 -109.872)" fill="#e4897b"/>
        <path id="Trazado_228065" data-name="Trazado 228065" d="M129.633,150.874c1.283,4.7,4.3,10.112,8.206,10.46,4.847.425,7.037-4.585,7.675-9.758,2.905-1.991,1.382-4.181,4.294-4.457,3.742-.354,2.544-7.2-2.381-8.3,0,0,1.651,3.083-1.814,1.524a20,20,0,0,0-10.587-1.835s4.422,2.211.1,3.2-5.612,3.65-3.621,5.258A3.006,3.006,0,0,0,129.633,150.874Z" transform="translate(-99.333 -107.484)" fill="#263238"/>
        <path id="Trazado_228066" data-name="Trazado 228066" d="M147.938,157.6a5.825,5.825,0,0,0,1.467,3.451c1.134,1.254,2.317.475,2.516-1.049.184-1.368-.191-3.671-1.58-4.365S147.846,156.051,147.938,157.6Z" transform="translate(-104.712 -112.442)" fill="#e4897b"/>
        <path id="Trazado_228067" data-name="Trazado 228067" d="M135.143,247.357s5.074,36.743,1.077,51.469c-6.335,23.314-30.557,42.993-30.557,42.993l-8.213-5.386s20.629-16.618,23.151-36.141c2.268-17.525-3.423-38.72-3.423-52.943Z" transform="translate(-90.004 -139.225)" fill="#204f64"/>
        <path id="Trazado_228068" data-name="Trazado 228068" d="M135.143,247.357s5.074,36.743,1.077,51.469c-6.335,23.314-30.557,42.993-30.557,42.993l-8.213-5.386s20.629-16.618,23.151-36.141c2.268-17.525-3.423-38.72-3.423-52.943Z" transform="translate(-90.695 -139.225)" opacity="0.1"/>
        <path id="Trazado_228071" data-name="Trazado 228071" d="M108.713,375.561c.035,0-3.182,2.126-3.182,2.126l-8.971-5.882,2.835-2.346Z" transform="translate(-89.745 -174.803)" fill="#feb62b"/>
        <path id="Trazado_228072" data-name="Trazado 228072" d="M108.713,375.561c.035,0-3.182,2.126-3.182,2.126l-8.971-5.882,2.835-2.346Z" transform="translate(-89.745 -174.803)" opacity="0.3"/>
        <path id="Trazado_228073" data-name="Trazado 228073" d="M157.054,247.36s7.838,33.235,8.39,49.116c.624,17.8-5.591,59.8-5.591,59.8h-8.823s-1.084-42.32-1.474-58.534c-.432-17.681-10.807-50.378-10.807-50.378Z" transform="translate(-102.037 -139.228)" fill="#204f64"/>
        <path id="Trazado_228074" data-name="Trazado 228074" d="M157.054,247.36s7.838,33.235,8.39,49.116c.624,17.8-5.591,59.8-5.591,59.8h-8.823s-1.084-42.32-1.474-58.534c-.432-17.681-10.807-50.378-10.807-50.378Z" transform="translate(-102.728 -139.228)" opacity="0.1"/>
        <path id="Trazado_228075" data-name="Trazado 228075" d="M166.185,396.1c.043,0-.5,3.657-.5,3.657H154.961l-.291-3.267Z" transform="translate(-106.675 -182.565)" fill="#feb62b"/>
        <path id="Trazado_228076" data-name="Trazado 228076" d="M166.185,396.1c.043,0-.5,3.657-.5,3.657H154.961l-.291-3.267Z" transform="translate(-106.675 -182.565)" opacity="0.3"/>
      </g>
      <g id="freepik--character--inject-29-2" data-name="freepik--character--inject-29" transform="translate(215.172 125.072)">
        <path id="Trazado_228077" data-name="Trazado 228077" d="M354.473,202.29c.6.567,1.077,1.049,1.573,1.587s.964,1.063,1.417,1.609c.921,1.084,1.786,2.225,2.622,3.373a54.045,54.045,0,0,1,4.443,7.271l.262.517a5,5,0,0,1,.319.78,6.463,6.463,0,0,1,.312,1.6,7.794,7.794,0,0,1-.39,2.835,14.287,14.287,0,0,1-2.275,4.2,30.246,30.246,0,0,1-6.236,6l-1.764-2.027c.829-.971,1.694-2.013,2.466-3.054a26.048,26.048,0,0,0,2.126-3.189,11.077,11.077,0,0,0,1.29-3.132,3.246,3.246,0,0,0,.05-1.2,1.573,1.573,0,0,0-.128-.39,1.125,1.125,0,0,0-.092-.156l-.227-.383a74.456,74.456,0,0,0-4.443-6.456c-.787-1.042-1.63-2.041-2.48-3.026-.418-.5-.85-.978-1.283-1.46s-.9-.964-1.276-1.339Z" transform="translate(-317.368 -170.447)" fill="#e4897b"/>
        <path id="Trazado_228078" data-name="Trazado 228078" d="M355.184,240.235l-5.294-.865L352.661,244s3.409-.12,4.379-2.126Z" transform="translate(-317.115 -181.251)" fill="#e4897b"/>
        <path id="Trazado_228079" data-name="Trazado 228079" d="M344.37,241.51l2.523,3.763,4.16-1.268-2.771-4.635Z" transform="translate(-315.506 -181.251)" fill="#e4897b"/>
        <path id="Trazado_228080" data-name="Trazado 228080" d="M356.492,410.728a1.524,1.524,0,0,1-1.013-.276.709.709,0,0,1-.206-.666.418.418,0,0,1,.248-.354c.617-.276,2.232.758,2.416.879a.128.128,0,0,1-.043.227,6.273,6.273,0,0,1-1.4.191Zm-.709-1.1a.511.511,0,0,0-.156,0,.184.184,0,0,0-.106.163.475.475,0,0,0,.128.446,2.549,2.549,0,0,0,1.892.092,4.669,4.669,0,0,0-1.757-.7Z" transform="translate(-318.678 -230.785)" fill="#feb62b"/>
        <path id="Trazado_228081" data-name="Trazado 228081" d="M358.413,410.015h-.064c-.5-.291-1.474-1.417-1.354-2.034a.461.461,0,0,1,.425-.354.638.638,0,0,1,.531.17c.581.51.588,2.041.588,2.126a.135.135,0,0,1-.064.106Zm-.907-2.126h-.057c-.156,0-.191.085-.206.149-.071.361.531,1.226,1.035,1.63a2.9,2.9,0,0,0-.489-1.672.4.4,0,0,0-.319-.106Z" transform="translate(-319.182 -230.272)" fill="#feb62b"/>
        <path id="Trazado_228082" data-name="Trazado 228082" d="M322.295,410.727a1.963,1.963,0,0,1-1.283-.326.709.709,0,0,1-.234-.609.411.411,0,0,1,.213-.333c.659-.368,2.771.709,3.012.843a.142.142,0,0,1,.064.135.12.12,0,0,1-.1.1A8.835,8.835,0,0,1,322.295,410.727Zm-.942-1.1a.439.439,0,0,0-.234.05.149.149,0,0,0-.085.135.461.461,0,0,0,.142.4,3.38,3.38,0,0,0,2.374.142,6.894,6.894,0,0,0-2.2-.73Z" transform="translate(-308.631 -230.785)" fill="#feb62b"/>
        <path id="Trazado_228083" data-name="Trazado 228083" d="M324.49,410.016h-.057c-.631-.283-1.885-1.417-1.786-2.034,0-.142.128-.319.475-.354a.935.935,0,0,1,.709.22,3.506,3.506,0,0,1,.794,2.048.12.12,0,0,1-.05.113.134.134,0,0,1-.085.007Zm-1.268-2.126h-.078c-.227,0-.241.113-.248.142-.057.361.794,1.261,1.417,1.651a2.948,2.948,0,0,0-.709-1.637A.659.659,0,0,0,323.222,407.89Z" transform="translate(-309.176 -230.272)" fill="#feb62b"/>
        <path id="Trazado_228084" data-name="Trazado 228084" d="M333.5,179.3c-.206,3.2-.758,9.708,1.7,11.508,0,0-.446,3.281-6.25,4.046-6.378.829-3.465-2.771-3.465-2.771,3.38-1.29,2.948-3.862,2.027-6.215Z" transform="translate(-309.811 -163.749)" fill="#e4897b"/>
        <path id="Trazado_228085" data-name="Trazado 228085" d="M317.559,170.776a.241.241,0,0,1-.184-.085,2.005,2.005,0,0,0-1.665-.709.248.248,0,0,1-.291-.213.255.255,0,0,1,.22-.283,2.487,2.487,0,0,1,2.126.893.255.255,0,0,1-.191.418Z" transform="translate(-307.071 -160.887)" fill="#263238"/>
        <path id="Trazado_228086" data-name="Trazado 228086" d="M316.405,175.74a11.537,11.537,0,0,1-1.155,2.905,1.828,1.828,0,0,0,1.552.085Z" transform="translate(-307.022 -162.712)" fill="#de5753"/>
        <path id="Trazado_228087" data-name="Trazado 228087" d="M316.866,174.35c.057.425-.12.794-.4.836s-.553-.283-.6-.709.12-.794.4-.829S316.816,173.9,316.866,174.35Z" transform="translate(-307.199 -162.102)" fill="#263238"/>
        <path id="Trazado_228088" data-name="Trazado 228088" d="M316.176,173.593l-1.056-.163S315.744,174.16,316.176,173.593Z" transform="translate(-306.984 -162.039)" fill="#263238"/>
        <path id="Trazado_228089" data-name="Trazado 228089" d="M331.159,405.785h-5.315l-.354-12.295H330.8Z" transform="translate(-310.006 -226.155)" fill="#e4897b"/>
        <path id="Trazado_228090" data-name="Trazado 228090" d="M364.653,405.785h-5.315L357.63,393.49h5.315Z" transform="translate(-319.37 -226.155)" fill="#e4897b"/>
        <path id="Trazado_228091" data-name="Trazado 228091" d="M356.445,410h5.967a.418.418,0,0,1,.418.361l.709,4.727a.85.85,0,0,1-.85.943c-2.076-.035-3.083-.156-5.7-.156-1.616,0-3.975.163-6.2.163s-2.346-2.2-1.417-2.4c4.16-.893,4.819-2.126,6.215-3.309A1.417,1.417,0,0,1,356.445,410Z" transform="translate(-316.803 -230.965)" fill="#263238"/>
        <path id="Trazado_228092" data-name="Trazado 228092" d="M322.2,410h5.96a.425.425,0,0,1,.425.361l.709,4.727a.85.85,0,0,1-.85.943c-2.076-.035-3.083-.156-5.7-.156-1.616,0-4.961.163-7.186.163s-2.346-2.2-1.417-2.4c4.16-.893,5.8-2.126,7.2-3.309A1.417,1.417,0,0,1,322.2,410Z" transform="translate(-306.538 -230.965)" fill="#263238"/>
        <path id="Trazado_228093" data-name="Trazado 228093" d="M325.49,393.49l.184,6.342h5.315l-.184-6.342Z" transform="translate(-310.006 -226.155)" fill="#ce6f64"/>
        <path id="Trazado_228094" data-name="Trazado 228094" d="M362.945,393.49H357.63l.886,6.342h5.308Z" transform="translate(-319.37 -226.155)" fill="#ce6f64"/>
        <path id="Trazado_228095" data-name="Trazado 228095" d="M331.121,167.154c.361,5.258.624,7.476-1.658,10.5-3.437,4.542-9.971,3.841-11.9-1.2-1.736-4.542-2.034-12.373,2.8-15.122a7.193,7.193,0,0,1,10.757,5.825Z" transform="translate(-307.359 -158.236)" fill="#e4897b"/>
        <path id="Trazado_228096" data-name="Trazado 228096" d="M333.637,171.156c2.948,1.644,5.138-2.409,5.138-2.409s-5.286.574-4.812-2.572c.624-4.174-2.367-9.248-9.864-8.6-.418.035-.815.085-1.2.149a3.855,3.855,0,0,0-4.663,1.077,3.962,3.962,0,0,0-3.047,6.066,3.083,3.083,0,0,1,.624-1.042c.163,1.963,1.878,5.081,4.018,5.286.461,2.686-1.325,5.8-.709,8.6.914,4.046,7.738,4.961,7.738,4.961a2.955,2.955,0,0,1,.4-3.125c4.635,2.126,7.689.05,7.689.05-3.161-1.176-2.2-3.274-2.2-3.274a4.613,4.613,0,0,0,6.016-2.19,5.442,5.442,0,0,1-5.116-2.983Z" transform="translate(-306.814 -157.355)" fill="#263238"/>
        <path id="Trazado_228097" data-name="Trazado 228097" d="M323.14,174.347a3.827,3.827,0,0,1-1.063,2.742c-.935.971-2.083.291-2.4-.95-.276-1.12-.12-2.969,1.1-3.479a1.729,1.729,0,0,1,2.36,1.687Z" transform="translate(-308.279 -161.78)" fill="#e4897b"/>
        <path id="Trazado_228098" data-name="Trazado 228098" d="M330.84,243.378s1.346,34.979,4.549,55.515c2.579,16.6,14.038,55.373,14.038,55.373h7.242s-5.974-37.452-7.285-53.857c-3.316-41.519,5.294-50.434-2.835-59.08Z" transform="translate(-311.564 -181.822)" fill="#263238"/>
        <path id="Trazado_228099" data-name="Trazado 228099" d="M337.247,259.824s-3.274-.567-5.187,5.669c.709,11.813,1.92,27.488,3.685,38.784.39,2.516.985,5.549,1.715,8.872C336.078,293.195,337.247,259.824,337.247,259.824Z" transform="translate(-311.92 -187.206)" fill="#161f33"/>
        <path id="Trazado_228100" data-name="Trazado 228100" d="M320.554,244.424s-5.967,38.7-5.62,54.892c.361,16.844,6.534,55.274,6.534,55.274h7.179s-1.134-37.431-.5-53.97c.709-18.035,8.071-58.229,8.071-58.229Z" transform="translate(-306.926 -182.131)" fill="#263238"/>
        <path id="Trazado_228101" data-name="Trazado 228101" d="M364.5,399.851h-9.63l-.751-3.231,10.311.071Z" transform="translate(-318.347 -227.067)" fill="#feb62b"/>
        <path id="Trazado_228102" data-name="Trazado 228102" d="M364.5,399.851h-9.63l-.751-3.231,10.311.071Z" transform="translate(-318.347 -227.067)" opacity="0.2"/>
        <path id="Trazado_228103" data-name="Trazado 228103" d="M350.373,195.544c2.771.269,6.98,8.142,6.98,8.142l-6.994,5.364s-5.79-5.081-5.1-7.937C345.972,198.145,347.716,195.3,350.373,195.544Z" transform="translate(-315.748 -168.477)" fill="#79fbd0"/>
        <path id="Trazado_228104" data-name="Trazado 228104" d="M350.373,195.544c2.771.269,6.98,8.142,6.98,8.142l-6.994,5.364s-5.79-5.081-5.1-7.937C345.972,198.145,347.716,195.3,350.373,195.544Z" transform="translate(-315.582 -168.477)" opacity="0.1"/>
        <path id="Trazado_228105" data-name="Trazado 228105" d="M348.281,200.228a7.179,7.179,0,0,0-2.168-.241,11.98,11.98,0,0,0-.857,2.424c-.709,2.835,5.1,7.937,5.1,7.937l.517-.4Z" transform="translate(-315.747 -169.775)" fill="#feb62b"/>
        <path id="Trazado_228106" data-name="Trazado 228106" d="M348.281,200.228a7.179,7.179,0,0,0-2.168-.241,11.98,11.98,0,0,0-.857,2.424c-.709,2.835,5.1,7.937,5.1,7.937l.517-.4Z" transform="translate(-315.747 -169.775)" opacity="0.3"/>
        <path id="Trazado_228107" data-name="Trazado 228107" d="M314.893,210.126c-2.02,5.109-4.146,10.3-5.839,15.427-.113.326-.206.638-.3.957l-.241.787a1.3,1.3,0,0,0,0,.709,5.33,5.33,0,0,0,1.835,2.2,29.9,29.9,0,0,0,6.867,3.678l-.638,2.608a24.582,24.582,0,0,1-8.56-2.792,9.163,9.163,0,0,1-3.82-3.869,5.931,5.931,0,0,1-.489-3.373,3.947,3.947,0,0,1,.071-.418l.071-.3.12-.539c.085-.361.17-.709.262-1.063.709-2.835,1.616-5.527,2.572-8.2s1.956-5.308,3.083-7.937Z" transform="translate(-303.639 -172.111)" fill="#e4897b"/>
        <path id="Trazado_228108" data-name="Trazado 228108" d="M313.332,199.259s-2.4,1.212,6.675,31.45l21.387-2.792c-1.5-8.66-2.211-14.024-.39-32.435a64.485,64.485,0,0,0-9.212,0,67.677,67.677,0,0,0-9.716,1.276C317.974,197.672,313.332,199.259,313.332,199.259Z" transform="translate(-306.38 -168.416)" fill="#79fbd0"/>
        <path id="Trazado_228109" data-name="Trazado 228109" d="M313.332,199.259s-2.4,1.212,6.675,31.45l21.387-2.792c-1.5-8.66-2.211-14.024-.39-32.435a64.485,64.485,0,0,0-9.212,0,67.677,67.677,0,0,0-9.716,1.276C317.974,197.672,313.332,199.259,313.332,199.259Z" transform="translate(-306.213 -168.416)" opacity="0.1"/>
        <path id="Trazado_228110" data-name="Trazado 228110" d="M344.081,239.436l1.226,1.779c.092.142-.064.312-.3.347L322.574,244.5c-.191,0-.368-.05-.4-.17l-.439-1.892c-.035-.128.12-.262.333-.291l21.656-2.835a.39.39,0,0,1,.354.128Z" transform="translate(-308.911 -181.231)" fill="#feb62b"/>
        <path id="Trazado_228111" data-name="Trazado 228111" d="M344.081,239.436l1.226,1.779c.092.142-.064.312-.3.347L322.574,244.5c-.191,0-.368-.05-.4-.17l-.439-1.892c-.035-.128.12-.262.333-.291l21.656-2.835a.39.39,0,0,1,.354.128Z" transform="translate(-308.911 -181.231)" opacity="0.2"/>
        <path id="Trazado_228112" data-name="Trazado 228112" d="M349.265,242.291l.581-.078c.113,0,.191-.085.177-.156l-.6-2.452a.206.206,0,0,0-.241-.1l-.581.071c-.12,0-.2.085-.177.163l.6,2.445C349.038,242.263,349.151,242.305,349.265,242.291Z" transform="translate(-316.688 -181.288)" fill="#263238"/>
        <path id="Trazado_228113" data-name="Trazado 228113" d="M329.425,244.85l.581-.078c.113,0,.2-.085.177-.156l-.6-2.452a.22.22,0,0,0-.241-.106l-.581.078c-.113,0-.2.085-.177.156l.6,2.452C329.2,244.85,329.311,244.892,329.425,244.85Z" transform="translate(-310.907 -182.032)" fill="#263238"/>
        <path id="Trazado_228114" data-name="Trazado 228114" d="M314.86,215.141c.588,2.735,1.417,6.2,2.629,10.587l.262-11.119Z" transform="translate(-306.908 -174.037)" fill="#feb62b"/>
        <path id="Trazado_228115" data-name="Trazado 228115" d="M314.86,215.141c.588,2.735,1.417,6.2,2.629,10.587l.262-11.119Z" transform="translate(-306.908 -174.037)" opacity="0.3"/>
        <path id="Trazado_228116" data-name="Trazado 228116" d="M311.411,200.6c-2.657,1.07-4.961,10.162-4.961,10.162l9.142,4.45s4.415-11.119,2.438-13.287S314.472,199.37,311.411,200.6Z" transform="translate(-304.458 -169.752)" fill="#79fbd0"/>
        <path id="Trazado_228117" data-name="Trazado 228117" d="M311.411,200.6c-2.657,1.07-4.961,10.162-4.961,10.162l9.142,4.45s4.415-11.119,2.438-13.287S314.472,199.37,311.411,200.6Z" transform="translate(-304.292 -169.752)" opacity="0.1"/>
        <path id="Trazado_228118" data-name="Trazado 228118" d="M331.752,399.851h-9.63l-.751-3.231,10.722.071Z" transform="translate(-308.805 -227.067)" fill="#feb62b"/>
        <path id="Trazado_228119" data-name="Trazado 228119" d="M331.752,399.851h-9.63l-.751-3.231,10.722.071Z" transform="translate(-308.805 -227.067)" opacity="0.2"/>
        <path id="Trazado_228120" data-name="Trazado 228120" d="M322.025,243.114l-.772-.319a1.162,1.162,0,0,0-1.587,1.247l.56,3.692a1.261,1.261,0,0,0,1.672,1.006,2.834,2.834,0,0,0,.78-.432,2.126,2.126,0,0,0,.765-1.757l-.078-1.531a2.126,2.126,0,0,0-1.339-1.906Z" transform="translate(-308.305 -182.224)" fill="#e4897b"/>
      </g>
    </g>
  </g>
</svg>
