<svg xmlns="http://www.w3.org/2000/svg" width="470.757" height="350.771" viewBox="0 0 470.757 350.771">
  <g id="empresas" transform="translate(0)">
    <g id="freepik--background-complete--inject-39" transform="translate(0 0)">
      <rect id="Rectángulo_37470" data-name="Rectángulo 37470" width="470.757" height="0.235" transform="translate(0 308.252)" fill="#ebebeb"/>
      <rect id="Rectángulo_37471" data-name="Rectángulo 37471" width="31.183" height="0.235" transform="translate(49.392 317.215)" fill="#ebebeb"/>
      <rect id="Rectángulo_37472" data-name="Rectángulo 37472" width="50.71" height="0.235" transform="translate(161.131 317.337)" fill="#ebebeb"/>
      <rect id="Rectángulo_37473" data-name="Rectángulo 37473" width="18.068" height="0.235" transform="translate(99.584 322.073)" fill="#ebebeb"/>
      <rect id="Rectángulo_37474" data-name="Rectángulo 37474" width="18.105" height="0.235" transform="translate(401.81 321.96)" fill="#ebebeb"/>
      <rect id="Rectángulo_37475" data-name="Rectángulo 37475" width="28.518" height="0.235" transform="translate(364.902 321.96)" fill="#ebebeb"/>
      <rect id="Rectángulo_37476" data-name="Rectángulo 37476" width="40.071" height="0.235" transform="translate(309.127 320.407)" fill="#ebebeb"/>
      <path id="Trazado_229809" data-name="Trazado 229809" d="M225.374,321.26H43.577a5.376,5.376,0,0,1-5.367-5.376V60.329A5.376,5.376,0,0,1,43.577,55h181.8a5.376,5.376,0,0,1,5.376,5.376V315.884A5.376,5.376,0,0,1,225.374,321.26ZM43.577,55.188a5.141,5.141,0,0,0-5.131,5.141V315.884a5.141,5.141,0,0,0,5.131,5.141h181.8a5.15,5.15,0,0,0,5.141-5.141V60.329a5.15,5.15,0,0,0-5.141-5.141Z" transform="translate(-2.235 -55)" fill="#ebebeb"/>
      <path id="Trazado_229810" data-name="Trazado 229810" d="M441.682,321.26H259.876a5.385,5.385,0,0,1-5.376-5.376V60.329A5.385,5.385,0,0,1,259.876,55H441.682a5.376,5.376,0,0,1,5.357,5.329V315.884A5.376,5.376,0,0,1,441.682,321.26ZM259.876,55.188a5.15,5.15,0,0,0-5.141,5.141V315.884a5.15,5.15,0,0,0,5.141,5.141H441.682a5.15,5.15,0,0,0,5.141-5.141V60.329a5.15,5.15,0,0,0-5.141-5.141Z" transform="translate(-14.885 -55)" fill="#ebebeb"/>
      <rect id="Rectángulo_37477" data-name="Rectángulo 37477" width="26.664" height="132.659" transform="translate(311.208 308.252) rotate(180)" fill="#e6e6e6"/>
      <path id="Trazado_229811" data-name="Trazado 229811" d="M307.275,381.505H302.21V367.1h10.376Z" transform="translate(-17.675 -73.253)" fill="#f0f0f0"/>
      <rect id="Rectángulo_37478" data-name="Rectángulo 37478" width="26.664" height="132.659" transform="translate(410.858 308.252) rotate(180)" fill="#e6e6e6"/>
      <rect id="Rectángulo_37479" data-name="Rectángulo 37479" width="104.075" height="123.819" transform="translate(388.619 299.411) rotate(180)" fill="#f0f0f0"/>
      <rect id="Rectángulo_37480" data-name="Rectángulo 37480" width="24.075" height="46.407" transform="translate(288.47 281.4) rotate(-90)" fill="#e6e6e6"/>
      <rect id="Rectángulo_37481" data-name="Rectángulo 37481" width="24.075" height="46.407" transform="translate(338.276 281.4) rotate(-90)" fill="#e6e6e6"/>
      <path id="Trazado_229812" data-name="Trazado 229812" d="M378.4,332.308h9.18a14.5,14.5,0,0,0,10.545-4.538H367.86A14.5,14.5,0,0,0,378.4,332.308Z" transform="translate(-21.515 -70.953)" fill="#f0f0f0"/>
      <path id="Trazado_229813" data-name="Trazado 229813" d="M325,332.308h9.18a14.5,14.5,0,0,0,10.545-4.538H314.46A14.5,14.5,0,0,0,325,332.308Z" transform="translate(-18.392 -70.953)" fill="#f0f0f0"/>
      <rect id="Rectángulo_37482" data-name="Rectángulo 37482" width="24.075" height="46.407" transform="translate(288.461 243.975) rotate(-90)" fill="#e6e6e6"/>
      <rect id="Rectángulo_37483" data-name="Rectángulo 37483" width="24.075" height="46.407" transform="translate(338.276 243.984) rotate(-90)" fill="#e6e6e6"/>
      <path id="Trazado_229814" data-name="Trazado 229814" d="M378.4,292.557h9.18A14.527,14.527,0,0,0,398.12,288H367.86a14.529,14.529,0,0,0,10.545,4.557Z" transform="translate(-21.515 -68.627)" fill="#f0f0f0"/>
      <path id="Trazado_229815" data-name="Trazado 229815" d="M325,292.559h9.18a14.528,14.528,0,0,0,10.545-4.529H314.46A14.527,14.527,0,0,0,325,292.559Z" transform="translate(-18.392 -68.629)" fill="#f0f0f0"/>
      <rect id="Rectángulo_37484" data-name="Rectángulo 37484" width="24.075" height="46.407" transform="translate(288.47 206.559) rotate(-90)" fill="#e6e6e6"/>
      <rect id="Rectángulo_37485" data-name="Rectángulo 37485" width="24.075" height="46.407" transform="translate(338.276 206.559) rotate(-90)" fill="#e6e6e6"/>
      <path id="Trazado_229816" data-name="Trazado 229816" d="M378.4,252.818h9.18a14.5,14.5,0,0,0,10.545-4.538H367.86A14.5,14.5,0,0,0,378.4,252.818Z" transform="translate(-21.515 -66.304)" fill="#f0f0f0"/>
      <path id="Trazado_229817" data-name="Trazado 229817" d="M325,252.818h9.18a14.5,14.5,0,0,0,10.545-4.538H314.46A14.5,14.5,0,0,0,325,252.818Z" transform="translate(-18.392 -66.304)" fill="#f0f0f0"/>
      <path id="Trazado_229818" data-name="Trazado 229818" d="M407.05,381.505h5.065V367.1H401.74Z" transform="translate(-23.496 -73.253)" fill="#f0f0f0"/>
      <path id="Trazado_229819" data-name="Trazado 229819" d="M410.486,144.77l4.077,11.147h-4.077L385.47,144.77Z" transform="translate(-22.545 -60.25)" fill="#f5f5f5"/>
      <path id="Trazado_229820" data-name="Trazado 229820" d="M414.817,144.77v11.147L389.81,144.77Z" transform="translate(-22.799 -60.25)" fill="#e6e6e6"/>
      <path id="Trazado_229821" data-name="Trazado 229821" d="M306.317,144.77l4.077,11.147h-4.077L281.31,144.77Z" transform="translate(-16.453 -60.25)" fill="#f5f5f5"/>
      <path id="Trazado_229822" data-name="Trazado 229822" d="M310.647,144.77v11.147L285.64,144.77Z" transform="translate(-16.706 -60.25)" fill="#e6e6e6"/>
      <rect id="Rectángulo_37486" data-name="Rectángulo 37486" width="27.2" height="8.483" transform="translate(383.177 76.555)" fill="#e6e6e6"/>
      <rect id="Rectángulo_37487" data-name="Rectángulo 37487" width="135.23" height="8.483" transform="translate(383.177 85.047) rotate(180)" fill="#f5f5f5"/>
      <path id="Trazado_229823" data-name="Trazado 229823" d="M377.81,105s.273,29.488,10.451,29.488S398.7,105,398.7,105Z" transform="translate(-22.097 -57.924)" fill="#f0f0f0"/>
      <path id="Trazado_229824" data-name="Trazado 229824" d="M310.78,126.1s.716,9.613,28.095,9.613S366.97,126.1,366.97,126.1Z" transform="translate(-18.176 -59.158)" fill="#f0f0f0"/>
      <path id="Trazado_229825" data-name="Trazado 229825" d="M224.36,378.679h1.817l5.206-25.656.942-4.5,5.649-27.963H259.8l11.8,58.12h1.827L261.4,319.5a.885.885,0,0,0-.876-.716H237.249a.876.876,0,0,0-.866.716l-4.99,24.555-.942,4.491Z" transform="translate(-13.122 -70.427)" fill="#f0f0f0"/>
      <path id="Trazado_229826" data-name="Trazado 229826" d="M187.23,378.681h1.817l11.807-58.12h21.768l5.649,27.982.941,4.482,5.216,25.656h1.817l-6.12-30.128-.941-4.472-4.99-24.555a.941.941,0,0,0-.876-.715H200.129a.885.885,0,0,0-.876.715Z" transform="translate(-10.95 -70.429)" fill="#f0f0f0"/>
      <path id="Trazado_229827" data-name="Trazado 229827" d="M261.185,311.58H197.85a5.489,5.489,0,0,0-5.48,5.479v.189a2.005,2.005,0,0,0,2.005,2.005h70.284a2.005,2.005,0,0,0,2.005-2.005v-.189A5.489,5.489,0,0,0,261.185,311.58Z" transform="translate(-11.251 -70.006)" fill="#f0f0f0"/>
      <path id="Trazado_229828" data-name="Trazado 229828" d="M156.85,378.679h1.817l5.207-25.656.942-4.5,5.649-27.963h21.768l11.835,58.12h1.827L193.87,319.5a.885.885,0,0,0-.876-.716H169.739a.876.876,0,0,0-.866.716l-4.99,24.555-.941,4.491Z" transform="translate(-9.174 -70.427)" fill="#f0f0f0"/>
      <path id="Trazado_229829" data-name="Trazado 229829" d="M119.72,378.679h1.827l11.8-58.12h21.777l5.649,27.982.942,4.482,5.216,25.656h1.817l-6.12-30.128-.942-4.472L156.7,319.5a.941.941,0,0,0-.876-.716H132.619a.885.885,0,0,0-.876.716Z" transform="translate(-7.002 -70.427)" fill="#f0f0f0"/>
      <path id="Trazado_229830" data-name="Trazado 229830" d="M193.722,311.58H130.34a5.489,5.489,0,0,0-5.48,5.479v.189a2.006,2.006,0,0,0,2.005,2.005h70.293a2,2,0,0,0,2-2.005v-.189A5.489,5.489,0,0,0,193.722,311.58Z" transform="translate(-7.303 -70.006)" fill="#f0f0f0"/>
      <rect id="Rectángulo_37488" data-name="Rectángulo 37488" width="90.997" height="145.775" transform="translate(170.395 167.213) rotate(180)" fill="#e6e6e6"/>
      <rect id="Rectángulo_37489" data-name="Rectángulo 37489" width="94.161" height="145.775" transform="translate(167.618 167.213) rotate(180)" fill="#f0f0f0"/>
      <rect id="Rectángulo_37490" data-name="Rectángulo 37490" width="90.997" height="11.053" transform="translate(170.395 178.257) rotate(180)" fill="#e6e6e6"/>
      <rect id="Rectángulo_37491" data-name="Rectángulo 37491" width="94.161" height="11.053" transform="translate(157.713 178.257) rotate(180)" fill="#f0f0f0"/>
      <rect id="Rectángulo_37492" data-name="Rectángulo 37492" width="129.129" height="77.515" transform="translate(159.285 29.761) rotate(90)" fill="#fafafa"/>
      <path id="Trazado_229831" data-name="Trazado 229831" d="M166.763,215.729,139.5,86.61H116.43L143.7,215.729Z" transform="translate(-6.81 -56.849)" fill="#fff"/>
      <path id="Trazado_229832" data-name="Trazado 229832" d="M163.183,200.607a.593.593,0,0,0,.593-.593V92.323a.593.593,0,1,0-1.186,0v107.69A.593.593,0,0,0,163.183,200.607Z" transform="translate(-9.509 -57.148)" fill="#f0f0f0"/>
      <path id="Trazado_229833" data-name="Trazado 229833" d="M137.878,215.729,110.611,86.61H101.62l27.257,129.119Z" transform="translate(-5.943 -56.849)" fill="#fff"/>
      <rect id="Rectángulo_37493" data-name="Rectángulo 37493" width="129.129" height="1.054" transform="translate(82.834 29.761) rotate(90)" fill="#e6e6e6"/>
      <path id="Trazado_229834" data-name="Trazado 229834" d="M75.92,93.2h91l.772-3.163h-91Z" transform="translate(-4.44 -57.049)" fill="#f0f0f0" opacity="0.6"/>
      <path id="Trazado_229835" data-name="Trazado 229835" d="M75.92,101.014h91l.772-3.154h-91Z" transform="translate(-4.44 -57.507)" fill="#f0f0f0" opacity="0.6"/>
      <path id="Trazado_229836" data-name="Trazado 229836" d="M75.92,108.833h91l.772-3.163h-91Z" transform="translate(-4.44 -57.963)" fill="#f0f0f0" opacity="0.6"/>
      <path id="Trazado_229837" data-name="Trazado 229837" d="M75.92,116.644h91l.772-3.154h-91Z" transform="translate(-4.44 -58.421)" fill="#f0f0f0" opacity="0.6"/>
      <path id="Trazado_229838" data-name="Trazado 229838" d="M75.92,124.464h91l.772-3.154h-91Z" transform="translate(-4.44 -58.878)" fill="#f0f0f0" opacity="0.6"/>
      <path id="Trazado_229839" data-name="Trazado 229839" d="M75.92,132.283h91l.772-3.163h-91Z" transform="translate(-4.44 -59.335)" fill="#f0f0f0" opacity="0.6"/>
    </g>
    <g id="freepik--Shadow--inject-39" transform="translate(52.829 329.455)">
      <ellipse id="freepik--path--inject-39" cx="182.55" cy="10.658" rx="182.55" ry="10.658" fill="#f5f5f5"/>
    </g>
    <g id="freepik--Briefcases--inject-39" transform="translate(79.087 4.99)">
      <rect id="Rectángulo_37494" data-name="Rectángulo 37494" width="60.455" height="26.927" rx="1.56" transform="translate(90.828 190.591)" fill="#0059d6"/>
      <rect id="Rectángulo_37495" data-name="Rectángulo 37495" width="60.455" height="26.927" rx="1.56" transform="translate(90.828 190.591)" fill="#fff" opacity="0.6"/>
      <path id="Trazado_229840" data-name="Trazado 229840" d="M239.445,262.73H181.909a1.469,1.469,0,0,0-1.469,1.469v7.692l29.94,5.894a1.388,1.388,0,0,0,.555,0l29.95-5.894V264.2a1.469,1.469,0,0,0-1.441-1.469Z" transform="translate(-89.64 -72.139)" opacity="0.1"/>
      <path id="Trazado_229841" data-name="Trazado 229841" d="M240.632,251.8H223.063v-2.947a4.6,4.6,0,0,0-4.595-4.595h-15.7a4.6,4.6,0,0,0-4.595,4.595V251.8H180.62a1.45,1.45,0,0,0-1.45,1.45V267.76a1.459,1.459,0,0,0,1.167,1.422l30.006,5.9a1.829,1.829,0,0,0,.556,0l30.006-5.9a1.469,1.469,0,0,0,1.177-1.422V253.251A1.45,1.45,0,0,0,240.632,251.8Zm-38.96-2.947a1.121,1.121,0,0,1,1.1-1.111h15.7a1.12,1.12,0,0,1,1.1,1.111V251.8H201.682Z" transform="translate(-89.566 -71.059)" fill="#0059d6"/>
      <path id="Trazado_229842" data-name="Trazado 229842" d="M240.632,251.8H223.063v-2.947a4.6,4.6,0,0,0-4.595-4.595h-15.7a4.6,4.6,0,0,0-4.595,4.595V251.8H180.62a1.45,1.45,0,0,0-1.45,1.45V267.76a1.459,1.459,0,0,0,1.167,1.422l30.006,5.9a1.829,1.829,0,0,0,.556,0l30.006-5.9a1.469,1.469,0,0,0,1.177-1.422V253.251A1.45,1.45,0,0,0,240.632,251.8Zm-38.96-2.947a1.121,1.121,0,0,1,1.1-1.111h15.7a1.12,1.12,0,0,1,1.1,1.111V251.8H201.682Z" transform="translate(-89.566 -71.059)" fill="#fff" opacity="0.6"/>
      <rect id="Rectángulo_37496" data-name="Rectángulo 37496" width="8.982" height="6.704" rx="1.48" transform="translate(116.569 200.062)" fill="#0059d6"/>
      <rect id="Rectángulo_37497" data-name="Rectángulo 37497" width="8.982" height="6.704" rx="1.48" transform="translate(116.569 200.062)" fill="#fff" opacity="0.3"/>
      <rect id="Rectángulo_37498" data-name="Rectángulo 37498" width="60.455" height="26.927" rx="1.56" transform="translate(90.828 17.39)" fill="#0059d6"/>
      <rect id="Rectángulo_37499" data-name="Rectángulo 37499" width="60.455" height="26.927" rx="1.56" transform="translate(90.828 17.39)" fill="#fff" opacity="0.6"/>
      <path id="Trazado_229843" data-name="Trazado 229843" d="M239.445,78.77H181.909a1.469,1.469,0,0,0-1.469,1.469v7.692l29.94,5.894a1.382,1.382,0,0,0,.555,0l29.95-5.894V80.239a1.469,1.469,0,0,0-1.441-1.469Z" transform="translate(-89.64 -61.38)" opacity="0.1"/>
      <path id="Trazado_229844" data-name="Trazado 229844" d="M240.632,67.841H223.063V64.895a4.6,4.6,0,0,0-4.595-4.595h-15.7a4.6,4.6,0,0,0-4.595,4.595v2.947H180.62a1.45,1.45,0,0,0-1.45,1.45V83.8a1.45,1.45,0,0,0,1.167,1.422l30.006,5.866a1.384,1.384,0,0,0,.556,0l30.006-5.9a1.459,1.459,0,0,0,1.186-1.384V69.291a1.45,1.45,0,0,0-1.459-1.45Zm-38.96-2.947a1.111,1.111,0,0,1,1.1-1.111h15.695a1.111,1.111,0,0,1,1.1,1.1v2.947H201.682Z" transform="translate(-89.566 -60.3)" fill="#0059d6"/>
      <path id="Trazado_229845" data-name="Trazado 229845" d="M240.632,67.841H223.063V64.895a4.6,4.6,0,0,0-4.595-4.595h-15.7a4.6,4.6,0,0,0-4.595,4.595v2.947H180.62a1.45,1.45,0,0,0-1.45,1.45V83.8a1.45,1.45,0,0,0,1.167,1.422l30.006,5.866a1.384,1.384,0,0,0,.556,0l30.006-5.9a1.459,1.459,0,0,0,1.186-1.384V69.291a1.45,1.45,0,0,0-1.459-1.45Zm-38.96-2.947a1.111,1.111,0,0,1,1.1-1.111h15.695a1.111,1.111,0,0,1,1.1,1.1v2.947H201.682Z" transform="translate(-89.566 -60.3)" fill="#fff" opacity="0.6"/>
      <rect id="Rectángulo_37500" data-name="Rectángulo 37500" width="8.982" height="6.704" rx="1.48" transform="translate(116.569 26.871)" fill="#0059d6"/>
      <rect id="Rectángulo_37501" data-name="Rectángulo 37501" width="8.982" height="6.704" rx="1.48" transform="translate(116.569 26.871)" fill="#fff" opacity="0.3"/>
      <rect id="Rectángulo_37502" data-name="Rectángulo 37502" width="60.455" height="26.927" rx="1.56" transform="translate(1.233 190.591)" fill="#0059d6"/>
      <rect id="Rectángulo_37503" data-name="Rectángulo 37503" width="60.455" height="26.927" rx="1.56" transform="translate(1.233 190.591)" fill="#fff" opacity="0.6"/>
      <path id="Trazado_229846" data-name="Trazado 229846" d="M144.334,262.73H86.779A1.469,1.469,0,0,0,85.31,264.2v7.692l29.94,5.894a1.443,1.443,0,0,0,.565,0l29.95-5.894V264.2A1.469,1.469,0,0,0,144.334,262.73Z" transform="translate(-84.077 -72.139)" opacity="0.1"/>
      <path id="Trazado_229847" data-name="Trazado 229847" d="M145.462,251.8H127.893v-2.947a4.6,4.6,0,0,0-4.595-4.595H107.613a4.6,4.6,0,0,0-4.595,4.595V251.8H85.45a1.45,1.45,0,0,0-1.45,1.45V267.76a1.459,1.459,0,0,0,1.167,1.422l30.006,5.9a1.877,1.877,0,0,0,.565,0l30.006-5.9a1.459,1.459,0,0,0,1.167-1.422V253.251A1.45,1.45,0,0,0,145.462,251.8Zm-38.96-2.947a1.13,1.13,0,0,1,1.111-1.111H123.3a1.13,1.13,0,0,1,1.111,1.111V251.8H106.521Z" transform="translate(-84 -71.059)" fill="#0059d6"/>
      <path id="Trazado_229848" data-name="Trazado 229848" d="M145.462,251.8H127.893v-2.947a4.6,4.6,0,0,0-4.595-4.595H107.613a4.6,4.6,0,0,0-4.595,4.595V251.8H85.45a1.45,1.45,0,0,0-1.45,1.45V267.76a1.459,1.459,0,0,0,1.167,1.422l30.006,5.9a1.877,1.877,0,0,0,.565,0l30.006-5.9a1.459,1.459,0,0,0,1.167-1.422V253.251A1.45,1.45,0,0,0,145.462,251.8Zm-38.96-2.947a1.13,1.13,0,0,1,1.111-1.111H123.3a1.13,1.13,0,0,1,1.111,1.111V251.8H106.521Z" transform="translate(-84 -71.059)" fill="#fff" opacity="0.6"/>
      <rect id="Rectángulo_37504" data-name="Rectángulo 37504" width="8.982" height="6.704" rx="1.48" transform="translate(26.965 200.062)" fill="#0059d6"/>
      <rect id="Rectángulo_37505" data-name="Rectángulo 37505" width="8.982" height="6.704" rx="1.48" transform="translate(26.965 200.062)" fill="#fff" opacity="0.3"/>
      <rect id="Rectángulo_37506" data-name="Rectángulo 37506" width="60.455" height="26.927" rx="1.56" transform="translate(1.233 17.39)" fill="#0059d6"/>
      <rect id="Rectángulo_37507" data-name="Rectángulo 37507" width="60.455" height="26.927" rx="1.56" transform="translate(1.233 17.39)" fill="#fff" opacity="0.6"/>
      <path id="Trazado_229849" data-name="Trazado 229849" d="M144.334,78.77H86.779a1.469,1.469,0,0,0-1.469,1.469v7.692l29.94,5.894a1.421,1.421,0,0,0,.565,0l29.95-5.894V80.239A1.469,1.469,0,0,0,144.334,78.77Z" transform="translate(-84.077 -61.38)" opacity="0.1"/>
      <path id="Trazado_229850" data-name="Trazado 229850" d="M145.462,67.841H127.893V64.895A4.6,4.6,0,0,0,123.3,60.3H107.613a4.6,4.6,0,0,0-4.595,4.595v2.947H85.45A1.45,1.45,0,0,0,84,69.291V83.8a1.45,1.45,0,0,0,1.167,1.422l30.006,5.866a1.422,1.422,0,0,0,.565,0l30.006-5.9a1.45,1.45,0,0,0,1.167-1.422V69.291A1.45,1.45,0,0,0,145.462,67.841ZM106.5,64.895a1.12,1.12,0,0,1,1.111-1.111H123.3a1.12,1.12,0,0,1,1.111,1.1v2.947H106.521Z" transform="translate(-84 -60.3)" fill="#0059d6"/>
      <path id="Trazado_229851" data-name="Trazado 229851" d="M145.462,67.841H127.893V64.895A4.6,4.6,0,0,0,123.3,60.3H107.613a4.6,4.6,0,0,0-4.595,4.595v2.947H85.45A1.45,1.45,0,0,0,84,69.291V83.8a1.45,1.45,0,0,0,1.167,1.422l30.006,5.866a1.422,1.422,0,0,0,.565,0l30.006-5.9a1.45,1.45,0,0,0,1.167-1.422V69.291A1.45,1.45,0,0,0,145.462,67.841ZM106.5,64.895a1.12,1.12,0,0,1,1.111-1.111H123.3a1.12,1.12,0,0,1,1.111,1.1v2.947H106.521Z" transform="translate(-84 -60.3)" fill="#fff" opacity="0.6"/>
      <rect id="Rectángulo_37508" data-name="Rectángulo 37508" width="8.982" height="6.704" rx="1.48" transform="translate(26.965 26.871)" fill="#0059d6"/>
      <rect id="Rectángulo_37509" data-name="Rectángulo 37509" width="8.982" height="6.704" rx="1.48" transform="translate(26.965 26.871)" fill="#fff" opacity="0.3"/>
      <path id="Trazado_229852" data-name="Trazado 229852" d="M136.8,197.677H86.778A1.478,1.478,0,0,1,85.3,196.2v-23.98a1.46,1.46,0,0,1,.122-.574,2.019,2.019,0,0,1,.132-.245,1.034,1.034,0,0,1,.188-.217,1.469,1.469,0,0,1,1.036-.433h47.349a61.739,61.739,0,0,0-.386,9.9,10.067,10.067,0,0,0,.085,1.6c.066.989.141,1.986.254,2.975a63.08,63.08,0,0,0,2.721,12.447Z" transform="translate(-84.076 -66.76)" fill="#0059d6"/>
      <path id="Trazado_229853" data-name="Trazado 229853" d="M136.8,197.677H86.778A1.478,1.478,0,0,1,85.3,196.2v-23.98a1.46,1.46,0,0,1,.122-.574,2.019,2.019,0,0,1,.132-.245,1.034,1.034,0,0,1,.188-.217,1.469,1.469,0,0,1,1.036-.433h47.349a61.739,61.739,0,0,0-.386,9.9,10.067,10.067,0,0,0,.085,1.6c.066.989.141,1.986.254,2.975a63.08,63.08,0,0,0,2.721,12.447Z" transform="translate(-84.076 -66.76)" fill="#fff" opacity="0.6"/>
      <path id="Trazado_229854" data-name="Trazado 229854" d="M134.128,170.75a61.742,61.742,0,0,0-.386,9.9,10.078,10.078,0,0,0,.085,1.6l-13.8,2.711-4.218.829a1.111,1.111,0,0,1-.555,0l-4.209-.819L85.31,179.911v-7.7a1.592,1.592,0,0,1,.113-.565,2.017,2.017,0,0,1,.132-.245,1.036,1.036,0,0,1,.188-.217,1.469,1.469,0,0,1,1.036-.433Z" transform="translate(-84.077 -66.76)" opacity="0.1"/>
      <path id="Trazado_229855" data-name="Trazado 229855" d="M136.019,159.821H127.9v-2.947a4.613,4.613,0,0,0-4.6-4.594H107.613a4.594,4.594,0,0,0-4.595,4.594v2.947H85.45a1.45,1.45,0,0,0-1.45,1.45v14.5a1.459,1.459,0,0,0,1.177,1.431h.057l25.732,5.075,4.209.819a1.39,1.39,0,0,0,.555,0l4.218-.829,13.718-2.7a61.74,61.74,0,0,1,.386-9.9,62.46,62.46,0,0,1,1.968-9.839ZM106.5,156.874a1.12,1.12,0,0,1,1.111-1.1H123.3a1.111,1.111,0,0,1,1.1,1.1v2.947H106.512Z" transform="translate(-84 -65.679)" fill="#0059d6"/>
      <path id="Trazado_229856" data-name="Trazado 229856" d="M136.019,159.821H127.9v-2.947a4.613,4.613,0,0,0-4.6-4.594H107.613a4.594,4.594,0,0,0-4.595,4.594v2.947H85.45a1.45,1.45,0,0,0-1.45,1.45v14.5a1.459,1.459,0,0,0,1.177,1.431h.057l25.732,5.075,4.209.819a1.39,1.39,0,0,0,.555,0l4.218-.829,13.718-2.7a61.74,61.74,0,0,1,.386-9.9,62.46,62.46,0,0,1,1.968-9.839ZM106.5,156.874a1.12,1.12,0,0,1,1.111-1.1H123.3a1.111,1.111,0,0,1,1.1,1.1v2.947H106.512Z" transform="translate(-84 -65.679)" fill="#fff" opacity="0.6"/>
      <rect id="Rectángulo_37510" data-name="Rectángulo 37510" width="8.982" height="6.704" rx="1.48" transform="translate(26.965 113.462)" fill="#0059d6"/>
      <rect id="Rectángulo_37511" data-name="Rectángulo 37511" width="8.982" height="6.704" rx="1.48" transform="translate(26.965 113.462)" fill="#fff" opacity="0.3"/>
      <rect id="Rectángulo_37512" data-name="Rectángulo 37512" width="60.455" height="26.927" rx="1.56" transform="translate(240.877 217.509) rotate(180)" fill="#0059d6"/>
      <rect id="Rectángulo_37513" data-name="Rectángulo 37513" width="60.455" height="26.927" rx="1.56" transform="translate(240.877 217.509) rotate(180)" fill="#fff" opacity="0.6"/>
      <path id="Trazado_229857" data-name="Trazado 229857" d="M277.107,262.73h57.508a1.469,1.469,0,0,1,1.469,1.469v7.692l-29.978,5.894a1.381,1.381,0,0,1-.555,0l-29.95-5.894V264.2a1.469,1.469,0,0,1,1.507-1.469Z" transform="translate(-95.206 -72.139)" opacity="0.1"/>
      <path id="Trazado_229858" data-name="Trazado 229858" d="M275.777,251.8h17.569v-2.947a4.6,4.6,0,0,1,4.595-4.595h15.695a4.6,4.6,0,0,1,4.595,4.595V251.8H335.79a1.45,1.45,0,0,1,1.45,1.45V267.76a1.459,1.459,0,0,1-1.167,1.422l-30.044,5.9a1.874,1.874,0,0,1-.565,0l-30.006-5.9a1.459,1.459,0,0,1-1.168-1.422V253.251a1.45,1.45,0,0,1,1.488-1.45Zm38.96-2.947a1.12,1.12,0,0,0-1.1-1.111H297.941a1.13,1.13,0,0,0-1.111,1.111V251.8h17.889Z" transform="translate(-95.129 -71.059)" fill="#0059d6"/>
      <path id="Trazado_229859" data-name="Trazado 229859" d="M275.777,251.8h17.569v-2.947a4.6,4.6,0,0,1,4.595-4.595h15.695a4.6,4.6,0,0,1,4.595,4.595V251.8H335.79a1.45,1.45,0,0,1,1.45,1.45V267.76a1.459,1.459,0,0,1-1.167,1.422l-30.044,5.9a1.874,1.874,0,0,1-.565,0l-30.006-5.9a1.459,1.459,0,0,1-1.168-1.422V253.251a1.45,1.45,0,0,1,1.488-1.45Zm38.96-2.947a1.12,1.12,0,0,0-1.1-1.111H297.941a1.13,1.13,0,0,0-1.111,1.111V251.8h17.889Z" transform="translate(-95.129 -71.059)" fill="#fff" opacity="0.6"/>
      <rect id="Rectángulo_37514" data-name="Rectángulo 37514" width="8.982" height="6.704" rx="1.48" transform="translate(215.145 206.766) rotate(180)" fill="#0059d6"/>
      <rect id="Rectángulo_37515" data-name="Rectángulo 37515" width="8.982" height="6.704" rx="1.48" transform="translate(215.145 206.766) rotate(180)" fill="#fff" opacity="0.3"/>
      <rect id="Rectángulo_37516" data-name="Rectángulo 37516" width="60.455" height="26.927" rx="1.56" transform="translate(240.877 44.308) rotate(180)" fill="#0059d6"/>
      <rect id="Rectángulo_37517" data-name="Rectángulo 37517" width="60.455" height="26.927" rx="1.56" transform="translate(240.877 44.308) rotate(180)" fill="#fff" opacity="0.6"/>
      <path id="Trazado_229860" data-name="Trazado 229860" d="M277.109,78.77h57.508a1.469,1.469,0,0,1,1.469,1.469v7.692l-29.978,5.894a1.384,1.384,0,0,1-.555,0L275.64,87.931V80.239A1.469,1.469,0,0,1,277.109,78.77Z" transform="translate(-95.208 -61.38)" opacity="0.1"/>
      <path id="Trazado_229861" data-name="Trazado 229861" d="M275.778,67.842h17.569V64.895a4.6,4.6,0,0,1,4.595-4.595h15.695a4.6,4.6,0,0,1,4.632,4.595v2.947h17.559a1.45,1.45,0,0,1,1.45,1.45V83.8a1.45,1.45,0,0,1-1.167,1.422l-30.081,5.866a1.423,1.423,0,0,1-.565,0l-30.006-5.9a1.45,1.45,0,0,1-1.167-1.422V69.291a1.45,1.45,0,0,1,1.488-1.45Zm38.96-2.947a1.111,1.111,0,0,0-1.1-1.111H297.941a1.12,1.12,0,0,0-1.111,1.1v2.947h17.889Z" transform="translate(-95.129 -60.3)" fill="#0059d6"/>
      <path id="Trazado_229862" data-name="Trazado 229862" d="M275.778,67.842h17.569V64.895a4.6,4.6,0,0,1,4.595-4.595h15.695a4.6,4.6,0,0,1,4.632,4.595v2.947h17.559a1.45,1.45,0,0,1,1.45,1.45V83.8a1.45,1.45,0,0,1-1.167,1.422l-30.081,5.866a1.423,1.423,0,0,1-.565,0l-30.006-5.9a1.45,1.45,0,0,1-1.167-1.422V69.291a1.45,1.45,0,0,1,1.488-1.45Zm38.96-2.947a1.111,1.111,0,0,0-1.1-1.111H297.941a1.12,1.12,0,0,0-1.111,1.1v2.947h17.889Z" transform="translate(-95.129 -60.3)" fill="#fff" opacity="0.6"/>
      <rect id="Rectángulo_37518" data-name="Rectángulo 37518" width="8.982" height="6.704" rx="1.48" transform="translate(215.145 33.565) rotate(180)" fill="#0059d6"/>
      <rect id="Rectángulo_37519" data-name="Rectángulo 37519" width="8.982" height="6.704" rx="1.48" transform="translate(215.145 33.565) rotate(180)" fill="#fff" opacity="0.3"/>
      <path id="Trazado_229863" data-name="Trazado 229863" d="M285.19,197.677h49.994a1.478,1.478,0,0,0,1.469-1.478v-23.98a1.462,1.462,0,0,0-.122-.574,1.225,1.225,0,0,0-.132-.245,1.034,1.034,0,0,0-.188-.216,1.451,1.451,0,0,0-1.036-.433H287.836a61.754,61.754,0,0,1,.386,9.9,10.08,10.08,0,0,1-.085,1.6c-.057.989-.141,1.986-.254,2.975a63.079,63.079,0,0,1-2.693,12.447Z" transform="translate(-95.767 -66.76)" fill="#0059d6"/>
      <path id="Trazado_229864" data-name="Trazado 229864" d="M285.19,197.677h49.994a1.478,1.478,0,0,0,1.469-1.478v-23.98a1.462,1.462,0,0,0-.122-.574,1.225,1.225,0,0,0-.132-.245,1.034,1.034,0,0,0-.188-.216,1.451,1.451,0,0,0-1.036-.433H287.836a61.754,61.754,0,0,1,.386,9.9,10.08,10.08,0,0,1-.085,1.6c-.057.989-.141,1.986-.254,2.975a63.079,63.079,0,0,1-2.693,12.447Z" transform="translate(-95.767 -66.76)" fill="#fff" opacity="0.6"/>
      <path id="Trazado_229865" data-name="Trazado 229865" d="M288,170.75a61.79,61.79,0,0,1,.386,9.9,10.062,10.062,0,0,1-.085,1.6l13.821,2.711,4.218.829a1.112,1.112,0,0,0,.556,0l4.209-.819,25.731-5.065v-7.7a1.59,1.59,0,0,0-.113-.565,1.224,1.224,0,0,0-.132-.245,1.034,1.034,0,0,0-.188-.217,1.45,1.45,0,0,0-1.036-.433Z" transform="translate(-95.931 -66.76)" opacity="0.1"/>
      <path id="Trazado_229866" data-name="Trazado 229866" d="M285.9,159.821h8.125v-2.947a4.6,4.6,0,0,1,4.595-4.594H314.3a4.6,4.6,0,0,1,4.6,4.594v2.947h17.559a1.45,1.45,0,0,1,1.45,1.45v14.5a1.46,1.46,0,0,1-1.168,1.431h-.066l-25.732,5.075-4.246.81a1.389,1.389,0,0,1-.555,0l-4.218-.829-13.718-2.7a63.083,63.083,0,0,0-2.354-19.772Zm29.516-2.947a1.12,1.12,0,0,0-1.111-1.1H298.618a1.111,1.111,0,0,0-1.1,1.1v2.947H315.4Z" transform="translate(-95.806 -65.679)" fill="#0059d6"/>
      <path id="Trazado_229867" data-name="Trazado 229867" d="M285.9,159.821h8.125v-2.947a4.6,4.6,0,0,1,4.595-4.594H314.3a4.6,4.6,0,0,1,4.6,4.594v2.947h17.559a1.45,1.45,0,0,1,1.45,1.45v14.5a1.46,1.46,0,0,1-1.168,1.431h-.066l-25.732,5.075-4.246.81a1.389,1.389,0,0,1-.555,0l-4.218-.829-13.718-2.7a63.083,63.083,0,0,0-2.354-19.772Zm29.516-2.947a1.12,1.12,0,0,0-1.111-1.1H298.618a1.111,1.111,0,0,0-1.1,1.1v2.947H315.4Z" transform="translate(-95.806 -65.679)" fill="#fff" opacity="0.6"/>
      <rect id="Rectángulo_37520" data-name="Rectángulo 37520" width="8.982" height="6.704" rx="1.48" transform="translate(215.145 120.175) rotate(180)" fill="#0059d6"/>
      <rect id="Rectángulo_37521" data-name="Rectángulo 37521" width="8.982" height="6.704" rx="1.48" transform="translate(215.145 120.175) rotate(180)" fill="#fff" opacity="0.3"/>
      <rect id="Rectángulo_37522" data-name="Rectángulo 37522" width="86.864" height="38.687" rx="2.24" transform="translate(80.669 98.144)" fill="#0059d6"/>
      <path id="Trazado_229868" data-name="Trazado 229868" d="M225.979,156.839H203.429a6.459,6.459,0,0,1-6.449-6.449V144.6a6.459,6.459,0,0,1,6.449-6.449h22.549a6.449,6.449,0,0,1,6.449,6.449v5.762a6.449,6.449,0,0,1-6.449,6.478Zm-22.549-13.953a1.742,1.742,0,0,0-1.723,1.714v5.762a1.742,1.742,0,0,0,1.742,1.742H226a1.742,1.742,0,0,0,1.742-1.742V144.6A1.742,1.742,0,0,0,226,142.858Z" transform="translate(-90.608 -64.853)" fill="#0059d6"/>
      <path id="Trazado_229869" data-name="Trazado 229869" d="M254.426,164.54H171.8a2.109,2.109,0,0,0-2.118,2.109v11.063l43.027,8.474a1.885,1.885,0,0,0,.8,0l43.037-8.474V166.649a2.109,2.109,0,0,0-2.118-2.109Z" transform="translate(-89.011 -66.396)" opacity="0.2"/>
      <path id="Trazado_229870" data-name="Trazado 229870" d="M256.489,174.451l-43.112,8.474a2.334,2.334,0,0,1-.81,0l-43.112-8.474a2.09,2.09,0,0,1-1.685-2.043V151.6a2.081,2.081,0,0,1,2.081-2.081h86.262a2.081,2.081,0,0,1,2.081,2.081v20.845A2.081,2.081,0,0,1,256.489,174.451Z" transform="translate(-88.899 -65.518)" fill="#0059d6"/>
      <rect id="Rectángulo_37523" data-name="Rectángulo 37523" width="12.908" height="9.632" rx="2.12" transform="translate(117.652 111.767)" fill="#0059d6"/>
      <rect id="Rectángulo_37524" data-name="Rectángulo 37524" width="12.908" height="9.632" rx="2.12" transform="translate(117.652 111.767)" opacity="0.4"/>
    </g>
    <g id="freepik--Character--inject-39" transform="translate(124.944 35.899)">
      <path id="Trazado_229871" data-name="Trazado 229871" d="M380.306,187.21c1.083,2.231,1.883,4.34,2.824,6.544s1.629,4.4,2.363,6.647a84.892,84.892,0,0,1,3.286,13.991c.094.593.141,1.233.207,1.883l.094.942v1.1a19.779,19.779,0,0,1-.367,4.256,45.652,45.652,0,0,1-1.987,7.156,78.145,78.145,0,0,1-5.988,12.757l-4.783-2.024c1.064-4.293,2.137-8.671,2.947-12.9a54.122,54.122,0,0,0,.838-6.129,14.3,14.3,0,0,0-.056-2.523l-.1-.593-.132-.753c-.1-.5-.169-1-.292-1.506a96.036,96.036,0,0,0-3.634-12.24c-.716-2.043-1.507-4.077-2.3-6.12s-1.666-4.1-2.476-5.979Z" transform="translate(-146.627 -98.632)" fill="#7f3e3b"/>
      <path id="Trazado_229872" data-name="Trazado 229872" d="M376.272,242.44l-3.672,3.578,8.012,3.766s1.939-3.389.6-6.459Z" transform="translate(-146.736 -101.862)" fill="#7f3e3b"/>
      <path id="Trazado_229873" data-name="Trazado 229873" d="M369.46,251.578l6.76,2.768,4.208-4.378-8.012-3.728Z" transform="translate(-146.552 -102.084)" fill="#7f3e3b"/>
      <path id="Trazado_229874" data-name="Trazado 229874" d="M219.13,239.414a67.789,67.789,0,1,0-74.916-59.852A67.789,67.789,0,0,0,219.13,239.414Z" transform="translate(-133.353 -93.78)" fill="#0059d6" opacity="0.2"/>
      <path id="Trazado_229875" data-name="Trazado 229875" d="M171.42,118.865l103.1,82.345c.442-.942.857-1.883,1.262-2.825a66.907,66.907,0,0,0,4.9-19.282h0L191.625,108a67.213,67.213,0,0,0-20.2,10.865Z" transform="translate(-134.969 -93.999)" fill="#fff" opacity="0.1"/>
      <path id="Trazado_229876" data-name="Trazado 229876" d="M146.16,156.181l96.919,77.44a67.788,67.788,0,0,0,23.331-20.035L160.565,129A67.789,67.789,0,0,0,146.16,156.181Z" transform="translate(-133.492 -95.227)" fill="#fff" opacity="0.1"/>
      <path id="Trazado_229877" data-name="Trazado 229877" d="M377.936,247.529a10.056,10.056,0,0,0-1.629-4.8,6.947,6.947,0,0,0-2.777-2.457l-6.431-3.154c-4.274-2.118-8.577-4.18-12.88-6.242s-8.634-4.086-12.946-6.129-8.662-4.03-13.021-5.979q-13.049-5.913-26.268-11.505c-4.406-1.883-8.822-3.691-13.275-5.461h0a5.508,5.508,0,0,1-3.229-6.8A78.212,78.212,0,1,0,275.01,216.2a5.517,5.517,0,0,1,7.372-1.572h0q6.176,3.672,12.409,7.221,12.456,7.1,25.1,13.84c4.209,2.278,8.474,4.472,12.663,6.7s8.474,4.406,12.739,6.591,8.474,4.322,12.8,6.431l6.412,3.182a6.91,6.91,0,0,0,3.644.716,9.962,9.962,0,0,0,4.792-1.629,10.611,10.611,0,0,0,5-10.15ZM183.636,226.7a61.707,61.707,0,1,1,82.637-28.02A61.707,61.707,0,0,1,183.636,226.7Z" transform="translate(-132.705 -93.129)" fill="#0059d6"/>
      <path id="Trazado_229878" data-name="Trazado 229878" d="M343.108,156.237c0,.556-.292,1.008-.659,1.008s-.659-.452-.659-1.008.292-1.017.659-1.017S343.108,155.672,343.108,156.237Z" transform="translate(-144.934 -96.761)" fill="#263238"/>
      <path id="Trazado_229879" data-name="Trazado 229879" d="M342.765,157.37a19.927,19.927,0,0,1-2.655,4.774,3.21,3.21,0,0,0,2.664.5Z" transform="translate(-144.835 -96.886)" fill="#630f0f"/>
      <path id="Trazado_229880" data-name="Trazado 229880" d="M345.1,152.922a.33.33,0,0,0,.188-.593,3.286,3.286,0,0,0-2.947-.508.33.33,0,1,0,.235.612h0a2.627,2.627,0,0,1,2.335.424A.292.292,0,0,0,345.1,152.922Z" transform="translate(-144.952 -96.553)" fill="#263238"/>
      <path id="Trazado_229881" data-name="Trazado 229881" d="M362.452,160.76c-1,5.065-1.987,14.339,1.553,17.71,0,0-1.384,5.131-10.78,5.131-10.357,0-4.943-5.131-4.943-5.131,5.649-1.346,5.5-5.536,4.51-9.415Z" transform="translate(-145.231 -97.085)" fill="#7f3e3b"/>
      <path id="Trazado_229882" data-name="Trazado 229882" d="M365.865,176.177c.781.254-.235,4.905-.235,4.905s-1.29,3.248-17.315,2.118c-1.233-.094-.763-4.557.414-5.207C352.523,175.923,363.342,175.349,365.865,176.177Z" transform="translate(-145.273 -97.965)" fill="#263238"/>
      <path id="Trazado_229883" data-name="Trazado 229883" d="M401.525,382.654c.866-.085,2.128-1.676,2.485-2.26a.159.159,0,0,0,0-.169.15.15,0,0,0-.16-.075c-.094,0-2.372.433-2.928,1.318a.791.791,0,0,0-.094.631c.122.414.358.527.546.555Zm1.986-2.1c-.612.847-1.619,1.836-2.1,1.77-.047,0-.188,0-.273-.32a.434.434,0,0,1,.057-.367A4.435,4.435,0,0,1,403.511,380.555Z" transform="translate(-148.385 -109.916)" fill="#0059d6"/>
      <path id="Trazado_229884" data-name="Trazado 229884" d="M403.4,380.479a3.034,3.034,0,0,0,.5-.085.163.163,0,0,0,.056-.282c-.056-.057-1.582-1.356-2.617-1.252h0a.885.885,0,0,0-.64.339.518.518,0,0,0-.066.668C400.973,380.4,402.461,380.573,403.4,380.479Zm.075-.329c-.942.113-2.316-.075-2.58-.461a.261.261,0,0,1,.057-.292.621.621,0,0,1,.424-.216h0A3.972,3.972,0,0,1,403.478,380.15Z" transform="translate(-148.37 -109.84)" fill="#0059d6"/>
      <path id="Trazado_229885" data-name="Trazado 229885" d="M332.688,409.007a12.669,12.669,0,0,0,2.128-.188.188.188,0,0,0,.132-.132.16.16,0,0,0-.085-.17c-.1-.066-2.514-1.44-3.672-1.13a.848.848,0,0,0-.518.386.621.621,0,0,0,0,.716C330.974,408.9,331.8,409.007,332.688,409.007Zm1.6-.433c-1.29.179-3.041.17-3.361-.273-.047-.057-.085-.16,0-.367a.481.481,0,0,1,.32-.226C331.991,407.51,333.441,408.14,334.289,408.573Z" transform="translate(-144.277 -111.506)" fill="#0059d6"/>
      <path id="Trazado_229886" data-name="Trazado 229886" d="M334.847,408.717a.124.124,0,0,0,.169-.151,4.665,4.665,0,0,0-1.073-2.664,1.252,1.252,0,0,0-.941-.282c-.452.047-.574.273-.612.461-.122.781,1.534,2.279,2.363,2.655Zm-1.685-2.825a.942.942,0,0,1,.574.217,3.908,3.908,0,0,1,.941,2.128c-.857-.508-1.977-1.685-1.883-2.156,0,0,0-.151.32-.179Z" transform="translate(-144.383 -111.405)" fill="#0059d6"/>
      <path id="Trazado_229887" data-name="Trazado 229887" d="M342.648,407.745h-6.911l-.7-16.025h6.92Z" transform="translate(-144.539 -110.593)" fill="#7f3e3b"/>
      <path id="Trazado_229888" data-name="Trazado 229888" d="M409.442,374.438l-5.395,4.322-13.727-9.528,5.4-4.322Z" transform="translate(-147.772 -109.025)" fill="#7f3e3b"/>
      <path id="Trazado_229889" data-name="Trazado 229889" d="M403.557,378.98l5.517-5.47a.612.612,0,0,1,.753-.075l5.3,3.408a1.008,1.008,0,0,1,.141,1.582c-1.958,1.883-3,2.693-5.433,5.094-1.487,1.487-5.131,5.913-7.193,7.956s-4.359.273-3.691-.753c2.966-4.576,3.973-8.351,4.1-10.648A1.706,1.706,0,0,1,403.557,378.98Z" transform="translate(-148.27 -109.518)" fill="#263238"/>
      <path id="Trazado_229890" data-name="Trazado 229890" d="M334.781,407.89h7.532a.593.593,0,0,1,.584.471l1.365,6.148a1,1,0,0,1-.989,1.224c-2.73,0-6.666-.2-10.093-.2-4,0-7.457.217-12.155.217-2.825,0-3.625-2.871-2.439-3.135,5.413-1.177,9.829-1.309,14.5-4.19A3.238,3.238,0,0,1,334.781,407.89Z" transform="translate(-143.546 -111.538)" fill="#263238"/>
      <path id="Trazado_229891" data-name="Trazado 229891" d="M378.875,181.721c6,2.825,8.474,22.182,8.474,22.182l-13.793,5.414a110.355,110.355,0,0,1-5.188-16.147C366.438,184.433,372.708,178.784,378.875,181.721Z" transform="translate(-146.467 -98.265)" fill="#0059d6"/>
      <path id="Trazado_229892" data-name="Trazado 229892" d="M378.875,181.721c6,2.825,8.474,22.182,8.474,22.182l-13.793,5.414a110.355,110.355,0,0,1-5.188-16.147C366.438,184.433,372.708,178.784,378.875,181.721Z" transform="translate(-146.467 -98.265)" fill="#fff" opacity="0.3"/>
      <path id="Trazado_229893" data-name="Trazado 229893" d="M369.942,187.767a7.7,7.7,0,0,0-1.469-.537,12.672,12.672,0,0,0-.056,6.308,109.666,109.666,0,0,0,5.178,16.147l4.548-1.779C377.3,202.85,374.735,190.064,369.942,187.767Z" transform="translate(-146.469 -98.633)" opacity="0.2"/>
      <path id="Trazado_229894" data-name="Trazado 229894" d="M336.859,181.477s-7.363,8.314-.414,59.786h37c.254-5.649-3.314-33.386,2.165-60.144a96.842,96.842,0,0,0-12.39-1.563,136.745,136.745,0,0,0-15.723,0A69.2,69.2,0,0,0,336.859,181.477Z" transform="translate(-144.446 -98.171)" fill="#0059d6"/>
      <path id="Trazado_229895" data-name="Trazado 229895" d="M336.859,181.477s-7.363,8.314-.414,59.786h37c.254-5.649-3.314-33.386,2.165-60.144a96.842,96.842,0,0,0-12.39-1.563,136.745,136.745,0,0,0-15.723,0A69.2,69.2,0,0,0,336.859,181.477Z" transform="translate(-144.446 -98.171)" fill="#fff" opacity="0.3"/>
      <path id="Trazado_229896" data-name="Trazado 229896" d="M344.326,193.01c-1.676-5.028-5.706-6.638-9.811-3.653-.828,4.877-1.412,12.739-.744,25.2l7.221-.066S346.8,200.5,344.326,193.01Z" transform="translate(-144.448 -98.67)" opacity="0.2"/>
      <path id="Trazado_229897" data-name="Trazado 229897" d="M341.318,191.054c-.3,2.523-.716,4.811-1.177,7.193s-1,4.708-1.61,7.052a80.845,80.845,0,0,1-4.915,13.953c-.537,1.158-1.158,2.3-1.817,3.437-.339.574-.678,1.149-1.064,1.714a11.91,11.91,0,0,1-1.761,2.156,12.494,12.494,0,0,1-4.519,2.683,20.381,20.381,0,0,1-4.209.989,34.762,34.762,0,0,1-7.711.094,36.178,36.178,0,0,1-3.672-.48c-1.224-.217-2.382-.443-3.644-.772l.612-5.159a61.439,61.439,0,0,0,12.729-1.883,14.489,14.489,0,0,0,2.457-.979,3.532,3.532,0,0,0,1.318-1.045c-.075.066.612-1.073,1.017-1.883s.857-1.883,1.243-2.825c.791-1.94,1.469-3.992,2.09-6.092s1.167-4.237,1.676-6.4.942-4.35,1.412-6.591.81-4.463,1.149-6.543Z" transform="translate(-142.795 -98.776)" fill="#7f3e3b"/>
      <path id="Trazado_229898" data-name="Trazado 229898" d="M345.485,186.659c1.949,6.318-5.96,25.148-5.96,25.148l-16.655-4.19a77.031,77.031,0,0,1,5.112-17.315C333.349,178.553,343.141,179.042,345.485,186.659Z" transform="translate(-143.827 -98.278)" fill="#0059d6"/>
      <path id="Trazado_229899" data-name="Trazado 229899" d="M345.485,186.659c1.949,6.318-5.96,25.148-5.96,25.148l-16.655-4.19a77.031,77.031,0,0,1,5.112-17.315C333.349,178.553,343.141,179.042,345.485,186.659Z" transform="translate(-143.827 -98.278)" fill="#fff" opacity="0.3"/>
      <path id="Trazado_229900" data-name="Trazado 229900" d="M305.634,226.058l-7.834-.2L301.566,234s3.183.424,5.8-3.879l2.759-3.286-3.173-.64A7.731,7.731,0,0,0,305.634,226.058Z" transform="translate(-142.361 -100.892)" fill="#7f3e3b"/>
      <path id="Trazado_229901" data-name="Trazado 229901" d="M292.55,227.376l4.491,6.751,4.227-.122-3.776-8.144Z" transform="translate(-142.054 -100.892)" fill="#7f3e3b"/>
      <path id="Trazado_229902" data-name="Trazado 229902" d="M335.05,391.73l.349,8.257h6.92l-.358-8.257Z" transform="translate(-144.539 -110.593)" opacity="0.2"/>
      <path id="Trazado_229903" data-name="Trazado 229903" d="M395.724,364.91l-5.4,4.322,7.08,4.915,5.4-4.322Z" transform="translate(-147.772 -109.025)" opacity="0.2"/>
      <path id="Trazado_229904" data-name="Trazado 229904" d="M361.778,154.374c-.414,6.854-.3,10.884-3.766,14.405-5.2,5.291-13.661,2.165-15.3-4.708-1.478-6.158-.546-16.326,6.158-19.066a9.359,9.359,0,0,1,12.908,9.368Z" transform="translate(-144.952 -96.122)" fill="#7f3e3b"/>
      <path id="Trazado_229905" data-name="Trazado 229905" d="M367.352,147.69a3.959,3.959,0,0,1,2.476,5.188c-1.7,6.252-5.715,13.445-10.893,13.9-6.449.574-9.359-6.082-10.206-12.965-3.86-2.646-6.723-5.122-5.8-7.871,1.412-4.237,6.534-7.89,14.688-6.948S369.828,145.2,367.352,147.69Z" transform="translate(-144.99 -95.803)" fill="#263238"/>
      <path id="Trazado_229906" data-name="Trazado 229906" d="M352.938,156.061A7.756,7.756,0,0,1,351,160.646c-1.506,1.657-3.088.621-3.352-1.393-.235-1.827.254-4.886,2.1-5.8S353.06,154.008,352.938,156.061Z" transform="translate(-145.273 -96.641)" fill="#7f3e3b"/>
      <path id="Trazado_229907" data-name="Trazado 229907" d="M350.533,245.11s-2.335,46.624,2.213,66.377c7.2,31.277,38.866,56.34,38.866,56.34l10.168-8.144s-26.052-19.386-28.4-45.428c-2.1-23.387,1.007-50.249,1.007-69.145Z" transform="translate(-145.41 -102.018)" fill="#0059d6"/>
      <path id="Trazado_229908" data-name="Trazado 229908" d="M350.533,245.11s-2.335,46.624,2.213,66.377c7.2,31.277,38.866,56.34,38.866,56.34l10.168-8.144s-26.052-19.386-28.4-45.428c-2.1-23.387,1.007-50.249,1.007-69.145Z" transform="translate(-145.41 -102.018)" opacity="0.2"/>
      <path id="Trazado_229909" data-name="Trazado 229909" d="M354.008,259.758c-.942-1.817-2.777,3.6-4.058,10.545,0,9.585.169,20.487,1.007,29.724C357.35,288.211,355.994,263.524,354.008,259.758Z" transform="translate(-145.411 -102.854)" opacity="0.2"/>
      <path id="Trazado_229910" data-name="Trazado 229910" d="M389.3,372.716l3.86,2.994,11.741-9.519L401.38,363Z" transform="translate(-147.712 -108.913)" fill="#2c6bdb"/>
      <path id="Trazado_229911" data-name="Trazado 229911" d="M389.3,372.716l3.86,2.994,11.741-9.519L401.38,363Z" transform="translate(-147.712 -108.913)" fill="#fafafa" opacity="0.4"/>
      <path id="Trazado_229912" data-name="Trazado 229912" d="M335.934,245.11s-10.413,44.157-11.148,65.247c-.819,23.66,7.429,79.454,7.429,79.454h11.722s1.44-56.227,1.968-77.779c.565-23.491,14.349-66.923,14.349-66.923Z" transform="translate(-143.936 -102.018)" fill="#0059d6"/>
      <path id="Trazado_229913" data-name="Trazado 229913" d="M335.934,245.11s-10.413,44.157-11.148,65.247c-.819,23.66,7.429,79.454,7.429,79.454h11.722s1.44-56.227,1.968-77.779c.565-23.491,14.349-66.923,14.349-66.923Z" transform="translate(-143.936 -102.018)" opacity="0.2"/>
      <path id="Trazado_229914" data-name="Trazado 229914" d="M330.29,393.84c-.056,0,.659,4.868.659,4.868H345.2l.386-4.34Z" transform="translate(-144.261 -110.716)" fill="#2c6bdb"/>
      <path id="Trazado_229915" data-name="Trazado 229915" d="M330.29,393.84c-.056,0,.659,4.868.659,4.868H345.2l.386-4.34Z" transform="translate(-144.261 -110.716)" fill="#fafafa" opacity="0.4"/>
    </g>
  </g>
</svg>
