<svg xmlns="http://www.w3.org/2000/svg" width="479.509" height="353.599" viewBox="0 0 479.509 353.599">
  <g id="nombre" transform="translate(0 0)">
    <g id="freepik--background-complete--inject-52" transform="translate(0 0)">
      <rect id="Rectángulo_37525" data-name="Rectángulo 37525" width="31.763" height="0.24" transform="translate(399.699 329.413)" fill="#ebebeb"/>
      <rect id="Rectángulo_37526" data-name="Rectángulo 37526" width="8.334" height="0.24" transform="translate(309.312 332.022)" fill="#ebebeb"/>
      <rect id="Rectángulo_37527" data-name="Rectángulo 37527" width="18.404" height="0.24" transform="translate(380.337 320.513)" fill="#ebebeb"/>
      <rect id="Rectángulo_37528" data-name="Rectángulo 37528" width="41.42" height="0.24" transform="translate(50.31 322.125)" fill="#ebebeb"/>
      <rect id="Rectángulo_37529" data-name="Rectángulo 37529" width="6.071" height="0.24" transform="translate(100.275 322.125)" fill="#ebebeb"/>
      <rect id="Rectángulo_37530" data-name="Rectángulo 37530" width="89.841" height="0.24" transform="translate(126.082 326.172)" fill="#ebebeb"/>
      <path id="Trazado_229916" data-name="Trazado 229916" d="M228.853,326.21H43.686a5.476,5.476,0,0,1-5.476-5.476V60.428A5.476,5.476,0,0,1,43.686,55H228.853a5.476,5.476,0,0,1,5.476,5.476V320.734A5.476,5.476,0,0,1,228.853,326.21ZM43.686,55.192a5.246,5.246,0,0,0-5.236,5.236V320.734a5.246,5.246,0,0,0,5.236,5.236H228.853a5.246,5.246,0,0,0,5.236-5.236V60.428a5.246,5.246,0,0,0-5.236-5.236Z" transform="translate(-1.566 -55)" fill="#ebebeb"/>
      <path id="Trazado_229917" data-name="Trazado 229917" d="M445.162,326.21H259.976a5.486,5.486,0,0,1-5.476-5.476V60.428A5.486,5.486,0,0,1,259.976,55H445.162a5.476,5.476,0,0,1,5.457,5.428V320.734A5.476,5.476,0,0,1,445.162,326.21ZM259.976,55.192a5.246,5.246,0,0,0-5.236,5.236V320.734a5.246,5.246,0,0,0,5.236,5.236H445.162a5.246,5.246,0,0,0,5.236-5.236V60.428a5.246,5.246,0,0,0-5.236-5.236Z" transform="translate(-10.43 -55)" fill="#ebebeb"/>
      <rect id="Rectángulo_37531" data-name="Rectángulo 37531" width="479.509" height="0.24" transform="translate(0 313.982)" fill="#ebebeb"/>
      <rect id="Rectángulo_37532" data-name="Rectángulo 37532" width="1.726" height="134.617" transform="translate(91.97 43.463)" fill="#e0e0e0"/>
      <rect id="Rectángulo_37533" data-name="Rectángulo 37533" width="1.726" height="134.617" transform="translate(199.428 43.463)" fill="#e0e0e0"/>
      <path id="Trazado_229918" data-name="Trazado 229918" d="M211.446,108.892H88.739L86.15,102.85H214.035Z" transform="translate(-3.531 -56.961)" fill="#ebebeb"/>
      <path id="Trazado_229919" data-name="Trazado 229919" d="M211.446,117.542H88.739L86.15,111.5H214.035Z" transform="translate(-3.531 -57.315)" fill="#ebebeb"/>
      <path id="Trazado_229920" data-name="Trazado 229920" d="M211.446,126.192H88.739L86.15,120.15H214.035Z" transform="translate(-3.531 -57.67)" fill="#ebebeb"/>
      <path id="Trazado_229921" data-name="Trazado 229921" d="M211.446,134.842H88.739L86.15,128.8H214.035Z" transform="translate(-3.531 -58.024)" fill="#ebebeb"/>
      <path id="Trazado_229922" data-name="Trazado 229922" d="M211.446,143.492H88.739L86.15,137.45H214.035Z" transform="translate(-3.531 -58.379)" fill="#ebebeb"/>
      <path id="Trazado_229923" data-name="Trazado 229923" d="M211.446,152.142H88.739L86.15,146.1H214.035Z" transform="translate(-3.531 -58.733)" fill="#ebebeb"/>
      <path id="Trazado_229924" data-name="Trazado 229924" d="M211.446,160.792H88.739L86.15,154.75H214.035Z" transform="translate(-3.531 -59.088)" fill="#ebebeb"/>
      <path id="Trazado_229925" data-name="Trazado 229925" d="M211.446,169.442H88.739L86.15,163.4H214.035Z" transform="translate(-3.531 -59.442)" fill="#ebebeb"/>
      <path id="Trazado_229926" data-name="Trazado 229926" d="M211.446,178.082H88.739L86.15,172.04H214.035Z" transform="translate(-3.531 -59.797)" fill="#ebebeb"/>
      <path id="Trazado_229927" data-name="Trazado 229927" d="M211.446,186.732H88.739L86.15,180.69H214.035Z" transform="translate(-3.531 -60.151)" fill="#ebebeb"/>
      <path id="Trazado_229928" data-name="Trazado 229928" d="M211.446,195.382H88.739L86.15,189.34H214.035Z" transform="translate(-3.531 -60.505)" fill="#ebebeb"/>
      <path id="Trazado_229929" data-name="Trazado 229929" d="M211.446,204.032H88.739L86.15,197.99H214.035Z" transform="translate(-3.531 -60.86)" fill="#ebebeb"/>
      <path id="Trazado_229930" data-name="Trazado 229930" d="M211.446,212.682H88.739L86.15,206.64H214.035Z" transform="translate(-3.531 -61.215)" fill="#ebebeb"/>
      <path id="Trazado_229931" data-name="Trazado 229931" d="M211.446,221.332H88.739L86.15,215.29H214.035Z" transform="translate(-3.531 -61.569)" fill="#ebebeb"/>
      <path id="Trazado_229932" data-name="Trazado 229932" d="M211.446,229.982H88.739L86.15,223.94H214.035Z" transform="translate(-3.531 -61.923)" fill="#ebebeb"/>
      <path id="Trazado_229933" data-name="Trazado 229933" d="M211.446,238.632H88.739L86.15,232.59H214.035Z" transform="translate(-3.531 -62.278)" fill="#ebebeb"/>
      <rect id="Rectángulo_37534" data-name="Rectángulo 37534" width="127.885" height="3.452" transform="translate(82.619 176.354)" fill="#e0e0e0"/>
      <rect id="Rectángulo_37535" data-name="Rectángulo 37535" width="136.804" height="8.056" transform="translate(78.16 38.322)" fill="#e0e0e0"/>
      <path id="Trazado_229934" data-name="Trazado 229934" d="M82.941,177.393h0A1.391,1.391,0,0,1,81.55,176V129.011a1.391,1.391,0,0,1,1.391-1.391h0a1.391,1.391,0,0,1,1.391,1.391V176A1.391,1.391,0,0,1,82.941,177.393Z" transform="translate(-3.342 -57.976)" fill="#e0e0e0"/>
      <rect id="Rectángulo_37536" data-name="Rectángulo 37536" width="1.007" height="27.907" transform="translate(79.061 44.767)" fill="#e0e0e0"/>
      <path id="Trazado_229935" data-name="Trazado 229935" d="M245.757,153.75h4.258a2.637,2.637,0,0,1,2.637,2.637v123.8H243.11v-123.8a2.638,2.638,0,0,1,2.647-2.637Z" transform="translate(-9.963 -59.047)" fill="#e6e6e6"/>
      <path id="Trazado_229936" data-name="Trazado 229936" d="M248.691,153.75h-2.628a2.954,2.954,0,0,0-2.954,2.944V280.187h2.628V156.694A2.954,2.954,0,0,1,248.691,153.75Z" transform="translate(-9.963 -59.047)" fill="#f0f0f0"/>
      <rect id="Rectángulo_37537" data-name="Rectángulo 37537" width="15.018" height="101.244" transform="translate(230.442 212.979)" fill="#ebebeb"/>
      <path id="Trazado_229937" data-name="Trazado 229937" d="M234.563,378.38h25.7a3.663,3.663,0,0,1,3.663,3.663v.422H230.9v-.422A3.663,3.663,0,0,1,234.563,378.38Z" transform="translate(-9.463 -68.253)" fill="#e6e6e6"/>
      <path id="Trazado_229938" data-name="Trazado 229938" d="M396.42,328.589h24.215a7.883,7.883,0,0,0,7.874-7.874V285.308a1.439,1.439,0,0,0-1.439-1.438h0a1.438,1.438,0,0,0-1.439,1.438v35.407a5,5,0,0,1-5,5H396.42Z" transform="translate(-16.246 -64.38)" fill="#e0e0e0"/>
      <path id="Trazado_229939" data-name="Trazado 229939" d="M388.551,364.232V331.261l-1.918-.6a5.236,5.236,0,0,1-3.663-4.987h18.269a5.227,5.227,0,0,1-3.663,4.987l-1.919.6v32.971l15.162,6.828v2.877l-18.729-6.55-18.73,6.55V371.06Z" transform="translate(-15.301 -66.093)" fill="#e0e0e0"/>
      <path id="Trazado_229940" data-name="Trazado 229940" d="M367.779,327.057h47.769a5.188,5.188,0,0,0,5.188-5.188h0a5.188,5.188,0,0,0-5.188-5.179H367.779a5.179,5.179,0,0,0-5.179,5.179h0a5.179,5.179,0,0,0,5.179,5.188Z" transform="translate(-14.86 -65.725)" fill="#f0f0f0"/>
      <path id="Trazado_229941" data-name="Trazado 229941" d="M426.138,296.548l2.58-36.865a5.179,5.179,0,0,0-4.8-5.524h0a5.179,5.179,0,0,0-5.534,4.795l-2.58,36.865a5.188,5.188,0,0,0,4.8,5.534h0A5.188,5.188,0,0,0,426.138,296.548Z" transform="translate(-17.04 -63.161)" fill="#ebebeb"/>
      <path id="Trazado_229942" data-name="Trazado 229942" d="M409,377.97a3.28,3.28,0,1,0,3.28-3.28,3.28,3.28,0,0,0-3.28,3.28Z" transform="translate(-16.762 -68.102)" fill="#e0e0e0"/>
      <path id="Trazado_229943" data-name="Trazado 229943" d="M369.94,377.97a3.28,3.28,0,1,0,3.28-3.28,3.28,3.28,0,0,0-3.28,3.28Z" transform="translate(-15.161 -68.102)" fill="#e0e0e0"/>
      <path id="Trazado_229944" data-name="Trazado 229944" d="M99,328.589H74.783a7.883,7.883,0,0,1-7.883-7.874V285.308a1.438,1.438,0,0,1,1.438-1.438h0a1.438,1.438,0,0,1,1.439,1.438v35.407a5.006,5.006,0,0,0,5.006,5H99Z" transform="translate(-2.742 -64.38)" fill="#e0e0e0"/>
      <path id="Trazado_229945" data-name="Trazado 229945" d="M106.638,364.232V331.261l1.918-.6a5.227,5.227,0,0,0,3.654-4.987H93.989a5.236,5.236,0,0,0,3.663,4.987l1.918.6v32.971l-15.2,6.828v2.877l18.73-6.55,18.73,6.55V371.06Z" transform="translate(-3.458 -66.093)" fill="#e0e0e0"/>
      <path id="Trazado_229946" data-name="Trazado 229946" d="M126.538,327.057H78.779a5.188,5.188,0,0,1-5.179-5.188h0a5.179,5.179,0,0,1,5.179-5.179h47.759a5.188,5.188,0,0,1,5.188,5.179h0A5.188,5.188,0,0,1,126.538,327.057Z" transform="translate(-3.016 -65.725)" fill="#f0f0f0"/>
      <path id="Trazado_229947" data-name="Trazado 229947" d="M70.089,296.548l-2.58-36.865a5.179,5.179,0,0,1,4.8-5.524h0a5.178,5.178,0,0,1,5.534,4.795l2.609,36.874a5.188,5.188,0,0,1-4.8,5.534h0a5.188,5.188,0,0,1-5.562-4.814Z" transform="translate(-2.766 -63.161)" fill="#ebebeb"/>
      <path id="Trazado_229948" data-name="Trazado 229948" d="M87.5,377.97a3.27,3.27,0,1,1-.954-2.319A3.28,3.28,0,0,1,87.5,377.97Z" transform="translate(-3.317 -68.102)" fill="#e0e0e0"/>
      <path id="Trazado_229949" data-name="Trazado 229949" d="M126.56,377.97a3.27,3.27,0,1,1-.954-2.319A3.28,3.28,0,0,1,126.56,377.97Z" transform="translate(-4.918 -68.102)" fill="#e0e0e0"/>
      <path id="Trazado_229950" data-name="Trazado 229950" d="M206.8,381.135H188.1L186.18,345.67h22.537Z" transform="translate(-7.63 -66.912)" fill="#ebebeb"/>
      <path id="Trazado_229951" data-name="Trazado 229951" d="M192.352,382.541H184.68v-1.582l7.672-.959Z" transform="translate(-7.569 -68.319)" fill="#e0e0e0"/>
      <path id="Trazado_229952" data-name="Trazado 229952" d="M189.028,342.67h16.84a2.877,2.877,0,0,1,2.877,2.877H186.17a2.877,2.877,0,0,1,2.877-2.877Z" transform="translate(-7.63 -66.789)" fill="#e0e0e0"/>
      <path id="Trazado_229953" data-name="Trazado 229953" d="M166.4,286.5H136.46v-3.587L166.4,281Z" transform="translate(-5.592 -64.262)" fill="#e0e0e0"/>
      <rect id="Rectángulo_37538" data-name="Rectángulo 37538" width="88.546" height="12.256" transform="translate(116.53 225.897)" fill="#f0f0f0"/>
      <rect id="Rectángulo_37539" data-name="Rectángulo 37539" width="124.941" height="7.308" transform="translate(98.491 222.243)" fill="#fafafa"/>
      <path id="Trazado_229954" data-name="Trazado 229954" d="M220.421,379.032h5.639L216.3,294.36H209.68Z" transform="translate(-8.593 -64.809)" fill="#e6e6e6"/>
      <path id="Trazado_229955" data-name="Trazado 229955" d="M125.3,294.36h-6.617l-9.772,84.672h5.649Z" transform="translate(-4.463 -64.809)" fill="#e6e6e6"/>
      <path id="Trazado_229956" data-name="Trazado 229956" d="M198.418,283.167q-3.836-19.046-7.672-38.111c-.364-1.813-3.146-1.045-2.781.767l7.3,36.289H179.439a1.439,1.439,0,0,0,0,2.877h17.579a1.458,1.458,0,0,0,1.4-1.822Z" transform="translate(-7.295 -62.746)" fill="#e0e0e0"/>
      <path id="Trazado_229957" data-name="Trazado 229957" d="M180.61,271.169h0l4.929-70.469h0a13.052,13.052,0,0,1,5.438,11.556l-3.366,48.191A13.081,13.081,0,0,1,180.61,271.169Z" transform="translate(-7.402 -60.971)" fill="#fafafa"/>
      <rect id="Rectángulo_37540" data-name="Rectángulo 37540" width="13.58" height="20.485" rx="2.9" transform="translate(200.818 201.758)" fill="#f5f5f5"/>
      <path id="Trazado_229958" data-name="Trazado 229958" d="M214.836,257.43c-2.119,0-3.836.527-3.836,1.17s1.726-.23,3.836-.23a7.606,7.606,0,0,1,.815,0v4.642h1.208v-4.46c1.093.2,1.822.422,1.822,0C218.672,257.976,216.955,257.43,214.836,257.43Z" transform="translate(-8.647 -63.296)" fill="#e0e0e0"/>
      <rect id="Rectángulo_37541" data-name="Rectángulo 37541" width="4.325" height="4.325" transform="translate(205.45 198.258)" fill="#f0f0f0"/>
      <rect id="Rectángulo_37542" data-name="Rectángulo 37542" width="88.546" height="12.256" transform="translate(359.9 238.163) rotate(180)" fill="#f0f0f0"/>
      <rect id="Rectángulo_37543" data-name="Rectángulo 37543" width="124.941" height="7.308" transform="translate(377.939 229.56) rotate(180)" fill="#fafafa"/>
      <path id="Trazado_229959" data-name="Trazado 229959" d="M275.669,379.032H270.02l9.763-84.672H286.4Z" transform="translate(-11.066 -64.809)" fill="#e6e6e6"/>
      <path id="Trazado_229960" data-name="Trazado 229960" d="M370.79,294.36h6.617l9.763,84.672h-5.649Z" transform="translate(-15.196 -64.809)" fill="#e6e6e6"/>
      <rect id="Rectángulo_37544" data-name="Rectángulo 37544" width="2.139" height="66.393" transform="translate(316.572 10.031)" fill="#e0e0e0"/>
      <path id="Trazado_229961" data-name="Trazado 229961" d="M303.41,146.261l26.68-41.4,26.67,41.4Z" transform="translate(-12.435 -57.043)" fill="#e0e0e0"/>
      <rect id="Rectángulo_37545" data-name="Rectángulo 37545" width="2.139" height="53.35" transform="translate(142.126 10.031)" fill="#e0e0e0"/>
      <path id="Trazado_229962" data-name="Trazado 229962" d="M121.51,144.441l26.67-41.4,26.67,41.4Z" transform="translate(-4.98 -56.969)" fill="#fafafa"/>
    </g>
    <g id="freepik--Shadow--inject-52" transform="translate(49.188 331.887)">
      <ellipse id="freepik--path--inject-52" cx="185.944" cy="10.856" rx="185.944" ry="10.856" fill="#f5f5f5"/>
    </g>
    <g id="freepik--Device--inject-52" transform="translate(160.113 114.869)">
      <path id="Trazado_229963" data-name="Trazado 229963" d="M342.614,404.257a.462.462,0,0,0-.077-.307,1.953,1.953,0,0,1-.134-.47l-.163-.451h0l-.173-.393-16.936-37.478-2.973-6.589-2.34-5.169H267.839l.892,5.169,1.141,6.589,5.946,34.342h0a.956.956,0,0,0,.048.365,2.188,2.188,0,0,1,0,.355v.441l-.106.307a2.511,2.511,0,0,1-.1.384,1.377,1.377,0,0,1-.086.259h0v.144a2.93,2.93,0,0,1-.153.3,2.237,2.237,0,0,1-.192.326h0l-.058.086-.182.23a3.792,3.792,0,0,1-.259.3,3.863,3.863,0,0,1-.518.451,2.935,2.935,0,0,1-.47.288,1.565,1.565,0,0,1-.336.163,2.823,2.823,0,0,1-.364.134H273a3.4,3.4,0,0,1-.336.086h0a4.081,4.081,0,0,1-.854.086H248.956a2.1,2.1,0,0,0-.642.1,3.011,3.011,0,0,0-.4.173,2.265,2.265,0,0,0-.777.7,2.315,2.315,0,0,0-.2.374,2.169,2.169,0,0,0-.173.863v2.455a2.163,2.163,0,0,0,.173.863,2.3,2.3,0,0,0,.2.374,2.266,2.266,0,0,0,.777.7,3,3,0,0,0,.4.172,2.1,2.1,0,0,0,.643.1h91.5a2.341,2.341,0,0,0,1.333-.412,1.813,1.813,0,0,0,.355-.3,2.528,2.528,0,0,0,.3-.355,2.211,2.211,0,0,0,.211-.393h0a2.509,2.509,0,0,0,.182-.959V406.1A8.735,8.735,0,0,0,342.614,404.257Z" transform="translate(-170.226 -182.099)" fill="#263238"/>
      <path id="Trazado_229964" data-name="Trazado 229964" d="M246.76,406.537V409a2.2,2.2,0,0,0,2.206,2.206h91.49a2.407,2.407,0,0,0,2.4-2.388v-2.56a8.862,8.862,0,0,0-.23-2,9.225,9.225,0,0,0-.556-1.669L319.808,353.36H267.839l7.979,46.1a3.962,3.962,0,0,1,.067.815,4.153,4.153,0,0,1-4.172,4.066H248.966a2.2,2.2,0,0,0-2.206,2.2Z" transform="translate(-170.226 -182.097)" fill="#fff" opacity="0.2"/>
      <path id="Trazado_229965" data-name="Trazado 229965" d="M348.123,402.6,325.874,353.36H322.93L345.179,402.6a8.932,8.932,0,0,1,.8,3.664v2.551a2.4,2.4,0,0,1-2.4,2.4h2.944a2.388,2.388,0,0,0,2.388-2.4v-2.551a8.922,8.922,0,0,0-.787-3.665Z" transform="translate(-173.348 -182.097)" fill="#263238"/>
      <path id="Trazado_229966" data-name="Trazado 229966" d="M320.709,353.36H268.74l2.043,11.767h55.239Z" transform="translate(-171.127 -182.097)" opacity="0.3"/>
      <path id="Trazado_229967" data-name="Trazado 229967" d="M418.981,182.884,406.514,325.777,405,343.1a9.024,9.024,0,0,1-8.813,8.113H174.422a7.317,7.317,0,0,1-7.394-8.113l1.515-17.32,12.467-142.894a9.015,9.015,0,0,1,8.813-8.1H411.549a7.489,7.489,0,0,1,4.8,1.669,4.957,4.957,0,0,1,.518.48,6.837,6.837,0,0,1,1.256,1.7,6.2,6.2,0,0,1,.547,1.323A7.8,7.8,0,0,1,418.981,182.884Z" transform="translate(-166.957 -174.779)" fill="#263238"/>
      <path id="Trazado_229968" data-name="Trazado 229968" d="M168.552,332.23,167,349.55a7.327,7.327,0,0,0,7.4,8.113H396.146a9.025,9.025,0,0,0,8.813-8.113l1.515-17.32Z" transform="translate(-166.956 -181.231)" fill="#0059d6"/>
      <path id="Trazado_229969" data-name="Trazado 229969" d="M168.552,332.23,167,349.55a7.327,7.327,0,0,0,7.4,8.113H396.146a9.025,9.025,0,0,0,8.813-8.113l1.515-17.32Z" transform="translate(-166.956 -181.231)" fill="#fff" opacity="0.6"/>
      <path id="Trazado_229970" data-name="Trazado 229970" d="M398.925,321.086H177.5a3.961,3.961,0,0,1-4.009-4.392l11.585-132.412a4.891,4.891,0,0,1,4.8-4.4H411.277a3.961,3.961,0,0,1,4.009,4.4L403.7,316.694A4.891,4.891,0,0,1,398.925,321.086Z" transform="translate(-167.223 -174.988)" fill="#0059d6"/>
      <path id="Trazado_229971" data-name="Trazado 229971" d="M426.281,174.78h-4.939a7.308,7.308,0,0,1,7.394,8.1L414.753,343.1a9.024,9.024,0,0,1-8.813,8.113h4.9a9.034,9.034,0,0,0,8.823-8.113l14.011-160.213a7.3,7.3,0,0,0-7.394-8.1Z" transform="translate(-176.75 -174.779)" fill="#263238"/>
      <g id="Grupo_124215" data-name="Grupo 124215" transform="translate(229.19)" opacity="0.2">
        <path id="Trazado_229972" data-name="Trazado 229972" d="M426.281,174.78h-4.939a7.308,7.308,0,0,1,7.394,8.1L414.753,343.1a9.024,9.024,0,0,1-8.813,8.113h4.9a9.034,9.034,0,0,0,8.823-8.113l14.011-160.213a7.3,7.3,0,0,0-7.394-8.1Z" transform="translate(-405.94 -174.779)" fill="#fff"/>
      </g>
      <g id="Grupo_124216" data-name="Grupo 124216" transform="translate(14.044 4.892)" opacity="0.1">
        <path id="Trazado_229973" data-name="Trazado 229973" d="M262.474,179.88h-8.516L223.95,321.086h8.516Z" transform="translate(-183.336 -179.88)" fill="#fff"/>
        <path id="Trazado_229974" data-name="Trazado 229974" d="M213.6,321.086,243.62,179.88h-32L181.6,321.086Z" transform="translate(-181.6 -179.88)" fill="#fff"/>
      </g>
      <path id="Trazado_229975" data-name="Trazado 229975" d="M327.04,408.732v2.34a2.311,2.311,0,0,1-2.3,2.311H248.976a2.206,2.206,0,0,1-2.206-2.206v-2.455a2.206,2.206,0,0,1,2.206-2.206h22.757a4.215,4.215,0,0,0,.854-.086h52.161A2.3,2.3,0,0,1,327.04,408.732Z" transform="translate(-170.227 -184.272)" fill="#fff" opacity="0.2"/>
      <path id="Trazado_229976" data-name="Trazado 229976" d="M343.728,406.26H273.72a4.172,4.172,0,0,0,3.309-3.98h64.945Z" transform="translate(-171.331 -184.102)" opacity="0.2"/>
    </g>
    <g id="freepik--profile-3--inject-52" transform="translate(286.746 130.119)">
      <rect id="Rectángulo_37546" data-name="Rectángulo 37546" width="106.566" height="122.773" transform="translate(5.418 12.956)" opacity="0.3"/>
      <rect id="Rectángulo_37547" data-name="Rectángulo 37547" width="106.365" height="130.359" fill="#fff"/>
      <rect id="Rectángulo_37548" data-name="Rectángulo 37548" width="106.365" height="7.711" fill="#263238"/>
      <rect id="Rectángulo_37549" data-name="Rectángulo 37549" width="76.875" height="122.649" transform="translate(29.49 7.711)" opacity="0.1"/>
      <rect id="Rectángulo_37550" data-name="Rectángulo 37550" width="21.597" height="24.973" transform="translate(33.278 10.645)" opacity="0.1"/>
      <rect id="Rectángulo_37551" data-name="Rectángulo 37551" width="44.796" height="10.281" transform="translate(58.98 10.645)" opacity="0.1"/>
      <rect id="Rectángulo_37552" data-name="Rectángulo 37552" width="44.796" height="55.45" transform="translate(58.98 25.337)" opacity="0.1"/>
      <rect id="Rectángulo_37553" data-name="Rectángulo 37553" width="44.796" height="41.497" transform="translate(58.98 85.19)" opacity="0.1"/>
      <rect id="Rectángulo_37554" data-name="Rectángulo 37554" width="29.739" height="9.552" transform="translate(29.25 45.16)" fill="#0059d6"/>
      <rect id="Rectángulo_37555" data-name="Rectángulo 37555" width="29.739" height="9.552" transform="translate(0 25.337)" fill="#0059d6"/>
      <rect id="Rectángulo_37556" data-name="Rectángulo 37556" width="44.796" height="4.958" transform="translate(58.98 94.281)"/>
      <path id="Trazado_229977" data-name="Trazado 229977" d="M365.11,206.039l.93-1.889.93,1.889,2.081.3-1.506,1.477.355,2.071-1.861-.978-1.86.978.355-2.071-1.515-1.467Z" transform="translate(-301.624 -191.232)" fill="#0059d6"/>
      <path id="Trazado_229978" data-name="Trazado 229978" d="M373.951,206.039l.93-1.889.94,1.889,2.081.3-1.506,1.477.355,2.071-1.861-.978-1.87.978.355-2.071-1.505-1.467Z" transform="translate(-301.986 -191.232)" fill="#0059d6"/>
      <path id="Trazado_229979" data-name="Trazado 229979" d="M382.8,206.039l.93-1.889.93,1.889,2.081.3-1.506,1.477.365,2.071-1.87-.978-1.86.978.355-2.071-1.506-1.467Z" transform="translate(-302.349 -191.232)" fill="#0059d6"/>
      <path id="Trazado_229980" data-name="Trazado 229980" d="M391.641,206.039l.93-1.889.94,1.889,2.081.3-1.506,1.477.355,2.071-1.86-.978-1.861.978.345-2.071-1.506-1.467Z" transform="translate(-302.711 -191.232)"/>
      <path id="Trazado_229981" data-name="Trazado 229981" d="M400.491,206.039l.93-1.889.93,1.889,2.081.3-1.5,1.477.355,2.071-1.87-.978-1.86.978.355-2.071-1.506-1.467Z" transform="translate(-303.074 -191.232)"/>
      <rect id="Rectángulo_37557" data-name="Rectángulo 37557" width="17.617" height="0.959" transform="translate(62.173 30.228)" fill="#263238"/>
      <rect id="Rectángulo_37558" data-name="Rectángulo 37558" width="13.906" height="0.959" transform="translate(62.173 38.485)" fill="#263238"/>
      <rect id="Rectángulo_37559" data-name="Rectángulo 37559" width="13.906" height="0.959" transform="translate(62.173 45.707)" fill="#263238"/>
      <rect id="Rectángulo_37560" data-name="Rectángulo 37560" width="13.906" height="0.959" transform="translate(62.173 52.919)" fill="#263238"/>
      <rect id="Rectángulo_37561" data-name="Rectángulo 37561" width="13.906" height="0.959" transform="translate(62.173 60.13)" fill="#263238"/>
      <rect id="Rectángulo_37562" data-name="Rectángulo 37562" width="13.906" height="0.959" transform="translate(62.173 67.352)" fill="#263238"/>
      <rect id="Rectángulo_37563" data-name="Rectángulo 37563" width="13.906" height="0.959" transform="translate(62.173 74.564)" fill="#263238"/>
      <rect id="Rectángulo_37564" data-name="Rectángulo 37564" width="13.906" height="0.959" transform="translate(77.997 38.485)" fill="#263238"/>
      <rect id="Rectángulo_37565" data-name="Rectángulo 37565" width="13.906" height="0.959" transform="translate(77.997 45.707)" fill="#263238"/>
      <rect id="Rectángulo_37566" data-name="Rectángulo 37566" width="13.906" height="0.959" transform="translate(77.997 52.919)" fill="#263238"/>
      <rect id="Rectángulo_37567" data-name="Rectángulo 37567" width="13.906" height="0.959" transform="translate(77.997 60.13)" fill="#263238"/>
      <rect id="Rectángulo_37568" data-name="Rectángulo 37568" width="13.906" height="0.959" transform="translate(77.997 67.352)" fill="#263238"/>
      <rect id="Rectángulo_37569" data-name="Rectángulo 37569" width="13.906" height="0.959" transform="translate(77.997 74.564)" fill="#263238"/>
      <rect id="Rectángulo_37570" data-name="Rectángulo 37570" width="29.73" height="0.959" transform="translate(62.173 32.981)" fill="#263238"/>
      <rect id="Rectángulo_37571" data-name="Rectángulo 37571" width="29.73" height="0.959" transform="translate(62.173 89.937)" fill="#263238"/>
      <rect id="Rectángulo_37572" data-name="Rectángulo 37572" width="21.597" height="0.959" transform="translate(33.278 38.485)" fill="#263238"/>
      <rect id="Rectángulo_37573" data-name="Rectángulo 37573" width="21.597" height="0.959" transform="translate(33.278 59.497)" fill="#263238"/>
      <rect id="Rectángulo_37574" data-name="Rectángulo 37574" width="21.597" height="0.959" transform="translate(33.278 67.534)" fill="#263238"/>
      <rect id="Rectángulo_37575" data-name="Rectángulo 37575" width="21.597" height="0.959" transform="translate(33.278 75.561)" fill="#263238"/>
      <rect id="Rectángulo_37576" data-name="Rectángulo 37576" width="21.597" height="0.959" transform="translate(33.278 83.598)" fill="#263238"/>
      <rect id="Rectángulo_37577" data-name="Rectángulo 37577" width="21.597" height="0.959" transform="translate(33.278 91.634)" fill="#263238"/>
      <rect id="Rectángulo_37578" data-name="Rectángulo 37578" width="21.597" height="0.959" transform="translate(33.278 99.661)" fill="#263238"/>
      <rect id="Rectángulo_37579" data-name="Rectángulo 37579" width="21.597" height="0.959" transform="translate(33.278 107.698)" fill="#263238"/>
      <rect id="Rectángulo_37580" data-name="Rectángulo 37580" width="21.597" height="0.959" transform="translate(33.278 115.725)" fill="#263238"/>
      <rect id="Rectángulo_37581" data-name="Rectángulo 37581" width="10.799" height="0.959" transform="translate(33.278 41.583)" fill="#263238"/>
      <rect id="Rectángulo_37582" data-name="Rectángulo 37582" width="22.307" height="0.959" transform="translate(3.721 12.438)" fill="#263238"/>
      <rect id="Rectángulo_37583" data-name="Rectángulo 37583" width="22.307" height="0.959" transform="translate(3.721 18.634)" fill="#263238"/>
      <rect id="Rectángulo_37584" data-name="Rectángulo 37584" width="22.307" height="0.959" transform="translate(3.721 41.583)" fill="#263238"/>
      <path id="Trazado_229982" data-name="Trazado 229982" d="M333.74,227.48v-3.04h0a32.06,32.06,0,0,1,20.945-.221l.652.221v3.04Z" transform="translate(-300.424 -191.987)" fill="#fff"/>
      <path id="Trazado_229983" data-name="Trazado 229983" d="M343.763,226.313a6.521,6.521,0,0,0,4.344-2.4,1.179,1.179,0,0,0-.115-1.477c-1.534-1.812-1.812-5.85-1.793-8.228l-1.726,2.215-2.35,3.021c.163.374.317.748.441,1.132a4.494,4.494,0,0,1,.2.844h0a2.637,2.637,0,0,1-1.218,2.733,1.151,1.151,0,0,0,.221,2.033A4.134,4.134,0,0,0,343.763,226.313Z" transform="translate(-300.723 -191.644)" fill="#f7978d"/>
      <path id="Trazado_229984" data-name="Trazado 229984" d="M342.17,219.577c.163.374.316.748.441,1.132a4.474,4.474,0,0,1,.2.844h0a3.759,3.759,0,0,0,2.11-3.04,5.441,5.441,0,0,0-.2-1.1Z" transform="translate(-300.769 -191.775)" opacity="0.2"/>
      <path id="Trazado_229985" data-name="Trazado 229985" d="M339.813,213.572a1.3,1.3,0,0,1-2.263,0c.815-1.707.2-1.87.153-3.146a4.1,4.1,0,0,1,1.755-3.836h1.314C345.5,207.568,339.813,213.572,339.813,213.572Z" transform="translate(-300.58 -191.332)" fill="#263238"/>
      <path id="Trazado_229986" data-name="Trazado 229986" d="M347.381,209.458a4.661,4.661,0,0,0-5.639-3.414c-3.673.806-5.208,5.85-5.092,9.082a4.673,4.673,0,0,0,.853,2.6,4.594,4.594,0,0,0,6.416,1.074c2.129-1.477,2.493-3.52,3.414-6.943A4.729,4.729,0,0,0,347.381,209.458Z" transform="translate(-300.543 -191.304)" fill="#f7978d"/>
      <path id="Trazado_229987" data-name="Trazado 229987" d="M338.33,215.806a16.365,16.365,0,0,1,3.587-.317,2.052,2.052,0,0,1-2.158,1.63,1.324,1.324,0,0,1-1.41-1.2S338.34,215.845,338.33,215.806Z" transform="translate(-300.612 -191.697)" fill="#263238"/>
      <path id="Trazado_229988" data-name="Trazado 229988" d="M340.368,216.45a2.226,2.226,0,0,0-1.458.46,1.409,1.409,0,0,0,.863.24,2.148,2.148,0,0,0,1.448-.46A1.381,1.381,0,0,0,340.368,216.45Z" transform="translate(-300.636 -191.736)" fill="#ff5652"/>
      <path id="Trazado_229989" data-name="Trazado 229989" d="M338.46,215.777a.585.585,0,0,0,.441.422,12.77,12.77,0,0,0,2.33-.269.729.729,0,0,0,.566-.451A19.445,19.445,0,0,0,338.46,215.777Z" transform="translate(-300.617 -191.696)" fill="#fff"/>
      <path id="Trazado_229990" data-name="Trazado 229990" d="M346.46,216.516s-1.525-3.453-1.4-4.575a3.356,3.356,0,0,1,2.244-3.011l1.285.268C354.18,211.51,346.46,216.516,346.46,216.516Z" transform="translate(-300.887 -191.428)" fill="#263238"/>
      <path id="Trazado_229991" data-name="Trazado 229991" d="M339.165,214.618a1.611,1.611,0,0,1-1.285-.479A10.547,10.547,0,0,0,339.721,212Z" transform="translate(-300.593 -191.554)" fill="#ff5652"/>
      <path id="Trazado_229992" data-name="Trazado 229992" d="M347.658,213c-.882-.134-1.822.959-2.206,1.745s-.134,1.726.8,1.515a3.319,3.319,0,0,0,1.832-1.275C348.646,214.179,348.531,213.124,347.658,213Z" transform="translate(-300.897 -191.594)" fill="#f7978d"/>
      <path id="Trazado_229993" data-name="Trazado 229993" d="M341.9,211.92a.528.528,0,0,0-.441.46c-.048.259.058.508.24.537s.355-.173.432-.451A.427.427,0,0,0,341.9,211.92Z" transform="translate(-300.74 -191.55)" fill="#263238"/>
      <path id="Trazado_229994" data-name="Trazado 229994" d="M338.611,211.19a.5.5,0,0,0-.441.451c-.058.288.048.537.23.566s.384-.173.441-.46S338.793,211.219,338.611,211.19Z" transform="translate(-300.605 -191.52)" fill="#263238"/>
      <path id="Trazado_229995" data-name="Trazado 229995" d="M339.289,210.033a.173.173,0,0,1-.153,0,1.419,1.419,0,0,0-1.237.163.163.163,0,0,1-.23,0h0a.191.191,0,0,1,0-.24h0a1.765,1.765,0,0,1,1.544-.221.173.173,0,0,1,.106.211A.207.207,0,0,1,339.289,210.033Z" transform="translate(-300.583 -191.457)" fill="#263238"/>
      <path id="Trazado_229996" data-name="Trazado 229996" d="M342.88,211.446a.23.23,0,0,1-.153-.067,1.419,1.419,0,0,0-1.065-.633.163.163,0,0,1-.173-.163h0a.173.173,0,0,1,.163-.163h0a1.755,1.755,0,0,1,1.352.767.182.182,0,0,1,0,.24A.153.153,0,0,1,342.88,211.446Z" transform="translate(-300.741 -191.489)" fill="#263238"/>
      <path id="Trazado_229997" data-name="Trazado 229997" d="M338.582,208.345a5.208,5.208,0,0,1-.163-1.918,2.379,2.379,0,0,1,1.285-1.467,4.8,4.8,0,0,1,2.963,0,1.918,1.918,0,0,1,.662.23.662.662,0,0,1,.345.585.671.671,0,0,1-.422.537c-.22.106-1.918.508-2.685.786A4.893,4.893,0,0,0,338.582,208.345Z" transform="translate(-300.614 -191.256)" fill="#263238"/>
      <path id="Trazado_229998" data-name="Trazado 229998" d="M349.486,206.467a4.22,4.22,0,0,1,1.036,4.642,17.824,17.824,0,0,1-.892,1.621l-2.378-1.63a5.178,5.178,0,0,1-2.378-2.666,2.772,2.772,0,0,0-3.136-1.669c-.326.067-.777.134-.959-.173s.336-.959.7-1.237C342.907,204.088,345.545,203.407,349.486,206.467Z" transform="translate(-300.711 -191.237)" fill="#263238"/>
      <path id="Trazado_229999" data-name="Trazado 229999" d="M344.851,208.327c-.882-1.534-2-1.678-3.491-1.448a1.362,1.362,0,0,1,.479-.959C343.01,204.961,344.6,207.215,344.851,208.327Z" transform="translate(-300.736 -191.295)" opacity="0.2"/>
      <path id="Trazado_230000" data-name="Trazado 230000" d="M340.644,206.637a1.043,1.043,0,0,0-.24.441,3.261,3.261,0,0,0,.384,2.541,3.5,3.5,0,0,1-.8-1.486,3.35,3.35,0,0,1-.182-1.055,1.411,1.411,0,0,1,.4-.959.9.9,0,0,1,.959-.192c.192.1.518.46.288.633S340.951,206.33,340.644,206.637Z" transform="translate(-300.672 -191.302)" fill="#263238"/>
    </g>
    <g id="freepik--profile-2--inject-52" transform="translate(212.614 78.323)">
      <path id="Trazado_230001" data-name="Trazado 230001" d="M333.906,175.671v97.292H227.35V150.19H328.306v25.481Z" transform="translate(-221.932 -137.224)" opacity="0.3"/>
      <rect id="Rectángulo_37585" data-name="Rectángulo 37585" width="106.365" height="130.359" transform="translate(0.01)" fill="#fff"/>
      <rect id="Rectángulo_37586" data-name="Rectángulo 37586" width="106.365" height="7.711" fill="#263238"/>
      <rect id="Rectángulo_37587" data-name="Rectángulo 37587" width="76.875" height="122.649" transform="translate(29.499 7.711)" opacity="0.1"/>
      <rect id="Rectángulo_37588" data-name="Rectángulo 37588" width="21.587" height="24.973" transform="translate(33.278 10.645)" opacity="0.1"/>
      <rect id="Rectángulo_37589" data-name="Rectángulo 37589" width="44.796" height="10.281" transform="translate(58.989 10.645)" opacity="0.1"/>
      <rect id="Rectángulo_37590" data-name="Rectángulo 37590" width="44.796" height="55.45" transform="translate(58.989 25.337)" opacity="0.1"/>
      <rect id="Rectángulo_37591" data-name="Rectángulo 37591" width="44.796" height="41.497" transform="translate(58.989 85.19)" opacity="0.1"/>
      <rect id="Rectángulo_37592" data-name="Rectángulo 37592" width="29.739" height="9.552" transform="translate(29.25 45.17)" fill="#0059d6"/>
      <rect id="Rectángulo_37593" data-name="Rectángulo 37593" width="29.739" height="9.552" transform="translate(0 25.337)" fill="#0059d6"/>
      <rect id="Rectángulo_37594" data-name="Rectángulo 37594" width="44.796" height="4.958" transform="translate(58.989 94.281)"/>
      <path id="Trazado_230002" data-name="Trazado 230002" d="M287.811,152.029l.93-1.889.93,1.889,2.081.307-1.506,1.467.365,2.072-1.87-.978-1.861.988.355-2.081-1.506-1.467Z" transform="translate(-224.324 -137.222)" fill="#0059d6"/>
      <path id="Trazado_230003" data-name="Trazado 230003" d="M296.661,152.029l.92-1.889.94,1.889,2.081.307L299.1,153.8l.355,2.072-1.861-.978-1.86.988.355-2.081-1.515-1.467Z" transform="translate(-224.687 -137.222)" fill="#0059d6"/>
      <path id="Trazado_230004" data-name="Trazado 230004" d="M305.5,152.029l.93-1.889.93,1.889,2.09.307-1.506,1.467.355,2.072-1.87-.978-1.86.988.355-2.081-1.506-1.467Z" transform="translate(-225.049 -137.222)" fill="#0059d6"/>
      <path id="Trazado_230005" data-name="Trazado 230005" d="M314.351,152.029l.93-1.889.93,1.889,2.081.307-1.506,1.467.365,2.072-1.87-.978-1.861.988.355-2.081-1.515-1.467Z" transform="translate(-225.411 -137.222)"/>
      <path id="Trazado_230006" data-name="Trazado 230006" d="M323.191,152.029l.93-1.889.94,1.889,2.081.307-1.506,1.467.355,2.072-1.861-.978-1.87.988.355-2.081-1.506-1.467Z" transform="translate(-225.774 -137.222)"/>
      <rect id="Rectángulo_37595" data-name="Rectángulo 37595" width="17.617" height="0.959" transform="translate(62.173 30.228)" fill="#263238"/>
      <rect id="Rectángulo_37596" data-name="Rectángulo 37596" width="13.906" height="0.959" transform="translate(62.173 38.495)" fill="#263238"/>
      <rect id="Rectángulo_37597" data-name="Rectángulo 37597" width="13.906" height="0.959" transform="translate(62.173 45.707)" fill="#263238"/>
      <rect id="Rectángulo_37598" data-name="Rectángulo 37598" width="13.906" height="0.959" transform="translate(62.173 52.919)" fill="#263238"/>
      <rect id="Rectángulo_37599" data-name="Rectángulo 37599" width="13.906" height="0.959" transform="translate(62.173 60.14)" fill="#263238"/>
      <rect id="Rectángulo_37600" data-name="Rectángulo 37600" width="13.906" height="0.959" transform="translate(62.173 67.352)" fill="#263238"/>
      <rect id="Rectángulo_37601" data-name="Rectángulo 37601" width="13.906" height="0.959" transform="translate(62.173 74.573)" fill="#263238"/>
      <rect id="Rectángulo_37602" data-name="Rectángulo 37602" width="13.906" height="0.959" transform="translate(77.997 38.495)" fill="#263238"/>
      <rect id="Rectángulo_37603" data-name="Rectángulo 37603" width="13.906" height="0.959" transform="translate(77.997 45.707)" fill="#263238"/>
      <rect id="Rectángulo_37604" data-name="Rectángulo 37604" width="13.906" height="0.959" transform="translate(77.997 52.919)" fill="#263238"/>
      <rect id="Rectángulo_37605" data-name="Rectángulo 37605" width="13.906" height="0.959" transform="translate(77.997 60.14)" fill="#263238"/>
      <rect id="Rectángulo_37606" data-name="Rectángulo 37606" width="13.906" height="0.959" transform="translate(77.997 67.352)" fill="#263238"/>
      <rect id="Rectángulo_37607" data-name="Rectángulo 37607" width="13.906" height="0.959" transform="translate(77.997 74.573)" fill="#263238"/>
      <rect id="Rectángulo_37608" data-name="Rectángulo 37608" width="29.73" height="0.959" transform="translate(62.173 32.981)" fill="#263238"/>
      <rect id="Rectángulo_37609" data-name="Rectángulo 37609" width="29.73" height="0.959" transform="translate(62.173 89.946)" fill="#263238"/>
      <rect id="Rectángulo_37610" data-name="Rectángulo 37610" width="21.597" height="0.959" transform="translate(33.278 38.495)" fill="#263238"/>
      <rect id="Rectángulo_37611" data-name="Rectángulo 37611" width="21.597" height="0.959" transform="translate(33.278 59.497)" fill="#263238"/>
      <rect id="Rectángulo_37612" data-name="Rectángulo 37612" width="21.597" height="0.959" transform="translate(33.278 67.534)" fill="#263238"/>
      <rect id="Rectángulo_37613" data-name="Rectángulo 37613" width="21.597" height="0.959" transform="translate(33.278 75.571)" fill="#263238"/>
      <rect id="Rectángulo_37614" data-name="Rectángulo 37614" width="21.597" height="0.959" transform="translate(33.278 83.598)" fill="#263238"/>
      <rect id="Rectángulo_37615" data-name="Rectángulo 37615" width="21.597" height="0.959" transform="translate(33.278 91.634)" fill="#263238"/>
      <rect id="Rectángulo_37616" data-name="Rectángulo 37616" width="21.597" height="0.959" transform="translate(33.278 99.671)" fill="#263238"/>
      <rect id="Rectángulo_37617" data-name="Rectángulo 37617" width="21.597" height="0.959" transform="translate(33.278 107.698)" fill="#263238"/>
      <rect id="Rectángulo_37618" data-name="Rectángulo 37618" width="21.597" height="0.959" transform="translate(33.278 115.734)" fill="#263238"/>
      <rect id="Rectángulo_37619" data-name="Rectángulo 37619" width="10.799" height="0.959" transform="translate(33.278 41.593)" fill="#263238"/>
      <rect id="Rectángulo_37620" data-name="Rectángulo 37620" width="22.307" height="0.959" transform="translate(3.721 12.438)" fill="#263238"/>
      <rect id="Rectángulo_37621" data-name="Rectángulo 37621" width="22.307" height="0.959" transform="translate(3.721 18.643)" fill="#263238"/>
      <rect id="Rectángulo_37622" data-name="Rectángulo 37622" width="22.307" height="0.959" transform="translate(3.721 41.593)" fill="#263238"/>
      <path id="Trazado_230007" data-name="Trazado 230007" d="M256.46,173.51v-3.04h0a32.03,32.03,0,0,1,20.935-.221l.652.221v3.04Z" transform="translate(-223.125 -137.978)" fill="#263238"/>
      <path id="Trazado_230008" data-name="Trazado 230008" d="M270.852,162.32l-2.273,1.8-3.078,2.455a3.388,3.388,0,0,1,.326,1.141,1.822,1.822,0,0,1-1.122,2.11c-.422.105-.959,2.091,1.583,2.359a5.37,5.37,0,0,0,4.172-1.026c.585-.537.767-.854.422-1.63C269.864,167.345,270.277,164.526,270.852,162.32Z" transform="translate(-223.448 -137.721)" fill="#dd8c6a"/>
      <path id="Trazado_230009" data-name="Trazado 230009" d="M266.3,166.052l1.995-1.822a1.886,1.886,0,0,0,0,.221,6.04,6.04,0,0,1,0,.959,3.836,3.836,0,0,1-2.407,2.628v-.23a4.228,4.228,0,0,0-.287-1.074v-.058Z" transform="translate(-223.499 -137.799)" opacity="0.2"/>
      <path id="Trazado_230010" data-name="Trazado 230010" d="M264.533,160.349c-1.084-3.251-.489-4.91-1.736-6.713-.748-.479-2.369.777-1.832,3.433S264.533,160.349,264.533,160.349Z" transform="translate(-223.305 -137.361)" fill="#263238"/>
      <path id="Trazado_230011" data-name="Trazado 230011" d="M271.281,157.928c-.355,3.529-.422,5.6-2.282,7.3-2.81,2.561-7.1.662-7.778-2.877-.623-3.232.105-8.449,3.635-9.59a4.92,4.92,0,0,1,6.214,3.126A4.841,4.841,0,0,1,271.281,157.928Z" transform="translate(-223.311 -137.319)" fill="#dd8c6a"/>
      <path id="Trazado_230012" data-name="Trazado 230012" d="M271.494,161.158l-1.534.086-.3-2.35-1.419-1.132-.4-3.673h4.488c.441,0,1.764,1.41,1.918,1.918a4.1,4.1,0,0,1-1.3,4.085A8.634,8.634,0,0,1,271.494,161.158Z" transform="translate(-223.591 -137.384)" fill="#263238"/>
      <path id="Trazado_230013" data-name="Trazado 230013" d="M271.222,155.368c-.9.47-2.023-.048-2.992-.316a28.583,28.583,0,0,0-2.935-.748,3.644,3.644,0,0,0-2.541.4,1.8,1.8,0,0,0-.7,2.273,3.75,3.75,0,0,1-.719-6.157,5.064,5.064,0,0,1,3.117-1.113,15.21,15.21,0,0,1,3.347.355c1.467.259,3.577.24,4.929.863S273.955,153.939,271.222,155.368Z" transform="translate(-223.271 -137.204)" fill="#263238"/>
      <path id="Trazado_230014" data-name="Trazado 230014" d="M272.984,160.984a3.25,3.25,0,0,1-1.381,1.841c-.873.537-1.63-.374-1.554-1.371a2.381,2.381,0,0,1,1.707-2.234C272.706,159.095,273.243,160.035,272.984,160.984Z" transform="translate(-223.681 -137.594)" fill="#dd8c6a"/>
      <path id="Trazado_230015" data-name="Trazado 230015" d="M265.85,159.288c0,.3-.153.537-.345.547s-.336-.22-.355-.518.163-.547.355-.547S265.85,158.991,265.85,159.288Z" transform="translate(-223.481 -137.576)" fill="#263238"/>
      <path id="Trazado_230016" data-name="Trazado 230016" d="M262.37,159.4c0,.3-.153.547-.345.547s-.355-.23-.355-.518.163-.537.355-.547S262.37,159.1,262.37,159.4Z" transform="translate(-223.338 -137.58)" fill="#263238"/>
      <path id="Trazado_230017" data-name="Trazado 230017" d="M263.475,159.61a9.37,9.37,0,0,1-1.055,2.263,1.41,1.41,0,0,0,1.208.105Z" transform="translate(-223.369 -137.61)" fill="#ff5652"/>
      <path id="Trazado_230018" data-name="Trazado 230018" d="M263.982,163.841a2.542,2.542,0,0,0,1.832-.777.088.088,0,1,0-.134-.115,2.445,2.445,0,0,1-2.023.71.087.087,0,0,0-.106.067.1.1,0,0,0,.077.106h0A2.075,2.075,0,0,0,263.982,163.841Z" transform="translate(-223.415 -137.746)" fill="#263238"/>
      <path id="Trazado_230019" data-name="Trazado 230019" d="M266.5,158.162a.175.175,0,0,0,.086,0,.163.163,0,0,0,0-.24,1.64,1.64,0,0,0-1.419-.643.182.182,0,0,0-.163.192h0a.173.173,0,0,0,.192.153,1.342,1.342,0,0,1,1.113.508A.163.163,0,0,0,266.5,158.162Z" transform="translate(-223.474 -137.514)" fill="#263238"/>
      <path id="Trazado_230020" data-name="Trazado 230020" d="M262.314,157.41a.151.151,0,0,0,0-.086.172.172,0,0,0-.192-.153,1.64,1.64,0,0,0-1.333.805.173.173,0,0,0,.067.24.182.182,0,0,0,.24-.077,1.285,1.285,0,0,1,1.055-.623A.172.172,0,0,0,262.314,157.41Z" transform="translate(-223.301 -137.51)" fill="#263238"/>
    </g>
    <g id="freepik--profile-1--inject-52" transform="translate(167.933 130.397)">
      <rect id="Rectángulo_37623" data-name="Rectángulo 37623" width="106.566" height="122.773" transform="translate(5.418 12.966)" opacity="0.3"/>
      <rect id="Rectángulo_37624" data-name="Rectángulo 37624" width="106.365" height="130.359" fill="#fff"/>
      <rect id="Rectángulo_37625" data-name="Rectángulo 37625" width="106.365" height="7.711" fill="#263238"/>
      <rect id="Rectángulo_37626" data-name="Rectángulo 37626" width="76.875" height="122.649" transform="translate(29.499 7.72)" opacity="0.1"/>
      <rect id="Rectángulo_37627" data-name="Rectángulo 37627" width="21.587" height="24.973" transform="translate(33.278 10.655)" opacity="0.1"/>
      <rect id="Rectángulo_37628" data-name="Rectángulo 37628" width="44.796" height="10.281" transform="translate(58.989 10.655)" opacity="0.1"/>
      <rect id="Rectángulo_37629" data-name="Rectángulo 37629" width="44.796" height="55.45" transform="translate(58.989 25.337)" opacity="0.1"/>
      <rect id="Rectángulo_37630" data-name="Rectángulo 37630" width="44.796" height="41.497" transform="translate(58.989 85.199)" opacity="0.1"/>
      <rect id="Rectángulo_37631" data-name="Rectángulo 37631" width="29.739" height="9.552" transform="translate(29.25 45.17)" fill="#0059d6"/>
      <rect id="Rectángulo_37632" data-name="Rectángulo 37632" width="29.739" height="9.552" transform="translate(0 25.337)" fill="#0059d6"/>
      <rect id="Rectángulo_37633" data-name="Rectángulo 37633" width="44.796" height="4.958" transform="translate(58.989 94.281)"/>
      <path id="Trazado_230021" data-name="Trazado 230021" d="M241.221,206.339l.93-1.889.93,1.889,2.091.3-1.515,1.467.364,2.081-1.87-.978-1.861.978.355-2.071-1.506-1.467Z" transform="translate(-177.734 -191.522)" fill="#0059d6"/>
      <path id="Trazado_230022" data-name="Trazado 230022" d="M250.071,206.339l.93-1.889.93,1.889,2.081.3-1.506,1.467.355,2.081-1.86-.978-1.861.978.355-2.071-1.515-1.467Z" transform="translate(-178.096 -191.522)" fill="#0059d6"/>
      <path id="Trazado_230023" data-name="Trazado 230023" d="M258.911,206.339l.93-1.889.93,1.889,2.091.3-1.506,1.467.355,2.081-1.861-.978-1.87.978.355-2.071-1.506-1.467Z" transform="translate(-178.459 -191.522)" fill="#0059d6"/>
      <path id="Trazado_230024" data-name="Trazado 230024" d="M267.761,206.339l.93-1.889.93,1.889,2.081.3L270.2,208.1l.355,2.081-1.861-.978-1.86.978.355-2.071-1.506-1.467Z" transform="translate(-178.822 -191.522)" fill="#0059d6"/>
      <path id="Trazado_230025" data-name="Trazado 230025" d="M276.6,206.339l.93-1.889.94,1.889,2.081.3-1.506,1.467.355,2.081-1.861-.978-1.86.978.345-2.071-1.506-1.467Z" transform="translate(-179.184 -191.522)"/>
      <rect id="Rectángulo_37634" data-name="Rectángulo 37634" width="17.617" height="0.959" transform="translate(62.173 30.238)" fill="#263238"/>
      <rect id="Rectángulo_37635" data-name="Rectángulo 37635" width="13.906" height="0.959" transform="translate(62.173 38.495)" fill="#263238"/>
      <rect id="Rectángulo_37636" data-name="Rectángulo 37636" width="13.906" height="0.959" transform="translate(62.173 45.716)" fill="#263238"/>
      <rect id="Rectángulo_37637" data-name="Rectángulo 37637" width="13.906" height="0.959" transform="translate(62.173 52.928)" fill="#263238"/>
      <rect id="Rectángulo_37638" data-name="Rectángulo 37638" width="13.906" height="0.959" transform="translate(62.173 60.14)" fill="#263238"/>
      <rect id="Rectángulo_37639" data-name="Rectángulo 37639" width="13.906" height="0.959" transform="translate(62.173 67.361)" fill="#263238"/>
      <rect id="Rectángulo_37640" data-name="Rectángulo 37640" width="13.906" height="0.959" transform="translate(62.173 74.573)" fill="#263238"/>
      <rect id="Rectángulo_37641" data-name="Rectángulo 37641" width="13.906" height="0.959" transform="translate(78.007 38.495)" fill="#263238"/>
      <rect id="Rectángulo_37642" data-name="Rectángulo 37642" width="13.906" height="0.959" transform="translate(78.007 45.716)" fill="#263238"/>
      <rect id="Rectángulo_37643" data-name="Rectángulo 37643" width="13.906" height="0.959" transform="translate(78.007 52.928)" fill="#263238"/>
      <rect id="Rectángulo_37644" data-name="Rectángulo 37644" width="13.906" height="0.959" transform="translate(78.007 60.14)" fill="#263238"/>
      <rect id="Rectángulo_37645" data-name="Rectángulo 37645" width="13.906" height="0.959" transform="translate(78.007 67.361)" fill="#263238"/>
      <rect id="Rectángulo_37646" data-name="Rectángulo 37646" width="13.906" height="0.959" transform="translate(78.007 74.573)" fill="#263238"/>
      <rect id="Rectángulo_37647" data-name="Rectángulo 37647" width="29.73" height="0.959" transform="translate(62.173 32.99)" fill="#263238"/>
      <rect id="Rectángulo_37648" data-name="Rectángulo 37648" width="29.73" height="0.959" transform="translate(62.173 89.946)" fill="#263238"/>
      <rect id="Rectángulo_37649" data-name="Rectángulo 37649" width="21.597" height="0.959" transform="translate(33.278 38.495)" fill="#263238"/>
      <rect id="Rectángulo_37650" data-name="Rectángulo 37650" width="21.597" height="0.959" transform="translate(33.278 59.507)" fill="#263238"/>
      <rect id="Rectángulo_37651" data-name="Rectángulo 37651" width="21.597" height="0.959" transform="translate(33.278 67.544)" fill="#263238"/>
      <rect id="Rectángulo_37652" data-name="Rectángulo 37652" width="21.597" height="0.959" transform="translate(33.278 75.571)" fill="#263238"/>
      <rect id="Rectángulo_37653" data-name="Rectángulo 37653" width="21.597" height="0.959" transform="translate(33.278 83.607)" fill="#263238"/>
      <rect id="Rectángulo_37654" data-name="Rectángulo 37654" width="21.597" height="0.959" transform="translate(33.278 91.634)" fill="#263238"/>
      <rect id="Rectángulo_37655" data-name="Rectángulo 37655" width="21.597" height="0.959" transform="translate(33.278 99.671)" fill="#263238"/>
      <rect id="Rectángulo_37656" data-name="Rectángulo 37656" width="21.597" height="0.959" transform="translate(33.278 107.707)" fill="#263238"/>
      <rect id="Rectángulo_37657" data-name="Rectángulo 37657" width="21.597" height="0.959" transform="translate(33.278 115.734)" fill="#263238"/>
      <rect id="Rectángulo_37658" data-name="Rectángulo 37658" width="10.799" height="0.959" transform="translate(33.278 41.593)" fill="#263238"/>
      <rect id="Rectángulo_37659" data-name="Rectángulo 37659" width="22.307" height="0.959" transform="translate(3.721 12.448)" fill="#263238"/>
      <rect id="Rectángulo_37660" data-name="Rectángulo 37660" width="22.307" height="0.959" transform="translate(3.721 18.643)" fill="#263238"/>
      <rect id="Rectángulo_37661" data-name="Rectángulo 37661" width="22.307" height="0.959" transform="translate(3.721 41.593)" fill="#263238"/>
      <path id="Trazado_230026" data-name="Trazado 230026" d="M209.81,227.91v-3.05h0a32.183,32.183,0,0,1,20.945-.22l.652.22v3.05Z" transform="translate(-176.532 -192.282)" fill="#0059d6"/>
      <path id="Trazado_230027" data-name="Trazado 230027" d="M218.807,205.353a4.584,4.584,0,0,0-4.037.786,7.9,7.9,0,0,0-2.522,3.385,2.272,2.272,0,0,0,0,2.263c.508.642,1.486.6,2.311.508C215.834,209.879,217.349,207.674,218.807,205.353Z" transform="translate(-176.62 -191.552)" fill="#263238"/>
      <path id="Trazado_230028" data-name="Trazado 230028" d="M218.231,220.353c.614,1.477.959,3.126-.959,4.45a2.119,2.119,0,0,0-.825,1.132c-.2.748.058,1.592,2.829.729,4.009-1.247,4.277-3.673,4.277-3.673-1.707-1.007-1.918-5.16-1.765-7.48Z" transform="translate(-176.802 -191.976)" fill="#ffb573"/>
      <path id="Trazado_230029" data-name="Trazado 230029" d="M220.889,218.873c0,1.017-1.323,2.292-2.225,2.7a6.208,6.208,0,0,0-.374-1.151l2.129-2.877A3.34,3.34,0,0,1,220.889,218.873Z" transform="translate(-176.88 -192.059)" opacity="0.2"/>
      <path id="Trazado_230030" data-name="Trazado 230030" d="M223.882,209.538a5.016,5.016,0,0,0-6.262-3.347c-3.75,1.112-4.8,6.521-4.364,9.907.489,3.788,4.872,5.3,7.95,2.714,2.062-1.726,2.235-3.289,2.819-6.953A5.128,5.128,0,0,0,223.882,209.538Z" transform="translate(-176.67 -191.585)" fill="#ffb573"/>
      <path id="Trazado_230031" data-name="Trazado 230031" d="M215.553,215.255a1.4,1.4,0,0,1-1.1-.317,8.273,8.273,0,0,0,1.333-1.918Z" transform="translate(-176.722 -191.874)" fill="#ed893e"/>
      <path id="Trazado_230032" data-name="Trazado 230032" d="M218.444,215.893a.1.1,0,0,0,0-.125.086.086,0,0,0-.125,0,2.359,2.359,0,0,1-2.024.738.105.105,0,0,0-.1.086h0a.1.1,0,0,0,.077.1,3.244,3.244,0,0,0,.432,0A2.532,2.532,0,0,0,218.444,215.893Z" transform="translate(-176.794 -191.985)" fill="#263238"/>
      <path id="Trazado_230033" data-name="Trazado 230033" d="M215.55,206.585a3.347,3.347,0,0,1,3.261,1.918,9.256,9.256,0,0,1,.5,1.851,3.537,3.537,0,0,0,.8,1.726,1.515,1.515,0,0,0,1.745.364,3.309,3.309,0,0,0,2.474,2.263c-.825,1.2-1.851,2.455-2.675,3.654.3.959.326,1.113.623,2.043a8.19,8.19,0,0,0,4.8-4.066c.959-1.918,1.17-4.325-.652-4.383.642-1.295-.537-4.009-1.506-5.083a7.979,7.979,0,0,0-6.713-1.918A4.565,4.565,0,0,0,215.55,206.585Z" transform="translate(-176.767 -191.538)" fill="#263238"/>
      <path id="Trazado_230034" data-name="Trazado 230034" d="M225.275,214.753a1.218,1.218,0,0,0-1.074-1.333c-.959-.077-1.621,1.026-1.813,1.822s.288,1.669,1.189,1.362a2.714,2.714,0,0,0,1.544-1.371A1.179,1.179,0,0,0,225.275,214.753Z" transform="translate(-177.046 -191.89)" fill="#ffb573"/>
      <path id="Trazado_230035" data-name="Trazado 230035" d="M219.211,211.085a.18.18,0,0,0,.086,0,.192.192,0,0,0,0-.259h0a2.081,2.081,0,0,0-1.784-.8.178.178,0,0,0,.038.355,1.794,1.794,0,0,1,1.467.671A.182.182,0,0,0,219.211,211.085Z" transform="translate(-176.841 -191.751)" fill="#263238"/>
      <path id="Trazado_230036" data-name="Trazado 230036" d="M213.489,211.283a.153.153,0,0,0,.077-.048,1.783,1.783,0,0,1,1.458-.69.182.182,0,0,0,.2-.163h0a.2.2,0,0,0-.173-.2,2.148,2.148,0,0,0-1.774.825.173.173,0,0,0,.2.278Z" transform="translate(-176.672 -191.757)" fill="#263238"/>
      <path id="Trazado_230037" data-name="Trazado 230037" d="M218.336,212.053c0,.326-.2.595-.422.585s-.384-.288-.364-.623.2-.585.412-.585S218.346,211.718,218.336,212.053Z" transform="translate(-176.849 -191.808)" fill="#263238"/>
      <path id="Trazado_230038" data-name="Trazado 230038" d="M214.858,212.345c0,.316-.192.566-.4.556s-.355-.268-.345-.595.192-.566.4-.556S214.877,211.99,214.858,212.345Z" transform="translate(-176.708 -191.822)" fill="#263238"/>
      <path id="Trazado_230039" data-name="Trazado 230039" d="M214.588,211.759l-.748-.249S214.2,212.124,214.588,211.759Z" transform="translate(-176.697 -191.812)" fill="#263238"/>
      <path id="Trazado_230040" data-name="Trazado 230040" d="M218.046,211.448l-.786-.268S217.644,211.823,218.046,211.448Z" transform="translate(-176.837 -191.798)" fill="#263238"/>
    </g>
    <g id="freepik--Character--inject-52" transform="translate(61.674 51.601)">
      <path id="Trazado_230041" data-name="Trazado 230041" d="M90.323,246.769c-7.423,0-7.423-6.358-7.423-6.358l63.055-67.783.326-1.467,3.615,3.366a.955.955,0,0,1-.1.144C149.6,175.044,94.5,246.769,90.323,246.769Z" transform="translate(-65.072 -111.362)" fill="#263238"/>
      <g id="Grupo_124217" data-name="Grupo 124217" transform="translate(79.021 4.496)" opacity="0.5">
        <path id="Trazado_230042" data-name="Trazado 230042" d="M187.871,154.776c-8.276,12.793-22.134,22.614-30.852,18.058a.366.366,0,0,0,.1-.153l-4.8-2.608c-3.213-2.877-5.025-7.106-5.486-12.074-.729-7.672,1.7-16.955,6.991-25.558,9.331-15.172,24.541-21.914,31.561-17.723a35.612,35.612,0,0,1,3.318,2.244h.048a22.142,22.142,0,0,1,2.637,2.033,8.507,8.507,0,0,1,1.055,1.256,16.822,16.822,0,0,1,2.934,8.823C196.032,136.516,193.568,146,187.871,154.776Z" transform="translate(-146.708 -113.495)" fill="#fff" opacity="0.4"/>
      </g>
      <path id="Trazado_230043" data-name="Trazado 230043" d="M195.4,129.173l-43.06,40.95c-3.213-2.877-5.025-7.106-5.5-12.074v-.077l45.592-37.622A16.918,16.918,0,0,1,195.4,129.173Z" transform="translate(-67.692 -109.279)" fill="#fff" opacity="0.2"/>
      <path id="Trazado_230044" data-name="Trazado 230044" d="M190.874,155.888c10.463-16.9,9.159-36.7-2.963-44.2s-30.411.153-40.883,17.042c-10.194,16.476-9.226,35.666,2,43.587a11.105,11.105,0,0,0,.959.643,18.228,18.228,0,0,0,4.191,1.918C166.007,178.674,181.543,170.954,190.874,155.888Zm-35.1,15.8a8.142,8.142,0,0,1-1.918-.806,1.447,1.447,0,0,1-.269-.144l-.4-.259-.115-.077a11.367,11.367,0,0,1-1.621-1.247c-7.442-6.771-6.713-23.016,2.1-37.143,9.389-15.143,24.752-21.846,31.226-18.02a33.642,33.642,0,0,1,3.05,2.052h0a8.632,8.632,0,0,1,1.381,1.189c5.754,6.013,3.98,20.8-4.651,34.736s-20.82,22.038-28.78,19.717Z" transform="translate(-67.41 -108.806)" fill="#263238"/>
      <g id="Grupo_124218" data-name="Grupo 124218" transform="translate(88.373 7.887)" opacity="0.4">
        <path id="Trazado_230045" data-name="Trazado 230045" d="M188.242,154.671c-8.286,12.822-22.134,22.642-30.852,18.068a.365.365,0,0,0,.1-.153l-1.026-.566c7.941,2.33,20.255-5.869,28.828-19.689s10.434-28.694,4.642-34.716a6.99,6.99,0,0,0-.6-.585,20.431,20.431,0,0,1,2.474,1.918,7.894,7.894,0,0,1,1.045,1.237A17.146,17.146,0,0,1,195.8,129C196.384,136.421,193.929,145.925,188.242,154.671Z" transform="translate(-156.46 -117.03)" opacity="0.4"/>
      </g>
      <path id="Trazado_230046" data-name="Trazado 230046" d="M64.493,311.4c.374,2.513,2.877,4.066,5.246,5.044a40.051,40.051,0,0,0,13.321,3,225.972,225.972,0,0,0,7.231-37.6C78.984,288.86,62.527,298.239,64.493,311.4Z" transform="translate(-64.311 -115.897)" fill="#263238"/>
      <path id="Trazado_230047" data-name="Trazado 230047" d="M64.493,311.4c.374,2.513,2.877,4.066,5.246,5.044a40.051,40.051,0,0,0,13.321,3,225.972,225.972,0,0,0,7.231-37.6C78.984,288.86,62.527,298.239,64.493,311.4Z" transform="translate(-64.311 -115.897)" opacity="0.2"/>
      <path id="Trazado_230048" data-name="Trazado 230048" d="M124.179,154.32c.355-.058.738.326.844.873s-.1,1.065-.46,1.122-.738-.316-.844-.873S123.815,154.387,124.179,154.32Z" transform="translate(-66.744 -110.671)" fill="#263238"/>
      <path id="Trazado_230049" data-name="Trazado 230049" d="M125.167,161.7a3.222,3.222,0,0,0,2.541-.959,20.663,20.663,0,0,1-3.539-4.21Z" transform="translate(-66.763 -110.762)" fill="#b74d3c"/>
      <path id="Trazado_230050" data-name="Trazado 230050" d="M121.226,152.579a2.6,2.6,0,0,1,2.206-.959h.115a.336.336,0,0,0,.01-.671,3.27,3.27,0,0,0-2.8,1.064.3.3,0,0,0-.086.211.326.326,0,0,0,.317.345A.345.345,0,0,0,121.226,152.579Z" transform="translate(-66.62 -110.532)" fill="#263238"/>
      <path id="Trazado_230051" data-name="Trazado 230051" d="M116.269,186.7c-9.446-.1-10.789-5.265-10.789-5.265,2.877-2.685,3.117-7.73,2.609-12.237a10.426,10.426,0,0,0,2.752,2.752,8.631,8.631,0,0,0,6.886,1.381.318.318,0,0,0,.125,0,1.333,1.333,0,0,0-.058.269c-.643,3.6-.221,7.452,3.539,8.631C121.323,182.223,126.674,186.807,116.269,186.7Z" transform="translate(-65.997 -111.281)" fill="#cb7a63"/>
      <path id="Trazado_230052" data-name="Trazado 230052" d="M118.229,171.83a11.5,11.5,0,0,0-.288,1.323.319.319,0,0,1-.125,0,8.631,8.631,0,0,1-6.886-1.381,10.425,10.425,0,0,1-2.752-2.752c-.125-1.141-.307-2.254-.5-3.28l10.166,5.831Z" transform="translate(-66.087 -111.139)" fill="#cb7a63"/>
      <path id="Trazado_230053" data-name="Trazado 230053" d="M102.47,182.521s1.582-4.575,3.836-5.984,12.141.307,13.676.959,3.031,4.239,3.031,4.239Z" transform="translate(-65.874 -111.56)" fill="#263238"/>
      <path id="Trazado_230054" data-name="Trazado 230054" d="M102.47,182.521s1.582-4.575,3.836-5.984,12.141.307,13.676.959,3.031,4.239,3.031,4.239Z" transform="translate(-65.874 -111.56)" fill="#fff" opacity="0.5"/>
      <path id="Trazado_230055" data-name="Trazado 230055" d="M125,163.436a9.59,9.59,0,0,1-4.8,7.941h-.058a7.887,7.887,0,0,1-2.34.959.316.316,0,0,1-.125,0,8.632,8.632,0,0,1-6.886-1.381,10.426,10.426,0,0,1-2.752-2.752c-1.8-2.57-2.5-5.975-3.731-10.77a9.437,9.437,0,0,1,10.971-11.691C122.423,147.2,125.28,157.059,125,163.436Z" transform="translate(-65.936 -110.312)" fill="#cb7a63"/>
      <path id="Trazado_230056" data-name="Trazado 230056" d="M120.72,172.351a7.881,7.881,0,0,1-2.34.959l.345-4.2S120.221,172.351,120.72,172.351Z" transform="translate(-66.526 -111.277)" opacity="0.2"/>
      <path id="Trazado_230057" data-name="Trazado 230057" d="M102.263,155.122c-.959,1.918-3.107,4.1-4.018,6a5.563,5.563,0,0,0-.806,3.213,2.263,2.263,0,0,0,2.522,1.918c-.959,1.362-.249,3.606,1.218,4.536a3.836,3.836,0,0,0,4.8-.7c.959,1.036,1.678,1.8,3.136,1.822a5.314,5.314,0,0,0,3.836-1.582,4.718,4.718,0,0,0,5.275,1.122,4.057,4.057,0,0,0,2.206-4.613,14.384,14.384,0,0,1-.719-4.91s2.062-3.031,1.218-4.862l-.9-5.754a8.63,8.63,0,0,0-5.61-1.745,17.522,17.522,0,0,0-5.85,1.3C105.965,151.9,103.386,152.763,102.263,155.122Z" transform="translate(-65.667 -110.476)" fill="#263238"/>
      <path id="Trazado_230058" data-name="Trazado 230058" d="M118.7,154.995c1.966.623,2.944,3.577,2.992,5.438.058,2.052-1.343,3.318-3.107,1.918a7.874,7.874,0,0,1-2.657-4.248C115.485,156.107,116.722,154.41,118.7,154.995Z" transform="translate(-66.422 -110.694)" fill="#cb7a63"/>
      <path id="Trazado_230059" data-name="Trazado 230059" d="M99.286,408.222c-.959-.048-1.861-.23-2.119-.671a.633.633,0,0,1,.077-.758.853.853,0,0,1,.595-.374c1.256-.269,3.7,1.333,3.836,1.4a.173.173,0,0,1,.067.182.163.163,0,0,1-.153.134A13.251,13.251,0,0,1,99.286,408.222Zm-1.036-1.487a1.337,1.337,0,0,0-.336,0,.537.537,0,0,0-.374.23c-.134.211-.105.307,0,.383.3.489,2.167.595,3.558.489a7.67,7.67,0,0,0-2.81-1.1Z" transform="translate(-65.653 -121.002)" fill="#0059d6"/>
      <path id="Trazado_230060" data-name="Trazado 230060" d="M101.63,408.044h-.077c-.854-.451-2.465-2.11-2.244-2.954,0-.2.211-.431.7-.46a1.3,1.3,0,0,1,.959.345c.911.834.873,2.819.873,2.877a.22.22,0,0,1-.1.153A.16.16,0,0,1,101.63,408.044Zm-1.525-3.059h-.134c-.317,0-.355.144-.364.182-.125.5.959,1.8,1.813,2.407a3.98,3.98,0,0,0-.767-2.321.844.844,0,0,0-.595-.288Z" transform="translate(-65.743 -120.93)" fill="#0059d6"/>
      <path id="Trazado_230061" data-name="Trazado 230061" d="M110.777,390.743l-7.346-.393-.911,16.974,7.384.393Z" transform="translate(-65.876 -120.344)" fill="#cb7a63"/>
      <path id="Trazado_230062" data-name="Trazado 230062" d="M100.155,407.641c-5.3,2.8-6.857,2.877-12.784,3.836-1.295.211-.767,3.318,2.273,3.481,5.035.278,5.581.067,9.868.3,3.673.2,7.883.595,10.8.8a.843.843,0,0,0,.269,0,1.122,1.122,0,0,0,.959-1.247l-.834-6.627a.633.633,0,0,0-.585-.537l-8.085-.432A3.645,3.645,0,0,0,100.155,407.641Z" transform="translate(-65.228 -121.035)" fill="#263238"/>
      <path id="Trazado_230063" data-name="Trazado 230063" d="M110.8,390.753,110.255,401l-7.375-.393.566-10.252Z" transform="translate(-65.891 -120.345)" opacity="0.2"/>
      <path id="Trazado_230064" data-name="Trazado 230064" d="M120.712,236.38s-.623,48.977-2.282,72.061c-1.554,21.5-6.358,84.173-6.358,84.173L99.6,391.933s-2.618-64.388-2.877-86.312c-.23-20.772-1.247-70.181-1.247-70.181Z" transform="translate(-65.587 -113.996)" fill="#0059d6"/>
      <path id="Trazado_230065" data-name="Trazado 230065" d="M120.712,236.38s-.623,48.977-2.282,72.061c-1.554,21.5-6.358,84.173-6.358,84.173L99.6,391.933s-2.618-64.388-2.877-86.312c-.23-20.772-1.247-70.181-1.247-70.181Z" transform="translate(-65.587 -113.996)" fill="#263238"/>
      <path id="Trazado_230066" data-name="Trazado 230066" d="M120.712,236.38s-.623,48.977-2.282,72.061c-1.554,21.5-6.358,84.173-6.358,84.173L99.6,391.933s-2.618-64.388-2.877-86.312c-.23-20.772-1.247-70.181-1.247-70.181Z" transform="translate(-65.587 -113.996)" fill="#fff" opacity="0.6"/>
      <path id="Trazado_230067" data-name="Trazado 230067" d="M114.437,394.818l-.844,4.546-15.181-.815s-.249-5.169-.192-5.169Z" transform="translate(-65.699 -120.469)" fill="#263238"/>
      <g id="Grupo_124219" data-name="Grupo 124219" transform="translate(32.512 272.911)" opacity="0.5">
        <path id="Trazado_230068" data-name="Trazado 230068" d="M114.437,394.818l-.844,4.546-15.181-.815s-.249-5.169-.192-5.169Z" transform="translate(-98.211 -393.38)" fill="#fff"/>
      </g>
      <path id="Trazado_230069" data-name="Trazado 230069" d="M178.588,406.768c-.086-.959-.048-1.87.345-2.225a.671.671,0,0,1,.767-.086.873.873,0,0,1,.451.508c.451,1.17-.758,3.922-.815,4.057a.163.163,0,0,1-.173.105.173.173,0,0,1-.153-.125A13.492,13.492,0,0,1,178.588,406.768Zm1.323-1.333a1.987,1.987,0,0,0,0-.336.48.48,0,0,0-.278-.317.308.308,0,0,0-.384.048c-.441.393-.278,2.244.048,3.587a8.239,8.239,0,0,0,.642-2.983Z" transform="translate(-68.992 -120.919)" fill="#0059d6"/>
      <path id="Trazado_230070" data-name="Trazado 230070" d="M179,409.024a.163.163,0,0,1,0-.067c.316-.959,1.736-2.877,2.58-2.877.2,0,.46.125.547.585a1.314,1.314,0,0,1-.2,1.017c-.671,1.065-2.647,1.458-2.724,1.477a.172.172,0,0,1-.163-.058A.124.124,0,0,1,179,409.024Zm2.791-2.129v-.115c0-.307-.192-.317-.23-.307-.508,0-1.64,1.314-2.1,2.283a4.27,4.27,0,0,0,2.177-1.228,1.035,1.035,0,0,0,.192-.643Z" transform="translate(-69.01 -120.989)" fill="#0059d6"/>
      <path id="Trazado_230071" data-name="Trazado 230071" d="M173.077,391.85l-7.087,1.295,5.476,16.639,7.145-1.3Z" transform="translate(-68.477 -120.406)" fill="#cb7a63"/>
      <path id="Trazado_230072" data-name="Trazado 230072" d="M180.347,407.977c2.148,2.081,3.28,3.146,9.072,4.3,1.276.249.432,3.347-2.609,3.414-5.025.115-2.273-.182-6.56-.086-3.663.077-7.873.345-10.789.46a1.035,1.035,0,0,1-.3,0,1.055,1.055,0,0,1-.806-1.275l1.477-6.617a.652.652,0,0,1,.633-.518l8.056-.182A2.426,2.426,0,0,1,180.347,407.977Z" transform="translate(-68.573 -121.045)" fill="#263238"/>
      <path id="Trazado_230073" data-name="Trazado 230073" d="M173.087,391.86l2.839,8.545-7.116,1.3-2.819-8.564Z" transform="translate(-68.477 -120.406)" opacity="0.2"/>
      <path id="Trazado_230074" data-name="Trazado 230074" d="M121.288,270c-.959,16.591-1.793,36.443-2.474,47.481,0,.537-.077,1.084-.1,1.678-3.069-17.512-7.672-46.033.815-48.977A5.358,5.358,0,0,1,121.288,270Z" transform="translate(-66.374 -115.412)" opacity="0.3"/>
      <path id="Trazado_230075" data-name="Trazado 230075" d="M99,238.755s1.649,17.061,4.306,24.551c3.759,10.6,8.449,14.011,12.055,20.35,6.358,11.173,9.9,20.772,14.184,29.662,13.426,27.811,32.012,76.789,32.012,76.789l13.426-.959L127.425,237.94Z" transform="translate(-65.732 -114.098)" fill="#263238"/>
      <path id="Trazado_230076" data-name="Trazado 230076" d="M99,238.755s1.649,17.061,4.306,24.551c3.759,10.6,8.449,14.011,12.055,20.35,6.358,11.173,9.9,20.772,14.184,29.662,13.426,27.811,32.012,76.789,32.012,76.789l13.426-.959L127.425,237.94Z" transform="translate(-65.732 -114.098)" fill="#fff" opacity="0.6"/>
      <path id="Trazado_230077" data-name="Trazado 230077" d="M179.992,392.64l.163,4.613-15.6,2.33s-1.41-4.987-1.352-4.987Z" transform="translate(-68.363 -120.438)" fill="#263238"/>
      <g id="Grupo_124220" data-name="Grupo 124220" transform="translate(94.836 272.202)" opacity="0.5">
        <path id="Trazado_230078" data-name="Trazado 230078" d="M179.992,392.64l.163,4.613-15.6,2.33s-1.41-4.987-1.352-4.987Z" transform="translate(-163.198 -392.64)" fill="#fff"/>
      </g>
      <path id="Trazado_230079" data-name="Trazado 230079" d="M102.753,225.457a17.813,17.813,0,0,1-4.536,6.8,1.918,1.918,0,0,1-1.918.307s-4.133-2.551-4.459-3.7a.537.537,0,0,1,0-.211l1.026-4.8.125-.048c.748-.249,4.8-1.486,6.5-.8l2.676,1.074a.959.959,0,0,1,.585,1.371Z" transform="translate(-65.438 -113.478)" fill="#cb7a63"/>
      <path id="Trazado_230080" data-name="Trazado 230080" d="M95.074,194.2l-14.03,13.666,11.038,14.232-.125.048-1.026,4.8a.536.536,0,0,0,0,.211,4.229,4.229,0,0,1-2.177.2s-20.935-17-19.756-19.938a56.326,56.326,0,0,1,3.836-6.713l.144-.221c1.851-3.069,13.493-20.494,22.249-20.4C102.151,180.137,101.777,188.107,95.074,194.2Z" transform="translate(-64.5 -111.727)" fill="#0059d6"/>
      <path id="Trazado_230081" data-name="Trazado 230081" d="M95.073,194.2l-14.03,13.666,11.038,14.232-.125.048-1.026,4.8a.537.537,0,0,0,0,.211,4.229,4.229,0,0,1-2.177.2S67.558,212.8,69,207.412c.4-1.544,2.244-4.258,3.836-6.713l.144-.221c1.851-3.069,13.493-20.494,22.249-20.4C102.15,180.137,101.776,188.107,95.073,194.2Z" transform="translate(-64.499 -111.727)" opacity="0.5"/>
      <path id="Trazado_230082" data-name="Trazado 230082" d="M91.88,228.9a.535.535,0,0,1,0-.211l1.026-4.8.125-.048.345.144S94.488,227.907,91.88,228.9Z" transform="translate(-65.439 -113.521)" fill="#263238"/>
      <g id="freepik--group--inject-52" transform="translate(0 52.481)">
        <path id="Trazado_230083" data-name="Trazado 230083" d="M160.049,307.943c-21.559,5.246-19.43-12.467-49.063-.959-8.727,3.4-13.8-5.37-18.519-6.809C83.059,297.3,72.6,298.18,64.31,303.483a243.974,243.974,0,0,1,28.617-68.637c.681-5.006,2.676-15.594-2.743-45.208-.959-5.438,4.642-10.1,10.156-10.386l3.481-.259a137.769,137.769,0,0,1,15.8.163c1.755.173,3.462.441,4.977.729a9.878,9.878,0,0,1,7.9,7.95,70.535,70.535,0,0,1,.959,16.14c-.211,5.629-.863,12.985-2.206,23.151-.336,2.551-.719,5.284-1.151,8.219h0S144.235,269.285,160.049,307.943Z" transform="translate(-64.31 -164.157)" fill="#0059d6"/>
        <path id="Trazado_230084" data-name="Trazado 230084" d="M160.049,307.943c-21.559,5.246-19.43-12.467-49.063-.959-8.727,3.4-13.8-5.37-18.519-6.809C83.059,297.3,72.6,298.18,64.31,303.483a243.974,243.974,0,0,1,28.617-68.637c.681-5.006,2.676-15.594-2.743-45.208-.959-5.438,4.642-10.1,10.156-10.386l3.481-.259a137.769,137.769,0,0,1,15.8.163c1.755.173,3.462.441,4.977.729a9.878,9.878,0,0,1,7.9,7.95,70.535,70.535,0,0,1,.959,16.14c-.211,5.629-.863,12.985-2.206,23.151-.336,2.551-.719,5.284-1.151,8.219h0S144.235,269.285,160.049,307.943Z" transform="translate(-64.31 -164.157)" opacity="0.5"/>
        <path id="Trazado_230085" data-name="Trazado 230085" d="M135.992,204.543c-.211,5.629-.863,12.985-2.206,23.151-.825-8.9-2.292-17.636-7.567-35.484l9.59,3.059C136,198.233,136.031,201.388,135.992,204.543Z" transform="translate(-66.847 -164.705)" opacity="0.2"/>
        <path id="Trazado_230086" data-name="Trazado 230086" d="M131.142,164.623a1.477,1.477,0,0,0-1.429-.959c-2.024-.163-3.078-.317-4.968.432a.8.8,0,0,0-.364.249.844.844,0,0,0-.077.374c0,1.122-.067,2.244-.105,3.357a1.151,1.151,0,0,0,.623,1.256c1.036.729,5.936,3.222,5.936,3.222.959.105,3.031-1.745,3.894-2.234Z" transform="translate(-66.764 -163.53)" fill="#cb7a63"/>
        <path id="Trazado_230087" data-name="Trazado 230087" d="M129.65,172.944l5.5-2.954s14.27,18.221,15.114,19.689c6.713,11.825-2.513,11.508-5.131,9.878-6.013-3.731-5.428-9.12-7.787-13.839Z" transform="translate(-66.988 -163.795)" fill="#0059d6"/>
        <g id="Grupo_124221" data-name="Grupo 124221" transform="translate(62.662 6.195)" opacity="0.5">
          <path id="Trazado_230088" data-name="Trazado 230088" d="M129.65,172.944l5.5-2.954s14.27,18.221,15.114,19.689c6.713,11.825-2.513,11.508-5.131,9.878-6.013-3.731-5.428-9.12-7.787-13.839Z" transform="translate(-129.65 -169.99)"/>
        </g>
        <path id="Trazado_230089" data-name="Trazado 230089" d="M132.853,182.458a173.93,173.93,0,0,0,19.516,12.592l.336,1.41a3.97,3.97,0,0,1-5.044,4.728l-1.669-.518s-21.846-5.975-22.326-12.266C120.76,184.807,126.169,176.339,132.853,182.458Z" transform="translate(-66.71 -164.217)" fill="#0059d6"/>
        <path id="Trazado_230090" data-name="Trazado 230090" d="M132.853,182.458a173.93,173.93,0,0,0,19.516,12.592l.336,1.41a3.97,3.97,0,0,1-5.044,4.728l-1.669-.518s-21.846-5.975-22.326-12.266C120.76,184.807,126.169,176.339,132.853,182.458Z" transform="translate(-66.71 -164.217)" opacity="0.5"/>
      </g>
      <path id="Trazado_230091" data-name="Trazado 230091" d="M123.082,149.182h0l-3.05.729-19.823,4.728a3.1,3.1,0,0,1-.115-.451,20.744,20.744,0,0,1-.47-2.7c-.067-.633-.115-1.266-.125-1.918-.115-6.713,3.155-12.467,8.324-13.685s10.664,2.388,13.6,8.449c.259.537.5,1.113.719,1.688a20.187,20.187,0,0,1,.834,2.676A3.514,3.514,0,0,0,123.082,149.182Z" transform="translate(-65.752 -109.906)" fill="#263238"/>
      <path id="Trazado_230092" data-name="Trazado 230092" d="M123,149.627l-3.05.748L100.125,155.1a2.221,2.221,0,0,0-.115-.451,20.721,20.721,0,0,1-.46-2.7l22.489-5.438a20.192,20.192,0,0,1,.834,2.676A.628.628,0,0,1,123,149.627Z" transform="translate(-65.754 -110.351)" opacity="0.5"/>
      <path id="Trazado_230093" data-name="Trazado 230093" d="M130.216,149.847a2.206,2.206,0,0,1-1.669,2.666l-31.264,7.471a2.215,2.215,0,0,1-2.666-1.64,2.172,2.172,0,0,1,1.64-2.666l31.293-7.48a2.216,2.216,0,0,1,2.666,1.65Z" transform="translate(-65.549 -110.418)" fill="#263238"/>
    </g>
  </g>
</svg>
