<svg xmlns="http://www.w3.org/2000/svg" xmlns:xlink="http://www.w3.org/1999/xlink" width="302.571" height="304.257" viewBox="0 0 302.571 304.257">
  <defs>
    <clipPath id="clip-path">
      <path id="Trazado_231125" data-name="Trazado 231125" d="M154.622,134.982h0l-4.878-32.322-14.458,2.963-7.211,4.648s-8.6,6.75-8.6,7.442,14.556,25.049,14.556,25.049a26.983,26.983,0,0,0,20.6-7.779Z" transform="translate(-119.47 -102.66)" fill="#fff" stroke="#263238" stroke-linecap="round" stroke-linejoin="round" stroke-width="1"/>
    </clipPath>
    <clipPath id="clip-path-2">
      <path id="Trazado_231132" data-name="Trazado 231132" d="M128.39,104.266a55.205,55.205,0,0,1,2.093,6.511c.461,2.324,6.741,6.28,7.433,6.511s1.162-7.442,1.162-7.442l-1.854-9.065Z" transform="translate(-128.39 -100.78)" fill="#fff" stroke="#263238" stroke-linecap="round" stroke-linejoin="round" stroke-width="1"/>
    </clipPath>
    <clipPath id="clip-path-3">
      <path id="Trazado_231140" data-name="Trazado 231140" d="M120.42,91.709s2,8.311,6.28,12.418,8.87,4.142,10.458-3.175c1.3-6.032-1.934-14.077-1.934-14.077S124.775,78.271,120.42,91.709Z" transform="translate(-120.42 -84.162)" fill="#fff" stroke="#263238" stroke-linecap="round" stroke-linejoin="round" stroke-width="1"/>
    </clipPath>
    <clipPath id="clip-path-4">
      <path id="Trazado_231153" data-name="Trazado 231153" d="M118.445,119.65,110.4,152.025l23.594,6.688,1.162-4.187-15.5-7.149,5.26-18.627a16.861,16.861,0,0,0-4.435-7.433" transform="translate(-110.4 -119.65)" fill="#fff" stroke="#263238" stroke-linecap="round" stroke-linejoin="round" stroke-width="1"/>
    </clipPath>
    <clipPath id="clip-path-5">
      <path id="Trazado_231157" data-name="Trazado 231157" d="M189.66,127.446,171.8,123.694,153.55,102.61l2.7,16.959,11.194,10.662,22.494,1.029Z" transform="translate(-153.55 -102.61)" fill="#fff" stroke="#263238" stroke-linecap="round" stroke-linejoin="round" stroke-width="1"/>
    </clipPath>
    <clipPath id="clip-path-6">
      <path id="Trazado_231162" data-name="Trazado 231162" d="M355.639,313.029H130.155a4.985,4.985,0,0,1-4.985-4.985V181.877a4.985,4.985,0,0,1,4.985-4.985h.612a5.012,5.012,0,0,0,4.639-3.14l3.433-8.631a4.852,4.852,0,0,1,2-2.395,6.386,6.386,0,0,1,3.229-.887H202.02a6.4,6.4,0,0,1,2.28.417,4.834,4.834,0,0,1,2.395,2.093l5.9,10.05a4.985,4.985,0,0,0,4.3,2.466H355.639a4.985,4.985,0,0,1,4.985,4.985V308.044a4.985,4.985,0,0,1-4.985,4.985Z" transform="translate(-125.17 -161.84)" fill="#61b3e0" stroke="#263238" stroke-miterlimit="10" stroke-width="1"/>
    </clipPath>
    <clipPath id="clip-path-7">
      <rect id="Rectángulo_37923" data-name="Rectángulo 37923" width="249.584" height="154.719" rx="5.27" fill="#fff" stroke="#263238" stroke-miterlimit="10" stroke-width="1"/>
    </clipPath>
    <clipPath id="clip-path-8">
      <path id="Trazado_231182" data-name="Trazado 231182" d="M395.629,230.534l-2.093-6.262-2.351-3.22a.319.319,0,0,0-.585.2v9.278l1.774,2.333Z" transform="translate(-390.599 -220.908)" fill="#0059d6" stroke="#263238" stroke-miterlimit="10" stroke-width="1"/>
    </clipPath>
    <clipPath id="clip-path-9">
      <path id="Trazado_231186" data-name="Trazado 231186" d="M439.489,243.716a9.544,9.544,0,0,0-1.774,3.628,77.044,77.044,0,0,0,.151,8.258l-9.136,1.029s.692-6.661.727-7.77a9.881,9.881,0,0,1,4.834-6.564C437.431,240.753,440.1,241.507,439.489,243.716Z" transform="translate(-428.73 -241.483)" fill="#fff" stroke="#263238" stroke-miterlimit="10" stroke-width="1.004"/>
    </clipPath>
    <clipPath id="clip-path-10">
      <path id="Trazado_231190" data-name="Trazado 231190" d="M440.434,243.425c7.575-10.005-10.688-20.4-15.487-10.458a18.731,18.731,0,0,0-1.579,3.867c-.727.443-2.661,1.632-3.016,1.96s.887,1.171,1.57,1.588c-1.3,3.2-1.109,6.573-.736,7.335.648,1.313,3.841,1.33,5.943.94s2.936-2.4,3.548-2.954,3.663.151,4.737.47S438.961,245.4,440.434,243.425Z" transform="translate(-420.29 -228.942)" fill="#fff" stroke="#263238" stroke-miterlimit="10" stroke-width="1"/>
    </clipPath>
    <clipPath id="clip-path-11">
      <path id="Trazado_231214" data-name="Trazado 231214" d="M425.7,260.052s-4.2,4.745-5.863,6.7-1.676,22.893-1.676,25.971-1.668,11.433,1.118,13.11,19.824,1.118,21.5-1.676,2.785-36.287,2.51-39.356a8.542,8.542,0,0,0-4.754-6.422C436.589,257.48,425.7,260.052,425.7,260.052Z" transform="translate(-417.662 -258.186)" fill="#fff" stroke="#263238" stroke-miterlimit="10" stroke-width="1"/>
    </clipPath>
  </defs>
  <g id="Documents-bro" transform="translate(-109.9 -78.775)">
    <g id="freepik--Ladder--inject-1--inject-120" transform="translate(306.347 132.195)">
      <path id="Trazado_231098" data-name="Trazado 231098" d="M359.614,139a1.331,1.331,0,0,0-1.331,1.331v6.821H333.971v-6.821a1.331,1.331,0,0,0-2.661,0V312.142a1.331,1.331,0,0,0,2.661,0V273.709h24.313v38.434a1.331,1.331,0,0,0,2.661,0V140.3A1.33,1.33,0,0,0,359.614,139Zm-1.331,132.074H333.971v-8.622h24.313Zm0-11.292H333.971V251.17h24.313Zm0-11.283H333.971v-8.586h24.313Zm0-11.274H333.971v-8.551h24.313Zm0-11.265H333.971v-8.453h24.313Zm0-11.229H333.971v-8.506h24.313Zm0-11.176H333.971V194.97h24.313Zm0-11.283H333.971v-8.586h24.313Zm0-11.256H333.971V172.4h24.313Zm0-11.283H333.971V161.1h24.313Zm0-11.292H333.971v-8.63h24.313Z" transform="translate(-331.31 -139)" fill="#fff"/>
    </g>
    <g id="freepik--character-1--inject-1--inject-120" transform="translate(110.4 78.775)">
      <path id="Trazado_231120" data-name="Trazado 231120" d="M128.51,80.855a8.178,8.178,0,0,0-8.143-1.623c-4.878,1.623-9.553,8.675-8.373,14.644.825,4.133,4.657,10.227,5.819,12.551s-.47,6.253-4.16,14.414-5.118,15.815,5.579,22.556,22.8-3.956,29.014-11.629-4.657-25.342-5.588-32.819S140.13,77.139,128.51,80.855Z" transform="translate(-110.46 -78.775)" fill="#263238"/>
      <path id="Trazado_231121" data-name="Trazado 231121" d="M156.163,139.1a25.616,25.616,0,0,1-20.49,7.4l-2.563,10.688,4.878,24.4,31.852-16.507-7.211-18.627Z" transform="translate(-112.966 -85.592)" fill="#0059d6" stroke="#263238" stroke-linecap="round" stroke-linejoin="round" stroke-width="1"/>
      <path id="Trazado_231122" data-name="Trazado 231122" d="M156.163,139.1a25.616,25.616,0,0,1-20.49,7.4l-2.563,10.688,4.878,24.4,31.852-16.507-7.211-18.627Z" transform="translate(-112.966 -85.592)" fill="#263238" opacity="0.3"/>
      <path id="Trazado_231123" data-name="Trazado 231123" d="M154.622,134.982h0l-4.878-32.322-14.458,2.963-7.211,4.648s-8.6,6.75-8.6,7.442,14.556,25.049,14.556,25.049a26.983,26.983,0,0,0,20.6-7.779Z" transform="translate(-111.425 -81.474)" fill="#fff"/>
      <g id="Grupo_124306" data-name="Grupo 124306" transform="translate(8.045 21.186)" clip-path="url(#clip-path)">
        <path id="Trazado_231124" data-name="Trazado 231124" d="M162.669,142.374l-6.511-7.442L151.28,102.61l-14.414,3.007-3.406,2.2,1.082,14.653a8.524,8.524,0,0,0,2.874,1.029c1.029,0,1.854-2.262,1.854-2.262l1.233-2.058a4.524,4.524,0,0,0,4.737.417c2.874-1.242,1.233-5.765.816-7.406s3.912-.621,3.912-.621,3.495,7.61,3.912,10.076-1.854,9.26-1.65,10.706.2,4.107-.612,4.932-3.708,5.322-3.708,5.322,12.143,1.029,13.376,1.029a10.429,10.429,0,0,0,1.774-.346Z" transform="translate(-121.051 -102.654)" fill="none" opacity="0.5"/>
      </g>
      <path id="Trazado_231126" data-name="Trazado 231126" d="M154.622,134.982h0l-4.878-32.322-14.458,2.963-7.211,4.648s-8.6,6.75-8.6,7.442,14.556,25.049,14.556,25.049a26.983,26.983,0,0,0,20.6-7.779Z" transform="translate(-111.425 -81.474)" fill="none" stroke="#263238" stroke-linecap="round" stroke-linejoin="round" stroke-width="1"/>
      <path id="Trazado_231127" data-name="Trazado 231127" d="M137.061,136.809s10.192-7.557,9.251-5.322-7.983,7.814-9.872,7.983S137.061,136.809,137.061,136.809Z" transform="translate(-113.263 -84.685)" fill="#0059d6" opacity="0.5"/>
      <path id="Trazado_231128" data-name="Trazado 231128" d="M137.58,120.727l.4.417,2.484,2.626.639,10.085,3.042-.479-2.4-9.447,3.85,8,3.2-3.2-6.883-6.244-.169-4.958-3.521-1.765" transform="translate(-113.471 -82.955)" fill="#263238"/>
      <path id="Trazado_231129" data-name="Trazado 231129" d="M130.885,107.545s-3.025,1.393-3.025,4.178,3.273,9.411,5.322,10.8,5.561-4.985,5.561-4.985,5.322,2.555,6.741.231-3.255-10-6.271-12.09S130.885,107.545,130.885,107.545Z" transform="translate(-112.373 -81.747)" fill="#fff" stroke="#263238" stroke-linecap="round" stroke-linejoin="round" stroke-width="1"/>
      <path id="Trazado_231130" data-name="Trazado 231130" d="M128.39,104.266a55.205,55.205,0,0,1,2.093,6.511c.461,2.324,6.741,6.28,7.433,6.511s1.162-7.442,1.162-7.442l-1.854-9.065Z" transform="translate(-112.433 -81.262)" fill="#fff"/>
      <g id="Grupo_124307" data-name="Grupo 124307" transform="translate(15.957 19.518)" clip-path="url(#clip-path-2)">
        <path id="Trazado_231131" data-name="Trazado 231131" d="M137.494,101.838a9.011,9.011,0,0,0-1.189-.248l-6.413,2.262-.843,2.2c.426,1.189.967,2.785,1.3,4.08a7.14,7.14,0,0,0,3.663,1.535c1.925.133,3.619-1.357,4.816-3.184Z" transform="translate(-128.465 -100.872)" fill="#0059d6" opacity="0.5"/>
      </g>
      <path id="Trazado_231133" data-name="Trazado 231133" d="M128.39,104.266a55.205,55.205,0,0,1,2.093,6.511c.461,2.324,6.741,6.28,7.433,6.511s1.162-7.442,1.162-7.442l-1.854-9.065Z" transform="translate(-112.433 -81.262)" fill="none" stroke="#263238" stroke-linecap="round" stroke-linejoin="round" stroke-width="1"/>
      <path id="Trazado_231134" data-name="Trazado 231134" d="M123.343,100.132s-2.563-2.084-2.563,0,2.333,3.255,4.187,3.255" transform="translate(-111.573 -81.084)" fill="#fff" stroke="#263238" stroke-linecap="round" stroke-linejoin="round" stroke-width="1"/>
      <path id="Trazado_231135" data-name="Trazado 231135" d="M139.13,92.514s1.632-2.555,2.093.239a7.1,7.1,0,0,1-1.393,5.109Z" transform="translate(-113.646 -80.207)" fill="#fff" stroke="#263238" stroke-linecap="round" stroke-linejoin="round" stroke-width="1"/>
      <path id="Trazado_231136" data-name="Trazado 231136" d="M123.343,100.132s-2.563-2.084-2.563,0,2.333,3.255,4.187,3.255" transform="translate(-111.573 -81.084)" fill="#0059d6" stroke="#263238" stroke-linecap="round" stroke-linejoin="round" stroke-width="1" opacity="0.5"/>
      <path id="Trazado_231137" data-name="Trazado 231137" d="M139.13,92.514s1.632-2.555,2.093.239a7.1,7.1,0,0,1-1.393,5.109Z" transform="translate(-113.646 -80.207)" fill="#0059d6" stroke="#263238" stroke-linecap="round" stroke-linejoin="round" stroke-width="1" opacity="0.5"/>
      <path id="Trazado_231138" data-name="Trazado 231138" d="M120.42,91.709s2,8.311,6.28,12.418,8.87,4.142,10.458-3.175c1.3-6.032-1.934-14.077-1.934-14.077S124.775,78.271,120.42,91.709Z" transform="translate(-111.532 -79.384)" fill="#fff"/>
      <g id="Grupo_124308" data-name="Grupo 124308" transform="translate(8.888 4.778)" clip-path="url(#clip-path-3)">
        <path id="Trazado_231139" data-name="Trazado 231139" d="M128.81,84.169l1.623,4.08s2.555-.568,3.992,2.519,2.883,7.61,2.058,11.114c-.789,3.335-2.661,4.435-5.544,4.515,3.14,1.339,5.987,0,7.167-5.464,1.3-6.032-1.934-14.077-1.934-14.077S132.633,83.956,128.81,84.169Z" transform="translate(-121.368 -84.161)" fill="#0059d6" opacity="0.5"/>
      </g>
      <path id="Trazado_231141" data-name="Trazado 231141" d="M120.42,91.709s2,8.311,6.28,12.418,8.87,4.142,10.458-3.175c1.3-6.032-1.934-14.077-1.934-14.077S124.775,78.271,120.42,91.709Z" transform="translate(-111.532 -79.384)" fill="none" stroke="#263238" stroke-linecap="round" stroke-linejoin="round" stroke-width="1"/>
      <path id="Trazado_231142" data-name="Trazado 231142" d="M129.2,97.543c.248.47.2.976-.1,1.135s-.745-.1-.985-.568-.2-.967.1-1.126S128.963,97.082,129.2,97.543Z" transform="translate(-112.385 -80.828)" fill="#263238"/>
      <path id="Trazado_231143" data-name="Trazado 231143" d="M134.425,95.909c.177.5.062.993-.257,1.1s-.727-.2-.887-.692-.062-.993.257-1.1S134.247,95.43,134.425,95.909Z" transform="translate(-112.977 -80.631)" fill="#263238"/>
      <path id="Trazado_231144" data-name="Trazado 231144" d="M134.526,92.957a2,2,0,0,0-2.413.142c-1.277.993,1.135,5.97,1.135,5.97s.044,1.57-1.969.843" transform="translate(-112.759 -80.339)" fill="none" stroke="#263238" stroke-linecap="round" stroke-linejoin="round" stroke-width="0.5"/>
      <path id="Trazado_231145" data-name="Trazado 231145" d="M134.488,102.66a2.288,2.288,0,0,1-3.548.887" transform="translate(-112.721 -81.474)" fill="none" stroke="#263238" stroke-linecap="round" stroke-linejoin="round" stroke-width="0.5"/>
      <path id="Trazado_231146" data-name="Trazado 231146" d="M128.434,94.419s-2.271-2.138-3.264,1.987" transform="translate(-112.069 -80.481)" fill="none" stroke="#263238" stroke-linecap="round" stroke-linejoin="round" stroke-width="0.5"/>
      <path id="Trazado_231147" data-name="Trazado 231147" d="M134.907,83.887c-2.492-2.164-4.506-2.138-5.384-1.854a5.952,5.952,0,0,0-2.723-.887c-6.972-.931-7.9,4.435-7.9,9.535s-4.435,11.158-1.393,11.859a3.637,3.637,0,0,0,4.187-2.093s3.255-5.322,3.255-9.074,4.054-3.4,4.054-3.4h0a2.164,2.164,0,0,1,3.264-.373c1.845,1.579,2.058,3.433,3.548,3.912s3.983-1.916,3.983-1.916A35.089,35.089,0,0,0,134.907,83.887Z" transform="translate(-111.082 -79.031)" fill="#263238"/>
      <path id="Trazado_231148" data-name="Trazado 231148" d="M129.354,85.7a3.98,3.98,0,0,0-5.322.275c-2.519,2.528-2.244,7.309-3.087,10.4a4.843,4.843,0,0,1-3.1,3.654" transform="translate(-111.242 -79.454)" fill="none" stroke="#fff" stroke-linecap="round" stroke-linejoin="round" stroke-width="0.5"/>
      <path id="Trazado_231149" data-name="Trazado 231149" d="M127.463,84.727s-3.025-3-6.83.8c-2.9,2.909-1.605,4.816-2.173,9.6" transform="translate(-111.311 -79.321)" fill="none" stroke="#fff" stroke-linecap="round" stroke-linejoin="round" stroke-width="0.5"/>
      <path id="Trazado_231150" data-name="Trazado 231150" d="M132.41,84.168s5.322-2.528,7.593,3.938" transform="translate(-112.887 -79.33)" fill="none" stroke="#fff" stroke-linecap="round" stroke-linejoin="round" stroke-width="0.5"/>
      <path id="Trazado_231151" data-name="Trazado 231151" d="M118.445,119.65,110.4,152.025l23.594,6.688,1.162-4.187-15.5-7.149,5.26-18.627a16.861,16.861,0,0,0-4.435-7.433" transform="translate(-110.4 -83.394)" fill="#fff"/>
      <g id="Grupo_124309" data-name="Grupo 124309" transform="translate(0 36.256)" clip-path="url(#clip-path-4)">
        <path id="Trazado_231152" data-name="Trazado 231152" d="M135.55,155.115l-15.5-7.149,5.26-18.627A14.3,14.3,0,0,0,123.336,125l-.506-.381v5.145c0,3.291-4.116,13.784-5.561,16.25s-3.7,5.553-3.7,5.553l4.524-2.058,17.146,6.865Z" transform="translate(-110.758 -120.212)" fill="#0059d6" opacity="0.5"/>
      </g>
      <path id="Trazado_231154" data-name="Trazado 231154" d="M118.445,119.65,110.4,152.025l23.594,6.688,1.162-4.187-15.5-7.149,5.26-18.627a16.861,16.861,0,0,0-4.435-7.433" transform="translate(-110.4 -83.394)" fill="none" stroke="#263238" stroke-linecap="round" stroke-linejoin="round" stroke-width="1"/>
      <path id="Trazado_231155" data-name="Trazado 231155" d="M189.66,127.446,171.8,123.694,153.55,102.61l2.7,16.959,11.194,10.662,22.494,1.029Z" transform="translate(-115.276 -81.469)" fill="#fff"/>
      <g id="Grupo_124310" data-name="Grupo 124310" transform="translate(38.274 21.141)" clip-path="url(#clip-path-5)">
        <path id="Trazado_231156" data-name="Trazado 231156" d="M153.55,102.61l2.173,13.536,1.384,4.231.177.16c.523-.541,3.477-3.61,4.231-3.61s9.26,7.406,8.027,7.983l-1.242.612,21.19,3.495.151-1.623-17.829-3.743Z" transform="translate(-153.55 -102.61)" fill="#0059d6" opacity="0.5"/>
      </g>
      <path id="Trazado_231158" data-name="Trazado 231158" d="M189.66,127.446,171.8,123.694,153.55,102.61l2.7,16.959,11.194,10.662,22.494,1.029Z" transform="translate(-115.276 -81.469)" fill="none" stroke="#263238" stroke-linecap="round" stroke-linejoin="round" stroke-width="1"/>
      <path id="Trazado_231159" data-name="Trazado 231159" d="M352.989,309.987,125.5,276.653a2.759,2.759,0,0,1-2.324-3.131l18.946-129.245a2.75,2.75,0,0,1,3.122-2.324l4.311.63a2.741,2.741,0,0,0,2.785-1.348l5.721-9.89a2.608,2.608,0,0,1,.692-.8,6.342,6.342,0,0,1,4.639-1.135l57.345,8.409a6.333,6.333,0,0,1,3.433,1.65,2.661,2.661,0,0,1,.585.887l5.1,12.631a2.741,2.741,0,0,0,2.155,1.694l140.723,20.632a2.759,2.759,0,0,1,2.333,3.122L356.12,307.672a2.758,2.758,0,0,1-3.131,2.315Z" transform="translate(-111.84 -84.49)" fill="#013783" stroke="#263238" stroke-miterlimit="10" stroke-width="1"/>
      <path id="Trazado_231160" data-name="Trazado 231160" d="M355.639,313.029H130.155a4.985,4.985,0,0,1-4.985-4.985V181.877a4.985,4.985,0,0,1,4.985-4.985h.612a5.012,5.012,0,0,0,4.639-3.14l3.433-8.631a4.852,4.852,0,0,1,2-2.395,6.386,6.386,0,0,1,3.229-.887H202.02a6.4,6.4,0,0,1,2.28.417,4.834,4.834,0,0,1,2.395,2.093l5.9,10.05a4.985,4.985,0,0,0,4.3,2.466H355.639a4.985,4.985,0,0,1,4.985,4.985V308.044a4.985,4.985,0,0,1-4.985,4.985Z" transform="translate(-112.069 -88.162)" fill="#40d3e2"/>
      <path id="Trazado_231163" data-name="Trazado 231163" d="M355.639,313.029H130.155a4.985,4.985,0,0,1-4.985-4.985V181.877a4.985,4.985,0,0,1,4.985-4.985h.612a5.012,5.012,0,0,0,4.639-3.14l3.433-8.631a4.852,4.852,0,0,1,2-2.395,6.386,6.386,0,0,1,3.229-.887H202.02a6.4,6.4,0,0,1,2.28.417,4.834,4.834,0,0,1,2.395,2.093l5.9,10.05a4.985,4.985,0,0,0,4.3,2.466H355.639a4.985,4.985,0,0,1,4.985,4.985V308.044a4.985,4.985,0,0,1-4.985,4.985Z" transform="translate(-112.069 -88.162)" fill="none" stroke="#263238" stroke-miterlimit="10" stroke-width="1"/>
      <path id="Trazado_231164" data-name="Trazado 231164" d="M191.99,177.5H155.906a3.246,3.246,0,0,1-3.246-3.246h0A3.246,3.246,0,0,1,155.906,171H191.99a3.255,3.255,0,0,1,3.255,3.255h0a3.246,3.246,0,0,1-3.255,3.246Z" transform="translate(-115.175 -89.197)" fill="#fff"/>
      <path id="Trazado_231165" data-name="Trazado 231165" d="M355.639,337.85H130.155a4.985,4.985,0,0,1-4.985-4.985V206.7a4.985,4.985,0,0,1,4.985-4.985h.612a5,5,0,0,0,4.639-3.14l3.433-8.622a4.816,4.816,0,0,1,2-2.395,6.307,6.307,0,0,1,3.229-.887H202.02a6.4,6.4,0,0,1,2.28.417,4.807,4.807,0,0,1,2.395,2.1l5.9,10.059a4.985,4.985,0,0,0,4.3,2.466H355.639a4.985,4.985,0,0,1,4.985,4.985V332.865A4.985,4.985,0,0,1,355.639,337.85Z" transform="translate(-112.069 -90.967)" fill="#468faf" stroke="#263238" stroke-miterlimit="10" stroke-width="1"/>
      <path id="Trazado_231166" data-name="Trazado 231166" d="M211.566,147.61l-35.8-4.435a3.264,3.264,0,0,1-2.83-3.628h0a3.255,3.255,0,0,1,3.637-2.821l35.79,4.435a3.255,3.255,0,0,1,2.83,3.628h0a3.246,3.246,0,0,1-3.628,2.821Z" transform="translate(-117.464 -85.321)" fill="#0059d6"/>
      <path id="Trazado_231167" data-name="Trazado 231167" d="M211.566,147.61l-35.8-4.435a3.264,3.264,0,0,1-2.83-3.628h0a3.255,3.255,0,0,1,3.637-2.821l35.79,4.435a3.255,3.255,0,0,1,2.83,3.628h0a3.246,3.246,0,0,1-3.628,2.821Z" transform="translate(-117.464 -85.321)" fill="#fff" opacity="0.5"/>
      <path id="Trazado_231168" data-name="Trazado 231168" d="M191.99,202.331H155.906a3.246,3.246,0,0,1-3.246-3.255h0a3.255,3.255,0,0,1,3.246-3.255H191.99a3.255,3.255,0,0,1,3.255,3.255h0A3.255,3.255,0,0,1,191.99,202.331Z" transform="translate(-115.175 -92.001)" fill="#0059d6"/>
      <path id="Trazado_231169" data-name="Trazado 231169" d="M191.99,202.331H155.906a3.246,3.246,0,0,1-3.246-3.255h0a3.255,3.255,0,0,1,3.246-3.255H191.99a3.255,3.255,0,0,1,3.255,3.255h0A3.255,3.255,0,0,1,191.99,202.331Z" transform="translate(-115.175 -92.001)" fill="#fff" opacity="0.5"/>
      <rect id="Rectángulo_37922" data-name="Rectángulo 37922" width="249.584" height="154.719" rx="5.27" transform="translate(6.032 148.692)" fill="#fff"/>
      <g id="Grupo_124312" data-name="Grupo 124312" transform="translate(6.032 148.692)" clip-path="url(#clip-path-7)">
        <path id="Trazado_231170" data-name="Trazado 231170" d="M368.659,293.36a373.888,373.888,0,0,1-93.224,63.775c-50.426,24.118-108.063,40.74-141.645,49.3H363.975a4.674,4.674,0,0,0,4.683-4.674Z" transform="translate(-119.075 -251.715)" fill="#feb62b"/>
      </g>
      <rect id="Rectángulo_37924" data-name="Rectángulo 37924" width="249.584" height="154.719" rx="5.27" transform="translate(6.032 148.692)" fill="none" stroke="#263238" stroke-miterlimit="10" stroke-width="1"/>
      <path id="Trazado_231172" data-name="Trazado 231172" d="M121.27,260.344v-6.209a4.683,4.683,0,0,1,4.683-4.674H136.11" transform="translate(-111.628 -98.063)" fill="none" stroke="#263238" stroke-miterlimit="10" stroke-width="1"/>
      <line id="Línea_467" data-name="Línea 467" y1="86.731" transform="translate(9.642 169.847)" fill="none" stroke="#263238" stroke-miterlimit="10" stroke-width="1"/>
      <path id="Trazado_231173" data-name="Trazado 231173" d="M392.861,401.4v9.819a4.674,4.674,0,0,1-4.674,4.683H380" transform="translate(-140.865 -115.232)" fill="none" stroke="#263238" stroke-miterlimit="10" stroke-width="1"/>
      <line id="Línea_468" data-name="Línea 468" y2="118.769" transform="translate(251.997 160.099)" fill="none" stroke="#263238" stroke-miterlimit="10" stroke-width="1"/>
      <rect id="Rectángulo_37925" data-name="Rectángulo 37925" width="79.058" height="42.709" rx="2.73" transform="translate(91.29 205.265)" fill="none" stroke="#263238" stroke-miterlimit="10" stroke-width="1"/>
      <rect id="Rectángulo_37926" data-name="Rectángulo 37926" width="79.058" height="12.986" rx="2.73" transform="translate(91.29 205.265)" fill="#fff" stroke="#263238" stroke-miterlimit="10" stroke-width="1"/>
      <path id="Trazado_231174" data-name="Trazado 231174" d="M137,163.081l1.623,3.025,3.45,2.484a1.339,1.339,0,0,0,1.508.053l.3-.2a1.056,1.056,0,0,0,.417-1.331l-1.96-4.506,1.322,1.029a1.02,1.02,0,0,0,1.41-.16h0a1.029,1.029,0,0,0,0-1.286l-3.078-3.894-3.85.594Z" transform="translate(-113.406 -87.762)" fill="#fff" stroke="#263238" stroke-miterlimit="10" stroke-width="1"/>
      <line id="Línea_469" data-name="Línea 469" x1="3.087" y1="4.054" transform="translate(27.426 76.632)" fill="none" stroke="#263238" stroke-linecap="round" stroke-linejoin="round" stroke-width="0.5"/>
      <line id="Línea_470" data-name="Línea 470" x1="2.422" y1="3.211" transform="translate(26.282 77.617)" fill="none" stroke="#263238" stroke-linecap="round" stroke-linejoin="round" stroke-width="0.5"/>
      <path id="Trazado_231175" data-name="Trazado 231175" d="M194.26,130.61l4.825.284,5.872,3.752s.328,1.144-.488,1.3-5.224-1.464-5.224-1.464l-4.71-.062Z" transform="translate(-119.876 -84.633)" fill="#fff" stroke="#263238" stroke-miterlimit="10" stroke-width="1"/>
      <path id="Trazado_231176" data-name="Trazado 231176" d="M194.54,134.178l5.065,2.288s.816-1.144-.328-1.632l-1.668-1.144" transform="translate(-119.908 -84.981)" fill="#fff" stroke="#263238" stroke-linejoin="round" stroke-width="1"/>
    </g>
    <g id="freepik--character-2--inject-1--inject-120" transform="translate(351.53 204.847)">
      <path id="Trazado_231177" data-name="Trazado 231177" d="M395.629,230.534l-2.093-6.262-2.351-3.22a.319.319,0,0,0-.585.2v9.278l1.774,2.333Z" transform="translate(-383.193 -220.908)" fill="#fff"/>
      <path id="Trazado_231178" data-name="Trazado 231178" d="M429.97,259.142l-17.563.621a3.415,3.415,0,0,1-3.158-1.854L395.856,231.76s-3.016,1.632-3.246,2.324,9.917,26.14,13.03,33.954a3.415,3.415,0,0,0,3.309,2.147l19.629-.834" transform="translate(-383.42 -222.134)" fill="#fff" stroke="#263238" stroke-miterlimit="10" stroke-width="1"/>
      <line id="Línea_471" data-name="Línea 471" x1="2.75" y2="1.135" transform="translate(10.973 12.881)" fill="#fff" stroke="#263238" stroke-miterlimit="10" stroke-width="0.75"/>
      <g id="Grupo_124313" data-name="Grupo 124313" transform="translate(9.186 9.626)" opacity="0.5">
        <path id="Trazado_231179" data-name="Trazado 231179" d="M429.97,259.142l-17.563.621a3.415,3.415,0,0,1-3.158-1.854L395.856,231.76s-3.016,1.632-3.246,2.324,9.917,26.14,13.03,33.954a3.415,3.415,0,0,0,3.309,2.147l19.629-.834" transform="translate(-392.606 -231.76)" fill="#0059d6" stroke="#263238" stroke-miterlimit="10" stroke-width="1"/>
        <line id="Línea_472" data-name="Línea 472" x1="2.75" y2="1.135" transform="translate(1.787 3.255)" fill="#0059d6" stroke="#263238" stroke-miterlimit="10" stroke-width="0.75"/>
      </g>
      <path id="Trazado_231180" data-name="Trazado 231180" d="M395.629,230.534l-2.093-6.262-2.351-3.22a.319.319,0,0,0-.585.2v9.278l1.774,2.333Z" transform="translate(-383.193 -220.908)" fill="#0059d6"/>
      <g id="Grupo_124314" data-name="Grupo 124314" transform="translate(7.406 0)" clip-path="url(#clip-path-8)">
        <path id="Trazado_231181" data-name="Trazado 231181" d="M395.629,230.534l-2.093-6.262-2.351-3.22a.319.319,0,0,0-.585.2v9.278l1.774,2.333Z" transform="translate(-390.599 -220.908)" fill="#fff" opacity="0.5"/>
      </g>
      <path id="Trazado_231183" data-name="Trazado 231183" d="M395.629,230.534l-2.093-6.262-2.351-3.22a.319.319,0,0,0-.585.2v9.278l1.774,2.333Z" transform="translate(-383.193 -220.908)" fill="none" stroke="#263238" stroke-miterlimit="10" stroke-width="1"/>
      <path id="Trazado_231184" data-name="Trazado 231184" d="M439.489,243.716a9.544,9.544,0,0,0-1.774,3.628,77.044,77.044,0,0,0,.151,8.258l-9.136,1.029s.692-6.661.727-7.77a9.881,9.881,0,0,1,4.834-6.564C437.431,240.753,440.1,241.507,439.489,243.716Z" transform="translate(-387.502 -223.233)" fill="#fff"/>
      <g id="Grupo_124315" data-name="Grupo 124315" transform="translate(41.228 18.25)" clip-path="url(#clip-path-9)">
        <path id="Trazado_231185" data-name="Trazado 231185" d="M439.485,243.906c-1.659-.452-3.672-.958-5.375-1.366a9.917,9.917,0,0,0-4.621,6.431c0,.426-.124,1.668-.248,3.034.887-.2,2.3-.514,3.344-.7a14.68,14.68,0,0,0,2.439-.612l-.31,5.322h.2l2.98-.337a77.059,77.059,0,0,1-.151-8.258,9.322,9.322,0,0,1,1.738-3.513Z" transform="translate(-428.788 -241.603)" fill="#0059d6" opacity="0.5"/>
      </g>
      <path id="Trazado_231187" data-name="Trazado 231187" d="M439.489,243.716a9.544,9.544,0,0,0-1.774,3.628,77.044,77.044,0,0,0,.151,8.258l-9.136,1.029s.692-6.661.727-7.77a9.881,9.881,0,0,1,4.834-6.564C437.431,240.753,440.1,241.507,439.489,243.716Z" transform="translate(-387.502 -223.233)" fill="none" stroke="#263238" stroke-miterlimit="10" stroke-width="1.004"/>
      <path id="Trazado_231188" data-name="Trazado 231188" d="M440.434,243.425c7.575-10.005-10.688-20.4-15.487-10.458a18.731,18.731,0,0,0-1.579,3.867c-.727.443-2.661,1.632-3.016,1.96s.887,1.171,1.57,1.588c-1.3,3.2-1.109,6.573-.736,7.335.648,1.313,3.841,1.33,5.943.94s2.936-2.4,3.548-2.954,3.663.151,4.737.47S438.961,245.4,440.434,243.425Z" transform="translate(-386.548 -221.816)" fill="#fff"/>
      <g id="Grupo_124316" data-name="Grupo 124316" transform="translate(33.742 7.126)" clip-path="url(#clip-path-10)">
        <path id="Trazado_231189" data-name="Trazado 231189" d="M433.141,244.19s.16.754-1.366,1.366-1.827.151-2.28,1.215a3.8,3.8,0,0,1-3.042,2.741,36.429,36.429,0,0,1-4.373.559c1.206.674,3.6.621,5.322.31,2.093-.381,2.936-2.4,3.548-2.954s3.663.151,4.737.47a1.952,1.952,0,0,0,.763,0,8.321,8.321,0,0,0,.71-2.821Z" transform="translate(-420.492 -230.665)" fill="#0059d6" opacity="0.5"/>
      </g>
      <path id="Trazado_231191" data-name="Trazado 231191" d="M440.434,243.425c7.575-10.005-10.688-20.4-15.487-10.458a18.731,18.731,0,0,0-1.579,3.867c-.727.443-2.661,1.632-3.016,1.96s.887,1.171,1.57,1.588c-1.3,3.2-1.109,6.573-.736,7.335.648,1.313,3.841,1.33,5.943.94s2.936-2.4,3.548-2.954,3.663.151,4.737.47S438.961,245.4,440.434,243.425Z" transform="translate(-386.548 -221.816)" fill="none" stroke="#263238" stroke-miterlimit="10" stroke-width="1"/>
      <path id="Trazado_231192" data-name="Trazado 231192" d="M426.2,238.707c-.2.426-.523.692-.736.594s-.231-.523,0-.949.523-.692.736-.594S426.4,238.281,426.2,238.707Z" transform="translate(-387.114 -222.81)" fill="#263238"/>
      <path id="Trazado_231193" data-name="Trazado 231193" d="M426.12,235.73s.887-.736,1.064.958" transform="translate(-387.207 -222.565)" fill="none" stroke="#263238" stroke-linecap="round" stroke-linejoin="round" stroke-width="0.5"/>
      <path id="Trazado_231194" data-name="Trazado 231194" d="M421.93,243.78s0,.887,1.6.887" transform="translate(-386.733 -223.492)" fill="none" stroke="#263238" stroke-linecap="round" stroke-linejoin="round" stroke-width="0.5"/>
      <path id="Trazado_231195" data-name="Trazado 231195" d="M418.811,309.22l-.7,8.675s-4.852,34.54-4.621,38.5.754,44.927.754,44.927l5.845.931,6.564-45.432,9.216-46.168Z" transform="translate(-385.779 -230.887)" fill="#0059d6" stroke="#263238" stroke-miterlimit="10" stroke-width="1"/>
      <path id="Trazado_231196" data-name="Trazado 231196" d="M418.811,309.22l-.7,8.675s-4.852,34.54-4.621,38.5.754,44.927.754,44.927l5.845.931,6.564-45.432,9.216-46.168Z" transform="translate(-385.779 -230.887)" fill="#263238" opacity="0.2"/>
      <path id="Trazado_231197" data-name="Trazado 231197" d="M426.792,344.79s-2.244,13.207-3.938,19.683-1.685,12.932-1.685,19.957-2.528,19.975-2.528,19.975" transform="translate(-386.362 -234.907)" fill="none" stroke="#263238" stroke-miterlimit="10" stroke-width="0.75"/>
      <path id="Trazado_231198" data-name="Trazado 231198" d="M431.647,306.542c3.85-2.022,7.983-3.362,9.163-.674,2.342,5.375-.461,13.544-.461,13.544l2.138,37.68,3.912,45.459-5.845-.94s-8.976-38.363-10.378-40.7-3.61-35.187-3.61-35.187l-4.435-4.036" transform="translate(-386.756 -230.338)" fill="#0059d6" stroke="#263238" stroke-miterlimit="10" stroke-width="1"/>
      <g id="Grupo_124317" data-name="Grupo 124317" transform="translate(35.374 74.024)" opacity="0.2">
        <path id="Trazado_231199" data-name="Trazado 231199" d="M431.647,306.542c3.85-2.022,7.983-3.362,9.163-.674,2.342,5.375-.461,13.544-.461,13.544l2.138,37.68,3.912,45.459-5.845-.94s-8.976-38.363-10.378-40.7-3.61-35.187-3.61-35.187l-4.435-4.036" transform="translate(-422.13 -304.362)" fill="#263238"/>
      </g>
      <path id="Trazado_231200" data-name="Trazado 231200" d="M438,339c.133,8.737,1.02,12.941,1.712,15.248.843,2.812.559,8.152.559,10.644s-1.126-.559,1.41,10.972,4.213,27.55,4.213,27.55" transform="translate(-388.549 -234.252)" fill="none" stroke="#263238" stroke-miterlimit="10" stroke-width="0.75"/>
      <path id="Trazado_231201" data-name="Trazado 231201" d="M438,317.53s.275-.568,0,12.649v2.058" transform="translate(-388.549 -231.826)" fill="none" stroke="#263238" stroke-miterlimit="10" stroke-width="0.75"/>
      <path id="Trazado_231202" data-name="Trazado 231202" d="M423.23,314.7l-.186,3.956-.914,2.75L423.5,323" transform="translate(-386.756 -231.506)" fill="none" stroke="#263238" stroke-linecap="round" stroke-linejoin="round" stroke-width="0.75"/>
      <path id="Trazado_231203" data-name="Trazado 231203" d="M421.35,317.36s2.288,2.288,8.231,1.6" transform="translate(-386.668 -231.807)" fill="none" stroke="#263238" stroke-linecap="round" stroke-linejoin="round" stroke-width="0.75"/>
      <path id="Trazado_231204" data-name="Trazado 231204" d="M435.145,313.915c4.435-.887,4.719-2.111,6.253-3.14a12.8,12.8,0,0,0-.887-4.905c-1.162-2.661-5.322-1.348-9.163.674l-1.863,2.945-10-.816-.319,3.921a32.659,32.659,0,0,0,15.975,1.322Z" transform="translate(-386.421 -230.34)" fill="#263238"/>
      <path id="Trazado_231205" data-name="Trazado 231205" d="M420.608,312.28l-.1,1.561,2.537.585.2-2.049Z" transform="translate(-386.573 -231.233)" fill="#fff" stroke="#263238" stroke-miterlimit="10" stroke-width="0.75"/>
      <path id="Trazado_231206" data-name="Trazado 231206" d="M440.526,314.341l-.426-3.885,1.286-.426.648,3.45" transform="translate(-388.786 -230.979)" fill="#0059d6" stroke="#263238" stroke-miterlimit="10" stroke-width="1"/>
      <path id="Trazado_231207" data-name="Trazado 231207" d="M429.29,315.773l-.86-4.533h2.155l.86,3.885" transform="translate(-387.468 -231.115)" fill="#0059d6" stroke="#263238" stroke-miterlimit="10" stroke-width="1"/>
      <g id="Grupo_124318" data-name="Grupo 124318" transform="translate(40.962 79.051)" opacity="0.2">
        <path id="Trazado_231208" data-name="Trazado 231208" d="M440.526,314.341l-.426-3.885,1.286-.426.648,3.45" transform="translate(-429.749 -310.03)" fill="#263238"/>
        <path id="Trazado_231209" data-name="Trazado 231209" d="M429.29,315.773l-.86-4.533h2.155l.86,3.885" transform="translate(-428.43 -310.167)" fill="#263238"/>
      </g>
      <path id="Trazado_231210" data-name="Trazado 231210" d="M417.26,270.46s-.736,4.923-2.945,13.3S409.88,302.2,409.88,302.2l1.233,5.162,3.681-5.411Z" transform="translate(-385.372 -226.507)" fill="#263238" stroke="#263238" stroke-miterlimit="10" stroke-width="1"/>
      <path id="Trazado_231211" data-name="Trazado 231211" d="M424.347,262.022s-5.162,1.224-5.65,3.681a20.4,20.4,0,0,0-.5,3.442l7.868-6.386,9.837-3.938Z" transform="translate(-386.312 -225.192)" fill="#263238" stroke="#263238" stroke-miterlimit="10" stroke-width="1"/>
      <path id="Trazado_231212" data-name="Trazado 231212" d="M425.7,260.052s-4.2,4.745-5.863,6.7-1.676,22.893-1.676,25.971-1.668,11.433,1.118,13.11,19.824,1.118,21.5-1.676,2.785-36.287,2.51-39.356a8.542,8.542,0,0,0-4.754-6.422C436.589,257.48,425.7,260.052,425.7,260.052Z" transform="translate(-386.251 -225.12)" fill="#fff"/>
      <g id="Grupo_124319" data-name="Grupo 124319" transform="translate(31.411 33.066)" clip-path="url(#clip-path-11)">
        <path id="Trazado_231213" data-name="Trazado 231213" d="M438.9,258.38a2.226,2.226,0,0,0-.727-.16l-1.206.63a11.442,11.442,0,0,1,3.956,6.546,34.8,34.8,0,0,1-.151,11.256c-.6,4.107-10.342,0-8.515,1.526s8.666,4.107,8.976,5.473-3.388,3.646-4.719,3.805.887,3.193,2.28,5.774.887,6.209-2.28,8.675-10.52,3.681-13.7,3.805c-1.029,0-1.668.266-1.863.568,4.879,1.091,18.689.381,20.188-2.12,1.676-2.794,2.785-36.287,2.51-39.356a8.542,8.542,0,0,0-4.754-6.422Z" transform="translate(-418.034 -258.19)" fill="#0059d6" opacity="0.5"/>
      </g>
      <path id="Trazado_231215" data-name="Trazado 231215" d="M425.7,260.052s-4.2,4.745-5.863,6.7-1.676,22.893-1.676,25.971-1.668,11.433,1.118,13.11,19.824,1.118,21.5-1.676,2.785-36.287,2.51-39.356a8.542,8.542,0,0,0-4.754-6.422C436.589,257.48,425.7,260.052,425.7,260.052Z" transform="translate(-386.251 -225.12)" fill="none" stroke="#263238" stroke-miterlimit="10" stroke-width="1"/>
      <path id="Trazado_231216" data-name="Trazado 231216" d="M435.315,283.562c-4.5-1.4-8.435-5.322-8.435-5.322a19.026,19.026,0,0,0,7.593,11.531" transform="translate(-387.293 -227.386)" fill="#fff" stroke="#263238" stroke-linecap="round" stroke-linejoin="round" stroke-width="0.75"/>
      <path id="Trazado_231217" data-name="Trazado 231217" d="M438.436,254.94l-13.4,3.069-.834,3.912,15.07-3.912Z" transform="translate(-386.99 -224.754)" fill="#fff" stroke="#263238" stroke-miterlimit="10" stroke-width="1"/>
      <path id="Trazado_231218" data-name="Trazado 231218" d="M419.79,419.841l-.781-5.89-5.845-.931-4.87,3.468-4.364,2.395v.958Z" transform="translate(-384.699 -242.617)" fill="#263238" stroke="#263238" stroke-miterlimit="10" stroke-width="1"/>
      <path id="Trazado_231219" data-name="Trazado 231219" d="M448.3,420.413l-.727-5.473-5.845-.94-4.87,3.468-4.364,2.4v.541Z" transform="translate(-387.927 -242.727)" fill="#263238" stroke="#263238" stroke-miterlimit="10" stroke-width="1"/>
      <path id="Trazado_231220" data-name="Trazado 231220" d="M392.81,225.734l-3.6-2.084s-1.4-.169-.8,1.393l3.6,2.776" transform="translate(-382.929 -221.217)" fill="#fff" stroke="#263238" stroke-linecap="round" stroke-linejoin="round" stroke-width="1"/>
      <path id="Trazado_231221" data-name="Trazado 231221" d="M391.6,231.269a3.6,3.6,0,0,0-.736-1.153l-.674-.727h0l-3.663-4.541s-1.135-.763-.887.887l2.271,4.435-4.036-3.787s-.763-.63-.763.257,3.663,4.8,3.663,4.8l-4.045-1.9s-.887.63-.248,1.26a21.853,21.853,0,0,0,4.036,1.9l-3.025-.124s-.887.754-.257,1.011,4.169,1,4.169,1a5.038,5.038,0,0,0,1.517.887l.887,1.641,3.4-1.712Z" transform="translate(-382.249 -221.333)" fill="#fff" stroke="#263238" stroke-linecap="round" stroke-linejoin="round" stroke-width="1"/>
      <path id="Trazado_231222" data-name="Trazado 231222" d="M428.833,272.006l-20.241,4.745a4.55,4.55,0,0,1-5.029-2.83l-12.773-35.48,3.4-1.712L408.3,262.87a3.158,3.158,0,0,0,3.406,1.605l15.478-4.373" transform="translate(-383.214 -222.696)" fill="#fff"/>
      <path id="Trazado_231223" data-name="Trazado 231223" d="M428.833,272.006l-20.241,4.745a4.55,4.55,0,0,1-5.029-2.83l-12.773-35.48,3.4-1.712L408.3,262.87a3.158,3.158,0,0,0,3.406,1.605l15.478-4.373" transform="translate(-383.214 -222.696)" fill="none" stroke="#263238" stroke-miterlimit="10" stroke-width="1"/>
      <line id="Línea_473" data-name="Línea 473" x1="3.938" y2="1.969" transform="translate(8.941 17.378)" fill="none" stroke="#263238" stroke-miterlimit="10" stroke-width="0.75"/>
      <path id="Trazado_231224" data-name="Trazado 231224" d="M429.983,232.224s-2.155,2.155-1.082,3.77a10.742,10.742,0,0,1,1.437,3.042s-.887,2.155-.177,2.155.355-1.614,1.614-1.251,2.51,2.51,1.437,3.229a12.259,12.259,0,0,1-2.537,1.064.6.6,0,0,0-.124,1.1,8.542,8.542,0,0,0,3.912,1.419,13.714,13.714,0,0,0,3.406-.355s3.548-4.843,6.1-6.1,1.437-7,1.437-7.717-2.51-2.333-2.51-2.333.718-1.614-2.51-5.2-9.331-4.311-9.509-3.051a1.774,1.774,0,0,0,.718,1.774s-5.384-2.333-7.894.177S429.983,232.224,429.983,232.224Z" transform="translate(-386.883 -220.966)" fill="#263238" stroke="#263238" stroke-miterlimit="10" stroke-width="1"/>
      <path id="Trazado_231225" data-name="Trazado 231225" d="M430.84,233.6s4.364,5.322,10.83,5.836" transform="translate(-387.74 -222.342)" fill="none" stroke="#fff" stroke-linecap="round" stroke-linejoin="round" stroke-width="0.5"/>
      <path id="Trazado_231226" data-name="Trazado 231226" d="M429.1,235.43s2.031,5.907,10.431,7.593" transform="translate(-387.544 -222.549)" fill="none" stroke="#fff" stroke-linecap="round" stroke-linejoin="round" stroke-width="0.5"/>
    </g>
  </g>
</svg>
